<?xml version="1.0" encoding="UTF-8"?>
<svg id="Layer_2" data-name="Layer 2" xmlns="http://www.w3.org/2000/svg" viewBox="0 0 255.91691 81.70461">
  <defs>
    <style>
      .cls-1 {
        fill: #eaa26c;
      }

      .cls-2, .cls-3, .cls-4 {
        fill: #cb7c2e;
      }

      .cls-5, .cls-6 {
        fill: #e0904c;
      }

      .cls-7, .cls-8, .cls-9 {
        fill: #d89a89;
      }

      .cls-10, .cls-11 {
        stroke-width: 2px;
      }

      .cls-10, .cls-11, .cls-12, .cls-13 {
        fill: none;
        stroke-linecap: round;
        stroke-linejoin: round;
      }

      .cls-10, .cls-12, .cls-3 {
        stroke: #000;
      }

      .cls-11, .cls-13 {
        stroke: #7b3f24;
      }

      .cls-12 {
        stroke-width: 1.9658px;
      }

      .cls-13 {
        stroke-width: 1.92576px;
      }

      .cls-3 {
        stroke-miterlimit: 10;
        stroke-width: .75px;
      }

      .cls-8 {
        opacity: .6;
      }

      .cls-9, .cls-14, .cls-4 {
        opacity: .5;
      }

      .cls-14, .cls-15 {
        fill: #b17137;
      }

      .cls-6 {
        opacity: .8;
      }

      .cls-15 {
        opacity: .3;
      }
    </style>
  </defs>
  <g id="Layer_8" data-name="Layer 8">
    <g>
      <g>
        <path class="cls-3" d="m10.34838,28.35158s-8.33061,5.72868-7.64406,14.41461c.68655,8.68593,24.16748,16.30448,24.16748,16.30448,0,0-1.45904,1.39093,1.65759,1.69358s42.72823-3.37733,42.72823-3.37733c0,0,5.54032-3.06112,5.24753-6.76541s.45688-12.76372-4.94287-15.42023c-5.39975-2.65651-12.64471-11.92439-19.84751-13.3434-7.20281-1.41902-42.03729,5.58956-41.36639,6.49371Z"/>
        <path class="cls-5" d="m39.49801,46.5827s11.74142-8.21977,21.02494-3.52052c9.28352,4.69924,5.63315,12.21166,2.47231,7.7635-1.07183-1.50836-2.23524.06498-2.43949,1.7015s-4.37267,4.36529-5.60687,1.41272c-1.2342-2.95257.57719,1.6997-3.19788-.39955-4.49524-2.49972.00092,2.52634-3.37479,2.31109-3.07654-.19617-3.47283-1.01029-4.89858.2462s-2.85115,1.732-4.23864.54225c-2.00524-1.71946-1.44545-4.93423-6.13195-5.47995-1.32472-.15426-.56007-3.88485,6.39095-4.57725Z"/>
        <path class="cls-2" d="m45.2314,54.0389s.11127-2.98624-2.37966-.47273c-2.49093,2.51351-4.71532,1.64429-4.71532,1.64429,0,0,1.24392,3.03771,3.77151,2.15582s3.32347-3.32737,3.32347-3.32737Z"/>
        <ellipse class="cls-1" cx="54.90049" cy="43.46331" rx="2.54485" ry=".91354" transform="translate(-3.25405 4.4611) rotate(-4.51938)"/>
        <ellipse class="cls-1" cx="42.03504" cy="47.57608" rx=".70343" ry="2.0804" transform="translate(-20.57766 58.06784) rotate(-58.05079)"/>
        <path class="cls-2" d="m45.2314,54.0389s3.0776.91403,4.21954-.33352.68778,2.02669-1.07471,2.14606-4.4247-.23394-3.14484-1.81254Z"/>
        <path class="cls-2" d="m54.53818,51.03204s-1.24954,2.23932-3.1436,1.6037c0,0,1.12481,2.13495,2.15442,1.76965s.98918-3.37335.98918-3.37335Z"/>
        <path class="cls-2" d="m55.63147,51.30132c1.41023.25212,3.78146.32656,4.61944-1.74343.17694-.43708.62799-.70688,1.09674-.65567.93257.10189,2.36761.13282,3.05348-.50119.53292-.49263,1.40793-.28485,1.69423.38202.40771.94967.5615,1.92397-.10565,2.47801-1.60565,1.33342-2.66024-.0749-2.77673-.43862s-1.36384-1.71293-1.67353-.6355-2.24646,5.83897-5.11846,5.0287c-1.659-.46805-2.02962-1.79135-2.04675-2.82565-.01119-.6757.59198-1.20763,1.25722-1.08869Z"/>
        <path class="cls-4" d="m56.69332,41.77974c-.24867.03729-3.4394.04821-4.03222.17681-2.09376.45417.07457,7.12002-3.97834,7.83903-3.80316.6747-6.90408-2.45668-7.81115-2.33555-.7446.09944,5.17908,4.08025,1.34703,6.84502-.35697.25755,1.56213,1.39208,1.88993,1.09668h0c.20673-.1863.51655-.19624.72971-.01604.65669.55513,2.13437,1.55543,3.56426.79867,1.91474-1.01337.23596-2.86558,1.62427-3.07715s2.56259,1.82872,3.54649,1.60566c.80236-.1819,2.20735.48863,2.69852.74227.12164.06282.25491.07806.38676.04435.80051-.20468,3.64593-1.10677,4.52039-3.75766,1.02138-3.09628,2.46367.5021,3.42239.42395s4.24941-1.05806.33035-5.52965c-3.70547-4.22789-5.62918-5.24765-8.23839-4.85637Z"/>
        <path class="cls-4" d="m38.37439,46.75686s-4.33908,2.453-1.83084,4.93468c0,0-3.93196-.85306-4.07732-1.25415s-.18017-3.42911,5.90816-3.68053Z"/>
        <circle class="cls-1" cx="40.31346" cy="48.99236" r=".73147"/>
        <path class="cls-4" d="m63.47367,50.12298c.18702.14169.31189.3279.36501.53705.29339,1.15499,1.0594,5.1102-2.13775,5.33955-3.74651.26875-6.57018,1.09425-8.64761-.54846s-4.26575-.40478-4.73181.18099c-.43527.54706-5.18803,4.08182-7.77932,1.4918-.33783-.33766-.3818-.82731-.0997-1.21309l.24672-.33739c.33893-.46349,1.03349-.63494,1.59849-.39906.8965.37427,2.22045.82493,3.13753.68667,1.50764-.2273,2.57027-2.21175,2.67444-3.0356.09432-.7459,1.79127-.03316,2.11153.10838.03558.01573.06678.03169.10018.05044l1.26043.70737c.41097.23064.95371.22187,1.36903-.02212h0c.43821-.25743,1.01511-.25172,1.42944.01416l1.34992.86627c.26627.17087.60497.23775.9398.18686,1.17632-.17879,3.87361-.76093,4.04582-2.35512.22066-2.04278.73894-2.8777,1.35185-2.92614.41802-.03304,1.05388.39309,1.41599.66743Z"/>
        <path class="cls-8" d="m69.0839,34.77082c-1.07146-.27124-1.65558,1.24298-.68067,1.7637,2.69643,1.4402,5.35071,3.73773,6.08016,7.12832.92388,4.29437.02147,8.19999-.99606,10.14941-.33894.64936.3508,1.36155,1.00176,1.02571,1.46592-.75629,1.98527-3.02923,1.87989-5.93915-.15764-4.35328-.92517-11.34296-3.64095-12.69051-1.21879-.60475-2.42242-1.1282-3.64414-1.43747Z"/>
        <path class="cls-6" d="m20.6426,44.63068c.51194-1.20095.06486-2.59257-1.05241-3.26792-.80293-.48534-1.78539-1.12184-2.82101-1.89102-2.56095-1.90208-3.17656-3.8814-5.49615-3.69806-1.06849.08446-2.44251-.66412-3.61387-1.49619-1.33938-.95143-3.20902-.47498-3.90583,1.01284l-1.00934,2.15512.44191.5024c-.94795,2.09835-.49597,4.21851-.59107,5.79698-.11405,1.89324,9.0111,8.10831,10.3155,8.97469.12207.08108,1.22571.76486,1.35959.82446l1.8603-.47003c1.8489.82306,3.89326-.6712,3.67033-2.68271l-.25719-2.3206c-.04967-.44813.01713-.9015.19394-1.31626l.90528-2.12371Z"/>
        <path class="cls-14" d="m5.85242,33.43889c-.38399.51977-.17915,1.26244.41925,1.50641.98753.40261,2.21764.97171,3.26829,2.54275,1.52405,2.27893,2.60812-.88175,3.13232,2.15261s-.4199,2.38694,4.64634,5.45934c.37375.22666.72246.44956,1.04778.66801,1.85201,1.24364,4.40048.26443,4.84363-1.92194.21066-1.03934.51711-2.08028.95843-3.02448.66443-1.42153.19488-3.11265-1.11858-3.97116l-.2566-.16772c-1.29679-.84762-2.97254-.56719-4.03925.55631-.28392.29904-.51298.31944-.56132-.2922-.0753-.9526-.38576-1.80438-.66691-2.40327-.25601-.54532-.66845-.99962-1.18039-1.31717l-1.61956-1.00457c-.09784-.06068-.19893-.11595-.30283-.16553l-4.02399-1.92044c-.90419-.43152-1.98739-.16113-2.58271.6447l-1.96389,2.65834Z"/>
        <path class="cls-14" d="m17.5258,34.54355s-4.46531-7.00341,6.14004-9.17106c0,0-14.28073,2.67547-14.67982,4.07348s8.53978,5.09758,8.53978,5.09758Z"/>
        <path class="cls-7" d="m6.55747,43.00535c.06785-.82451.07159-1.54644-.08793-1.97848-.37855-1.02524-.28224-1.74788-.0171-2.24989.31746-.60107,1.23019-.32202,1.15004.35299l-.47451,3.99659-.57051-.12122Z"/>
        <circle class="cls-7" cx="6.66048" cy="44.18065" r=".36303"/>
        <circle class="cls-7" cx="6.55029" cy="45.36621" r=".36303"/>
        <path class="cls-14" d="m53.95244,35.43117s1.56343-7.41279-1.68252-7.97674c-3.24595-.56396-10.27932,3.79206-14.48588,2.78219-4.63724-1.11326-2.92094-6.44494,4.67647-7.47653,7.59741-1.03159,8.94303-.87763,8.94303-.87763,0,0,8.86532,3.68954,11.39427,6.36266s8.18068,6.92295,8.18068,6.92295c0,0-7.99918-1.53308-17.02604.2631Z"/>
        <path class="cls-9" d="m61.88636,29.59665c.89589,1.21126,1.40567,2.74806-.81013,3.55183-.32061.1163-.23626.58453.10461.57349,3.03641-.09839,6.61418-.86696,1.12445-4.56076-.28737-.19336-.62491.15697-.41894.43544Z"/>
        <rect class="cls-9" x="34.59001" y="34.16311" width="25.46683" height=".67394" rx=".33697" ry=".33697" transform="translate(-2.57134 3.83618) rotate(-4.51938)"/>
        <path class="cls-15" d="m54.22232,54.37758c-1.4194,3.12824-4.11355,5.42989-8.91812,5.60974l24.36576-1.91271s6.5531-2.67103,6.56323-7.02768-.50781-10.93039-.50781-10.93039c0,0-1.79065-5.14478-6.64147-5.34572s-15.13146.66035-15.13146.66035c0,0,.73471,2.41322,1.22817,5.72698,0,0,7.31805,1.94522,9.19781,4.65185s3.14024,5.84765,1.29904,6.00166-3.48845-1.75382-3.48845-1.75382l-1.02336.26503s-1.29222,4.93211-4.07209,4.87032c-2.77988-.06179-2.87125-.81561-2.87125-.81561Z"/>
        <path class="cls-13" d="m22.97884,46.30447c.02203-1.44398.40616-2.81339,1.07132-4.01364"/>
        <path class="cls-13" d="m22.89297,45.86762c-.00023-.05573.00008-.11136.00093-.16688"/>
        <path class="cls-13" d="m25.53123,39.64903c1.39219-1.3416,3.24292-2.22771,5.32416-2.39221l35.70298-2.82204c4.75713-.37601,8.91715,3.16033,9.29168,7.89865l.51894,6.56538c.37453,4.73832-3.17827,8.8843-7.9354,9.26031l-35.70298,2.82204c-4.75713.37601-8.91715-3.16033-9.29168-7.89865l-.30652-3.87794"/>
        <path class="cls-11" d="m13.17622,31.81651c-2.71247-1.20943-4.89189-2.01987-5.28709-1.70877-1.16934.92049-8.13447,10.57976-4.70512,15.55312s24.75279,14.7025,24.75279,14.7025"/>
        <path class="cls-11" d="m25.84828,38.08563s-1.84776-.97929-4.36002-2.25452c-.3264-.16568-.99136-.21272-.98318.15323.04279,1.91413-2.67006,2.12856-2.16585-.64109.17167-.94301-1.69098-1.86269-2.71687-2.35235"/>
        <path class="cls-11" d="m40.81254,57.40083c.86121.12087,1.82014-.26228,2.84096-1.4492.59067-.68678,1.11069-1.32878,1.5779-1.91271"/>
        <path class="cls-11" d="m41.42804,47.50955c-1.22899-.44977-2.99247-.71607-5.35404-.21146-4.52841.96761-4.29081,3.52074-2.75716,3.89003s3.0076.21404,4.16998,2.79603c.48017,1.06661,1.15143,2.12787,1.96586,2.78305"/>
        <path class="cls-11" d="m43.65565,48.9089s-.18739-.2245-.57894-.51853"/>
        <path class="cls-11" d="m44.50044,55.22611s2.89412,1.46018,4.36937.61321c.7441-.4272.75231-1.23297.75178-1.97292-.0006-.83551.88685-1.38992,1.64931-1.04827.33244.14896,1.02128.90525,1.45302,1.16273,2.11938,1.26396,2.16792-2.00117,1.81427-2.94882"/>
        <path class="cls-11" d="m56.24339,55.08993c.34963.1253.75809.17402,1.22667.08313,1.90967-.37043,2.81848-1.48435,3.71105-4.36459.17762-.57315.41085-.69087.653-.77089.84701-.27988,1.83746,2.02165,2.98506,1.99366,1.53014-.03732,3.25621-1.82761-.4963-6.27894s-10.69133-4.43284-11.83669-4.06433-11.01299,2.1689-12.74631,4.73222"/>
        <path class="cls-11" d="m54.6493,53.595s.15266.32647.46397.68675"/>
        <path class="cls-11" d="m60.96292,49.00841c-.17335-.09597-.34671-.18027-.48978-.23988"/>
        <path class="cls-12" d="m75.34579,39.82006c.25546.71056.42147,1.46592.48377,2.25403l.52783,6.6778c.38094,4.81945-3.26104,9.03867-8.13459,9.42388l-36.57676,2.8911c-3.56857.28207-6.80796-1.56972-8.43646-4.47375"/>
        <path class="cls-12" d="m72.72804,36.20829c1.2821,1.10359,2.01215,1.92731,2.61774,3.61177"/>
        <path class="cls-10" d="m7.28714,30.74349c-2.02048,2.42643-7.14148,10.51105-4.10313,14.91737,2.58956,3.75547,16.13155,10.58189,22.24174,13.52411"/>
        <path class="cls-10" d="m70.34737,34.13528c-4.76428-4.1386-15.16694-12.70079-19.22264-12.27537-4.97929.52231-36.11508,3.38757-42.80878,7.85202"/>
      </g>
      <g>
        <path class="cls-3" d="m74.10303,47.97812s-8.33061,5.72868-7.64406,14.41461c.68655,8.68593,24.16748,16.30448,24.16748,16.30448,0,0-1.45904,1.39093,1.65759,1.69358s42.72823-3.37733,42.72823-3.37733c0,0,5.54032-3.06112,5.24753-6.76541-.2928-3.70429.45688-12.76372-4.94287-15.42023-5.39975-2.65651-12.64471-11.92439-19.84751-13.3434-7.20281-1.41902-42.03729,5.58956-41.36639,6.49371Z"/>
        <path class="cls-5" d="m103.25266,66.20924s11.74142-8.21977,21.02494-3.52052c9.28352,4.69924,5.63315,12.21166,2.47231,7.7635-1.07183-1.50836-2.23524.06498-2.43949,1.7015s-4.37267,4.36529-5.60687,1.41272c-1.2342-2.95257.57719,1.6997-3.19788-.39955-4.49524-2.49972.00092,2.52634-3.37479,2.31109-3.07654-.19617-3.47283-1.01029-4.89858.2462s-2.85115,1.732-4.23864.54225c-2.00524-1.71946-1.44545-4.93423-6.13195-5.47995-1.32472-.15426-.56007-3.88485,6.39095-4.57725Z"/>
        <path class="cls-2" d="m108.98604,73.66544s.11127-2.98624-2.37966-.47273c-2.49093,2.51351-4.71532,1.64429-4.71532,1.64429,0,0,1.24392,3.03771,3.77151,2.15582s3.32347-3.32737,3.32347-3.32737Z"/>
        <ellipse class="cls-1" cx="118.65514" cy="63.08985" rx="2.54485" ry=".91354" transform="translate(-4.60232 9.54576) rotate(-4.51938)"/>
        <ellipse class="cls-1" cx="105.78969" cy="67.20262" rx=".70343" ry="2.0804" transform="translate(-7.21336 121.40559) rotate(-58.05079)"/>
        <path class="cls-2" d="m108.98604,73.66544s3.0776.91403,4.21954-.33352.68778,2.02669-1.07471,2.14606-4.4247-.23394-3.14484-1.81254Z"/>
        <path class="cls-2" d="m118.29283,70.65858s-1.24954,2.23932-3.1436,1.6037c0,0,1.12481,2.13495,2.15442,1.76965s.98918-3.37335.98918-3.37335Z"/>
        <path class="cls-2" d="m119.38612,70.92786c1.41023.25212,3.78146.32656,4.61944-1.74343.17694-.43708.62799-.70688,1.09674-.65567.93257.10189,2.36761.13282,3.05348-.50119.53292-.49263,1.40793-.28485,1.69423.38202.40771.94967.5615,1.92397-.10565,2.47801-1.60565,1.33342-2.66024-.0749-2.77673-.43862s-1.36384-1.71293-1.67353-.6355-2.24646,5.83897-5.11846,5.0287c-1.659-.46805-2.02962-1.79135-2.04675-2.82565-.01119-.6757.59198-1.20763,1.25722-1.08869Z"/>
        <path class="cls-4" d="m120.44797,61.40628c-.24867.03729-3.4394.04821-4.03222.17681-2.09376.45417.07457,7.12002-3.97834,7.83903-3.80316.6747-6.90408-2.45668-7.81115-2.33555-.7446.09944,5.17908,4.08025,1.34703,6.84502-.35697.25755,1.56213,1.39208,1.88993,1.09668h0c.20673-.1863.51655-.19624.72971-.01604.65669.55513,2.13437,1.55543,3.56426.79867,1.91474-1.01337.23596-2.86558,1.62427-3.07715s2.56259,1.82872,3.54649,1.60566c.80236-.1819,2.20735.48863,2.69852.74227.12164.06282.25491.07806.38676.04435.80051-.20468,3.64593-1.10677,4.52039-3.75766,1.02138-3.09628,2.46367.5021,3.42239.42395s4.24941-1.05806.33035-5.52965c-3.70547-4.22789-5.62918-5.24765-8.23839-4.85637Z"/>
        <path class="cls-4" d="m102.12904,66.3834s-4.33908,2.453-1.83084,4.93468c0,0-3.93196-.85306-4.07732-1.25415s-.18017-3.42911,5.90816-3.68053Z"/>
        <circle class="cls-1" cx="104.06811" cy="68.6189" r=".73147"/>
        <path class="cls-4" d="m127.22831,69.74953c.18702.14169.31189.3279.36501.53705.29339,1.15499,1.0594,5.1102-2.13775,5.33955-3.74651.26875-6.57018,1.09425-8.64761-.54846s-4.26575-.40478-4.73181.18099c-.43527.54706-5.18803,4.08182-7.77932,1.4918-.33783-.33766-.3818-.82731-.0997-1.21309l.24672-.33739c.33893-.46349,1.03349-.63494,1.59849-.39906.8965.37427,2.22045.82493,3.13753.68667,1.50764-.2273,2.57027-2.21175,2.67444-3.0356.09432-.7459,1.79127-.03316,2.11153.10838.03558.01573.06678.03169.10018.05044l1.26043.70737c.41097.23064.95371.22187,1.36903-.02212h0c.43821-.25743,1.01511-.25172,1.42944.01416l1.34992.86627c.26627.17087.60497.23775.9398.18686,1.17632-.17879,3.87361-.76093,4.04582-2.35512.22066-2.04278.73894-2.8777,1.35185-2.92614.41802-.03304,1.05388.39309,1.41599.66743Z"/>
        <path class="cls-8" d="m132.83855,54.39736c-1.07146-.27124-1.65558,1.24298-.68067,1.7637,2.69643,1.4402,5.35071,3.73773,6.08016,7.12832.92388,4.29437.02147,8.19999-.99606,10.14941-.33894.64936.3508,1.36155,1.00176,1.02571,1.46592-.75629,1.98527-3.02923,1.87989-5.93915-.15764-4.35328-.92517-11.34296-3.64095-12.69051-1.21879-.60475-2.42242-1.1282-3.64414-1.43747Z"/>
        <path class="cls-6" d="m84.39724,64.25722c.51194-1.20095.06486-2.59257-1.05241-3.26792-.80293-.48534-1.78539-1.12184-2.82101-1.89102-2.56095-1.90208-3.17656-3.8814-5.49615-3.69806-1.06849.08446-2.44251-.66412-3.61387-1.49619-1.33938-.95143-3.20902-.47498-3.90583,1.01284l-1.00934,2.15512.44191.5024c-.94795,2.09835-.49597,4.21851-.59107,5.79698-.11405,1.89324,9.0111,8.10831,10.3155,8.97469.12207.08108,1.22571.76486,1.35959.82446l1.8603-.47003c1.8489.82306,3.89326-.6712,3.67033-2.68271l-.25719-2.3206c-.04967-.44813.01713-.9015.19394-1.31626l.90528-2.12371Z"/>
        <path class="cls-14" d="m69.60707,53.06543c-.38399.51977-.17915,1.26244.41925,1.50641.98753.40261,2.21764.97171,3.26829,2.54275,1.52405,2.27893,2.60812-.88175,3.13232,2.15261s-.4199,2.38694,4.64634,5.45934c.37375.22666.72246.44956,1.04778.66801,1.85201,1.24364,4.40048.26443,4.84363-1.92194.21066-1.03934.51711-2.08028.95843-3.02448.66443-1.42153.19488-3.11265-1.11858-3.97116l-.2566-.16772c-1.29679-.84762-2.97254-.56719-4.03925.55631-.28392.29904-.51298.31944-.56132-.2922-.0753-.9526-.38576-1.80438-.66691-2.40327-.25601-.54532-.66845-.99962-1.18039-1.31717l-1.61956-1.00457c-.09784-.06068-.19893-.11595-.30283-.16553l-4.02399-1.92044c-.90419-.43152-1.98739-.16113-2.58271.6447l-1.96389,2.65834Z"/>
        <path class="cls-14" d="m81.28044,54.17009s-4.46531-7.00341,6.14004-9.17106c0,0-14.28073,2.67547-14.67982,4.07348s8.53978,5.09758,8.53978,5.09758Z"/>
        <path class="cls-7" d="m70.31212,62.63189c.06785-.82451.07159-1.54644-.08793-1.97848-.37855-1.02524-.28224-1.74788-.0171-2.24989.31746-.60107,1.23019-.32202,1.15004.35299l-.47451,3.99659-.57051-.12122Z"/>
        <circle class="cls-7" cx="70.41513" cy="63.80719" r=".36303"/>
        <circle class="cls-7" cx="70.30494" cy="64.99275" r=".36303"/>
        <path class="cls-14" d="m117.70709,55.05772s1.56343-7.41279-1.68252-7.97674c-3.24595-.56396-10.27932,3.79206-14.48588,2.78219-4.63724-1.11326-2.92094-6.44494,4.67647-7.47653,7.59741-1.03159,8.94303-.87763,8.94303-.87763,0,0,8.86532,3.68954,11.39427,6.36266s8.18068,6.92295,8.18068,6.92295c0,0-7.99918-1.53308-17.02604.2631Z"/>
        <path class="cls-9" d="m125.64101,49.2232c.89589,1.21126,1.40567,2.74806-.81013,3.55183-.32061.1163-.23626.58453.10461.57349,3.03641-.09839,6.61418-.86696,1.12445-4.56076-.28737-.19336-.62491.15697-.41894.43544Z"/>
        <rect class="cls-9" x="98.34465" y="53.78965" width="25.46683" height=".67394" rx=".33697" ry=".33697" transform="translate(-3.91961 8.92084) rotate(-4.51938)"/>
        <path class="cls-15" d="m117.97696,74.00412c-1.4194,3.12824-4.11355,5.42989-8.91812,5.60974l24.36576-1.91271s6.5531-2.67103,6.56323-7.02768-.50781-10.93039-.50781-10.93039c0,0-1.79065-5.14478-6.64147-5.34572s-15.13146.66035-15.13146.66035c0,0,.73471,2.41322,1.22817,5.72698,0,0,7.31805,1.94522,9.19781,4.65185s3.14024,5.84765,1.29904,6.00166-3.48845-1.75382-3.48845-1.75382l-1.02336.26503s-1.29222,4.93211-4.07209,4.87032c-2.77988-.06179-2.87125-.81561-2.87125-.81561Z"/>
        <path class="cls-13" d="m86.73349,65.93101c.02203-1.44398.40616-2.81339,1.07132-4.01364"/>
        <path class="cls-13" d="m86.64761,65.49417c-.00023-.05573.00008-.11136.00093-.16688"/>
        <path class="cls-13" d="m89.28587,59.27557c1.39219-1.3416,3.24292-2.22771,5.32416-2.39221l35.70298-2.82204c4.75713-.37601,8.91715,3.16033,9.29168,7.89865l.51894,6.56538c.37453,4.73832-3.17827,8.8843-7.9354,9.26031l-35.70298,2.82204c-4.75713.37601-8.91715-3.16033-9.29168-7.89865l-.30652-3.87794"/>
        <path class="cls-11" d="m76.93087,51.44305c-2.71247-1.20943-4.89189-2.01987-5.28709-1.70877-1.16934.92049-8.13447,10.57976-4.70512,15.55312s24.75279,14.7025,24.75279,14.7025"/>
        <path class="cls-11" d="m89.60293,57.71217s-1.84776-.97929-4.36002-2.25452c-.3264-.16568-.99136-.21272-.98318.15323.04279,1.91413-2.67006,2.12856-2.16585-.64109.17167-.94301-1.69098-1.86269-2.71687-2.35235"/>
        <path class="cls-11" d="m104.56718,77.02737c.86121.12087,1.82014-.26228,2.84096-1.4492.59067-.68678,1.11069-1.32878,1.5779-1.91271"/>
        <path class="cls-11" d="m105.18269,67.13609c-1.22899-.44977-2.99247-.71607-5.35404-.21146-4.52841.96761-4.29081,3.52074-2.75716,3.89003s3.0076.21404,4.16998,2.79603c.48017,1.06661,1.15143,2.12787,1.96586,2.78305"/>
        <path class="cls-11" d="m107.41029,68.53545s-.18739-.2245-.57894-.51853"/>
        <path class="cls-11" d="m108.25508,74.85265s2.89412,1.46018,4.36937.61321c.7441-.4272.75231-1.23297.75178-1.97292-.0006-.83551.88685-1.38992,1.64931-1.04827.33244.14896,1.02128.90525,1.45302,1.16273,2.11938,1.26396,2.16792-2.00117,1.81427-2.94882"/>
        <path class="cls-11" d="m119.99803,74.71647c.34963.1253.75809.17402,1.22667.08313,1.90967-.37043,2.81848-1.48435,3.71105-4.36459.17762-.57315.41085-.69087.653-.77089.84701-.27988,1.83746,2.02165,2.98506,1.99366,1.53014-.03732,3.25621-1.82761-.4963-6.27894s-10.69133-4.43284-11.83669-4.06433-11.01299,2.1689-12.74631,4.73222"/>
        <path class="cls-11" d="m118.40394,73.22154s.15266.32647.46397.68675"/>
        <path class="cls-11" d="m124.71756,68.63495c-.17335-.09597-.34671-.18027-.48978-.23988"/>
        <path class="cls-12" d="m139.10043,59.44661c.25546.71056.42147,1.46592.48377,2.25403l.52783,6.6778c.38094,4.81945-3.26104,9.03867-8.13459,9.42388l-36.57676,2.8911c-3.56857.28207-6.80796-1.56972-8.43646-4.47375"/>
        <path class="cls-12" d="m136.48269,55.83484c1.2821,1.10359,2.01215,1.92731,2.61774,3.61177"/>
        <path class="cls-10" d="m71.04178,50.37003c-2.02048,2.42643-7.14148,10.51105-4.10313,14.91737,2.58956,3.75547,16.13155,10.58189,22.24174,13.52411"/>
        <path class="cls-10" d="m134.10202,53.76183c-4.76428-4.1386-15.16694-12.70079-19.22264-12.27537-4.97929.52231-36.11508,3.38757-42.80878,7.85202"/>
      </g>
      <g>
        <path class="cls-3" d="m9.10485,8.63844S.77424,14.36712,1.46079,23.05305c.68655,8.68593,24.16748,16.30448,24.16748,16.30448,0,0-1.45904,1.39093,1.65759,1.69358s42.72823-3.37733,42.72823-3.37733c0,0,5.54032-3.06112,5.24753-6.76541-.2928-3.70429.45688-12.76372-4.94287-15.42023-5.39975-2.65651-12.64471-11.92439-19.84751-13.3434C43.26843.72571,8.43395,7.73429,9.10485,8.63844Z"/>
        <path class="cls-5" d="m38.25448,26.86956s11.74142-8.21977,21.02494-3.52052,5.63315,12.21166,2.47231,7.7635c-1.07183-1.50836-2.23524.06498-2.43949,1.7015s-4.37267,4.36529-5.60687,1.41272c-1.2342-2.95257.57719,1.6997-3.19788-.39955-4.49524-2.49972.00092,2.52634-3.37479,2.31109-3.07654-.19617-3.47283-1.01029-4.89858.2462s-2.85115,1.732-4.23864.54225c-2.00524-1.71946-1.44545-4.93423-6.13195-5.47995-1.32472-.15426-.56007-3.88485,6.39095-4.57725Z"/>
        <path class="cls-2" d="m43.98786,34.32576s.11127-2.98624-2.37966-.47273c-2.49093,2.51351-4.71532,1.64429-4.71532,1.64429,0,0,1.24392,3.03771,3.77151,2.15582s3.32347-3.32737,3.32347-3.32737Z"/>
        <ellipse class="cls-1" cx="53.65696" cy="23.75017" rx="2.54485" ry=".91354" transform="translate(-1.70459 4.30182) rotate(-4.51938)"/>
        <ellipse class="cls-1" cx="40.79151" cy="27.86294" rx=".70343" ry="2.0804" transform="translate(-4.43622 47.73109) rotate(-58.05079)"/>
        <path class="cls-2" d="m43.98786,34.32576s3.0776.91403,4.21954-.33352.68778,2.02669-1.07471,2.14606-4.4247-.23394-3.14484-1.81254Z"/>
        <path class="cls-2" d="m53.29465,31.3189s-1.24954,2.23932-3.1436,1.6037c0,0,1.12481,2.13495,2.15442,1.76965s.98918-3.37335.98918-3.37335Z"/>
        <path class="cls-2" d="m54.38794,31.58818c1.41023.25212,3.78146.32656,4.61944-1.74343.17694-.43708.62799-.70688,1.09674-.65567.93257.10189,2.36761.13282,3.05348-.50119.53292-.49263,1.40793-.28485,1.69423.38202.40771.94967.5615,1.92397-.10565,2.47801-1.60565,1.33342-2.66024-.0749-2.77673-.43862s-1.36384-1.71293-1.67353-.6355-2.24646,5.83897-5.11846,5.0287c-1.659-.46805-2.02962-1.79135-2.04675-2.82565-.01119-.6757.59198-1.20763,1.25722-1.08869Z"/>
        <path class="cls-4" d="m55.44979,22.0666c-.24867.03729-3.4394.04821-4.03222.17681-2.09376.45417.07457,7.12002-3.97834,7.83903-3.80316.6747-6.90408-2.45668-7.81115-2.33555-.7446.09944,5.17908,4.08025,1.34703,6.84502-.35697.25755,1.56213,1.39208,1.88993,1.09668h0c.20673-.1863.51655-.19624.72971-.01604.65669.55513,2.13437,1.55543,3.56426.79867,1.91474-1.01337.23596-2.86558,1.62427-3.07715s2.56259,1.82872,3.54649,1.60566c.80236-.1819,2.20735.48863,2.69852.74227.12164.06282.25491.07806.38676.04435.80051-.20468,3.64593-1.10677,4.52039-3.75766,1.02138-3.09628,2.46367.5021,3.42239.42395s4.24941-1.05806.33035-5.52965c-3.70547-4.22789-5.62918-5.24765-8.23839-4.85637Z"/>
        <path class="cls-4" d="m37.13086,27.04371s-4.33908,2.453-1.83084,4.93468c0,0-3.93196-.85306-4.07732-1.25415s-.18017-3.42911,5.90816-3.68053Z"/>
        <circle class="cls-1" cx="39.06993" cy="29.27922" r=".73147"/>
        <path class="cls-4" d="m62.23013,30.40984c.18702.14169.31189.3279.36501.53705.29339,1.15499,1.0594,5.1102-2.13775,5.33955-3.74651.26875-6.57018,1.09425-8.64761-.54846s-4.26575-.40478-4.73181.18099c-.43527.54706-5.18803,4.08182-7.77932,1.4918-.33783-.33766-.3818-.82731-.0997-1.21309l.24672-.33739c.33893-.46349,1.03349-.63494,1.59849-.39906.8965.37427,2.22045.82493,3.13753.68667,1.50764-.2273,2.57027-2.21175,2.67444-3.0356.09432-.7459,1.79127-.03316,2.11153.10838.03558.01573.06678.03169.10018.05044l1.26043.70737c.41097.23064.95371.22187,1.36903-.02212h0c.43821-.25743,1.01511-.25172,1.42944.01416l1.34992.86627c.26627.17087.60497.23775.9398.18686,1.17632-.17879,3.87361-.76093,4.04582-2.35512.22066-2.04278.73894-2.8777,1.35185-2.92614.41802-.03304,1.05388.39309,1.41599.66743Z"/>
        <path class="cls-8" d="m67.84037,15.05768c-1.07146-.27124-1.65558,1.24298-.68067,1.7637,2.69643,1.4402,5.35071,3.73773,6.08016,7.12832.92388,4.29437.02147,8.19999-.99606,10.14941-.33894.64936.3508,1.36155,1.00176,1.02571,1.46592-.75629,1.98527-3.02923,1.87989-5.93915-.15764-4.35328-.92517-11.34296-3.64095-12.69051-1.21879-.60475-2.42242-1.1282-3.64414-1.43747Z"/>
        <path class="cls-6" d="m19.39906,24.91754c.51194-1.20095.06486-2.59257-1.05241-3.26792-.80293-.48534-1.78539-1.12184-2.82101-1.89102-2.56095-1.90208-3.17656-3.8814-5.49615-3.69806-1.06849.08446-2.44251-.66412-3.61387-1.49619-1.33938-.95143-3.20902-.47498-3.90583,1.01284l-1.00934,2.15512.44191.5024c-.94795,2.09835-.49597,4.21851-.59107,5.79698-.11405,1.89324,9.0111,8.10831,10.3155,8.97469.12207.08108,1.22571.76486,1.35959.82446l1.8603-.47003c1.8489.82306,3.89326-.6712,3.67033-2.68271l-.25719-2.3206c-.04967-.44813.01713-.9015.19394-1.31626l.90528-2.12371Z"/>
        <path class="cls-14" d="m4.60889,13.72574c-.38399.51977-.17915,1.26244.41925,1.50641.98753.40261,2.21764.97171,3.26829,2.54275,1.52405,2.27893,2.60812-.88175,3.13232,2.15261s-.4199,2.38694,4.64634,5.45934c.37375.22666.72246.44956,1.04778.66801,1.85201,1.24364,4.40048.26443,4.84363-1.92194.21066-1.03934.51711-2.08028.95843-3.02448.66443-1.42153.19488-3.11265-1.11858-3.97116l-.2566-.16772c-1.29679-.84762-2.97254-.56719-4.03925.55631-.28392.29904-.51298.31944-.56132-.2922-.0753-.9526-.38576-1.80438-.66691-2.40327-.25601-.54532-.66845-.99962-1.18039-1.31717l-1.61956-1.00457c-.09784-.06068-.19893-.11595-.30283-.16553l-4.02399-1.92044c-.90419-.43152-1.98739-.16113-2.58271.6447l-1.96389,2.65834Z"/>
        <path class="cls-14" d="m16.28226,14.83041s-4.46531-7.00341,6.14004-9.17106c0,0-14.28073,2.67547-14.67982,4.07348s8.53978,5.09758,8.53978,5.09758Z"/>
        <path class="cls-7" d="m5.31394,23.29221c.06785-.82451.07159-1.54644-.08793-1.97848-.37855-1.02524-.28224-1.74788-.0171-2.24989.31746-.60107,1.23019-.32202,1.15004.35299l-.47451,3.99659-.57051-.12122Z"/>
        <circle class="cls-7" cx="5.41695" cy="24.46751" r=".36303"/>
        <circle class="cls-7" cx="5.30676" cy="25.65307" r=".36303"/>
        <path class="cls-14" d="m52.70891,15.71803s1.56343-7.41279-1.68252-7.97674c-3.24595-.56396-10.27932,3.79206-14.48588,2.78219-4.63724-1.11326-2.92094-6.44494,4.67647-7.47653,7.59741-1.03159,8.94303-.87763,8.94303-.87763,0,0,8.86532,3.68954,11.39427,6.36266,2.52895,2.67312,8.18068,6.92295,8.18068,6.92295,0,0-7.99918-1.53308-17.02604.2631Z"/>
        <path class="cls-9" d="m60.64283,9.88351c.89589,1.21126,1.40567,2.74806-.81013,3.55183-.32061.1163-.23626.58453.10461.57349,3.03641-.09839,6.61418-.86696,1.12445-4.56076-.28737-.19336-.62491.15697-.41894.43544Z"/>
        <rect class="cls-9" x="33.34647" y="14.44997" width="25.46683" height=".67394" rx=".33697" ry=".33697" transform="translate(-1.02188 3.6769) rotate(-4.51938)"/>
        <path class="cls-15" d="m52.97878,34.66444c-1.4194,3.12824-4.11355,5.42989-8.91812,5.60974l24.36576-1.91271s6.5531-2.67103,6.56323-7.02768-.50781-10.93039-.50781-10.93039c0,0-1.79065-5.14478-6.64147-5.34572s-15.13146.66035-15.13146.66035c0,0,.73471,2.41322,1.22817,5.72698,0,0,7.31805,1.94522,9.19781,4.65185s3.14024,5.84765,1.29904,6.00166-3.48845-1.75382-3.48845-1.75382l-1.02336.26503s-1.29222,4.93211-4.07209,4.87032c-2.77988-.06179-2.87125-.81561-2.87125-.81561Z"/>
        <path class="cls-13" d="m21.73531,26.59133c.02203-1.44398.40616-2.81339,1.07132-4.01364"/>
        <path class="cls-13" d="m21.64943,26.15448c-.00023-.05573.00008-.11136.00093-.16688"/>
        <path class="cls-13" d="m24.28769,19.93588c1.39219-1.3416,3.24292-2.22771,5.32416-2.39221l35.70298-2.82204c4.75713-.37601,8.91715,3.16033,9.29168,7.89865l.51894,6.56538c.37453,4.73832-3.17827,8.8843-7.9354,9.26031l-35.70298,2.82204c-4.75713.37601-8.91715-3.16033-9.29168-7.89865l-.30652-3.87794"/>
        <path class="cls-11" d="m11.93269,12.10337c-2.71247-1.20943-4.89189-2.01987-5.28709-1.70877-1.16934.92049-8.13447,10.57976-4.70512,15.55312s24.75279,14.7025,24.75279,14.7025"/>
        <path class="cls-11" d="m24.60475,18.37249s-1.84776-.97929-4.36002-2.25452c-.3264-.16568-.99136-.21272-.98318.15323.04279,1.91413-2.67006,2.12856-2.16585-.64109.17167-.94301-1.69098-1.86269-2.71687-2.35235"/>
        <path class="cls-11" d="m39.569,37.68769c.86121.12087,1.82014-.26228,2.84096-1.4492.59067-.68678,1.11069-1.32878,1.5779-1.91271"/>
        <path class="cls-11" d="m40.18451,27.79641c-1.22899-.44977-2.99247-.71607-5.35404-.21146-4.52841.96761-4.29081,3.52074-2.75716,3.89003s3.0076.21404,4.16998,2.79603c.48017,1.06661,1.15143,2.12787,1.96586,2.78305"/>
        <path class="cls-11" d="m42.41211,29.19576s-.18739-.2245-.57894-.51853"/>
        <path class="cls-11" d="m43.2569,35.51297s2.89412,1.46018,4.36937.61321c.7441-.4272.75231-1.23297.75178-1.97292-.0006-.83551.88685-1.38992,1.64931-1.04827.33244.14896,1.02128.90525,1.45302,1.16273,2.11938,1.26396,2.16792-2.00117,1.81427-2.94882"/>
        <path class="cls-11" d="m54.99985,35.37679c.34963.1253.75809.17402,1.22667.08313,1.90967-.37043,2.81848-1.48435,3.71105-4.36459.17762-.57315.41085-.69087.653-.77089.84701-.27988,1.83746,2.02165,2.98506,1.99366,1.53014-.03732,3.25621-1.82761-.4963-6.27894-3.75251-4.45134-10.69133-4.43284-11.83669-4.06433s-11.01299,2.1689-12.74631,4.73222"/>
        <path class="cls-11" d="m53.40576,33.88186s.15266.32647.46397.68675"/>
        <path class="cls-11" d="m59.71938,29.29527c-.17335-.09597-.34671-.18027-.48978-.23988"/>
        <path class="cls-12" d="m74.10225,20.10692c.25546.71056.42147,1.46592.48377,2.25403l.52783,6.6778c.38094,4.81945-3.26104,9.03867-8.13459,9.42388l-36.57676,2.8911c-3.56857.28207-6.80796-1.56972-8.43646-4.47375"/>
        <path class="cls-12" d="m71.48451,16.49515c1.2821,1.10359,2.01215,1.92731,2.61774,3.61177"/>
        <path class="cls-10" d="m6.04361,11.03034c-2.02048,2.42643-7.14148,10.51105-4.10313,14.91737,2.58956,3.75547,16.13155,10.58189,22.24174,13.52411"/>
        <path class="cls-10" d="m69.10384,14.42214c-4.76428-4.1386-15.16694-12.70079-19.22264-12.27537-4.97929.52231-36.11508,3.38757-42.80878,7.85202"/>
      </g>
      <g>
        <path class="cls-3" d="m139.48085,7.50695s-8.33061,5.72868-7.64406,14.41461,24.16748,16.30448,24.16748,16.30448c0,0-1.45904,1.39093,1.65759,1.69358s42.72823-3.37733,42.72823-3.37733c0,0,5.54032-3.06112,5.24753-6.76541-.2928-3.70429.45688-12.76372-4.94287-15.42023-5.39975-2.65651-12.64471-11.92439-19.84751-13.3434-7.20281-1.41902-42.03729,5.58956-41.36639,6.49371Z"/>
        <path class="cls-5" d="m168.63048,25.73807s11.74142-8.21977,21.02494-3.52052c9.28352,4.69924,5.63315,12.21166,2.47231,7.7635-1.07183-1.50836-2.23524.06498-2.43949,1.7015s-4.37267,4.36529-5.60687,1.41272c-1.2342-2.95257.57719,1.6997-3.19788-.39955-4.49524-2.49972.00092,2.52634-3.37479,2.31109-3.07654-.19617-3.47283-1.01029-4.89858.2462s-2.85115,1.732-4.23864.54225c-2.00524-1.71946-1.44545-4.93423-6.13195-5.47995-1.32472-.15426-.56007-3.88485,6.39095-4.57725Z"/>
        <path class="cls-2" d="m174.36386,33.19427s.11127-2.98624-2.37966-.47273-4.71532,1.64429-4.71532,1.64429c0,0,1.24392,3.03771,3.77151,2.15582s3.32347-3.32737,3.32347-3.32737Z"/>
        <ellipse class="cls-1" cx="184.03295" cy="22.61868" rx="2.54485" ry=".91354" transform="translate(-1.21006 14.57145) rotate(-4.51938)"/>
        <ellipse class="cls-1" cx="171.16751" cy="26.73145" rx=".70343" ry="2.0804" transform="translate(57.90915 157.82466) rotate(-58.05079)"/>
        <path class="cls-2" d="m174.36386,33.19427s3.0776.91403,4.21954-.33352c1.14194-1.24755.68778,2.02669-1.07471,2.14606s-4.4247-.23394-3.14484-1.81254Z"/>
        <path class="cls-2" d="m183.67065,30.1874s-1.24954,2.23932-3.1436,1.6037c0,0,1.12481,2.13495,2.15442,1.76965s.98918-3.37335.98918-3.37335Z"/>
        <path class="cls-2" d="m184.76394,30.45669c1.41023.25212,3.78146.32656,4.61944-1.74343.17694-.43708.62799-.70688,1.09674-.65567.93257.10189,2.36761.13282,3.05348-.50119.53292-.49263,1.40793-.28485,1.69423.38202.40771.94967.5615,1.92397-.10565,2.47801-1.60565,1.33342-2.66024-.0749-2.77673-.43862s-1.36384-1.71293-1.67353-.6355-2.24646,5.83897-5.11846,5.0287c-1.659-.46805-2.02962-1.79135-2.04675-2.82565-.01119-.6757.59198-1.20763,1.25722-1.08869Z"/>
        <path class="cls-4" d="m185.82579,20.93511c-.24867.03729-3.4394.04821-4.03222.17681-2.09376.45417.07457,7.12002-3.97834,7.83903-3.80316.6747-6.90408-2.45668-7.81115-2.33555-.7446.09944,5.17908,4.08025,1.34703,6.84502-.35697.25755,1.56213,1.39208,1.88993,1.09668h0c.20673-.1863.51655-.19624.72971-.01604.65669.55513,2.13437,1.55543,3.56426.79867,1.91474-1.01337.23596-2.86558,1.62427-3.07715s2.56259,1.82872,3.54649,1.60566c.80236-.1819,2.20735.48863,2.69852.74227.12164.06282.25491.07806.38676.04435.80051-.20468,3.64593-1.10677,4.52039-3.75766,1.02138-3.09628,2.46367.5021,3.42239.42395s4.24941-1.05806.33035-5.52965c-3.70547-4.22789-5.62918-5.24765-8.23839-4.85637Z"/>
        <path class="cls-4" d="m167.50686,25.91222s-4.33908,2.453-1.83084,4.93468c0,0-3.93196-.85306-4.07732-1.25415s-.18017-3.42911,5.90816-3.68053Z"/>
        <circle class="cls-1" cx="169.44592" cy="28.14773" r=".73147"/>
        <path class="cls-4" d="m192.60613,29.27835c.18702.14169.31189.3279.36501.53705.29339,1.15499,1.0594,5.1102-2.13775,5.33955-3.74651.26875-6.57018,1.09425-8.64761-.54846s-4.26575-.40478-4.73181.18099c-.43527.54706-5.18803,4.08182-7.77932,1.4918-.33783-.33766-.3818-.82731-.0997-1.21309l.24672-.33739c.33893-.46349,1.03349-.63494,1.59849-.39906.8965.37427,2.22045.82493,3.13753.68667,1.50764-.2273,2.57027-2.21175,2.67444-3.0356.09432-.7459,1.79127-.03316,2.11153.10838.03558.01573.06678.03169.10018.05044l1.26043.70737c.41097.23064.95371.22187,1.36903-.02212h0c.43821-.25743,1.01511-.25172,1.42944.01416l1.34992.86627c.26627.17087.60497.23775.9398.18686,1.17632-.17879,3.87361-.76093,4.04582-2.35512.22066-2.04278.73894-2.8777,1.35185-2.92614.41802-.03304,1.05388.39309,1.41599.66743Z"/>
        <path class="cls-8" d="m198.21637,13.92619c-1.07146-.27124-1.65558,1.24298-.68067,1.7637,2.69643,1.4402,5.35071,3.73773,6.08016,7.12832.92388,4.29437.02147,8.19999-.99606,10.14941-.33894.64936.3508,1.36155,1.00176,1.02571,1.46592-.75629,1.98527-3.02923,1.87989-5.93915-.15764-4.35328-.92517-11.34296-3.64095-12.69051-1.21879-.60475-2.42242-1.1282-3.64414-1.43747Z"/>
        <path class="cls-6" d="m149.77506,23.78604c.51194-1.20095.06486-2.59257-1.05241-3.26792-.80293-.48534-1.78539-1.12184-2.82101-1.89102-2.56095-1.90208-3.17656-3.8814-5.49615-3.69806-1.06849.08446-2.44251-.66412-3.61387-1.49619-1.33938-.95143-3.20902-.47498-3.90583,1.01284l-1.00934,2.15512.44191.5024c-.94795,2.09835-.49597,4.21851-.59107,5.79698-.11405,1.89324,9.0111,8.10831,10.3155,8.97469.12207.08108,1.22571.76486,1.35959.82446l1.8603-.47003c1.8489.82306,3.89326-.6712,3.67033-2.68271l-.25719-2.3206c-.04967-.44813.01713-.9015.19394-1.31626l.90528-2.12371Z"/>
        <path class="cls-14" d="m134.98488,12.59425c-.38399.51977-.17915,1.26244.41925,1.50641.98753.40261,2.21764.97171,3.26829,2.54275,1.52405,2.27893,2.60812-.88175,3.13232,2.15261.5242,3.03435-.4199,2.38694,4.64634,5.45934.37375.22666.72246.44956,1.04778.66801,1.85201,1.24364,4.40048.26443,4.84363-1.92194.21066-1.03934.51711-2.08028.95843-3.02448.66443-1.42153.19488-3.11265-1.11858-3.97116l-.2566-.16772c-1.29679-.84762-2.97254-.56719-4.03925.55631-.28392.29904-.51298.31944-.56132-.2922-.0753-.9526-.38576-1.80438-.66691-2.40327-.25601-.54532-.66845-.99962-1.18039-1.31717l-1.61956-1.00457c-.09784-.06068-.19893-.11595-.30283-.16553l-4.02399-1.92044c-.90419-.43152-1.98739-.16113-2.58271.6447l-1.96389,2.65834Z"/>
        <path class="cls-14" d="m146.65826,13.69892s-4.46531-7.00341,6.14004-9.17106c0,0-14.28073,2.67547-14.67982,4.07348s8.53978,5.09758,8.53978,5.09758Z"/>
        <path class="cls-7" d="m135.68994,22.16072c.06785-.82451.07159-1.54644-.08793-1.97848-.37855-1.02524-.28224-1.74788-.0171-2.24989.31746-.60107,1.23019-.32202,1.15004.35299l-.47451,3.99659-.57051-.12122Z"/>
        <circle class="cls-7" cx="135.79295" cy="23.33601" r=".36303"/>
        <circle class="cls-7" cx="135.68275" cy="24.52158" r=".36303"/>
        <path class="cls-14" d="m183.08491,14.58654s1.56343-7.41279-1.68252-7.97674c-3.24595-.56396-10.27932,3.79206-14.48588,2.78219-4.63724-1.11326-2.92094-6.44494,4.67647-7.47653,7.59741-1.03159,8.94303-.87763,8.94303-.87763,0,0,8.86532,3.68954,11.39427,6.36266,2.52895,2.67312,8.18068,6.92295,8.18068,6.92295,0,0-7.99918-1.53308-17.02604.2631Z"/>
        <path class="cls-9" d="m191.01882,8.75202c.89589,1.21126,1.40567,2.74806-.81013,3.55183-.32061.1163-.23626.58453.10461.57349,3.03641-.09839,6.61418-.86696,1.12445-4.56076-.28737-.19336-.62491.15697-.41894.43544Z"/>
        <rect class="cls-9" x="163.72247" y="13.31847" width="25.46683" height=".67394" rx=".33697" ry=".33697" transform="translate(-.52735 13.94654) rotate(-4.51938)"/>
        <path class="cls-15" d="m183.35478,33.53295c-1.4194,3.12824-4.11355,5.42989-8.91812,5.60974l24.36576-1.91271s6.5531-2.67103,6.56323-7.02768-.50781-10.93039-.50781-10.93039c0,0-1.79065-5.14478-6.64147-5.34572s-15.13146.66035-15.13146.66035c0,0,.73471,2.41322,1.22817,5.72698,0,0,7.31805,1.94522,9.19781,4.65185s3.14024,5.84765,1.29904,6.00166-3.48845-1.75382-3.48845-1.75382l-1.02336.26503s-1.29222,4.93211-4.07209,4.87032c-2.77988-.06179-2.87125-.81561-2.87125-.81561Z"/>
        <path class="cls-13" d="m152.11131,25.45984c.02203-1.44398.40616-2.81339,1.07132-4.01364"/>
        <path class="cls-13" d="m152.02543,25.02299c-.00023-.05573.00008-.11136.00093-.16688"/>
        <path class="cls-13" d="m154.66369,18.80439c1.39219-1.3416,3.24292-2.22771,5.32416-2.39221l35.70298-2.82204c4.75713-.37601,8.91715,3.16033,9.29168,7.89865l.51894,6.56538c.37453,4.73832-3.17827,8.8843-7.9354,9.26031l-35.70298,2.82204c-4.75713.37601-8.91715-3.16033-9.29168-7.89865l-.30652-3.87794"/>
        <path class="cls-11" d="m142.30869,10.97188c-2.71247-1.20943-4.89189-2.01987-5.28709-1.70877-1.16934.92049-8.13447,10.57976-4.70512,15.55312s24.75279,14.7025,24.75279,14.7025"/>
        <path class="cls-11" d="m154.98074,17.241s-1.84776-.97929-4.36002-2.25452c-.3264-.16568-.99136-.21272-.98318.15323.04279,1.91413-2.67006,2.12856-2.16585-.64109.17167-.94301-1.69098-1.86269-2.71687-2.35235"/>
        <path class="cls-11" d="m169.945,36.5562c.86121.12087,1.82014-.26228,2.84096-1.4492.59067-.68678,1.11069-1.32878,1.5779-1.91271"/>
        <path class="cls-11" d="m170.5605,26.66492c-1.22899-.44977-2.99247-.71607-5.35404-.21146-4.52841.96761-4.29081,3.52074-2.75716,3.89003s3.0076.21404,4.16998,2.79603c.48017,1.06661,1.15143,2.12787,1.96586,2.78305"/>
        <path class="cls-11" d="m172.78811,28.06427s-.18739-.2245-.57894-.51853"/>
        <path class="cls-11" d="m173.6329,34.38148s2.89412,1.46018,4.36937.61321c.7441-.4272.75231-1.23297.75178-1.97292-.0006-.83551.88685-1.38992,1.64931-1.04827.33244.14896,1.02128.90525,1.45302,1.16273,2.11938,1.26396,2.16792-2.00117,1.81427-2.94882"/>
        <path class="cls-11" d="m185.37585,34.2453c.34963.1253.75809.17402,1.22667.08313,1.90967-.37043,2.81848-1.48435,3.71105-4.36459.17762-.57315.41085-.69087.653-.77089.84701-.27988,1.83746,2.02165,2.98506,1.99366,1.53014-.03732,3.25621-1.82761-.4963-6.27894s-10.69133-4.43284-11.83669-4.06433-11.01299,2.1689-12.74631,4.73222"/>
        <path class="cls-11" d="m183.78176,32.75037s.15266.32647.46397.68675"/>
        <path class="cls-11" d="m190.09538,28.16378c-.17335-.09597-.34671-.18027-.48978-.23988"/>
        <path class="cls-12" d="m204.47825,18.97543c.25546.71056.42147,1.46592.48377,2.25403l.52783,6.6778c.38094,4.81945-3.26104,9.03867-8.13459,9.42388l-36.57676,2.8911c-3.56857.28207-6.80796-1.56972-8.43646-4.47375"/>
        <path class="cls-12" d="m201.86051,15.36366c1.2821,1.10359,2.01215,1.92731,2.61774,3.61177"/>
        <path class="cls-10" d="m136.4196,9.89885c-2.02048,2.42643-7.14148,10.51105-4.10313,14.91737,2.58956,3.75547,16.13155,10.58189,22.24174,13.52411"/>
        <path class="cls-10" d="m199.47983,13.29065c-4.76428-4.1386-15.16694-12.70079-19.22264-12.27537-4.97929.52231-36.11508,3.38757-42.80878,7.85202"/>
      </g>
      <g>
        <path class="cls-3" d="m190.26819,35.13327s-8.65971,5.21789-8.49619,13.92937c.16352,8.71148,23.14437,17.72686,23.14437,17.72686,0,0-1.53996,1.30077,1.55286,1.79009s42.85395-.8044,42.85395-.8044c0,0,5.71421-2.72277,5.64447-6.43796-.06974-3.71519,1.22281-12.71322-4.0076-15.68932s-11.90553-12.66246-19.01008-14.51161c-7.10455-1.84915-42.29715,3.05414-41.68178,3.99696Z"/>
        <path class="cls-5" d="m218.26997,55.08259s12.214-7.49958,21.19846-2.25113c8.98445,5.24845,4.88938,12.528,2.00147,7.898-.97929-1.57003-2.23511-.06942-2.5373,1.55188s-4.62702,4.09473-5.68161,1.07335c-1.0546-3.02138.47405,1.7313-3.1681-.59094-4.33695-2.76525-.15084,2.52183-3.50753,2.10418-3.0592-.38064-3.40587-1.21709-4.90452-.04851s-2.95005,1.5576-4.26356.28664c-1.89833-1.83682-1.14642-5.01215-5.79167-5.83842-1.31306-.23356-.32569-3.91148,6.65438-4.18506Z"/>
        <path class="cls-2" d="m223.54508,62.86974s.29046-2.97416-2.34697-.61483c-2.63743,2.35933-4.80558,1.35805-4.80558,1.35805,0,0,1.05918,3.10695,3.63519,2.37849s3.51736-3.12171,3.51736-3.12171Z"/>
        <ellipse class="cls-1" cx="233.83202" cy="52.89411" rx="2.54485" ry=".91354" transform="translate(-.9515 4.39772) rotate(-1.07535)"/>
        <ellipse class="cls-1" cx="220.74274" cy="56.22658" rx=".70343" ry="2.0804" transform="translate(47.05616 203.60961) rotate(-54.60676)"/>
        <path class="cls-2" d="m223.54508,62.86974s3.01713,1.09726,4.23196-.07944.56478,2.06434-1.20169,2.07763-4.40266-.49933-3.03027-1.99819Z"/>
        <path class="cls-2" d="m233.01569,60.4274s-1.38181,2.16021-3.23427,1.41196c0,0,.99452,2.19867,2.04422,1.89588s1.19004-3.30784,1.19004-3.30784Z"/>
        <path class="cls-2" d="m234.09083,60.76188c1.39253.33638,3.75501.55314,4.71584-1.46277.20288-.42567.66932-.66788,1.13415-.5886.92477.15773,2.35536.27481,3.07807-.31685.56155-.45972,1.4225-.19975,1.66822.48311.34992.97245.44491,1.95423-.25432,2.46719-1.68285,1.23456-2.65093-.23458-2.74537-.60463s-1.25847-1.79177-1.63233-.73489-2.59317,5.69347-5.4113,4.71214c-1.62789-.56687-1.91834-1.91004-1.8733-2.9435.02942-.67515.66345-1.16988,1.32035-1.0112Z"/>
        <path class="cls-4" d="m235.72275,51.32128c-.25046.02229-3.43608-.15849-4.03556-.06574-2.11726.32757-.35329,7.11164-4.44207,7.58588-3.83682.44502-6.74403-2.86699-7.65674-2.80057-.74923.05452,4.92461,4.384.93339,6.91358-.3718.23564,1.47568,1.48341,1.82063,1.20823h0c.21755-.17354.5274-.16486.72936.02782.62215.59357,2.03708,1.68084,3.50984,1.01134,1.97216-.89652.40767-2.84623,1.80619-2.97402s2.4481,1.97936,3.44363,1.81581c.81184-.13337,2.17401.62035,2.64906.90304.11765.07001.24976.09323.38339.0675.81136-.15622,3.70583-.88575,4.73796-3.47932,1.20554-3.02933,2.42906.64919,3.39074.62878s4.3053-.80087.66194-5.49982c-3.44479-4.44285-5.30377-5.57634-7.93177-5.34251Z"/>
        <path class="cls-4" d="m217.13792,55.18893s-4.47861,2.1879-2.12398,4.81578c0,0-3.87361-1.08773-3.99461-1.49682s.02615-3.43374,6.11859-3.31896Z"/>
        <circle class="cls-1" cx="218.93919" cy="57.53688" r=".73147"/>
        <path class="cls-4" d="m241.98964,60.05678c.17817.15267.29162.34604.33209.55801.22347,1.17053.7505,5.16462-2.45465,5.20149-3.75589.0432-6.62405.69758-8.59904-1.06696s-4.23373-.6603-4.73414-.10359c-.46735.51993-5.42387,3.76278-7.85489,1.02178-.31694-.35735-.33141-.84875-.02664-1.21689l.26654-.32196c.36616-.4423,1.06976-.57171,1.61957-.30232.87239.42745,2.16688.95683,3.09061.87391,1.51857-.13632,2.69849-2.05335,2.85197-2.86946.13896-.73889,1.79003.07451,2.10121.23504.03457.01783.06475.03565.09697.05637l1.21566.78181c.39637.25491.93866.27876,1.36789.06017h0c.45289-.23064,1.0284-.19028,1.42601.10001l1.29544.9458c.25552.18655.58959.27367.92688.24298,1.18494-.1078,3.91233-.52685,4.17999-2.10782.34298-2.02584.91048-2.82811,1.52519-2.83965.41925-.00787,1.02836.45569,1.37334.75129Z"/>
        <path class="cls-8" d="m248.51201,45.06937c-1.05323-.33511-1.72726,1.14128-.78539,1.71962,2.60504,1.59958,5.11651,4.05241,5.64096,7.48071.66423,4.34212-.47117,8.18647-1.60397,10.07124-.37734.62782.26837,1.38017.93834,1.08404,1.5087-.66686,2.16366-2.90449,2.23328-5.81549.10416-4.35489-.24209-11.37805-2.87201-12.88632-1.18026-.67688-2.35027-1.27168-3.5512-1.65379Z"/>
        <path class="cls-6" d="m199.56587,52.00138c.58316-1.16803.22049-2.584-.85419-3.32524-.77233-.5327-1.71477-1.22707-2.70232-2.05708-2.44206-2.05249-2.93765-4.06522-5.26407-4.02155-1.07163.02012-2.3982-.80965-3.51746-1.71059-1.2798-1.03017-3.17469-.6669-3.95962.77637l-1.13698,2.09059.41093.52804c-1.07229,2.03761-.7485,4.1811-.93824,5.75101-.22758,1.88296,8.50774,8.635,9.75772,9.57817.11698.08827,1.17755.83711,1.30761.90464l1.88517-.35742c1.79612.93264,3.92655-.43611,3.82486-2.45737l-.11731-2.33185c-.02265-.45031.07126-.89884.27266-1.30224l1.03123-2.06549Z"/>
        <path class="cls-14" d="m185.47474,39.9413c-.41452.49576-.25467,1.2494.328,1.52887.96156.46121,2.15526,1.10318,3.10963,2.7345,1.38439,2.36637,2.65638-.72348,2.99735,2.33689s-.56254,2.3574,4.30999,5.7286c.35946.2487.69415.49215,1.00576.72975,1.77396,1.35265,4.37665.5283,4.95033-1.62749.27272-1.02481.64114-2.04546,1.13839-2.96144.74863-1.37904.38151-3.09532-.878-4.03118l-.24606-.18283c-1.24353-.92399-2.9331-.74474-4.06537.31265-.30137.28144-.53124.28804-.54275-.32539-.01793-.9554-.27666-1.82429-.52134-2.439-.22278-.55971-.60719-1.03798-1.09913-1.3857l-1.55629-1.10005c-.09401-.06645-.19161-.12769-.29234-.18343l-3.90135-2.15871c-.87663-.48506-1.97413-.28023-2.61678.48838l-2.12004,2.53556Z"/>
        <path class="cls-14" d="m197.06067,41.74523s-4.03653-7.25901,6.67989-8.78565c0,0-14.41566,1.81275-14.89802,3.18426s8.21813,5.60139,8.21813,5.60139Z"/>
        <path class="cls-7" d="m185.60382,49.53285c.11726-.81895.16436-1.53935.03108-1.98019-.31628-1.04613-.17673-1.76168.11809-2.24686.353-.58092,1.24731-.24754,1.12676.42144l-.71374,3.96087-.56219-.15527Z"/>
        <circle class="cls-7" cx="185.63604" cy="50.71221" r=".36303"/>
        <circle class="cls-7" cx="185.45483" cy="51.88901" r=".36303"/>
        <path class="cls-14" d="m233.3682,44.81953s2.00591-7.30548-1.20029-8.06341c-3.20621-.75793-10.48856,3.1677-14.62685,1.90695-4.56198-1.38983-2.52849-6.60877,5.11717-7.18209s8.9796-.3388,8.9796-.3388c0,0,8.62767,4.21545,10.99146,7.03566,2.36379,2.82022,7.75002,7.40189,7.75002,7.40189,0,0-7.89264-2.01085-17.0111-.76019Z"/>
        <path class="cls-9" d="m241.63829,39.47216c.82151,1.26289,1.23805,2.82754-1.02203,3.49675-.32702.09683-.27095.56928.06997.57873,3.03683.0842,6.65431-.46806,1.3964-4.48497-.27524-.21027-.63321.11914-.44434.40949Z"/>
        <rect class="cls-9" x="214.07367" y="43.15491" width="25.46683" height=".67394" rx=".33697" ry=".33697" transform="translate(-.77628 4.26423) rotate(-1.07535)"/>
        <path class="cls-15" d="m232.49941,63.74793c-1.60476,3.03733-4.43232,5.17297-9.23901,5.06386l24.43666-.44552s6.70172-2.27254,6.97355-6.62071.14973-10.94115.14973-10.94115c0,0-1.47835-5.24306-6.30834-5.73504-4.82998-.49198-15.1438-.24984-15.1438-.24984,0,0,.58841,2.453.88191,5.79042,0,0,7.18797,2.38133,8.90175,5.196,1.71378,2.81467,2.78328,6.02573.93615,6.06886s-3.37679-1.96022-3.37679-1.96022l-1.03744.20307s-1.58617,4.84558-4.35731,4.6169c-2.77114-.22868-2.81706-.98663-2.81706-.98663Z"/>
        <path class="cls-13" d="m201.79735,53.81249c.10874-1.44005.57444-2.78391,1.3105-3.94203"/>
        <path class="cls-13" d="m201.73787,53.37128c.00312-.05565.00677-.11116.01095-.16653"/>
        <path class="cls-13" d="m204.74494,47.3224c1.47027-1.25555,3.37088-2.02887,5.45825-2.06805l35.80803-.67214c4.77112-.08956,8.7112,3.69031,8.8004,8.44257l.1236,6.5847c.0892,4.75226-3.70624,8.67732-8.47737,8.76688l-35.80803.67214c-4.77112.08956-8.7112-3.69031-8.8004-8.44257l-.07301-3.88935"/>
        <path class="cls-11" d="m192.88277,38.76182c-2.63492-1.37019-4.76171-2.31009-5.17489-2.0233-1.22253.84858-8.75534,10.07199-5.63096,15.24238,3.12439,5.17039,23.82485,16.16293,23.82485,16.16293"/>
        <path class="cls-11" d="m205.15534,45.78088s-1.7856-1.08852-4.21671-2.51237c-.31586-.18499-.9768-.27189-.99061.09389-.07228,1.91325-2.7931,1.96432-2.12343-.77004.22801-.931-1.57602-1.96091-2.57065-2.51131"/>
        <path class="cls-11" d="m218.93224,65.96015c.85239.17239,1.83261-.15246,2.92289-1.27592.63086-.65006,1.18851-1.25966,1.68995-1.81447"/>
        <path class="cls-11" d="m220.14083,56.12371c-1.19975-.52278-2.94405-.89455-5.33167-.53272-4.57836.69383-4.49456,3.25662-2.98587,3.71737s2.98931.39434,3.99449,3.04149c.41523,1.09353,1.02152,2.19319,1.79512,2.89612"/>
        <path class="cls-11" d="m222.28035,57.65435s-.17356-.23535-.54674-.55237"/>
        <path class="cls-11" d="m222.74412,64.0109s2.80118,1.6314,4.32464.87459c.76842-.38173.82502-1.18555.86894-1.92419.04959-.83404.96874-1.33414,1.70931-.9473.32289.16866.96506.96497,1.38054,1.24791,2.03963,1.389,2.28422-1.86732,1.98814-2.83451"/>
        <path class="cls-11" d="m234.47404,64.58041c.34147.14607.74627.21925,1.21946.15667,1.92848-.25504,2.90255-1.31235,3.96654-4.13377.21173-.56144.45161-.66494.69813-.73027.86229-.22849,1.71269,2.12838,2.85991,2.16938,1.52962.05467,3.36012-1.62869-.11821-6.29742s-10.40573-5.0671-11.57116-4.76806-11.12339,1.50339-13.00758,3.95796"/>
        <path class="cls-11" d="m232.97263,62.99241s.13277.33506.42188.71338"/>
        <path class="cls-11" d="m239.55038,58.79339c-.16728-.10621-.33526-.20077-.47449-.26887"/>
        <path class="cls-12" d="m254.45925,50.48566c.21231.72462.33265,1.48859.34749,2.27902l.12572,6.69745c.09073,4.83363-3.79814,8.82644-8.68603,8.91819l-36.68438.68859c-3.57907.06718-6.70136-1.97587-8.15247-4.97247"/>
        <path class="cls-12" d="m252.06321,46.72316c1.21349,1.17862,1.89274,2.0447,2.39604,3.7625"/>
        <path class="cls-10" d="m187.06879,37.33696c-2.16259,2.30067-7.76002,10.06305-4.99186,14.64394,2.35928,3.90425,15.46673,11.53186,21.38913,14.83582"/>
        <path class="cls-10" d="m249.81137,44.51088c-4.50706-4.41733-14.37657-13.58898-18.4505-13.40797-5.00168.22224-36.25336,1.21189-43.20317,5.26617"/>
      </g>
    </g>
  </g>
</svg>