<?xml version="1.0" encoding="UTF-8"?>
<svg xmlns="http://www.w3.org/2000/svg" xmlns:xlink="http://www.w3.org/1999/xlink" viewBox="0 0 283.75674 156.38749">
  <defs>
    <style>
      .cls-1, .cls-2, .cls-3 {
        fill: none;
      }

      .cls-4, .cls-5 {
        fill: #006430;
      }

      .cls-6, .cls-7 {
        fill: #fff;
      }

      .cls-8 {
        fill: #fbb4b8;
      }

      .cls-9 {
        fill: #fbd892;
      }

      .cls-10 {
        fill: url(#radial-gradient-6);
      }

      .cls-10, .cls-11, .cls-12, .cls-13, .cls-14, .cls-15, .cls-16, .cls-17, .cls-18, .cls-19, .cls-20, .cls-21, .cls-22, .cls-23, .cls-24, .cls-25, .cls-26, .cls-27, .cls-28, .cls-29, .cls-30, .cls-31, .cls-32, .cls-33, .cls-34, .cls-35, .cls-36, .cls-37, .cls-38, .cls-39, .cls-40, .cls-41, .cls-42, .cls-43, .cls-44, .cls-45, .cls-46, .cls-47, .cls-48, .cls-2 {
        mix-blend-mode: screen;
      }

      .cls-10, .cls-45, .cls-46 {
        opacity: .15;
      }

      .cls-11 {
        fill: url(#radial-gradient-13);
      }

      .cls-12 {
        fill: url(#radial-gradient-14);
      }

      .cls-13 {
        fill: url(#radial-gradient-12);
      }

      .cls-14 {
        fill: url(#radial-gradient-25);
      }

      .cls-15 {
        fill: url(#radial-gradient-24);
      }

      .cls-16 {
        fill: url(#radial-gradient-28);
      }

      .cls-17 {
        fill: url(#radial-gradient-36);
      }

      .cls-18 {
        fill: url(#radial-gradient-39);
      }

      .cls-19 {
        fill: url(#radial-gradient-22);
      }

      .cls-20 {
        fill: url(#radial-gradient-27);
      }

      .cls-21 {
        fill: url(#radial-gradient-26);
      }

      .cls-22 {
        fill: url(#radial-gradient-32);
      }

      .cls-23 {
        fill: url(#radial-gradient-31);
      }

      .cls-24 {
        fill: url(#radial-gradient-38);
      }

      .cls-25 {
        fill: url(#radial-gradient-40);
      }

      .cls-26 {
        fill: url(#radial-gradient-17);
      }

      .cls-27 {
        fill: url(#radial-gradient-18);
      }

      .cls-28 {
        fill: url(#radial-gradient-11);
      }

      .cls-29 {
        fill: url(#radial-gradient-10);
      }

      .cls-30 {
        fill: url(#radial-gradient-41);
      }

      .cls-31 {
        fill: url(#radial-gradient-42);
      }

      .cls-49 {
        fill: url(#radial-gradient-29);
      }

      .cls-49, .cls-50, .cls-51 {
        opacity: .21;
      }

      .cls-50 {
        fill: url(#radial-gradient-15);
      }

      .cls-32 {
        fill: url(#radial-gradient-3);
      }

      .cls-33 {
        fill: url(#radial-gradient-4);
      }

      .cls-34 {
        fill: url(#radial-gradient-8);
      }

      .cls-35 {
        fill: url(#radial-gradient-9);
      }

      .cls-35, .cls-36, .cls-41, .cls-42, .cls-43, .cls-44 {
        opacity: .5;
      }

      .cls-36 {
        fill: url(#radial-gradient-7);
      }

      .cls-37 {
        fill: url(#radial-gradient-5);
      }

      .cls-37, .cls-47, .cls-48 {
        opacity: .2;
      }

      .cls-38 {
        fill: url(#radial-gradient-2);
      }

      .cls-38, .cls-39, .cls-40 {
        opacity: .25;
      }

      .cls-39 {
        fill: url(#radial-gradient-30);
      }

      .cls-40 {
        fill: url(#radial-gradient-16);
      }

      .cls-41 {
        fill: url(#radial-gradient-35);
      }

      .cls-42 {
        fill: url(#radial-gradient-37);
      }

      .cls-43 {
        fill: url(#radial-gradient-23);
      }

      .cls-44 {
        fill: url(#radial-gradient-21);
      }

      .cls-5, .cls-7, .cls-52, .cls-53, .cls-54, .cls-55, .cls-56, .cls-2, .cls-3 {
        stroke-miterlimit: 10;
      }

      .cls-5, .cls-7, .cls-52, .cls-56 {
        stroke: #fb3c5b;
      }

      .cls-52 {
        fill: #e9212f;
      }

      .cls-53 {
        fill: #f5e8b3;
      }

      .cls-53, .cls-54 {
        stroke: #d11a16;
      }

      .cls-54 {
        fill: #f5c1c5;
      }

      .cls-55 {
        fill: #eecf4f;
      }

      .cls-55, .cls-3 {
        stroke: #000;
      }

      .cls-56 {
        fill: #fb797a;
      }

      .cls-45 {
        fill: url(#radial-gradient-34);
      }

      .cls-46 {
        fill: url(#radial-gradient-20);
      }

      .cls-47 {
        fill: url(#radial-gradient-19);
      }

      .cls-48 {
        fill: url(#radial-gradient-33);
      }

      .cls-2 {
        opacity: .03;
        stroke: #fff;
      }

      .cls-2, .cls-3 {
        stroke-width: 2px;
      }

      .cls-57 {
        isolation: isolate;
      }

      .cls-51 {
        fill: url(#radial-gradient);
      }
    </style>
    <radialGradient id="radial-gradient" cx="180.85452" cy="33.54166" fx="180.85452" fy="33.54166" r="23.31646" gradientUnits="userSpaceOnUse">
      <stop offset="0" stop-color="#e1bd02"/>
      <stop offset=".28212" stop-color="#e19a08"/>
      <stop offset=".65363" stop-color="#fb7301"/>
      <stop offset=".73617" stop-color="#f17200"/>
      <stop offset=".87287" stop-color="#d87000"/>
      <stop offset="1" stop-color="#bb6f00"/>
    </radialGradient>
    <radialGradient id="radial-gradient-2" cx="1988.43234" cy="-358.22884" fx="1988.43234" fy="-358.22884" r="9.01278" gradientTransform="translate(-1788.17239 -415.50919) rotate(23.00232)" gradientUnits="userSpaceOnUse">
      <stop offset=".1" stop-color="#000"/>
      <stop offset=".14634" stop-color="#171306"/>
      <stop offset=".20373" stop-color="#2d250c"/>
      <stop offset=".27156" stop-color="#3e3311"/>
      <stop offset=".35547" stop-color="#4a3c14"/>
      <stop offset=".47317" stop-color="#514216"/>
      <stop offset=".8" stop-color="#534417"/>
      <stop offset="1" stop-color="#000"/>
    </radialGradient>
    <radialGradient id="radial-gradient-3" cx="2005.27231" cy="-375.06882" fx="2005.27231" fy="-375.06882" r=".30043" gradientTransform="translate(-1788.17239 -415.50919) rotate(23.00232)" gradientUnits="userSpaceOnUse">
      <stop offset="0" stop-color="#c6dc91"/>
      <stop offset=".05266" stop-color="#a7b97a"/>
      <stop offset=".13024" stop-color="#808e5e"/>
      <stop offset=".21386" stop-color="#5d6844"/>
      <stop offset=".30259" stop-color="#40472f"/>
      <stop offset=".39779" stop-color="#282d1e"/>
      <stop offset=".50198" stop-color="#161910"/>
      <stop offset=".61976" stop-color="#090a07"/>
      <stop offset=".76258" stop-color="#020201"/>
      <stop offset="1" stop-color="#000"/>
    </radialGradient>
    <radialGradient id="radial-gradient-4" cx="2006.13511" cy="-375.93161" fx="2006.13511" fy="-375.93161" xlink:href="#radial-gradient-3"/>
    <radialGradient id="radial-gradient-5" cx="2005.427" cy="-375.2235" fx="2005.427" fy="-375.2235" r="2.2532" gradientTransform="translate(-1788.17239 -415.50919) rotate(23.00232)" gradientUnits="userSpaceOnUse">
      <stop offset=".05" stop-color="#000"/>
      <stop offset=".08837" stop-color="#030803"/>
      <stop offset=".29522" stop-color="#123314"/>
      <stop offset=".48173" stop-color="#1d5221"/>
      <stop offset=".63964" stop-color="#246529"/>
      <stop offset=".75" stop-color="#276c2c"/>
      <stop offset=".7903" stop-color="#4a6b19"/>
      <stop offset=".8355" stop-color="#6c6b06"/>
      <stop offset=".86" stop-color="#7a6b00"/>
      <stop offset=".88804" stop-color="#766700"/>
      <stop offset=".91306" stop-color="#6b5e00"/>
      <stop offset=".93694" stop-color="#594e00"/>
      <stop offset=".9601" stop-color="#3f3700"/>
      <stop offset=".98254" stop-color="#1f1b00"/>
      <stop offset="1" stop-color="#000"/>
    </radialGradient>
    <radialGradient id="radial-gradient-6" cx="1991.9729" cy="-361.7694" fx="1991.9729" fy="-361.7694" r="6.00852" gradientTransform="translate(-1788.17239 -415.50919) rotate(23.00232)" gradientUnits="userSpaceOnUse">
      <stop offset="0" stop-color="#230000"/>
      <stop offset=".73" stop-color="#8f4429"/>
      <stop offset="1" stop-color="#230000"/>
    </radialGradient>
    <radialGradient id="radial-gradient-7" cx="1991.9729" cy="-361.7694" fx="1991.9729" fy="-361.7694" r="3.00426" gradientTransform="translate(-1788.17239 -415.50919) rotate(23.00232)" gradientUnits="userSpaceOnUse">
      <stop offset=".15" stop-color="#fff"/>
      <stop offset=".21142" stop-color="#e0d0d1"/>
      <stop offset=".29178" stop-color="#bc9a9c"/>
      <stop offset=".36126" stop-color="#a27275"/>
      <stop offset=".41628" stop-color="#91595d"/>
      <stop offset=".45" stop-color="#8c5155"/>
      <stop offset=".54509" stop-color="#6b383a"/>
      <stop offset=".67848" stop-color="#44191a"/>
      <stop offset=".7848" stop-color="#2b0607"/>
      <stop offset=".85" stop-color="#230000"/>
      <stop offset=".85731" stop-color="#270201"/>
      <stop offset=".86489" stop-color="#330805"/>
      <stop offset=".87259" stop-color="#48120b"/>
      <stop offset=".88037" stop-color="#652114"/>
      <stop offset=".88823" stop-color="#8a3420"/>
      <stop offset=".89603" stop-color="#b84a2e"/>
      <stop offset=".9" stop-color="#d25837"/>
      <stop offset=".90207" stop-color="#c95334"/>
      <stop offset=".91376" stop-color="#9d3d26"/>
      <stop offset=".926" stop-color="#772a1a"/>
      <stop offset=".93864" stop-color="#581b10"/>
      <stop offset=".95182" stop-color="#410f09"/>
      <stop offset=".96578" stop-color="#300604"/>
      <stop offset=".98102" stop-color="#260101"/>
      <stop offset="1" stop-color="#230000"/>
    </radialGradient>
    <radialGradient id="radial-gradient-8" cx="1991.9729" cy="-361.7694" fx="1991.9729" fy="-361.7694" r="2.50355" gradientTransform="translate(-1788.17239 -415.50919) rotate(23.00232)" gradientUnits="userSpaceOnUse">
      <stop offset=".15" stop-color="#fff"/>
      <stop offset=".28237" stop-color="#c2c2c2"/>
      <stop offset=".42528" stop-color="#878787"/>
      <stop offset=".5636" stop-color="#575757"/>
      <stop offset=".69361" stop-color="#313131"/>
      <stop offset=".81336" stop-color="#161616"/>
      <stop offset=".91921" stop-color="#050505"/>
      <stop offset="1" stop-color="#000"/>
    </radialGradient>
    <radialGradient id="radial-gradient-9" cx="2006.13511" cy="-375.93161" fx="2006.13511" fy="-375.93161" r="4.50639" gradientTransform="translate(-1788.17239 -415.50919) rotate(23.00232)" gradientUnits="userSpaceOnUse">
      <stop offset=".64" stop-color="#000"/>
      <stop offset=".71753" stop-color="#000100"/>
      <stop offset=".74545" stop-color="#000802"/>
      <stop offset=".76535" stop-color="#001404"/>
      <stop offset=".78144" stop-color="#002508"/>
      <stop offset=".79507" stop-color="#003b0d"/>
      <stop offset=".8" stop-color="#004510"/>
      <stop offset=".81538" stop-color="#182809"/>
      <stop offset=".83122" stop-color="#2a1104"/>
      <stop offset=".84638" stop-color="#360401"/>
      <stop offset=".86" stop-color="#3a0000"/>
      <stop offset=".87194" stop-color="#250000"/>
      <stop offset=".88642" stop-color="#140000"/>
      <stop offset=".90446" stop-color="#080000"/>
      <stop offset=".92976" stop-color="#010000"/>
      <stop offset="1" stop-color="#000"/>
    </radialGradient>
    <radialGradient id="radial-gradient-10" cx="1994.27636" cy="-364.07286" fx="1994.27636" fy="-364.07286" r=".32837" gradientTransform="translate(-1788.17239 -415.50919) rotate(23.00232)" gradientUnits="userSpaceOnUse">
      <stop offset=".1" stop-color="#000"/>
      <stop offset=".23392" stop-color="#06180d"/>
      <stop offset=".41665" stop-color="#0d321c"/>
      <stop offset=".60364" stop-color="#124526"/>
      <stop offset=".79555" stop-color="#15512c"/>
      <stop offset="1" stop-color="#17552f"/>
    </radialGradient>
    <radialGradient id="radial-gradient-11" cx="2001.40458" cy="-371.20108" fx="2001.40458" fy="-371.20108" r=".57331" gradientTransform="translate(-1788.17239 -415.50919) rotate(23.00232)" gradientUnits="userSpaceOnUse">
      <stop offset=".1" stop-color="#000"/>
      <stop offset=".19206" stop-color="#0f0a05"/>
      <stop offset=".38483" stop-color="#291b10"/>
      <stop offset=".58199" stop-color="#3c2817"/>
      <stop offset=".78439" stop-color="#482f1b"/>
      <stop offset="1" stop-color="#4c321d"/>
    </radialGradient>
    <radialGradient id="radial-gradient-12" cx="1997.54927" cy="-367.34577" fx="1997.54927" fy="-367.34577" r=".41644" gradientTransform="translate(-1788.17239 -415.50919) rotate(23.00232)" gradientUnits="userSpaceOnUse">
      <stop offset=".1" stop-color="#7e2b20"/>
      <stop offset=".21377" stop-color="#5e2018"/>
      <stop offset=".36319" stop-color="#3c140f"/>
      <stop offset=".51586" stop-color="#220b08"/>
      <stop offset=".67104" stop-color="#0f0503"/>
      <stop offset=".83032" stop-color="#030100"/>
      <stop offset="1" stop-color="#000"/>
    </radialGradient>
    <radialGradient id="radial-gradient-13" cx="1989.43669" cy="-359.23319" fx="1989.43669" fy="-359.23319" r="1.01986" gradientTransform="translate(-1788.17239 -415.50919) rotate(23.00232)" gradientUnits="userSpaceOnUse">
      <stop offset=".1" stop-color="#000"/>
      <stop offset=".26455" stop-color="#0b120d"/>
      <stop offset=".4997" stop-color="#17241a"/>
      <stop offset=".74194" stop-color="#1e3023"/>
      <stop offset="1" stop-color="#213426"/>
    </radialGradient>
    <radialGradient id="radial-gradient-14" cx="1999.90697" cy="-369.70347" fx="1999.90697" fy="-369.70347" r=".52265" xlink:href="#radial-gradient-13"/>
    <radialGradient id="radial-gradient-15" cx="431.60519" cy="502.2165" fx="431.60519" fy="502.2165" r="23.31646" gradientTransform="translate(425.91454 -574.20808) rotate(56.21571)" xlink:href="#radial-gradient"/>
    <radialGradient id="radial-gradient-16" cx="2402.38889" cy="-24.80422" fx="2402.38889" fy="-24.80422" r="9.01278" gradientTransform="translate(-223.08537 -2291.47553) rotate(79.21803)" xlink:href="#radial-gradient-2"/>
    <radialGradient id="radial-gradient-17" cx="2419.22886" cy="-41.6442" fx="2419.22886" fy="-41.6442" r=".30043" gradientTransform="translate(-223.08537 -2291.47553) rotate(79.21803)" xlink:href="#radial-gradient-3"/>
    <radialGradient id="radial-gradient-18" cx="2420.09166" cy="-42.50699" fx="2420.09166" fy="-42.50699" r=".30043" gradientTransform="translate(-223.08537 -2291.47553) rotate(79.21803)" xlink:href="#radial-gradient-3"/>
    <radialGradient id="radial-gradient-19" cx="2419.38355" cy="-41.79888" fx="2419.38355" fy="-41.79888" gradientTransform="translate(-223.08537 -2291.47553) rotate(79.21803)" xlink:href="#radial-gradient-5"/>
    <radialGradient id="radial-gradient-20" cx="2405.92944" cy="-28.34478" fx="2405.92944" fy="-28.34478" r="6.00852" gradientTransform="translate(-223.08537 -2291.47553) rotate(79.21803)" xlink:href="#radial-gradient-6"/>
    <radialGradient id="radial-gradient-21" cx="2405.92944" cy="-28.34478" fx="2405.92944" fy="-28.34478" r="3.00426" gradientTransform="translate(-223.08537 -2291.47553) rotate(79.21803)" xlink:href="#radial-gradient-7"/>
    <radialGradient id="radial-gradient-22" cx="2405.92944" cy="-28.34478" fx="2405.92944" fy="-28.34478" r="2.50355" gradientTransform="translate(-223.08537 -2291.47553) rotate(79.21803)" xlink:href="#radial-gradient-8"/>
    <radialGradient id="radial-gradient-23" cx="2420.09166" cy="-42.50699" fx="2420.09166" fy="-42.50699" r="4.50639" gradientTransform="translate(-223.08537 -2291.47553) rotate(79.21803)" xlink:href="#radial-gradient-9"/>
    <radialGradient id="radial-gradient-24" cx="2408.23291" cy="-30.64824" fx="2408.23291" fy="-30.64824" r=".32837" gradientTransform="translate(-223.08537 -2291.47553) rotate(79.21803)" xlink:href="#radial-gradient-10"/>
    <radialGradient id="radial-gradient-25" cx="2415.36113" cy="-37.77646" fx="2415.36113" fy="-37.77646" r=".57331" gradientTransform="translate(-223.08537 -2291.47553) rotate(79.21803)" xlink:href="#radial-gradient-11"/>
    <radialGradient id="radial-gradient-26" cx="2411.50581" cy="-33.92115" fx="2411.50581" fy="-33.92115" r=".41644" gradientTransform="translate(-223.08537 -2291.47553) rotate(79.21803)" xlink:href="#radial-gradient-12"/>
    <radialGradient id="radial-gradient-27" cx="2403.39324" cy="-25.80857" fx="2403.39324" fy="-25.80857" r="1.01986" gradientTransform="translate(-223.08537 -2291.47553) rotate(79.21803)" xlink:href="#radial-gradient-13"/>
    <radialGradient id="radial-gradient-28" cx="2413.86352" cy="-36.27885" fx="2413.86352" fy="-36.27885" r=".52265" gradientTransform="translate(-223.08537 -2291.47553) rotate(79.21803)" xlink:href="#radial-gradient-13"/>
    <radialGradient id="radial-gradient-29" cx="278.59232" cy="366.16188" fx="278.59232" fy="366.16188" gradientTransform="translate(135.13914 -350.02338) rotate(28.36308)" xlink:href="#radial-gradient"/>
    <radialGradient id="radial-gradient-30" cx="2208.37638" cy="-90.24842" fx="2208.37638" fy="-90.24842" gradientTransform="translate(-1240.98113 -1565.13711) rotate(51.3654)" xlink:href="#radial-gradient-2"/>
    <radialGradient id="radial-gradient-31" cx="2225.21635" cy="-107.08839" fx="2225.21635" fy="-107.08839" r=".30043" gradientTransform="translate(-1240.98113 -1565.13711) rotate(51.3654)" xlink:href="#radial-gradient-3"/>
    <radialGradient id="radial-gradient-32" cx="2226.07915" cy="-107.95119" fx="2226.07915" fy="-107.95119" r=".30043" gradientTransform="translate(-1240.98113 -1565.13711) rotate(51.3654)" xlink:href="#radial-gradient-3"/>
    <radialGradient id="radial-gradient-33" cx="2225.37104" cy="-107.24308" fx="2225.37104" fy="-107.24308" gradientTransform="translate(-1240.98113 -1565.13711) rotate(51.3654)" xlink:href="#radial-gradient-5"/>
    <radialGradient id="radial-gradient-34" cx="2211.91694" cy="-93.78897" fx="2211.91694" fy="-93.78897" r="6.00852" gradientTransform="translate(-1240.98113 -1565.13711) rotate(51.3654)" xlink:href="#radial-gradient-6"/>
    <radialGradient id="radial-gradient-35" cx="2211.91694" cy="-93.78897" fx="2211.91694" fy="-93.78897" r="3.00426" gradientTransform="translate(-1240.98113 -1565.13711) rotate(51.3654)" xlink:href="#radial-gradient-7"/>
    <radialGradient id="radial-gradient-36" cx="2211.91694" cy="-93.78897" fx="2211.91694" fy="-93.78897" gradientTransform="translate(-1240.98113 -1565.13711) rotate(51.3654)" xlink:href="#radial-gradient-8"/>
    <radialGradient id="radial-gradient-37" cx="2226.07915" cy="-107.95119" fx="2226.07915" fy="-107.95119" r="4.50639" gradientTransform="translate(-1240.98113 -1565.13711) rotate(51.3654)" xlink:href="#radial-gradient-9"/>
    <radialGradient id="radial-gradient-38" cx="2214.2204" cy="-96.09244" fx="2214.2204" fy="-96.09244" gradientTransform="translate(-1240.98113 -1565.13711) rotate(51.3654)" xlink:href="#radial-gradient-10"/>
    <radialGradient id="radial-gradient-39" cx="2221.34862" cy="-103.22065" fx="2221.34862" fy="-103.22065" r=".57331" gradientTransform="translate(-1240.98113 -1565.13711) rotate(51.3654)" xlink:href="#radial-gradient-11"/>
    <radialGradient id="radial-gradient-40" cx="2217.49331" cy="-99.36535" fx="2217.49331" fy="-99.36535" gradientTransform="translate(-1240.98113 -1565.13711) rotate(51.3654)" xlink:href="#radial-gradient-12"/>
    <radialGradient id="radial-gradient-41" cx="2209.38073" cy="-91.25277" fx="2209.38073" fy="-91.25277" r="1.01986" gradientTransform="translate(-1240.98113 -1565.13711) rotate(51.3654)" xlink:href="#radial-gradient-13"/>
    <radialGradient id="radial-gradient-42" cx="2219.85101" cy="-101.72305" fx="2219.85101" fy="-101.72305" r=".52265" gradientTransform="translate(-1240.98113 -1565.13711) rotate(51.3654)" xlink:href="#radial-gradient-13"/>
  </defs>
  <g class="cls-57">
    <g id="Layer_2" data-name="Layer 2">
      <g id="Layer_8" data-name="Layer 8">
        <g>
          <g>
            <g>
              <path class="cls-52" d="m30.31426,89.9608c-2.84369.11631-11.20055.57695-18.92565,6.71555-2.72221,2.16315-10.07054,8.00235-10.37858,16.17838-.43442,11.5301,13.33691,22.28492,26.55697,23.50444,1.76727.16302,17.00844,1.30854,25.33596-10.68384,5.2956-7.62613,6.94744-19.34398.91576-27.47272-6.62776-8.9321-18.75261-8.43618-23.50444-8.24182Z"/>
              <path class="cls-52" d="m108.15364,85.68726c-2.84369.11631-11.20055.57695-18.92565,6.71555-2.72221,2.16315-10.07054,8.00235-10.37858,16.17838-.43442,11.5301,13.33691,22.28492,26.55697,23.50444,1.76727.16302,17.00844,1.30854,25.33596-10.68384,5.2956-7.62613,6.94744-19.34398.91576-27.47272-6.62776-8.9321-18.75261-8.43618-23.50444-8.24182Z"/>
              <circle class="cls-7" cx="39.47183" cy="118.34928" r="10.53121"/>
              <path class="cls-52" d="m71.82859,108.88645c-2.84369.11631-11.20055.57695-18.92565,6.71555-2.72221,2.16315-10.07054,8.00235-10.37858,16.17838-.43442,11.5301,13.33691,22.28492,26.55697,23.50444,1.76727.16302,17.00844,1.30854,25.33596-10.68384,5.2956-7.62613,6.94744-19.34398.91576-27.47272-6.62776-8.9321-18.75261-8.43618-23.50444-8.24182Z"/>
              <path class="cls-56" d="m24.36183,96.82898c1.70795-1.7748-4.77808,3.34474-4.57879,5.7998.18814,2.31749,4.59978,4.54294,8.54707,4.27353,3.64654-.24887,8.63424-2.74556,8.85232-7.02081.1521-2.98173-2.04773-6.20312-4.57879-6.71555-3.50766-.71014-8.24182,3.66303-8.24182,3.66303Z"/>
              <path class="cls-56" d="m66.79193,116.97564c1.70795-1.7748-4.77808,3.34474-4.57879,5.7998.18814,2.31749,4.59978,4.54294,8.54707,4.27353,3.64654-.24887,8.63424-2.74556,8.85232-7.02081.1521-2.98173-2.04773-6.20312-4.57879-6.71555-3.50766-.71014-8.24182,3.66303-8.24182,3.66303Z"/>
              <path class="cls-56" d="m103.11697,93.77646c1.70795-1.7748-4.77808,3.34474-4.57879,5.7998.18814,2.31749,4.59978,4.54294,8.54707,4.27353,3.64654-.24887,8.63424-2.74556,8.85232-7.02081.1521-2.98173-2.04773-6.20312-4.57879-6.71555-3.50766-.71014-8.24182,3.66303-8.24182,3.66303Z"/>
              <path class="cls-5" d="m55.80284,8.61101c.3789-1.50187,4.06362-3.19829,6.4103-1.22101,2.13343,1.79761,1.6123,5.32673.30525,6.10505-1.94235,1.15662-7.24242-2.79564-6.71555-4.88404Z"/>
              <path class="cls-5" d="m109.83253,97.13423c-.50325.31151-6.88594-8.00852-12.11568-18.35919-.18773-.37154-.69364-1.37841-1.31543-2.70323-5.91561-12.60407-7.10109-21.56194-11.61688-33.77627-3.22961-8.73547-6.10594-16.27852-13.10857-23.6112-3.93899-4.12467-9.62097-8.64075-10.37858-7.93656-.6844.6361,2.79996,5.39224,3.96828,7.02081,14.09332,19.64534,45.84038,78.57733,44.56686,79.36565Z"/>
              <path class="cls-5" d="m72.28647,120.63867c-.12002-13.44683.10078-24.32716.30525-31.44101.86601-30.12908,3.38012-60.22128-8.65526-76.38798-.81243-1.09132-1.54303-1.92018-2.63908-2.06191-12.34639-1.59648-33.18853,88.89253-32.35676,89.13373.53626.1555,12.85852-36.39502,17.39939-50.06141,7.24006-21.78995,10.70435-33.57619,14.34687-33.27252,3.3297.27759,5.15741,10.52001,6.10505,17.70464"/>
              <path class="cls-4" d="m58.24486,10.74778c2.81503-6.33229,19.24639-5.25758,28.38848-3.35778,30.04168,6.24292,48.36761,35.3179,46.39838,37.54606-1.20998,1.36905-8.92774-8.70335-24.72545-10.98909-13.63803-1.97326-17.7101,4.112-28.38848,1.22101-13.40918-3.63031-24.53722-17.97712-21.67293-24.4202Z"/>
              <circle class="cls-7" cx="62.97627" cy="139.4117" r="10.53121"/>
              <circle class="cls-7" cx="16.88315" cy="116.51777" r="10.53121"/>
              <circle class="cls-7" cx="85.56496" cy="136.35918" r="10.53121"/>
              <circle class="cls-7" cx="109.98515" cy="117.43352" r="10.53121"/>
              <circle class="cls-7" cx="126.46879" cy="102.7814" r="10.53121"/>
              <circle cx="62.97627" cy="140.32746" r="3.81566"/>
              <circle cx="38.55607" cy="118.34928" r="3.81566"/>
              <circle cx="16.88315" cy="117.43352" r="3.81566"/>
              <circle cx="86.48071" cy="137.58019" r="3.81566"/>
              <circle cx="109.98515" cy="117.43352" r="3.81566"/>
              <circle cx="127.38455" cy="102.7814" r="3.81566"/>
            </g>
            <path class="cls-3" d="m137,102.78128c0-4.10004-2.34454-7.65017-5.76466-9.38987-6.70816-8.36806-18.42841-7.89461-23.0817-7.70427-.76561.0313-1.93356.08883-3.37851.27414-3.72697-7.27959-9.12775-17.31887-14.92978-27.67148,1.66018,5.58826,3.46023,11.18576,6.55607,17.78189.6218,1.32482,1.12771,2.33169,1.31543,2.70323,1.38379,2.73878,2.84781,5.33268,4.26277,7.66485-3.68654.79171-8.32199,2.44299-12.75163,5.96293-2.72221,2.16315-10.07054,8.00237-10.37858,16.17838-.00497.13191-.00607.26363-.00734.39535-2.62082-.23773-4.948-.17185-6.57936-.10761.03961-8.08278.18817-14.77084.32903-19.67127.59899-20.83915,1.98504-41.65923-1.19867-57.8675,1.30455.82823,2.66869,1.57631,4.07718,2.2193,4.59405,7.55878,9.61909,16.25427,14.37511,24.74045-1.51214-5.08995-2.90828-10.17223-5.06081-15.99438-.84405-2.28297-1.66452-4.48386-2.54026-6.62149,9.02324,1.49984,13.46187-3.55018,26.06199-1.72709,15.79771,2.28574,23.51547,12.35814,24.72545,10.98909,1.96924-2.22815-16.3567-31.30314-46.39838-37.54606-6.98422-1.45137-18.22212-2.42078-24.39359.02567-.0095-.00816-.01699-.01759-.02661-.02567-2.34668-1.97728-6.0314-.28086-6.4103,1.22101-.24215.95986.74759,2.31266,2.07551,3.38299-.02105.12634-.03901.25424-.05224.38451-9.61832,9.41349-22.13684,56.67779-26.92696,77.55912-.20423.00783-.40182.01569-.58489.02318-2.84369.11633-11.20055.57697-18.92565,6.71555-2.72221,2.16315-10.07054,8.00237-10.37858,16.17838-.43442,11.5301,13.33691,22.28492,26.55697,23.50444,1.15543.10657,8.07017.63234,15.04676-2.3672,1.24545,10.66174,14.09736,20.15173,26.46757,21.29285,1.76727.16302,17.00844,1.30854,25.33596-10.68384,2.68976-3.87349,4.43632-8.80269,4.71664-13.78093,2.0655.63815,4.17581,1.07218,6.27245,1.26558,1.76727.16302,17.00844,1.30854,25.33596-10.68384,2.55843-3.68434,4.26228-8.32394,4.66419-13.05223,1.00869-1.61562,1.59348-3.52315,1.59348-5.56818ZM46.34001,49.81997c5.99697-18.04869,9.40341-29.23385,12.46639-32.37016,1.26714,3.02327,3.65347,6.33624,6.76891,9.31689.51128,2.52165.91028,5.16289,1.21661,7.48539l4.74785,74.6466c-2.44828.1103-8.03106.52704-13.96705,3.65748.41501-5.0373-.65008-10.17059-3.75402-14.35369-5.69634-7.67685-15.44918-8.38856-21.09585-8.31385,4.14792-11.80614,10.59989-30.98779,13.61716-40.06867Z"/>
          </g>
          <g>
            <g>
              <circle class="cls-51" cx="180.85452" cy="33.54166" r="23.31646"/>
              <circle class="cls-55" cx="184.19992" cy="32.62928" r="31.62928"/>
              <circle class="cls-53" cx="180.75314" cy="33.44029" r="30.81827"/>
              <path class="cls-54" d="m172.44801,14.8987l8.55465,6.65523c.54202.42167,1.25682.54963,1.91145.34218l10.33218-3.27416c1.64855-.52241,3.18052,1.0723,2.5924,2.69856l-3.68597,10.19254c-.23354.64579-.13435,1.36515.26524,1.92364l6.30673,8.81472c1.00627,1.40643-.03698,3.35621-1.76539,3.29942l-10.83271-.3559c-.68635-.02255-1.33985.29408-1.74753.84669l-6.43441,8.72196c-1.02664,1.39163-3.20337,1.00195-3.68347-.65941l-3.00901-10.41249c-.19065-.65973-.69372-1.1834-1.34527-1.40036l-10.28342-3.42425c-1.64077-.54635-1.94281-2.73697-.51112-3.70696l8.97304-6.07937c.56852-.38518.91111-1.02546.91611-1.71216l.07891-10.83826c.01259-1.72929,2.00265-2.69349,3.36758-1.63162Z"/>
              <path class="cls-9" d="m158.31263,12.62688c-1.01934,1.53119-1.72998,4.23375-.42066,5.66144.8179.89185,2.32053,1.21171,3.59443.87701,3.01482-.79211,2.31901-4.61202,5.61073-7.1056,2.96774-2.24816,4.5708.07091,9.93069-2.31178,3.63827-1.61736,4.37525-3.34188,6.94284-3.14372,2.48918.1921,3.72264,1.96155,5.19696,1.1994,1.16534-.60243,1.76419-2.4159,1.25135-3.16-.21572-.31299-.73537-.45593-1.77468-.74179-.75739-.20833-1.33923-.29813-1.40034-.30736-2.09506-.31647-3.14259-.4747-4.63545-.54774-2.83153-.13853-5.02594.10395-5.70651.18592-1.67746.20204-3.71652.45705-6.20104,1.36904-1.61895.59427-2.9331,1.28556-4.2418,1.97398-1.50306.79066-2.55971,1.44746-2.83853,1.62201-2.70042,1.69063-3.91311,2.89382-4.25779,3.24403-.53812.54674-.80718.82012-1.0502,1.18516Z"/>
              <path class="cls-9" d="m183.08479,63.34617c-.80516-.708-.88169-2.37246-.20275-3.44678.91244-1.44383,2.56922-.84047,5.8798-2.02752,2.86434-1.02704,4.82861-2.6277,6.08255-3.64953,1.05397-.85887.89084-.87673,3.85228-3.85228,4.0667-4.08607,4.30392-3.98166,4.86604-5.06879,1.66623-3.22241.84897-6.59004,1.62201-6.69081.5085-.06628.70614,1.41118,2.43302,2.63577.97263.68972,1.35743.53837,1.62201,1.01376.59076,1.06143-.88765,2.60648-2.63577,5.4743-2.56383,4.20599-1.75937,4.77974-3.24403,5.8798-2.35801,1.74717-4.27371.2157-6.89356,2.23027-1.36191,1.04726-.85876,1.4723-2.63577,3.24403-2.19,2.18348-4.47735,3.05652-6.08255,3.64953-2.19939.8125-3.77082,1.39304-4.66329.60826Z"/>
              <path class="cls-8" d="m188.15358,62.94067c-1.0742.56638-3.48453-1.32983-3.24403-2.02752.15468-.44872,1.29616-.08342,3.24403-.60826.29176-.07862,1.36635-.38325,3.04128-1.41926,4.02329-2.48857,4.08454-4.60385,7.29906-6.28531,3.06574-1.60363,4.42564-.42011,6.08255-2.23027,1.78773-1.95307,1.62173-4.87902,2.43302-4.86604.38095.0061.73929.65638.81101,1.21651.15013,1.17255-.9332,2.12638-1.82477,3.04128-2.18965,2.24695-1.29257,2.27848-3.64953,4.86604-2.43126,2.66912-4.68472,4.06158-7.29906,5.67705-3.29865,2.03831-4.7043,2.32976-5.27155,1.82477-.42806-.38109-.37429-1.21182-.60826-1.21651-.32657-.00655-.23332,1.61602-1.01376,2.02752Z"/>
              <g>
                <circle class="cls-38" cx="182.14231" cy="31.76154" r="9.01278"/>
                <circle class="cls-32" cx="204.22384" cy="22.84106" r=".30043"/>
                <circle class="cls-33" cx="205.35519" cy="22.38402" r=".30043"/>
                <circle class="cls-37" cx="204.42668" cy="22.75912" r="2.2532"/>
                <line class="cls-1" x1="186.78488" y1="29.88604" x2="205.35519" y2="22.38402"/>
                <circle class="cls-10" cx="186.78488" cy="29.88604" r="6.00852"/>
                <circle class="cls-36" cx="186.78488" cy="29.88604" r="3.00426"/>
                <circle class="cls-34" cx="186.78488" cy="29.88604" r="2.50355"/>
                <polyline class="cls-2" points="186.78488 29.88604 182.50957 43.1517 186.78488 29.88604 191.06019 16.62038 186.78488 29.88604 173.51923 25.61072 186.78488 29.88604 200.05054 34.16135 186.78488 29.88604 195.91776 37.25029 186.78488 29.88604 177.652 22.52178 186.78488 29.88604 179.42063 39.01892 186.78488 29.88604 194.14913 20.75316 186.78488 29.88604 187.45946 43.29734 186.78488 29.88604 186.1103 16.47473 186.78488 29.88604 173.37358 30.56062 186.78488 29.88604 200.19619 29.21146 186.78488 29.88604 190.19529 36.60218 186.78488 29.88604 183.37448 23.16989 186.78488 29.88604 180.06874 33.29644 186.78488 29.88604 193.50103 26.47564 186.78488 29.88604 186.70334 30.5231 186.78488 29.88604 186.86643 29.24898 186.78488 29.88604 186.14782 29.80449 186.78488 29.88604 187.42194 29.96758 186.78488 29.88604 189.44065 31.4813 186.78488 29.88604 184.12912 28.29078 186.78488 29.88604 185.18962 32.5418 186.78488 29.88604 188.38015 27.23027 186.78488 29.88604 191.02053 35.47259 186.78488 29.88604 182.54923 24.29948 186.78488 29.88604 181.19832 34.12169 186.78488 29.88604 192.37144 25.65039 186.78488 29.88604 187.81804 32.08307 186.78488 29.88604 185.75173 27.689 186.78488 29.88604 184.58785 30.91919 186.78488 29.88604 188.98192 28.85288 186.78488 29.88604 192.84933 42.60136 186.78488 29.88604 180.72044 17.17071 186.78488 29.88604 174.06955 35.95048 186.78488 29.88604 199.50021 23.8216 186.78488 29.88604 187.98087 33.43337 186.78488 29.88604 185.58889 26.33871 186.78488 29.88604 183.23756 31.08203 186.78488 29.88604 190.33221 28.69005 186.78488 29.88604 192.25535 37.73013 186.78488 29.88604 181.31441 22.04194 186.78488 29.88604 178.94079 35.35651 186.78488 29.88604 194.62898 24.41557 186.78488 29.88604 194.97041 36.39815 186.78488 29.88604 178.59936 23.37392 186.78488 29.88604 180.27277 38.07156 186.78488 29.88604 193.297 21.70051 186.78488 29.88604 191.0444 36.63993 186.78488 29.88604 182.52537 23.13215 186.78488 29.88604 180.03099 34.14555 186.78488 29.88604 193.53877 25.62652 186.78488 29.88604 186.61166 31.81881 186.78488 29.88604 186.95811 27.95326 186.78488 29.88604 184.85211 29.71281 186.78488 29.88604 188.71766 30.05926 186.78488 29.88604 189.45517 33.82299 186.78488 29.88604 184.1146 25.94908 186.78488 29.88604 182.84793 32.55632 186.78488 29.88604 190.72184 27.21575"/>
                <circle class="cls-35" cx="205.35519" cy="22.38402" r="4.50639"/>
                <circle class="cls-29" cx="189.80531" cy="28.66585" r=".32837"/>
                <circle class="cls-28" cx="199.15224" cy="24.88988" r=".57331"/>
                <circle class="cls-13" cx="194.09694" cy="26.93212" r=".41644"/>
                <circle class="cls-11" cx="183.45926" cy="31.22952" r="1.01986"/>
                <circle class="cls-12" cx="197.1885" cy="25.68319" r=".52265"/>
              </g>
              <circle class="cls-6" cx="163.21511" cy="33.94717" r="3.04128"/>
              <circle class="cls-6" cx="155.51054" cy="29.89213" r="4.05504"/>
              <circle class="cls-6" cx="197.27741" cy="57.46637" r="1.21651"/>
              <circle class="cls-6" cx="202.95446" cy="50.97832" r="2.02752"/>
            </g>
            <path class="cls-3" d="m184.19992,1c-5.68149,0-11.01236,1.49918-15.62069,4.12176-10.96585,4.72046-18.64437,15.62211-18.64437,28.31852,0,17.02046,13.79781,30.81827,30.81827,30.81827.57422,0,1.14444-.01702,1.71092-.04801.57478.0311,1.15332.04801,1.73586.04801,17.46837,0,31.62928-14.16091,31.62928-31.62928S201.66829,1,184.19992,1Z"/>
          </g>
          <g>
            <g>
              <circle class="cls-50" cx="248.50556" cy="63.78134" r="23.31646"/>
              <circle class="cls-55" cx="251.12414" cy="66.05448" r="31.62928"/>
              <circle class="cls-53" cx="248.53344" cy="63.64071" r="30.81827"/>
              <path class="cls-54" d="m259.32582,46.42763l-.77445,10.81085c-.04907.68497.24206,1.35022.7785,1.77896l8.46667,6.7668c1.3509,1.07967.87736,3.23971-.80132,3.65522l-10.52104,2.60419c-.6666.165-1.20934.64745-1.45132,1.29012l-3.81927,10.14334c-.60938,1.61842-2.81003,1.83554-3.72395.36742l-5.72792-9.20137c-.36292-.58299-.98947-.95007-1.67546-.98162l-10.82711-.49787c-1.72751-.07944-2.61405-2.10528-1.5002-3.42814l6.981-8.29095c.44231-.52531.59781-1.23463.41583-1.8968l-2.87225-10.45104c-.45828-1.66751,1.19446-3.13668,2.79677-2.48613l10.04241,4.07728c.63628.25833,1.35893.18703,1.93246-.19067l9.05196-5.96123c1.44428-.95114,3.35227.16671,3.2287,1.89163Z"/>
              <path class="cls-9" d="m253.35379,33.4159c-1.83946.00424-4.48081.9164-4.93935,2.79852-.28644,1.17572.28328,2.60247,1.26983,3.47514,2.3348,2.06526,5.12275-.63718,9.02568.71209,3.51879,1.21647,2.48274,3.83839,7.44354,6.96825,3.36737,2.12454,5.2105,1.77813,6.47355,4.02233,1.22449,2.17567.43973,4.18478,1.893,4.98633,1.14871.63357,2.98895.12288,3.32222-.71713.14019-.35334-.02998-.86473-.37031-1.88749-.24801-.74534-.49692-1.27887-.52323-1.33478-.90197-1.91726-1.35295-2.87589-2.12237-4.15727-1.45939-2.43042-2.88116-4.11944-3.32774-4.63951-1.1007-1.28185-2.44651-2.83478-4.58606-4.39264-1.39416-1.01512-2.69947-1.72295-3.99938-2.42785-1.49295-.80959-2.62641-1.32258-2.92653-1.45725-2.90676-1.30432-4.58111-1.64317-5.06385-1.73491-.75365-.14323-1.13048-.21484-1.56901-.21383Z"/>
              <path class="cls-9" d="m224.9741,82.20833c.14072-1.06289,1.48156-2.05205,2.752-2.08516,1.7074-.0445,2.12721,1.66802,4.95471,3.75948,2.44638,1.80956,4.86902,2.55206,6.41557,3.02605,1.29992.3984,1.22405.25289,5.34391,1.05964,5.65745,1.10785,5.70258,1.36307,6.91871,1.22576,3.6048-.40701,5.94931-2.9589,6.46293-2.37243.33785.38578-.78023,1.37161-.83776,3.48784-.0324,1.19192.30736,1.42758.05938,1.91183-.55369,1.08123-2.65993.71163-6.01556.85339-4.92141.20792-4.95095,1.19558-6.69082.57334-2.76336-.98828-2.55575-3.4321-5.68695-4.48931-1.62773-.54959-1.70121.10496-4.1619-.38679-3.03256-.60603-5.0301-2.02166-6.41557-3.02605-1.89831-1.37619-3.25464-2.35944-3.09865-3.5376Z"/>
              <path class="cls-8" d="m228.12973,86.1957c-1.06807-.57786-.83237-3.6356-.11875-3.82367.45896-.12096.79008,1.0309,2.30944,2.358.22758.19878,1.07832.92251,2.87076,1.73851,4.30557,1.96009,6.09771.83476,9.28272,2.57147,3.03759,1.65632,2.81012,3.44471,5.23597,3.81525,2.61737.39981,4.95693-1.36519,5.39727-.68368.20676.32002-.13445.97944-.56011,1.35052-.89107.7768-2.28624.4068-3.54241.17453-3.08512-.57045-2.61249.19269-6.07374-.32741-3.57035-.53649-5.98076-1.63513-8.77718-2.9097-3.52838-1.60819-4.55227-2.61441-4.44797-3.36668.07871-.56768.79906-.98494.67286-1.18201-.17616-.27507-1.47288.7047-2.24886.28486Z"/>
              <g>
                <circle class="cls-40" cx="250.70118" cy="63.8618" r="9.01278"/>
                <circle class="cls-26" cx="270.39415" cy="77.25419" r=".30043"/>
                <circle class="cls-27" cx="271.40312" cy="77.94035" r=".30043"/>
                <circle class="cls-47" cx="270.57505" cy="77.37721" r="2.2532"/>
                <line class="cls-1" x1="254.84157" y1="66.67751" x2="271.40312" y2="77.94035"/>
                <circle class="cls-46" cx="254.84157" cy="66.67751" r="6.00852"/>
                <circle class="cls-44" cx="254.84157" cy="66.67751" r="3.00426"/>
                <circle class="cls-19" cx="254.84157" cy="66.67751" r="2.50355"/>
                <polyline class="cls-2" points="254.84157 66.67751 241.43863 70.50075 254.84157 66.67751 268.24451 62.85427 254.84157 66.67751 251.01833 53.27457 254.84157 66.67751 258.6648 80.08045 254.84157 66.67751 253.79936 78.3632 254.84157 66.67751 255.88377 54.99181 254.84157 66.67751 243.15587 65.63531 254.84157 66.67751 266.52726 67.71971 254.84157 66.67751 244.07005 74.69577 254.84157 66.67751 265.61309 58.65924 254.84157 66.67751 246.8233 55.90599 254.84157 66.67751 262.85983 77.44903 254.84157 66.67751 251.15595 73.24665 254.84157 66.67751 258.52719 60.10837 254.84157 66.67751 248.27243 62.99189 254.84157 66.67751 261.41071 70.36313 254.84157 66.67751 254.26674 66.96398 254.84157 66.67751 255.4164 66.39103 254.84157 66.67751 254.55509 66.10268 254.84157 66.67751 255.12804 67.25234 254.84157 66.67751 254.99247 69.77189 254.84157 66.67751 254.69066 63.58313 254.84157 66.67751 251.74719 66.82841 254.84157 66.67751 257.93594 66.52661 254.84157 66.67751 252.55368 73.30442 254.84157 66.67751 257.12945 60.0506 254.84157 66.67751 248.21466 64.38962 254.84157 66.67751 261.46848 68.9654 254.84157 66.67751 253.59003 68.7579 254.84157 66.67751 256.0931 64.59712 254.84157 66.67751 252.76117 65.42597 254.84157 66.67751 256.92196 67.92904 254.84157 66.67751 247.64563 78.78848 254.84157 66.67751 262.03751 54.56654 254.84157 66.67751 242.7306 59.48157 254.84157 66.67751 266.95253 73.87345 254.84157 66.67751 252.5583 69.6441 254.84157 66.67751 257.12483 63.71092 254.84157 66.67751 251.87498 64.39424 254.84157 66.67751 257.80815 68.96077 254.84157 66.67751 251.364 75.58607 254.84157 66.67751 258.31913 57.76895 254.84157 66.67751 245.93301 63.19994 254.84157 66.67751 263.75013 70.15508 254.84157 66.67751 253.98082 77.10198 254.84157 66.67751 255.70232 56.25304 254.84157 66.67751 244.4171 65.81676 254.84157 66.67751 265.26603 67.53826 254.84157 66.67751 251.59673 73.97337 254.84157 66.67751 258.0864 59.38165 254.84157 66.67751 247.54571 63.43268 254.84157 66.67751 262.13743 69.92234 254.84157 66.67751 253.13884 67.60829 254.84157 66.67751 256.5443 65.74673 254.84157 66.67751 253.91079 64.97478 254.84157 66.67751 255.77235 68.38024 254.84157 66.67751 253.05428 71.0861 254.84157 66.67751 256.62885 62.26892 254.84157 66.67751 250.43298 64.89022 254.84157 66.67751 259.25015 68.4648"/>
                <circle class="cls-43" cx="271.40312" cy="77.94035" r="4.50639"/>
                <circle class="cls-15" cx="257.53528" cy="68.50939" r=".32837"/>
                <circle class="cls-14" cx="265.87115" cy="74.17828" r=".57331"/>
                <circle class="cls-21" cx="261.36268" cy="71.11225" r=".41644"/>
                <circle class="cls-20" cx="251.87568" cy="64.66053" r="1.01986"/>
                <circle class="cls-16" cx="264.11982" cy="72.98727" r=".52265"/>
              </g>
              <circle class="cls-6" cx="238.35982" cy="49.34606" r="3.04128"/>
              <circle class="cls-6" cx="237.44585" cy="40.68764" r="4.05504"/>
              <circle class="cls-6" cx="237.75309" cy="90.73477" r="1.21651"/>
              <circle class="cls-6" cx="246.30237" cy="91.84538" r="2.02752"/>
            </g>
            <path class="cls-3" d="m277.41241,48.46646c-3.15929-4.7221-7.36964-8.31914-12.11191-10.69095-10.02111-6.48922-23.35164-6.80907-33.9041.251-14.14633,9.46453-17.94169,28.60492-8.47716,42.75125.31931.47726.65053.94172.99129,1.39531.29377.49501.60142.98527.92535,1.46944,9.7136,14.51861,29.35768,18.41384,43.87628,8.70024s18.41384-29.35768,8.70024-43.87628Z"/>
          </g>
          <g>
            <g>
              <circle class="cls-49" cx="206.33992" cy="104.52987" r="23.31646"/>
              <circle class="cls-55" cx="209.71716" cy="105.31627" r="31.62928"/>
              <circle class="cls-53" cx="206.29887" cy="104.39251" r="30.81827"/>
              <path class="cls-54" d="m207.79905,84.13133l4.36609,9.92025c.27663.62854.84483,1.08071,1.51944,1.20916l10.64727,2.02726c1.69882.32346,2.28931,2.4545.99923,3.60615l-8.08553,7.21792c-.51229.45732-.76675,1.13744-.68044,1.81872l1.36214,10.75261c.21734,1.71563-1.62693,2.93574-3.12088,2.06468l-9.36322-5.45933c-.59325-.3459-1.31871-.37773-1.93998-.08513l-9.80542,4.61822c-1.5645.73686-3.29481-.64011-2.92803-2.33011l2.29874-10.59198c.14565-.6711-.04826-1.37089-.51853-1.87133l-7.42223-7.8984c-1.18425-1.26023-.40937-3.33135,1.31125-3.50477l10.78392-1.08687c.68326-.06886,1.28889-.46953,1.61951-1.07142l5.21823-9.4997c.83259-1.51572,3.0418-1.41878,3.73843.16404Z"/>
              <path class="cls-9" d="m196.4398,75.41711c-1.62438.86314-3.53358,2.90367-3.05967,4.78197.29604,1.17334,1.46633,2.16863,2.7463,2.47929,3.02921.73519,4.2316-2.95671,8.31276-3.58719,3.67948-.56843,3.98841,2.23379,9.83679,2.68338,3.96985.30518,5.43761-.8622,7.60283.53191,2.0991,1.35154,2.34391,3.49454,4.00331,3.52427,1.31164.0235,2.7001-1.28779,2.60231-2.18619-.04113-.3779-.4305-.75054-1.20924-1.49582-.5675-.54312-1.03684-.89856-1.08622-.9357-1.69322-1.27375-2.53982-1.91063-3.81878-2.68409-2.42581-1.46704-4.47198-2.29614-5.1098-2.54732-1.57207-.6191-3.48749-1.36337-6.10701-1.74115-1.70691-.24617-3.19171-.26216-4.67035-.27808-1.69823-.01829-2.94005.05769-3.26832.07884-3.1794.20482-4.81809.68748-5.28776.83191-.73326.22547-1.09989.33821-1.48715.54398Z"/>
              <path class="cls-9" d="m194.1436,131.816c-.37216-1.0055.35121-2.50651,1.45901-3.12933,1.48881-.83704,2.66007.48095,6.13715,1.00912,3.00839.45698,5.49727-.01839,7.08611-.32186,1.33546-.25507,1.2004-.34828,5.21989-1.55978,5.51963-1.66364,5.67877-1.45908,6.68987-2.14866,2.99704-2.04402,3.8777-5.39563,4.60582-5.11706.47894.18324-.04902,1.57723.88881,3.47519.52821,1.06898.93872,1.1186.94571,1.66261.0156,1.21465-2.01932,1.8719-4.91997,3.56499-4.25413,2.48311-3.81882,3.37015-5.64784,3.63286-2.90495.41724-3.86314-1.84046-7.12553-1.3123-1.69593.27455-1.45509.8876-3.86046,1.60246-2.96438.88099-5.39189.56261-7.08611.32186-2.32135-.32987-3.97992-.56554-4.39244-1.68009Z"/>
              <path class="cls-8" d="m198.79655,133.86715c-1.21431-.01192-2.43449-2.82554-1.89141-3.32522.34928-.32137,1.18019.54234,3.14355,1.00586.29409.06942,1.38439.31185,3.35042.19589,4.72253-.27854,5.7813-2.11079,9.40873-2.06331,3.45952.04528,4.09394,1.73276,6.41188.92703,2.50094-.86934,3.74487-3.52291,4.4526-3.12607.33232.18634.33872.92879.13574,1.45575-.42493,1.10311-1.83133,1.4278-3.05049,1.80932-2.99423.937-2.21981,1.39092-5.52307,2.54816-3.40738,1.19372-6.05183,1.3485-9.11977,1.52807-3.87097.22657-5.24635-.18473-5.50559-.89858-.19563-.53869.24632-1.24416.04268-1.35943-.28426-.1609-.97301,1.31119-1.85525,1.30253Z"/>
              <g>
                <circle class="cls-39" cx="208.31878" cy="103.57522" r="9.01278"/>
                <circle class="cls-23" cx="231.98727" cy="106.21559" r=".30043"/>
                <circle class="cls-22" cx="233.19993" cy="106.35087" r=".30043"/>
                <circle class="cls-48" cx="232.20468" cy="106.23985" r="2.2532"/>
                <line class="cls-1" x1="213.29501" y1="104.13035" x2="233.19993" y2="106.35087"/>
                <circle class="cls-45" cx="213.29501" cy="104.13035" r="6.00852"/>
                <circle class="cls-41" cx="213.29501" cy="104.13035" r="3.00426"/>
                <circle class="cls-17" cx="213.29501" cy="104.13035" r="2.50355"/>
                <polyline class="cls-2" points="213.29501 104.13035 203.23098 113.77251 213.29501 104.13035 223.35903 94.48819 213.29501 104.13035 203.65285 94.06632 213.29501 104.13035 222.93717 114.19438 213.29501 104.13035 217.83309 114.9492 213.29501 104.13035 208.75693 93.3115 213.29501 104.13035 202.47616 108.66843 213.29501 104.13035 224.11386 99.59227 213.29501 104.13035 207.51747 116.25216 213.29501 104.13035 219.07255 92.00854 213.29501 104.13035 201.1732 98.35281 213.29501 104.13035 225.41681 109.90789 213.29501 104.13035 213.10545 111.66039 213.29501 104.13035 213.48456 96.60031 213.29501 104.13035 205.76497 103.9408 213.29501 104.13035 220.82505 104.3199 213.29501 104.13035 212.92061 104.6522 213.29501 104.13035 213.6694 103.6085 213.29501 104.13035 212.77316 103.75595 213.29501 104.13035 213.81685 104.50474 213.29501 104.13035 214.87412 106.79575 213.29501 104.13035 211.7159 101.46495 213.29501 104.13035 210.62961 105.70946 213.29501 104.13035 215.96041 102.55124 213.29501 104.13035 214.36825 111.05844 213.29501 104.13035 212.22176 97.20225 213.29501 104.13035 206.36691 105.2036 213.29501 104.13035 220.2231 103.0571 213.29501 104.13035 213.16042 106.55445 213.29501 104.13035 213.4296 101.70625 213.29501 104.13035 210.87091 103.99576 213.29501 104.13035 215.71911 104.26494 213.29501 104.13035 212.59093 118.20022 213.29501 104.13035 213.99908 90.06047 213.29501 104.13035 199.22513 103.42627 213.29501 104.13035 227.36488 104.83443 213.29501 104.13035 212.66224 107.82 213.29501 104.13035 213.92777 100.4407 213.29501 104.13035 209.60535 103.49758 213.29501 104.13035 216.98466 104.76312 213.29501 104.13035 214.38238 113.63159 213.29501 104.13035 212.20764 94.62911 213.29501 104.13035 203.79377 105.21772 213.29501 104.13035 222.79624 103.04298 213.29501 104.13035 217.40427 113.74931 213.29501 104.13035 209.18574 94.51139 213.29501 104.13035 203.67605 108.23962 213.29501 104.13035 222.91396 100.02108 213.29501 104.13035 213.8347 112.09698 213.29501 104.13035 212.75531 96.16372 213.29501 104.13035 205.32838 104.67004 213.29501 104.13035 221.26164 103.59066 213.29501 104.13035 212.22439 105.74881 213.29501 104.13035 214.36562 102.51189 213.29501 104.13035 211.67654 103.05974 213.29501 104.13035 214.91347 105.20096 213.29501 104.13035 213.77446 108.86323 213.29501 104.13035 212.81555 99.39747 213.29501 104.13035 208.56213 104.6098 213.29501 104.13035 218.02789 103.6509"/>
                <circle class="cls-42" cx="233.19993" cy="106.35087" r="4.50639"/>
                <circle class="cls-24" cx="216.53251" cy="104.49151" r=".32837"/>
                <circle class="cls-18" cx="226.55119" cy="105.60916" r=".57331"/>
                <circle class="cls-25" cx="221.13257" cy="105.00468" r=".41644"/>
                <circle class="cls-30" cx="209.73038" cy="103.73269" r="1.01986"/>
                <circle class="cls-31" cx="224.44631" cy="105.37435" r=".52265"/>
              </g>
              <circle class="cls-6" cx="190.6254" cy="96.50697" r="3.04128"/>
              <circle class="cls-6" cx="185.77211" cy="89.27861" r="4.05504"/>
              <circle class="cls-6" cx="209.42572" cy="133.38435" r="1.21651"/>
              <circle class="cls-6" cx="217.50346" cy="130.37208" r="2.02752"/>
            </g>
            <path class="cls-3" d="m224.74288,77.48394c-4.99946-2.69903-10.40258-3.91229-15.70357-3.79376-11.89194-1.05561-23.8276,4.88961-29.85912,16.06188-8.08569,14.97723-2.49899,33.67344,12.47824,41.75913.50529.27279,1.01514.5287,1.52834.77053.49101.30042.99206.59015,1.50467.86689,15.37138,8.29848,34.55958,2.56476,42.85806-12.80662,8.29848-15.37138,2.56476-34.55958-12.80662-42.85806Z"/>
          </g>
        </g>
      </g>
    </g>
  </g>
</svg>