<?xml version="1.0" encoding="UTF-8"?>
<svg id="Layer_2" data-name="Layer 2" xmlns="http://www.w3.org/2000/svg" viewBox="0 0 261.99706 127.09134">
  <defs>
    <style>
      .cls-1 {
        fill: #805f34;
      }

      .cls-2 {
        fill: #734e25;
      }

      .cls-3 {
        fill: #9a7762;
      }

      .cls-4 {
        fill: #4c2e18;
      }

      .cls-5 {
        fill: #623c18;
      }

      .cls-6 {
        fill: #623316;
      }

      .cls-7 {
        stroke-linejoin: bevel;
      }

      .cls-7, .cls-8 {
        fill: none;
        stroke: #000;
        stroke-width: 2px;
      }

      .cls-8 {
        stroke-linejoin: round;
      }
    </style>
  </defs>
  <g id="Layer_8" data-name="Layer 8">
    <g>
      <g>
        <g>
          <path class="cls-5" d="m69.74576,57.56117c-1.8681,7.36597-6.62596,11.79513-8.23562,13.25192-8.02423,7.27218-17.81044,7.63645-23.9901,7.87164-6.13291.22315-14.67371.54038-22.88582-5.08714-1.8681-1.28068-8.91712-6.09734-11.41968-15.03798-.12907-.43454-.23491-.88113-.34046-1.32772-2.09125-9.52777,2.40847-17.22302,4.9225-21.64042.92817-1.6329,11.36059-19.32602,28.18435-19.33778,5.74483,0,10.17399,2.05597,12.7821,3.27784.21168.09408.41131.18787.61094.29371,9.09323,4.45268,13.8161,11.54875,15.46105,14.29768,2.27912,3.81822,7.62469,12.7471,4.91074,23.43824Z"/>
          <path class="cls-2" d="m57.24561,40.72565c0,17.04691-13.32276,30.85125-29.75873,30.85125-10.03316,0-18.89148-5.13418-24.27233-13.01729-.12907-.43454-.23491-.88113-.34046-1.32772-2.09125-9.52777,2.40847-17.22302,4.9225-21.64042.92817-1.6329,11.36059-19.32602,28.18435-19.33778,5.74483,0,10.17399,2.05597,12.7821,3.27784.21168.09408.41131.18787.61094.29371,4.88751,5.49816,7.87164,12.8409,7.87164,20.90041Z"/>
          <path class="cls-3" d="m42.1767,32.26408c-4.86915,0-8.45562-2.71222-8.60592-2.82695-.51514-.39467-.61381-1.13239-.22028-1.64638.22372-.29486.56447-.46351.9339-.46351.25929,0,.50481.08375.71247.24208.31321.23979,3.19065,2.35541,7.11328,2.35541,1.28154,0,2.54013-.23061,3.74135-.68723,4.70279-1.78864,6.35032-6.16675,6.6337-7.02608.15833-.48301.60578-.8077,1.11403-.8077.12391,0,.24782.02065.36828.05966.6161.20307.95111.86851.74804,1.48461-.34075,1.03716-2.33247,6.31934-8.02997,8.48545-1.45019.55071-2.96692.83065-4.5089.83065Z"/>
          <path class="cls-3" d="m41.77859,41.63639c-2.21085,0-4.29894-.17554-5.97515-.31666-1.87584-.15948-4.17618-.35337-7.06165-1.18975-6.3595-1.83798-12.09601-5.77552-16.59114-11.38698-.19619-.24438-.28453-.55185-.25011-.86392s.18816-.59201.43368-.7882c.26617-.21225.54497-.257.73198-.257.36025,0,.69527.16062.92014.44171,2.91988,3.64613,7.96343,8.44644,15.40827,10.59878,2.67207.77213,4.74639.94652,6.57749,1.10141,1.74734.148,3.7207.31321,5.84436.31321,5.7434,0,10.07561-1.30792,13.24446-3.9972,2.11448-1.79438,3.72988-4.21289,4.80146-7.189.16636-.4658.61151-.77787,1.106-.77787.13538,0,.26847.02409.39811.06999.29371.10555.53005.3201.66429.60463.13309.28338.148.60233.04245.89719-1.2127,3.36963-3.061,6.12315-5.49328,8.18715-3.61056,3.0633-8.45218,4.5525-14.80135,4.5525Z"/>
          <path class="cls-3" d="m42.22489,53.94807c-2.73976,0-5.08026-.24208-6.78859-.41877-4.25879-.43827-11.38813-1.1714-19.14504-5.83633-4.16586-2.50341-7.83722-5.73307-10.91429-9.59948-.19504-.24552-.28338-.55071-.24782-.86277.03442-.31207.1893-.59086.43483-.78705.26617-.21225.54382-.25585.73083-.25585.36025,0,.69527.16062.91899.44286,2.90497,3.64727,6.36523,6.69107,10.28671,9.04992,7.30602,4.38958,14.10838,5.09288,18.17327,5.51164,1.63146.16865,3.86297.39811,6.49029.39811,5.25923,0,10.04463-.90407,14.6304-2.76385,4.10046-1.66359,7.88312-4.03162,11.24127-7.0387.21569-.19389.49334-.29945.78246-.29945.33845,0,.65052.13882.87769.39238.43024.48187.38894,1.22647-.09293,1.65785-3.56123,3.18835-7.57334,5.6998-11.92506,7.4655-4.88521,1.98139-9.94023,2.94398-15.45302,2.94398Z"/>
          <path class="cls-3" d="m20.59938,61.59886c-3.18491,0-7.9118-.68609-12.34956-3.9536-4.41597-3.24916-6.39736-7.52516-7.18556-9.7842-.2134-.61151.11129-1.28383.7228-1.49723.1262-.04474.257-.06654.38779-.06654.49793,0,.94308.31666,1.10829.78934.69871,2.00204,2.45293,5.79273,6.3595,8.66787,3.92722,2.89006,8.10913,3.49698,10.92691,3.49698.61954,0,1.22647-.02983,1.80241-.08834.05278-.00574.09637-.00803.13997-.00803.59316,0,1.0865.45433,1.1473,1.05667.06654.64364-.405,1.22188-1.04863,1.28727-.63675.06654-1.31251.09982-2.01122.09982Z"/>
        </g>
        <path class="cls-8" d="m69.3146,43.78723c.0958-.08433.19475-.16349.28969-.24868.48187-.43139.52317-1.17599.09293-1.65785-.22717-.25355-.53923-.39238-.87769-.39238-.09064,0-.17554.02811-.26216.04847-1.22417-3.22449-2.74951-5.78642-3.72099-7.41387-.60119-1.00475-1.61913-2.59348-3.10603-4.41855.11014-.27334.24265-.52518.34419-.80741.10555-.29486.09064-.61381-.04245-.89719-.13423-.28453-.37058-.49908-.66429-.60463-.12965-.04589-.26273-.06999-.39811-.06999-.36599,0-.70387.17238-.92272.45032-1.45564-1.56091-3.23539-3.19638-5.35991-4.74037.00918-.02754.02237-.06368.02983-.08691.20307-.6161-.13194-1.28154-.74804-1.48461-.12047-.03901-.24438-.05966-.36828-.05966-.31264,0-.59316.13309-.80655.34018-1.06527-.6749-2.19967-1.32169-3.41867-1.91886-.19963-.10584-.39926-.19963-.61094-.29371-2.60811-1.22188-7.03727-3.27784-12.7821-3.27784-9.60722.00688-17.1255,5.77839-21.9849,11.03361-.00287-.00373-.0066-.00803-.00975-.01147-.22487-.28109-.55988-.44171-.92014-.44171-.18701,0-.4658.04474-.73198.257-.24552.19619-.39926.47613-.43368.7882s.05392.61954.25011.86392c.08978.11186.18758.21282.27851.32354-2.6976,3.21532-4.29521,5.93155-4.63252,6.52471-.18529.32583-.38377.6749-.58713,1.03573-.22401-.27937-.55644-.43942-.91469-.43942-.18701,0-.46466.0436-.73083.25585-.24552.19619-.40041.47498-.43483.78705-.03557.31207.05278.61725.24782.86277.20479.25728.41877.50395.62872.75521-1.13698,2.19938-2.28858,4.83244-2.99217,7.82116-.21684-.22688-.51227-.37259-.83868-.37259-.13079,0-.26158.0218-.38779.06654-.61151.2134-.9362.88572-.7228,1.49723.27507.78848.70789,1.83023,1.32628,2.98041-.12534,2.01811-.00803,4.15151.48359,6.39048.10555.44659.21139.89318.34046,1.32772,2.50255,8.94064,9.55158,13.7573,11.41968,15.03798,8.2121,5.62752,16.75291,5.31029,22.88582,5.08714,6.17966-.2352,15.96586-.59947,23.9901-7.87164,1.60967-1.45679,6.36753-5.88595,8.23562-13.25192,1.29989-5.12127.74345-9.82951-.43253-13.77394Z"/>
      </g>
      <g>
        <g>
          <path class="cls-4" d="m104.14098,100.25132c-1.8681,7.36597-6.62596,11.79513-8.23562,13.25192-8.02423,7.27218-17.81044,7.63645-23.9901,7.87164-6.13291.22315-14.67371.54038-22.88582-5.08714-1.8681-1.28068-8.91712-6.09734-11.41968-15.03798-.12907-.43454-.23491-.88113-.34046-1.32772-2.09125-9.52777,2.40847-17.22302,4.9225-21.64042.92817-1.6329,11.36059-19.32602,28.18435-19.33778,5.74483,0,10.17399,2.05597,12.7821,3.27784.21168.09408.41131.18787.61094.29371,9.09323,4.45268,13.8161,11.54875,15.46105,14.29768,2.27912,3.81822,7.62469,12.7471,4.91074,23.43824Z"/>
          <path class="cls-5" d="m91.64083,83.41581c0,17.04691-13.32276,30.85125-29.75873,30.85125-10.03316,0-18.89148-5.13418-24.27233-13.01729-.12907-.43454-.23491-.88113-.34046-1.32772-2.09125-9.52777,2.40847-17.22302,4.9225-21.64042.92817-1.6329,11.36059-19.32602,28.18435-19.33778,5.74483,0,10.17399,2.05597,12.7821,3.27784.21168.09408.41131.18787.61094.29371,4.88751,5.49816,7.87164,12.8409,7.87164,20.90041Z"/>
          <path class="cls-2" d="m42.19825,69.58398c-.27306.67089-1.48748,3.85723,0,7.23862,1.10543,2.51259,3.84289,5.45083,7.56761,5.2644,2.40589-.12047,4.99077-1.5328,6.14208-4.05801,1.38479-3.03748.08088-6.33799-1.64523-8.11602-2.73632-2.81892-7.85558-3.17143-12.06446-.32899Z"/>
          <path class="cls-2" d="m66.10746,63.66161c-1.75996,2.97582-5.34758,3.47288-7.12876,1.97422-1.91083-1.60708-1.5718-5.36565-.10957-6.25165,1.43126-.86736,4.54848.6465,7.23833,4.27743Z"/>
          <path class="cls-2" d="m81.46181,61.79724c-2.31927.79221-4.45096,3.05182-4.38671,5.81252.07515,3.23252,3.11607,5.26354,5.48353,5.81281,2.08235.4833,5.42502.23376,7.0192-2.30321,1.37217-2.18332.69469-4.85911-.32928-6.47079-1.54828-2.43744-4.79745-3.87243-7.78674-2.85133Z"/>
          <path class="cls-2" d="m61.06041,72.25298c.36746-.30744,4.22933-3.43929,8.51425-2.05048.69205.22414,3.79152,1.22868,4.48525,4.11064.73938,3.07269-1.93371,5.46427-2.05509,5.56963-1.85404,1.60631-4.35806,1.77956-6.16591,1.18246-3.09063-1.02091-5.22538-4.64856-4.7785-8.81225Z"/>
          <path class="cls-2" d="m55.52125,87.26039c-1.55804.59373-2.33189,2.34308-2.19307,3.83859.11014,1.18287.85245,2.86252,2.41278,3.18061,1.58385.32297,2.95488-.97177,3.5096-2.08379.76582-1.53566.49793-3.77376-.98725-4.71599-1.22073-.77414-2.62044-.2656-2.74205-.21942Z"/>
          <path class="cls-2" d="m72.73815,84.68004c-.64937,2.20311-.11473,4.55795,1.4261,6.1418.20766.21311,2.19135,2.18389,5.04469,1.7548.46408-.0697,3.16942-.53665,4.16758-2.96119.84728-2.05711-.01606-4.35459-1.42552-5.59339-1.87527-1.64839-4.39589-1.14071-5.70324-.8774-1.63433.32899-2.82982,1.05093-3.5096,1.53538Z"/>
          <path class="cls-2" d="m39.0486,83.46065c-1.74734.33243-2.56135,2.44232-2.63191,2.6322-.11588.31264-.89949,2.54328.54841,4.16758,1.52477,1.71034,3.99778,1.0363,4.16758.98697.15546-.04503,2.24986-.68551,2.74205-2.41278.71305-2.50255-2.34968-5.84493-4.82613-5.37397Z"/>
          <path class="cls-1" d="m66.10746,63.45368c-1.33486,2.25703-4.05592,2.63404-5.40687,1.49736-1.44929-1.21891-1.19215-4.06962-.0831-4.74162,1.08555-.65786,3.44983.49035,5.48998,3.24425Z"/>
          <path class="cls-1" d="m42.0652,69.22367c-.22302.54794-1.21489,3.15037,0,5.9121.90285,2.05215,3.13866,4.45194,6.1808,4.29967,1.965-.09839,4.07618-1.2519,5.01651-3.31436,1.13102-2.48085.06606-5.17651-1.34373-6.62871-2.23487-2.30234-6.416-2.59025-9.85358-.2687Z"/>
          <path class="cls-1" d="m61.15064,71.65122c.30147-.25223,3.46979-2.82164,6.9852-1.68224.56777.18389,3.11061,1.00803,3.67976,3.37243.6066,2.52087-1.58644,4.48296-1.68602,4.56939-1.52108,1.31784-3.57541,1.45997-5.05859.97011-2.53559-.83756-4.28697-3.81374-3.92034-7.22969Z"/>
          <path class="cls-1" d="m80.55806,61.7287c-1.84161.62905-3.53426,2.42329-3.48325,4.6154.05967,2.56677,2.4743,4.17948,4.35417,4.61563,1.65348.38376,4.30771.18562,5.57356-1.82885,1.08957-1.73365.55162-3.85835-.26146-5.13809-1.22941-1.93544-3.80939-3.07489-6.18302-2.26409Z"/>
          <path class="cls-1" d="m38.70865,83.45548c-1.5458.29409-2.26592,2.16061-2.32834,2.32859-.10251.27658-.79573,2.24993.48515,3.68687,1.34889,1.51306,3.53666.91677,3.68687.87313.13753-.03984,1.99035-.60644,2.42577-2.13448.6308-2.2139-2.07865-5.17075-4.26946-4.75411Z"/>
          <path class="cls-1" d="m72.6998,84.42229c-.55744,1.8912-.09849,3.91264,1.22419,5.27226.17826.18294,1.8811,1.8747,4.33047,1.50636.39838-.05983,2.7207-.46067,3.57754-2.54195.72733-1.76587-.01379-3.73807-1.2237-4.80149-1.60977-1.41501-3.77353-.97921-4.89579-.75318-1.40295.28241-2.42918.90214-3.01272,1.318Z"/>
          <path class="cls-1" d="m55.74651,87.21236c-1.19565.45563-1.78951,1.79809-1.68298,2.94576.08452.90774.65417,2.19672,1.85158,2.44082,1.21546.24785,2.26759-.74574,2.69329-1.59911.5877-1.17848.38211-2.89601-.75763-3.61908-.9368-.59408-2.01094-.20382-2.10427-.16839Z"/>
        </g>
        <path class="cls-7" d="m99.22782,76.81308c-1.2127-2.02614-4.10505-6.41285-9.17985-10.36358-.20049-.67117-.47871-1.29244-.80196-1.80098-1.32686-2.08895-3.90341-3.42871-6.49488-3.13013-.38521-.04532-.775-.0565-1.16795-.01119-2.66404-1.17398-6.4814-2.56336-11.20943-2.56336-2.76012.00201-5.34442.48646-7.74659,1.291-1.54226-1.03401-2.9348-1.35124-3.76057-.85072-.77357.46896-1.2279,1.74304-1.20581,3.0762-2.72599,1.54427-5.12758,3.44678-7.17896,5.39462-.89318-.20508-1.84314-.27334-2.81634-.20307-1.81675-.12506-3.80847.36025-5.60257,1.5718-.15632.38377-.67547,1.78434-.56333,3.53341-.07113,1.1995.05478,2.60753.69613,4.06547.1133.25728.24782.51944.39467.78189-.1893.31092-.32784.5487-.40098.6772-.79594,1.39856-1.79037,3.12812-2.71251,5.13791-.04675.00086-.09293.01004-.1394.01348-.21282-.0175-.4245-.01692-.6313.02237-1.5457.29428-2.26592,2.16066-2.32816,2.32874-.05995.1612-.31178.90436-.26445,1.77746-.0522.82348.08547,1.84228.849,2.69874.06597.074.14169.11989.21082.185-.55071,2.8803-.65712,6.05776.09351,9.47672.10555.44659.21139.89318.34046,1.32772,2.50255,8.94064,9.55158,13.7573,11.41968,15.03798,8.2121,5.62752,16.75291,5.31029,22.88582,5.08714,6.17966-.2352,15.96586-.59947,23.9901-7.87164,1.60967-1.45679,6.36753-5.88595,8.23562-13.25192,2.71394-10.69114-2.63163-19.62002-4.91074-23.43824Z"/>
      </g>
      <g>
        <ellipse class="cls-6" cx="161.93229" cy="106.96552" rx="8.62992" ry="6.26342"/>
        <ellipse class="cls-6" cx="257.68208" cy="114.28565" rx="4.31497" ry="3.13171"/>
        <path class="cls-6" d="m246.83992,108.16222c-3.41956,1.19366-8.23312-.76833-10.82605-2.37786-2.8345-1.7595-3.03122-3.10769-5.55545-3.6185-.30072-.06085-3.2262-.62444-4.98569.41353-3.01334,1.77764.35336,6.50632.71225,16.33494.16727,4.58067-.45355,6.57867-2.4216,7.54715-1.66672.8202-4.1395.82315-5.84036.10339-2.72946-1.15502-3.05115-3.99342-3.41876-7.23699-.36963-3.26128.36234-4.10933-.28488-7.54716-.44312-2.35367-.81436-4.32559-2.27917-4.65235-2.26254-.5047-5.68051,3.19018-6.2677,3.82527-2.42303,2.62069-1.61374,3.72909-4.27417,6.47924-1.29044,1.33395-2.45483,2.50303-4.64355,3.07002-1.70584.44191-4.65564.67913-6.32419-.45133-2.60272-1.76339-1.49573-6.44994,1.56693-9.20132,2.06396-1.85421,4.40384-2.23283,5.27057-4.44559.13025-.33251.87659-2.36421-.56979-3.51511-1.62817-1.29554-5.25375,1.61142-8.54684.51692-2.2424-.74528-2.94-2.73872-2.99142-2.8948-.88025-2.6715,2.49112-4.10483,1.70938-5.99636-.88483-2.14092-6.21103-2.74169-9.40155-3.10157-6.76248-.76278-8.77039,1.75991-15.38437.82709-4.70328-.66333-6.0968-2.12729-6.41016-2.48126-1.09665-1.23883-1.45038-2.98822-.56979-4.44559,1.14203-1.89004,3.91882-2.55857,5.84036-2.99818,2.28265-.52223,4.76703-.73125,15.95416.20677,4.83121.40508,7.46127.70344,9.82889-.51694.54501-.28093,2.23532-1.13878,2.70651-2.58464.40503-1.2429-.41833-1.90886-.56979-4.54897-.06668-1.1621-.09232-1.75172.28491-2.1711.94617-1.05191,3.23978-1.10233,5.98279-1.13724,4.22473-.05377,4.97137.6298,6.55261.10339,2.36441-.78713,3.0834-3.08513,3.48773-4.37742,1.05237-3.36352-.89252-4.35461.01111-8.12382.37671-1.57134.89758-3.74403,3.1962-4.55739,1.5094-.5341,3.38785-.34143,4.70078.20677,2.69458,1.12508,3.11835,3.79418,3.41876,5.68621.42142,2.65421-.40057,3.40302-.13223,7.35246.24127,3.55101.97128,3.91031,1.32159,4.00599,1.61829.44204,3.33698-2.501,6.91803-2.51425,1.34009-.00495,2.99115.40019,3.85822,1.28759.75824.77604.58673,1.60403-.14246,5.06589-.78177,3.71143-1.09933,4.35951-.42734,5.0659,1.29068,1.35677,4.60153,1.2148,6.41016,1.13724,2.81604-.12076,3.97397-.82212,7.97705-2.06771,5.92093-1.84234,8.94022-2.7496,11.82318-2.06771.20102.04755,4.05154,1.00289,4.55832,3.30833.56509,2.57083-4.19824,4.73792-4.70078,4.96251-3.44919,1.54151-5.13324.50792-9.54401,2.1711-1.95758.73815-4.24417,1.60037-5.12811,3.41172-1.08813,2.22982.66232,4.43695.99713,4.85912,1.51074,1.90488,2.96237,1.61017,5.55548,3.72189.73309.59702,4.71585,3.8404,3.27628,6.30652-.5946,1.01859-1.88843,1.51777-2.27914,1.65417Z"/>
      </g>
      <g>
        <g>
          <path class="cls-4" d="m157.67461,42.30748c-1.8681,7.36597-6.62596,11.79513-8.23562,13.25192-8.02423,7.27218-17.81044,7.63645-23.9901,7.87164-6.13291.22315-14.67371.54038-22.88582-5.08714-1.8681-1.28068-8.91712-6.09734-11.41968-15.03798-.12907-.43454-.23491-.88113-.34046-1.32772-2.09125-9.52777,2.40847-17.22302,4.9225-21.64042.92817-1.6329,11.36059-19.32602,28.18435-19.33778,5.74483,0,10.17399,2.05597,12.7821,3.27784.21168.09408.41131.18787.61094.29371,9.09323,4.45268,13.8161,11.54875,15.46105,14.29768,2.27912,3.81822,7.62469,12.7471,4.91074,23.43824Z"/>
          <path class="cls-5" d="m145.17446,25.47196c0,17.04691-13.32276,30.85125-29.75873,30.85125-10.03316,0-18.89148-5.13418-24.27233-13.01729-.12907-.43454-.23491-.88113-.34046-1.32772-2.09125-9.52777,2.40847-17.22302,4.9225-21.64042.92817-1.6329,11.36059-19.32602,28.18435-19.33778,5.74483,0,10.17399,2.05597,12.7821,3.27784.21168.09408.41131.18787.61094.29371,4.88751,5.49816,7.87164,12.8409,7.87164,20.90041Z"/>
          <path class="cls-2" d="m95.73188,11.64014c-.27306.67089-1.48748,3.85723,0,7.23862,1.10543,2.51259,3.84289,5.45083,7.56761,5.2644,2.40589-.12047,4.99077-1.5328,6.14208-4.05801,1.38479-3.03748.08088-6.33799-1.64523-8.11602-2.73632-2.81892-7.85558-3.17143-12.06446-.32899Z"/>
          <path class="cls-2" d="m119.64109,5.71777c-1.75996,2.97582-5.34758,3.47288-7.12876,1.97422-1.91083-1.60708-1.5718-5.36565-.10957-6.25165,1.43126-.86736,4.54848.6465,7.23833,4.27743Z"/>
          <path class="cls-2" d="m134.99544,3.8534c-2.31927.79221-4.45096,3.05182-4.38671,5.81252.07515,3.23252,3.11607,5.26354,5.48353,5.81281,2.08235.4833,5.42502.23376,7.0192-2.30321,1.37217-2.18332.69469-4.85911-.32928-6.47079-1.54828-2.43744-4.79745-3.87243-7.78674-2.85133Z"/>
          <path class="cls-2" d="m114.59403,14.30914c.36746-.30744,4.22933-3.43929,8.51425-2.05048.69205.22414,3.79152,1.22868,4.48525,4.11064.73938,3.07269-1.93371,5.46427-2.05509,5.56963-1.85404,1.60631-4.35806,1.77956-6.16591,1.18246-3.09063-1.02091-5.22538-4.64856-4.7785-8.81225Z"/>
          <path class="cls-2" d="m109.05487,29.31655c-1.55804.59373-2.33189,2.34308-2.19307,3.83859.11014,1.18287.85245,2.86252,2.41278,3.18061,1.58385.32297,2.95488-.97177,3.5096-2.08379.76582-1.53566.49793-3.77376-.98725-4.71599-1.22073-.77414-2.62044-.2656-2.74205-.21942Z"/>
          <path class="cls-2" d="m126.27177,26.73619c-.64937,2.20311-.11473,4.55795,1.4261,6.1418.20766.21311,2.19135,2.18389,5.04469,1.7548.46408-.0697,3.16942-.53665,4.16758-2.96119.84728-2.05711-.01606-4.35459-1.42552-5.59339-1.87527-1.64839-4.39589-1.14071-5.70324-.8774-1.63433.32899-2.82982,1.05093-3.5096,1.53538Z"/>
          <path class="cls-2" d="m92.58222,25.51681c-1.74734.33243-2.56135,2.44232-2.63191,2.6322-.11588.31264-.89949,2.54328.54841,4.16758,1.52477,1.71034,3.99778,1.0363,4.16758.98697.15546-.04503,2.24986-.68551,2.74205-2.41278.71305-2.50255-2.34968-5.84493-4.82613-5.37397Z"/>
          <path class="cls-1" d="m119.64109,5.50983c-1.33486,2.25703-4.05592,2.63404-5.40687,1.49736-1.44929-1.21891-1.19215-4.06962-.0831-4.74162,1.08555-.65786,3.44983.49035,5.48998,3.24425Z"/>
          <path class="cls-1" d="m95.59882,11.27983c-.22302.54794-1.21489,3.15037,0,5.9121.90285,2.05215,3.13866,4.45194,6.1808,4.29967,1.965-.09839,4.07618-1.2519,5.01651-3.31436,1.13102-2.48085.06606-5.17651-1.34373-6.62871-2.23487-2.30234-6.416-2.59025-9.85358-.2687Z"/>
          <path class="cls-1" d="m114.68427,13.70738c.30147-.25223,3.46979-2.82164,6.9852-1.68224.56777.18389,3.11061,1.00803,3.67976,3.37243.6066,2.52087-1.58644,4.48296-1.68602,4.56939-1.52108,1.31784-3.57541,1.45997-5.05859.97011-2.53559-.83756-4.28697-3.81374-3.92034-7.22969Z"/>
          <path class="cls-1" d="m134.09168,3.78485c-1.84161.62905-3.53426,2.42329-3.48325,4.6154.05967,2.56677,2.4743,4.17948,4.35417,4.61563,1.65348.38376,4.30771.18562,5.57356-1.82885,1.08957-1.73365.55162-3.85835-.26146-5.13809-1.22941-1.93544-3.80939-3.07489-6.18302-2.26409Z"/>
          <path class="cls-1" d="m92.24227,25.51164c-1.5458.29409-2.26592,2.16061-2.32834,2.32859-.10251.27658-.79573,2.24993.48515,3.68687,1.34889,1.51306,3.53666.91677,3.68687.87313.13753-.03984,1.99035-.60644,2.42577-2.13448.6308-2.2139-2.07865-5.17075-4.26946-4.75411Z"/>
          <path class="cls-1" d="m126.23342,26.47844c-.55744,1.8912-.09849,3.91264,1.22419,5.27226.17826.18294,1.8811,1.8747,4.33047,1.50636.39838-.05983,2.7207-.46067,3.57754-2.54195.72733-1.76587-.01379-3.73807-1.2237-4.80149-1.60977-1.41501-3.77353-.97921-4.89579-.75318-1.40295.28241-2.42918.90214-3.01272,1.318Z"/>
          <path class="cls-1" d="m109.28013,29.26852c-1.19565.45563-1.78951,1.79809-1.68298,2.94576.08452.90774.65417,2.19672,1.85158,2.44082,1.21546.24785,2.26759-.74574,2.69329-1.59911.5877-1.17848.38211-2.89601-.75763-3.61908-.9368-.59408-2.01094-.20382-2.10427-.16839Z"/>
        </g>
        <path class="cls-7" d="m152.76144,18.86924c-1.2127-2.02614-4.10505-6.41285-9.17985-10.36358-.20049-.67117-.47871-1.29244-.80196-1.80098-1.32686-2.08895-3.90341-3.42871-6.49488-3.13013-.38521-.04532-.775-.0565-1.16795-.01119-2.66404-1.17398-6.4814-2.56336-11.20943-2.56336-2.76012.00201-5.34442.48646-7.74659,1.291-1.54226-1.03401-2.9348-1.35124-3.76057-.85072-.77357.46896-1.2279,1.74304-1.20581,3.0762-2.72599,1.54427-5.12758,3.44678-7.17896,5.39462-.89318-.20508-1.84314-.27334-2.81634-.20307-1.81675-.12506-3.80847.36025-5.60257,1.5718-.15632.38377-.67547,1.78434-.56333,3.53341-.07113,1.1995.05478,2.60753.69613,4.06547.1133.25728.24782.51944.39467.78189-.1893.31092-.32784.5487-.40098.6772-.79594,1.39856-1.79037,3.12812-2.71251,5.13791-.04675.00086-.09293.01004-.1394.01348-.21282-.0175-.4245-.01692-.6313.02237-1.5457.29428-2.26592,2.16066-2.32816,2.32874-.05995.1612-.31178.90436-.26445,1.77746-.0522.82348.08547,1.84228.849,2.69874.06597.074.14169.11989.21082.185-.55071,2.8803-.65712,6.05776.09351,9.47672.10555.44659.21139.89318.34046,1.32772,2.50255,8.94064,9.55158,13.7573,11.41968,15.03798,8.2121,5.62752,16.75291,5.31029,22.88582,5.08714,6.17966-.2352,15.96586-.59947,23.9901-7.87164,1.60967-1.45679,6.36753-5.88595,8.23562-13.25192,2.71394-10.69114-2.63163-19.62002-4.91074-23.43824Z"/>
      </g>
      <g>
        <g>
          <path class="cls-5" d="m246.61041,71.27267c-1.8681,7.36597-6.62596,11.79513-8.23562,13.25192-8.02423,7.27218-17.81044,7.63645-23.9901,7.87164-6.13291.22315-14.67371.54038-22.88582-5.08714-1.8681-1.28068-8.91712-6.09734-11.41968-15.03798-.12907-.43454-.23491-.88113-.34046-1.32772-2.09125-9.52777,2.40847-17.22302,4.9225-21.64042.92817-1.6329,11.36059-19.32602,28.18435-19.33778,5.74483,0,10.17399,2.05597,12.7821,3.27784.21168.09408.41131.18787.61094.29371,9.09323,4.45268,13.8161,11.54875,15.46105,14.29768,2.27912,3.81822,7.62469,12.7471,4.91074,23.43824Z"/>
          <path class="cls-2" d="m234.11027,54.43715c0,17.04691-13.32276,30.85125-29.75873,30.85125-10.03316,0-18.89148-5.13418-24.27233-13.01729-.12907-.43454-.23491-.88113-.34046-1.32772-2.09125-9.52777,2.40847-17.22302,4.9225-21.64042.92817-1.6329,11.36059-19.32602,28.18435-19.33778,5.74483,0,10.17399,2.05597,12.7821,3.27784.21168.09408.41131.18787.61094.29371,4.88751,5.49816,7.87164,12.8409,7.87164,20.90041Z"/>
          <path class="cls-3" d="m219.04136,45.97557c-4.86915,0-8.45562-2.71222-8.60592-2.82695-.51514-.39467-.61381-1.13239-.22028-1.64638.22372-.29486.56447-.46351.9339-.46351.25929,0,.50481.08375.71247.24208.31321.23979,3.19065,2.35541,7.11328,2.35541,1.28154,0,2.54013-.23061,3.74135-.68723,4.70279-1.78864,6.35032-6.16675,6.6337-7.02608.15833-.48301.60578-.8077,1.11403-.8077.12391,0,.24782.02065.36828.05966.6161.20307.95111.86851.74804,1.48461-.34075,1.03716-2.33247,6.31934-8.02997,8.48545-1.45019.55071-2.96692.83065-4.5089.83065Z"/>
          <path class="cls-3" d="m218.64325,55.34789c-2.21085,0-4.29894-.17554-5.97515-.31666-1.87584-.15948-4.17618-.35337-7.06165-1.18975-6.3595-1.83798-12.09601-5.77552-16.59114-11.38698-.19619-.24438-.28453-.55185-.25011-.86392s.18816-.59201.43368-.7882c.26617-.21225.54497-.257.73198-.257.36025,0,.69527.16062.92014.44171,2.91988,3.64613,7.96343,8.44644,15.40827,10.59878,2.67207.77213,4.74639.94652,6.57749,1.10141,1.74734.148,3.7207.31321,5.84436.31321,5.7434,0,10.07561-1.30792,13.24446-3.9972,2.11448-1.79438,3.72988-4.21289,4.80146-7.189.16636-.4658.61151-.77787,1.106-.77787.13538,0,.26847.02409.39811.06999.29371.10555.53005.3201.66429.60463.13309.28338.148.60233.04245.89719-1.2127,3.36963-3.061,6.12315-5.49328,8.18715-3.61056,3.0633-8.45218,4.5525-14.80135,4.5525Z"/>
          <path class="cls-3" d="m219.08955,67.65957c-2.73976,0-5.08026-.24208-6.78859-.41877-4.25879-.43827-11.38813-1.1714-19.14504-5.83633-4.16586-2.50341-7.83722-5.73307-10.91429-9.59948-.19504-.24552-.28338-.55071-.24782-.86277.03442-.31207.1893-.59086.43483-.78705.26617-.21225.54382-.25585.73083-.25585.36025,0,.69527.16062.91899.44286,2.90497,3.64727,6.36523,6.69107,10.28671,9.04992,7.30602,4.38958,14.10838,5.09288,18.17327,5.51164,1.63146.16865,3.86297.39811,6.49029.39811,5.25923,0,10.04463-.90407,14.6304-2.76385,4.10046-1.66359,7.88312-4.03162,11.24127-7.0387.21569-.19389.49334-.29945.78246-.29945.33845,0,.65052.13882.87769.39238.43024.48187.38894,1.22647-.09293,1.65785-3.56123,3.18835-7.57334,5.6998-11.92506,7.4655-4.88521,1.98139-9.94023,2.94398-15.45302,2.94398Z"/>
          <path class="cls-3" d="m197.46404,75.31035c-3.18491,0-7.9118-.68609-12.34956-3.9536-4.41597-3.24916-6.39736-7.52516-7.18556-9.7842-.2134-.61151.11129-1.28383.7228-1.49723.1262-.04474.257-.06654.38779-.06654.49793,0,.94308.31666,1.10829.78934.69871,2.00204,2.45293,5.79273,6.3595,8.66787,3.92722,2.89006,8.10913,3.49698,10.92691,3.49698.61954,0,1.22647-.02983,1.80241-.08834.05278-.00574.09637-.00803.13997-.00803.59316,0,1.0865.45433,1.1473,1.05667.06654.64364-.405,1.22188-1.04863,1.28727-.63675.06654-1.31251.09982-2.01122.09982Z"/>
        </g>
        <path class="cls-8" d="m246.17925,57.49873c.0958-.08433.19475-.16349.28969-.24868.48187-.43139.52317-1.17599.09293-1.65785-.22717-.25355-.53923-.39238-.87769-.39238-.09064,0-.17554.02811-.26216.04847-1.22417-3.22449-2.74951-5.78642-3.72099-7.41387-.60119-1.00475-1.61913-2.59348-3.10603-4.41855.11014-.27334.24265-.52518.34419-.80741.10555-.29486.09064-.61381-.04245-.89719-.13423-.28453-.37058-.49908-.66429-.60463-.12965-.04589-.26273-.06999-.39811-.06999-.36599,0-.70387.17238-.92272.45032-1.45564-1.56091-3.23539-3.19638-5.35991-4.74037.00918-.02754.02237-.06368.02983-.08691.20307-.6161-.13194-1.28154-.74804-1.48461-.12047-.03901-.24438-.05966-.36828-.05966-.31264,0-.59316.13309-.80655.34018-1.06527-.6749-2.19967-1.32169-3.41867-1.91886-.19963-.10584-.39926-.19963-.61094-.29371-2.60811-1.22188-7.03727-3.27784-12.7821-3.27784-9.60722.00688-17.1255,5.77839-21.9849,11.03361-.00287-.00373-.0066-.00803-.00975-.01147-.22487-.28109-.55988-.44171-.92014-.44171-.18701,0-.4658.04474-.73198.257-.24552.19619-.39926.47613-.43368.7882s.05392.61954.25011.86392c.08978.11186.18758.21282.27851.32354-2.6976,3.21532-4.29521,5.93155-4.63252,6.52471-.18529.32583-.38377.6749-.58713,1.03573-.22401-.27937-.55644-.43942-.91469-.43942-.18701,0-.46466.0436-.73083.25585-.24552.19619-.40041.47498-.43483.78705-.03557.31207.05278.61725.24782.86277.20479.25728.41877.50395.62872.75521-1.13698,2.19938-2.28858,4.83244-2.99217,7.82116-.21684-.22688-.51227-.37259-.83868-.37259-.13079,0-.26158.0218-.38779.06654-.61151.2134-.9362.88572-.7228,1.49723.27507.78848.70789,1.83023,1.32628,2.98041-.12534,2.01811-.00803,4.15151.48359,6.39048.10555.44659.21139.89318.34046,1.32772,2.50255,8.94064,9.55158,13.7573,11.41968,15.03798,8.2121,5.62752,16.75291,5.31029,22.88582,5.08714,6.17966-.2352,15.96586-.59947,23.9901-7.87164,1.60967-1.45679,6.36753-5.88595,8.23562-13.25192,1.29989-5.12127.74345-9.82951-.43253-13.77394Z"/>
      </g>
    </g>
  </g>
</svg>