<?xml version="1.0" encoding="UTF-8"?>
<svg xmlns="http://www.w3.org/2000/svg" xmlns:xlink="http://www.w3.org/1999/xlink" viewBox="0 0 271.72297 108.31071">
  <defs>
    <style>
      .cls-1 {
        fill: url(#linear-gradient);
      }

      .cls-2 {
        fill: #e8dbd1;
      }

      .cls-3 {
        fill: #fff;
      }

      .cls-4 {
        fill: #ffeedb;
      }

      .cls-5 {
        fill: #ec560d;
      }

      .cls-6 {
        fill: #823b1c;
      }

      .cls-7 {
        fill: #a22c3b;
      }

      .cls-8 {
        fill: #882800;
      }

      .cls-9 {
        fill: #b71837;
      }

      .cls-10 {
        fill: #db4f68;
      }

      .cls-11, .cls-12 {
        stroke-linejoin: round;
      }

      .cls-11, .cls-12, .cls-13 {
        stroke-linecap: round;
      }

      .cls-11, .cls-12, .cls-13, .cls-14 {
        fill: none;
        stroke-width: 2px;
      }

      .cls-11, .cls-13, .cls-14 {
        stroke: #000;
      }

      .cls-12 {
        stroke: #a22c3b;
      }

      .cls-15 {
        fill: #fcefdd;
        mix-blend-mode: soft-light;
      }

      .cls-13, .cls-14 {
        stroke-miterlimit: 10;
      }

      .cls-16 {
        isolation: isolate;
      }

      .cls-17 {
        mix-blend-mode: multiply;
        opacity: .76;
      }
    </style>
    <linearGradient id="linear-gradient" x1="56.00452" y1="-12.18572" x2="56.00452" y2="97.73524" gradientUnits="userSpaceOnUse">
      <stop offset=".28551" stop-color="#e5808d"/>
      <stop offset=".39886" stop-color="#e27c89"/>
      <stop offset=".50492" stop-color="#db717d"/>
      <stop offset=".58997" stop-color="#d2636f"/>
    </linearGradient>
  </defs>
  <g class="cls-16">
    <g id="Layer_2" data-name="Layer 2">
      <g id="Layer_8" data-name="Layer 8">
        <g>
          <g>
            <path class="cls-4" d="m130.01838,104.45271c-1.39168-2.00824-4.19075-7.427-2.71544-17.08222.00889-.05817.02108-.11516.03681-.17185.1841-.66382,1.4003-5.09635,1.2654-5.86391-.1459-.83013-3.76965-8.1599-1.29079-14.40317,2.41198-6.07483,5.71129-6.13482,6.77835-6.16747.05838-.00179.11538-.00028.17348.00546.57386.05661,2.57833-.0212,4.84063,1.87248,1.35591,1.13498,3.06111,2.2548,4.42292,2.39923.08512.00903.16448.03582.24967.04412,1.18945.11582,3.2208.18718,4.83423-.87554,1.83538-1.20891,5.30529.02936,5.30529.02936.91041.3279,4.19924,1.25804,4.67054,7.95886.4713,6.70082-5.20242,12.58861-5.59291,13.33555-.36106.69064-.54462,5.28333-.57024,5.97173-.00219.05879-.00783.1168-.01698.17493-1.98289,12.59842-8.72315,16.10577-8.72315,16.10577,0,0-.58461.16385-.87507-.55579-.31053-.76937.64048-18.61699-2.80307-18.68432s-7.54326,15.44607-7.54326,15.44607c0,0-.00381.01719-.01232.04772-.31403,1.12611-1.77419,1.36524-2.43408.413Z"/>
            <path class="cls-9" d="m138.81698,62.99615c-3.43623,1.15039-.39391,5.41556.8828,7.33063s5.47163.72955,6.20118.36478,3.83014-.82074,6.65715,2.27985,5.75791-.58598,5.75791-.58598c-.50177-6.5687-3.79019-7.48421-4.70081-7.80667,0,0-3.47068-1.21776-5.2978-.03489-1.60617,1.03983-3.63493.96754-4.82321.85264-.08511-.00823-.16448-.03458-.24952-.04353-1.36052-.14314-3.06847-1.24275-4.42771-2.35682-2.25483-1.84813-4.24608-1.78562-4.83234-1.84003-.0539-.005-.1061-.00879-.16021-.00718-.78062.02324-2.84851.0357-4.84537,2.57535-.99352,1.26358.26431,3.07066,1.79114,2.56814,2.75494-.90671,5.62392-2.55005,3.03116-5.14282"/>
            <path class="cls-13" d="m127.01546,76.27905c-.62606-2.66354-.92764-5.98995.29549-9.04835,2.38027-5.95178,5.67456-6.00678,6.73993-6.03755.05829-.00168.11521-.00014.17325.00555.5733.05615,2.57452-.01781,4.84237,1.84099,1.35923,1.11407,3.06719,2.21368,4.42771,2.35682.08504.00895.16441.0353.24952.04353,1.18827.1149,3.21703.18719,4.82321-.85264,1.82712-1.18287,5.2978.03489,5.2978.03489.91062.32245,4.19905,1.23797,4.70081,7.80667.50177,6.5687-5.13642,12.33337-5.52288,13.06507-.16465.31174-.28782,1.43557-.37496,2.62293"/>
            <path class="cls-13" d="m151.66259,95.38433c-2.53631,9.21485-7.81348,11.91082-7.81348,11.91082,0,0-.583.15993-.87639-.54579-.31366-.75449.55303-18.24765-2.88588-18.31762-3.43892-.06997-7.46061,15.13157-7.46061,15.13157,0,0-.00372.01684-.01208.04676-.30835,1.10345-1.76529,1.33617-2.42866.40202-1.39902-1.97008-4.21924-7.28478-2.79093-16.74714.00861-.05701.02052-.11286.03596-.16841.18075-.65047,1.3746-4.99384,1.23633-5.74636"/>
            <path class="cls-13" d="m152.48486,91.51831c-.218,1.40078-.49769,2.68678-.82227,3.86603"/>
          </g>
          <g>
            <path class="cls-1" d="m30.38972,7.27026s2.60327-5.33639,7.35378-5.33639,9.12023-3.31224,12.8238,3.49626c0,0,6.09008-2.64567,8.02506-1.23083s3.56742,3.07096,3.56742,3.07096c0,0,7.45205-.98527,9.91172,3.45403l.53555,1.24999s4.89636-2.2817,11.03999-.73482,7.57545,2.81758,7.57545,6.24636l.48988,1.62442,1.46964-.34051,1.66021,1.70571s6.54492-.5813,8.29854.29579,10.88509,10.12484,6.43213,16.75616c0,0,3.84746,4.25369-1.25008,8.5326,0,0,5.86443,8.11335-4.01488,11.81245l-8.39064,5.86443-1.08266,1.39844,1.84955,1.66911-.406,2.16533-1.71422,1.93977s1.86291,6.40576.75101,7.75909-4.26967,4.96221-9.50254,4.69154c0,0-2.50701-13.39796-16.07246-18.31506l-6.63007-.85711s-7.13973,4.01488-12.51854,4.01488-19.81432,2.11913-24.46075-5.16575c0,0-16.46551,2.1317-19.48794-4.33592-3.02244-6.46762-5.72909-11.11405-5.59376-13.18915s.406-9.22418.406-9.22418c0,0,.04511-10.21865,2.39088-11.16598s6.08998-5.86443,9.4733-5.86443c0,0,8.06711-11.74928,17.07063-11.98718Z"/>
            <g>
              <path class="cls-10" d="m94.30291,71.47756l-5.62952-7.10887s5.98197-.97789,6.41043-1.97803-.37503,2.63109.23115,3.17813,3.33436,1.20542-1.01206,5.90878Z"/>
              <path class="cls-10" d="m65.44782,6.43395s3.65855,9.01235,3.64768,11.87073-.93016,10.5049-1.58429,10.81851-.89437,2.45635.5733,1.39046,2.98471-3.43672,2.98471-3.43672c0,0,2.07528-5.08421,2.31897-5.00468s.36555-4.45702,1.11088-5.27663.76815-1.20871.76815-1.20871l-3.27313-2.64622-.49855-3.05882-6.04772-3.44792Z"/>
              <path class="cls-10" d="m64.31367,37.43301c.22353-.8604-.57888-1.55532-1.4407-1.33733-.1393.03523-2.37546.93635-2.49691.90703-1.44109-.34792-4.67641-.01103-5.90813.37948-1.06014.33611-5.22573-1.00407-8.59472.6011-.56618.26976-.42334,1.11096.20258,1.15051,1.29631.08192,2.99327.33056,3.5582,1.05618.73147.93953,1.45524,1.5825,1.75608,1.83361.09372.07823.20751.12307.32914.13353l7.14069.61419c.46624.0401.81989-.45324.59561-.86396-.3333-.61037-.41263-1.44712.60324-2.35262,1.47014-1.31042,2.96517-1.54529,3.67934-1.57501.26328-.01096.48369-.19299.54995-.44804l.02564-.09867Z"/>
              <path class="cls-10" d="m94.84222,20.47543s3.54441,4.13736,3.31487,5.24554l-.22954,1.10818s-.4224,1.7586.77802,1.7586,4.19004-1.23588,4.01418-2.50844,6.20577,5.5918.42102,8.64447l6.87718,3.15759s.9329-5.80563.2144-7.57722-2.8582-7.85673-5.754-8.87933-7.92926-1.98334-9.63612-.94939Z"/>
              <path class="cls-10" d="m82.20953,64.53754s-3.89163,4.21226,0,10.45167l-10.9786-9.35045s10.13263,1.14352,10.9786-1.10122Z"/>
              <path class="cls-10" d="m69.73997,60.12622s-2.20757,4.97745-6.63007,2.26444c0,0-.89926,1.74542.83887,2.14689s5.44928,0,5.44928,0l.34193-4.41132Z"/>
              <path class="cls-10" d="m106.62645,42.25145s3.48852,7.25235,3.29299,8.66314-6.77048,8.88727-7.95798,8.71014-6.30933,4.47178-6.30933,4.47178l-.5683-1.70586s3.84727-4.6475,4.09902-6.76316,2.65247-2.81783,2.79148-4.7129.10622-2.35867.10622-2.35867c0,0,2.48285-4.04167,1.87561-5.74622s1.30854-3.53343,2.67029-.55825Z"/>
              <path class="cls-10" d="m57.43117,25.06019h0c-.35188,1.11557-1.53078,1.74327-2.65322,1.41397-1.14593-.33619-2.41159-.63102-2.69638-.39485-.54603.45283-2.25693-3.67036-3.49585-2.99184s-2.36328-8.49913,2.94983-9.6909,1.82311-5.32202,5.50363-4.88869c.45257.05328,2.31983.39413,2.84192.55891,1.13678.35879.17766-1.64448,2.87883-.30253.49784.24733-.28088,1.08841-.19078,1.63498.31011,1.8812-.0421,4.27946-3.27855,5.1877s-4.13845,2.08635-3.96553,3.5233c.12123,1.00742,1.24979,3.07618,1.91365,4.22295.30322.52379.37453,1.14982.19246,1.72701Z"/>
              <path class="cls-10" d="m82.25036,18.76972s.0453,6.13847-1.38715,10.60866c-1.33507,4.16628-4.11542,6.67547-5.12048,6.93716l3.78478-.26027s7.69909-10.91514,2.72285-17.28555Z"/>
              <path class="cls-10" d="m5.70902,57.62395s4.0588,6.21877,9.38956,6.16243,11.19067-1.177,11.19067-1.177l4.50661.00076s-7.55577-.97279-4.61987-3.10558c0,0-7.4932,2.76065-10.59189.16902l-2.42261-.9724s-2.47895,1.36678-3.32405.80338-4.12842-1.8806-4.12842-1.8806Z"/>
              <path class="cls-10" d="m32.34745,62.21734s-2.3922,5.04672,5.55944,6.11857c0,0-7.07165-.85999-9.08208-2.61646s-2.53556-3.11008-2.53556-3.11008l6.0582-.39203Z"/>
              <path class="cls-10" d="m63.1099,62.39065s-10.41192,5.43266-13.44354,5.2772c0,0,4.58631.86162,6.99606.00327s6.67625-2.16239,6.44748-5.28047Z"/>
              <path class="cls-10" d="m15.09858,37.89964s1.90784,4.44626-.90362,6.32354c0,0-.78093,1.46939-1.38732,1.42414-1.25265-.09348.93069-8.92064.25002-11.16888l2.04091,3.4212Z"/>
              <path class="cls-10" d="m34.5083,41.16451s-7.05586,3.06912-7.22637,6.19508-3.26862,5.62673-1.52064,6.08141,2.39168,2.87925,4.00898,0,6.037-10.6674,6.037-10.6674l-1.29897-1.60909Z"/>
              <path class="cls-10" d="m44.95564,25.63007s-2.39751,2.56129-2.36956,3.79453-.00024,4.57511-.00024,4.57511c0,0,.91217,2.22766,1.51717-.49504s1.73569-9.68724,3.9089-9.61196c0,0-2.60237-.48558-3.05627,1.73735Z"/>
              <path class="cls-10" d="m41.61001,36.48941c-1.03646-.64319-2.43218-.52706-3.22887.39664-.05317.06164-.08954.0929-.10409.08521-.13097-.06917-2.51355,1.61569-1.73155,2.44317s1.0112,1.28134,1.0112,1.28134l6.54632-3.37029s-1.38948-.15126-2.493-.83607Z"/>
              <path class="cls-10" d="m71.90995,47.27275s-3.50646,4.14519-6.46213,4.14519-8.51154-1.02847-8.51154-1.02847c0,0,7.31535-5.31363,14.97367-3.11672Z"/>
              <path class="cls-10" d="m94.42729,37.27575c.73263-.75033,1.98079-.00484,1.67373.99789-.8812,2.87761-2.09401,6.27207-3.12631,7.12248-1.81424,1.49457-12.27542,3.03597-12.83752,2.57705-.36967-.30181-.90674-5.01093,5.01093-5.24955,3.39877-.13705,6.90774-3.01914,9.27917-5.44788Z"/>
              <path class="cls-10" d="m42.34617,16.04764s-3.15561,3.24595-1.57731,4.49668,4.22867,1.84011,4.85403.53292-3.27673-3.21307-3.27673-3.21307v-1.81654Z"/>
              <path class="cls-10" d="m102.08055,48.55592s-3.30019,2.63095-4.4128,2.35867-7.99671,10.82537-16.4238,9.51977c-8.42709-1.30561-11.50397-.30814-11.50397-.30814,0,0-.51195,5.33999,1.49095,5.51254s7.40181,5.24045,7.40181,5.24045c0,0,6.60784,7.70235,6.82476,9.67335.23608,2.14506,1.74639.74779,1.74639.74779,0,0,3.38525-14.32677,1.91733-16.02372s7.52034-1.75629,7.59583-3.89274,3.16147-6.36747,2.98343-7.87205,3.69194-.33624,2.38008-4.95592"/>
              <path class="cls-10" d="m23.32402,14.54888s-4.92859,4.69715-5.07158,10.02755.87819,10.76164.87819,10.76164c0,0,1.00353-7.32638,5.70974-12.96537,0,0,2.44703-3.88174-1.51635-7.82382Z"/>
              <path class="cls-10" d="m30.90615,9.88188s3.94587-5.17135,7.57896-5.24259,8.76747-.53118,10.53013,4.2359l-6.4294,1.40304s-4.23045,2.94306-4.84234,4.63598-2.12289,3.70541-1.08291,6.51062,1.73692,4.48741,2.89309,4.65449-.92608,5.41637-2.63577,1.85451c0,0-2.27104,2.60185-2.4096,2.64308s-3.84697,2.44297-3.88874,4.28103.07561,4.88843-1.62153,5.42912-5.20305,4.85796-5.20305,4.85796c0,0,3.0055-5.47887,2.36524-8.17498s.64201-7.04157,2.42294-8.53755,4.88445-8.69003,4.88445-8.69003c0,0-.36251-7.30848-2.56146-9.86057Z"/>
              <path class="cls-10" d="m22.88609,47.99617s-4.91025.73141-4.98103,1.44564-3.49066,3.54785,3.00712,5.59978l1.97392-7.04542Z"/>
              <path class="cls-7" d="m42.27911,2c5.56909,0,6.66101,3.00146,6.69183,3.08691.1308.54102.46948.95898.95532,1.23096.27802.15576.58209.22656.89062.22656.23065,0,.46381-.03955.69037-.11279l2.90698-.94043c.89066-.19531,1.71573-.29395,2.45383-.29395,2.71927,0,3.47284,1.32568,3.5961,1.59033.24222.85107.98087,1.33789,1.81699,1.33789.18994,0,.38495-.0249.58029-.07666.487-.12891.98175-.19434,1.47058-.19434,3.84262,0,6.76559,3.97168,6.79077,4.00635.37289.52197.97354.8335,1.61499.8374h.01239c.42459,0,.83246-.13477,1.16882-.37695.22446-.07178,1.01312-.2666,2.97079-.2666,1.73447,0,3.94199.15283,6.56107.4541,5.70068.65576,6.15891,3.13916,6.46216,4.78223.13812.74854.50504,2.73633,2.47974,2.73633.13971,0,.28067-.01221.42084-.0376.20584.11133.55765.4502.75986.73779.37949.55615,1.00342.87305,1.6525.87305.19327,0,.38885-.02783.58075-.08643,1.25049-.37939,2.43359-.57178,3.51648-.57178,5.34103.00049,7.91806,4.64307,9.73453,9.18457,1.4884,3.72119-.16989,6.31445-.22806,6.40332-.49142.70996-.47198,1.65479.04825,2.34375,2.01117,2.66357-.45529,5.12256-.96115,5.58057-.5538.48828-.79321,1.24268-.62271,1.96143l1.15732,4.87744c-.35303,3.00195-2.40549,4.22998-5.03903,5.50977-1.44373.70117-2.69321,1.30859-3.17838,2.604-.40823.67139-2.79263,2.31836-5.14215,3.54883-.63159.33057-1.03964.97266-1.07062,1.68506-.03098.71191.31931,1.38721.9198,1.77148.44241.2832.72491.57471.75568.7793.08624.57471-.89233,1.72803-1.31018,2.2207-.59662.70361-1.27283,1.50049-.97815,2.63525.10269.39502.31949.74658.61548,1.01562.01544.03027.03345.06738.05405.11084.85995,1.82617.78793,3.9043-.19751,5.70215-.99997,1.82422-2.74387,3.02051-4.78442,3.28271-.63779.08203-1.29675.12354-1.95853.12354-.11139,0-.21936-.00098-.32358-.00342-.47281-8.99268-14.90524-17.68213-16.58029-18.66113-.31195-.18213-.66049-.27295-1.00888-.27295-.3653,0-.73041.1001-1.05255.29932-.01141.00732-.28955.17285-1.15015.17285-1.5676,0-3.39154-.53564-3.40744-.54053-.18875-.05664-.38187-.08398-.57367-.08398-.48624,0-.96341.17725-1.3353.51074-3.38101,3.03174-9.45871,3.26709-11.24091,3.26709-.43311,0-.69409-.0127-.71851-.01367-.03766-.00244-.07532-.00342-.11298-.00342-.09747,0-.19485.00732-.29138.02148-2.9798.43848-5.74854.66113-8.22937.66113-11.0325,0-13.28848-4.36133-13.45816-4.729-.2395-.85596-.98706-1.354-1.84225-1.354-.1348,0-.27234.01221-.41092.0376-.034.00635-3.44821.62109-7.41537.62109-2.29224,0-4.3071-.20166-5.98846-.6001-4.55042-1.07764-4.97241-4.94287-5.00446-5.3623-.02481-.43408-.19058-.84863-.47214-1.18018C-.04422,47.3374,2.48962,37.18848,2.51477,37.09131c.07971-.30078.08798-.6167.02417-.92139-1.04385-4.9873.40268-9.09668,4.29941-12.21338,3.09732-2.47803,6.63318-3.41699,6.66425-3.4248.55621-.14209,1.02457-.51611,1.28589-1.02734,4.34247-8.49219,9.31454-9.32324,12.60471-9.87354,1.96396-.32812,4.65369-.77832,4.78088-3.70361.04245-.97656,3.86142-2.92578,8.27853-3.83008.63412-.06445,1.24814-.09717,1.82651-.09717m50.69949,17.95459h.005-.005M42.27911,0c-.65994,0-1.36801.03711-2.12927.11768,0,0-9.81036,1.96191-9.97388,5.72266s-9.81036-1.63525-17.16815,12.75342c0,0-15.36957,3.92432-12.42645,17.98584,0,0-2.94312,11.11816,4.41467,19.78418,0,0,.327,5.72266,6.54022,7.19434,2.07095.49023,4.34213.65381,6.44943.65381,4.215,0,7.7756-.65381,7.7756-.65381,0,0,1.98761,6.07812,15.3511,6.07812,2.44159,0,5.26245-.20264,8.52078-.68262,0,0,.30515.01709.83145.01709,2.28076,0,8.72345-.32373,12.57605-3.77783,0,0,2.08588.625,3.98126.625.83658,0,1.63586-.12207,2.20264-.47266,0,0,15.68887,9.1665,15.60071,17.45166.00024.7749.60114,1.41895,1.37497,1.46094.27908.01514.59375.0249.93713.0249.6496,0,1.40231-.03564,2.21326-.13965,5.58658-.71777,8.93655-6.7251,6.53656-11.8208-.19116-.40576-.35922-.67188-.48514-.71924-.70511-.26465,5.02396-4.05469.61697-6.875,0,0,5.46466-2.85742,6.08163-4.60205.61697-1.74414,7.84445-2.18457,8.37329-8.97119l-1.23395-5.20068s4.49512-3.96631,1.23395-8.28516c0,0,2.37976-3.43701.4407-8.28467-1.6445-4.11182-4.68442-10.44141-11.59137-10.44189-1.23724,0-2.59784.20312-4.0975.6582,0,0-1.11099-1.62891-2.38232-1.62939-.11563,0-.23242.01367-.35001.04297-.03607.00879-.06958.01318-.10071.01318-1.18704,0,.99179-6.38867-8.71329-7.50537-3.01093-.34619-5.20038-.46729-6.78964-.46729-3.66791,0-4.13968.64355-4.13968.64355,0,0-3.46033-4.84326-8.41803-4.84375-.63757,0-1.29947.08008-1.98245.26074,0,0-.99423-2.91748-5.48141-2.91797-.85959,0-1.84644.10693-2.98001.36182l-2.99673.96973s-1.31595-4.52881-8.6124-4.52881h0Z"/>
              <path class="cls-12" d="m50.5673,8.50787s-3.92752.36015-5.4769,3.70462c-.10587.22852-.20063.47098-.28228.7282"/>
              <path class="cls-12" d="m45.40073,16.46219s-1.4853,2.86452,0,4.61505"/>
              <path class="cls-12" d="m42.73769,15.58692s-1.40279,1.69749,1.10219,3.18279"/>
              <path class="cls-12" d="m69.79688,60.12622s-1.5198,9.04678,11.14841,4.58526c0,0,4.78419-2.16515,0-4.3303"/>
              <path class="cls-12" d="m71.18263,12.65009s4.5601,2.69997,4.5601,4.52824"/>
              <path class="cls-12" d="m74.49906,16.79563s-1.45094,1.93459-1.03639,4.62919"/>
              <path class="cls-12" d="m76.57184,19.11023s-5.4583,5.0092-5.38921,7.28925c.03455,1.14002-1.31276,2.79824-2.66869,4.17145-1.57155,1.59157-2.76958,3.51684-3.42829,5.65435-.30864,1.00155-.7041,1.85082-1.15772,1.85082-1.10548,0-3.86918,1.10548-3.86918,2.21096"/>
              <path class="cls-12" d="m62.63539,9.67271c2.69535,4.20158-6.7977,7.50561-6.7977,7.50561,0,0-1.36764,5.89188,2.75467,7.39811,0,0-4.12231,5.15288-3.64665,7.29331"/>
              <path class="cls-12" d="m57.72033,31.07699s-18.62965,5.70781-23.94108,14.98299"/>
              <path class="cls-12" d="m31.87665,49.78591s-4.12231,6.02491-1.18913,7.13476,8.08606,2.29898,8.72026,2.5368,6.34201,1.10985,9.51301-.71348,2.97311,3.64665,6.9169,3.64665,19.90503-8.87881,19.90503-8.87881c0,0,6.79071-.55493,10.19954-2.06115s7.45186,2.29898,9.19591-.6342c1.74405-2.93318,3.56738-8.00679,3.56738-8.00679"/>
              <path class="cls-12" d="m50.59137,41.41967c-2.03379-3.71225-6.48836-1.85427-6.48836-1.85427"/>
              <path class="cls-12" d="m43.09303,45.076s4.21678-4.70302,9.36815-2.93468,13.27173.79638,17.27879-2.70266,9.25563-3.11026,10.51917-3.11026"/>
              <path class="cls-12" d="m86.82741,35.33806s-9.96749,9.41714-11.0682,12.78041-8.58404,4.89202-8.58404,4.89202"/>
              <path class="cls-12" d="m80.25914,12.9407s8.91581,17.07036-2.17977,23.37484"/>
              <path class="cls-12" d="m94.84222,20.77122s4.76746,2.69006,2.98856,5.76092"/>
              <path class="cls-12" d="m101.91711,48.55592s.56528,4.75131-2.58414,4.95592c0,0,.89881,9.81438-10.65958,11.0257"/>
              <path class="cls-12" d="m89.12121,65.71946s6.09363,5.84433,6.19376,7.81117"/>
              <path class="cls-12" d="m99.33297,53.51184s-.28233-2.50506-1.66522-2.59725"/>
              <path class="cls-12" d="m33.46761,52.60018s1.04003,4.72196,8.87856,4.44809"/>
              <path class="cls-12" d="m50.59137,58.45926s6.69999,1.24467,9.46738-1.91253"/>
              <path class="cls-12" d="m72.07149,47.33144s-7.41616-2.96656-14.93129,2.90323c-3.92407,3.06495-7.96509,2.209-11.4916.71183-3.22724-1.37011-6.0236-3.27722-7.90511-3.20777"/>
              <path class="cls-12" d="m98.1063,33.05587s-8.40149,9.29272-11.07283,9.49807-7.33275-.05239-9.42953,2.59108"/>
              <path class="cls-12" d="m100.57029,36.31554s4.42544,6.03479,2.34076,7.88903"/>
              <path class="cls-12" d="m56.77963,27.12577s-3.247-3.23154-8.76772,1.6629"/>
              <path class="cls-12" d="m43.83988,27.07694s4.81986-7.60354,7.69566-.5448"/>
              <path class="cls-12" d="m65.67424,9.09726s7.2749,11.47997,1.35063,20.02593"/>
              <path class="cls-12" d="m98.70556,28.25062s3.5266-.33639,3.5266-2.17131"/>
              <path class="cls-12" d="m30.10109,56.54673s-7.83544,7.63274-17.21516,2.15445c0,0-3.90822,2.68119-7.17691-2.64207"/>
              <path class="cls-12" d="m63.71102,64.36869s-1.51335-.95298-1.14424-1.63918"/>
              <path class="cls-12" d="m25.76129,62.60808s7.81941.14022,8.01796-1.89775"/>
              <path class="cls-12" d="m45.74979,9.06678s-11.1318,2.68061-9.16668,12.01047c1.96512,9.32986,7.28559.12482,5.76306,13.15667"/>
              <path class="cls-12" d="m35.12693,41.6807s-2.10834-4.46463,1.4594-6.01072c.61766-.26767,1.16738-.67006,1.53454-1.23428l2.18563-3.35871"/>
              <path class="cls-12" d="m36.54549,27.45163s-.55163,2.81637-2.17574,3.1665-3.98002,3.1616-3.98002,5.66972"/>
              <path class="cls-12" d="m29.63396,39.82209s-6.40141,4.51413-6.40141,6.71805-4.10384,7.03038-.75997,9.51896,4.84327,0,4.84327,0"/>
              <path class="cls-12" d="m30.90615,9.88188s5.04908,6.01525,1.54608,12.64544c-3.503,6.63019-8.60842,12.99207-6.29031,14.44395"/>
              <path class="cls-12" d="m15.07717,21.49764s-6.58789,8.12528.02141,16.402"/>
              <path class="cls-12" d="m25.39735,21.65035s-9.34765,11.54157-6.09515,17.70586c3.25251,6.16429-.69328,7.71006-2.09839,7.81225-4.61703.33579-3.35743,7.4994,0,9.37827"/>
              <path class="cls-12" d="m21.60717,12.9407s3.29635,2.62224,3.4337,4.54511"/>
              <path class="cls-12" d="m9.88659,29.6448s-.03523.02959-.10003.08608c-3.97061,3.46155-4.46871,9.33123-1.41476,13.62326.39863.56023.66438,1.10151.66438,1.54894,0,1.78971.28347,6.62658,2.36224,5.71998"/>
              <path class="cls-12" d="m58.59236,24.57643s1.72304-4.18213,3.56742-4.40746"/>
              <path class="cls-12" d="m109.57289,37.88137s-3.33301-3.27454-6.43213-3.15759"/>
              <path class="cls-12" d="m89.98412,23.08747s6.04226,1.87117,5.33085,7.42619"/>
              <path d="m42.27911,2c5.56909,0,6.66101,3.00146,6.69183,3.08691.1308.54102.46948.95898.95532,1.23096.27802.15576.58209.22656.89062.22656.23065,0,.46381-.03955.69037-.11279l2.90698-.94043c.89066-.19531,1.71573-.29395,2.45383-.29395,2.71927,0,3.47284,1.32568,3.5961,1.59033.24222.85107.98087,1.33789,1.81699,1.33789.18994,0,.38495-.0249.58029-.07666.487-.12891.98175-.19434,1.47058-.19434,3.84262,0,6.76559,3.97168,6.79077,4.00635.37289.52197.97354.8335,1.61499.8374h.01239c.42459,0,.83246-.13477,1.16882-.37695.22446-.07178,1.01312-.2666,2.97079-.2666,1.73447,0,3.94199.15283,6.56107.4541,5.70068.65576,6.15891,3.13916,6.46216,4.78223.13812.74854.50504,2.73633,2.47974,2.73633.13971,0,.28067-.01221.42084-.0376.20584.11133.55765.4502.75986.73779.37949.55615,1.00342.87305,1.6525.87305.19327,0,.38885-.02783.58075-.08643,1.25049-.37939,2.43359-.57178,3.51648-.57178,5.34103.00049,7.91806,4.64307,9.73453,9.18457,1.4884,3.72119-.16989,6.31445-.22806,6.40332-.49142.70996-.47198,1.65479.04825,2.34375,2.01117,2.66357-.45529,5.12256-.96115,5.58057-.5538.48828-.79321,1.24268-.62271,1.96143l1.15732,4.87744c-.35303,3.00195-2.40549,4.22998-5.03903,5.50977-1.44373.70117-2.69321,1.30859-3.17838,2.604-.40823.67139-2.79263,2.31836-5.14215,3.54883-.63159.33057-1.03964.97266-1.07062,1.68506-.03098.71191.31931,1.38721.9198,1.77148.44241.2832.72491.57471.75568.7793.08624.57471-.89233,1.72803-1.31018,2.2207-.59662.70361-1.27283,1.50049-.97815,2.63525.10269.39502.31949.74658.61548,1.01562.01544.03027.03345.06738.05405.11084.85995,1.82617.78793,3.9043-.19751,5.70215-.99997,1.82422-2.74387,3.02051-4.78442,3.28271-.63779.08203-1.29675.12354-1.95853.12354-.11139,0-.21936-.00098-.32358-.00342-.47281-8.99268-14.90524-17.68213-16.58029-18.66113-.31195-.18213-.66049-.27295-1.00888-.27295-.3653,0-.73041.1001-1.05255.29932-.01141.00732-.28955.17285-1.15015.17285-1.5676,0-3.39154-.53564-3.40744-.54053-.18875-.05664-.38187-.08398-.57367-.08398-.48624,0-.96341.17725-1.3353.51074-3.38101,3.03174-9.45871,3.26709-11.24091,3.26709-.43311,0-.69409-.0127-.71851-.01367-.03766-.00244-.07532-.00342-.11298-.00342-.09747,0-.19485.00732-.29138.02148-2.9798.43848-5.74854.66113-8.22937.66113-11.0325,0-13.28848-4.36133-13.45816-4.729-.2395-.85596-.98706-1.354-1.84225-1.354-.1348,0-.27234.01221-.41092.0376-.034.00635-3.44821.62109-7.41537.62109-2.29224,0-4.3071-.20166-5.98846-.6001-4.55042-1.07764-4.97241-4.94287-5.00446-5.3623-.02481-.43408-.19058-.84863-.47214-1.18018C-.04422,47.3374,2.48962,37.18848,2.51477,37.09131c.07971-.30078.08798-.6167.02417-.92139-1.04385-4.9873.40268-9.09668,4.29941-12.21338,3.09732-2.47803,6.63318-3.41699,6.66425-3.4248.55621-.14209,1.02457-.51611,1.28589-1.02734,4.34247-8.49219,9.31454-9.32324,12.60471-9.87354,1.96396-.32812,4.65369-.77832,4.78088-3.70361.04245-.97656,3.86142-2.92578,8.27853-3.83008.63412-.06445,1.24814-.09717,1.82651-.09717m50.69949,17.95459h.005-.005M42.27911,0c-.65994,0-1.36801.03711-2.12927.11768,0,0-9.81036,1.96191-9.97388,5.72266s-9.81036-1.63525-17.16815,12.75342c0,0-15.36957,3.92432-12.42645,17.98584,0,0-2.94312,11.11816,4.41467,19.78418,0,0,.327,5.72266,6.54022,7.19434,2.07095.49023,4.34213.65381,6.44943.65381,4.215,0,7.7756-.65381,7.7756-.65381,0,0,1.98761,6.07812,15.3511,6.07812,2.44159,0,5.26245-.20264,8.52078-.68262,0,0,.30515.01709.83145.01709,2.28076,0,8.72345-.32373,12.57605-3.77783,0,0,2.08588.625,3.98126.625.83658,0,1.63586-.12207,2.20264-.47266,0,0,15.68887,9.1665,15.60071,17.45166.00024.7749.60114,1.41895,1.37497,1.46094.27908.01514.59375.0249.93713.0249.6496,0,1.40231-.03564,2.21326-.13965,5.58658-.71777,8.93655-6.7251,6.53656-11.8208-.19116-.40576-.35922-.67188-.48514-.71924-.70511-.26465,5.02396-4.05469.61697-6.875,0,0,5.46466-2.85742,6.08163-4.60205.61697-1.74414,7.84445-2.18457,8.37329-8.97119l-1.23395-5.20068s4.49512-3.96631,1.23395-8.28516c0,0,2.37976-3.43701.4407-8.28467-1.6445-4.11182-4.68442-10.44141-11.59137-10.44189-1.23724,0-2.59784.20312-4.0975.6582,0,0-1.11099-1.62891-2.38232-1.62939-.11563,0-.23242.01367-.35001.04297-.03607.00879-.06958.01318-.10071.01318-1.18704,0,.99179-6.38867-8.71329-7.50537-3.01093-.34619-5.20038-.46729-6.78964-.46729-3.66791,0-4.13968.64355-4.13968.64355,0,0-3.46033-4.84326-8.41803-4.84375-.63757,0-1.29947.08008-1.98245.26074,0,0-.99423-2.91748-5.48141-2.91797-.85959,0-1.84644.10693-2.98001.36182l-2.99673.96973s-1.31595-4.52881-8.6124-4.52881h0Z"/>
              <path class="cls-11" d="m89.12121,65.71946s6.09363,5.84433,6.19376,7.81117"/>
            </g>
          </g>
          <g>
            <g>
              <path class="cls-3" d="m209.54248,28.95628c0,4.01299-.85361,7.84143-2.39867,11.27798-.13851.34586-.29983.71496-.48424,1.06082-3.62109,7.2419-10.30922,12.6848-18.38136,14.57601-.36909.11529-.73818.18455-1.13008.25366-1.70666.34601-3.48258.50747-5.28158.50747-6.96515,0-13.30755-2.55999-18.17387-6.80369-2.74468-2.37544-5.00483-5.28144-6.61915-8.55653-.18469-.34586-.34601-.69187-.48424-1.03773-1.54534-3.43655-2.39867-7.26499-2.39867-11.27798,0-4.98175,1.31448-9.66352,3.62081-13.69959.29983-.53041.62275-1.06096.99184-1.56829l.02309-.02309c4.35871-6.59606,11.50855-11.20872,19.7651-12.20042h.02309c.41526-.04617.83024-.09234,1.24523-.09234h.02309c.64584-.06912,1.31476-.0922,1.98369-.0922,10.37847,0,19.4191,5.71965,24.14718,14.16088.20777.36895.41498.73804.57658,1.10699,1.82209,3.57478,2.85982,7.61085,2.92908,11.85456.02309.1844.02309.36895.02309.5535Z"/>
              <g class="cls-17">
                <path class="cls-2" d="m209.54248,28.95628c0,4.01299-.85361,7.84143-2.39867,11.27798-.13851.34586-.29983.71496-.48424,1.06082-3.62109,7.2419-10.30922,12.6848-18.38136,14.57601-.36909.11529-.73818.18455-1.13008.25366-1.70666.34601-3.48258.50747-5.28158.50747-6.96515,0-13.30755-2.55999-18.17387-6.80369,17.9661,1.40683,35.47133-7.10353,45.82672-21.42573.02309.1844.02309.36895.02309.5535Z"/>
              </g>
              <g>
                <path class="cls-6" d="m164.15383,34.09935c.09234.29983-.09206.62275-.41526.69187-1.42963.36909-2.44456,1.03788-3.04423,1.93738-.25366.41512-.36909.76113-.46115,1.17625-.09234.27675-.1844.57658-.32292.92245-.04617.11543-.11543.23072-.18469.34601-.13823.23058-.27647.43821-.46115.64584-.53041.59953-1.26859,1.08391-2.1909,1.45286-.18469-.34586-.34601-.69187-.48424-1.03773,1.01465-.39218,1.75283-.94567,2.14473-1.63754.20777-.34601.27675-.64584.3919-1.01479.11543-.41512.23086-.8995.59967-1.47608.73818-1.15316,2.00678-1.98341,3.73652-2.42162.29955-.0922.62275.0922.69173.41512Z"/>
                <path class="cls-6" d="m206.59031,16.54823c-.02309.04617-.06926.06912-.09234.11529-.34572.36909-1.03773.9917-2.0293,1.29154-.13851.02309-.30012.06926-.46143.09234-.25366.04603-.48452.06912-.69173.06912-.50761-.02309-.89978-.16146-1.24551-.27675-.34601-.13837-.66893-.23058-1.10699-.25366-.89978,0-1.86826.43821-2.85982,1.33757-.11543.11543-.25394.16146-.39218.16146-.16132,0-.32292-.06912-.43835-.20749-.20749-.23072-.1844-.59967.04617-.8073,1.22242-1.10699,2.44484-1.61432,3.66726-1.6374.62275.02309,1.06082.16146,1.45272.29983.46143.16146.80744.27675,1.36094.1844.96848-.16132,1.61432-.78407,1.86798-1.03773.11543-.13837.25366-.27675.34601-.43821.20777.36895.41498.73804.57658,1.10699Z"/>
                <path class="cls-6" d="m164.81065,42.6967c-.23424,0-.45271-.14415-.54055-.37613-.33108-.8874-.75676-1.43245-1.26578-1.61938-.30856-.10811-.60361-.07658-.97298-.03829-.47748.04955-1.06758.11712-1.76128-.16892-.59235-.2455-1.10136-.68019-1.51353-1.2928-.17793-.26352-.10811-.62163.15541-.79956.26352-.18243.62388-.10811.79956.15541.28379.42118.61938.71397.99776.86938.42343.17343.78379.13739,1.19821.09009.43469-.04505.92794-.10135,1.491.10135.84235.30856,1.49776,1.08334,1.95272,2.30182.11036.2973-.04054.63064-.34009.741-.06532.02478-.13288.03604-.20045.03604Z"/>
                <path class="cls-6" d="m201.5745,26.05915c-.23198,0-.45045-.14189-.53829-.37163-.49775-1.29956-.51577-2.40318-.05631-3.28156.33784-.64415.82884-.97073,1.26127-1.25677.36712-.2455.68469-.45496.91893-.84911.35135-.5946.38739-1.41218.10811-2.43245-.08333-.30631.09685-.62388.40541-.70721.30631-.08333.62388.0991.70721.40541.36487,1.33109.28604,2.44822-.22973,3.31985-.36712.62388-.84911.94145-1.27253,1.22298-.37838.25225-.67568.45045-.87613.83334-.29955.57208-.26352,1.35812.11036,2.33561.11487.2973-.03604.63064-.33334.74325-.06757.02703-.13739.03829-.20496.03829Z"/>
                <path class="cls-6" d="m188.27821,55.87108c-.36909.11529-.73818.18455-1.13008.25366-.04617-.36895-.13851-.7379-.30012-1.06082-.34572-.71496-.85305-.94567-1.52197-1.26845-.41526-.18455-.83053-.36909-1.22242-.71496-.29983-.20763-.5535-.50747-.78435-.8995-.0228-.04617-.06898-.09234-.09206-.16146-.66864-1.29154-.43835-2.58308-.34601-3.02128.34601-1.89121,1.66049-2.97525,2.21398-3.3442.25394-.18455.62275-.13837.80744.13837.16132.25366.11543.62275-.1616.80716-.41498.29983-1.45272,1.15316-1.72975,2.60616-.06926.34601-.25366,1.33771.23086,2.28338.36881.71496.92231.96862,1.56815,1.26845.73818.34586,1.56815.73804,2.07575,1.82195.20749.41512.32292.87642.39218,1.29154Z"/>
                <path class="cls-6" d="m207.14381,40.23426c-.13851.34586-.29983.71496-.48424,1.06082l-.02309-.02309c-.11543,0-.48424.16146-.73818.27689-.57658.29969-1.36065.71496-2.42147.76099-1.01493.06926-2.05267-.23058-3.0904-.85333-.27703-.16146-.36909-.53041-.18469-.80716.1616-.25366.50732-.34601.78435-.18455.82996.50747,1.6374.76113,2.39839.69187h.02309c.46143-.02309.85333-.11529,1.19934-.25366.27675-.11529.53041-.25366.76099-.36895.57658-.29983,1.17625-.57658,1.77592-.29983Z"/>
                <path class="cls-6" d="m203.9484,41.81155c-.05405,0-.11036-.00676-.16667-.02478-.30406-.09234-.47748-.41442-.38514-.71848.36262-1.20271.37838-2.05407.04279-2.39642-.17568-.17793-.43469-.20721-.88064-.24325-.4955-.04054-1.11262-.09009-1.68245-.52253-.82433-.62388-1.20046-1.7838-1.11488-3.44823.01802-.31757.27928-.54055.60586-.5473.31757.01802.56307.28829.5473.60586-.06532,1.25902.15541,2.09011.65992,2.47074.3018.22973.66217.25901,1.07659.2928.52703.04279,1.12614.09009,1.61263.58559.67118.68694.74775,1.84236.23649,3.53607-.07433.25-.30406.40991-.55181.40991Z"/>
                <path class="cls-6" d="m165.07642,13.61915c-.11543.27675-.46115.41512-.76127.29983-.96848-.43821-1.91387-.5535-2.76748-.36895h-.02309c-.48424.11529-.85305.29983-1.19934.50732-.29955.16146-.5535.36909-.80688.5535-.48452.34601-.94595.69201-1.45328.69201-.09234,0-.16132,0-.25366-.04617.29983-.53041.62275-1.06096.99184-1.56829l.02309-.02309c.57658-.41512,1.36065-.9917,2.49073-1.24537,1.08419-.23072,2.26016-.09234,3.45949.43821.29983.11529.43835.46115.29983.76099Z"/>
                <path class="cls-6" d="m165.97733,21.07938c-.29505,0-.54505-.22298-.57433-.52253-.13514-1.41218-.53154-2.33786-1.14641-2.6802-.37163-.20946-.77253-.17343-1.2365-.14415-.57433.0473-1.21623.09234-1.81083-.36262-.81758-.62838-1.08109-1.87614-.80406-3.8131.04279-.31532.34009-.5428.65091-.48874.31532.04505.53379.33559.48874.65091-.2027,1.42794-.07207,2.39867.36712,2.73651.23198.17568.53154.16667,1.02028.12838.5428-.04054,1.20947-.09234,1.8829.28379.97749.5428,1.56083,1.74776,1.7365,3.58111.02928.31532-.2027.59685-.52028.62838-.01802.00225-.03604.00225-.05405.00225Z"/>
                <path class="cls-6" d="m181.509,53.79815c-.54505,0-1.00451-.13739-1.3874-.40766-.64865-.45721-.80631-1.11037-.97298-1.80182-.11036-.45045-.22298-.91442-.47973-1.43019-.54505-1.09235-1.55632-1.982-3.00003-2.64192-.29054-.13288-.41892-.47523-.28604-.76352.13288-.2928.47973-.41892.76352-.28604,1.69371.77478,2.88741,1.84236,3.55409,3.17796.31532.63064.45496,1.20722.56757,1.67119.1464.60811.23649.93244.52028,1.13289.52928.37838,1.57659.20496,3.0248-.5.28379-.13964.63289-.02027.77028.26577.13964.28604.02027.63064-.26577.77028-1.11262.5428-2.04281.81307-2.80858.81307Z"/>
                <path class="cls-6" d="m181.61261,7.59967c.09234.96862-.20721,1.96032-.85305,2.92908-1.03802,1.59137-2.67542,2.0987-3.32126,2.23707-.04589.02309-.09206.02309-.13823.02309-.25394,0-.50732-.18455-.5535-.46129-.06926-.29983.11515-.62261.43807-.69187.50732-.11529,1.799-.50732,2.62925-1.75283.1844-.27675.7379-1.10699.64556-2.19104-.06898-.78407-.48424-1.24537-.94539-1.75269-.5535-.59967-1.15316-1.29154-1.22242-2.49087-.04617-.71496.11543-1.42991.29983-1.98341h.02309c.41526-.04617.83024-.09234,1.24523-.09234-.20721.53055-.46115,1.29154-.41498,2.00649.04617.8073.43807,1.22242.92259,1.77592.29983.32292.59967.66878.83024,1.13008.18469.29983.32292.66893.3919,1.13008,0,.04617.02309.11543.02309.18455Z"/>
                <path class="cls-6" d="m186.41896,15.6469c-.15541,0-.31081-.06306-.42568-.18694-1.26127-1.37163-1.95047-2.81985-2.04957-4.30409-.0473-.70271.0473-1.2883.12162-1.75903.0991-.61712.14189-.95496-.04054-1.24551-.3491-.55406-1.38064-.80631-2.98426-.70496-.30406.00225-.59235-.22523-.61037-.5428s.22523-.5901.5428-.61037c2.12164-.11712,3.42796.28604,4.02932,1.24551.42118.67343.31532,1.33785.2027,2.04056-.07433.45496-.1509.92794-.11261,1.50001.08333,1.21398.67118,2.4257,1.75227,3.60138.21397.23424.1982.5991-.03604.81532-.11036.10135-.25.1509-.38964.1509Z"/>
              </g>
              <ellipse class="cls-15" cx="181.86298" cy="8.93399" rx="14.04259" ry="3.39047"/>
              <circle class="cls-5" cx="181.86298" cy="28.96102" r="13.15938"/>
              <circle class="cls-8" cx="181.86298" cy="28.96102" r="7.02243"/>
              <circle class="cls-3" cx="177.51861" cy="24.73224" r="3.60563"/>
              <circle class="cls-3" cx="188.88541" cy="28.96102" r="2.4734"/>
            </g>
            <circle class="cls-14" cx="181.86655" cy="28.95628" r="27.67417"/>
          </g>
          <g>
            <g>
              <path class="cls-3" d="m267.83275,43.51928c1.78419,3.59454,2.72174,7.4033,2.86569,11.16845.0297.37138.0493.77371.0379,1.1655-.02372,8.09672-3.59452,15.94564-9.98411,21.22856-.27935.26737-.57916.4935-.89946.72965-1.37487,1.06872-2.89382,2.00292-4.50523,2.80277-6.23887,3.09674-13.05812,3.62355-19.30378,1.98594-3.51461-.90745-6.83112-2.50555-9.73322-4.7214-.3192-.22769-.61754-.46589-.89513-.71423-2.91211-2.39114-5.3786-5.44098-7.1628-9.03552-2.21491-4.46228-3.11903-9.2403-2.84765-13.88092.03275-.60841.08611-1.22721.19115-1.84573l.01041-.03094c.97157-7.84617,5.32507-15.15671,12.27976-19.71591l.02068-.01026c.35143-.22599.70262-.45184,1.07433-.63635l.02068-.01026c.54777-.34905,1.13668-.66714,1.73585-.96455,9.29628-4.61432,19.93719-3.51059,27.92528,1.94833.35014.2381.69985.47658,1.00863.73521,3.22146,2.39192,5.94544,5.54575,7.89425,9.31616.10267.15491.18472.32021.26677.48552Z"/>
              <g class="cls-17">
                <path class="cls-2" d="m267.83275,43.51928c1.78419,3.59454,2.72174,7.4033,2.86569,11.16845.0297.37138.0493.77371.0379,1.1655-.02372,8.09672-3.59452,15.94564-9.98411,21.22856-.27935.26737-.57916.4935-.89946.72965-1.37487,1.06872-2.89382,2.00292-4.50523,2.80277-6.23887,3.09674-13.05812,3.62355-19.30378,1.98594,16.7182-6.72769,28.61435-22.13355,31.52223-39.56639.10267.15491.18472.32021.26677.48552Z"/>
              </g>
              <g>
                <path class="cls-6" d="m229.46356,68.30608c.21602.22751.19442.59875-.06435.80435-1.11646.96623-1.72821,2.01652-1.86543,3.08884-.04265.48462.0078.84586.1099,1.25863.04033.28895.09117.59845.12088.96983.00996.12392-.00081.25798-.01159.39204-.0213.26799-.05281.51543-.12592.78353-.20855.77284-.6544,1.53491-1.3165,2.27545-.3192-.22769-.61754-.46589-.89513-.71423.73448-.8024,1.14961-1.62638,1.19303-2.42035.03227-.4023-.03925-.70154-.10015-1.08321-.08117-.42316-.19314-.90835-.11914-1.58878.14851-1.36112.91569-2.66881,2.27024-3.83038.22732-.21577.59881-.19429.80417.06429Z"/>
                <path class="cls-6" d="m259.67174,33.7176c-.00015.05162-.03131.0927-.03146.14432-.14557.48432-.48861,1.34968-1.24347,2.0591-.11381.08226-.23803.19547-.37226.28787-.20675.15401-.40327.27733-.58887.36946-.46494.20501-.87775.25542-1.23868.30587-.37145.02989-.70169.09087-1.10434.26496-.80596.40005-1.47862,1.22315-1.96693,2.46959-.05207.15471-.15568.25753-.2795.31899-.1445.07172-.31998.08166-.48489.00904-.28843-.11441-.43179-.45515-.31757-.74365.60278-1.53506,1.47218-2.53298,2.55687-3.09715.56808-.2562,1.02199-.32702,1.43454-.37732.4851-.06053.84629-.1111,1.30101-.4399.79577-.57509,1.09738-1.42005,1.21182-1.76004.04187-.17527.10417-.36067.1151-.54635.35014.2381.69985.47658,1.00863.73521Z"/>
                <path class="cls-6" d="m233.87431,75.71493c-.20981.10414-.46959.07216-.65141-.09658-.6911-.64766-1.31473-.94662-1.85378-.88775-.32445.04035-.57472.19978-.88855.3983-.40566.25667-.90419.57956-1.65273.63177-.63973.04346-1.28893-.11959-1.93049-.48508-.27654-.15693-.37321-.50874-.21628-.78528.15493-.28057.51076-.37422.78528-.21628.44145.25108.87223.36415,1.28025.33512.45638-.03292.76315-.22541,1.11332-.45203.36933-.23361.78612-.50335,1.38059-.57212.8917-.09813,1.82324.30447,2.77251,1.19362.23103.21723.24407.5829.02482.81494-.04749.05123-.10301.09136-.16353.1214Z"/>
                <path class="cls-6" d="m259.40755,44.46685c-.20779.10314-.46657.07318-.64739-.09355-1.02364-.94275-1.53045-1.92327-1.50943-2.91435.01622-.72719.31082-1.23801.57099-1.68649.21969-.38312.41102-.71194.44559-1.16913.05036-.68881-.28086-1.43716-.98465-2.22688-.21083-.23732-.19063-.60188.04871-.81372.23732-.21083.60289-.18861.81372.04871.91863,1.03007,1.3447,2.06576,1.27025,3.07582-.05146.72205-.34199,1.2208-.5961,1.66123-.22677.39418-.40495.7039-.41427,1.13598-.01397.64561.36779,1.33367,1.13728,2.043.23507.21523.24811.5809.03187.81395-.04851.05425-.10604.09538-.16656.12542Z"/>
                <path class="cls-6" d="m260.75223,77.08179c-.27935.26737-.57916.4935-.89946.72965-.20539-.30995-.45215-.59937-.74047-.81677-.62755-.48669-1.18455-.4678-1.92723-.45951-.45401.01933-.90802.03865-1.41283-.09691-.36088-.05267-.7214-.20846-1.10249-.45698-.04095-.03122-.10284-.05205-.15425-.10369-1.17315-.85958-1.54109-2.11884-1.6532-2.55241-.53091-1.84784.16453-3.40327.49628-3.97984.14541-.27821.4963-.40082.78477-.23505.25728.15549.38027.5065.21412.79484-.2384.45307-.78853,1.6788-.39067,3.10346.0918.34072.36754,1.311,1.22199,1.94265.64823.47643,1.25679.45756,1.96859.43898.81498-.0184,1.73277-.03612,2.66935.70908.37042.27958.67891.64146.92551.9825Z"/>
                <path class="cls-6" d="m270.69844,54.68773c.0297.37138.0493.77371.0379,1.1655l-.03094-.01041c-.10339.05132-.36196.35992-.5381.57622-.38321.52479-.9009,1.24536-1.83064,1.75824-.87831.51328-1.94114.70609-3.14755.60966-.31993-.02146-.56643-.311-.5243-.64088.03197-.29906.30059-.53549.62052-.51403.96904.08554,1.80507-.04624,2.45591-.44661l.02068-.01026c.40306-.22583.71309-.48266.9615-.76044.19663-.22631.36232-.46304.5176-.66882.38315-.52492.79725-1.03943,1.45743-1.05815Z"/>
                <path class="cls-6" d="m268.5375,57.52125c-.04842.02403-.10186.04301-.1603.05191-.31341.05247-.61195-.15891-.66442-.47232-.20993-1.23852-.57432-2.00812-1.02713-2.16556-.23647-.08127-.48149.00766-.89696.17365-.46186.18399-1.03666.41398-1.73933.27998-1.01576-.19232-1.86837-1.06407-2.53172-2.59299-.12505-.29247.00983-.60835.29935-.7596.29247-.12505.63253.00789.7596.29935.50126,1.15678,1.06848,1.80307,1.68961,1.91971.37247.07159.70828-.0624,1.09451-.21639.4911-.19599,1.04877-.41999,1.70483-.19245.90661.3169,1.48891,1.3178,1.78398,3.06221.04458.25698-.0901.50236-.31202.61251Z"/>
                <path class="cls-6" d="m221.18435,49.55123c.01965.29921-.2285.57687-.54858.60703-1.06232.03808-1.96039.35513-2.64294.89996l-.02068.01026c-.38249.31856-.63079.64784-.84872.98765-.19653.27781-.33168.57669-.47665.85452-.28016.52535-.53965,1.04043-.99407,1.26599-.08271.04106-.1445.07172-.24774.07142.03275-.60841.08611-1.22721.19115-1.84573l.01041-.03094c.33189-.62819.77786-1.49325,1.67732-2.2229.86856-.68869,1.98343-1.08759,3.29359-1.14559.31983-.03004.59767.21818.60691.54833Z"/>
                <path class="cls-6" d="m225.30817,55.83301c-.26428.13118-.58735.04261-.74676-.21269-.74891-1.20484-1.51554-1.85776-2.2185-1.89103-.426-.02239-.76908.18813-1.17165.42064-.49341.29772-1.04835.62346-1.78323.4803-1.01171-.19936-1.8025-1.19985-2.41554-3.058-.10186-.30147.0633-.63741.36574-.72718.30247-.09984.62733.06327.72718.36574.4533,1.36917,1.0019,2.1806,1.54551,2.28794.2859.05422.55021-.08703.97097-.33863.46817-.27764,1.0423-.62045,1.81274-.58295,1.11689.0516,2.17514.87157,3.14761,2.43564.16642.26942.0838.62474-.18664.79418-.01514.01003-.03128.01804-.04742.02605Z"/>
                <path class="cls-6" d="m253.76723,78.23463c-.48822.24233-.96085.32355-1.42398.25169-.7843-.12114-1.21591-.6361-1.67262-1.18134-.29913-.35442-.60628-.71994-1.06558-1.06777-.97388-.73612-2.27525-1.08338-3.86181-1.03261-.31933.01015-.58653-.23942-.59568-.55673-.01115-.32135.24346-.58853.55673-.59568,1.86157-.05904,3.40546.36649,4.59643,1.26642.56282.42469.94425.87906,1.25141,1.24458.4015.47961.6264.73007.96971.78345.64232.1036,1.50332-.51737,2.48709-1.79271.19211-.25125.55788-.29954.80812-.10441.25225.19413.29854.55587.10441.80812-.75528.98088-1.46831,1.63653-2.15423,1.977Z"/>
                <path class="cls-6" d="m233.31996,36.80735c.51337.82656.68597,1.84804.53819,3.00293-.22225,1.88694-1.46335,3.06936-1.98033,3.48045-.03084.04108-.0722.06161-.11356.08214-.22746.1129-.53647.06026-.70087-.16711-.19534-.23778-.17368-.60889.08478-.81449.40317-.32883,1.38586-1.25427,1.57577-2.73903.04213-.32988.16878-1.31964-.3959-2.24959-.41039-.67165-.98744-.90021-1.62607-1.14961-.7624-.29105-1.60714-.64416-2.20241-1.68765-.35923-.61988-.53235-1.33213-.61326-1.9099l.02068-.01026c.35143-.22599.70262-.45184,1.07433-.63635.05028.56735.16116,1.3619.52039,1.98177.40029.70259.93588.90019,1.61597,1.18055.41214.15594.83448.33243,1.24611.64311.29874.18646.58666.4556.85347.838.02053.04136.072.09313.10273.15504Z"/>
                <path class="cls-6" d="m241.20298,41.87854c-.1392.06909-.30644.0817-.46441.02181-1.73959-.66784-3.0008-1.65862-3.74947-2.94404-.35479-.60841-.53042-1.17499-.67313-1.62968-.18561-.59683-.29748-.91847-.59007-1.09761-.55904-.34107-1.59517-.1084-2.98651.69536-.27135.1372-.63072.06162-.78805-.21483s-.06062-.6287.21483-.78805c1.84834-1.0482,3.19769-1.26788,4.16293-.67582.67667.41595.87725,1.05816,1.08881,1.73766.1357.44056.2774.89827.56604,1.39367.61438,1.05034,1.67967,1.87435,3.17075,2.44679.2958.11468.4439.44851.33022.74633-.05379.13985-.15684.24632-.28192.3084Z"/>
              </g>
              <ellipse class="cls-15" cx="234.13747" cy="37.89122" rx="14.04259" ry="3.39047" transform="translate(7.56765 108.04972) rotate(-26.39807)"/>
              <circle class="cls-5" cx="243.04159" cy="55.82997" r="13.15938"/>
              <circle class="cls-8" cx="243.04159" cy="55.82997" r="7.02243"/>
              <circle class="cls-3" cx="237.27009" cy="53.97367" r="3.60563"/>
              <circle class="cls-3" cx="249.33177" cy="52.70776" r="2.4734"/>
            </g>
            <circle class="cls-14" cx="243.04268" cy="55.82414" r="27.67417"/>
          </g>
        </g>
      </g>
    </g>
  </g>
</svg>