<?xml version="1.0" encoding="UTF-8"?>
<svg id="Layer_2" data-name="Layer 2" xmlns="http://www.w3.org/2000/svg" viewBox="0 0 353.66128 186.97726">
  <defs>
    <style>
      .cls-1, .cls-2, .cls-3, .cls-4 {
        stroke-linecap: round;
      }

      .cls-1, .cls-2, .cls-3, .cls-4, .cls-5 {
        fill: none;
      }

      .cls-1, .cls-2, .cls-3, .cls-5 {
        stroke: #000;
      }

      .cls-1, .cls-4 {
        stroke-linejoin: round;
      }

      .cls-6 {
        fill: #f4d6e4;
      }

      .cls-7 {
        fill: #f8d860;
      }

      .cls-8 {
        fill: #fff;
      }

      .cls-9 {
        fill: #fd86bf;
      }

      .cls-10 {
        fill: #8e5a42;
      }

      .cls-11 {
        fill: #d62253;
      }

      .cls-12 {
        fill: #5d3e1f;
      }

      .cls-13 {
        fill: #4c2e18;
      }

      .cls-2 {
        stroke-width: .80377px;
      }

      .cls-2, .cls-3, .cls-5 {
        stroke-miterlimit: 10;
      }

      .cls-4 {
        stroke: #fff;
        stroke-width: 1.60754px;
      }

      .cls-5 {
        stroke-width: 2px;
      }
    </style>
  </defs>
  <g id="Layer_1-2" data-name="Layer 1">
    <g>
      <path class="cls-6" d="m352.54244,150.93644l-5.70487-58.24883c-.81692-8.35155-5.70565-15.33404-12.59557-19.08139.72444-3.50525.34213-7.1925-1.18936-10.56069l-2.27159-4.99843,2.90031-4.88069c3.15777-5.31162,3.23077-11.93093.18995-17.2763-3.02747-5.32182-8.70251-8.62794-14.81005-8.62794-.74882,0-1.50706.04945-2.25353.14757l-5.37049.70251-3.49451-3.98587c-3.2394-3.69388-7.90895-5.81319-12.81083-5.81319-8.1617,0-15.27394,5.80769-16.91052,13.80769l-1.14757,5.60518-1.60729.71178c-1.47267-4.22969-4.02713-8.0028-7.60621-11.14899-5.46625-4.80298-12.56672-7.34145-20.53297-7.34145-1.354,0-2.68603.07457-3.99294.22449v-3.26374c0-5.74097-2.43642-9.38305-4.47331-11.41994-2.04474-2.0471-5.72057-4.48823-11.62402-4.48823h-24.66013c-7.85243,0-14.00314,6.0675-14.00314,13.8124v1.14286c0,1.8905.3697,3.73415,1.07261,5.43196-3.61357-.95565-7.51079-1.43981-11.63305-1.43981-7.66484,0-14.66013,1.63422-20.79357,4.8595-3.91268,2.05789-7.30387,4.61877-10.15463,7.64144-.91724-1.13673-1.9116-2.21703-2.99725-3.22935-6.6617-6.20879-15.84262-9.35714-27.28768-9.35714-6.25643,0-11.86254.90527-16.75417,2.69378-.19388-5.24348-2.34012-8.63741-4.18343-10.61136-2.06436-2.19702-5.78689-4.81554-11.80063-4.81554h-20.18525c-1.86342,0-3.50706.25118-4.94977.66484-1.44309-.41287-3.08752-.66484-4.95212-.66484h-27.61146c-7.85204,0-14.00275,6.0675-14.00275,13.8124v1.14286c0,4.39874,2.00903,8.4168,5.44388,11.02276l.37333,48.87236C7.80946,89.03426,1,100.91333,1,114.3548c0,21.59262,17.56711,39.16013,39.16013,39.16013,13.86014,0,26.05245-7.24446,33.01413-18.13898,2.73008,1.1877,6.107,1.99691,10.26335,1.99691h.16876v13.95762c0,5.69623,2.27865,9.32339,4.18721,11.3595,2.06358,2.2033,5.78807,4.82967,11.81123,4.82967h86.76964c2.06829,0,4.01648-.4325,5.76138-1.21429,2.70958.81397,5.75196,1.21429,9.18681,1.21429h19.10803c2.67298,10.74019,12.28601,18.45762,23.6722,18.45762.79435,0,1.5989-.03925,2.39325-.11695l84.12168-8.23862c6.49215-.63579,12.34851-3.76217,16.48901-8.8022,4.14129-5.04003,6.07143-11.39168,5.43564-17.88305Z"/>
      <g>
        <circle class="cls-8" cx="40.23211" cy="114.29129" r="26.05656"/>
        <path class="cls-11" d="m35.20789,88.7208c8.27745,13.8647,5.02422,25.57049,5.02422,25.57049,0,0,12.67606-7.35221,14.94829-21.3734,0,0-4.16187-2.79203-8.89337-4.28905-4.7315-1.49703-11.07914.09196-11.07914.09196Z"/>
        <path class="cls-11" d="m14.57063,118.50075c12.27929-10.48641,25.68716-4.37195,25.68716-4.37195,0,0-6.34429-16.13441-20.54795-16.02185,0,0-3.56625,3.46334-4.90649,8.24162-1.59822,5.69801-.23272,12.15218-.23272,12.15218Z"/>
        <path class="cls-11" d="m44.55166,139.99042c-7.00055-9.69749-4.31955-25.69912-4.31955-25.69912,0,0-20.17105,6.91921-16.42843,20.62138,0,0,1.58723,2.51294,8.51307,4.47588,8.17545,2.31711,12.23491.60187,12.23491.60187Z"/>
        <path class="cls-11" d="m64.62235,105.10449c-9.02189,13.39222-24.39024,9.1868-24.39024,9.1868,0,0,7.22086,19.5091,20.87539,15.59627,0,0,4.65545-5.48674,5.18116-13.40045.47751-7.18813-1.66631-11.38262-1.66631-11.38262Z"/>
        <circle class="cls-11" cx="40.3552" cy="114.29129" r="1.90142"/>
        <path class="cls-2" d="m54.82625,92.68481c6.93109,4.68255,11.4881,12.61236,11.4881,21.60651,0,5.34979-1.61225,10.32302-4.37737,14.46031"/>
        <path class="cls-2" d="m16.75747,125.56043c-1.63838-3.41045-2.55624-7.23259-2.55624-11.26911,0-14.39064,11.66592-26.05656,26.05656-26.05656"/>
        <path class="cls-2" d="m55.05553,135.74114c-4.20309,2.90512-9.3017,4.60673-14.79775,4.60673-8.71423,0-16.42934-4.27777-21.15995-10.84793"/>
        <path class="cls-4" d="m17.8305,109.65165s.73429-5.21173,2.26795-7.29106"/>
        <circle class="cls-8" cx="17.14476" cy="112.91395" r="1.37718"/>
      </g>
      <path class="cls-7" d="m316.48925,74.37687l-9.73764-2.09121c-1.37664-.29564-2.82303.11082-3.86781,1.08691l-7.39029,6.90439c-2.63103,2.45805-6.86932.87306-7.17204-2.68212l-.85031-9.98612c-.12021-1.41176-.92576-2.66038-2.15414-3.33893l-8.6889-4.79973c-3.09335-1.70876-2.82426-6.27605.45537-7.72877l9.21212-4.08055c1.30234-.57688,2.25087-1.75502,2.53648-3.15048l2.02025-9.87079c.71923-3.51412,5.12383-4.75187,7.45347-2.09453l6.54371,7.4642c.9251,1.05523,2.31688,1.57572,3.72177,1.39182l9.93749-1.30075c3.53787-.46308,5.99096,3.33923,4.15113,6.43428l-5.16788,8.69368c-.7306,1.22905-.81896,2.72886-.2363,4.01067l4.12145,9.06688c1.46729,3.22792-1.42122,6.81563-4.88793,6.07113Z"/>
      <path class="cls-4" d="m291.8013,45.78909s.07256-4.19893.87914-6.05216"/>
      <circle class="cls-8" cx="293.31818" cy="36.12279" r="1.07731"/>
      <path class="cls-3" d="m321.37718,68.30574c1.46729,3.22792-1.42122,6.81563-4.88793,6.07113l-9.73764-2.09121"/>
      <path class="cls-3" d="m312.27023,40.9168l6.23855-.81659c3.53787-.46308,5.99096,3.33923,4.15113,6.43428l-5.16788,8.69368c-.7306,1.22905-.81896,2.72886-.2363,4.01067l2.15164,4.73344"/>
      <path class="cls-3" d="m288.83208,44.51026l2.02025-9.87079c.71923-3.51412,5.12383-4.75187,7.45347-2.09453l6.54371,7.4642c.9251,1.05523,2.31688,1.57572,3.72177,1.39182"/>
      <path class="cls-3" d="m302.8838,73.37257l-7.39029,6.90439c-2.63103,2.45805-6.86932.87306-7.17204-2.68212l-.85031-9.98612c-.12021-1.41176-.92576-2.66038-2.15414-3.33893l-8.6889-4.79973c-3.09335-1.70876-2.82426-6.27605.45537-7.72877l1.66066-.73559"/>
      <circle class="cls-8" cx="45.32958" cy="68.99287" r=".96407"/>
      <path class="cls-9" d="m133.38061,83.31555c-6.41257,0-10.98289-2.63275-13.71095-7.90274-1.46102,2.7303-3.25394,4.72954-5.37988,5.99882-2.12706,1.26928-4.74523,1.90392-7.85453,1.90392-4.3797,0-7.90274-1.07979-10.56914-3.23712s-3.99847-5.01322-3.99847-8.56878c0-3.10929,1.09436-5.57049,3.28421-7.37911,2.18985-1.80974,5.57049-3.03081,10.14081-3.66545,11.67808-1.52381,17.5188-5.93491,17.5188-13.23553,0-2.91868-1.01587-5.44155-3.0465-7.5686-2.03287-2.12594-4.44361-3.19003-7.23671-3.19003-1.3332,0-1.99923.44515-1.99923,1.3332,0,.31844.09531.63464.28593.95196,2.66527,0,4.85512.79386,6.56955,2.38047,1.71331,1.58773,2.57108,3.61835,2.57108,6.09301,0,2.92092-1.22331,5.33278-3.66657,7.23671-2.44438,1.90392-5.56937,2.85589-9.37834,2.85589-3.87176,0-6.95078-.96654-9.23594-2.9041-2.28404-1.93532-3.42662-4.48958-3.42662-7.66391,0-4.25187,2.0609-7.66503,6.18832-10.23612,4.12517-2.56996,9.58354-3.85606,16.37622-3.85606,8.12476,0,14.29737,1.96896,18.51897,5.90351,4.2216,3.9368,6.33184,9.71136,6.33184,17.3293v11.90121c0,1.07979.09531,1.80862.28593,2.18985s.50682.57185.95196.57185c.57185,0,.98336-.25341,1.23789-.76247.25341-.50682.47654-1.49017.66604-2.9512.1267-1.07867.25341-1.72901.38123-1.95214.1267-.22201.38123-.33302.76135-.33302h1.61912c.38123,0,.65034.22313.80956.66604.15698.44515.23771,1.17622.23771,2.18985,0,5.07937-1.3175,8.99823-3.95137,11.75881-2.635,2.7617-6.39575,4.14199-11.28227,4.14199Zm-15.33007-20.5653c-.38011-.50794-.88917-.76247-1.52269-.76247-1.08091,0-1.61912.63576-1.61912,1.90505v6.09301c0,1.2704.53821,1.90392,1.61912,1.90392.63352,0,1.14258-.25229,1.52269-.76135v-8.37817Z"/>
      <path class="cls-9" d="m170.4276,47.41004c0,2.66639.63464,5.11077,1.90505,7.33202,1.26816,2.22237,3.06108,4.01529,5.37876,5.37876,2.31655,1.36571,4.93473,2.04745,7.85565,2.04745,2.60136,0,4.90333-.42833,6.90257-1.28498s3.98277-2.29973,5.95061-4.33261c.38123-.38123.65034-.61894.80956-.71425.1581-.09531.39581-.1424.71425-.1424h1.23789c.69743,0,1.04727.63464,1.04727,1.90392,0,4.76093-1.09436,9.09354-3.28534,12.9967-2.18985,3.90428-5.28345,7.0147-9.28303,9.33125-3.99847,2.31767-8.56878,3.47483-13.71095,3.47483-4.88764,0-9.29873-1.03269-13.23441-3.09472-3.93567-2.0609-7.04497-4.99864-9.33013-8.80649-2.28516-3.80897-3.42774-8.22007-3.42774-13.23441,0-4.82372,1.14258-9.15633,3.42774-12.9967,2.28516-3.84037,5.56937-6.88687,9.85376-9.14063,4.28439-2.25264,9.21912-3.38064,14.80643-3.38064,3.99847,0,7.5686.58755,10.71154,1.76152,3.14181,1.1751,5.63216,2.85701,7.4733,5.04686s2.7617,4.71272,2.7617,7.56973c0,3.49165-1.22331,6.39463-3.66545,8.71118-2.44438,2.31767-5.57049,3.47595-9.37834,3.47595-3.55556,0-6.55497-1.15828-8.99823-3.47595-2.44438-2.31655-3.66545-5.15562-3.66545-8.52169,0-2.47465.85665-4.50528,2.57108-6.09301,1.71331-1.5866,3.90316-2.38047,6.56955-2.38047.19062-.31732.2848-.63352.2848-.95196,0-.88805-.66604-1.3332-1.99923-1.3332-2.7931,0-5.20496,1.06409-7.23559,3.19003-2.03287,2.12706-3.04762,4.68132-3.04762,7.66391Z"/>
      <path class="cls-9" d="m206.89369,25.51155c0-2.22125-.31844-3.91886-.95196-5.09395-.63576-1.17397-1.80862-2.26946-3.52305-3.28534-.4429-.25229-.71425-.45972-.80956-.61894-.09531-.15698-.1424-.36441-.1424-.61894v-1.14258c0-.63352.38123-.95196,1.14258-.95196h24.6602c1.20537,0,2.04745.23883,2.52287.71425.47654.47654.71425,1.25471.71425,2.33337v25.70747c1.6494-3.10929,3.95137-5.52228,6.90257-7.23671,2.95232-1.71331,6.26793-2.57108,9.95019-2.57108,4.88764,0,8.90292,1.38141,12.04473,4.14199,3.14181,2.7617,4.71272,6.23653,4.71272,10.42561,0,3.55556-1.20649,6.44397-3.61835,8.66521-2.41298,2.22237-5.52228,3.33243-9.33013,3.33243-5.20608,0-8.88835-2.03063-11.04456-6.09413-1.08091,0-1.61912.57185-1.61912,1.71443s.53821,2.25376,1.61912,3.33243c1.07755,1.07979,2.56996,1.99923,4.47501,2.76058,1.90392.76135,3.90316,1.14258,5.9977,1.14258,5.45837,0,9.93337-1.87141,13.42502-5.61759.38123-.38123.65034-.61894.80956-.71425.1581-.09531.39581-.1424.71425-.1424h1.14258c.4429,0,.74565.15922.90487.47542.15698.31844.23771.9856.23771,2.00035,0,7.87135-1.52381,14.04397-4.57032,18.51897s-7.23671,6.71195-12.56837,6.71195c-5.45949,0-9.71136-2.04633-12.75899-6.14122-3.0465-4.09377-4.56919-9.78985-4.56919-17.09047,0-6.41033,1.26816-11.56819,3.80785-15.47247,2.53857-3.90316,5.93491-5.8553,10.1879-5.8553.25341-.31732.38123-.69743.38123-1.14258,0-.4429-.17604-.77704-.52364-1.00018-.34984-.22089-.77816-.33302-1.2861-.33302-2.98371,0-5.61759,1.01587-7.90274,3.0465-2.28516,2.03287-4.11059,4.96837-5.47406,8.80761-1.36571,3.84149-2.04745,7.98348-2.04745,12.42597v18.56607c0,1.07979-.25453,1.85683-.76135,2.33225-.50906.47654-1.3332.71425-2.47577.71425h-17.13869c-2.15845,0-3.23712-1.01475-3.23712-3.0465V25.51155Z"/>
      <line class="cls-4" x1="210.69368" y1="30.5468" x2="210.69368" y2="41.34891"/>
      <circle class="cls-8" cx="210.69368" cy="26.36285" r="1.37718"/>
      <path class="cls-4" d="m96.43293,48.04474s.65827,4.98257,5.26617,5.47628"/>
      <circle class="cls-8" cx="96.43293" cy="44.37349" r="1.37718"/>
      <path class="cls-4" d="m157.40879,44.7768s-4.09041,5.48138-3.76787,8.23618"/>
      <circle class="cls-8" cx="159.3716" cy="41.75631" r="1.37718"/>
      <path class="cls-9" d="m86.50299,19.88615c-.47654-.50682-1.2861-.76135-2.42868-.76135h-20.18519c-1.14258,0-1.95102.25453-2.42756.76135-.47654.50906-.71425,1.36571-.71425,2.57108v25.04031h-3.61835v-25.04031c0-1.20537-.23771-2.06202-.71313-2.57108-.47654-.50682-1.2861-.76135-2.42868-.76135h-27.61139c-.76247,0-1.14258.31844-1.14258.95196v1.14258c0,.38067.15698.6666.47542.85721,1.52381,1.01587,2.60248,1.82544,3.23824,2.42756.63352.60437,1.07755,1.2704,1.33207,1.99979.25341.73051.38123,1.88935.38123,3.47483l.28353,37.10569c2.36673-.23231,3.33218-.43636,5.59331,1.34874,2.41387,1.90569,2.12401,4.67786,1.71502,5.67286-.16312.39684.08292.83499.50917.88397,4.56565.52461,4.11327,4.7836,4.11327,7.45095h11.1127c1.14258,0,1.95214-.25229,2.42868-.76135.47542-.50794.71313-1.36459.71313-2.57108v-26.94535h3.61835v26.94535c0,1.20649.23771,2.06315.71425,2.57108.47654.50906,1.28498.76135,2.42756.76135h20.18519c1.14258,0,1.95214-.25229,2.42868-.76135.47542-.50794.71425-1.36459.71425-2.57108V22.45724c0-1.20537-.23883-2.06202-.71425-2.57108Z"/>
      <path class="cls-3" d="m57.12895,47.49755v-25.04031c0-1.20537-.23771-2.06202-.71313-2.57108-.47654-.50682-1.2861-.76135-2.42868-.76135h-27.61139c-.76247,0-1.14258.31844-1.14258.95196v1.14258c0,.38067.15698.6666.47542.85721,1.52381,1.01587,2.60248,1.82544,3.23824,2.42756.63352.60437,1.07755,1.2704,1.33207,1.99979.25341.73051.38123,1.88935.38123,3.47483l.23863,31.22955"/>
      <line class="cls-3" x1="60.74731" y1="47.49755" x2="57.12895" y2="47.49755"/>
      <path class="cls-3" d="m84.07431,19.12481h-20.18519c-1.14258,0-1.95102.25453-2.42756.76135-.47654.50906-.71425,1.36571-.71425,2.57108v23.35659"/>
      <path class="cls-3" d="m60.74731,64.93085v14.17767c0,1.20649.23771,2.06315.71425,2.57108.47654.50906,1.28498.76135,2.42756.76135h20.18519c1.14258,0,1.95214-.25229,2.42868-.76135.47542-.50794.71425-1.36459.71425-2.57108V26.01996"/>
      <path class="cls-1" d="m50.97194,82.44095h3.0152c1.14258,0,1.95214-.25229,2.42868-.76135.47542-.50794.71313-1.36459.71313-2.57108v-26.94535h3.61835v10.98205"/>
      <path class="cls-3" d="m146.1602,64.64404h1.16801c.38011,0,.64922.22313.80844.66604.1581.44515.23883,1.17622.23883,2.18985,0,5.07937-1.31862,8.99823-3.95137,11.75881-2.635,2.7617-6.39575,4.14199-11.28339,4.14199-6.41145,0-10.98177-2.63275-13.71095-7.90274-1.46102,2.7303-3.25282,4.72954-5.37876,5.99882-2.12818,1.26928-4.74636,1.90392-7.85565,1.90392-4.3797,0-7.90274-1.07979-10.56801-3.23712-2.66639-2.15733-3.99959-5.01322-3.99959-8.56878,0-3.10929,1.09549-5.57049,3.28534-7.37911,2.18985-1.80974,5.56937-3.03081,10.13969-3.66545,11.6792-1.52381,17.51992-5.93491,17.51992-13.23553m-12.28244-9.42544c0,.31844.09419.63464.2848.95196,2.66639,0,4.85624.79386,6.56955,2.38047,1.71443,1.58773,2.57108,3.61835,2.57108,6.09301,0,2.92092-1.22331,5.33278-3.66545,7.23671-2.44438,1.90392-5.57049,2.85589-9.37834,2.85589-3.87288,0-6.95078-.96654-9.23594-2.9041-2.28516-1.93532-3.42774-4.48958-3.42774-7.66391,0-4.25187,2.06202-7.66503,6.18944-10.23612,4.12517-2.56996,9.58354-3.85606,16.37622-3.85606,8.12476,0,14.29625,1.96896,18.51897,5.90351,4.22048,3.9368,6.33184,9.71136,6.33184,17.3293v11.90121c0,1.07979.09531,1.80862.28593,2.18985.1895.38123.50682.57185.95196.57185.57073,0,.98336-.25341,1.23789-.76247.25229-.50682.47542-1.49017.66604-2.9512m-31.74948-30.36021c-.17431-.00859-.35016-.01288-.52754-.01288-1.3332,0-1.99923.44515-1.99923,1.3332m12.28244,9.42544c0-2.91868-1.017-5.44155-3.04762-7.5686-.38192-.39963-.77727-.76173-1.18606-1.0863m-.52725,30.01297v-5.83737c-.38123-.50794-.89029-.76247-1.52381-.76247-1.07979,0-1.618.63576-1.618,1.90505v6.09301c0,1.2704.53821,1.90392,1.618,1.90392.45639,0,.84818-.13093,1.17413-.39447"/>
      <path class="cls-3" d="m202.45643,60.95688c-.40001,3.46006-1.43199,6.67281-3.09546,9.63776-2.18985,3.90428-5.28457,7.0147-9.28303,9.33125-3.99959,2.31767-8.5699,3.47483-13.71095,3.47483-4.88876,0-9.29985-1.03269-13.23441-3.09472-3.9368-2.0609-7.04609-4.99864-9.33125-8.80649-2.28516-3.80897-3.42774-8.22007-3.42774-13.23441,0-4.82372,1.14258-9.15633,3.42774-12.9967,2.28516-3.84037,5.57049-6.88687,9.85488-9.14063,4.28439-2.25264,9.21912-3.38064,14.80531-3.38064,3.99959,0,7.56973.58755,10.71154,1.76152,3.14181,1.1751,5.63216,2.85701,7.47442,5.04686,1.84001,2.18985,2.76058,4.71272,2.76058,7.56973,0,3.49165-1.22219,6.39463-3.66545,8.71118-2.44438,2.31767-5.56937,3.47595-9.37834,3.47595-2.12088,0-4.04388-.41212-5.76875-1.23661m-4.54656-3.68973c-1.56558-2.0211-2.34837-4.37743-2.34837-7.0713,0-2.47465.85778-4.50528,2.57108-6.09301,1.71443-1.5866,3.90428-2.38047,6.56955-2.38047.19062-.31732.28593-.63352.28593-.95196,0-.88805-.66604-1.3332-1.99923-1.3332-2.79422,0-5.20608,1.06409-7.23671,3.19003-2.03175,2.12706-3.0465,4.68132-3.0465,7.66391,0,2.66639.63352,5.11077,1.90392,7.33202,1.26928,2.22237,3.0622,4.01529,5.37988,5.37876,2.31655,1.36571,4.93473,2.04745,7.85453,2.04745,2.60248,0,4.90446-.42833,6.90369-1.28498s3.98277-2.29973,5.95061-4.33261c.38123-.38123.65034-.61894.80956-.71425.15698-.09531.39581-.1424.71425-.1424h1.23789"/>
      <path class="cls-3" d="m207.31081,72.62215V25.51155c0-2.22125-.31844-3.91886-.95308-5.09395-.63464-1.17397-1.80862-2.26946-3.52192-3.28534-.44402-.25229-.71425-.45972-.80956-.61894-.09531-.15698-.14352-.36441-.14352-.61894v-1.14258c0-.63352.38123-.95196,1.14258-.95196h24.6602m40.42022,48.35809c-.4408,5.99797-1.91689,10.84138-4.42955,14.53085-3.0465,4.47501-7.23559,6.71195-12.56725,6.71195-5.46061,0-9.71248-2.04633-12.75899-6.14122-3.0465-4.09377-4.57032-9.78985-4.57032-17.09047,0-6.41033,1.26928-11.56819,3.80897-15.47247,2.53744-3.90316,5.93379-5.8553,10.1879-5.8553.25229-.31732.38011-.69743.38011-1.14258,0-.4429-.17492-.77704-.52364-1.00018-.34984-.22089-.77816-.33302-1.28498-.33302-2.98483,0-5.61759,1.01587-7.90274,3.0465-2.28516,2.03287-4.11059,4.96837-5.47518,8.80761-1.36571,3.84149-2.04633,7.98348-2.04633,12.42597v18.56607c0,1.07979-.25453,1.85683-.76247,2.33225-.50906.47654-1.3332.71425-2.47577.71425h-17.13756c-2.15845,0-3.23712-1.01475-3.23712-3.0465m52.5093-42.32252c3.14293,2.7617,4.71384,6.23653,4.71384,10.42561,0,3.55556-1.20649,6.44397-3.61835,8.66521-2.41298,2.22237-5.52228,3.33243-9.33125,3.33243-5.20496,0-8.88722-2.03063-11.04456-6.09413-1.07979,0-1.61912.57185-1.61912,1.71443s.53933,2.25376,1.61912,3.33243c1.07867,1.07979,2.57108,1.99923,4.47501,2.76058s3.90428,1.14258,5.99882,1.14258c5.45837,0,9.93337-1.87141,13.42502-5.61759.38011-.38123.65034-.61894.80844-.71425s.39581-.1424.71425-.1424h.72659m-35.76419-37.26335v24.12425c1.6494-3.10929,3.95137-5.52228,6.90257-7.23671,2.9512-1.71331,6.26793-2.57108,9.95019-2.57108,4.88652,0,8.9018,1.38141,12.04361,4.14199"/>
      <path class="cls-9" d="m96.49884,96.68212c-.3803-.50628-.91994-.7606-1.61695-.7606-1.07849,0-1.61656.69859-1.61656,2.09262v23.10911c0,1.20487-.25392,2.06122-.7606,2.5675-.50824.50863-1.36421.76138-2.5679.76138h-6.46703c-3.55141,0-6.18132-.96625-7.89325-2.9011-1.71193-1.93328-2.5675-4.89717-2.5675-8.89168v-17.9741c0-1.2033.23744-2.05965.71311-2.5675.47527-.50706,1.28375-.7606,2.42504-.7606h66.19036c1.14129,0,1.94937.25353,2.42504.7606.47527.50785.71311,1.36421.71311,2.5675v17.9741c0,3.99451-.85597,6.9584-2.5675,8.89168-1.71193,1.93485-4.34341,2.9011-7.89364,2.9011h-6.46664c-1.20526,0-2.06122-.25275-2.5679-.76138-.50824-.50628-.7606-1.36264-.7606-2.5675v-23.10911c0-1.39403-.53964-2.09262-1.61695-2.09262-.69819,0-1.23626.25432-1.61656.7606v54.58792c0,1.20565-.23783,2.06122-.7135,2.56829-.47527.50785-1.28375.7606-2.42504.7606h-19.21036c-1.14089,0-1.94937-.25275-2.42504-.7606-.47527-.50706-.71311-1.36264-.71311-2.56829v-54.58792Z"/>
      <path class="cls-9" d="m154.89092,154.59892c-1.2708,0-2.20644-.25275-2.80848-.76138-.6044-.50706-.90502-1.30063-.90502-2.38069,0-1.01413.53846-2.39482,1.61852-4.14129,1.07928-1.74568,2.85636-4.14207,5.33203-7.18917l13.99686-17.51884-16.37677-23.80377c-.82575-1.14207-1.54003-1.98273-2.14286-2.52276-.60361-.53846-1.60361-1.22135-2.99922-2.0471-.3179-.19074-.47567-.47645-.47567-.85714v-1.14207c0-.63422.38069-.95212,1.14286-.95212h21.99372c3.29984,0,5.82339.52355,7.56986,1.57064,1.7449,1.0471,3.66562,3.15856,5.75981,6.33203l11.61617,17.42386c.57143,0,1.06279-.20565,1.47567-.61931.41209-.41209.61931-.90424.61931-1.47567s-.31868-1.29984-.95212-2.18995l-11.42543-17.23313c-.31868-.50785-.50863-.85714-.57143-1.04788-.06436-.18995-.09498-.4427-.09498-.76138v-1.0471c0-.63422.31633-.95212.95212-.95212h31.03925c2.47567,0,3.7135,1.0471,3.7135,3.14207,0,2.03218-2.34929,5.80769-7.04631,11.32967l-13.61539,15.99608,18.56672,25.32653c.82418,1.14286,1.53846,1.98509,2.14207,2.52355.60283.54003,1.60283,1.22292,2.99922,2.0471.31711.19074.47645.47567.47645.85714v1.14207c0,.63579-.38069.95212-1.14286.95212h-23.99372c-3.30141,0-5.82418-.52355-7.56907-1.57064-1.74647-1.04788-3.66562-3.15699-5.7606-6.33203l-12.37755-18.56672c-.57143,0-1.06358.20722-1.47567.61931-.41366.41366-.61931.90424-.61931,1.47567s.31711,1.30141.95212,2.18995l12.1876,18.37598c.44349.63501.66641,1.23783.66641,1.80926v1.0471c0,.63579-.31868.95212-.95212.95212h-31.5157Z"/>
      <line class="cls-4" x1="162.95256" y1="103.79011" x2="168.8751" y2="112.82388"/>
      <circle class="cls-8" cx="160.65859" cy="100.29108" r="1.37718"/>
      <line class="cls-4" x1="100.6793" y1="104.47488" x2="100.6793" y2="115.27698"/>
      <circle class="cls-8" cx="100.6793" cy="100.29092" r="1.37718"/>
      <path class="cls-3" d="m73.16372,112.61034c0,3.99959.85665,6.9676,2.56996,8.90292,1.71443,1.93644,4.34718,2.9041,7.90274,2.9041h6.47536c1.20425,0,2.06202-.25341,2.56996-.76247.50794-.50682.76247-1.36347.76247-2.56996v-23.13751c0-1.39487.53821-2.09454,1.618-2.09454.69743,0,1.23789.25453,1.61912.76135v42.97326"/>
      <path class="cls-3" d="m126.19666,123.6549c.50794.50906,1.36459.76247,2.57108.76247h6.47424c3.55444,0,6.18944-.96766,7.90274-2.9041,1.71443-1.93532,2.57108-4.90333,2.57108-8.90292v-17.99534c0-1.20537-.23771-2.06202-.71425-2.57108-.47542-.50682-1.28498-.76135-2.42756-.76135h-66.26846c-1.14258,0-1.95214.25453-2.42756.76135-.47654.50906-.71425,1.36571-.71425,2.57108v13.53877"/>
      <path class="cls-3" d="m107.3865,154.59984h11.66988c1.14258,0,1.95214-.25341,2.42756-.76247.47654-.50682.71425-1.36347.71425-2.56996v-54.65318c.38123-.50682.91945-.76135,1.61912-.76135,1.07867,0,1.618.69968,1.618,2.09454v23.13751"/>
      <path class="cls-1" d="m219.92215,154.59928h-18.56867c-3.30103,0-5.8239-.52364-7.5686-1.57091-1.74695-1.04727-3.66657-3.15639-5.76111-6.33184l-9.86629-14.79899m27.05134-13.55699l-2.90337,3.41098,18.56719,25.32623c.82414,1.14258,1.53839,1.98466,2.14163,2.52287.60325.54045,1.6023,1.22331,2.99941,2.04745.31732.19062.47654.47542.47654.85665v1.14258m-50.84421-25.51685c-.57073,0-1.06297.20631-1.4756.61894-.41375.41375-.61894.90375-.61894,1.4756,0,.57073.31732,1.3018.95196,2.18985l12.18714,18.37657c.44402.63464.66716,1.23789.66716,1.80862v1.04727c0,.63576-.31844.95196-.95196.95196h-31.51567c-1.2704,0-2.20667-.25229-2.80879-.76135-.60437-.50794-.90487-1.30068-.90487-2.38047,0-1.01475.53821-2.39504,1.61912-4.14199,1.07755-1.7447,2.85589-4.14199,5.33166-7.18849l13.99575-17.5188-16.37622-23.80354c-.82526-1.14258-1.53951-1.98354-2.14276-2.52287s-1.60342-1.22219-2.99941-2.04745c-.31732-.19062-.47542-.47654-.47542-.85665v-1.14258c0-.63352.38123-.95196,1.14258-.95196h21.99381c3.29991,0,5.82278.52364,7.56973,1.57091,1.7447,1.04727,3.66545,3.15863,5.75999,6.33184l11.61641,17.42349c.57185,0,1.06185-.20519,1.4756-.61894.41263-.41151.61894-.90487.61894-1.4756,0-.57185-.31844-1.30068-.95196-2.18985l-11.42579-17.23399c-.31844-.50682-.50906-.85665-.57073-1.04727-.06391-.19062-.09531-.4429-.09531-.76135v-1.04727c0-.63352.3162-.95196.95196-.95196h31.03913c2.47577,0,3.71366,1.04727,3.71366,3.14181,0,2.03175-2.34907,5.8082-7.04609,11.33048l-2.66476,3.13065"/>
      <line class="cls-4" x1="33.75375" y1="30.12665" x2="33.75375" y2="40.92875"/>
      <circle class="cls-8" cx="33.75375" cy="25.94269" r="1.37718"/>
      <g>
        <rect class="cls-12" x="231.14122" y="89.03233" width="107.64608" height="81.65069" rx="11.56091" ry="11.56091" transform="translate(-11.30016 28.39321) rotate(-5.59339)"/>
        <g>
          <rect class="cls-10" x="246.96546" y="129.17451" width="31.11489" height="43.09319" rx="2.92057" ry="2.92057" transform="translate(385.96352 -125.67995) rotate(84.20429)"/>
          <rect class="cls-10" x="295.63579" y="124.23444" width="31.11489" height="43.09319" rx="2.92057" ry="2.92057" transform="translate(424.80421 -178.5427) rotate(84.20429)"/>
          <circle class="cls-8" cx="278.32991" cy="144.64317" r="1.37718"/>
          <path class="cls-4" d="m277.47714,140.28239s-.09462-3.30202-4.03123-3.12628"/>
          <rect class="cls-10" x="243.17784" y="91.85901" width="31.11489" height="43.09319" rx="2.92057" ry="2.92057" transform="translate(345.43362 -155.459) rotate(84.20429)"/>
          <circle class="cls-8" cx="328.78512" cy="139.17155" r="1.37718"/>
          <path class="cls-4" d="m327.93235,134.81077s-.09462-3.30202-4.03123-3.12628"/>
          <circle class="cls-8" cx="275.35736" cy="106.71868" r="1.37718"/>
          <path class="cls-4" d="m274.50459,102.3579s-.09462-3.30202-4.03123-3.12628"/>
          <rect class="cls-10" x="290.53409" y="87.44765" width="31.11489" height="43.09319" rx="2.92057" ry="2.92057" transform="translate(383.61894 -206.53908) rotate(84.20429)"/>
          <circle class="cls-8" cx="322.71362" cy="102.30732" r="1.37718"/>
          <path class="cls-4" d="m321.86085,97.94654s-.09462-3.30202-4.03123-3.12628"/>
        </g>
        <g>
          <path class="cls-13" d="m256.3492,120.16374l10.83778-1.9606.8455,4.67371-15.99839,2.89418-.97203-5.37316c-.77977-4.3104.53421-6.58495,4.99137-8.45819l2.01114-.83347c1.75045-.7225,2.32873-1.51883,2.06538-2.97457-.29107-1.60898-1.51108-2.4552-3.12006-2.16413-1.82154.32952-2.48486,1.51644-2.24037,3.72857l-5.16061.93358c-.85524-5.08034,1.53157-8.52146,6.47963-9.41658,4.76516-.86204,8.39251,1.52427,9.20492,6.01509.72477,4.00639-1.11938,6.28497-5.59547,8.22289l-1.24462.56974c-2.04327.83929-2.54903,1.68375-2.20297,3.59674l.09881.54621Z"/>
          <path class="cls-13" d="m259.50953,156.8715h11.01369s0,4.74957,0,4.74957h-16.25807s0-5.46038,0-5.46038c0-4.38036,1.69789-6.38468,6.41733-7.43456l2.12739-.46215c1.8511-.39936,2.56191-1.08002,2.56191-2.5594,0-1.6351-1.04988-2.68498-2.68498-2.68498-1.8511,0-2.71512,1.04988-2.86833,3.2702h-5.24438c.06279-5.15144,3.02405-8.11271,8.05243-8.11271,4.84251,0,7.98712,2.99391,7.98712,7.55763,0,4.07142-2.22032,5.98532-6.96989,7.09548l-1.32616.33908c-2.16004.46215-2.80805,1.20309-2.80805,3.14713v.55508Z"/>
          <path class="cls-13" d="m296.67098,111.30094v-4.38036c0-5.8296,3.48621-9.5318,9.06966-9.5318,5.55331,0,9.03951,3.70221,9.03951,9.53181v4.38036c0,5.8296-3.48621,9.5318-9.03952,9.5318-5.58345,0-9.06965-3.70221-9.06965-9.53181Zm12.86479.15322v-4.53357c0-2.93112-1.35881-4.53357-3.79514-4.53357s-3.82528,1.60245-3.82528,4.53357v4.53357c0,2.96378,1.38895,4.62902,3.82528,4.62902s3.79514-1.66524,3.79514-4.62901Z"/>
          <path class="cls-13" d="m320.12701,148.98087c.75392,4.65883-1.89458,7.99307-7.03938,8.82563-5.42001.8771-8.84378-1.34982-9.75538-6.98306l5.17703-.83778c.44864,2.5837,1.73674,3.59399,3.89879,3.24412,1.88932-.30574,2.83763-1.5838,2.55155-3.35163-.32019-1.97858-1.50176-2.72369-3.75555-2.35896l-1.58435.25639-.73948-4.56957,1.43062-.23151c1.88932-.30574,2.86732-1.40033,2.6013-3.04418-.27605-1.70584-1.47768-2.57492-3.12154-2.3089-1.82733.29571-2.57934,1.45041-2.34132,3.69163l-5.17703.83778c-.77579-5.18706,1.71899-8.49642,6.68278-9.2997,4.81007-.7784,8.37018,1.5206,9.07475,5.87446.34988,2.16205-.16982,3.96613-1.48509,5.30358,1.98983.70845,3.15858,2.33344,3.58229,4.95171Z"/>
        </g>
      </g>
      <path class="cls-5" d="m352.54244,150.93644l-5.70487-58.24883c-.81692-8.35155-5.70565-15.33404-12.59557-19.08139.72444-3.50525.34213-7.1925-1.18936-10.56069l-2.27159-4.99843,2.90031-4.88069c3.15777-5.31162,3.23077-11.93093.18995-17.2763-3.02747-5.32182-8.70251-8.62794-14.81005-8.62794-.74882,0-1.50706.04945-2.25353.14757l-5.37049.70251-3.49451-3.98587c-3.2394-3.69388-7.90895-5.81319-12.81083-5.81319-8.1617,0-15.27394,5.80769-16.91052,13.80769l-1.14757,5.60518-1.60729.71178c-1.47267-4.22969-4.02713-8.0028-7.60621-11.14899-5.46625-4.80298-12.56672-7.34145-20.53297-7.34145-1.354,0-2.68603.07457-3.99294.22449v-3.26374c0-5.74097-2.43642-9.38305-4.47331-11.41994-2.04474-2.0471-5.72057-4.48823-11.62402-4.48823h-24.66013c-7.85243,0-14.00314,6.0675-14.00314,13.8124v1.14286c0,1.8905.3697,3.73415,1.07261,5.43196-3.61357-.95565-7.51079-1.43981-11.63305-1.43981-7.66484,0-14.66013,1.63422-20.79357,4.8595-3.91268,2.05789-7.30387,4.61877-10.15463,7.64144-.91724-1.13673-1.9116-2.21703-2.99725-3.22935-6.6617-6.20879-15.84262-9.35714-27.28768-9.35714-6.25643,0-11.86254.90527-16.75417,2.69378-.19388-5.24348-2.34012-8.63741-4.18343-10.61136-2.06436-2.19702-5.78689-4.81554-11.80063-4.81554h-20.18525c-1.86342,0-3.50706.25118-4.94977.66484-1.44309-.41287-3.08752-.66484-4.95212-.66484h-27.61146c-7.85204,0-14.00275,6.0675-14.00275,13.8124v1.14286c0,4.39874,2.00903,8.4168,5.44388,11.02276l.37333,48.87236C7.80946,89.03426,1,100.91333,1,114.3548c0,21.59262,17.56711,39.16013,39.16013,39.16013,13.86014,0,26.05245-7.24446,33.01413-18.13898,2.73008,1.1877,6.107,1.99691,10.26335,1.99691h.16876v13.95762c0,5.69623,2.27865,9.32339,4.18721,11.3595,2.06358,2.2033,5.78807,4.82967,11.81123,4.82967h86.76964c2.06829,0,4.01648-.4325,5.76138-1.21429,2.70958.81397,5.75196,1.21429,9.18681,1.21429h19.10803c2.67298,10.74019,12.28601,18.45762,23.6722,18.45762.79435,0,1.5989-.03925,2.39325-.11695l84.12168-8.23862c6.49215-.63579,12.34851-3.76217,16.48901-8.8022,4.14129-5.04003,6.07143-11.39168,5.43564-17.88305Z"/>
      <path class="cls-8" d="m281.19289,60.19521c3.06162-10.87567,2.82373-10.78966,12.13251-4.38651-9.30878-6.40314-9.18864-6.07086-6.12702-16.94652-3.06162,10.87567-2.82373,10.78966-12.13251,4.38651,9.30878,6.40314,9.18864,6.07086,6.12702,16.94652Z"/>
    </g>
  </g>
</svg>