<?xml version="1.0" encoding="UTF-8"?>
<svg id="Layer_2" data-name="Layer 2" xmlns="http://www.w3.org/2000/svg" viewBox="0 0 296.15312 90.51032">
  <defs>
    <style>
      .cls-1 {
        fill: #f06f00;
      }

      .cls-2 {
        fill: #f4e9ed;
      }

      .cls-3 {
        fill: #ffc783;
      }

      .cls-4 {
        fill: #ffc5ec;
      }

      .cls-5 {
        fill: #fbdcb5;
      }

      .cls-6 {
        fill: #ff8a05;
      }

      .cls-7 {
        fill: #7e4aa6;
      }

      .cls-8 {
        fill: #b181c2;
      }

      .cls-9 {
        fill: #5c2a74;
      }

      .cls-10 {
        fill: none;
        stroke: #000;
        stroke-linejoin: bevel;
        stroke-width: 2px;
      }

      .cls-11 {
        fill: #f6f8f9;
        opacity: .25;
      }
    </style>
  </defs>
  <g id="Layer_8" data-name="Layer 8">
    <g>
      <g>
        <g>
          <path class="cls-5" d="m100.10706,41.93281c-2.16968-.04717-2.60591-1.25886-5.62631-1.77722-2.13164-.36581-3.7655-.07998-5.81289.29761-11.12387,2.05154-14.53605,3.13252-15.50118,1.73977-.59353-.85649.02473-2.23534.24635-2.72958,1.22419-2.7303,4.37699-2.22812,7.0911-5.52683.45945-.55836,1.16722-1.43668,1.54884-2.78243.13376-.47168.74508-2.82655-.39611-5.06558-.89727-1.76041-2.12825-1.97832-2.16982-3.35355-.0197-.65177.22561-1.63604.91897-2.10211,1.97236-1.32574,5.37713,3.01525,7.79642,1.93874,1.20641-.53683,1.21399-1.99644,2.45502-7.33751,2.01203-8.65947,2.93623-8.88542,3.19503-8.89791.62874-.0303,1.24509,1.01013,2.04245,3.10929,2.09989,5.52834,1.42906,7.80083,2.54765,12.52333,1.01014,4.26442,2.30053,9.71231,6.55767,12.48298,1.10762.72084,2.14953,1.08704,2.32351,2.06517.37352,2.10003-3.52489,5.49608-7.21671,5.41583Z"/>
          <path class="cls-3" d="m81.2991,38.92737c-.26532-.07142-.50417-.24256-.65498-.49794-.30554-.51806-.13349-1.18587.38432-1.49184,2.33495-1.37834,6.12707-2.96511,10.93183-2.69831,2.8214.15624,5.6419.96504,8.15674,2.33923.5282.28831.72236.95006.4338,1.47782-.28813.52751-.94949.72435-1.47782.4338-2.23261-1.21964-4.73362-1.9373-7.23334-2.07598-4.25996-.23654-7.62837,1.17423-9.70369,2.3996-.26268.15473-.56401.18706-.83686.11362Z"/>
          <path class="cls-3" d="m100.93159,38.48854c-.04587-.01235-.0917-.02762-.13685-.04675-2.97148-1.23679-5.7884-2.83365-8.37242-4.74599-2.37321-1.75572-4.554-3.78165-6.48173-6.02069-.3924-.4559-.34091-1.14367.11465-1.53616.4559-.3924,1.14264-.34118,1.53616.11465,1.82225,2.11666,3.88352,4.03147,6.12687,5.69129,2.4422,1.80771,5.10503,3.31682,7.91363,4.48627.55537.23101.81809.86861.58674,1.4239-.21222.51013-.7677.77329-1.28705.63349Z"/>
          <path class="cls-3" d="m100.92208,36.7262c-.13899-.03742-.27224-.10302-.39214-.19771-1.85924-1.47051-4.43666-4.04709-6.1556-7.96878-1.27689-2.91235-1.87404-6.13481-1.72649-9.31946.02774-.60091.53748-1.0651,1.13839-1.03736.59936.02806,1.0651.53748,1.03736,1.13839-.13201,2.85142.40249,5.73648,1.54553,8.34404,1.5391,3.5109,3.84694,5.81775,5.51216,7.1347.47164.37295.5516,1.05793.17856,1.52991-.27835.35207-.73037.48594-1.13777.37627Z"/>
          <path class="cls-5" d="m137.21448,57.98957c4.36588.11791,5.2,1.92503,9.27942,1.76701,1.36463-.05287,2.67555-.41118,5.29756-1.12782,5.04865-1.37987,6.05214-2.4685,8.15954-1.94037,1.77368.4445,3.80345,1.90244,3.9575,3.7706.17462,2.11841-2.13941,3.83471-3.37515,4.46888-1.4204.72889-3.31796,1.00409-3.71595,1.05795-1.4328.19391-2.29104.07189-3.11387.75397-.23738.19678-.99999.89833-.95903,1.78479.04127.89251.86211,1.21793,2.33868,2.70067,1.43467,1.44066,2.19221,2.20138,2.1303,3.09801-.09837,1.42388-2.20485,2.34457-2.69376,2.54184-2.71597,1.09601-4.19897-.48424-5.40062.48565-1.42023,1.14631.33514,3.60895-.9483,8.14633-.29146,1.03022-1.04974,3.71112-2.66747,3.98987-.7504.12932-1.4484-.29916-2.03901-.76618-2.46442-1.94885-3.34085-4.79259-4.61612-8.41306-1.6186-4.59522-2.4279-6.89278-3.42123-8.81568-.93394-1.80796-1.78564-3.12015-3.1057-6.02145-1.92591-4.23272-1.78064-5.10416-1.50268-5.64882,1.00938-1.97763,4.90504-1.87243,6.39588-1.83217Z"/>
          <path class="cls-3" d="m140.63573,63.68412c-1.48066-.39857-2.92866-.93485-4.33236-1.60569-.54291-.25959-.77254-.90959-.51329-1.45259.2595-.54256.91411-.77022,1.45216-.51304,2.33687,1.11737,4.80881,1.82574,7.34585,2.1081,5.23745.58117,9.59481-.79212,12.32778-2.04644.54685-.25153,1.19296-.01115,1.44414.5356.25084.54666.01106,1.1933-.5356,1.44414-2.98316,1.36944-7.74318,2.86786-13.47682,2.23132-1.25424-.13899-2.49412-.37362-3.71186-.70141Z"/>
          <path class="cls-3" d="m150.21009,73.61775c-.1609-.04331-.31391-.12415-.44593-.2434-2.5557-2.30675-5.30739-4.43642-8.17839-6.33018-2.55772-1.6868-5.2546-3.21536-8.01572-4.54349-.54229-.26053-.77018-.91153-.50941-1.45338.26034-.5416.91196-.77044,1.45338-.50941,2.84928,1.37022,5.6318,2.94754,8.27096,4.68783,2.96272,1.95406,5.80186,4.15169,8.4388,6.53171.44633.40286.4816,1.09159.07865,1.53826-.28404.31456-.70959.42508-1.09233.32205Z"/>
          <path class="cls-3" d="m143.51029,81.62798c-.40911-.11013-.73332-.45514-.79565-.90149-.43761-3.13179-1.41029-6.13628-2.89083-8.92904-1.44584-2.72799-3.33276-5.17046-5.60813-7.25966-.44308-.40675-.4724-1.09572-.06565-1.5388.40598-.44292,1.09541-.47396,1.5388-.06565,2.45855,2.2571,4.49733,4.8965,6.05963,7.84382,1.59982,3.018,2.65072,6.26384,3.12318,9.64806.08347.5956-.33201,1.14611-.92786,1.22914-.14959.02105-.29621.01059-.43349-.02637Z"/>
          <path class="cls-1" d="m140.63839,55.12192c-3.39909,12.62735-16.02918,20.20206-28.20775,16.92377-12.18217-3.27926-19.29958-16.1697-15.90048-28.79705,2.06004-7.65288,7.51161-13.44913,14.19843-16.09683,3.75807-1.48858,7.90702-1.98466,12.06379-1.25294.647.11023,1.29611.2549,1.94469.42949,12.17857,3.27829,19.29949,16.16967,15.90133,28.79356Z"/>
          <path class="cls-6" d="m136.31208,51.03303c-2.88933,10.73362-13.62527,17.17234-23.97742,14.3857-10.3552-2.78747-16.40521-13.74471-13.51588-24.47833,1.7511-6.50517,6.38509-11.43216,12.06908-13.68278,3.19447-1.26534,6.7212-1.68702,10.25457-1.06503.54997.0937,1.10173.21667,1.65304.36508,10.35214,2.78664,16.40513,13.74469,13.5166,24.47537Z"/>
          <path class="cls-3" d="m137.60073,51.95067c-1.39192,5.17085-4.71208,9.48798-9.35271,12.16016-3.88871,2.23918-8.33004,2.69038-12.35804,1.6061s-7.63916-3.70309-9.88185-7.59275c-3.65596-6.3492-1.4657-14.48583,4.8835-18.14179,5.20125-2.99499,11.86457-1.19756,14.86045,4.00021,2.46467,4.28027.98688,9.77014-3.29342,12.23476-3.5461,2.0419-8.09293.81796-10.13483-2.72815-1.70377-2.95883-.68272-6.75193,2.27614-8.45565,2.4872-1.43213,5.6773-.5734,7.10949,1.91377,1.21694,2.11343.48749,4.8233-1.625,6.03674-.6096.35098-1.38434.14243-1.73537-.46714-.35189-.60604-.1424-1.38428.46712-1.73533.43603-.25107.74707-.65231.87824-1.1396.13023-.48378.06358-.99045-.18748-1.42652-.73268-1.27249-2.36637-1.71226-3.63883-.97952-1.74411,1.00432-2.34618,3.24093-1.34191,4.98508.65077,1.1301,1.70001,1.93891,2.95858,2.2777s2.57555.16694,3.70569-.48378c1.48612-.85573,2.55009-2.2386,2.9955-3.89326s.21942-3.38482-.63632-4.87089c-2.29552-3.98663-7.40329-5.36156-11.38989-3.06599-5.13453,2.9565-6.90581,9.53663-3.94925,14.67114,3.7815,6.56722,12.2021,8.83392,18.77283,5.05337,8.36116-4.81748,11.2469-15.53777,6.433-23.89806-2.95911-5.139-7.7411-8.81363-13.46579-10.35463-3.05693-.82288-6.18307-.98387-9.22201-.50483,3.75807-1.48858,7.90702-1.98466,12.06379-1.25294,5.41094,1.9942,9.91339,5.78528,12.82289,10.84328,2.67214,4.64062,3.37644,10.04117,1.98547,15.20851Z"/>
          <path class="cls-11" d="m97.99993,48.12901c2.06004-7.65288,7.51161-13.44913,14.1985-16.09676,3.758-1.48865,7.90695-1.98473,12.0637-1.25296.64701.11019,1.29611.2549,1.94469.42949,6.92505,1.86412,12.21088,6.83822,14.86121,13.10213-1.59384-8.4817-7.68537-15.65528-16.33099-17.98255-.64858-.17459-1.29769-.31926-1.94469-.42949-4.15677-.73173-8.30572-.23564-12.06379,1.25294-6.68682,2.6477-12.13839,8.44395-14.19843,16.09683-1.46668,5.44858-.97167,10.94433,1.03974,15.69761-.65178-3.46756-.55641-7.15264.43005-10.81724Z"/>
        </g>
        <path class="cls-10" d="m163.90848,60.45898c-.15397-1.86814-2.18382-3.3261-3.95742-3.77058-2.1074-.52813-3.11089.5605-8.15954,1.94037-2.62202.71665-3.93302,1.07493-5.29765,1.1278-3.2206.1248-4.42414-.97287-6.93414-1.49959.42206-1.00631.78676-2.0505,1.07871-3.13506,1.13489-4.21604,1.09103-8.46001.0828-12.36768-.00195-.00741-.00362-.01484-.00558-.02225-.06247-.24124-.12922-.48088-.19908-.71952-.01299-.04416-.02641-.08807-.03962-.1321-.21106-.70604-.45398-1.39945-.72788-2.07871-.02429-.06014-.04858-.12029-.07328-.18026-.0893-.21624-.18043-.43147-.27596-.64466-.00736-.0163-.01517-.03231-.02253-.04861-.18878-.41885-.3904-.83091-.60282-1.23694-.03485-.06661-.06878-.13357-.10419-.19978-.10048-.18763-.20357-.37344-.30892-.55803-.04802-.08416-.09748-.16741-.14651-.25092-.19692-.33508-.40171-.66479-.61474-.9891-.04421-.0673-.08676-.13566-.13164-.20249-.10591-.15761-.21528-.31257-.32502-.4675-.07592-.10736-.15278-.21397-.23055-.31994-.10734-.14615-.21475-.29201-.32537-.43551-.10736-.13923-.21821-.27577-.32872-.4125-.15784-.19518-.3186-.3877-.48281-.57762-.11079-.12822-.22208-.25593-.33573-.38171-.10526-.11636-.21162-.23169-.3193-.3459-.13059-.13855-.26369-.27457-.39773-.40983-.1075-.10838-.21431-.21727-.32397-.32343-.1957-.18958-.39515-.37545-.59787-.55802-.09834-.08852-.19851-.17506-.2985-.26187-.15732-.13675-.31674-.27118-.47807-.4036-.09436-.0774-.18788-.15554-.28357-.23141-.24223-.19233-.48826-.38041-.73909-.56294-.07622-.05544-.15452-.10828-.23146-.16277-.19812-.14035-.39858-.27779-.60178-.41189-.09424-.06217-.18866-.12399-.28401-.18476-.23868-.15232-.48038-.30059-.72565-.44408-.04266-.02498-.08416-.05152-.12707-.07625-.28481-.16405-.57534-.32018-.86874-.47209-.08839-.04569-.17756-.08988-.26662-.13446-.23524-.11771-.47304-.23133-.71353-.34114-.0766-.03494-.15232-.07111-.22941-.10526-.30823-.13639-.62055-.26645-.93715-.38949-.06898-.02678-.13917-.05142-.2086-.07754-.26064-.09834-.52404-.19192-.79005-.28091-.09128-.03054-.18244-.06118-.27438-.09061-.33203-.10627-.66659-.20794-1.00663-.29947-.64858-.17459-1.29769-.31926-1.94469-.42949-4.15677-.73173-8.30572-.23564-12.06379,1.25294-1.04486.41372-2.05947.90429-3.03578,1.46675-1.80058,1.03745-3.46948,2.32091-4.9573,3.81686-2.50475-2.94611-3.49021-7.07782-4.2929-10.46658-1.1186-4.7225-.44776-6.99499-2.54765-12.52333-.79745-2.09918-1.41379-3.13962-2.04245-3.10929-.2589.01246-1.18309.23842-3.19503,8.89791-1.24112,5.34105-1.24869,6.80066-2.45502,7.33751-2.41929,1.07651-5.82406-3.26447-7.79642-1.93874-.69344.46605-.93875,1.45031-.91905,2.10208.04158,1.37522,1.27256,1.59313,2.16982,3.35355,1.14127,2.23905.52996,4.59392.3962,5.0656-.38171,1.34573-1.08939,2.22407-1.54884,2.78243-2.71419,3.29869-5.86691,2.79653-7.0911,5.52683-.22171.49422-.83997,1.87306-.24644,2.72956.96521,1.39277,4.37739.31179,15.50118-1.73977,2.04739-.3776,3.68126-.66342,5.81289-.29761,1.26963.2179,2.0807.55812,2.75775.88301-.26735.71802-.505,1.45458-.70836,2.21002-.0006.00223-.00102.00445-.0016.00664-.09871.36739-.18701.73496-.26815,1.10254-.02746.12451-.05003.24896-.07556.37344-.05009.24509-.0987.49011-.14114.73506-.02584.14918-.04805.29819-.07103.44731-.03389.22003-.06589.43983-.09364.65954-.02017.15915-.03834.31805-.05534.477-.02231.20938-.04129.41832-.05813.6272-.01318.16388-.02633.32762-.03611.49117-.01228.2035-.01971.40637-.02678.60925-.00587.16603-.01342.3322-.01577.49779-.00284.20081.00046.40065.00261.60068.00338.32979.0139.65829.03074.98583.00877.16928.01437.33908.02663.50769.01541.21214.03816.42259.05905.63345.01399.14035.02597.28098.04243.42071.02527.21608.05607.43071.08713.64542.01889.13033.03739.26074.05835.39053.03563.22089.07518.44054.11687.65971.02247.11803.04586.23576.07013.35326.04702.22836.09647.45591.15.68226.02299.09701.04782.19333.07202.28998.06113.2445.12361.48841.19216.73023.01276.04465.027.08859.03989.13314,2.1707,7.48241,7.92289,13.61798,15.79574,15.73723,7.47366,2.0118,15.11361-.06848,20.68964-4.89049.89422,1.80718,1.57577,2.92185,2.3068,4.33686.99324,1.92287,1.80263,4.22046,3.42123,8.81568,1.27518,3.62045,2.15161,6.46419,4.61603,8.41304.59061.46703,1.2887.89552,2.03909.7662,1.61765-.27876,2.37602-2.95965,2.66747-3.98987,1.28344-4.53738-.47193-7.00002.94822-8.14635,1.20173-.96987,2.68465.61036,5.4007-.48562.48892-.19727,2.5953-1.11798,2.69368-2.54186.062-.89661-.69555-1.65733-2.1303-3.09801-1.47649-1.48272-2.29742-1.80816-2.3386-2.70065-.04097-.88647.72157-1.58803.95903-1.78479.82283-.68208,1.68107-.56005,3.11378-.75399.39799-.05386,2.29556-.32906,3.71604-1.05793,1.23565-.6342,3.54977-2.35047,3.37506-4.4689Z"/>
        <path class="cls-10" d="m140.63839,55.12192c-3.39909,12.62735-16.02918,20.20206-28.20775,16.92377-12.18217-3.27926-19.29958-16.1697-15.90048-28.79705,2.06004-7.65288,7.51161-13.44913,14.19843-16.09683,3.75807-1.48858,7.90702-1.98466,12.06379-1.25294.647.11023,1.29611.2549,1.94469.42949,12.17857,3.27829,19.29949,16.16967,15.90133,28.79356Z"/>
      </g>
      <g>
        <g>
          <path class="cls-2" d="m25.81707,57.93019c-1.91338.70133-2.70954-.2089-5.52807.37158-1.98917.40969-3.32004,1.21882-4.9811,2.24973-9.02489,5.60112-11.63863,7.71419-12.95923,6.82665-.81214-.54581-.74343-1.96311-.71879-2.47114.13601-2.80644,3.06478-3.44638,4.30908-7.25978.21065-.6455.52894-1.65576.40205-2.96313-.04447-.45823-.31588-2.72662-2.08009-4.29392-1.38711-1.23226-2.53809-1.0015-3.04512-2.18981-.24029-.56319-.36266-1.50781.08412-2.15266,1.27095-1.83431,5.7339.79627,7.48095-.97307.87119-.88232.37826-2.16124-.36455-7.25637-1.20436-8.26072-.47355-8.77461-.25152-8.8741.53942-.24169,1.43446.45715,2.85014,2.01982,3.7283,4.11545,3.91948,6.33217,6.5139,10.07881,2.34281,3.38321,5.33573,7.70536,10.00657,8.67109,1.21525.25124,2.25165.21486,2.73856,1.01061,1.04536,1.70849-1.20121,6.01234-4.45691,7.2057Z"/>
          <path class="cls-4" d="m8.34223,61.73925c-.25645.02836-.52387-.03955-.74316-.21124-.44448-.34844-.52259-.99127-.17452-1.43605,1.57-2.00441,4.34287-4.68979,8.6356-6.10094,2.52058-.82901,5.26373-1.0871,7.9331-.74619.56055.07133.95682.58353.88512,1.14378-.0714.55989-.58235.95836-1.14378.88512-2.36968-.30237-4.80226-.07393-7.03555.66034-3.80599,1.25115-6.26859,3.63762-7.66391,5.4194-.17674.2252-.42916.35661-.69289.38577Z"/>
          <path class="cls-4" d="m25.35926,54.63623c-.04434.0049-.08964.00723-.13566.00596-3.02165-.06449-6.03137-.49672-8.94542-1.28453-2.67611-.72301-5.27644-1.74815-7.72842-3.04627-.49916-.26435-.68952-.88338-.42551-1.3825.26435-.49916.88239-.68941,1.3825-.42551,2.31786,1.22719,4.77565,2.19608,7.30538,2.87968,2.75422.74486,5.59918,1.15311,8.45535,1.21446.5647.01192,1.01264.47955,1.00039,1.04428-.01098.51871-.40664.93893-.90862.99444Z"/>
          <path class="cls-4" d="m24.74777,53.09844c-.13435.01485-.27331.00309-.41057-.03868-2.12906-.64952-5.26467-2.02043-8.10998-4.86135-2.11331-2.10962-3.73838-4.72306-4.69932-7.5583-.1814-.53495.10545-1.11531.6404-1.29671.5337-.1806,1.11531.10545,1.29671.6404.86047,2.53854,2.31528,4.8784,4.20724,6.76731,2.54745,2.54327,5.35502,3.77058,7.26187,4.35222.54006.1647.84442.7363.67975,1.27668-.1229.40313-.47235.67489-.86612.71843Z"/>
          <path class="cls-2" d="m63.76037,59.27052c3.858-1.39114,5.20588-.09642,8.71896-1.63079,1.17518-.51328,2.19885-1.27526,4.24634-2.79931,3.94242-2.93452,4.44731-4.2299,6.47084-4.48935,1.70309-.21837,3.97696.3618,4.75106,1.94265.87773,1.79263-.55831,4.0854-1.42183,5.06288-.99257,1.1235-2.55767,2.01359-2.88725,2.19691-1.18651.65995-1.97875.84698-2.4648,1.72502-.14022.25332-.56697,1.12778-.22775,1.88891.34155.76632,1.17069.76993,2.96933,1.56112,1.74759.76874,2.67036,1.17465,2.9231,1.97989.40131,1.27875-1.12554,2.80477-1.48555,3.14461-1.99981,1.88793-3.83744,1.01368-4.55624,2.27305-.84956,1.48844,1.52824,3.04107,1.95889,7.44794.09774,1.00061.35223,3.60439-.96697,4.40181-.61191.36991-1.36891.23413-2.0452.02789-2.82196-.86067-4.56162-3.04736-6.91587-5.77674-2.98808-3.46422-4.48211-5.19629-6.00883-6.53776-1.43545-1.26129-2.6293-2.11721-4.77658-4.20239-3.13274-3.04206-3.30397-3.8538-3.24732-4.4252.20578-2.07476,3.64826-3.31608,4.96567-3.79112Z"/>
          <path class="cls-4" d="m68.70099,63.07906c-1.43115.15824-2.88086.18489-4.3379.0787-.56358-.04118-.98684-.53097-.94599-1.09451.04122-.56325.53571-.98636,1.09422-.94562,2.42585.17726,4.82983-.04936,7.14493-.67076,4.77869-1.28435,8.11887-3.97652,10.07937-6.0087.39209-.4071,1.03934-.41804,1.44611-.02592.40644.39217.41808,1.03967.02592,1.44611-2.13986,2.21848-5.78933,5.15787-11.02084,6.56363-1.14432.30773-2.3088.52692-3.48582.65706Z"/>
          <path class="cls-4" d="m80.47291,68.48845c-.15552.0172-.31698-.00113-.47324-.06022-3.02427-1.14239-6.15932-2.06285-9.31795-2.7362-2.81386-.59959-5.69525-1.0132-8.5642-1.22955-.56336-.04221-.98545-.53347-.94287-1.09653.04229-.5627.53376-.98581,1.09653-.94287,2.96046.22298,5.93342.64991,8.83679,1.26841,3.25947.69469,6.49425,1.64465,9.61463,2.82331.52816.19951.79472.78969.59525,1.31818-.14071.37228-.475.61456-.84494.65546Z"/>
          <path class="cls-4" d="m77.35595,77.78587c-.39543.04372-.79701-.14701-1.00428-.51598-1.45453-2.58875-3.33336-4.88306-5.58383-6.81841-2.19795-1.89058-4.68387-3.38055-7.38856-4.42865-.52665-.20403-.7881-.79645-.58407-1.3231.20341-.52625.79564-.78935,1.3231-.58407,2.92233,1.13222,5.60844,2.74241,7.98329,4.78493,2.43185,2.09148,4.46169,4.57006,6.03309,7.36762.27683.49224.10194,1.11582-.39067,1.39236-.1236.0696-.25539.11063-.38808.12531Z"/>
          <path class="cls-9" d="m65.77287,55.59112c1.3495,12.20507-7.10214,23.15131-18.87345,24.45285-11.77478,1.30192-22.41025-7.53389-23.75975-19.73896-.81787-7.39696,1.96535-14.33119,6.90631-18.935,2.7767-2.58787,6.23487-4.44166,10.1201-5.22449.60348-.12505,1.22059-.22071,1.84748-.29002,11.7713-1.30154,22.41017,7.5339,23.7593,19.73562Z"/>
          <path class="cls-7" d="m60.59038,53.49637c1.14711,10.37467-6.03703,19.67929-16.04298,20.78564-10.00891,1.10667-19.04937-6.40402-20.19648-16.7787-.69521-6.28763,1.67061-12.18193,5.87057-16.09531,2.36027-2.19977,5.29982-3.77554,8.60238-4.44097.51298-.10629,1.03754-.18761,1.57042-.24653,10.00595-1.10634,19.0493,6.40403,20.1961,16.77586Z"/>
          <path class="cls-8" d="m62.03128,53.85773c.55261,4.99793-.87308,9.90929-4.01642,13.8342-2.63403,3.28893-6.36323,5.20354-10.25653,5.63401s-7.9473-.62356-11.23962-3.25721c-5.36992-4.30066-6.23949-12.16518-1.93883-17.5351,3.52308-4.39906,9.96485-5.10788,14.3635-1.58815,3.62012,2.89924,4.20683,8.20553,1.30754,11.82561-2.40197,2.99916-6.79675,3.48509-9.79591,1.08312-2.5025-2.00416-2.90787-5.67042-.90366-8.17288,1.68473-2.10355,4.76815-2.44448,6.87174-.7598,1.78746,1.43154,2.07707,4.05079.64515,5.83486-.41293.51554-1.16176.59834-1.67734.18546-.51512-.4095-.5983-1.16172-.18546-1.6773.29534-.36877.43-.82609.37793-1.29708-.0517-.4676-.28339-.88784-.65217-1.18323-1.07619-.86194-2.65525-.68734-3.51715.38889-1.18137,1.47514-.94234,3.63696.53276,4.81837.95583.76547,2.15014,1.1136,3.36662.9791s2.30927-.73552,3.07479-1.69132c1.00663-1.2569,1.4637-2.83027,1.28686-4.4296s-.9666-3.03488-2.2235-4.04146c-3.37171-2.70037-8.30867-2.1545-11.00899,1.21725-3.47791,4.34257-2.77469,10.70265,1.56792,14.18051,5.55431,4.44833,13.69331,3.54841,18.14504-2.00627,5.66244-7.07418,4.51675-17.43597-2.55401-23.09887-4.34637-3.48092-9.78554-5.05747-15.31879-4.44567-2.9547.3267-5.74339,1.25586-8.23677,2.71483,2.7767-2.58787,6.23487-4.44166,10.1201-5.22449,5.41401-.10813,10.64859,1.66592,14.92386,5.09299,3.92487,3.14334,6.38909,7.62469,6.94133,12.61922Z"/>
          <path class="cls-11" d="m26.09524,64.06949c-.81787-7.39696,1.96535-14.33119,6.9064-18.93497,2.77661-2.58791,6.23478-4.44169,10.12002-5.22448.60348-.12509,1.22059-.22071,1.84748-.29002,6.69346-.74009,13.01796,1.80031,17.47933,6.37057-4.2966-6.87114-12.0784-11.05907-20.43489-10.13511-.62689.06931-1.244.16497-1.84748.29002-3.88524.78283-7.34341,2.63661-10.1201,5.22449-4.94096,4.60381-7.72418,11.53804-6.90631,18.935.58229,5.26637,2.89609,9.9026,6.28175,13.37059-1.75672-2.80906-2.93456-6.06405-3.3262-9.60609Z"/>
        </g>
        <path class="cls-10" d="m87.94754,52.29371c-.77401-1.58086-3.04797-2.16102-4.75098-1.94266-2.02353.25945-2.52842,1.55483-6.47084,4.48935-2.04749,1.52405-3.07124,2.28604-4.24642,2.79932-2.77348,1.21139-4.20156.66348-6.57665,1.06195.02465-1.0244-.01383-2.06229-.12973-3.11058-.45057-4.07505-1.94145-7.77109-4.16049-10.843-.00424-.00581-.00825-.01173-.01249-.01754-.13719-.18957-.27757-.37627-.42034-.56103-.02647-.03417-.05324-.06797-.07985-.10195-.4262-.54514-.87594-1.06834-1.34792-1.56857-.04182-.04428-.08365-.08856-.12577-.13255-.15209-.15853-.30544-.31554-.46194-.46926-.01202-.01173-.02432-.02306-.03634-.03479-.30843-.30164-.62576-.59296-.95047-.8753-.05327-.04632-.10586-.09326-.15948-.13904-.15209-.12968-.30582-.25688-.46111-.38223-.0708-.05715-.14254-.11303-.21399-.16927-.28687-.2256-.57879-.44382-.87607-.6545-.06169-.04371-.12229-.08893-.18441-.13201-.14655-.10157-.29522-.19964-.44421-.29755-.10313-.0679-.20683-.13481-.3111-.20086-.14388-.09106-.28773-.18184-.43357-.26946-.14153-.085-.28519-.16646-.42862-.2482-.20482-.11665-.41129-.22998-.61988-.33984-.14076-.0742-.28179-.14779-.42421-.21888-.13187-.06572-.26435-.13016-.39759-.19318-.16161-.07646-.32455-.14984-.48805-.22224-.13109-.05798-.26176-.11663-.39398-.17193-.23601-.0988-.47403-.19306-.71378-.28332-.11629-.04375-.23349-.08513-.35064-.12682-.18437-.06574-.36978-.12872-.55617-.1893-.109-.03538-.21752-.0717-.32716-.1053-.27764-.08528-.55715-.16553-.83895-.2393-.08563-.02239-.17218-.0418-.2581-.06311-.22128-.05492-.4436-.10649-.66718-.1542-.10368-.02211-.20741-.04385-.31158-.06436-.26084-.0515-.52293-.09843-.78652-.13996-.04585-.00724-.09123-.01625-.13721-.02318-.3052-.04597-.61267-.08307-.92123-.11548-.09293-.0097-.18602-.01782-.27916-.02633-.24598-.02242-.49282-.04038-.74069-.05409-.07894-.00433-.15753-.01005-.23663-.01353-.3162-.01377-.63382-.02061-.95277-.01984-.06948.00019-.13929.00267-.20894.00359-.26157.00321-.52392.01154-.78698.02476-.09027.00454-.18047.00894-.27094.01468-.32671.02072-.65405.04632-.98272.08266-.62689.06931-1.244.16497-1.84748.29002-3.88524.78283-7.34341,2.63661-10.1201,5.22449-.77206.71938-1.49136,1.4956-2.15258,2.32158-1.21941,1.52343-2.23947,3.21691-3.02847,5.03423-3.19854-1.71891-5.47436-4.99451-7.33607-7.68302-2.59443-3.74665-2.7856-5.96337-6.5139-10.07881-1.41577-1.56266-2.31081-2.26149-2.85014-2.01982-.22212.0995-.95293.61339.25152,8.8741.74273,5.09514,1.23566,6.37406.36455,7.25637-1.74706,1.76934-6.21001-.86124-7.48095.97307-.44686.64486-.3245,1.58949-.0842,2.15267.50703,1.18831,1.65802.95754,3.04512,2.18981,1.76429,1.56729,2.0357,3.83568,2.08017,4.29391.1268,1.30738-.1914,2.31764-.40205,2.96313-1.24438,3.81342-4.17307,4.45334-4.30908,7.25978-.02472.50804-.09343,1.92534.71871,2.47115,1.32069.88753,3.93443-1.22554,12.95923-6.82665,1.66106-1.03091,2.99194-1.84004,4.9811-2.24973,1.18477-.244,2.01044-.22409,2.71367-.17172.01196.71936.05625,1.44477.13698,2.17494.00024.00215.00064.00424.00087.00635.03942.35504.08802.70668.14287,1.05586.0186.11827.04145.23482.06174.3524.04008.23145.08143.46235.12816.69106.02846.13929.06004.27719.09099.41545.04567.204.09292.40715.14385.60877.03683.14607.07533.29124.11487.43604.05215.19072.10707.37992.16383.56834.04456.14781.08911.29549.13653.44185.05891.18214.12185.36209.1851.54191.05169.14719.10196.29508.15658.44068.06625.17656.13753.35018.20787.52436.11583.28722.23746.57087.36429.85152.06561.14502.12862.29158.19705.43483.08608.18023.178.35646.26844.5337.06027.11794.11888.23681.18109.35336.09605.1803.19644.35744.29708.53455.06112.1075.12193.2152.18468.32152.10676.18096.21652.35949.32799.53687.06005.09552.12079.19046.18223.2849.11928.18359.24039.36564.36467.54525.05331.07696.10799.15269.16222.22892.13713.19288.27525.38477.41795.57277.02644.03467.05393.06823.08045.10277,4.45901,5.7999,11.58882,9.19631,19.19838,8.35493,7.22373-.79872,13.19234-5.23258,16.41783-11.3575,1.40045,1.2742,2.37791,2.01563,3.50144,3.00276,1.52663,1.34148,3.02075,3.07354,6.00883,6.53776,2.35417,2.72939,4.09383,4.91608,6.91579,5.77675.67628.20624,1.43337.34201,2.04528-.0279,1.31911-.79741,1.06471-3.4012.96697-4.40181-.43066-4.40688-2.80845-5.9595-1.95897-7.44793.71889-1.25938,2.55643-.38511,4.55632-2.27306.36001-.33983,1.88678-1.86585,1.48547-3.1446-.25266-.80524-1.17543-1.21116-2.9231-1.97989-1.79855-.7912-2.62778-.7948-2.96925-1.56113-.33922-.76113.08745-1.63558.22775-1.88891.48606-.87805,1.27829-1.06508,2.46472-1.72502.32958-.18332,1.89468-1.0734,2.88733-2.19692.86343-.97747,2.29956-3.27024,1.42175-5.06287Z"/>
        <path class="cls-10" d="m65.77287,55.59112c1.3495,12.20507-7.10214,23.15131-18.87345,24.45285-11.77478,1.30192-22.41025-7.53389-23.75975-19.73896-.81787-7.39696,1.96535-14.33119,6.90631-18.935,2.7767-2.58787,6.23487-4.44166,10.1201-5.22449.60348-.12505,1.22059-.22071,1.84748-.29002,11.7713-1.30154,22.41017,7.5339,23.7593,19.73562Z"/>
      </g>
      <g>
        <g>
          <path class="cls-2" d="m192.02125,37.48702c-1.30473,1.56543-2.44975,1.17642-4.59843,3.09064-1.51641,1.35097-2.26299,2.71792-3.18425,4.44221-5.00542,9.3684-6.20917,12.5065-7.79673,12.39983-.9763-.06559-1.62677-1.32669-1.85992-1.77873-1.28804-2.49711.92627-4.51801.09305-8.4418-.14101-.6642-.37158-1.69801-1.13627-2.76599-.26802-.37432-1.63918-2.20167-3.95117-2.67447-1.81779-.37171-2.69838.40454-3.73244-.36996-.49008-.36708-1.06916-1.12336-1.00548-1.90527.18119-2.22422,5.36156-2.18297,5.98736-4.58945.31206-1.20003-.75519-2.06003-3.95028-6.0978-5.18022-6.5464-4.80511-7.35723-4.66277-7.55457.34581-.47938,1.47052-.32286,3.47854.3205,5.2883,1.6944,6.56413,3.51722,10.68633,5.46038,3.72237,1.75465,8.47774,3.99631,13.0041,2.4925,1.17765-.39128,2.05643-.94191,2.87645-.49707,1.76056.95507,1.97196,5.80538-.24808,8.46904Z"/>
          <path class="cls-4" d="m178.80472,49.53702c-.20775.153-.47322.22818-.74902.18942-.55923-.07893-.94884-.59618-.87037-1.15548.35482-2.52124,1.40962-6.23439,4.41813-9.606,1.76631-1.98009,4.01123-3.57752,6.49234-4.61956.52089-.21905,1.12042.02577,1.339.54658.21865.52035-.02398,1.12117-.54658,1.339-2.20243.92528-4.1934,2.34149-5.75851,4.09568-2.66738,2.98932-3.60337,6.28834-3.91852,8.5294-.04016.28344-.19281.52361-.40646.68095Z"/>
          <path class="cls-4" d="m189.97504,34.86541c-.03592.02645-.07396.05116-.11443.07311-2.64754,1.45775-5.46897,2.59123-8.38571,3.36905-2.67834.71471-5.44243,1.12997-8.21485,1.23466-.56444.02124-1.03928-.41918-1.06078-.98342-.02124-.56444.41838-1.03868.98342-1.06078,2.62082-.09889,5.23336-.49143,7.76527-1.16694,2.75689-.73493,5.4237-1.80664,7.92645-3.18422.49472-.27254,1.11665-.09219,1.38893.40273.25032.45444.11837,1.01634-.28829,1.31582Z"/>
          <path class="cls-4" d="m188.67551,33.84076c-.10884.08015-.235.13958-.37472.17218-2.16805.50429-5.56863.88842-9.45428-.14518-2.88579-.76731-5.60138-2.21524-7.85326-4.18781-.42496-.37213-.4674-1.01812-.09526-1.44309.37146-.42364,1.01812-.4674,1.44309-.09526,2.01631,1.7661,4.4475,3.06252,7.03116,3.74969,3.47876.92517,6.52349.58108,8.46522.12935.54992-.12797,1.09966.21429,1.22783.76448.09556.41047-.07076.82072-.38976,1.05565Z"/>
          <path class="cls-2" d="m225.53262,19.64107c2.64228-3.13653,4.4574-2.69111,6.7294-5.77883.76001-1.0329,1.26432-2.20516,2.27302-4.54983,1.94225-4.51461,1.73037-5.88867,3.35178-7.12682,1.36464-1.04209,3.6233-1.67895,5.08513-.69846,1.65762,1.11187,1.56318,3.81558,1.30543,5.09413-.2963,1.46958-1.20505,3.02392-1.39848,3.34767-.69636,1.16552-1.28835,1.72423-1.26922,2.72765.00553.28948.0742,1.26009.74905,1.74893.67946.49216,1.3989.07997,3.35193-.1362,1.89761-.21003,2.8996-.32094,3.52169.2494.98787.90574.43077,2.99133.28941,3.46578-.78516,2.63572-2.81355,2.79954-2.80485,4.24957.01027,1.7138,2.84598,1.86655,5.42614,5.46499.5858.81707,2.11031,2.94318,1.36798,4.29413-.34432.62666-1.06752.88834-1.75615,1.04859-2.87353.66863-5.47453-.35255-8.8793-1.53558-4.32144-1.50154-6.48213-2.25228-8.47545-2.64858-1.87417-.37262-3.33619-.51542-6.23914-1.24456-4.23518-1.0637-4.78998-1.68049-5.02717-2.20342-.86116-1.89878,1.49654-4.69751,2.3988-5.76855Z"/>
          <path class="cls-4" d="m231.71646,20.46258c-1.1594.85383-2.40078,1.60306-3.71503,2.241-.50841.24665-1.12008.03476-1.367-.47345-.24646-.50814-.03042-1.12204.47338-1.36654,2.18837-1.06171,4.1555-2.46201,5.84796-4.15948,3.49263-3.50528,5.03504-7.50847,5.71392-10.24935.13544-.54875.69015-.88243,1.23863-.7468.54821.13583.88263.69042.7468,1.23863-.7408,2.99196-2.42707,7.36406-6.2508,11.20124-.83626.83954-1.73434,1.61255-2.68786,2.31476Z"/>
          <path class="cls-4" d="m244.61467,19.24779c-.12599.09279-.27491.1578-.43975.18493-3.18974.52613-6.3642,1.29983-9.43528,2.29923-2.73574.89053-5.43676,1.97586-8.02822,3.22568-.50873.24565-1.12012.0319-1.36531-.47676-.24526-.5082-.03183-1.12059.47676-1.36531,2.67398-1.28992,5.46093-2.40959,8.28361-3.32859,3.16905-1.03144,6.4446-1.82955,9.73569-2.37245.55706-.09188,1.08339.2854,1.17547.84273.06469.39269-.10327.76983-.40298.99054Z"/>
          <path class="cls-4" d="m246.57407,28.85603c-.32034.23591-.76345.27199-1.12766.05647-2.55562-1.51199-5.33099-2.55659-8.2482-3.10438-2.84933-.53534-5.74724-.5797-8.61315-.13204-.55802.08721-1.08105-.29456-1.16826-.85259-.08755-.55736.29324-1.08173.85259-1.16826,3.09642-.48387,6.2278-.43574,9.30635.14249,3.1524.59205,6.15077,1.72051,8.91214,3.35468.48616.28737.64715.91469.35931,1.40078-.07211.12215-.16562.22368-.27312.30284Z"/>
          <path class="cls-9" d="m225.43141,15.44847c7.28158,9.88754,5.44971,23.59501-4.08643,30.6178-9.53895,7.02487-23.16988,4.70483-30.45147-5.18271-4.41305-5.99241-5.47756-13.38813-3.50723-19.84769,1.10695-3.63067,3.17144-6.96734,6.14199-9.59102.45968-.41052.94587-.80242,1.45373-1.17643,9.53614-7.0228,23.16982-4.70478,30.4494,5.18005Z"/>
          <path class="cls-7" d="m219.89668,16.2314c6.18956,8.4047,4.63241,20.05645-3.47358,26.02603-8.10839,5.97134-19.69508,3.99924-25.88464-4.40546-3.75122-5.09372-4.65609-11.3803-2.98125-16.87112.94094-3.08618,2.69581-5.92245,5.22087-8.15265.39074-.34895.80402-.68208,1.23571-1,8.106-5.96958,19.69502-3.9992,25.88288,4.40319Z"/>
          <path class="cls-8" d="m221.32479,15.8224c2.98178,4.04891,4.20797,9.01384,3.45341,13.98537-.63232,4.16598-2.90091,7.69105-6.05494,10.0138-3.15403,2.32275-7.19075,3.44116-11.35947,2.81087-6.8019-1.0324-11.4939-7.40359-10.46149-14.20549.84572-5.57212,6.06603-9.41233,11.63612-8.56931,4.58547.69596,7.75122,4.99468,7.0552,9.58014-.57661,3.79894-4.1369,6.42088-7.93584,5.84427-3.16981-.48109-5.35711-3.45119-4.87596-6.62099.40446-2.66452,2.90239-4.5041,5.56691-4.0997,2.26412.34365,3.82677,2.46555,3.48109,4.72692-.09915.65304-.70579,1.0998-1.35884,1.0007-.65096-.09639-1.09974-.70578-1.00068-1.35881.0709-.46711-.04162-.93037-.32262-1.31193-.27897-.37881-.69-.62648-1.15714-.69741-1.3632-.20694-2.64242.73513-2.8493,2.09834-.28357,1.86849,1.00617,3.61982,2.87466,3.90345,1.2107.18373,2.41876-.11319,3.40425-.83894s1.63025-1.79332,1.81404-3.00401c.24165-1.59208-.15086-3.18278-1.10503-4.47842s-2.35678-2.14252-3.94883-2.38413c-4.27085-.64827-8.27037,2.29714-8.91858,6.568-.83492,5.5006,2.95952,10.65302,8.46014,11.48788,7.03546,1.06785,13.62901-3.7879,14.69961-10.82538,1.35735-8.95906-4.82452-17.35333-13.78085-18.7128-5.50541-.83562-11.00272.52439-15.4853,3.82554-2.39365,1.76278-4.34184,3.96384-5.76906,6.47554,1.10695-3.63067,3.17144-6.96734,6.14199-9.59102,4.63167-2.8055,10.05084-3.89208,15.46774-3.06746,4.9715.75458,9.34902,3.39885,12.32878,7.44501Z"/>
          <path class="cls-11" d="m195.33721,42.66126c-4.41305-5.99241-5.47756-13.38813-3.50714-19.84771,1.10686-3.63066,3.17134-6.96733,6.14193-9.59097.45965-.41055.94587-.80242,1.45373-1.17643,5.42249-3.99334,12.16885-4.9626,18.31945-3.24176-7.16051-3.7948-15.99343-3.52151-22.76317,1.46399-.50786.37401-.99405.76591-1.45373,1.17643-2.97056,2.62368-5.03504,5.96035-6.14199,9.59102-1.97033,6.45956-.90582,13.85528,3.50723,19.84769,3.14193,4.26638,7.46684,7.12005,12.13427,8.42571-2.92752-1.55129-5.57738-3.7785-7.69058-6.64798Z"/>
        </g>
        <path class="cls-10" d="m242.97194,1.48713c-1.46177-.98053-3.72049-.34362-5.08507.69841-1.62141,1.23815-1.40953,2.61221-3.35178,7.12682-1.0087,2.34467-1.51308,3.51698-2.27309,4.54988-1.79366,2.43771-3.30412,2.67883-5.16017,4.2134-.49179-.89896-1.04498-1.77799-1.67039-2.62723-2.43118-3.30127-5.57291-5.75341-9.03223-7.30062-.00658-.0029-.01301-.00602-.0196-.00893-.21369-.09535-.42872-.18662-.64483-.27502-.04003-.01631-.08012-.03216-.12018-.04824-.64195-.25833-1.29327-.48589-1.95233-.68242-.05838-.01737-.11675-.03475-.17525-.05172-.21104-.06102-.42241-.1201-.63487-.17476-.01628-.00414-.0326-.00778-.04888-.01191-.41804-.10658-.83861-.19976-1.26108-.28147-.06931-.01341-.13833-.02769-.20768-.04045-.19659-.03606-.39336-.06914-.59055-.09984-.0899-.014-.17998-.02643-.27-.03931-.36129-.05156-.72326-.09421-1.08609-.12764-.07529-.00693-.15039-.01571-.22574-.02188-.17772-.0145-.35552-.02491-.53351-.03502-.12327-.0071-.24654-.01307-.36987-.01801-.17014-.00675-.34011-.01326-.51023-.01604-.16508-.00267-.33021-.00122-.4953-.00011-.2357.00164-.47117.00697-.70674.01637-.159.00629-.31791.01324-.47679.02305-.14705.00917-.29399.01975-.44088.03196-.17817.01477-.35596.03288-.53373.05212-.1425.01548-.28498.03017-.42712.04854-.25375.03271-.50698.07035-.7597.11232-.12256.02039-.24473.04327-.36701.06588-.1925.03546-.38452.07381-.57619.11476-.11207.02397-.22418.0469-.3359.07274-.28301.06526-.56513.13581-.84598.21313-.08533.02351-.16996.05007-.255.07466-.21902.06331-.43728.13003-.65469.20073-.10081.0328-.20147.06594-.30191.10037-.25156.08608-.5019.17675-.75084.27284-.04331.0167-.0871.03163-.13037.04867-.28717.11308-.57188.235-.85517.3615-.08529.03816-.16993.07775-.2548.11705-.22413.10381-.44676.2119-.66816.3242-.07049.03579-.14138.07021-.21158.10682-.28057.14647-.55889.29965-.83456.46008-.06004.03497-.11922.07209-.17904.10777-.22478.13381-.44767.27242-.66873.41563-.07585.04914-.15172.09814-.22715.14842-.27239.18158-.54288.36771-.80914.56379-.50786.37401-.99405.76591-1.45373,1.17643-2.97056,2.62368-5.03504,5.96035-6.14199,9.59102-.30788,1.00935-.54162,2.04147-.70016,3.08757-.2923,1.92934-.3269,3.90601-.09947,5.87412-3.62936.11445-7.23984-1.58062-10.19785-2.97499-4.1222-1.94317-5.39803-3.76598-10.68633-5.46038-2.00809-.64332-3.1328-.79983-3.47854-.3205-.1424.19738-.51751,1.00822,4.66277,7.55457,3.19502,4.03782,4.26227,4.89781,3.95028,6.0978-.62581,2.40648-5.80617,2.36522-5.98736,4.58945-.06375.78196.51533,1.53824,1.00541,1.90532,1.03407.77451,1.91466-.00175,3.73244.36996,2.31206.47275,3.68322,2.30009,3.95123,2.67442.76463,1.06803.99526,2.10179,1.13627,2.76599.83315,3.92384-1.38109,5.94469-.09305,8.4418.23309.45209.88356,1.71319,1.85986,1.77878,1.58763.10662,2.79137-3.03148,7.79673-12.39983.92126-1.72429,1.66784-3.09124,3.18425-4.44221.9032-.80464,1.62779-1.20099,2.26267-1.50792.37068.61661.77237,1.22228,1.208,1.8138.00128.00174.00268.00335.00393.00506.21196.28754.43016.56754.65254.84229.07535.09305.1535.18247.22996.27408.15062.18025.30207.35937.45708.53392.09441.1063.19081.20983.28685.314.14171.15369.28436.30585.42944.45484.10505.10797.21108.21434.31783.31986.14067.13895.28298.27519.42647.40983.11261.10561.22514.21111.33949.31404.14222.12814.28683.25235.43165.3763.11847.1015.23605.20432.35626.30298.14578.11963.29444.23419.44256.34971.24412.19057.49147.37514.74182.55452.12942.09265.25738.18794.38835.27764.16478.11287.33261.21936.49966.32746.11124.07189.22151.14541.33373.21512.17345.10794.34907.21096.52489.31384.10675.06242.21333.12518.3209.18576.18304.10314.36747.20269.5528.30037.09982.05259.19995.10434.30043.15531.1952.09915.39121.19605.58874.28925.08469.03991.16994.07806.25507.11687.21531.09825.43096.19515.64864.28638.04025.01677.08086.03204.1211.04865,6.76448,2.78629,14.63663,2.15452,20.80127-2.38537,5.85207-4.3097,8.79697-11.13693,8.52063-18.05372,1.85035.40133,3.06773.55343,4.5346.845,1.99325.39635,4.15401,1.14704,8.47545,2.64858,3.40471,1.18308,6.00571,2.20426,8.87923,1.53563.68863-.16025,1.4119-.42197,1.75622-1.04864.74227-1.35091-.78218-3.47706-1.36798-4.29413-2.58016-3.59844-5.41587-3.75119-5.42621-5.46494-.00863-1.45009,2.01969-1.61385,2.80492-4.24962.14136-.47446.69839-2.55999-.28947-3.46574-.62203-.57038-1.62402-.45948-3.52169-.2494-1.95297.21612-2.67247.62837-3.35187.13615-.67485-.48884-.74359-1.4594-.74905-1.74893-.01913-1.00342.57286-1.56213,1.26915-2.7276.19343-.32375,1.10217-1.87809,1.39854-3.34771.25769-1.2785.35219-3.98226-1.30549-5.09408Z"/>
        <path class="cls-10" d="m225.43141,15.44847c7.28158,9.88754,5.44971,23.59501-4.08643,30.6178-9.53895,7.02487-23.16988,4.70483-30.45147-5.18271-4.41305-5.99241-5.47756-13.38813-3.50723-19.84769,1.10695-3.63067,3.17144-6.96734,6.14199-9.59102.45968-.41052.94587-.80242,1.45373-1.17643,9.53614-7.0228,23.16982-4.70478,30.4494,5.18005Z"/>
      </g>
      <g>
        <g>
          <path class="cls-2" d="m233.41931,68.91695c-1.59719,1.26564-2.63851.65077-5.13314,2.08531-1.76057,1.01244-2.77082,2.19789-4.02513,3.69743-6.8149,8.14728-8.63475,10.97303-10.16698,10.54407-.94227-.26379-1.3212-1.63123-1.45702-2.12139-.75036-2.70769,1.83032-4.23324,1.81685-8.24449-.00225-.679-.01661-1.73811-.54683-2.93986-.18583-.42121-1.15447-2.49027-3.32098-3.42572-1.70341-.73548-2.72409-.15563-3.57799-1.12517-.40469-.45951-.81693-1.3182-.59475-2.07058.63206-2.14021,5.69459-1.0408,6.79914-3.26852.55079-1.1109-.31811-2.17091-2.62028-6.77658-3.73253-7.46714-3.19959-8.18417-3.01992-8.34823.4365-.39856,1.50547-.01543,3.33956,1.02485,4.83023,2.73971,5.70648,4.78485,9.34438,7.52968,3.28506,2.47856,7.48173,5.64502,12.21993,5.09829,1.23276-.14227,2.20556-.50162,2.91732.10146,1.52813,1.29482.74352,6.08591-1.97418,8.23947Z"/>
          <path class="cls-4" d="m218.01851,78.01061c-.23464.1073-.50988.12662-.77192.0323-.53129-.19159-.80692-.77756-.61578-1.30901.86275-2.39546,2.65435-5.81456,6.28858-8.49993,2.1338-1.57718,4.65787-2.68195,7.29961-3.19477.55466-.10794,1.09149.25427,1.19898.80877.10766.55406-.25267,1.09259-.80877,1.19898-2.34507.4555-4.58351,1.43478-6.47418,2.83197-3.22216,2.38089-4.8128,5.4189-5.57943,7.5482-.09726.26924-.29578.47314-.53709.58348Z"/>
          <path class="cls-4" d="m231.95225,65.9324c-.04057.01855-.08285.03496-.12696.04817-2.88964.88572-5.8832,1.41848-8.89735,1.5836-2.76789.15208-5.55849-.00649-8.29376-.47078-.55686-.0946-.93163-.62279-.83734-1.17951.0946-.55686.62188-.93122,1.17951-.83734,2.58569.43897,5.2233.5888,7.83983.44516,2.84891-.15582,5.67849-.65972,8.41-1.49657.53999-.16565,1.11192.13804,1.27727.67816.15213.49602-.0919,1.01907-.5512,1.22909Z"/>
          <path class="cls-4" d="m230.88963,64.66372c-.12292.05621-.25857.08859-.402.09194-2.22536.05043-5.63264-.26874-9.22494-2.07485-2.66799-1.34105-5.03022-3.31355-6.8313-5.70482-.33991-.45115-.24939-1.09217.20176-1.43208.45022-.33875,1.09217-.24939,1.43208.20176,1.61269,2.14099,3.7275,3.90705,6.11612,5.10788,3.21616,1.6168,6.26693,1.90241,8.26,1.85716.56447-.01285,1.03263.43457,1.04561.99934.00963.42134-.23704.78892-.59734.95367Z"/>
          <path class="cls-2" d="m269.87121,58.29863c3.22768-2.53012,4.91341-1.72305,7.76865-4.28109.95512-.85572,1.68842-1.90012,3.15514-3.98907,2.82416-4.02221,2.89765-5.41057,4.73793-6.29111,1.54886-.7411,3.89-.90278,5.12053.35584,1.39531,1.42725.75014,4.05456.23646,5.25342-.59047,1.37797-1.79778,2.71371-2.05331,2.99108-.91992.99854-1.61363,1.42444-1.80003,2.41057-.05377.2845-.18497,1.24865.37569,1.86513.5645.62067,1.35301.36426,3.30899.55191,1.90047.18233,2.90397.27861,3.39633.96407.78184,1.08856-.18985,3.01622-.42522,3.45175-1.3074,2.41955-3.32644,2.16524-3.61436,3.58643-.3403,1.6797,2.4043,2.40893,4.19434,6.45884.4064.91957,1.46407,3.31243.46124,4.4831-.46516.54304-1.22658.65134-1.93343.66743-2.94953.06707-5.28684-1.46427-8.37786-3.31835-3.92321-2.35327-5.8848-3.52986-7.755-4.32529-1.75842-.74789-3.16036-1.18655-5.85295-2.49375-3.92828-1.90704-4.34528-2.62422-4.47055-3.18459-.4548-2.03473,2.42525-4.29236,3.52741-5.15634Z"/>
          <path class="cls-4" d="m275.75651,60.36697c-1.30946.59878-2.67779,1.07841-4.0947,1.4342-.5481.13751-1.10353-.19495-1.24135-.74291-.13737-.54779.19961-1.10456.74274-1.24091,2.3592-.59192,4.57105-1.5605,6.57479-2.87614,4.13545-2.71725,6.46366-6.32059,7.68853-8.8648.24476-.50947.85597-.72271,1.36514-.47781.50887.24503.72284.85627.47781,1.36514-1.33681,2.77733-3.88125,6.71237-8.40866,9.68682-.99023.65085-2.02736,1.22394-3.1043,1.71639Z"/>
          <path class="cls-4" d="m288.63066,61.81462c-.1423.06507-.30137.09827-.46827.09113-3.22993-.13706-6.49552-.02865-9.70605.32181-2.86002.31245-5.72587.82269-8.5181,1.51634-.54821.13646-1.10299-.19776-1.23901-.74581-.13619-.5476.19793-1.10343.74581-1.23901,2.8812-.71603,5.83819-1.24232,8.78914-1.56487,3.31298-.3618,6.68251-.47344,10.01509-.33207.56408.02394,1.00217.50085.97837,1.06523-.01696.39762-.25847.73246-.59696.88724Z"/>
          <path class="cls-4" d="m288.58446,71.6205c-.3618.16544-.80293.11018-1.11539-.17525-2.19255-2.0025-4.69575-3.59242-7.43937-4.725-2.67972-1.10652-5.50735-1.74236-8.40426-1.89004-.56406-.0287-.998-.50934-.9693-1.07341.02824-.56349.50818-.99893,1.07341-.9693,3.12994.15935,6.18536.84662,9.08068,2.04198,2.9648,1.224,5.66915,2.94158,8.03812,5.10575.41715.38069.44649,1.02767.06536,1.44465-.09556.10483-.20785.1851-.32926.24062Z"/>
          <path class="cls-9" d="m270.62923,54.17389c5.10649,11.16731.51108,24.21079-10.25934,29.1358-10.7736,4.92646-23.64237-.13116-28.74886-11.29847-3.09482-6.76801-2.62494-14.22517.62432-20.14551,1.8258-3.3277,4.5288-6.17186,7.97298-8.13286.53389-.30787,1.08994-.59211,1.66353-.8544,10.77042-4.925,23.6423.1312,28.74738,11.29544Z"/>
          <path class="cls-7" d="m265.05134,53.80881c4.34066,9.49254.43443,20.57988-8.72074,24.76628-9.15787,4.18763-20.09671-.11149-24.43737-9.60403-2.63069-5.75301-2.23127-12.09181.53069-17.12428,1.55198-2.82864,3.84961-5.24626,6.77727-6.91317.45382-.2617.92648-.50331,1.41405-.72626,9.15517-4.1864,20.09664.11152,24.43612,9.60145Z"/>
          <path class="cls-8" d="m266.5329,53.70041c2.09109,4.57297,2.2764,9.68371.52144,14.396-1.47062,3.94873-4.41193,6.93559-7.97419,8.56451-3.56226,1.62892-7.74236,1.89848-11.6942.42928-6.4472-2.40112-9.73764-9.59694-7.33652-16.04414,1.96697-5.28156,7.86209-7.97347,13.14221-6.00955,4.34635,1.61867,6.56645,6.47378,4.94773,10.82011-1.34105,3.60083-5.36215,5.43957-8.96299,4.09852-3.00452-1.11894-4.53845-4.47346-3.41946-7.47796.94062-2.52556,3.76187-3.81564,6.28745-2.87507,2.14605.79925,3.24192,3.19579,2.44125,5.33874-.23056.61898-.91572.93228-1.53472.70178-.61751-.22743-.93223-.91569-.70176-1.53468.16489-.44276.14945-.91923-.04761-1.35018-.19564-.42785-.54736-.7543-.99013-.91924-1.2921-.48125-2.7369.17942-3.21809,1.47154-.65956,1.77106.24492,3.74906,2.01596,4.40868,1.14757.42736,2.39082.38367,3.50386-.12529s1.96243-1.42217,2.38984-2.56973c.56201-1.50905.50298-3.14641-.16616-4.60975s-1.86901-2.57907-3.37805-3.14104c-4.04813-1.50767-8.56531.55791-10.07292,4.60606-1.94178,5.21375.71922,11.03305,5.93299,12.97478,6.66858,2.48356,14.11554-.92172,16.60221-7.59171,3.16019-8.49237-1.17508-17.97313-9.66435-21.13483-5.21831-1.94345-10.87756-1.73598-15.94032.57908-2.70347,1.23622-5.06048,2.99253-6.97103,5.15941,1.8258-3.3277,4.5288-6.17186,7.97298-8.13286,5.10738-1.79939,10.63424-1.75519,15.76816.1594,4.71225,1.75497,8.45675,5.23829,10.54642,9.80816Z"/>
          <path class="cls-11" d="m235.60747,74.6598c-3.09482-6.76801-2.62494-14.22517.62441-20.14551,1.8257-3.3277,4.5287-6.17187,7.9729-8.13282.53387-.30791,1.08994-.59211,1.66353-.8544,6.12434-2.80048,12.92636-2.37011,18.59528.57176-6.23351-5.17848-14.93576-6.71669-22.58172-3.22041-.57359.26229-1.12964.54652-1.66353.8544-3.44418,1.96099-6.14718,4.80516-7.97298,8.13286-3.24925,5.92035-3.71913,13.3775-.62432,20.14551,2.2034,4.81858,5.85359,8.49613,10.15553,10.72838-2.54856-2.117-4.68715-4.83889-6.16911-8.07977Z"/>
        </g>
        <path class="cls-10" d="m290.65344,44.09322c-1.23045-1.25865-3.57167-1.09695-5.12045-.35588-1.84028.88054-1.91378,2.26889-4.73793,6.29111-1.46672,2.08895-2.2001,3.13338-3.15522,3.9891-2.25412,2.01955-3.78197,1.94679-5.91254,3.06952-.29763-.98051-.65943-1.95406-1.09803-2.91322-1.70496-3.72855-4.27904-6.77117-7.34901-8.9929-.00585-.00419-.01151-.00856-.01736-.01275-.18968-.13702-.38151-.27032-.57499-.40104-.03585-.02415-.07185-.04786-.10778-.07179-.57558-.38411-1.16662-.74001-1.7716-1.06712-.05359-.02894-.10719-.05788-.16098-.08645-.19411-.10288-.38894-.20392-.58574-.30085-.01509-.00738-.03032-.01428-.04541-.02165-.38742-.18979-.78007-.36698-1.1769-.53333-.0651-.02729-.12975-.05539-.19502-.08205-.18506-.07549-.37092-.14809-.55767-.21846-.08514-.03209-.17078-.06266-.25626-.09368-.34312-.12433-.68872-.24008-1.03705-.34698-.07228-.02218-.144-.04613-.21649-.06757-.171-.05053-.34292-.09707-.51509-.14335-.11922-.03215-.23866-.0632-.35838-.09325-.16517-.04139-.33022-.08251-.49618-.12001-.16104-.03636-.32299-.0687-.48482-.10137-.23106-.04658-.46264-.0895-.69516-.12846-.15692-.02635-.31391-.05203-.47143-.07491-.14582-.02109-.29182-.04076-.4381-.05885-.17743-.02196-.35516-.04058-.53312-.05809-.14266-.01397-.28513-.02872-.42802-.0398-.25508-.01986-.51065-.03478-.76661-.04536-.12414-.0051-.24841-.00767-.37272-.01054-.19569-.00465-.39149-.00635-.58748-.00546-.1146.00056-.22903.00008-.34368.00254-.29038.00603-.58096.01741-.87168.03568-.08833.00557-.1766.01427-.26488.02096-.22734.0172-.45463.03789-.6819.06265-.10539.01149-.2107.02336-.31606.03653-.26384.03284-.52744.07041-.79076.11358-.04581.00749-.09172.01316-.13756.02099-.30423.05199-.60784.11312-.91101.17904-.09129.01992-.18224.04137-.27335.06249-.24062.0558-.48065.1161-.72032.18076-.07632.02062-.15274.03983-.22895.06131-.30459.08602-.60835.17907-.91099.27975-.06592.02195-.13144.04619-.19729.06889-.24739.08503-.49391.17515-.73958.27014-.0843.0326-.16857.06505-.25269.09885-.30376.12206-.60659.24896-.90731.38647-.57359.26229-1.12964.54652-1.66353.8544-3.44418,1.96099-6.14718,4.80516-7.97298,8.13286-.50772.9251-.94752,1.88764-1.31657,2.87923-.68055,1.82884-1.1185,3.75669-1.29822,5.72973-3.57611-.62992-6.76382-3.02728-9.3743-4.99691-3.6379-2.74483-4.51414-4.78997-9.34438-7.52968-1.83417-1.04025-2.90313-1.42338-3.33956-1.02485-.17975.1641-.71269.88113,3.01992,8.34823,2.30209,4.60571,3.17099,5.66571,2.62028,6.77658-1.10455,2.22772-6.16708,1.12831-6.79914,3.26852-.22226.75242.18998,1.61111.59467,2.07062.85389.96954,1.87458.3897,3.57799,1.12517,2.16659.93542,3.13522,3.00448,3.32106,3.42569.53014,1.20178.54457,2.26087.54683,2.93986.0134,4.01129-2.5672,5.53681-1.81685,8.24449.13575.49019.51467,1.85763,1.45694,2.12142,1.5323.42893,3.35215-2.39682,10.16698-10.54407,1.25431-1.49954,2.26456-2.685,4.02513-3.69743,1.04862-.60301,1.83893-.84286,2.52315-1.01351.2368.67937.50619,1.35436.81169,2.02245.0009.00197.00193.00383.00282.00576.1487.3248.30505.64349.46657.9579.05473.10648.11296.21.16907.3153.1106.20723.22223.41354.33827.61608.07068.12335.14388.24441.2166.366.1073.17941.21583.35752.32738.53302.08075.12717.1628.25296.24573.37808.1093.16477.22074.32723.33369.48836.08864.1264.17723.25268.26812.37681.11302.15451.22918.30566.34561.4566.09522.12357.1893.24826.2868.36941.11824.1469.24034.28944.36173.4328.20001.23645.4044.46769.61279.69446.10775.11715.21352.23659.32339.35117.13823.14417.28074.28272.42217.42269.09419.09311.18711.18762.2827.27881.14772.14111.29857.27787.44964.41452.09173.08293.18323.16615.27614.24744.15809.13838.31827.27353.47972.40704.08696.07189.17439.14301.26233.21344.1708.13696.34287.27189.51718.4035.07474.05638.1504.11115.22579.16655.19067.14019.38197.27913.5764.41293.03598.02464.0726.04789.1086.07238,6.05202,4.11031,13.88707,5.10119,20.84961,1.91742,6.60952-3.02234,10.88791-9.10336,12.03141-15.93057,1.72923.77112,2.8898,1.16888,4.26609,1.75417,1.87013.79546,3.83179,1.97202,7.755,4.32529,3.09094,1.85412,5.42826,3.38545,8.37779,3.31839.70685-.01609,1.46834-.12443,1.9335-.66747,1.00276-1.17063-.05484-3.56353-.46124-4.4831-1.79004-4.04991-4.53463-4.77914-4.19441-6.45881.28799-1.42123,2.30696-1.16688,3.61444-3.58646.23537-.43554,1.20698-2.36315.42514-3.45172-.49228-.6855-1.49579-.78177-3.39633-.96407-1.95591-.18769-2.74449.06876-3.30891-.55195-.56066-.61648-.42954-1.58059-.37569-1.86513.1864-.98614.88011-1.41203,1.79995-2.41054.25553-.27737,1.46284-1.61311,2.05338-2.99111.51361-1.19882,1.15885-3.82616-.23654-5.25338Z"/>
        <path class="cls-10" d="m270.62923,54.17389c5.10649,11.16731.51108,24.21079-10.25934,29.1358-10.7736,4.92646-23.64237-.13116-28.74886-11.29847-3.09482-6.76801-2.62494-14.22517.62432-20.14551,1.8258-3.3277,4.5288-6.17186,7.97298-8.13286.53389-.30787,1.08994-.59211,1.66353-.8544,10.77042-4.925,23.6423.1312,28.74738,11.29544Z"/>
      </g>
    </g>
  </g>
</svg>