<?xml version="1.0" encoding="UTF-8"?>
<svg id="Layer_2" data-name="Layer 2" xmlns="http://www.w3.org/2000/svg" viewBox="0 0 230.9341 88.04907">
  <defs>
    <style>
      .cls-1 {
        fill: #006845;
      }

      .cls-2 {
        fill: #fff;
      }

      .cls-3 {
        fill: #b7530d;
        opacity: .85;
      }
    </style>
  </defs>
  <g id="SIGNS">
    <g>
      <rect class="cls-1" x="2.97889" y="2.98031" width="224.97646" height="82.08971" rx="14.37791" ry="14.37791"/>
      <path class="cls-2" d="M230.92417,16.59172v-.00993c-.3571-9.19888-7.95847-16.58179-17.23658-16.58179H17.24663c-.25801,0-.51591,.00993-.77392,.01987-.1886,.00993-.37721,.01987-.56569,.03967-.32755,.01987-.64504,.05954-.97246,.09927-.24808,.03967-.48623,.07934-.73431,.11907-1.00226,.16868-1.96479,.43663-2.8877,.78392-.25801,.08934-.49616,.18854-.74424,.28775-1.1114,.46642-2.16332,1.05186-3.14572,1.73657C4.00904,5.45779,1.49842,9.0302,.48623,13.17812c-.31749,1.30988-.48623,2.66936-.48623,4.06851v53.55581c0,9.50656,7.74019,17.24663,17.24663,17.24663H213.68759c4.20745,0,8.06749-1.51817,11.06434-4.03871,3.78082-3.16546,6.18217-7.90881,6.18217-13.20792V17.24663c0-.22822,0-.43663-.00993-.65491Zm-5.94402,54.21072c0,3.54267-1.63724,6.70813-4.20745,8.77225-1.93499,1.57776-4.40587,2.52043-7.0851,2.52043H17.24663c-6.22178,0-11.29268-5.07077-11.29268-11.29268V17.24663c0-.66484,.0596-1.31981,.17855-1.95485,.60543-3.51287,2.86796-6.47992,5.93421-8.06762,.61524-.32748,1.26015-.59543,1.93511-.79391,1.03194-.30762,2.12347-.4763,3.2448-.4763H213.68759c3.72122,0,7.02563,1.81597,9.07969,4.60441,1.38928,1.86558,2.21287,4.18759,2.21287,6.68827v53.55581Z"/>
      <path class="cls-3" d="M162.85074,88.04907H78.14568c.35734-2.16332,1.16107-4.17765,2.30226-5.95396,2.86772-4.50508,7.91874-7.49199,13.65442-7.49199,5.50734,0,10.37969,2.7587,13.29707,6.97608,2.60001-3.02664,6.44019-4.94189,10.73704-4.94189,3.31434,0,6.35079,1.1412,8.7622,3.04639,3.55248-5.22946,9.55611-8.67292,16.36345-8.67292,7.8096,0,14.54753,4.52507,17.76266,11.08433,.91286,1.84571,1.53815,3.8403,1.82597,5.95396Z"/>
      <path class="cls-3" d="M230.9341,43.54327v27.25917c0,5.29911-2.40135,10.04246-6.18217,13.20792-1.70677-1.08172-3.08612-2.60982-3.97924-4.43567-.73431-1.45869-1.14108-3.11604-1.14108-4.86242,0-4.00904,2.14334-7.51186,5.34853-9.44696,1.38928-.83352,2.97698-1.37935,4.68375-1.52822-2.01433-2.58002-3.23499-5.83482-3.23499-9.3675,0-4.23725,1.72676-8.05774,4.5052-10.82631Z"/>
      <path class="cls-3" d="M158.57376,0c-.81378,2.26253-2.10385,4.28686-3.76095,5.95396-2.94718,2.96705-7.03556,4.81282-11.55069,4.81282-4.10824,0-7.84933-1.53815-10.71705-4.04871-3.76095,3.55254-8.82191,5.74555-14.40859,5.74555-5.98376,0-11.37202-2.50062-15.19257-6.50966-1.65711-1.72664-3.01671-3.74109-3.9991-5.95396h59.62896Z"/>
      <path class="cls-3" d="M39.22668,0c-.68465,2.2526-1.88544,4.27692-3.45328,5.95396-2.78849,2.96705-6.73793,4.81282-11.12394,4.81282-4.1183,0-7.84945-1.63736-10.5981-4.29679,.06941,.76411,.03961,1.53809-.11907,2.31214-.76411,3.80057-4.06863,6.43025-7.79979,6.50966-.18848,.00987-.3869,.00987-.58532,0-.39708-.01987-.79391-.06947-1.2008-.14887-1.48849-.29769-2.81817-.99233-3.86016-1.96479C1.49842,9.0302,4.00904,5.45779,7.42258,3.08612c.98239-.68471,2.03432-1.27015,3.14572-1.73657,.24808-.09921,.48623-.19842,.74424-.28775q.00993,0,.01987,.00993c.92292-.33742,1.87551-.61524,2.86784-.79385,.24808-.03973,.48623-.0794,.73431-.11907,.32742-.03973,.64492-.0794,.97246-.09927,.18848-.01981,.37709-.02974,.56569-.03967,.25801-.00993,.51591-.01987,.77392-.01987h21.98005Z"/>
      <circle class="cls-3" cx="18.27634" cy="16.89298" r="3.70508"/>
      <path class="cls-3" d="M30.69258,88.04907h-13.44595c-9.50644,0-17.24663-7.74007-17.24663-17.24663v-16.08557c2.2824,0,4.36626,.85339,5.95396,2.2526,1.85564,1.64723,3.02664,4.04865,3.02664,6.71807,0,.94266-.14887,1.84571-.41682,2.6991,8.32563,.09921,15.05363,6.87675,15.05363,15.23218,0,.15881,0,.31749-.01987,.4763-.0298,1.07167-.18848,2.11366-.42663,3.12585,.4763-.09921,.97246-.14887,1.47856-.14887,2.46095,0,4.65395,1.16107,6.04311,2.97698Z"/>
      <path class="cls-3" d="M230.92417,16.58179c-3.36388-.93279-5.83476-3.9693-5.93409-7.60125-.69458,.5855-1.43882,1.1114-2.2228,1.57783-2.42122,1.42895-5.23951,2.24267-8.23636,2.24267-5.46773,0-10.31016-2.69916-13.25734-6.84707-1.26027-1.75644-2.16332-3.77083-2.62981-5.95396h15.04382c9.2781,0,16.87948,7.38291,17.23658,16.58179Z"/>
      <circle class="cls-3" cx="212.46085" cy="79.53976" r="4.9376"/>
      <path class="cls-3" d="M93.29852,0c-.48623,.72438-1.02212,1.40909-1.6175,2.04419-1.62743,1.73657-3.65181,3.08612-5.91435,3.90977-1.64717,.6053-3.41354,.93279-5.26919,.93279s-3.63195-.32748-5.27912-.93279c-2.05418-.75418-3.89989-1.93505-5.42799-3.42354-.78398-.76405-1.48849-1.6175-2.08398-2.53042h25.59213Z"/>
    </g>
  </g>
</svg>