<svg width="368" height="464" viewBox="0 0 368 464" fill="none" xmlns="http://www.w3.org/2000/svg">
<g filter="url(#filter0_d_5150_4626)">
<path d="M124.157 337.268C121.048 385.138 82.9696 432.335 64.3189 449.95H93.8493C108.614 449.95 143.585 443.733 159.904 441.402C176.223 439.07 187.88 443.733 199.537 449.95C208.862 454.923 231.399 455.649 241.501 455.39L236.839 443.733L299.008 449.95C290.978 443.474 273.052 428.035 265.592 418.088C256.266 405.654 220.519 325.611 233.73 282.87C246.941 240.129 280.357 221.478 306.779 198.942C327.916 180.912 353.406 143.248 363.508 126.67L333.978 115.013C325.43 126.411 303.67 154.335 285.02 174.851C266.369 195.367 234.248 211.893 220.519 217.592C222.591 202.568 228.757 168.634 236.839 153.092C244.921 137.549 269.218 91.6996 280.357 70.7175H232.953C229.326 80.3019 220.364 103.667 213.525 120.453C206.686 137.239 186.326 166.303 177.001 178.737C163.79 156.459 136.124 107.086 131.151 87.814C126.177 68.5416 131.669 24.8677 135.036 5.43981L126.488 0C124.157 7.51212 118.562 27.199 114.831 45.8498C111.101 64.5006 111.205 89.3683 111.723 99.4708L29.3487 48.9583L20.8004 61.3921C28.5716 66.5729 50.0199 81.4417 73.6443 99.4708C103.175 122.007 118.717 151.537 126.488 165.526C132.705 176.716 134.777 192.466 135.036 198.942C129.078 198.423 114.831 197.076 105.506 195.833C93.8493 194.279 42.5596 159.309 20.8004 136.772C3.39302 118.743 -9.76614 82.1152 -14.1698 66.0548H-32.0434L0.595406 132.11L-74.7848 115.013C-37.2242 138.845 37.8969 187.751 37.8969 192.725C37.8969 197.698 -8.72998 192.725 -32.0434 189.616V202.827C-4.84441 205.677 56.2369 214.173 82.9696 225.363C116.386 239.352 128.042 277.43 124.157 337.268Z" fill="#6B5E40"/>
</g>
<defs>
<filter id="filter0_d_5150_4626" x="-78.7848" y="0" width="446.293" height="463.435" filterUnits="userSpaceOnUse" color-interpolation-filters="sRGB">
<feFlood flood-opacity="0" result="BackgroundImageFix"/>
<feColorMatrix in="SourceAlpha" type="matrix" values="0 0 0 0 0 0 0 0 0 0 0 0 0 0 0 0 0 0 127 0" result="hardAlpha"/>
<feOffset dy="4"/>
<feGaussianBlur stdDeviation="2"/>
<feComposite in2="hardAlpha" operator="out"/>
<feColorMatrix type="matrix" values="0 0 0 0 0 0 0 0 0 0 0 0 0 0 0 0 0 0 0.25 0"/>
<feBlend mode="normal" in2="BackgroundImageFix" result="effect1_dropShadow_5150_4626"/>
<feBlend mode="normal" in="SourceGraphic" in2="effect1_dropShadow_5150_4626" result="shape"/>
</filter>
</defs>
</svg>
