<?xml version="1.0" encoding="UTF-8"?>
<svg id="Layer_2" data-name="Layer 2" xmlns="http://www.w3.org/2000/svg" viewBox="0 0 82.19023 480.75306">
  <defs>
    <style>
      .cls-1 {
        fill: #6e502c;
      }

      .cls-2 {
        fill: #5d3e1f;
      }

      .cls-3 {
        fill: #482f1c;
      }

      .cls-4 {
        fill: #7c603b;
      }

      .cls-5 {
        stroke: #482f1c;
        stroke-width: .75px;
      }

      .cls-5, .cls-6, .cls-7 {
        fill: none;
        stroke-miterlimit: 10;
      }

      .cls-6 {
        stroke: #000;
        stroke-width: 2px;
      }

      .cls-7 {
        stroke: #5d3e1f;
      }
    </style>
  </defs>
  <g id="candy_groups" data-name="candy groups">
    <g>
      <g>
        <rect class="cls-2" x="-20.68295" y="407.00482" width="111.32191" height="33.15972" transform="translate(456.95893 372.79554) rotate(87.85752)"/>
        <polygon class="cls-4" points="49.46541 367.3428 47.18706 369.79824 40.18949 427.53795 51.1717 476.30854 53.62714 478.58689 49.46541 367.3428"/>
        <polygon class="cls-3" points="16.32887 368.58246 18.78432 370.86081 32.76338 434.44394 22.76895 477.37111 20.49061 479.82655 16.32887 368.58246"/>
        <rect class="cls-1" x="-18.3144" y="409.37337" width="106.58481" height="28.42262" transform="translate(456.95893 372.79554) rotate(87.85752)"/>
        <rect class="cls-5" x="-18.3144" y="409.37337" width="106.58481" height="28.42262" transform="translate(456.95893 372.79554) rotate(87.85752)"/>
        <rect class="cls-6" x="-20.68295" y="407.00482" width="111.32191" height="33.15972" rx="2.00409" ry="2.00409" transform="translate(456.95893 372.79554) rotate(87.85752)"/>
        <rect class="cls-7" x="-14.76157" y="412.92619" width="99.47915" height="21.31696" transform="translate(456.95893 372.79554) rotate(87.85752)"/>
      </g>
      <g>
        <rect class="cls-2" x="-31.50467" y="41.47993" width="111.32191" height="33.15972" transform="translate(84.77484 41.3309) rotate(97.16229)"/>
        <polygon class="cls-4" points="47.54659 4.90034 44.9012 6.9551 28.66 62.80367 31.61219 112.70822 33.66695 115.3536 47.54659 4.90034"/>
        <polygon class="cls-3" points="14.64561 .76598 16.70037 3.41136 20.215 68.4181 3.41136 109.16449 .76598 111.21924 14.64561 .76598"/>
        <rect class="cls-1" x="-29.13612" y="43.84848" width="106.58481" height="28.42262" transform="translate(84.77484 41.3309) rotate(97.16229)"/>
        <rect class="cls-5" x="-29.13612" y="43.84848" width="106.58481" height="28.42262" transform="translate(84.77484 41.3309) rotate(97.16229)"/>
        <rect class="cls-6" x="-31.50467" y="41.47993" width="111.32191" height="33.15972" rx="2.00409" ry="2.00409" transform="translate(84.77484 41.3309) rotate(97.16229)"/>
        <rect class="cls-7" x="-25.58329" y="47.40131" width="99.47915" height="21.31696" transform="translate(84.77484 41.3309) rotate(97.16229)"/>
      </g>
      <g>
        <rect class="cls-2" x="-3.47356" y="220.04105" width="111.32191" height="33.15972" transform="translate(269.43196 129.29998) rotate(76.1478)"/>
        <polygon class="cls-4" points="54.95882 178.60925 53.22623 181.47599 58.09274 239.43422 78.74455 284.96094 81.61129 286.69354 54.95882 178.60925"/>
        <polygon class="cls-3" points="22.7635 186.54828 25.63024 188.28087 52.22278 247.70364 51.14857 291.76583 49.41597 294.63257 22.7635 186.54828"/>
        <rect class="cls-1" x="-1.10501" y="222.4096" width="106.58481" height="28.42262" transform="translate(269.43196 129.29998) rotate(76.1478)"/>
        <rect class="cls-5" x="-1.10501" y="222.4096" width="106.58481" height="28.42262" transform="translate(269.43196 129.29998) rotate(76.1478)"/>
        <rect class="cls-6" x="-3.47356" y="220.04105" width="111.32191" height="33.15972" rx="2.00409" ry="2.00409" transform="translate(269.43196 129.29998) rotate(76.1478)"/>
        <rect class="cls-7" x="2.44782" y="225.96243" width="99.47915" height="21.31696" transform="translate(269.43196 129.29998) rotate(76.1478)"/>
      </g>
    </g>
  </g>
</svg>