<?xml version="1.0" encoding="UTF-8"?>
<svg id="Layer_2" data-name="Layer 2" xmlns="http://www.w3.org/2000/svg" viewBox="0 0 440.09088 72.37968">
  <defs>
    <style>
      .cls-1, .cls-2, .cls-3 {
        fill: #c2803f;
      }

      .cls-4, .cls-5, .cls-6 {
        fill: #d19f8e;
      }

      .cls-7 {
        fill: #e1a775;
      }

      .cls-8, .cls-9 {
        fill: #d79659;
      }

      .cls-10, .cls-11 {
        stroke-width: 2px;
      }

      .cls-10, .cls-11, .cls-12, .cls-13 {
        fill: none;
        stroke-linecap: round;
        stroke-linejoin: round;
      }

      .cls-10, .cls-12, .cls-2 {
        stroke: #000;
      }

      .cls-11, .cls-13 {
        stroke: #73422a;
      }

      .cls-12 {
        stroke-width: 1.9658px;
      }

      .cls-13 {
        stroke-width: 1.92576px;
      }

      .cls-2 {
        stroke-miterlimit: 10;
        stroke-width: .75px;
      }

      .cls-5 {
        opacity: .6;
      }

      .cls-14, .cls-6, .cls-3 {
        opacity: .5;
      }

      .cls-14, .cls-15 {
        fill: #aa7442;
      }

      .cls-9 {
        opacity: .8;
      }

      .cls-15 {
        opacity: .3;
      }
    </style>
  </defs>
  <g id="candy_groups" data-name="candy groups">
    <g>
      <g>
        <path class="cls-2" d="m9.10485,38.65319S.77424,44.38187,1.46079,53.0678c.68655,8.68593,24.16748,16.30448,24.16748,16.30448,0,0-1.45904,1.39093,1.65759,1.69358s42.72823-3.37733,42.72823-3.37733c0,0,5.54032-3.06112,5.24753-6.76541s.45688-12.76372-4.94287-15.42023c-5.39975-2.65651-12.64471-11.92439-19.84751-13.3434-7.20281-1.41902-42.03729,5.58956-41.36639,6.49371Z"/>
        <path class="cls-8" d="m38.25448,56.88431s11.74142-8.21977,21.02494-3.52052c9.28352,4.69924,5.63315,12.21166,2.47231,7.7635-1.07183-1.50836-2.23524.06498-2.43949,1.7015s-4.37267,4.36529-5.60687,1.41272c-1.2342-2.95257.57719,1.6997-3.19788-.39955-4.49524-2.49972.00092,2.52634-3.37479,2.31109-3.07654-.19617-3.47283-1.01029-4.89858.2462s-2.85115,1.732-4.23864.54225c-2.00524-1.71946-1.44545-4.93423-6.13195-5.47995-1.32472-.15426-.56007-3.88485,6.39095-4.57725Z"/>
        <path class="cls-1" d="m43.98786,64.34051s.11127-2.98624-2.37966-.47273c-2.49093,2.51351-4.71532,1.64429-4.71532,1.64429,0,0,1.24392,3.03771,3.77151,2.15582s3.32347-3.32737,3.32347-3.32737Z"/>
        <ellipse class="cls-7" cx="53.65696" cy="53.76492" rx="2.54485" ry=".91354" transform="translate(-4.06965 4.39514) rotate(-4.51938)"/>
        <ellipse class="cls-7" cx="40.79151" cy="57.87769" rx=".70343" ry="2.0804" transform="translate(-29.90426 61.86301) rotate(-58.05079)"/>
        <path class="cls-1" d="m43.98786,64.34051s3.0776.91403,4.21954-.33352.68778,2.02669-1.07471,2.14606-4.4247-.23394-3.14484-1.81254Z"/>
        <path class="cls-1" d="m53.29465,61.33365s-1.24954,2.23932-3.1436,1.6037c0,0,1.12481,2.13495,2.15442,1.76965s.98918-3.37335.98918-3.37335Z"/>
        <path class="cls-1" d="m54.38794,61.60293c1.41023.25212,3.78146.32656,4.61944-1.74343.17694-.43708.62799-.70688,1.09674-.65567.93257.10189,2.36761.13282,3.05348-.50119.53292-.49263,1.40793-.28485,1.69423.38202.40771.94967.5615,1.92397-.10565,2.47801-1.60565,1.33342-2.66024-.0749-2.77673-.43862s-1.36384-1.71293-1.67353-.6355-2.24646,5.83897-5.11846,5.0287c-1.659-.46805-2.02962-1.79135-2.04675-2.82565-.01119-.6757.59198-1.20763,1.25722-1.08869Z"/>
        <path class="cls-3" d="m55.44979,52.08135c-.24867.03729-3.4394.04821-4.03222.17681-2.09376.45417.07457,7.12002-3.97834,7.83903-3.80316.6747-6.90408-2.45668-7.81115-2.33555-.7446.09944,5.17908,4.08025,1.34703,6.84502-.35697.25755,1.56213,1.39208,1.88993,1.09668h0c.20673-.1863.51655-.19624.72971-.01604.65669.55513,2.13437,1.55543,3.56426.79867,1.91474-1.01337.23596-2.86558,1.62427-3.07715s2.56259,1.82872,3.54649,1.60566c.80236-.1819,2.20735.48863,2.69852.74227.12164.06282.25491.07806.38676.04435.80051-.20468,3.64593-1.10677,4.52039-3.75766,1.02138-3.09628,2.46367.5021,3.42239.42395s4.24941-1.05806.33035-5.52965c-3.70547-4.22789-5.62918-5.24765-8.23839-4.85637Z"/>
        <path class="cls-3" d="m37.13086,57.05846s-4.33908,2.453-1.83084,4.93468c0,0-3.93196-.85306-4.07732-1.25415s-.18017-3.42911,5.90816-3.68053Z"/>
        <circle class="cls-7" cx="39.06993" cy="59.29397" r=".73147"/>
        <path class="cls-3" d="m62.23013,60.42459c.18702.14169.31189.3279.36501.53705.29339,1.15499,1.0594,5.1102-2.13775,5.33955-3.74651.26875-6.57018,1.09425-8.64761-.54846s-4.26575-.40478-4.73181.18099c-.43527.54706-5.18803,4.08182-7.77932,1.4918-.33783-.33766-.3818-.82731-.0997-1.21309l.24672-.33739c.33893-.46349,1.03349-.63494,1.59849-.39906.8965.37427,2.22045.82493,3.13753.68667,1.50764-.2273,2.57027-2.21175,2.67444-3.0356.09432-.7459,1.79127-.03316,2.11153.10838.03558.01573.06678.03169.10018.05044l1.26043.70737c.41097.23064.95371.22187,1.36903-.02212h0c.43821-.25743,1.01511-.25172,1.42944.01416l1.34992.86627c.26627.17087.60497.23775.9398.18686,1.17632-.17879,3.87361-.76093,4.04582-2.35512.22066-2.04278.73894-2.8777,1.35185-2.92614.41802-.03304,1.05388.39309,1.41599.66743Z"/>
        <path class="cls-5" d="m67.84037,45.07243c-1.07146-.27124-1.65558,1.24298-.68067,1.7637,2.69643,1.4402,5.35071,3.73773,6.08016,7.12832.92388,4.29437.02147,8.19999-.99606,10.14941-.33894.64936.3508,1.36155,1.00176,1.02571,1.46592-.75629,1.98527-3.02923,1.87989-5.93915-.15764-4.35328-.92517-11.34296-3.64095-12.69051-1.21879-.60475-2.42242-1.1282-3.64414-1.43747Z"/>
        <path class="cls-9" d="m19.39906,54.93228c.51194-1.20095.06486-2.59257-1.05241-3.26792-.80293-.48534-1.78539-1.12184-2.82101-1.89102-2.56095-1.90208-3.17656-3.8814-5.49615-3.69806-1.06849.08446-2.44251-.66412-3.61387-1.49619-1.33938-.95143-3.20902-.47498-3.90583,1.01284l-1.00934,2.15512.44191.5024c-.94795,2.09835-.49597,4.21851-.59107,5.79698-.11405,1.89324,9.0111,8.10831,10.3155,8.97469.12207.08108,1.22571.76486,1.35959.82446l1.8603-.47003c1.8489.82306,3.89326-.6712,3.67033-2.68271l-.25719-2.3206c-.04967-.44813.01713-.9015.19394-1.31626l.90528-2.12371Z"/>
        <path class="cls-14" d="m4.60889,43.74049c-.38399.51977-.17915,1.26244.41925,1.50641.98753.40261,2.21764.97171,3.26829,2.54275,1.52405,2.27893,2.60812-.88175,3.13232,2.15261s-.4199,2.38694,4.64634,5.45934c.37375.22666.72246.44956,1.04778.66801,1.85201,1.24364,4.40048.26443,4.84363-1.92194.21066-1.03934.51711-2.08028.95843-3.02448.66443-1.42153.19488-3.11265-1.11858-3.97116l-.2566-.16772c-1.29679-.84762-2.97254-.56719-4.03925.55631-.28392.29904-.51298.31944-.56132-.2922-.0753-.9526-.38576-1.80438-.66691-2.40327-.25601-.54532-.66845-.99962-1.18039-1.31717l-1.61956-1.00457c-.09784-.06068-.19893-.11595-.30283-.16553l-4.02399-1.92044c-.90419-.43152-1.98739-.16113-2.58271.6447l-1.96389,2.65834Z"/>
        <path class="cls-14" d="m16.28226,44.84516s-4.46531-7.00341,6.14004-9.17106c0,0-14.28073,2.67547-14.67982,4.07348s8.53978,5.09758,8.53978,5.09758Z"/>
        <path class="cls-4" d="m5.31394,53.30696c.06785-.82451.07159-1.54644-.08793-1.97848-.37855-1.02524-.28224-1.74788-.0171-2.24989.31746-.60107,1.23019-.32202,1.15004.35299l-.47451,3.99659-.57051-.12122Z"/>
        <circle class="cls-4" cx="5.41695" cy="54.48226" r=".36303"/>
        <circle class="cls-4" cx="5.30676" cy="55.66782" r=".36303"/>
        <path class="cls-14" d="m52.70891,45.73278s1.56343-7.41279-1.68252-7.97674c-3.24595-.56396-10.27932,3.79206-14.48588,2.78219-4.63724-1.11326-2.92094-6.44494,4.67647-7.47653,7.59741-1.03159,8.94303-.87763,8.94303-.87763,0,0,8.86532,3.68954,11.39427,6.36266s8.18068,6.92295,8.18068,6.92295c0,0-7.99918-1.53308-17.02604.2631Z"/>
        <path class="cls-6" d="m60.64283,39.89826c.89589,1.21126,1.40567,2.74806-.81013,3.55183-.32061.1163-.23626.58453.10461.57349,3.03641-.09839,6.61418-.86696,1.12445-4.56076-.28737-.19336-.62491.15697-.41894.43544Z"/>
        <rect class="cls-6" x="33.34647" y="44.46472" width="25.46683" height=".67394" rx=".33697" ry=".33697" transform="translate(-3.38694 3.77023) rotate(-4.51938)"/>
        <path class="cls-15" d="m52.97878,64.67919c-1.4194,3.12824-4.11355,5.42989-8.91812,5.60974l24.36576-1.91271s6.5531-2.67103,6.56323-7.02768-.50781-10.93039-.50781-10.93039c0,0-1.79065-5.14478-6.64147-5.34572s-15.13146.66035-15.13146.66035c0,0,.73471,2.41322,1.22817,5.72698,0,0,7.31805,1.94522,9.19781,4.65185s3.14024,5.84765,1.29904,6.00166-3.48845-1.75382-3.48845-1.75382l-1.02336.26503s-1.29222,4.93211-4.07209,4.87032c-2.77988-.06179-2.87125-.81561-2.87125-.81561Z"/>
        <path class="cls-13" d="m21.73531,56.60608c.02203-1.44398.40616-2.81339,1.07132-4.01364"/>
        <path class="cls-13" d="m21.64943,56.16923c-.00023-.05573.00008-.11136.00093-.16688"/>
        <path class="cls-13" d="m24.28769,49.95063c1.39219-1.3416,3.24292-2.22771,5.32416-2.39221l35.70298-2.82204c4.75713-.37601,8.91715,3.16033,9.29168,7.89865l.51894,6.56538c.37453,4.73832-3.17827,8.8843-7.9354,9.26031l-35.70298,2.82204c-4.75713.37601-8.91715-3.16033-9.29168-7.89865l-.30652-3.87794"/>
        <path class="cls-11" d="m11.93269,42.11812c-2.71247-1.20943-4.89189-2.01987-5.28709-1.70877-1.16934.92049-8.13447,10.57976-4.70512,15.55312s24.75279,14.7025,24.75279,14.7025"/>
        <path class="cls-11" d="m24.60475,48.38724s-1.84776-.97929-4.36002-2.25452c-.3264-.16568-.99136-.21272-.98318.15323.04279,1.91413-2.67006,2.12856-2.16585-.64109.17167-.94301-1.69098-1.86269-2.71687-2.35235"/>
        <path class="cls-11" d="m39.569,67.70244c.86121.12087,1.82014-.26228,2.84096-1.4492.59067-.68678,1.11069-1.32878,1.5779-1.91271"/>
        <path class="cls-11" d="m40.18451,57.81116c-1.22899-.44977-2.99247-.71607-5.35404-.21146-4.52841.96761-4.29081,3.52074-2.75716,3.89003s3.0076.21404,4.16998,2.79603c.48017,1.06661,1.15143,2.12787,1.96586,2.78305"/>
        <path class="cls-11" d="m42.41211,59.21051s-.18739-.2245-.57894-.51853"/>
        <path class="cls-11" d="m43.2569,65.52772s2.89412,1.46018,4.36937.61321c.7441-.4272.75231-1.23297.75178-1.97292-.0006-.83551.88685-1.38992,1.64931-1.04827.33244.14896,1.02128.90525,1.45302,1.16273,2.11938,1.26396,2.16792-2.00117,1.81427-2.94882"/>
        <path class="cls-11" d="m54.99985,65.39154c.34963.1253.75809.17402,1.22667.08313,1.90967-.37043,2.81848-1.48435,3.71105-4.36459.17762-.57315.41085-.69087.653-.77089.84701-.27988,1.83746,2.02165,2.98506,1.99366,1.53014-.03732,3.25621-1.82761-.4963-6.27894s-10.69133-4.43284-11.83669-4.06433-11.01299,2.1689-12.74631,4.73222"/>
        <path class="cls-11" d="m53.40576,63.89661s.15266.32647.46397.68675"/>
        <path class="cls-11" d="m59.71938,59.31002c-.17335-.09597-.34671-.18027-.48978-.23988"/>
        <path class="cls-12" d="m74.10225,50.12167c.25546.71056.42147,1.46592.48377,2.25403l.52783,6.6778c.38094,4.81945-3.26104,9.03867-8.13459,9.42388l-36.57676,2.8911c-3.56857.28207-6.80796-1.56972-8.43646-4.47375"/>
        <path class="cls-12" d="m71.48451,46.5099c1.2821,1.10359,2.01215,1.92731,2.61774,3.61177"/>
        <path class="cls-10" d="m6.04361,41.04509c-2.02048,2.42643-7.14148,10.51105-4.10313,14.91737,2.58956,3.75547,16.13155,10.58189,22.24174,13.52411"/>
        <path class="cls-10" d="m69.10384,44.43689c-4.76428-4.1386-15.16694-12.70079-19.22264-12.27537-4.97929.52231-36.11508,3.38757-42.80878,7.85202"/>
      </g>
      <g>
        <path class="cls-2" d="m204.24134,7.50695s-8.33061,5.72868-7.64406,14.41461c.68655,8.68593,24.16748,16.30448,24.16748,16.30448,0,0-1.45904,1.39093,1.65759,1.69358s42.72823-3.37733,42.72823-3.37733c0,0,5.54032-3.06112,5.24753-6.76541s.45688-12.76372-4.94287-15.42023c-5.39975-2.65651-12.64471-11.92439-19.84751-13.3434-7.20281-1.41902-42.03729,5.58956-41.36639,6.49371Z"/>
        <path class="cls-8" d="m233.39097,25.73807s11.74142-8.21977,21.02494-3.52052c9.28352,4.69924,5.63315,12.21166,2.47231,7.7635-1.07183-1.50836-2.23524.06498-2.43949,1.7015s-4.37267,4.36529-5.60687,1.41272c-1.2342-2.95257.57719,1.6997-3.19788-.39955-4.49524-2.49972.00092,2.52634-3.37479,2.31109-3.07654-.19617-3.47283-1.01029-4.89858.2462s-2.85115,1.732-4.23864.54225c-2.00524-1.71946-1.44545-4.93423-6.13195-5.47995-1.32472-.15426-.56007-3.88485,6.39095-4.57725Z"/>
        <path class="cls-1" d="m239.12435,33.19427s.11127-2.98624-2.37966-.47273c-2.49093,2.51351-4.71532,1.64429-4.71532,1.64429,0,0,1.24392,3.03771,3.77151,2.15582s3.32347-3.32737,3.32347-3.32737Z"/>
        <ellipse class="cls-7" cx="248.79344" cy="22.61868" rx="2.54485" ry=".91354" transform="translate(-1.0087 19.67434) rotate(-4.51938)"/>
        <ellipse class="cls-7" cx="235.928" cy="26.73145" rx=".70343" ry="2.0804" transform="translate(88.4005 212.77507) rotate(-58.05079)"/>
        <path class="cls-1" d="m239.12435,33.19427s3.0776.91403,4.21954-.33352.68778,2.02669-1.07471,2.14606-4.4247-.23394-3.14484-1.81254Z"/>
        <path class="cls-1" d="m248.43114,30.1874s-1.24954,2.23932-3.1436,1.6037c0,0,1.12481,2.13495,2.15442,1.76965s.98918-3.37335.98918-3.37335Z"/>
        <path class="cls-1" d="m249.52443,30.45669c1.41023.25212,3.78146.32656,4.61944-1.74343.17694-.43708.62799-.70688,1.09674-.65567.93257.10189,2.36761.13282,3.05348-.50119.53292-.49263,1.40793-.28485,1.69423.38202.40771.94967.5615,1.92397-.10565,2.47801-1.60565,1.33342-2.66024-.0749-2.77673-.43862s-1.36384-1.71293-1.67353-.6355-2.24646,5.83897-5.11846,5.0287c-1.659-.46805-2.02962-1.79135-2.04675-2.82565-.01119-.6757.59198-1.20763,1.25722-1.08869Z"/>
        <path class="cls-3" d="m250.58628,20.93511c-.24867.03729-3.4394.04821-4.03222.17681-2.09376.45417.07457,7.12002-3.97834,7.83903-3.80316.6747-6.90408-2.45668-7.81115-2.33555-.7446.09944,5.17908,4.08025,1.34703,6.84502-.35697.25755,1.56213,1.39208,1.88993,1.09668h0c.20673-.1863.51655-.19624.72971-.01604.65669.55513,2.13437,1.55543,3.56426.79867,1.91474-1.01337.23596-2.86558,1.62427-3.07715s2.56259,1.82872,3.54649,1.60566c.80236-.1819,2.20735.48863,2.69852.74227.12164.06282.25491.07806.38676.04435.80051-.20468,3.64593-1.10677,4.52039-3.75766,1.02138-3.09628,2.46367.5021,3.42239.42395s4.24941-1.05806.33035-5.52965c-3.70547-4.22789-5.62918-5.24765-8.23839-4.85637Z"/>
        <path class="cls-3" d="m232.26735,25.91222s-4.33908,2.453-1.83084,4.93468c0,0-3.93196-.85306-4.07732-1.25415s-.18017-3.42911,5.90816-3.68053Z"/>
        <circle class="cls-7" cx="234.20641" cy="28.14773" r=".73147"/>
        <path class="cls-3" d="m257.36662,29.27835c.18702.14169.31189.3279.36501.53705.29339,1.15499,1.0594,5.1102-2.13775,5.33955-3.74651.26875-6.57018,1.09425-8.64761-.54846s-4.26575-.40478-4.73181.18099c-.43527.54706-5.18803,4.08182-7.77932,1.4918-.33783-.33766-.3818-.82731-.0997-1.21309l.24672-.33739c.33893-.46349,1.03349-.63494,1.59849-.39906.8965.37427,2.22045.82493,3.13753.68667,1.50764-.2273,2.57027-2.21175,2.67444-3.0356.09432-.7459,1.79127-.03316,2.11153.10838.03558.01573.06678.03169.10018.05044l1.26043.70737c.41097.23064.95371.22187,1.36903-.02212h0c.43821-.25743,1.01511-.25172,1.42944.01416l1.34992.86627c.26627.17087.60497.23775.9398.18686,1.17632-.17879,3.87361-.76093,4.04582-2.35512.22066-2.04278.73894-2.8777,1.35185-2.92614.41802-.03304,1.05388.39309,1.41599.66743Z"/>
        <path class="cls-5" d="m262.97686,13.92619c-1.07146-.27124-1.65558,1.24298-.68067,1.7637,2.69643,1.4402,5.35071,3.73773,6.08016,7.12832.92388,4.29437.02147,8.19999-.99606,10.14941-.33894.64936.3508,1.36155,1.00176,1.02571,1.46592-.75629,1.98527-3.02923,1.87989-5.93915-.15764-4.35328-.92517-11.34296-3.64095-12.69051-1.21879-.60475-2.42242-1.1282-3.64414-1.43747Z"/>
        <path class="cls-9" d="m214.53555,23.78604c.51194-1.20095.06486-2.59257-1.05241-3.26792-.80293-.48534-1.78539-1.12184-2.82101-1.89102-2.56095-1.90208-3.17656-3.8814-5.49615-3.69806-1.06849.08446-2.44251-.66412-3.61387-1.49619-1.33938-.95143-3.20902-.47498-3.90583,1.01284l-1.00934,2.15512.44191.5024c-.94795,2.09835-.49597,4.21851-.59107,5.79698-.11405,1.89324,9.0111,8.10831,10.3155,8.97469.12207.08108,1.22571.76486,1.35959.82446l1.8603-.47003c1.8489.82306,3.89326-.6712,3.67033-2.68271l-.25719-2.3206c-.04967-.44813.01713-.9015.19394-1.31626l.90528-2.12371Z"/>
        <path class="cls-14" d="m199.74537,12.59425c-.38399.51977-.17915,1.26244.41925,1.50641.98753.40261,2.21764.97171,3.26829,2.54275,1.52405,2.27893,2.60812-.88175,3.13232,2.15261s-.4199,2.38694,4.64634,5.45934c.37375.22666.72246.44956,1.04778.66801,1.85201,1.24364,4.40048.26443,4.84363-1.92194.21066-1.03934.51711-2.08028.95843-3.02448.66443-1.42153.19488-3.11265-1.11858-3.97116l-.2566-.16772c-1.29679-.84762-2.97254-.56719-4.03925.55631-.28392.29904-.51298.31944-.56132-.2922-.0753-.9526-.38576-1.80438-.66691-2.40327-.25601-.54532-.66845-.99962-1.18039-1.31717l-1.61956-1.00457c-.09784-.06068-.19893-.11595-.30283-.16553l-4.02399-1.92044c-.90419-.43152-1.98739-.16113-2.58271.6447l-1.96389,2.65834Z"/>
        <path class="cls-14" d="m211.41875,13.69892s-4.46531-7.00341,6.14004-9.17106c0,0-14.28073,2.67547-14.67982,4.07348s8.53978,5.09758,8.53978,5.09758Z"/>
        <path class="cls-4" d="m200.45043,22.16072c.06785-.82451.07159-1.54644-.08793-1.97848-.37855-1.02524-.28224-1.74788-.0171-2.24989.31746-.60107,1.23019-.32202,1.15004.35299l-.47451,3.99659-.57051-.12122Z"/>
        <circle class="cls-4" cx="200.55344" cy="23.33601" r=".36303"/>
        <circle class="cls-4" cx="200.44324" cy="24.52158" r=".36303"/>
        <path class="cls-14" d="m247.8454,14.58654s1.56343-7.41279-1.68252-7.97674c-3.24595-.56396-10.27932,3.79206-14.48588,2.78219-4.63724-1.11326-2.92094-6.44494,4.67647-7.47653,7.59741-1.03159,8.94303-.87763,8.94303-.87763,0,0,8.86532,3.68954,11.39427,6.36266s8.18068,6.92295,8.18068,6.92295c0,0-7.99918-1.53308-17.02604.2631Z"/>
        <path class="cls-6" d="m255.77931,8.75202c.89589,1.21126,1.40567,2.74806-.81013,3.55183-.32061.1163-.23626.58453.10461.57349,3.03641-.09839,6.61418-.86696,1.12445-4.56076-.28737-.19336-.62491.15697-.41894.43544Z"/>
        <rect class="cls-6" x="228.48296" y="13.31847" width="25.46683" height=".67394" rx=".33697" ry=".33697" transform="translate(-.32599 19.04943) rotate(-4.51938)"/>
        <path class="cls-15" d="m248.11527,33.53295c-1.4194,3.12824-4.11355,5.42989-8.91812,5.60974l24.36576-1.91271s6.5531-2.67103,6.56323-7.02768-.50781-10.93039-.50781-10.93039c0,0-1.79065-5.14478-6.64147-5.34572s-15.13146.66035-15.13146.66035c0,0,.73471,2.41322,1.22817,5.72698,0,0,7.31805,1.94522,9.19781,4.65185s3.14024,5.84765,1.29904,6.00166-3.48845-1.75382-3.48845-1.75382l-1.02336.26503s-1.29222,4.93211-4.07209,4.87032c-2.77988-.06179-2.87125-.81561-2.87125-.81561Z"/>
        <path class="cls-13" d="m216.8718,25.45984c.02203-1.44398.40616-2.81339,1.07132-4.01364"/>
        <path class="cls-13" d="m216.78592,25.02299c-.00023-.05573.00008-.11136.00093-.16688"/>
        <path class="cls-13" d="m219.42418,18.80439c1.39219-1.3416,3.24292-2.22771,5.32416-2.39221l35.70298-2.82204c4.75713-.37601,8.91715,3.16033,9.29168,7.89865l.51894,6.56538c.37453,4.73832-3.17827,8.8843-7.9354,9.26031l-35.70298,2.82204c-4.75713.37601-8.91715-3.16033-9.29168-7.89865l-.30652-3.87794"/>
        <path class="cls-11" d="m207.06918,10.97188c-2.71247-1.20943-4.89189-2.01987-5.28709-1.70877-1.16934.92049-8.13447,10.57976-4.70512,15.55312s24.75279,14.7025,24.75279,14.7025"/>
        <path class="cls-11" d="m219.74123,17.241s-1.84776-.97929-4.36002-2.25452c-.3264-.16568-.99136-.21272-.98318.15323.04279,1.91413-2.67006,2.12856-2.16585-.64109.17167-.94301-1.69098-1.86269-2.71687-2.35235"/>
        <path class="cls-11" d="m234.70549,36.5562c.86121.12087,1.82014-.26228,2.84096-1.4492.59067-.68678,1.11069-1.32878,1.5779-1.91271"/>
        <path class="cls-11" d="m235.32099,26.66492c-1.22899-.44977-2.99247-.71607-5.35404-.21146-4.52841.96761-4.29081,3.52074-2.75716,3.89003s3.0076.21404,4.16998,2.79603c.48017,1.06661,1.15143,2.12787,1.96586,2.78305"/>
        <path class="cls-11" d="m237.5486,28.06427s-.18739-.2245-.57894-.51853"/>
        <path class="cls-11" d="m238.39339,34.38148s2.89412,1.46018,4.36937.61321c.7441-.4272.75231-1.23297.75178-1.97292-.0006-.83551.88685-1.38992,1.64931-1.04827.33244.14896,1.02128.90525,1.45302,1.16273,2.11938,1.26396,2.16792-2.00117,1.81427-2.94882"/>
        <path class="cls-11" d="m250.13634,34.2453c.34963.1253.75809.17402,1.22667.08313,1.90967-.37043,2.81848-1.48435,3.71105-4.36459.17762-.57315.41085-.69087.653-.77089.84701-.27988,1.83746,2.02165,2.98506,1.99366,1.53014-.03732,3.25621-1.82761-.4963-6.27894s-10.69133-4.43284-11.83669-4.06433-11.01299,2.1689-12.74631,4.73222"/>
        <path class="cls-11" d="m248.54225,32.75037s.15266.32647.46397.68675"/>
        <path class="cls-11" d="m254.85587,28.16378c-.17335-.09597-.34671-.18027-.48978-.23988"/>
        <path class="cls-12" d="m269.23874,18.97543c.25546.71056.42147,1.46592.48377,2.25403l.52783,6.6778c.38094,4.81945-3.26104,9.03867-8.13459,9.42388l-36.57676,2.8911c-3.56857.28207-6.80796-1.56972-8.43646-4.47375"/>
        <path class="cls-12" d="m266.621,15.36366c1.2821,1.10359,2.01215,1.92731,2.61774,3.61177"/>
        <path class="cls-10" d="m201.18009,9.89885c-2.02048,2.42643-7.14148,10.51105-4.10313,14.91737,2.58956,3.75547,16.13155,10.58189,22.24174,13.52411"/>
        <path class="cls-10" d="m264.24032,13.29065c-4.76428-4.1386-15.16694-12.70079-19.22264-12.27537-4.97929.52231-36.11508,3.38757-42.80878,7.85202"/>
      </g>
      <g>
        <path class="cls-2" d="m373.07162,28.16115s-8.33061,5.72868-7.64406,14.41461c.68655,8.68593,24.16748,16.30448,24.16748,16.30448,0,0-1.45904,1.39093,1.65759,1.69358s42.72823-3.37733,42.72823-3.37733c0,0,5.54032-3.06112,5.24753-6.76541s.45688-12.76372-4.94287-15.42023c-5.39975-2.65651-12.64471-11.92439-19.84751-13.3434-7.20281-1.41902-42.03729,5.58956-41.36639,6.49371Z"/>
        <path class="cls-8" d="m402.22125,46.39227s11.74142-8.21977,21.02494-3.52052c9.28352,4.69924,5.63315,12.21166,2.47231,7.7635-1.07183-1.50836-2.23524.06498-2.43949,1.7015s-4.37267,4.36529-5.60687,1.41272c-1.2342-2.95257.57719,1.6997-3.19788-.39955-4.49524-2.49972.00092,2.52634-3.37479,2.31109-3.07654-.19617-3.47283-1.01029-4.89858.2462s-2.85115,1.732-4.23864.54225c-2.00524-1.71946-1.44545-4.93423-6.13195-5.47995-1.32472-.15426-.56007-3.88485,6.39095-4.57725Z"/>
        <path class="cls-1" d="m407.95464,53.84847s.11127-2.98624-2.37966-.47273c-2.49093,2.51351-4.71532,1.64429-4.71532,1.64429,0,0,1.24392,3.03771,3.77151,2.15582s3.32347-3.32737,3.32347-3.32737Z"/>
        <ellipse class="cls-7" cx="417.62373" cy="43.27289" rx="2.54485" ry=".91354" transform="translate(-2.11124 33.04178) rotate(-4.51938)"/>
        <ellipse class="cls-7" cx="404.75828" cy="47.38565" rx=".70343" ry="2.0804" transform="translate(150.36586 365.75519) rotate(-58.05079)"/>
        <path class="cls-1" d="m407.95464,53.84847s3.0776.91403,4.21954-.33352.68778,2.02669-1.07471,2.14606-4.4247-.23394-3.14484-1.81254Z"/>
        <path class="cls-1" d="m417.26142,50.84161s-1.24954,2.23932-3.1436,1.6037c0,0,1.12481,2.13495,2.15442,1.76965s.98918-3.37335.98918-3.37335Z"/>
        <path class="cls-1" d="m418.35471,51.11089c1.41023.25212,3.78146.32656,4.61944-1.74343.17694-.43708.62799-.70688,1.09674-.65567.93257.10189,2.36761.13282,3.05348-.50119.53292-.49263,1.40793-.28485,1.69423.38202.40771.94967.5615,1.92397-.10565,2.47801-1.60565,1.33342-2.66024-.0749-2.77673-.43862s-1.36384-1.71293-1.67353-.6355-2.24646,5.83897-5.11846,5.0287c-1.659-.46805-2.02962-1.79135-2.04675-2.82565-.01119-.6757.59198-1.20763,1.25722-1.08869Z"/>
        <path class="cls-3" d="m419.41656,41.58932c-.24867.03729-3.4394.04821-4.03222.17681-2.09376.45417.07457,7.12002-3.97834,7.83903-3.80316.6747-6.90408-2.45668-7.81115-2.33555-.7446.09944,5.17908,4.08025,1.34703,6.84502-.35697.25755,1.56213,1.39208,1.88993,1.09668h0c.20673-.1863.51655-.19624.72971-.01604.65669.55513,2.13437,1.55543,3.56426.79867,1.91474-1.01337.23596-2.86558,1.62427-3.07715s2.56259,1.82872,3.54649,1.60566c.80236-.1819,2.20735.48863,2.69852.74227.12164.06282.25491.07806.38676.04435.80051-.20468,3.64593-1.10677,4.52039-3.75766,1.02138-3.09628,2.46367.5021,3.42239.42395s4.24941-1.05806.33035-5.52965c-3.70547-4.22789-5.62918-5.24765-8.23839-4.85637Z"/>
        <path class="cls-3" d="m401.09763,46.56643s-4.33908,2.453-1.83084,4.93468c0,0-3.93196-.85306-4.07732-1.25415s-.18017-3.42911,5.90816-3.68053Z"/>
        <circle class="cls-7" cx="403.0367" cy="48.80194" r=".73147"/>
        <path class="cls-3" d="m426.19691,49.93256c.18702.14169.31189.3279.36501.53705.29339,1.15499,1.0594,5.1102-2.13775,5.33955-3.74651.26875-6.57018,1.09425-8.64761-.54846s-4.26575-.40478-4.73181.18099c-.43527.54706-5.18803,4.08182-7.77932,1.4918-.33783-.33766-.3818-.82731-.0997-1.21309l.24672-.33739c.33893-.46349,1.03349-.63494,1.59849-.39906.8965.37427,2.22045.82493,3.13753.68667,1.50764-.2273,2.57027-2.21175,2.67444-3.0356.09432-.7459,1.79127-.03316,2.11153.10838.03558.01573.06678.03169.10018.05044l1.26043.70737c.41097.23064.95371.22187,1.36903-.02212h0c.43821-.25743,1.01511-.25172,1.42944.01416l1.34992.86627c.26627.17087.60497.23775.9398.18686,1.17632-.17879,3.87361-.76093,4.04582-2.35512.22066-2.04278.73894-2.8777,1.35185-2.92614.41802-.03304,1.05388.39309,1.41599.66743Z"/>
        <path class="cls-5" d="m431.80714,34.58039c-1.07146-.27124-1.65558,1.24298-.68067,1.7637,2.69643,1.4402,5.35071,3.73773,6.08016,7.12832.92388,4.29437.02147,8.19999-.99606,10.14941-.33894.64936.3508,1.36155,1.00176,1.02571,1.46592-.75629,1.98527-3.02923,1.87989-5.93915-.15764-4.35328-.92517-11.34296-3.64095-12.69051-1.21879-.60475-2.42242-1.1282-3.64414-1.43747Z"/>
        <path class="cls-9" d="m383.36584,44.44025c.51194-1.20095.06486-2.59257-1.05241-3.26792-.80293-.48534-1.78539-1.12184-2.82101-1.89102-2.56095-1.90208-3.17656-3.8814-5.49615-3.69806-1.06849.08446-2.44251-.66412-3.61387-1.49619-1.33938-.95143-3.20902-.47498-3.90583,1.01284l-1.00934,2.15512.44191.5024c-.94795,2.09835-.49597,4.21851-.59107,5.79698-.11405,1.89324,9.0111,8.10831,10.3155,8.97469.12207.08108,1.22571.76486,1.35959.82446l1.8603-.47003c1.8489.82306,3.89326-.6712,3.67033-2.68271l-.25719-2.3206c-.04967-.44813.01713-.9015.19394-1.31626l.90528-2.12371Z"/>
        <path class="cls-14" d="m368.57566,33.24846c-.38399.51977-.17915,1.26244.41925,1.50641.98753.40261,2.21764.97171,3.26829,2.54275,1.52405,2.27893,2.60812-.88175,3.13232,2.15261s-.4199,2.38694,4.64634,5.45934c.37375.22666.72246.44956,1.04778.66801,1.85201,1.24364,4.40048.26443,4.84363-1.92194.21066-1.03934.51711-2.08028.95843-3.02448.66443-1.42153.19488-3.11265-1.11858-3.97116l-.2566-.16772c-1.29679-.84762-2.97254-.56719-4.03925.55631-.28392.29904-.51298.31944-.56132-.2922-.0753-.9526-.38576-1.80438-.66691-2.40327-.25601-.54532-.66845-.99962-1.18039-1.31717l-1.61956-1.00457c-.09784-.06068-.19893-.11595-.30283-.16553l-4.02399-1.92044c-.90419-.43152-1.98739-.16113-2.58271.6447l-1.96389,2.65834Z"/>
        <path class="cls-14" d="m380.24904,34.35313s-4.46531-7.00341,6.14004-9.17106c0,0-14.28073,2.67547-14.67982,4.07348s8.53978,5.09758,8.53978,5.09758Z"/>
        <path class="cls-4" d="m369.28071,42.81493c.06785-.82451.07159-1.54644-.08793-1.97848-.37855-1.02524-.28224-1.74788-.0171-2.24989.31746-.60107,1.23019-.32202,1.15004.35299l-.47451,3.99659-.57051-.12122Z"/>
        <circle class="cls-4" cx="369.38372" cy="43.99022" r=".36303"/>
        <circle class="cls-4" cx="369.27353" cy="45.17579" r=".36303"/>
        <path class="cls-14" d="m416.67568,35.24075s1.56343-7.41279-1.68252-7.97674c-3.24595-.56396-10.27932,3.79206-14.48588,2.78219-4.63724-1.11326-2.92094-6.44494,4.67647-7.47653,7.59741-1.03159,8.94303-.87763,8.94303-.87763,0,0,8.86532,3.68954,11.39427,6.36266s8.18068,6.92295,8.18068,6.92295c0,0-7.99918-1.53308-17.02604.2631Z"/>
        <path class="cls-6" d="m424.6096,29.40623c.89589,1.21126,1.40567,2.74806-.81013,3.55183-.32061.1163-.23626.58453.10461.57349,3.03641-.09839,6.61418-.86696,1.12445-4.56076-.28737-.19336-.62491.15697-.41894.43544Z"/>
        <rect class="cls-6" x="397.31325" y="33.97268" width="25.46683" height=".67394" rx=".33697" ry=".33697" transform="translate(-1.42853 32.41686) rotate(-4.51938)"/>
        <path class="cls-15" d="m416.94556,54.18715c-1.4194,3.12824-4.11355,5.42989-8.91812,5.60974l24.36576-1.91271s6.5531-2.67103,6.56323-7.02768-.50781-10.93039-.50781-10.93039c0,0-1.79065-5.14478-6.64147-5.34572s-15.13146.66035-15.13146.66035c0,0,.73471,2.41322,1.22817,5.72698,0,0,7.31805,1.94522,9.19781,4.65185s3.14024,5.84765,1.29904,6.00166-3.48845-1.75382-3.48845-1.75382l-1.02336.26503s-1.29222,4.93211-4.07209,4.87032c-2.77988-.06179-2.87125-.81561-2.87125-.81561Z"/>
        <path class="cls-13" d="m385.70208,46.11404c.02203-1.44398.40616-2.81339,1.07132-4.01364"/>
        <path class="cls-13" d="m385.61621,45.6772c-.00023-.05573.00008-.11136.00093-.16688"/>
        <path class="cls-13" d="m388.25447,39.4586c1.39219-1.3416,3.24292-2.22771,5.32416-2.39221l35.70298-2.82204c4.75713-.37601,8.91715,3.16033,9.29168,7.89865l.51894,6.56538c.37453,4.73832-3.17827,8.8843-7.9354,9.26031l-35.70298,2.82204c-4.75713.37601-8.91715-3.16033-9.29168-7.89865l-.30652-3.87794"/>
        <path class="cls-11" d="m375.89946,31.62609c-2.71247-1.20943-4.89189-2.01987-5.28709-1.70877-1.16934.92049-8.13447,10.57976-4.70512,15.55312s24.75279,14.7025,24.75279,14.7025"/>
        <path class="cls-11" d="m388.57152,37.89521s-1.84776-.97929-4.36002-2.25452c-.3264-.16568-.99136-.21272-.98318.15323.04279,1.91413-2.67006,2.12856-2.16585-.64109.17167-.94301-1.69098-1.86269-2.71687-2.35235"/>
        <path class="cls-11" d="m403.53578,57.2104c.86121.12087,1.82014-.26228,2.84096-1.4492.59067-.68678,1.11069-1.32878,1.5779-1.91271"/>
        <path class="cls-11" d="m404.15128,47.31912c-1.22899-.44977-2.99247-.71607-5.35404-.21146-4.52841.96761-4.29081,3.52074-2.75716,3.89003s3.0076.21404,4.16998,2.79603c.48017,1.06661,1.15143,2.12787,1.96586,2.78305"/>
        <path class="cls-11" d="m406.37889,48.71848s-.18739-.2245-.57894-.51853"/>
        <path class="cls-11" d="m407.22368,55.03569s2.89412,1.46018,4.36937.61321c.7441-.4272.75231-1.23297.75178-1.97292-.0006-.83551.88685-1.38992,1.64931-1.04827.33244.14896,1.02128.90525,1.45302,1.16273,2.11938,1.26396,2.16792-2.00117,1.81427-2.94882"/>
        <path class="cls-11" d="m418.96663,54.89951c.34963.1253.75809.17402,1.22667.08313,1.90967-.37043,2.81848-1.48435,3.71105-4.36459.17762-.57315.41085-.69087.653-.77089.84701-.27988,1.83746,2.02165,2.98506,1.99366,1.53014-.03732,3.25621-1.82761-.4963-6.27894s-10.69133-4.43284-11.83669-4.06433-11.01299,2.1689-12.74631,4.73222"/>
        <path class="cls-11" d="m417.37254,53.40458s.15266.32647.46397.68675"/>
        <path class="cls-11" d="m423.68616,48.81798c-.17335-.09597-.34671-.18027-.48978-.23988"/>
        <path class="cls-12" d="m438.06903,39.62964c.25546.71056.42147,1.46592.48377,2.25403l.52783,6.6778c.38094,4.81945-3.26104,9.03867-8.13459,9.42388l-36.57676,2.8911c-3.56857.28207-6.80796-1.56972-8.43646-4.47375"/>
        <path class="cls-12" d="m435.45128,36.01787c1.2821,1.10359,2.01215,1.92731,2.61774,3.61177"/>
        <path class="cls-10" d="m370.01038,30.55306c-2.02048,2.42643-7.14148,10.51105-4.10313,14.91737,2.58956,3.75547,16.13155,10.58189,22.24174,13.52411"/>
        <path class="cls-10" d="m433.07061,33.94486c-4.76428-4.1386-15.16694-12.70079-19.22264-12.27537-4.97929.52231-36.11508,3.38757-42.80878,7.85202"/>
      </g>
    </g>
  </g>
</svg>