<?xml version="1.0" encoding="UTF-8"?>
<svg id="Layer_2" data-name="Layer 2" xmlns="http://www.w3.org/2000/svg" viewBox="0 0 545.3605 113.54431">
  <defs>
    <style>
      .cls-1 {
        fill: #f69337;
      }

      .cls-2 {
        fill: #ffbf35;
      }

      .cls-3 {
        fill: #fc85be;
      }

      .cls-4 {
        fill: #6a9dcb;
      }

      .cls-5 {
        fill: #c4d056;
      }

      .cls-6 {
        fill: #de5ca7;
      }

      .cls-7 {
        fill: #245b8b;
      }

      .cls-8 {
        fill: #86a836;
      }

      .cls-9 {
        fill: none;
        stroke: #000;
        stroke-linejoin: bevel;
        stroke-width: 2px;
      }

      .cls-10 {
        fill: #f8fafb;
        opacity: .5;
      }

      .cls-11 {
        fill: #e8dbd1;
        opacity: .35;
      }
    </style>
  </defs>
  <g id="candy_groups" data-name="candy groups">
    <g>
      <g>
        <path class="cls-7" d="m115.54847,26.81675c0,12.30733-8.61084,22.60301-20.14134,25.18706-1.82359.41707-3.72085.62969-5.67521.62969-2.94402,0-5.77344-.49074-8.41479-1.40652-1.16954-.40089-2.29795-.88325-3.38564-1.43927-4.22776-2.18356-7.77671-5.48734-10.24636-9.53521-1.20228-1.96254-2.14263-4.09699-2.78869-6.3622-.63788-2.24884-.98127-4.62027-.98127-7.07355,0-13.49305,10.36096-24.57374,23.55154-25.71852.74409-.06548,1.50455-.09823,2.26521-.09823,4.75922,0,9.21617,1.28394,13.03505,3.53278,1.59459.93236,3.07479,2.02803,4.41583,3.26286,2.8949,2.64954,5.1683,5.94513,6.61575,9.6578.80139,2.05259,1.34104,4.23594,1.59459,6.50934.10641.94054.15533,1.88907.15533,2.85398Z"/>
        <g>
          <path class="cls-4" d="m87.46671,1.09823l-22.57026,32.79207c-.63788-2.24884-.98127-4.62027-.98127-7.07355,0-13.49305,10.36096-24.57374,23.55154-25.71852Z"/>
          <path class="cls-4" d="m107.1828,7.79564c-4.12953,3.87618-12.96957,12.47084-17.81903,19.29922-4.77559,6.73015-9.35513,17.50818-11.43227,22.69285-4.22776-2.18356-7.77671-5.48734-10.24636-9.53521,3.13189-4.15409,11.03976-14.49069,15.5618-19.24991,4.45695-4.67776,15.01417-12.98614,19.52003-16.4698,1.59459.93236,3.07479,2.02803,4.41583,3.26286Z"/>
          <path class="cls-4" d="m115.39315,23.96277c-4.1459,4.17046-9.04448,9.40424-12.20911,13.86918-2.81305,3.9744-5.569,9.36332-7.77691,14.17185-1.82359.41707-3.72085.62969-5.67521.62969-2.94402,0-5.77344-.49074-8.41479-1.40652,3.00112-3.9744,11.13779-14.63803,15.75007-19.48729,3.68811-3.87618,11.57123-10.24656,16.73134-14.28625.80139,2.05259,1.34104,4.23594,1.59459,6.50934Z"/>
        </g>
        <path class="cls-11" d="m110.77374,25.65601c0,10.58446-7.40543,19.43887-17.32181,21.66119-1.56831.35868-3.19998.54154-4.88075.54154-2.53189,0-4.96523-.42204-7.23682-1.20963-1.00582-.34477-1.97627-.7596-2.91169-1.23779-3.63592-1.87789-6.68807-4.71918-8.812-8.2004-1.03398-1.68781-1.84269-3.52346-2.39831-5.47157-.54858-1.93403-.84391-3.97349-.84391-6.08334,0-11.60419,8.91056-21.13372,20.25462-22.11825.63993-.05632,1.29393-.08448,1.94811-.08448,4.09299,0,7.92603,1.1042,11.21031,3.03824,1.37137.80184,2.64436,1.74413,3.79767,2.8061,2.48965,2.27863,4.4448,5.11289,5.68963,8.30583.6892,1.76525,1.15331,3.64296,1.37137,5.59811.09152.80888.13358,1.62463.13358,2.45445Z"/>
        <path class="cls-10" d="m72.41515,29.8104c0-6.46009,2.96079-12.1774,7.50639-15.67815,2.55446-1.96795,5.60968-3.23748,8.92232-3.54222.51486-.05036,1.03838-.07398,1.56763-.07398,5.65088,0,10.6915,2.79519,13.99102,7.16399-2.9499-6.33828-9.05404-10.69397-16.10891-10.69397-.52925,0-1.05277.02366-1.56763.07398-3.31264.30478-6.36786,1.57431-8.92239,3.54222-4.54553,3.50079-7.50632,9.2181-7.50632,15.67819,0,4.59935,1.50226,8.8202,4.00622,12.13535-1.20613-2.59123-1.88833-5.51198-1.88833-8.6054Z"/>
        <path class="cls-9" d="m115.54847,26.81675c0,12.30733-8.61084,22.60301-20.14134,25.18706-1.82359.41707-3.72085.62969-5.67521.62969-2.94402,0-5.77344-.49074-8.41479-1.40652-1.16954-.40089-2.29795-.88325-3.38564-1.43927-4.22776-2.18356-7.77671-5.48734-10.24636-9.53521-1.20228-1.96254-2.14263-4.09699-2.78869-6.3622-.63788-2.24884-.98127-4.62027-.98127-7.07355,0-13.49305,10.36096-24.57374,23.55154-25.71852.74409-.06548,1.50455-.09823,2.26521-.09823,4.75922,0,9.21617,1.28394,13.03505,3.53278,1.59459.93236,3.07479,2.02803,4.41583,3.26286,2.8949,2.64954,5.1683,5.94513,6.61575,9.6578.80139,2.05259,1.34104,4.23594,1.59459,6.50934.10641.94054.15533,1.88907.15533,2.85398Z"/>
      </g>
      <g>
        <path class="cls-8" d="m228.90576,35.74144c0,12.30733-8.61084,22.60301-20.14134,25.18706-1.82359.41707-3.72085.62969-5.67521.62969-2.94402,0-5.77344-.49074-8.41479-1.40652-1.16954-.40089-2.29795-.88325-3.38564-1.43927-4.22776-2.18356-7.77671-5.48734-10.24636-9.53521-1.20228-1.96254-2.14263-4.09699-2.78869-6.3622-.63788-2.24884-.98127-4.62027-.98127-7.07355,0-13.49305,10.36096-24.57374,23.55154-25.71852.74409-.06548,1.50455-.09823,2.26521-.09823,4.75922,0,9.21617,1.28394,13.03505,3.53278,1.59459.93236,3.07479,2.02803,4.41583,3.26286,2.8949,2.64954,5.1683,5.94513,6.61575,9.6578.80139,2.05259,1.34104,4.23594,1.59459,6.50934.10641.94054.15533,1.88907.15533,2.85398Z"/>
        <g>
          <path class="cls-5" d="m200.82399,10.02291l-22.57026,32.79207c-.63788-2.24884-.98127-4.62027-.98127-7.07355,0-13.49305,10.36096-24.57374,23.55154-25.71852Z"/>
          <path class="cls-5" d="m220.54008,16.72032c-4.12953,3.87618-12.96957,12.47084-17.81903,19.29922-4.77559,6.73015-9.35513,17.50818-11.43227,22.69285-4.22776-2.18356-7.77671-5.48734-10.24636-9.53521,3.13189-4.15409,11.03976-14.49069,15.5618-19.24991,4.45695-4.67776,15.01417-12.98614,19.52003-16.4698,1.59459.93236,3.07479,2.02803,4.41583,3.26286Z"/>
          <path class="cls-5" d="m228.75043,32.88746c-4.1459,4.17046-9.04448,9.40424-12.20911,13.86918-2.81305,3.9744-5.569,9.36332-7.77691,14.17185-1.82359.41707-3.72085.62969-5.67521.62969-2.94402,0-5.77344-.49074-8.41479-1.40652,3.00112-3.9744,11.13779-14.63803,15.75007-19.48729,3.68811-3.87618,11.57123-10.24656,16.73134-14.28625.80139,2.05259,1.34104,4.23594,1.59459,6.50934Z"/>
        </g>
        <path class="cls-11" d="m224.13103,34.5807c0,10.58446-7.40543,19.43887-17.32181,21.66119-1.56831.35868-3.19998.54154-4.88075.54154-2.53189,0-4.96523-.42204-7.23682-1.20963-1.00582-.34477-1.97627-.7596-2.91169-1.23779-3.63592-1.87789-6.68807-4.71918-8.812-8.2004-1.03398-1.68781-1.84269-3.52346-2.39831-5.47157-.54858-1.93403-.84391-3.97349-.84391-6.08334,0-11.60419,8.91056-21.13372,20.25462-22.11825.63993-.05632,1.29393-.08448,1.94811-.08448,4.09299,0,7.92603,1.1042,11.21031,3.03824,1.37137.80184,2.64436,1.74413,3.79767,2.8061,2.48965,2.27863,4.4448,5.11289,5.68963,8.30583.6892,1.76525,1.15331,3.64296,1.37137,5.59811.09152.80888.13358,1.62463.13358,2.45445Z"/>
        <path class="cls-10" d="m185.77243,38.73508c0-6.46009,2.96079-12.1774,7.50639-15.67815,2.55446-1.96795,5.60968-3.23748,8.92232-3.54222.51486-.05036,1.03838-.07398,1.56763-.07398,5.65088,0,10.6915,2.79519,13.99102,7.16399-2.9499-6.33828-9.05404-10.69397-16.10891-10.69397-.52925,0-1.05277.02366-1.56763.07398-3.31264.30478-6.36786,1.57431-8.92239,3.54222-4.54553,3.50079-7.50632,9.2181-7.50632,15.67819,0,4.59935,1.50226,8.8202,4.00622,12.13535-1.20613-2.59123-1.88833-5.51198-1.88833-8.6054Z"/>
        <path class="cls-9" d="m228.90576,35.74144c0,12.30733-8.61084,22.60301-20.14134,25.18706-1.82359.41707-3.72085.62969-5.67521.62969-2.94402,0-5.77344-.49074-8.41479-1.40652-1.16954-.40089-2.29795-.88325-3.38564-1.43927-4.22776-2.18356-7.77671-5.48734-10.24636-9.53521-1.20228-1.96254-2.14263-4.09699-2.78869-6.3622-.63788-2.24884-.98127-4.62027-.98127-7.07355,0-13.49305,10.36096-24.57374,23.55154-25.71852.74409-.06548,1.50455-.09823,2.26521-.09823,4.75922,0,9.21617,1.28394,13.03505,3.53278,1.59459.93236,3.07479,2.02803,4.41583,3.26286,2.8949,2.64954,5.1683,5.94513,6.61575,9.6578.80139,2.05259,1.34104,4.23594,1.59459,6.50934.10641.94054.15533,1.88907.15533,2.85398Z"/>
      </g>
      <g>
        <path class="cls-1" d="m52.6333,86.72756c0,12.30733-8.61084,22.60301-20.14134,25.18706-1.82359.41707-3.72085.62969-5.67521.62969-2.94402,0-5.77344-.49074-8.41479-1.40652-1.16954-.40089-2.29795-.88325-3.38564-1.43927-4.22776-2.18356-7.77671-5.48734-10.24636-9.53521-1.20228-1.96254-2.14263-4.09699-2.78869-6.3622-.63788-2.24884-.98127-4.62027-.98127-7.07355,0-13.49305,10.36096-24.57374,23.55154-25.71852.74409-.06548,1.50455-.09823,2.26521-.09823,4.75922,0,9.21617,1.28394,13.03505,3.53278,1.59459.93236,3.07479,2.02803,4.41583,3.26286,2.8949,2.64954,5.1683,5.94513,6.61575,9.6578.80139,2.05259,1.34104,4.23594,1.59459,6.50934.10641.94054.15533,1.88907.15533,2.85398Z"/>
        <g>
          <path class="cls-2" d="m24.55154,61.00904L1.98127,93.80111c-.63788-2.24884-.98127-4.62027-.98127-7.07355,0-13.49305,10.36096-24.57374,23.55154-25.71852Z"/>
          <path class="cls-2" d="m44.26763,67.70645c-4.12953,3.87618-12.96957,12.47084-17.81903,19.29922-4.77559,6.73015-9.35513,17.50818-11.43227,22.69285-4.22776-2.18356-7.77671-5.48734-10.24636-9.53521,3.13189-4.15409,11.03976-14.49069,15.5618-19.24991,4.45695-4.67776,15.01417-12.98614,19.52003-16.4698,1.59459.93236,3.07479,2.02803,4.41583,3.26286Z"/>
          <path class="cls-2" d="m52.47797,83.87358c-4.1459,4.17046-9.04448,9.40424-12.20911,13.86918-2.81305,3.9744-5.569,9.36332-7.77691,14.17185-1.82359.41707-3.72085.62969-5.67521.62969-2.94402,0-5.77344-.49074-8.41479-1.40652,3.00112-3.9744,11.13779-14.63803,15.75007-19.48729,3.68811-3.87618,11.57123-10.24656,16.73134-14.28625.80139,2.05259,1.34104,4.23594,1.59459,6.50934Z"/>
        </g>
        <path class="cls-11" d="m47.85857,85.56682c0,10.58446-7.40543,19.43887-17.32181,21.66119-1.56831.35868-3.19998.54154-4.88075.54154-2.53189,0-4.96523-.42204-7.23682-1.20963-1.00582-.34477-1.97627-.7596-2.91169-1.23779-3.63592-1.87789-6.68807-4.71918-8.812-8.2004-1.03398-1.68781-1.84269-3.52346-2.39831-5.47157-.54858-1.93403-.84391-3.97349-.84391-6.08334,0-11.60419,8.91056-21.13372,20.25462-22.11825.63993-.05632,1.29393-.08448,1.94811-.08448,4.09299,0,7.92603,1.1042,11.21031,3.03824,1.37137.80184,2.64436,1.74413,3.79767,2.8061,2.48965,2.27863,4.4448,5.11289,5.68963,8.30583.6892,1.76525,1.15331,3.64296,1.37137,5.59811.09152.80888.13358,1.62463.13358,2.45445Z"/>
        <path class="cls-10" d="m9.49997,89.72121c0-6.46009,2.96079-12.1774,7.50639-15.67815,2.55446-1.96795,5.60968-3.23748,8.92232-3.54222.51486-.05036,1.03838-.07398,1.56763-.07398,5.65088,0,10.6915,2.79519,13.99102,7.16399-2.9499-6.33828-9.05404-10.69397-16.10891-10.69397-.52925,0-1.05277.02366-1.56763.07398-3.31264.30478-6.36786,1.57431-8.92239,3.54222-4.54553,3.50079-7.50632,9.2181-7.50632,15.67819,0,4.59935,1.50226,8.8202,4.00622,12.13535-1.20613-2.59123-1.88833-5.51198-1.88833-8.6054Z"/>
        <path class="cls-9" d="m52.6333,86.72756c0,12.30733-8.61084,22.60301-20.14134,25.18706-1.82359.41707-3.72085.62969-5.67521.62969-2.94402,0-5.77344-.49074-8.41479-1.40652-1.16954-.40089-2.29795-.88325-3.38564-1.43927-4.22776-2.18356-7.77671-5.48734-10.24636-9.53521-1.20228-1.96254-2.14263-4.09699-2.78869-6.3622-.63788-2.24884-.98127-4.62027-.98127-7.07355,0-13.49305,10.36096-24.57374,23.55154-25.71852.74409-.06548,1.50455-.09823,2.26521-.09823,4.75922,0,9.21617,1.28394,13.03505,3.53278,1.59459.93236,3.07479,2.02803,4.41583,3.26286,2.8949,2.64954,5.1683,5.94513,6.61575,9.6578.80139,2.05259,1.34104,4.23594,1.59459,6.50934.10641.94054.15533,1.88907.15533,2.85398Z"/>
      </g>
      <g>
        <path class="cls-6" d="m144.39924,56.74932c0,12.30733-8.61084,22.60301-20.14134,25.18706-1.82359.41707-3.72085.62969-5.67521.62969-2.94402,0-5.77344-.49074-8.41479-1.40652-1.16954-.40089-2.29795-.88325-3.38564-1.43927-4.22776-2.18356-7.77671-5.48734-10.24636-9.53521-1.20228-1.96254-2.14263-4.09699-2.78869-6.3622-.63788-2.24884-.98127-4.62027-.98127-7.07355,0-13.49305,10.36096-24.57374,23.55154-25.71852.74409-.06548,1.50455-.09823,2.26521-.09823,4.75922,0,9.21617,1.28394,13.03505,3.53278,1.59459.93236,3.07479,2.02803,4.41583,3.26286,2.8949,2.64954,5.1683,5.94513,6.61575,9.6578.80139,2.05259,1.34104,4.23594,1.59459,6.50934.10641.94054.15533,1.88907.15533,2.85398Z"/>
        <g>
          <path class="cls-3" d="m116.31747,31.03079l-22.57026,32.79207c-.63788-2.24884-.98127-4.62027-.98127-7.07355,0-13.49305,10.36096-24.57374,23.55154-25.71852Z"/>
          <path class="cls-3" d="m136.03356,37.7282c-4.12953,3.87618-12.96957,12.47084-17.81903,19.29922-4.77559,6.73015-9.35513,17.50818-11.43227,22.69285-4.22776-2.18356-7.77671-5.48734-10.24636-9.53521,3.13189-4.15409,11.03976-14.49069,15.5618-19.24991,4.45695-4.67776,15.01417-12.98614,19.52003-16.4698,1.59459.93236,3.07479,2.02803,4.41583,3.26286Z"/>
          <path class="cls-3" d="m144.24391,53.89534c-4.1459,4.17046-9.04448,9.40424-12.20911,13.86918-2.81305,3.9744-5.569,9.36332-7.77691,14.17185-1.82359.41707-3.72085.62969-5.67521.62969-2.94402,0-5.77344-.49074-8.41479-1.40652,3.00112-3.9744,11.13779-14.63803,15.75007-19.48729,3.68811-3.87618,11.57123-10.24656,16.73134-14.28625.80139,2.05259,1.34104,4.23594,1.59459,6.50934Z"/>
        </g>
        <path class="cls-11" d="m139.62451,55.58858c0,10.58446-7.40543,19.43887-17.32181,21.66119-1.56831.35868-3.19998.54154-4.88075.54154-2.53189,0-4.96523-.42204-7.23682-1.20963-1.00582-.34477-1.97627-.7596-2.91169-1.23779-3.63592-1.87789-6.68807-4.71918-8.812-8.2004-1.03398-1.68781-1.84269-3.52346-2.39831-5.47157-.54858-1.93403-.84391-3.97349-.84391-6.08334,0-11.60419,8.91056-21.13372,20.25462-22.11825.63993-.05632,1.29393-.08448,1.94811-.08448,4.09299,0,7.92603,1.1042,11.21031,3.03824,1.37137.80184,2.64436,1.74413,3.79767,2.8061,2.48965,2.27863,4.4448,5.11289,5.68963,8.30583.6892,1.76525,1.15331,3.64296,1.37137,5.59811.09152.80888.13358,1.62463.13358,2.45445Z"/>
        <path class="cls-10" d="m101.26591,59.74296c0-6.46009,2.96079-12.1774,7.50639-15.67815,2.55446-1.96795,5.60968-3.23748,8.92232-3.54222.51486-.05036,1.03838-.07398,1.56763-.07398,5.65088,0,10.6915,2.79519,13.99102,7.16399-2.9499-6.33828-9.05404-10.69397-16.10891-10.69397-.52925,0-1.05277.02366-1.56763.07398-3.31264.30478-6.36786,1.57431-8.92239,3.54222-4.54553,3.50079-7.50632,9.2181-7.50632,15.67819,0,4.59935,1.50226,8.8202,4.00622,12.13535-1.20613-2.59123-1.88833-5.51198-1.88833-8.6054Z"/>
        <path class="cls-9" d="m144.39924,56.74932c0,12.30733-8.61084,22.60301-20.14134,25.18706-1.82359.41707-3.72085.62969-5.67521.62969-2.94402,0-5.77344-.49074-8.41479-1.40652-1.16954-.40089-2.29795-.88325-3.38564-1.43927-4.22776-2.18356-7.77671-5.48734-10.24636-9.53521-1.20228-1.96254-2.14263-4.09699-2.78869-6.3622-.63788-2.24884-.98127-4.62027-.98127-7.07355,0-13.49305,10.36096-24.57374,23.55154-25.71852.74409-.06548,1.50455-.09823,2.26521-.09823,4.75922,0,9.21617,1.28394,13.03505,3.53278,1.59459.93236,3.07479,2.02803,4.41583,3.26286,2.8949,2.64954,5.1683,5.94513,6.61575,9.6578.80139,2.05259,1.34104,4.23594,1.59459,6.50934.10641.94054.15533,1.88907.15533,2.85398Z"/>
      </g>
      <g>
        <path class="cls-6" d="m311.55263,72.29944c0,12.30733-8.61084,22.60301-20.14134,25.18706-1.82359.41707-3.72085.62969-5.67521.62969-2.94402,0-5.77344-.49074-8.41479-1.40652-1.16954-.40089-2.29795-.88325-3.38564-1.43927-4.22776-2.18356-7.77671-5.48734-10.24636-9.53521-1.20228-1.96254-2.14263-4.09699-2.78869-6.3622-.63788-2.24884-.98127-4.62027-.98127-7.07355,0-13.49305,10.36096-24.57374,23.55154-25.71852.74409-.06548,1.50455-.09823,2.26521-.09823,4.75922,0,9.21617,1.28394,13.03505,3.53278,1.59459.93236,3.07479,2.02803,4.41583,3.26286,2.8949,2.64954,5.1683,5.94513,6.61575,9.6578.80139,2.05259,1.34104,4.23594,1.59459,6.50934.10641.94054.15533,1.88907.15533,2.85398Z"/>
        <g>
          <path class="cls-3" d="m283.47087,46.58092l-22.57026,32.79207c-.63788-2.24884-.98127-4.62027-.98127-7.07355,0-13.49305,10.36096-24.57374,23.55154-25.71852Z"/>
          <path class="cls-3" d="m303.18696,53.27833c-4.12953,3.87618-12.96957,12.47084-17.81903,19.29922-4.77559,6.73015-9.35513,17.50818-11.43227,22.69285-4.22776-2.18356-7.77671-5.48734-10.24636-9.53521,3.13189-4.15409,11.03976-14.49069,15.5618-19.24991,4.45695-4.67776,15.01417-12.98614,19.52003-16.4698,1.59459.93236,3.07479,2.02803,4.41583,3.26286Z"/>
          <path class="cls-3" d="m311.3973,69.44547c-4.1459,4.17046-9.04448,9.40424-12.20911,13.86918-2.81305,3.9744-5.569,9.36332-7.77691,14.17185-1.82359.41707-3.72085.62969-5.67521.62969-2.94402,0-5.77344-.49074-8.41479-1.40652,3.00112-3.9744,11.13779-14.63803,15.75007-19.48729,3.68811-3.87618,11.57123-10.24656,16.73134-14.28625.80139,2.05259,1.34104,4.23594,1.59459,6.50934Z"/>
        </g>
        <path class="cls-11" d="m306.7779,71.13871c0,10.58446-7.40543,19.43887-17.32181,21.66119-1.56831.35868-3.19998.54154-4.88075.54154-2.53189,0-4.96523-.42204-7.23682-1.20963-1.00582-.34477-1.97627-.7596-2.91169-1.23779-3.63592-1.87789-6.68807-4.71918-8.812-8.2004-1.03398-1.68781-1.84269-3.52346-2.39831-5.47157-.54858-1.93403-.84391-3.97349-.84391-6.08334,0-11.60419,8.91056-21.13372,20.25462-22.11825.63993-.05632,1.29393-.08448,1.94811-.08448,4.09299,0,7.92603,1.1042,11.21031,3.03824,1.37137.80184,2.64436,1.74413,3.79767,2.8061,2.48965,2.27863,4.4448,5.11289,5.68963,8.30583.6892,1.76525,1.15331,3.64296,1.37137,5.59811.09152.80888.13358,1.62463.13358,2.45445Z"/>
        <path class="cls-10" d="m268.4193,75.29309c0-6.46009,2.96079-12.1774,7.50639-15.67815,2.55446-1.96795,5.60968-3.23748,8.92232-3.54222.51486-.05036,1.03838-.07398,1.56763-.07398,5.65088,0,10.6915,2.79519,13.99102,7.16399-2.9499-6.33828-9.05404-10.69397-16.10891-10.69397-.52925,0-1.05277.02366-1.56763.07398-3.31264.30478-6.36786,1.57431-8.92239,3.54222-4.54553,3.50079-7.50632,9.2181-7.50632,15.67819,0,4.59935,1.50226,8.8202,4.00622,12.13535-1.20613-2.59123-1.88833-5.51198-1.88833-8.6054Z"/>
        <path class="cls-9" d="m311.55263,72.29944c0,12.30733-8.61084,22.60301-20.14134,25.18706-1.82359.41707-3.72085.62969-5.67521.62969-2.94402,0-5.77344-.49074-8.41479-1.40652-1.16954-.40089-2.29795-.88325-3.38564-1.43927-4.22776-2.18356-7.77671-5.48734-10.24636-9.53521-1.20228-1.96254-2.14263-4.09699-2.78869-6.3622-.63788-2.24884-.98127-4.62027-.98127-7.07355,0-13.49305,10.36096-24.57374,23.55154-25.71852.74409-.06548,1.50455-.09823,2.26521-.09823,4.75922,0,9.21617,1.28394,13.03505,3.53278,1.59459.93236,3.07479,2.02803,4.41583,3.26286,2.8949,2.64954,5.1683,5.94513,6.61575,9.6578.80139,2.05259,1.34104,4.23594,1.59459,6.50934.10641.94054.15533,1.88907.15533,2.85398Z"/>
      </g>
      <g>
        <path class="cls-7" d="m399.3928,42.94377c0,12.30733-8.61084,22.60301-20.14134,25.18706-1.82359.41707-3.72085.62969-5.67521.62969-2.94402,0-5.77344-.49074-8.41479-1.40652-1.16954-.40089-2.29795-.88325-3.38564-1.43927-4.22776-2.18356-7.77671-5.48734-10.24636-9.53521-1.20228-1.96254-2.14263-4.09699-2.78869-6.3622-.63788-2.24884-.98127-4.62027-.98127-7.07355,0-13.49305,10.36096-24.57374,23.55154-25.71852.74409-.06548,1.50455-.09823,2.26521-.09823,4.75922,0,9.21617,1.28394,13.03505,3.53278,1.59459.93236,3.07479,2.02803,4.41583,3.26286,2.8949,2.64954,5.1683,5.94513,6.61575,9.6578.80139,2.05259,1.34104,4.23594,1.59459,6.50934.10641.94054.15533,1.88907.15533,2.85398Z"/>
        <g>
          <path class="cls-4" d="m371.31104,17.22525l-22.57026,32.79207c-.63788-2.24884-.98127-4.62027-.98127-7.07355,0-13.49305,10.36096-24.57374,23.55154-25.71852Z"/>
          <path class="cls-4" d="m391.02713,23.92266c-4.12953,3.87618-12.96957,12.47084-17.81903,19.29922-4.77559,6.73015-9.35513,17.50818-11.43227,22.69285-4.22776-2.18356-7.77671-5.48734-10.24636-9.53521,3.13189-4.15409,11.03976-14.49069,15.5618-19.24991,4.45695-4.67776,15.01417-12.98614,19.52003-16.4698,1.59459.93236,3.07479,2.02803,4.41583,3.26286Z"/>
          <path class="cls-4" d="m399.23748,40.0898c-4.1459,4.17046-9.04448,9.40424-12.20911,13.86918-2.81305,3.9744-5.569,9.36332-7.77691,14.17185-1.82359.41707-3.72085.62969-5.67521.62969-2.94402,0-5.77344-.49074-8.41479-1.40652,3.00112-3.9744,11.13779-14.63803,15.75007-19.48729,3.68811-3.87618,11.57123-10.24656,16.73134-14.28625.80139,2.05259,1.34104,4.23594,1.59459,6.50934Z"/>
        </g>
        <path class="cls-11" d="m394.61807,41.78303c0,10.58446-7.40543,19.43887-17.32181,21.66119-1.56831.35868-3.19998.54154-4.88075.54154-2.53189,0-4.96523-.42204-7.23682-1.20963-1.00582-.34477-1.97627-.7596-2.91169-1.23779-3.63592-1.87789-6.68807-4.71918-8.812-8.2004-1.03398-1.68781-1.84269-3.52346-2.39831-5.47157-.54858-1.93403-.84391-3.97349-.84391-6.08334,0-11.60419,8.91056-21.13372,20.25462-22.11825.63993-.05632,1.29393-.08448,1.94811-.08448,4.09299,0,7.92603,1.1042,11.21031,3.03824,1.37137.80184,2.64436,1.74413,3.79767,2.8061,2.48965,2.27863,4.4448,5.11289,5.68963,8.30583.6892,1.76525,1.15331,3.64296,1.37137,5.59811.09152.80888.13358,1.62463.13358,2.45445Z"/>
        <path class="cls-10" d="m356.25948,45.93742c0-6.46009,2.96079-12.1774,7.50639-15.67815,2.55446-1.96795,5.60968-3.23748,8.92232-3.54222.51486-.05036,1.03838-.07398,1.56763-.07398,5.65088,0,10.6915,2.79519,13.99102,7.16399-2.9499-6.33828-9.05404-10.69397-16.10891-10.69397-.52925,0-1.05277.02366-1.56763.07398-3.31264.30478-6.36786,1.57431-8.92239,3.54222-4.54553,3.50079-7.50632,9.2181-7.50632,15.67819,0,4.59935,1.50226,8.8202,4.00622,12.13535-1.20613-2.59123-1.88833-5.51198-1.88833-8.6054Z"/>
        <path class="cls-9" d="m399.3928,42.94377c0,12.30733-8.61084,22.60301-20.14134,25.18706-1.82359.41707-3.72085.62969-5.67521.62969-2.94402,0-5.77344-.49074-8.41479-1.40652-1.16954-.40089-2.29795-.88325-3.38564-1.43927-4.22776-2.18356-7.77671-5.48734-10.24636-9.53521-1.20228-1.96254-2.14263-4.09699-2.78869-6.3622-.63788-2.24884-.98127-4.62027-.98127-7.07355,0-13.49305,10.36096-24.57374,23.55154-25.71852.74409-.06548,1.50455-.09823,2.26521-.09823,4.75922,0,9.21617,1.28394,13.03505,3.53278,1.59459.93236,3.07479,2.02803,4.41583,3.26286,2.8949,2.64954,5.1683,5.94513,6.61575,9.6578.80139,2.05259,1.34104,4.23594,1.59459,6.50934.10641.94054.15533,1.88907.15533,2.85398Z"/>
      </g>
      <g>
        <path class="cls-7" d="m461.47024,70.03055c0,12.30733-8.61084,22.60301-20.14134,25.18706-1.82359.41707-3.72085.62969-5.67521.62969-2.94402,0-5.77344-.49074-8.41479-1.40652-1.16954-.40089-2.29795-.88325-3.38564-1.43927-4.22776-2.18356-7.77671-5.48734-10.24636-9.53521-1.20228-1.96254-2.14263-4.09699-2.78869-6.3622-.63788-2.24884-.98127-4.62027-.98127-7.07355,0-13.49305,10.36096-24.57374,23.55154-25.71852.74409-.06548,1.50455-.09823,2.26521-.09823,4.75922,0,9.21617,1.28394,13.03505,3.53278,1.59459.93236,3.07479,2.02803,4.41583,3.26286,2.8949,2.64954,5.1683,5.94513,6.61575,9.6578.80139,2.05259,1.34104,4.23594,1.59459,6.50934.10641.94054.15533,1.88907.15533,2.85398Z"/>
        <g>
          <path class="cls-4" d="m433.38848,44.31203l-22.57026,32.79207c-.63788-2.24884-.98127-4.62027-.98127-7.07355,0-13.49305,10.36096-24.57374,23.55154-25.71852Z"/>
          <path class="cls-4" d="m453.10457,51.00944c-4.12953,3.87618-12.96957,12.47084-17.81903,19.29922-4.77559,6.73015-9.35513,17.50818-11.43227,22.69285-4.22776-2.18356-7.77671-5.48734-10.24636-9.53521,3.13189-4.15409,11.03976-14.49069,15.5618-19.24991,4.45695-4.67776,15.01417-12.98614,19.52003-16.4698,1.59459.93236,3.07479,2.02803,4.41583,3.26286Z"/>
          <path class="cls-4" d="m461.31491,67.17657c-4.1459,4.17046-9.04448,9.40424-12.20911,13.86918-2.81305,3.9744-5.569,9.36332-7.77691,14.17185-1.82359.41707-3.72085.62969-5.67521.62969-2.94402,0-5.77344-.49074-8.41479-1.40652,3.00112-3.9744,11.13779-14.63803,15.75007-19.48729,3.68811-3.87618,11.57123-10.24656,16.73134-14.28625.80139,2.05259,1.34104,4.23594,1.59459,6.50934Z"/>
        </g>
        <path class="cls-11" d="m456.69551,68.86981c0,10.58446-7.40543,19.43887-17.32181,21.66119-1.56831.35868-3.19998.54154-4.88075.54154-2.53189,0-4.96523-.42204-7.23682-1.20963-1.00582-.34477-1.97627-.7596-2.91169-1.23779-3.63592-1.87789-6.68807-4.71918-8.812-8.2004-1.03398-1.68781-1.84269-3.52346-2.39831-5.47157-.54858-1.93403-.84391-3.97349-.84391-6.08334,0-11.60419,8.91056-21.13372,20.25462-22.11825.63993-.05632,1.29393-.08448,1.94811-.08448,4.09299,0,7.92603,1.1042,11.21031,3.03824,1.37137.80184,2.64436,1.74413,3.79767,2.8061,2.48965,2.27863,4.4448,5.11289,5.68963,8.30583.6892,1.76525,1.15331,3.64296,1.37137,5.59811.09152.80888.13358,1.62463.13358,2.45445Z"/>
        <path class="cls-10" d="m418.33691,73.02419c0-6.46009,2.96079-12.1774,7.50639-15.67815,2.55446-1.96795,5.60968-3.23748,8.92232-3.54222.51486-.05036,1.03838-.07398,1.56763-.07398,5.65088,0,10.6915,2.79519,13.99102,7.16399-2.9499-6.33828-9.05404-10.69397-16.10891-10.69397-.52925,0-1.05277.02366-1.56763.07398-3.31264.30478-6.36786,1.57431-8.92239,3.54222-4.54553,3.50079-7.50632,9.2181-7.50632,15.67819,0,4.59935,1.50226,8.8202,4.00622,12.13535-1.20613-2.59123-1.88833-5.51198-1.88833-8.6054Z"/>
        <path class="cls-9" d="m461.47024,70.03055c0,12.30733-8.61084,22.60301-20.14134,25.18706-1.82359.41707-3.72085.62969-5.67521.62969-2.94402,0-5.77344-.49074-8.41479-1.40652-1.16954-.40089-2.29795-.88325-3.38564-1.43927-4.22776-2.18356-7.77671-5.48734-10.24636-9.53521-1.20228-1.96254-2.14263-4.09699-2.78869-6.3622-.63788-2.24884-.98127-4.62027-.98127-7.07355,0-13.49305,10.36096-24.57374,23.55154-25.71852.74409-.06548,1.50455-.09823,2.26521-.09823,4.75922,0,9.21617,1.28394,13.03505,3.53278,1.59459.93236,3.07479,2.02803,4.41583,3.26286,2.8949,2.64954,5.1683,5.94513,6.61575,9.6578.80139,2.05259,1.34104,4.23594,1.59459,6.50934.10641.94054.15533,1.88907.15533,2.85398Z"/>
      </g>
      <g>
        <path class="cls-1" d="m544.3605,32.77078c0,12.30733-8.61084,22.60301-20.14134,25.18706-1.82359.41707-3.72085.62969-5.67521.62969-2.94402,0-5.77344-.49074-8.41479-1.40652-1.16954-.40089-2.29795-.88325-3.38564-1.43927-4.22776-2.18356-7.77671-5.48734-10.24636-9.53521-1.20228-1.96254-2.14263-4.09699-2.78869-6.3622-.63788-2.24884-.98127-4.62027-.98127-7.07355,0-13.49305,10.36096-24.57374,23.55154-25.71852.74409-.06548,1.50455-.09823,2.26521-.09823,4.75922,0,9.21617,1.28394,13.03505,3.53278,1.59459.93236,3.07479,2.02803,4.41583,3.26286,2.8949,2.64954,5.1683,5.94513,6.61575,9.6578.80139,2.05259,1.34104,4.23594,1.59459,6.50934.10641.94054.15533,1.88907.15533,2.85398Z"/>
        <g>
          <path class="cls-2" d="m516.27874,7.05226l-22.57026,32.79207c-.63788-2.24884-.98127-4.62027-.98127-7.07355,0-13.49305,10.36096-24.57374,23.55154-25.71852Z"/>
          <path class="cls-2" d="m535.99483,13.74967c-4.12953,3.87618-12.96957,12.47084-17.81903,19.29922-4.77559,6.73015-9.35513,17.50818-11.43227,22.69285-4.22776-2.18356-7.77671-5.48734-10.24636-9.53521,3.13189-4.15409,11.03976-14.49069,15.5618-19.24991,4.45695-4.67776,15.01417-12.98614,19.52003-16.4698,1.59459.93236,3.07479,2.02803,4.41583,3.26286Z"/>
          <path class="cls-2" d="m544.20517,29.9168c-4.1459,4.17046-9.04448,9.40424-12.20911,13.86918-2.81305,3.9744-5.569,9.36332-7.77691,14.17185-1.82359.41707-3.72085.62969-5.67521.62969-2.94402,0-5.77344-.49074-8.41479-1.40652,3.00112-3.9744,11.13779-14.63803,15.75007-19.48729,3.68811-3.87618,11.57123-10.24656,16.73134-14.28625.80139,2.05259,1.34104,4.23594,1.59459,6.50934Z"/>
        </g>
        <path class="cls-11" d="m539.58577,31.61004c0,10.58446-7.40543,19.43887-17.32181,21.66119-1.56831.35868-3.19998.54154-4.88075.54154-2.53189,0-4.96523-.42204-7.23682-1.20963-1.00582-.34477-1.97627-.7596-2.91169-1.23779-3.63592-1.87789-6.68807-4.71918-8.812-8.2004-1.03398-1.68781-1.84269-3.52346-2.39831-5.47157-.54858-1.93403-.84391-3.97349-.84391-6.08334,0-11.60419,8.91056-21.13372,20.25462-22.11825.63993-.05632,1.29393-.08448,1.94811-.08448,4.09299,0,7.92603,1.1042,11.21031,3.03824,1.37137.80184,2.64436,1.74413,3.79767,2.8061,2.48965,2.27863,4.4448,5.11289,5.68963,8.30583.6892,1.76525,1.15331,3.64296,1.37137,5.59811.09152.80888.13358,1.62463.13358,2.45445Z"/>
        <path class="cls-10" d="m501.22717,35.76443c0-6.46009,2.96079-12.1774,7.50639-15.67815,2.55446-1.96795,5.60968-3.23748,8.92232-3.54222.51486-.05036,1.03838-.07398,1.56763-.07398,5.65088,0,10.6915,2.79519,13.99102,7.16399-2.9499-6.33828-9.05404-10.69397-16.10891-10.69397-.52925,0-1.05277.02366-1.56763.07398-3.31264.30478-6.36786,1.57431-8.92239,3.54222-4.54553,3.50079-7.50632,9.2181-7.50632,15.67819,0,4.59935,1.50226,8.8202,4.00622,12.13535-1.20613-2.59123-1.88833-5.51198-1.88833-8.6054Z"/>
        <path class="cls-9" d="m544.3605,32.77078c0,12.30733-8.61084,22.60301-20.14134,25.18706-1.82359.41707-3.72085.62969-5.67521.62969-2.94402,0-5.77344-.49074-8.41479-1.40652-1.16954-.40089-2.29795-.88325-3.38564-1.43927-4.22776-2.18356-7.77671-5.48734-10.24636-9.53521-1.20228-1.96254-2.14263-4.09699-2.78869-6.3622-.63788-2.24884-.98127-4.62027-.98127-7.07355,0-13.49305,10.36096-24.57374,23.55154-25.71852.74409-.06548,1.50455-.09823,2.26521-.09823,4.75922,0,9.21617,1.28394,13.03505,3.53278,1.59459.93236,3.07479,2.02803,4.41583,3.26286,2.8949,2.64954,5.1683,5.94513,6.61575,9.6578.80139,2.05259,1.34104,4.23594,1.59459,6.50934.10641.94054.15533,1.88907.15533,2.85398Z"/>
      </g>
    </g>
  </g>
</svg>