<?xml version="1.0" encoding="UTF-8"?>
<svg id="Layer_2" data-name="Layer 2" xmlns="http://www.w3.org/2000/svg" xmlns:xlink="http://www.w3.org/1999/xlink" viewBox="0 0 556.03187 675.21747">
  <defs>
    <style>
      .cls-1 {
        stroke: #603913;
      }

      .cls-1, .cls-2, .cls-3 {
        stroke-linejoin: round;
      }

      .cls-1, .cls-2, .cls-3, .cls-4, .cls-5, .cls-6, .cls-7, .cls-8, .cls-9, .cls-10, .cls-11, .cls-12, .cls-13, .cls-14, .cls-15, .cls-16, .cls-17, .cls-18 {
        stroke-linecap: round;
      }

      .cls-1, .cls-7 {
        fill: #7b3f24;
      }

      .cls-2, .cls-4, .cls-8, .cls-9, .cls-10, .cls-11, .cls-12, .cls-19 {
        stroke: #221f20;
      }

      .cls-2, .cls-12, .cls-19 {
        fill: #f6ceec;
      }

      .cls-3 {
        stroke: #8e1622;
      }

      .cls-3, .cls-4, .cls-5, .cls-20, .cls-21, .cls-22 {
        fill: none;
      }

      .cls-23 {
        fill: #f8fafb;
        opacity: .1;
      }

      .cls-24 {
        clip-path: url(#clippath);
      }

      .cls-25 {
        fill: #f4b5d0;
      }

      .cls-26, .cls-27 {
        fill: #e99a4c;
      }

      .cls-28 {
        fill: #e7dcd3;
      }

      .cls-29, .cls-11 {
        fill: #fff;
      }

      .cls-30, .cls-31 {
        fill: #fbf0e0;
      }

      .cls-32 {
        fill: #803b1c;
      }

      .cls-33 {
        fill: #bd1e2d;
      }

      .cls-34 {
        fill: #9f3f7b;
      }

      .cls-35 {
        fill: #db626f;
      }

      .cls-36, .cls-8 {
        fill: #e4313d;
      }

      .cls-37, .cls-38 {
        fill: #215176;
      }

      .cls-39 {
        fill: #a35542;
      }

      .cls-40, .cls-41 {
        fill: #562d70;
      }

      .cls-42 {
        fill: #774ca4;
      }

      .cls-43, .cls-44 {
        fill: #7a2b5c;
      }

      .cls-45 {
        fill: #4f738e;
      }

      .cls-4, .cls-5, .cls-6, .cls-7, .cls-8, .cls-9, .cls-10, .cls-11, .cls-12, .cls-46, .cls-20, .cls-21, .cls-27, .cls-19, .cls-47, .cls-48, .cls-13, .cls-22, .cls-31, .cls-14, .cls-15, .cls-16, .cls-17, .cls-18 {
        stroke-miterlimit: 10;
      }

      .cls-5 {
        stroke: #fff;
      }

      .cls-6 {
        fill: #4e0a05;
      }

      .cls-6, .cls-7, .cls-20, .cls-27, .cls-47, .cls-48, .cls-22 {
        stroke: #231f20;
      }

      .cls-9 {
        fill: #231f20;
      }

      .cls-10 {
        fill: #928786;
      }

      .cls-49 {
        clip-path: url(#clippath-1);
      }

      .cls-50 {
        clip-path: url(#clippath-2);
      }

      .cls-46 {
        fill: #808184;
        stroke: #58595b;
        stroke-width: .25px;
      }

      .cls-20, .cls-21, .cls-13, .cls-14, .cls-15, .cls-16, .cls-17, .cls-18 {
        stroke-width: .75px;
      }

      .cls-21 {
        stroke: #000;
      }

      .cls-47 {
        fill: #adcbdb;
      }

      .cls-48 {
        fill: #769cc8;
      }

      .cls-13 {
        stroke: #fab040;
      }

      .cls-13, .cls-14, .cls-15, .cls-16, .cls-17, .cls-18 {
        fill: #9ad7d0;
      }

      .cls-51 {
        opacity: .63;
      }

      .cls-52 {
        opacity: .85;
      }

      .cls-31 {
        opacity: .87;
        stroke: #fbf0e0;
      }

      .cls-14 {
        stroke: #f05b29;
      }

      .cls-15 {
        stroke: #8cc63f;
      }

      .cls-16 {
        stroke: #8ea949;
      }

      .cls-17 {
        stroke: #cf63a5;
      }

      .cls-18 {
        stroke: #54b8b4;
      }

      .cls-44, .cls-41, .cls-38 {
        opacity: .35;
      }
    </style>
    <clipPath id="clippath">
      <path class="cls-11" d="m253.09499,617.98039l23.5601,12.05443,6.85039-13.5683-23.50328-12.01654c-.88948-.45427-1.98709-.09471-2.44124.79477l-5.26075,10.29453c-.45427.88936-.11354,1.98697.79477,2.44112Z"/>
    </clipPath>
    <clipPath id="clippath-1">
      <circle class="cls-8" cx="183.31951" cy="446.93205" r="16.33315"/>
    </clipPath>
    <clipPath id="clippath-2">
      <path class="cls-27" d="m274.98707,482.36151c3.36213-2.39801,7.31679-7.77284,5.39276-13.55987-1.48281-4.4602-5.94174-7.61337-11.11967-7.80602.21125-1.26067,1.08548-7.29617-2.8627-12.99273-.70768-1.02103-4.794-6.95021-12.20631-7.38407-5.65206-.33083-11.12441,2.6563-14.32518,7.67421-1.37493-2.59861-4.48377-7.53716-10.38901-10.68813-8.76899-4.67908-21.99587-4.50461-29.08419,3.7674-4.39102,5.12431-4.76259,11.41429-4.72355,14.29836-1.58734-.8878-7.30963-3.8352-14.55931-2.36645-10.18376,2.06314-14.48897,11.03868-14.91621,11.97017-.38739.84472-4.3529,9.89247.54944,18.90441,2.70735,4.9769,6.7864,7.49284,8.63085,8.48197-1.09622.33334-2.72641,1.03163-3.91053,2.5607-2.64071,3.41004-1.53386,8.97452,1.09045,11.91874,4.31075,4.83625,12.9223,3.0866,17.36738,1.1899,3.60272-1.53727,6.59317-4.00683,11.36199-9.81517,3.20182-3.8997,6.1173-8.06587,9.78066-11.53556,6.33549-6.00047,14.83154-9.66978,23.54336-10.16797,5.70958-.32646,11.48223.71117,16.74552,2.93888,5.16557,2.18633,7.10311,4.21378,12.22444,4.79103,2.39689.27016,7.21376.8131,11.40981-2.17977Z"/>
    </clipPath>
  </defs>
  <g id="floor_clutter" data-name="floor clutter">
    <g>
      <g>
        <g>
          <g>
            <rect class="cls-39" x=".00002" y="2.875" width="36" height="30"/>
            <rect class="cls-39" x="-153.99999" y="262.87501" width="450.00001" height="30" transform="translate(348.87502 206.87499) rotate(90)"/>
            <rect class="cls-39" x=".00002" y="522.875" width="35.99999" height="30"/>
            <path class="cls-39" d="m56.00002,502.87501c0,11.04565-8.95435,20-20.00001,19.99999v30c27.61425,0,50-22.38573,50.00001-49.99998h-30Z"/>
            <path class="cls-39" d="m36.00002,32.875c11.04565,0,20,8.95435,20,20h30c0-27.61426-22.38574-50-50-50v30Z"/>
          </g>
          <g>
            <rect class="cls-39" x="86.00002" y="143.12063" width="7" height="20" transform="translate(179.00004 306.24126) rotate(180)"/>
            <path class="cls-32" d="m100.44938,158.01784h2.31851c.5642,0,1.02158-.45738,1.02158-1.02158v-7.75127c0-.5642-.45738-1.02158-1.02158-1.02158h-2.31851c-.65816,0-1.14458-.61325-.99476-1.25414l2.35989-10.09451c.14983-.64088-.3366-1.25414-.99476-1.25414h-6.79815c-.5642,0-1.02158.45738-1.02158,1.02158v32.95684c0,.5642.45738,1.02158,1.02158,1.02158h6.79815c.65816,0,1.14458-.61325.99476-1.25414l-2.35989-10.09451c-.14983-.64088.3366-1.25414.99476-1.25414Z"/>
          </g>
          <rect class="cls-32" x="67.00002" y="481.37501" width="8" height="35" rx=".99921" ry=".99921" transform="translate(-427.87499 569.87503) rotate(-90)"/>
          <rect class="cls-32" x="28" y="520.375" width="8" height="35" rx=".99921" ry=".99921"/>
          <rect class="cls-32" x="67.00002" y="39.375" width="8" height="35" rx=".99921" ry=".99921" transform="translate(14.12502 127.87502) rotate(-90)"/>
          <rect class="cls-32" x="28.00002" y=".375" width="8" height="35" rx=".99921" ry=".99921"/>
          <rect class="cls-32" x="67.00002" y="260.37501" width="8" height="35" rx=".99921" ry=".99921" transform="translate(-206.87499 348.87502) rotate(-90)"/>
        </g>
        <g>
          <path class="cls-21" d="m0,552.875h28v1.50079c0,.55188.44739.99921.99921.99921h6.00159c.55182,0,.99921-.44733.99921-.99921v-1.50079c27.61426,0,50-22.38574,50-50h1.50079c.55188,0,.99921-.44733.99921-.99921v-6.00159c0-.55182-.44733-.99921-.99921-.99921h-1.50079v-213h1.50079c.55188,0,.99921-.44733.99921-.99921v-6.00159c0-.55182-.44733-.99921-.99921-.99921h-1.50079v-110.75439h7v6.47845c0,.56421.4574,1.02155,1.02161,1.02155h6.79816c.65814,0,1.14459-.61322.99475-1.25409l-2.35992-10.09454c-.14978-.64087.33661-1.25415.99481-1.25415h2.31848c.56421,0,1.02161-.45734,1.02161-1.02155v-7.75128c0-.56421-.4574-1.02155-1.02161-1.02155h-2.31848c-.6582,0-1.14459-.61328-.99481-1.25415l2.35992-10.09454c.14984-.64087-.33661-1.25415-.99475-1.25415h-6.79816c-.56421,0-1.02161.4574-1.02161,1.02161v6.47839h-7V60.875h1.50079c.55188,0,.99921-.44733.99921-.99921v-6.00159c0-.55182-.44733-.99921-.99921-.99921h-1.50079c0-27.61426-22.38574-50-50-50v-1.50079c0-.55182-.44733-.99921-.99921-.99921h-6.00159c-.55182,0-.99921.44739-.99921.99921v1.50079H0"/>
          <path class="cls-21" d="m0,32.875h28v1.50079c0,.55188.44739.99921.99921.99921h6.00159c.55188,0,.99921-.44733.99921-.99921v-1.50079c11.04565,0,20,8.95435,20,20h-1.50079c-.55182,0-.99921.44739-.99921.99921v6.00159c0,.55188.44739.99921.99921.99921h1.50079v213h-1.50079c-.55182,0-.99921.44739-.99921.99921v6.00159c0,.55188.44739.99921.99921.99921h1.50079v213h-1.50079c-.55182,0-.99921.44739-.99921.99921v6.00159c0,.55188.44739.99921.99921.99921h1.50079c0,11.04565-8.95435,20-20,20v-1.50079c0-.55182-.44739-.99921-.99921-.99921h-6.00159c-.55182,0-.99921.44739-.99921.99921v1.50079H0"/>
        </g>
      </g>
      <g>
        <g>
          <rect class="cls-42" x="448.00233" y="158.39692" width="103.51403" height="121.62898"/>
          <rect class="cls-23" x="460.94158" y="154.91066" width="12.93925" height="128.32301"/>
          <rect class="cls-41" x="510.11074" y="162.91329" width="28.46636" height="112.03926"/>
          <rect class="cls-40" x="444.12055" y="154.63217" width="111.27758" height="8.28112"/>
          <rect class="cls-40" x="444.12055" y="274.95255" width="111.27758" height="8.28112"/>
          <rect class="cls-40" x="456.09107" y="150.1158" width="20.70281" height="4.51637"/>
          <g>
            <rect class="cls-40" x="448.00233" y="189.70885" width="103.51403" height="8.28112"/>
            <circle class="cls-40" cx="448.00233" cy="193.84941" r="4.14056"/>
            <circle class="cls-40" cx="551.51635" cy="193.84941" r="4.14056"/>
          </g>
          <g>
            <rect class="cls-40" x="448.00233" y="240.77004" width="103.51403" height="8.28112"/>
            <circle class="cls-40" cx="448.00233" cy="244.9106" r="4.14056"/>
            <circle class="cls-40" cx="551.51635" cy="244.9106" r="4.14056"/>
          </g>
          <rect class="cls-41" x="448.00233" y="162.91329" width="103.51403" height="5.1757"/>
          <rect class="cls-41" x="448.00233" y="197.98997" width="103.51403" height="5.1757"/>
          <rect class="cls-41" x="448.00233" y="249.05116" width="103.51403" height="5.1757"/>
        </g>
        <g>
          <rect class="cls-21" x="456.09107" y="150.1158" width="20.70281" height="4.51637"/>
          <path class="cls-21" d="m551.51631,249.05114c2.28674,0,4.14056-1.8537,4.14056-4.14056,0-2.28674-1.85383-4.14056-4.14056-4.14056v-42.78003c2.28674,0,4.14056-1.85383,4.14056-4.14056s-1.85383-4.14056-4.14056-4.14056v-26.79563h3.88178v-8.28112h-78.6042v-4.51636h-20.70281v4.51636h-11.97058v8.28112h3.88178v26.79563c-2.28674,0-4.14056,1.85383-4.14056,4.14056s1.85383,4.14056,4.14056,4.14056v42.78003c-2.28674,0-4.14056,1.85383-4.14056,4.14056,0,2.28686,1.85383,4.14056,4.14056,4.14056v25.90138h-3.88178v8.28112h111.27758v-8.28112h-3.88178v-25.90138Z"/>
        </g>
      </g>
      <g>
        <g>
          <g>
            <rect class="cls-45" x="144.593" y="182.37142" width="103.51403" height="121.62898"/>
            <rect class="cls-23" x="157.53225" y="178.88516" width="12.93925" height="128.32301"/>
            <rect class="cls-38" x="206.70141" y="186.88778" width="28.46636" height="112.03926"/>
            <rect class="cls-37" x="140.71122" y="178.60666" width="111.27758" height="8.28112"/>
            <rect class="cls-37" x="140.71122" y="298.92704" width="111.27758" height="8.28112"/>
            <rect class="cls-37" x="152.68174" y="174.09029" width="20.70281" height="4.51637"/>
            <g>
              <rect class="cls-37" x="144.593" y="213.68334" width="103.51403" height="8.28112"/>
              <circle class="cls-37" cx="144.593" cy="217.8239" r="4.14056"/>
              <circle class="cls-37" cx="248.10702" cy="217.8239" r="4.14056"/>
            </g>
            <g>
              <rect class="cls-37" x="144.593" y="264.74453" width="103.51403" height="8.28112"/>
              <circle class="cls-37" cx="144.593" cy="268.88509" r="4.14056"/>
              <circle class="cls-37" cx="248.10702" cy="268.88509" r="4.14056"/>
            </g>
            <rect class="cls-38" x="144.593" y="186.88778" width="103.51403" height="5.1757"/>
            <rect class="cls-38" x="144.593" y="221.96446" width="103.51403" height="5.1757"/>
            <rect class="cls-38" x="144.593" y="273.02566" width="103.51403" height="5.1757"/>
          </g>
          <g>
            <rect class="cls-21" x="152.68174" y="174.09029" width="20.70281" height="4.51637"/>
            <path class="cls-21" d="m248.10698,273.02563c2.28674,0,4.14056-1.8537,4.14056-4.14056,0-2.28674-1.85383-4.14056-4.14056-4.14056v-42.78003c2.28674,0,4.14056-1.85383,4.14056-4.14056s-1.85383-4.14056-4.14056-4.14056v-26.79563h3.88178v-8.28112h-78.6042v-4.51636h-20.70281v4.51636h-11.97058v8.28112h3.88178v26.79563c-2.28674,0-4.14056,1.85383-4.14056,4.14056s1.85383,4.14056,4.14056,4.14056v42.78003c-2.28674,0-4.14056,1.85383-4.14056,4.14056,0,2.28686,1.85383,4.14056,4.14056,4.14056v25.90138h-3.88178v8.28112h111.27758v-8.28112h-3.88178v-25.90138Z"/>
          </g>
        </g>
        <g>
          <g>
            <rect class="cls-34" x="208.63871" y="242.25313" width="103.51403" height="121.62898" transform="translate(563.46335 42.6719) rotate(90)"/>
            <rect class="cls-23" x="254.06535" y="206.55799" width="12.93925" height="128.32301" transform="translate(531.25446 10.18452) rotate(90)"/>
            <rect class="cls-44" x="246.44104" y="271.63257" width="28.46636" height="112.03926" transform="translate(588.32642 66.97798) rotate(90)"/>
            <rect class="cls-43" x="265.19562" y="298.92706" width="111.27758" height="8.28112" transform="translate(17.76679 623.90203) rotate(-90)"/>
            <rect class="cls-43" x="144.87524" y="298.92706" width="111.27758" height="8.28112" transform="translate(503.58165 102.55359) rotate(90)"/>
            <rect class="cls-43" x="316.88175" y="334.12631" width="20.70281" height="4.51637" transform="translate(-9.15134 663.61765) rotate(-90)"/>
            <g>
              <rect class="cls-43" x="234.00072" y="298.92706" width="103.51403" height="8.28112" transform="translate(588.82536 17.30989) rotate(90)"/>
              <circle class="cls-43" cx="285.75773" cy="251.31061" r="4.14056"/>
              <circle class="cls-43" cx="285.75773" cy="354.82464" r="4.14056"/>
            </g>
            <g>
              <rect class="cls-43" x="182.93953" y="298.92706" width="103.51403" height="8.28112" transform="translate(537.76416 68.37108) rotate(90)"/>
              <circle class="cls-43" cx="234.69654" cy="251.31061" r="4.14056"/>
              <circle class="cls-43" cx="234.69654" cy="354.82464" r="4.14056"/>
            </g>
            <rect class="cls-44" x="262.34899" y="300.47977" width="103.51403" height="5.1757" transform="translate(617.17362 -11.03838) rotate(90)"/>
            <rect class="cls-44" x="227.27231" y="300.47977" width="103.51403" height="5.1757" transform="translate(582.09694 24.0383) rotate(90)"/>
            <rect class="cls-44" x="176.21111" y="300.47977" width="103.51403" height="5.1757" transform="translate(531.03575 75.09949) rotate(90)"/>
          </g>
          <g>
            <rect class="cls-21" x="316.88175" y="334.12623" width="20.70281" height="4.51637" transform="translate(-9.15125 663.61756) rotate(-90)"/>
            <path class="cls-21" d="m230.556,251.31057c0-2.28674,1.8537-4.14056,4.14056-4.14056,2.28674,0,4.14056,1.85383,4.14056,4.14056h37.60433s5.1757,0,5.1757,0c0-2.28674,1.85383-4.14056,4.14056-4.14056s4.14056,1.85383,4.14056,4.14056h26.79563v-3.88178h8.28112v78.6042h4.51636v20.70281h-4.51636v11.97058h-8.28112v-3.88178s-5.1757,0-5.1757,0h-21.61993c0,2.28674-1.85383,4.14056-4.14056,4.14056s-4.14056-1.85383-4.14056-4.14056h-5.1757s-37.60433,0-37.60433,0c0,2.28674-1.85383,4.14056-4.14056,4.14056-2.28686,0-4.14056-1.85383-4.14056-4.14056h-25.90138v3.88178h-8.28112s0-16.82103,0-16.82103v-94.45655s8.28112,0,8.28112,0v3.88178h25.90138Z"/>
          </g>
        </g>
      </g>
      <g>
        <path class="cls-19" d="m310.57537,578.84534c.9477-1.67078,1.67755-3.48381,2.24103-5.31799.87636-2.85263,1.39878-5.87628.94355-8.82556s-1.99199-5.82503-4.52144-7.40836c-5.94463-3.72108-12.69574,1.87687-12.30967,8.23953-.6162,2.38921-1.38486,4.21419-1.96722,5.43079-.9947,2.07796-2.07233,4.09531-3.88501,7.67822-.67684,1.3378-1.35472,2.95476-.62521,4.2646.27161.48756.71029.85978,1.16829,1.1787,4.56356,3.17781,10.71194,3.09194,15.02058-.44607,1.61403-1.32535,2.90361-2.97535,3.9351-4.79387Z"/>
        <path class="cls-19" d="m176.3739,578.84534c-.9477-1.67078-1.67755-3.48381-2.24103-5.31799-.87636-2.85263-1.39878-5.87628-.94355-8.82556.45521-2.94922,1.99199-5.82503,4.52144-7.40836,5.94463-3.72108,12.69574,1.87687,12.30967,8.23953.6162,2.38921,1.38486,4.21419,1.96722,5.43079.9947,2.07796,2.07233,4.09531,3.88501,7.67822.67684,1.3378,1.35472,2.95476.62521,4.2646-.27161.48756-.71029.85978-1.16829,1.1787-4.56356,3.17781-10.71194,3.09194-15.02058-.44607-1.61403-1.32535-2.90361-2.97535-3.9351-4.79387Z"/>
        <path class="cls-12" d="m186.82692,553.39573c.01894,1.68424.11354,3.3306.2839,4.97696.88948,9.2348,4.01183,17.82615,8.83736,25.2254,10.0864,15.63093,27.66653,25.96334,47.66896,25.96334,29.18052,0,53.23255-22.00834,56.43067-50.3561-3.02776-.26496-15.40397-1.68424-25.4146-12.26256-10.04851-10.61632-10.76762-23.10595-10.86222-26.09594-9.65119,8.78065-24.7902,10.95693-36.52283,5.22298-.85159,4.50386-2.61149,8.83736-5.0905,12.69788-.15142.26484-3.993,6.13128-9.42411,9.91603-10.31336,7.20995-23.76824,5.0905-25.90663,4.712Zm49.99666,16.76642c7.83435-.07565,15.64987-.15131,23.48434-.22708,1.15432,4.74988-1.34351,10.19993-5.37428,12.92496-4.04971,2.74397-9.78367,2.64926-13.75761-.18931-2.47901-1.77872-4.04971-4.37138-4.57952-7.22877-.32179-1.70318-.26496-3.51991.22708-5.2798Z"/>
        <g>
          <path class="cls-9" d="m236.5965,575.44196c1.9112-.18931,5.9988-.35956,10.57832,1.62742,4.03077,1.7599,6.52872,4.3335,7.75881,5.79067,4.03077-2.72503,6.5286-8.17508,5.37428-12.92496-7.83446.07577-15.64999.15142-23.48434.22708-.49204,1.7599-.54886,3.57662-.22708,5.2798Z"/>
          <path class="cls-8" d="m236.5965,575.44196c.52981,2.85739,2.10051,5.45005,4.57952,7.22877,3.97394,2.83856,9.7079,2.93328,13.75761.18931-1.23009-1.45717-3.72804-4.03077-7.75881-5.79067-4.57952-1.98697-8.66711-1.81672-10.57832-1.62742Z"/>
          <ellipse class="cls-9" cx="262.89114" cy="561.98802" rx="1.58568" ry="3.62466"/>
          <ellipse class="cls-9" cx="234.09159" cy="561.98802" rx="1.58568" ry="3.62466"/>
        </g>
        <line class="cls-4" x1="186.80505" y1="553.39366" x2="186.82398" y2="553.39366"/>
        <line class="cls-4" x1="300.04483" y1="559.20325" x2="300.06376" y2="559.20325"/>
        <rect class="cls-9" x="224.18332" y="648.32564" width="15.93651" height="17.92031" rx=".2798" ry=".2798" transform="translate(464.30315 1314.57159) rotate(-180)"/>
        <rect class="cls-9" x="244.69763" y="648.32564" width="15.93651" height="17.92031" rx=".36248" ry=".36248" transform="translate(505.33178 1314.57159) rotate(-180)"/>
        <path class="cls-7" d="m238.90822,674.40578c-7.10357.10184-14.20723.20363-21.3108.30547-.06443-.4303-.195-1.64673.40645-2.79803.40852-.78196.95062-1.18737,1.41144-1.46646,1.11862-.67755,2.41548-.80183,3.67294-.91347.54727-.82678,1.09463-1.65357,1.6419-2.48035h14.09049c.02916,2.45097.05841,4.90188.08757,7.35285Z"/>
        <path class="cls-7" d="m245.67186,674.4235c7.10418-.04019,14.20846-.08044,21.31264-.12064.05582-.4315.16203-1.6503-.46231-2.78935-.42407-.77364-.97416-1.16813-1.44047-1.43795-1.13194-.65505-2.43103-.75338-3.69047-.83986-.56369-.81568-1.12747-1.63135-1.69116-2.44703-4.69589.0939-9.39179.1878-14.08768.2817.01985,2.45106.0396,4.90207.05944,7.35313Z"/>
        <path class="cls-2" d="m288.5022,621.54789c1.94608-.60309,2.93316-.90155,3.62652-.82179.20698.02379,2.4171.31699,2.95903,2.04946.36152,1.15553-.15142,2.52937-1.28322,3.41214,2.16207.67961,3.03122,2.83383,2.48374,4.04954-.55164,1.22484-2.76869,2.00268-4.71442.79788.8032.8401,1.067,2.04108.68146,3.08764-.31878.86505-1.08421,1.63273-2.06401,1.80569-1.31972.23302-2.77123-.65813-3.30542-2.20354-.70017,1.84554-2.21128,2.93634-3.47128,2.73738-1.29419-.20438-2.1526-1.74251-2.4067-2.82343-.31347-1.33323.26392-2.09115-.27085-3.41024-.29707-.73263-.77305-1.23356-1.11494-1.53455,1.49228-2.72647,2.98444-5.45294,4.47672-8.17941.87331.53876,1.7465,1.07746,2.6198,1.61621.41222-.14189,1.029-.34916,1.78357-.58299Z"/>
        <path class="cls-2" d="m205.79811,633.52576c-2.03611-.07226-3.0669-.10174-3.71515.15685-.19352.07718-2.24967.93907-2.31886,2.753-.04621,1.20988.80869,2.40138,2.13221,2.95687-1.90856,1.22223-2.18307,3.52889-1.33626,4.55875.85321,1.03757,3.1966,1.20751,4.75881-.4649-.55509,1.02116-.49509,2.24931.15113,3.15834.53425.75134,1.47404,1.29171,2.46493,1.20198,1.33468-.12081,2.50207-1.36106,2.6128-2.99244,1.15915,1.59769,2.90322,2.25457,4.06712,1.73251,1.19547-.53625,1.62099-2.24553,1.58308-3.35527-.04671-1.36879-.80247-1.949-.6319-3.36211.09479-.78486.42293-1.39298.67404-1.77302-2.15436-2.24037-4.30861-4.48077-6.46297-6.72115-.70169.7487-1.40328,1.49732-2.10497,2.24602-.435-.02896-1.08453-.06743-1.87401-.09544Z"/>
        <path class="cls-10" d="m276.6551,630.03482l1.81661.92725c.88948.45427,1.98709.09471,2.44124-.79477l5.26075-10.29453c.47309-.88936.11354-1.98697-.77582-2.44112l-1.89238-.96513-6.85039,13.5683Z"/>
        <g>
          <path class="cls-29" d="m253.09499,617.98039l23.5601,12.05443,6.85039-13.5683-23.50328-12.01654c-.88948-.45427-1.98709-.09471-2.44124.79477l-5.26075,10.29453c-.45427.88936-.11354,1.98697.79477,2.44112Z"/>
          <g class="cls-24">
            <path class="cls-28" d="m261.30667,606.61331c.54833,5.80615.48423,11.7003-.33654,17.4789-.18963,1.33505.32731,2.68545,1.7461,3.0753,1.17192.32201,2.88422-.40083,3.0753-1.7461.88712-6.24568,1.10869-12.52314.51515-18.8081-.12694-1.34418-1.05815-2.5-2.5-2.5-1.25369,0-2.6277,1.14777-2.5,2.5h0Z"/>
          </g>
          <path class="cls-4" d="m253.09499,617.98039l23.5601,12.05443,6.85039-13.5683-23.50328-12.01654c-.88948-.45427-1.98709-.09471-2.44124.79477l-5.26075,10.29453c-.45427.88936-.11354,1.98697.79477,2.44112Z"/>
        </g>
        <path class="cls-10" d="m203.72285,633.80063l11.46779,5.86643c.88948.45415,1.98709.0946,2.44124-.79477l.88936-1.72213-14.72263-7.47491-.87053,1.68424c-.45415.88948-.0946,1.98697.79477,2.44112Z"/>
        <path class="cls-11" d="m203.79862,629.67526l14.72263,7.47491,14.26859-27.95043c.15131-.26484.20813-.54875.20813-.83253,0-.6624-.35956-1.28692-.98407-1.60859-7.22889-3.69016-16.0852-.83265-19.77535,6.39624l-8.43992,16.52041Z"/>
        <path class="cls-11" d="m213.97788,647.83342c5.85026,2.61039,15.49267,6.01682,27.77614,6.38919,12.84965.38947,23.04358-2.70938,29.09644-5.09061-2.42911-13.5232-4.85811-27.04634-7.28722-40.56954-13.63957-.02206-27.27925-.04418-40.91882-.06624-2.88881,13.11242-5.77773,26.22478-8.66654,39.3372Z"/>
        <path class="cls-9" d="m263.56324,608.56246c-5.28592,1.26255-10.66021,2.06979-16.05852,2.41213-.04655-.72217-.03615-1.80621.2943-3.06108.17198-.6531.45866-1.74222,1.24349-2.76447,1.01849-1.32665,2.34641-1.8512,3.41965-2.25961.97414-.37076,1.99148-.60621,6.4615-.86384,1.47669-.08512,2.69419-.136,3.51667-.16626.37434,2.23438.74857,4.46875,1.12291,6.70313Z"/>
        <path class="cls-9" d="m222.64442,608.49622c2.55755.61008,5.35499,1.16905,8.37189,1.61737,2.86282.42539,5.56382.69769,8.07147.86101.04655-.72217.03615-1.80621-.2943-3.06108-.17198-.6531-.45866-1.74222-1.24349-2.76447-1.01849-1.32665-2.34641-1.8512-3.41965-2.25961-.97414-.37076-1.99148-.60621-6.4615-.86384-1.47669-.08512-2.69419-.136-3.51667-.16626-.50255,2.21232-1.00521,4.42457-1.50776,6.63689Z"/>
        <line class="cls-4" x1="247.50437" y1="610.97459" x2="247.71727" y2="654.06662"/>
        <ellipse class="cls-4" cx="243.0155" cy="619.78071" rx=".60133" ry="2.07624"/>
        <ellipse class="cls-4" cx="242.77968" cy="633.01505" rx=".60133" ry="2.07624"/>
        <ellipse class="cls-4" cx="242.77968" cy="646.24939" rx=".60133" ry="2.07624"/>
        <path class="cls-4" d="m247.50472,610.97459c-.67303.35938-2.15041,1.03131-4.12698.98921-1.77607-.03783-3.1056-.6341-3.76997-.98921"/>
        <path class="cls-46" d="m280.17786,642.79155h.01894c.71911.43521,1.6653.17036,2.10051-.56769l17.12598-29.6535.56781.34061c2.7628,1.58953,6.32047.64334,7.91012-2.11945l5.41217-9.34834c.51098-.90842.20813-2.06274-.70017-2.5736l-10.6162-6.1314c-.88948-.51086-2.0438-.20813-2.55478.68134l-5.37428,9.29152c-1.60859,2.81962-.6624,6.39624,2.15722,8.02366l.51098.2839-17.12598,29.6535c-.41638.73805-.17036,1.68424.56769,2.11945Zm22.23542-44.98181l-4.88236,8.45898-2.11945-1.23009,4.88236-8.43992,2.11945,1.21103Zm.71911,11.69499l4.88236-8.44004,2.11945,1.21115-4.88236,8.45887-2.11945-1.22998Zm-3.82264-2.21416l4.86342-8.45887,2.11945,1.22998-4.88225,8.45898-2.10063-1.23009Z"/>
        <path class="cls-6" d="m186.80498,552.73125c0,.22708,0,.45415.01894.66229,2.13839.3785,15.59316,2.49795,25.90663-4.712,5.43111-3.78475,9.27269-9.65107,9.42411-9.91603,1.58815-2.47312,2.84238-5.15333,3.79053-7.93518-.17591,4.29203-.35182,8.58395-.52773,12.87599,8.66931.79927,17.52619-4.85684,20.4478-13.05813.90045,7.28953-1.38174,14.91632-6.13821,20.51306,7.86588-.43683,15.46137-4.46656,20.23355-10.73482,1.26197-1.65756,3.56022-6.83168,4.85845-11.84964,1.22489,5.22806,3.89529,12.11368,9.81116,18.36381,10.01063,10.57832,22.38684,11.9976,25.4146,12.26256.24602-2.11945.3785-4.27679.3785-6.47189,0-31.37563-25.43354-56.80916-56.80916-56.80916-31.37563,0-56.80916,25.43354-56.80916,56.80916Z"/>
        <path class="cls-5" d="m281.95107,528.04128c1.19193,1.95649,2.38387,3.91297,3.5758,5.86946"/>
        <path class="cls-5" d="m278.96435,530.24066c.96737,2.1171,1.93475,4.2342,2.90212,6.35131"/>
        <path class="cls-5" d="m215.2106,530.87254c-.93945,1.61977-1.87891,3.23954-2.81836,4.85931"/>
        <path class="cls-5" d="m211.34,529.80736c-1.65242,2.14712-3.30484,4.29424-4.95726,6.44135"/>
        <g>
          <circle class="cls-36" cx="183.31951" cy="446.93205" r="16.33315"/>
          <g class="cls-49">
            <path class="cls-35" d="m169.50138,441.20828c-2.5787,4.12573-1.91411,9.73316.87887,13.58941,3.00577,4.15005,7.69385,6.43809,12.53509,7.74843,3.10984.84172,4.43669-3.98031,1.3292-4.8214-3.64814-.98742-7.2624-2.53895-9.50595-5.39279-.93159-1.185-1.62654-2.82789-1.81758-4.30219.03266.25206-.02856-.38285-.03174-.44006-.01423-.2566-.01938-.51426-.01374-.77121.00375-.17076.01701-.34067.02492-.51119.03338-.72026-.11546.35572.04514-.34473.09525-.41542.1982-.81874.33313-1.22348.06848-.20541.24909-.54173.54003-1.0072.71575-1.14514.24369-2.75336-.89688-3.42047-1.19801-.70071-2.70288-.25121-3.42047.89688h0Z"/>
            <path class="cls-33" d="m198.15737,440.38704c-3.30424,5.15349-8.48208,9.01502-14.3818,10.66956-6.53326,1.83222-13.61708.8303-19.46688-2.56577-2.78818-1.61866-5.30833,2.70069-2.5236,4.31735,6.97981,4.05208,15.52432,5.25597,23.31967,3.06981,7.16242-2.00866,13.36623-6.72293,17.36995-12.96736,1.74191-2.71678-2.58407-5.22692-4.31735-2.5236h0Z"/>
            <path class="cls-36" d="m176.11626,439.72359c-.11308.11333-.22994.21892-.35405.32005l.50597-.39091c-.28617.21781-.59145.39238-.92144.53463l.5972-.25202c-.37553.14972-.75955.25067-1.15877.31333l.6646-.0893c-.53292.0714-1.06144.06985-1.5951.00755l.6646.0893c-1.10928-.1522-2.15445-.53596-3.1819-.96756l.5972.25202c-.22319-.09472-.44581-.19075-.66827-.28718-.64081-.27777-1.22334-.44563-1.9264-.25202-.5799.15969-1.20833.60807-1.49408,1.1489-.30655.5802-.46021,1.28308-.25202,1.9264.18651.57634.56706,1.24187,1.1489,1.49408,1.83412.79503,3.64705,1.56992,5.67754,1.64251,1.90825.06822,3.87168-.5914,5.23155-1.95423.92495-.92697.99571-2.62149,0-3.53553-.9971-.91532-2.54847-.98922-3.53553,0h0Z"/>
            <path class="cls-36" d="m177.06552,442.21111c-.41037.09271-.82233.17579-1.23757.24379-.17939.02938-.70451.01686-.04876.01417-.17253.00071-.3652.04342-.53724.06051-.77703.07716-1.55907.10816-2.33977.0931-.3604-.00695-.72061-.02333-1.08012-.0496-.20972-.01532-.41914-.03415-.62827-.0561-.08965-.00913-.17921-.01908-.26868-.02983-.28141-.03516-.23853-.02906.12864.0183-.32664.03035-.741-.12016-1.06509-.18572-.41235-.08341-.82097-.18217-1.2275-.29027-1.26243-.33569-2.77365.42175-3.0753,1.7461-.29874,1.31161.39376,2.71569,1.7461,3.0753,3.58924.95442,7.34372.99926,10.96277.18165,1.27696-.28849,2.14844-1.83202,1.7461-3.0753-.43307-1.33824-1.70714-2.05519-3.0753-1.7461h0Z"/>
            <g class="cls-51">
              <path class="cls-25" d="m186.9602,435.34795c.09639.04775.18243.10166.26759.16738l-.50597-.39091c.0802.07031.15026.1441.2168.22744l-.39091-.50597c.07821.11002.1409.22257.19437.3463l-.25202-.5972c.0477.12761.08111.25402.10297.38832l-.0893-.6646c.01527.13544.01707.26595.00488.40155l.0893-.6646c-.02469.17214-.07006.33276-.13539.49396l.25202-.5972c-.07328.15986-.16061.30583-.26501.44743l.39091-.50597c-.12944.16235-.27106.30443-.43137.43632l.50597-.39091c-.22829.1756-.47418.31267-.73842.42641l.5972-.25202c-.47195.18827-.96395.28974-1.46608.35778l.6646-.0893c-.38114.0468-.75981.06555-1.1417.01627l.6646.0893c-.18635-.03067-.36303-.07667-.53924-.14522l.5972.25202c-.13489-.06009-.25952-.12899-.37962-.21462l.50597.39091c-.1232-.09695-.23003-.20326-.32858-.32531l.39091.50597c-.09327-.12613-.17034-.25705-.23648-.39937l.25202.5972c-.0817-.19516-.13493-.39278-.16346-.60239l.0893.6646c-.01825-.185-.01604-.36361.00779-.54799l-.0893.6646c.02678-.15806.06821-.30712.12664-.45652l-.25202.5972c.07856-.17922.17381-.34101.29103-.49765l-.39091.50597c.12279-.15228.25656-.28596.40788-.40989l-.50597.39091c.17844-.13661.36646-.24921.57069-.34291l-.5972.25202c.23326-.09824.47121-.16496.72174-.20056l-.6646.0893c.25387-.02729.50234-.02392.75566.00755l-.6646-.0893c.28413.04425.55532.12116.82164.22915l-.5972-.25202c.29416.12868.56544.28857.82141.48237l-.50597-.39091c.2099.16762.39837.35123.56321.56356l-.39091-.50597c.10271.14263.18875.28908.25947.4502l-.25202-.5972c.05199.1361.08793.26992.10936.41386l-.0893-.6646c.01082.1217.00976.2378-.00243.35936l.0893-.6646c-.02467.1526-.06495.29376-.1225.43696l.25202-.5972c-.06533.14131-.14137.27041-.232.39676l.39091-.50597c-.11682.1484-.24455.27768-.39042.3978l.50597-.39091c-.208.15804-.429.28384-.66716.39063l.5972-.25202c-.42476.17735-.87007.29378-1.325.36159l.6646-.0893c-.32975.04197-.65543.05124-.98586.0112l.6646.0893c-.22843-.03568-.44219-.09312-.65606-.18127l.5972.25202c-.13091-.0608-.25134-.12935-.3689-.21289l.50597.39091c-.13219-.10299-.24828-.21557-.35561-.34441l.39091.50597c-.10072-.13203-.18366-.26867-.25274-.41985l.25202.5972c-.05044-.12588-.08693-.25041-.11078-.38376l.0893.6646c-.01638-.13369-.01739-.26065-.00185-.39425l-.0893.6646c.01972-.10889.04863-.20918.08917-.31215l-.25202.5972c.04825-.10242.10312-.19498.16932-.28682l-.39091.50597c.08966-.11044.18651-.20576.29685-.2952l-.50597.39091c.13939-.10252.28431-.18555.44231-.25625l-.5972.25202c.2069-.08291.41387-.13393.63425-.16764l-.6646.0893c.45896-.05461.91591-.02432,1.37495.01294.60769.04932,1.34978-.31424,1.76777-.73223.43361-.43361.76013-1.14502.73223-1.76777-.02896-.64656-.24134-1.31714-.73223-1.76777-.51089-.46899-1.07525-.67603-1.76777-.73223-.80966-.06571-1.64338-.07343-2.43226.15792-1.05337.3089-1.95715.95963-2.5458,1.88919-.55368.87433-.7084,2.10555-.37003,3.08761.35427,1.02821.98573,1.85042,1.90217,2.4414,1.45411.93771,3.51006.84848,5.07058.24086.41751-.16257.86548-.33224,1.23752-.59378.58491-.41118.99529-.79628,1.40402-1.38108.65322-.93463.82135-2.10283.59626-3.20473-.17313-.84755-.72196-1.69259-1.35541-2.27153-.70274-.64227-1.49405-1.10372-2.39921-1.39936-.90983-.29717-1.87401-.29097-2.80335-.11045-.86122.16729-1.64129.64621-2.29527,1.21286-1.28989,1.11766-1.88064,3.12336-1.30603,4.7491.36055,1.02009.95143,1.84034,1.86772,2.43012.77539.49908,1.79089.69579,2.70123.66375.84553-.02976,1.76243-.15714,2.56193-.45491.46501-.17319.95279-.36764,1.35948-.66212.59875-.43354.96852-.79346,1.39801-1.38686,1.32866-1.83573.82952-4.84626-1.28309-5.89286-.60665-.30054-1.25652-.43649-1.9264-.25202-.5799.15969-1.20833.60807-1.49408,1.1489-.30655.5802-.46021,1.28308-.25202,1.9264.19266.59533.56875,1.20667,1.1489,1.49408h0Z"/>
            </g>
            <g class="cls-52">
              <path class="cls-30" d="m186.71303,436.01701c.02295-.11452.03747-.23096.04685-.34736.00051-.00627.0005-.01257,0-.01884-.00461-.05701-.019-.14267-.02304-.17276-.00449-.03344-.01211-.11757-.02367-.17399-.00124-.00605-.00294-.01201-.00504-.01781-.0009-.0025-.00194-.00494-.00293-.0074-.01276-.03147-.11251-.26953-.12655-.29982-.00075-.00161-.00147-.00323-.00225-.00483-.00274-.00562-.00586-.01105-.00929-.01627-.00148-.00226-.00304-.00446-.00462-.00665-.00079-.0011-.00163-.00216-.00244-.00325l-.09773-.12649c-.0328-.04314-.06594-.08601-.0994-.12863-.00404-.00494-.00823-.00972-.01275-.01423-.00389-.00389-.00797-.0076-.0122-.01112-.00142-.00118-.00287-.00231-.0043-.00347-.03737-.0302-.21597-.16783-.25408-.1963-.00259-.00193-.00516-.00387-.00782-.00571-.01028-.0071-.02122-.01293-.03262-.018-.04223-.01877-.25648-.10926-.29987-.12655-.0017-.00068-.00339-.00139-.00511-.00204-.00256-.00098-.00515-.0019-.00775-.00276-.00603-.00199-.01218-.00365-.0184-.00494-.00265-.00055-.00531-.001-.00798-.00145l-.00267-.00039-.3323-.04465c-.00133-.00016-.00266-.00036-.004-.00049-.00621-.00062-.01242-.00098-.01866-.00086-.0031.00006-.00619.00022-.00927.00049-.00176.00016-.00351.00038-.00526.00057l-.3323.04465-.00262.00037c-.00655.00109-.013.00248-.01933.00451-.1083.03475-.21272.08221-.31472.13252-.0066.00326-.0128.00718-.01872.01154-.14567.07855-.26257.18587-.35071.32195-.11048.12073-.18506.26243-.22374.42509-.05209.16615-.05953.3323-.02233.49845.00754.16635.05699.32127.14834.46475l.19545.25298c.15597.15492.33983.26208.55158.32147l.3323.04465c.22564-.0007.43593-.05759.6309-.17066.00815-.00599.01677-.01091.02608-.01485l-.2986.12601c.00994-.00395.02013-.00659.03072-.00807l-.3323.04465c.01244-.00148.02478-.0013.0372.00029l-.3323-.04465c.01446.00211.02838.00605.0419.01157l-.2986-.12601c.01533.00654.0296.01493.0428.0251l-.25298-.19545c.01151.00914.02185.0194.03092.03096l-.19545-.25298c.00761.01004.01403.02069.01913.03222l-.12601-.2986c.00447.01066.00762.02161.00932.03305l-.04465-.3323c.00136.0108.00136.02149-.00002.03228l.04465-.3323c-.00042.00277-.0009.0055-.00145.00824-.05209.16615-.05953.3323-.02233.49845.00754.16635.05699.32127.14834.46475.07855.14567.18587.26257.32195.35071.12073.11048.26243.18506.42509.22374l.3323.04465c.22564-.0007.43593-.05759.6309-.17066l.25298-.19545c.15492-.15597.26208-.33983.32147-.55158h0Z"/>
            </g>
          </g>
          <circle class="cls-4" cx="183.31951" cy="446.93205" r="16.33315"/>
        </g>
        <path class="cls-1" d="m164.87394,434.62414c-4.86329-2.1933-8.87843-3.95303-14.42659-4.03445-5.03987-.07396-10.19058,1.46832-13.99462,4.77519-.4861.42258-.96252.89147-1.20007,1.49017-.23755.59873-.17783,1.35829.29984,1.79048.5278.47769,1.38056.40022,1.99373.03845.61308-.36176,1.05525-.94555,1.52777-1.47795,2.59368-2.9218,6.45957-4.52862,10.35039-4.88243,3.73447-.33959,6.40153.21317,11.49278,1.77005,3.37802,1.03298,8.04413,2.77738,13.28224,5.82295-2.07865-1.4496-5.22888-3.44492-9.32549-5.29246Z"/>
        <path class="cls-3" d="m175.87627,436.26382l-.05363-.10155c-.32022,2.49331-1.6639,4.83963-3.65232,6.3776"/>
        <g>
          <path class="cls-26" d="m274.98707,482.36151c3.36213-2.39801,7.31679-7.77284,5.39276-13.55987-1.48281-4.4602-5.94174-7.61337-11.11967-7.80602.21125-1.26067,1.08548-7.29617-2.8627-12.99273-.70768-1.02103-4.794-6.95021-12.20631-7.38407-5.65206-.33083-11.12441,2.6563-14.32518,7.67421-1.37493-2.59861-4.48377-7.53716-10.38901-10.68813-8.76899-4.67908-21.99587-4.50461-29.08419,3.7674-4.39102,5.12431-4.76259,11.41429-4.72355,14.29836-1.58734-.8878-7.30963-3.8352-14.55931-2.36645-10.18376,2.06314-14.48897,11.03868-14.91621,11.97017-.38739.84472-4.3529,9.89247.54944,18.90441,2.70735,4.9769,6.7864,7.49284,8.63085,8.48197-1.09622.33334-2.72641,1.03163-3.91053,2.5607-2.64071,3.41004-1.53386,8.97452,1.09045,11.91874,4.31075,4.83625,12.9223,3.0866,17.36738,1.1899,3.60272-1.53727,6.59317-4.00683,11.36199-9.81517,3.20182-3.8997,6.1173-8.06587,9.78066-11.53556,6.33549-6.00047,14.83154-9.66978,23.54336-10.16797,5.70958-.32646,11.48223.71117,16.74552,2.93888,5.16557,2.18633,7.10311,4.21378,12.22444,4.79103,2.39689.27016,7.21376.8131,11.40981-2.17977Z"/>
          <g class="cls-50">
            <path class="cls-31" d="m269.85434,464.3104c-.27351,1.11039-.69855,2.13822-.69867,2.13842-.42274,1.17098-.93949,2.36021-1.87159,3.18544-1.70191,1.50664-4.44808,1.35607-6.33537.08944-1.88729-1.26662-3.02048-3.4106-3.64292-5.59665-.41719-1.46538-.7354-3.13461-1.98501-4.00633-2.1362-1.49021-4.97869.50787-6.55355,2.58241-1.57498,2.07455-3.39597,4.63704-5.99372,4.44785-2.36732-.17239-3.8924-2.66378-4.32414-4.99768-.43186-2.33391-.19728-4.79943-1.0111-7.02906-.81382-2.22963-3.31755-4.16351-5.47662-3.1775-2.36628,1.08069-2.65515,4.79667-5.09361,5.70296-2.31615.86085-4.56208-1.48642-5.56532-3.74449-1.00336-2.25807-1.79143-4.96938-4.04186-5.98968-3.21903-1.45942-6.79495,1.90335-7.48704,5.36935-.69208,3.466.30342,7.05204.0328,10.57609-.27062,3.52405-2.69384,7.46616-6.22102,7.23918-2.47589-.15933-4.29573-2.26708-6.04327-4.02817-1.74765-1.76109-4.26893-3.41633-6.55205-2.44518-2.27295.96688-2.84041,3.93847-2.63493,6.40001.38993,4.67345,2.38176,9.36372,1.23113,13.91007-1.28796,5.08889-8.69703,9.06789-15.24943,8.22741-7.30143-.93654-11.85057-7.66394-13.28821-12.81067-3.41492-12.2255,8.26009-24.36493,14.07455-30.41067,10.41765-10.83202,21.9633-14.82298,25.48944-15.9309,9.36059-2.94106,17.09479-2.39069,32.56333-1.28996,22.39781,1.59382,28.46545,6.43817,31.16033,9.25542,1.06204,1.11027,3.67884,3.90412,5.21501,8.36616.00012.00017,2.18194,6.33778.30284,13.96671Z"/>
          </g>
          <path class="cls-22" d="m274.98707,482.36151c3.36213-2.39801,7.31679-7.77284,5.39276-13.55987-1.48281-4.4602-5.94174-7.61337-11.11967-7.80602.21125-1.26067,1.08548-7.29617-2.8627-12.99273-.70768-1.02103-4.794-6.95021-12.20631-7.38407-5.65206-.33083-11.12441,2.6563-14.32518,7.67421-1.37493-2.59861-4.48377-7.53716-10.38901-10.68813-8.76899-4.67908-21.99587-4.50461-29.08419,3.7674-4.39102,5.12431-4.76259,11.41429-4.72355,14.29836-1.58734-.8878-7.30963-3.8352-14.55931-2.36645-10.18376,2.06314-14.48897,11.03868-14.91621,11.97017-.38739.84472-4.3529,9.89247.54944,18.90441,2.70735,4.9769,6.7864,7.49284,8.63085,8.48197-1.09622.33334-2.72641,1.03163-3.91053,2.5607-2.64071,3.41004-1.53386,8.97452,1.09045,11.91874,4.31075,4.83625,12.9223,3.0866,17.36738,1.1899,3.60272-1.53727,6.59317-4.00683,11.36199-9.81517,3.20182-3.8997,6.1173-8.06587,9.78066-11.53556,6.33549-6.00047,14.83154-9.66978,23.54336-10.16797,5.70958-.32646,11.48223.71117,16.74552,2.93888,5.16557,2.18633,7.10311,4.21378,12.22444,4.79103,2.39689.27016,7.21376.8131,11.40981-2.17977Z"/>
        </g>
        <line class="cls-20" x1="254.77419" y1="476.57009" x2="254.77419" y2="476.55117"/>
        <line class="cls-20" x1="248.94567" y1="474.16678" x2="248.94567" y2="474.14785"/>
        <line class="cls-20" x1="241.54648" y1="472.31225" x2="241.54648" y2="472.29332"/>
        <line class="cls-20" x1="219.48138" y1="474.1857" x2="219.48138" y2="474.16678"/>
        <line class="cls-20" x1="210.45474" y1="478.70848" x2="210.45474" y2="478.68955"/>
        <g>
          <path class="cls-47" d="m254.7742,476.57003l8.72383,28.02608c1.64636-1.21103,3.10352-2.36547,4.35244-3.40625-2.11945-6.88828-4.2389-13.77644-6.35836-20.66471-2.15734-1.51388-4.40927-2.83856-6.71791-3.95512Z"/>
          <path class="cls-48" d="m248.94564,474.16679l10.19993,33.43825c1.5707-1.02184,3.02776-2.02486,4.35244-3.00893l-8.72383-28.02608c-1.89238-.94619-3.84158-1.74095-5.82855-2.40324Z"/>
          <path class="cls-47" d="m241.54651,472.31219l11.54345,38.90725c2.19522-1.19221,4.20113-2.40324,6.05563-3.61439l-10.19993-33.43825c-2.44112-.83265-4.90119-1.45717-7.39914-1.85461Z"/>
          <path class="cls-48" d="m234.03371,471.66884l10.76762,43.58136c2.98999-1.26786,5.7529-2.63043,8.28862-4.01183v-.01894s-11.54345-38.90725-11.54345-38.90725c-2.49795-.43521-5.01484-.64334-7.51279-.64334Z"/>
          <path class="cls-47" d="m226.72917,472.27442l10.86222,45.68187c2.53583-.81371,4.93907-1.74095,7.20995-2.70608l-10.76762-43.58136c-2.44112,0-4.88225.20813-7.30454.60557Z"/>
          <path class="cls-48" d="m219.48134,474.18562l9.10232,46.24967c2.53583-.54875,5.18521-1.24892,7.87235-2.10051.3785-.11354.75688-.24602,1.13538-.3785l-10.86222-45.68187c-2.46007.41627-4.88236,1.04078-7.24783,1.9112Z"/>
          <path class="cls-47" d="m210.45478,478.70843l9.02656,43.27863c2.87645-.34061,5.92315-.83265,9.10232-1.53282v-.01894s-9.10232-46.24967-9.10232-46.24967c-1.49494.51098-2.97104,1.13549-4.40915,1.85461-1.64636.81371-3.17918,1.72201-4.6174,2.6682Z"/>
          <path class="cls-48" d="m202.35536,485.74813v.01894l8.11837,36.86345c2.7628-.05683,5.79067-.24602,9.00761-.64346l-9.02656-43.27863c-3.21706,2.15734-5.86643,4.56069-8.09942,7.0397Z"/>
          <path class="cls-47" d="m196.79177,493.46894l6.79368,29.04804c2.08157.11354,4.39033.17025,6.88828.11354l-8.11837-36.86345c-2.34653,2.63031-4.18208,5.29863-5.56359,7.70187Z"/>
          <path class="cls-48" d="m193.0449,501.54942c2.11945,6.88828,4.2389,13.77655,6.35836,20.66471,1.24903.13248,2.64937.22708,4.18219.30284l-6.79368-29.04804c-2.15734,3.69016-3.29272,6.7558-3.74687,8.08048Z"/>
          <line class="cls-47" x1="237.59142" y1="517.97528" x2="237.59142" y2="517.95636"/>
          <line class="cls-47" x1="219.48138" y1="522.00604" x2="219.48138" y2="521.98712"/>
          <line class="cls-47" x1="203.58542" y1="522.51698" x2="203.62327" y2="522.64945"/>
        </g>
        <line class="cls-17" x1="182.29348" y1="471.66884" x2="180.06699" y2="475.95648"/>
        <line class="cls-18" x1="201.14438" y1="453.9885" x2="203.58542" y2="459.18363"/>
        <line class="cls-13" x1="183.31951" y1="461.26168" x2="177.98894" y2="460.07423"/>
        <line class="cls-14" x1="243.43737" y1="450.10958" x2="245.76507" y2="454.29527"/>
        <line class="cls-15" x1="261.31233" y1="451.09445" x2="257.94234" y2="454.54149"/>
        <line class="cls-16" x1="223.96435" y1="442.53988" x2="219.48134" y2="441.24575"/>
        <path class="cls-30" d="m167.96631,456.63716c4.75401-6.64034,4.57116-6.64034,9.32517,0-4.75401-6.64034-4.75401-6.38494,0-13.02527-4.75401,6.64034-4.57116,6.64034-9.32517,0,4.75401,6.64034,4.75401,6.38494,0,13.02527Z"/>
      </g>
    </g>
  </g>
</svg>