<?xml version="1.0" encoding="UTF-8"?>
<svg id="Layer_2" data-name="Layer 2" xmlns="http://www.w3.org/2000/svg" viewBox="0 0 237 72">
  <defs>
    <style>
      .cls-1 {
        fill: #6e502c;
      }

      .cls-2 {
        fill: #5d3e1f;
      }

      .cls-3 {
        fill: #2d1e12;
      }

      .cls-4 {
        fill: #7c603b;
      }

      .cls-5 {
        stroke: #482f1c;
        stroke-width: .75px;
      }

      .cls-5, .cls-6 {
        stroke-miterlimit: 10;
      }

      .cls-5, .cls-6, .cls-7 {
        fill: none;
      }

      .cls-6 {
        stroke: #5d3e1f;
      }

      .cls-7 {
        stroke: #000;
        stroke-linejoin: round;
        stroke-width: 2px;
      }
    </style>
  </defs>
  <g id="colors">
    <g>
      <g>
        <rect class="cls-1" x="1" y="1" width="235" height="70"/>
        <polygon class="cls-4" points="1 1 6 6 127.25079 25.31827 231 6 236 1 1 1"/>
        <polygon class="cls-2" points="1 71 6 66 141.23306 41.5288 231 66 236 71 1 71"/>
        <rect class="cls-4" x="6" y="6" width="225" height="60"/>
        <rect class="cls-5" x="6" y="6" width="225" height="60"/>
        <rect class="cls-7" x="1" y="1" width="235" height="70"/>
        <rect class="cls-6" x="13.5" y="13.5" width="210" height="45"/>
      </g>
      <g>
        <path class="cls-3" d="m96.17969,28.40039v5.85547h8.41602v4.96094h-8.41602v8.31836h-5.43945v-24.31836h15.07129v5.18359h-9.63184Z"/>
        <path class="cls-3" d="m119.44434,42.25586h-6.49512l-1.24805,5.2793h-5.53613l6.04785-24.31836h7.96777l6.01465,24.31836h-5.50293l-1.24805-5.2793Zm-1.15234-4.92773l-2.0791-8.83105-2.1123,8.83105h4.19141Z"/>
        <path class="cls-3" d="m143.1875,43.47168l2.78418,4.63965-4.67188,2.5918-3.10352-5.15137c-.41602.03223-.86426.06348-1.3125.06348-5.82324,0-9.40723-3.83984-9.40723-9.88672v-4.54395c0-6.04785,3.61621-9.8877,9.40723-9.8877,5.75977,0,9.37598,3.83984,9.37598,9.8877v4.54395c0,3.35938-1.12012,6.01562-3.07227,7.74316Zm-6.30371-2.78418c2.52832,0,3.93652-1.72754,3.93652-4.79883v-4.7041c0-3.04004-1.4082-4.7041-3.93652-4.7041-2.52734,0-3.96777,1.66406-3.96777,4.7041v4.7041c0,3.07129,1.4082,4.79883,3.96777,4.79883Z"/>
      </g>
    </g>
  </g>
</svg>