<?xml version="1.0" encoding="UTF-8"?>
<svg id="Layer_2" data-name="Layer 2" xmlns="http://www.w3.org/2000/svg" viewBox="0 0 257.531 84.09607">
  <defs>
    <style>
      .cls-1 {
        opacity: 0;
      }

      .cls-1, .cls-2 {
        fill: #5d3e1f;
      }

      .cls-1, .cls-3 {
        stroke: #000;
      }

      .cls-1, .cls-3, .cls-4 {
        stroke-width: .75px;
      }

      .cls-1, .cls-3, .cls-4, .cls-5 {
        stroke-miterlimit: 10;
      }

      .cls-6 {
        fill: #6e502c;
      }

      .cls-7 {
        fill: #482f1c;
      }

      .cls-8 {
        fill: #7c603b;
      }

      .cls-3, .cls-4, .cls-5 {
        fill: none;
      }

      .cls-4 {
        stroke: #482f1c;
      }

      .cls-5 {
        stroke: #5d3e1f;
      }
    </style>
  </defs>
  <g id="colors">
    <g>
      <g>
        <g>
          <rect class="cls-2" x="10.46218" y="7.18788" width="235" height="70"/>
          <polygon class="cls-8" points="10.46218 7.18788 15.46218 12.18788 136.71297 31.50616 240.46218 12.18788 245.46218 7.18788 10.46218 7.18788"/>
          <polygon class="cls-7" points="10.46218 77.18788 15.46218 72.18788 150.69524 47.71669 240.46218 72.18788 245.46218 77.18788 10.46218 77.18788"/>
          <rect class="cls-6" x="15.46218" y="12.18788" width="225" height="60"/>
          <rect class="cls-4" x="15.46218" y="12.18788" width="225" height="60"/>
          <rect class="cls-3" x="10.46218" y="7.18788" width="235" height="70"/>
          <rect class="cls-5" x="22.96218" y="19.68788" width="210" height="45"/>
        </g>
        <g>
          <polygon class="cls-1" points="228.41035 .49382 224.84056 5.89988 228.38956 10.08721 236.3076 8.71275 235.52306 4.35976 228.41035 .49382"/>
          <polygon class="cls-1" points="255.53564 5.48464 249.34983 7.38748 248.96094 12.08276 254.09864 15.40726 257.1217 10.49739 255.53564 5.48464"/>
          <polygon class="cls-1" points="244.11705 19.34752 241.9731 24.91912 243.86108 28.69356 249.71212 28.69356 249.5721 22.8968 244.11705 19.34752"/>
          <polygon class="cls-1" points="21.06137 73.66751 18.20464 79.6984 20.77767 83.64437 27.46258 81.28547 28.09741 75.88941 21.06137 73.66751"/>
          <polygon class="cls-1" points="11.85841 54.92284 6.08088 57.83922 5.82545 62.02895 11.87741 63.52162 14.26516 59.59732 11.85841 54.92284"/>
          <polygon class="cls-1" points="8.24541 72.24368 4.53749 68.66914 .41636 69.57859 1.22382 75.75837 5.30551 78.87097 8.24541 72.24368"/>
        </g>
      </g>
      <g>
        <path class="cls-7" d="m106.44872,34.46949v5.85547h8.41602v4.96094h-8.41602v8.31836h-5.43945v-24.31836h15.07129v5.18359h-9.63184Z"/>
        <path class="cls-7" d="m129.71336,48.32495h-6.49512l-1.24805,5.2793h-5.53613l6.04785-24.31836h7.96777l6.01465,24.31836h-5.50293l-1.24805-5.2793Zm-1.15234-4.92773l-2.0791-8.83105-2.1123,8.83105h4.19141Z"/>
        <path class="cls-7" d="m153.45653,49.54078l2.78418,4.63965-4.67188,2.5918-3.10352-5.15137c-.41602.03223-.86426.06348-1.3125.06348-5.82324,0-9.40723-3.83984-9.40723-9.88672v-4.54395c0-6.04785,3.61621-9.8877,9.40723-9.8877,5.75977,0,9.37598,3.83984,9.37598,9.8877v4.54395c0,3.35938-1.12012,6.01562-3.07227,7.74316Zm-6.30371-2.78418c2.52832,0,3.93652-1.72754,3.93652-4.79883v-4.7041c0-3.04004-1.4082-4.7041-3.93652-4.7041-2.52734,0-3.96777,1.66406-3.96777,4.7041v4.7041c0,3.07129,1.4082,4.79883,3.96777,4.79883Z"/>
      </g>
    </g>
  </g>
</svg>