<?xml version="1.0" encoding="UTF-8"?>
<svg id="Layer_2" data-name="Layer 2" xmlns="http://www.w3.org/2000/svg" viewBox="0 0 1223.75 120.75">
  <defs>
    <style>
      .cls-1 {
        fill: #6e502c;
      }

      .cls-2 {
        fill: #5d3e1f;
      }

      .cls-3 {
        fill: #482f1c;
      }

      .cls-4 {
        fill: #7c603b;
      }

      .cls-5 {
        stroke: #000;
      }

      .cls-5, .cls-6, .cls-7 {
        stroke-width: .75px;
      }

      .cls-5, .cls-6, .cls-7, .cls-8 {
        fill: none;
        stroke-miterlimit: 10;
      }

      .cls-6, .cls-8 {
        stroke: #5d3e1f;
      }

      .cls-7 {
        stroke: #482f1c;
      }
    </style>
  </defs>
  <g id="title">
    <g>
      <g>
        <g>
          <g>
            <g>
              <rect class="cls-2" x=".375" y=".375" width="120" height="120"/>
              <polygon class="cls-4" points=".375 .375 120.375 .375 112.875 7.875 61.20833 18.47868 7.875 7.875 .375 .375"/>
              <polygon class="cls-3" points="120.375 120.375 112.875 112.875 61.20833 103.72871 7.875 112.875 .375 120.375 120.375 120.375"/>
              <rect class="cls-1" x="7.875" y="7.875" width="105" height="105"/>
              <rect class="cls-8" x="14.875" y="14.875" width="91" height="91"/>
              <rect class="cls-7" x="7.875" y="7.875" width="105" height="105"/>
            </g>
            <g>
              <rect class="cls-2" x="120.375" y=".375" width="120" height="120"/>
              <polygon class="cls-4" points="120.375 .375 240.375 .375 232.875 7.875 181.20833 18.47868 127.875 7.875 120.375 .375"/>
              <polygon class="cls-3" points="240.375 120.375 232.875 112.875 181.20833 103.72871 127.875 112.875 120.375 120.375 240.375 120.375"/>
              <rect class="cls-1" x="127.875" y="7.875" width="105" height="105"/>
              <rect class="cls-8" x="134.875" y="14.875" width="91" height="91"/>
              <rect class="cls-7" x="127.875" y="7.875" width="105" height="105"/>
            </g>
            <g>
              <rect class="cls-2" x="240.375" y=".375" width="120" height="120"/>
              <polygon class="cls-4" points="240.375 .375 360.375 .375 352.875 7.875 301.20833 18.47868 247.875 7.875 240.375 .375"/>
              <polygon class="cls-3" points="360.375 120.375 352.875 112.875 301.20833 103.72871 247.875 112.875 240.375 120.375 360.375 120.375"/>
              <rect class="cls-1" x="247.875" y="7.875" width="105" height="105"/>
              <rect class="cls-8" x="254.875" y="14.875" width="91" height="91"/>
              <rect class="cls-7" x="247.875" y="7.875" width="105" height="105"/>
            </g>
            <g>
              <rect class="cls-2" x="360.375" y=".375" width="120" height="120"/>
              <polygon class="cls-4" points="360.375 .375 480.375 .375 472.875 7.875 421.20833 18.47868 367.875 7.875 360.375 .375"/>
              <polygon class="cls-3" points="480.375 120.375 472.875 112.875 421.20833 103.72871 367.875 112.875 360.375 120.375 480.375 120.375"/>
              <rect class="cls-1" x="367.875" y="7.875" width="105" height="105"/>
              <rect class="cls-8" x="374.875" y="14.875" width="91" height="91"/>
              <rect class="cls-7" x="367.875" y="7.875" width="105" height="105"/>
            </g>
            <g>
              <rect class="cls-2" x="480.375" y=".375" width="120" height="120"/>
              <polygon class="cls-4" points="480.375 .375 600.375 .375 592.875 7.875 541.20833 18.47868 487.875 7.875 480.375 .375"/>
              <polygon class="cls-3" points="600.375 120.375 592.875 112.875 541.20833 103.72871 487.875 112.875 480.375 120.375 600.375 120.375"/>
              <rect class="cls-1" x="487.875" y="7.875" width="105" height="105"/>
              <rect class="cls-8" x="494.875" y="14.875" width="91" height="91"/>
              <rect class="cls-7" x="487.875" y="7.875" width="105" height="105"/>
            </g>
            <g>
              <rect class="cls-2" x="600.375" y=".375" width="120" height="120"/>
              <polygon class="cls-4" points="600.375 .375 720.375 .375 712.875 7.875 661.20833 18.47868 607.875 7.875 600.375 .375"/>
              <polygon class="cls-3" points="720.375 120.375 712.875 112.875 661.20833 103.72871 607.875 112.875 600.375 120.375 720.375 120.375"/>
              <rect class="cls-1" x="607.875" y="7.875" width="105" height="105"/>
              <rect class="cls-8" x="614.875" y="14.875" width="91" height="91"/>
              <rect class="cls-7" x="607.875" y="7.875" width="105" height="105"/>
            </g>
          </g>
          <line class="cls-7" x1="120.375" y1=".375" x2="120.375" y2="120.375"/>
          <line class="cls-7" x1="240.375" y1=".375" x2="240.375" y2="120.375"/>
          <line class="cls-7" x1="360.375" y1=".375" x2="360.375" y2="120.375"/>
          <line class="cls-7" x1="480.375" y1=".375" x2="480.375" y2="120.375"/>
          <line class="cls-7" x1="600.375" y1=".375" x2="600.375" y2="120.375"/>
          <rect class="cls-5" x=".375" y=".375" width="720" height="120"/>
        </g>
        <g>
          <g>
            <path class="cls-3" d="m92.01129,98.37284h-21.66023c-2.33478,0-4.2275-1.89272-4.2275-4.2275v-7.59969c0-2.33478-1.89272-4.2275-4.2275-4.2275h-2.94539c-2.33478,0-4.2275,1.89272-4.2275,4.2275v7.59969c0,2.33478-1.89272,4.2275-4.2275,4.2275h-21.75496c-2.33478,0-4.2275-1.89272-4.2275-4.2275V26.60034c0-2.33478,1.89272-4.2275,4.2275-4.2275h21.75496c2.33478,0,4.2275,1.89272,4.2275,4.2275v7.69539c0,2.33478,1.89272,4.2275,4.2275,4.2275h2.94539c2.33478,0,4.2275-1.89272,4.2275-4.2275v-7.69539c0-2.33478,1.89272-4.2275,4.2275-4.2275h21.66023c2.33478,0,4.2275,1.89272,4.2275,4.2275v67.545c0,2.33478-1.89272,4.2275-4.2275,4.2275Z"/>
            <g>
              <line class="cls-6" x1="96.24" y1="28.97716" x2="89.64" y2="22.37716"/>
              <line class="cls-6" x1="96.24" y1="36.04716" x2="82.57" y2="22.37716"/>
              <line class="cls-6" x1="96.24" y1="43.11716" x2="75.5" y2="22.37716"/>
              <line class="cls-6" x1="96.24" y1="50.18716" x2="68.74" y2="22.68716"/>
              <line class="cls-6" x1="96.24" y1="57.26716" x2="66.12" y2="27.13716"/>
              <line class="cls-6" x1="96.24" y1="64.32716" x2="66.12" y2="34.20716"/>
              <line class="cls-6" x1="96.24" y1="71.40716" x2="63.16" y2="38.32716"/>
              <line class="cls-6" x1="54.72" y1="29.88716" x2="47.21" y2="22.37716"/>
              <line class="cls-6" x1="96.24" y1="78.46716" x2="40.15" y2="22.37716"/>
              <line class="cls-6" x1="96.24" y1="85.54716" x2="33.07" y2="22.37716"/>
              <line class="cls-6" x1="96.24" y1="92.60716" x2="26.59" y2="22.96716"/>
              <line class="cls-6" x1="94.27" y1="97.71716" x2="24.51" y2="27.95716"/>
              <line class="cls-6" x1="87.85" y1="98.37716" x2="24.51" y2="35.02716"/>
              <line class="cls-6" x1="80.79" y1="98.37716" x2="24.51" y2="42.09716"/>
              <line class="cls-6" x1="73.71" y1="98.37716" x2="66.12" y2="90.78716"/>
              <line class="cls-6" x1="57.81" y1="82.47716" x2="24.51" y2="49.16716"/>
              <line class="cls-6" x1="54.72" y1="86.44716" x2="24.51" y2="56.23716"/>
              <line class="cls-6" x1="54.72" y1="93.52716" x2="24.51" y2="63.31716"/>
              <line class="cls-6" x1="52.17" y1="98.03716" x2="24.51" y2="70.37716"/>
              <line class="cls-6" x1="45.43" y1="98.37716" x2="24.51" y2="77.45716"/>
              <line class="cls-6" x1="38.36" y1="98.37716" x2="24.51" y2="84.52716"/>
              <line class="cls-6" x1="31.29" y1="98.37716" x2="24.51" y2="91.59716"/>
            </g>
            <path class="cls-5" d="m92.01129,98.37284h-21.66023c-2.33478,0-4.2275-1.89272-4.2275-4.2275v-7.59969c0-2.33478-1.89272-4.2275-4.2275-4.2275h-2.94539c-2.33478,0-4.2275,1.89272-4.2275,4.2275v7.59969c0,2.33478-1.89272,4.2275-4.2275,4.2275h-21.75496c-2.33478,0-4.2275-1.89272-4.2275-4.2275V26.60034c0-2.33478,1.89272-4.2275,4.2275-4.2275h21.75496c2.33478,0,4.2275,1.89272,4.2275,4.2275v7.69539c0,2.33478,1.89272,4.2275,4.2275,4.2275h2.94539c2.33478,0,4.2275-1.89272,4.2275-4.2275v-7.69539c0-2.33478,1.89272-4.2275,4.2275-4.2275h21.66023c2.33478,0,4.2275,1.89272,4.2275,4.2275v67.545c0,2.33478-1.89272,4.2275-4.2275,4.2275Z"/>
          </g>
          <g>
            <path class="cls-3" d="m212.10551,98.37663h-21.94539c-2.33478,0-4.2275-1.89272-4.2275-4.2275v-.75984c0-2.33478-1.89272-4.2275-4.2275-4.2275h-2.94539c-2.33478,0-4.2275,1.89272-4.2275,4.2275v.75984c0,2.33478-1.89272,4.2275-4.2275,4.2275h-21.66023c-2.33478,0-4.2275-1.89272-4.2275-4.2275v-60.08793c0-6.55566,3.51562-11.68457,11.68555-11.68457h48.35547c7.31543,0,11.875,5.03516,11.875,11.68457v60.08793c0,2.33478-1.89272,4.2275-4.2275,4.2275Zm-26.07816-43.27242v-4.93953c0-2.33478-1.89272-4.2275-4.2275-4.2275h-2.94441c-2.33478,0-4.2275,1.89272-4.2275,4.2275v4.93953c0,2.33478,1.89272,4.2275,4.2275,4.2275h2.94441c2.33478,0,4.2275-1.89272,4.2275-4.2275Z"/>
            <g>
              <line class="cls-6" x1="216.32815" y1="35.79337" x2="202.90815" y2="22.37337"/>
              <line class="cls-6" x1="216.32815" y1="42.86337" x2="195.83815" y2="22.37337"/>
              <line class="cls-6" x1="216.32815" y1="49.94337" x2="188.76815" y2="22.37337"/>
              <line class="cls-6" x1="216.32815" y1="57.00337" x2="181.69815" y2="22.37337"/>
              <line class="cls-6" x1="216.32815" y1="64.08337" x2="174.62815" y2="22.37337"/>
              <line class="cls-6" x1="216.32815" y1="71.14337" x2="167.55815" y2="22.37337"/>
              <line class="cls-6" x1="216.32815" y1="78.22337" x2="160.47815" y2="22.37337"/>
              <line class="cls-6" x1="216.32815" y1="85.28337" x2="186.02815" y2="54.99337"/>
              <line class="cls-6" x1="177.28815" y1="46.24337" x2="153.58815" y2="22.55337"/>
              <line class="cls-6" x1="216.32815" y1="92.36337" x2="183.09815" y2="59.13337"/>
              <line class="cls-6" x1="174.62815" y1="50.66337" x2="148.51815" y2="24.55337"/>
              <line class="cls-6" x1="214.50815" y1="97.61337" x2="145.44815" y2="28.55337"/>
              <line class="cls-6" x1="208.19815" y1="98.37337" x2="144.41815" y2="34.59337"/>
              <line class="cls-6" x1="201.11815" y1="98.37337" x2="144.41815" y2="41.66337"/>
              <line class="cls-6" x1="194.05815" y1="98.37337" x2="144.41815" y2="48.73337"/>
              <line class="cls-6" x1="177.86815" y1="89.26337" x2="144.41815" y2="55.80337"/>
              <line class="cls-6" x1="174.54815" y1="93.00337" x2="144.41815" y2="62.87337"/>
              <polyline class="cls-6" points="144.41815 69.95337 172.31815 97.86337 172.32815 97.86337"/>
              <line class="cls-6" x1="165.77815" y1="98.37337" x2="144.41815" y2="77.02337"/>
              <line class="cls-6" x1="158.69815" y1="98.37337" x2="144.41815" y2="84.09337"/>
              <line class="cls-6" x1="151.62815" y1="98.37337" x2="144.41815" y2="91.16337"/>
            </g>
            <path class="cls-5" d="m212.10551,98.37663h-21.94539c-2.33478,0-4.2275-1.89272-4.2275-4.2275v-.75984c0-2.33478-1.89272-4.2275-4.2275-4.2275h-2.94539c-2.33478,0-4.2275,1.89272-4.2275,4.2275v.75984c0,2.33478-1.89272,4.2275-4.2275,4.2275h-21.66023c-2.33478,0-4.2275-1.89272-4.2275-4.2275v-60.08793c0-6.55566,3.51562-11.68457,11.68555-11.68457h48.35547c7.31543,0,11.875,5.03516,11.875,11.68457v60.08793c0,2.33478-1.89272,4.2275-4.2275,4.2275Zm-26.07816-43.27242v-4.93953c0-2.33478-1.89272-4.2275-4.2275-4.2275h-2.94441c-2.33478,0-4.2275,1.89272-4.2275,4.2275v4.93953c0,2.33478,1.89272,4.2275,4.2275,4.2275h2.94441c2.33478,0,4.2275-1.89272,4.2275-4.2275Z"/>
          </g>
          <g>
            <path class="cls-3" d="m329.96697,94.1483c0,2.33478-1.89272,4.2275-4.2275,4.2275h-43.27348c-6.27051,0-11.68555-4.08398-11.68555-11.68457v-52.63086c0-7.60059,5.22559-11.68457,11.68555-11.68457h43.27348c2.33478,0,4.2275,1.89272,4.2275,4.2275v15.10555c0,2.33478-1.89272,4.2275-4.2275,4.2275h-3.99031c-2.33478,0-4.2275,1.89272-4.2275,4.2275v20.42391c0,2.33478,1.89272,4.2275,4.2275,4.2275h3.99031c2.33478,0,4.2275,1.89272,4.2275,4.2275v15.10555Z"/>
            <g>
              <line class="cls-6" x1="329.9" y1="25.8542" x2="326.49" y2="22.4442"/>
              <line class="cls-6" x1="329.97" y1="32.9942" x2="319.35" y2="22.3742"/>
              <line class="cls-6" x1="329.97" y1="40.0642" x2="312.28" y2="22.3742"/>
              <line class="cls-6" x1="328.06" y1="45.2342" x2="305.2" y2="22.3742"/>
              <line class="cls-6" x1="321.7" y1="45.9342" x2="298.14" y2="22.3742"/>
              <line class="cls-6" x1="317.69" y1="48.9942" x2="291.07" y2="22.3742"/>
              <line class="cls-6" x1="317.52" y1="55.8942" x2="283.99" y2="22.3742"/>
              <line class="cls-6" x1="317.52" y1="62.9742" x2="277.75" y2="23.2042"/>
              <line class="cls-6" x1="329.97" y1="82.4842" x2="322.3" y2="74.8142"/>
              <line class="cls-6" x1="317.52" y1="70.0342" x2="273.54" y2="26.0542"/>
              <line class="cls-6" x1="329.97" y1="89.5642" x2="271.15" y2="30.7442"/>
              <line class="cls-6" x1="329.47" y1="96.1342" x2="270.78" y2="37.4442"/>
              <line class="cls-6" x1="324.64" y1="98.3742" x2="270.78" y2="44.5142"/>
              <line class="cls-6" x1="317.57" y1="98.3742" x2="270.78" y2="51.5842"/>
              <line class="cls-6" x1="310.5" y1="98.3742" x2="270.78" y2="58.6542"/>
              <line class="cls-6" x1="303.42" y1="98.3742" x2="270.78" y2="65.7342"/>
              <line class="cls-6" x1="296.36" y1="98.3742" x2="270.78" y2="72.7942"/>
              <line class="cls-6" x1="289.28" y1="98.3742" x2="270.78" y2="79.8742"/>
              <line class="cls-6" x1="282.21" y1="98.3742" x2="270.79" y2="86.9442"/>
            </g>
            <path class="cls-5" d="m329.96697,94.1483c0,2.33478-1.89272,4.2275-4.2275,4.2275h-43.27348c-6.27051,0-11.68555-4.08398-11.68555-11.68457v-52.63086c0-7.60059,5.22559-11.68457,11.68555-11.68457h43.27348c2.33478,0,4.2275,1.89272,4.2275,4.2275v15.10555c0,2.33478-1.89272,4.2275-4.2275,4.2275h-3.99031c-2.33478,0-4.2275,1.89272-4.2275,4.2275v20.42391c0,2.33478,1.89272,4.2275,4.2275,4.2275h3.99031c2.33478,0,4.2275,1.89272,4.2275,4.2275v15.10555Z"/>
          </g>
          <g>
            <path class="cls-3" d="m452.05936,98.37717h-21.75496c-2.33478,0-4.2275-1.89272-4.2275-4.2275v-7.59969c0-2.33478-1.89272-4.2275-4.2275-4.2275h-2.94539c-2.33478,0-4.2275,1.89272-4.2275,4.2275v7.59969c0,2.33478-1.89272,4.2275-4.2275,4.2275h-21.75496c-2.33478,0-4.2275-1.89272-4.2275-4.2275V26.60467c0-2.33478,1.89272-4.2275,4.2275-4.2275h21.75496c2.33478,0,4.2275,1.89272,4.2275,4.2275v7.69539c0,2.33478,1.89272,4.2275,4.2275,4.2275h2.94539c2.33478,0,4.2275-1.89272,4.2275-4.2275v-7.69539c0-2.33478,1.89272-4.2275,4.2275-4.2275h21.75496c2.33478,0,4.2275,1.89272,4.2275,4.2275v21.2349c0,1.20669-.51566,2.35587-1.41709,3.15806l-7.15954,6.37138c-1.86773,1.66212-1.89279,4.57327-.05394,6.26729l7.26741,6.69503c.86885.80042,1.36316,1.92788,1.36316,3.10923v20.70911c0,2.33478-1.89272,4.2275-4.2275,4.2275Z"/>
            <g>
              <line class="cls-6" x1="456.28314" y1="28.60283" x2="450.05314" y2="22.37283"/>
              <line class="cls-6" x1="456.28314" y1="35.67283" x2="442.98314" y2="22.37283"/>
              <line class="cls-6" x1="456.28314" y1="42.74283" x2="435.91314" y2="22.37283"/>
              <line class="cls-6" x1="455.95314" y1="49.48283" x2="429.03314" y2="22.56283"/>
              <line class="cls-6" x1="452.50314" y1="53.10283" x2="426.07314" y2="26.68283"/>
              <line class="cls-6" x1="448.76314" y1="56.43283" x2="426.07314" y2="33.74283"/>
              <line class="cls-6" x1="446.33314" y1="61.08283" x2="423.45314" y2="38.20283"/>
              <line class="cls-6" x1="414.67314" y1="29.42283" x2="407.62314" y2="22.37283"/>
              <line class="cls-6" x1="456.28314" y1="78.09283" x2="400.56314" y2="22.37283"/>
              <line class="cls-6" x1="456.28314" y1="85.17283" x2="393.48314" y2="22.37283"/>
              <line class="cls-6" x1="456.28314" y1="92.24283" x2="386.85314" y2="22.80283"/>
              <line class="cls-6" x1="454.53314" y1="97.56283" x2="384.46314" y2="27.49283"/>
              <line class="cls-6" x1="448.27314" y1="98.37283" x2="384.46314" y2="34.56283"/>
              <line class="cls-6" x1="441.20314" y1="98.37283" x2="384.46314" y2="41.63283"/>
              <line class="cls-6" x1="434.13314" y1="98.37283" x2="426.07314" y2="90.31283"/>
              <line class="cls-6" x1="418.15314" y1="82.39283" x2="384.46314" y2="48.71283"/>
              <line class="cls-6" x1="414.71314" y1="86.02283" x2="384.46314" y2="55.77283"/>
              <line class="cls-6" x1="414.67314" y1="93.06283" x2="384.46314" y2="62.85283"/>
              <line class="cls-6" x1="412.43314" y1="97.88283" x2="384.46314" y2="69.91283"/>
              <line class="cls-6" x1="405.84314" y1="98.37283" x2="384.46314" y2="76.99283"/>
              <line class="cls-6" x1="398.78314" y1="98.37283" x2="384.46314" y2="84.05283"/>
              <line class="cls-6" x1="391.70314" y1="98.37283" x2="384.46314" y2="91.13283"/>
            </g>
            <path class="cls-5" d="m452.05936,98.37717h-21.75496c-2.33478,0-4.2275-1.89272-4.2275-4.2275v-7.59969c0-2.33478-1.89272-4.2275-4.2275-4.2275h-2.94539c-2.33478,0-4.2275,1.89272-4.2275,4.2275v7.59969c0,2.33478-1.89272,4.2275-4.2275,4.2275h-21.75496c-2.33478,0-4.2275-1.89272-4.2275-4.2275V26.60467c0-2.33478,1.89272-4.2275,4.2275-4.2275h21.75496c2.33478,0,4.2275,1.89272,4.2275,4.2275v7.69539c0,2.33478,1.89272,4.2275,4.2275,4.2275h2.94539c2.33478,0,4.2275-1.89272,4.2275-4.2275v-7.69539c0-2.33478,1.89272-4.2275,4.2275-4.2275h21.75496c2.33478,0,4.2275,1.89272,4.2275,4.2275v21.2349c0,1.20669-.51566,2.35587-1.41709,3.15806l-7.15954,6.37138c-1.86773,1.66212-1.89279,4.57327-.05394,6.26729l7.26741,6.69503c.86885.80042,1.36316,1.92788,1.36316,3.10923v20.70911c0,2.33478-1.89272,4.2275-4.2275,4.2275Z"/>
          </g>
          <g>
            <path class="cls-3" d="m570.91986,45.93633h-2.66023c-2.33478,0-4.2275,1.89272-4.2275,4.2275v43.98445c0,2.33478-1.89272,4.2275-4.2275,4.2275h-38.76082c-2.33478,0-4.2275-1.89272-4.2275-4.2275v-43.98445c0-2.33478-1.89272-4.2275-4.2275-4.2275h-2.75496c-2.33478,0-4.2275-1.89272-4.2275-4.2275v-15.10555c0-2.33478,1.89272-4.2275,4.2275-4.2275h61.08602c2.33478,0,4.2275,1.89272,4.2275,4.2275v15.10555c0,2.33478-1.89272,4.2275-4.2275,4.2275Z"/>
            <g>
              <line class="cls-6" x1="575.14264" y1="30.79421" x2="566.72264" y2="22.37421"/>
              <line class="cls-6" x1="575.14264" y1="37.86421" x2="559.65264" y2="22.37421"/>
              <line class="cls-6" x1="574.36264" y1="44.15421" x2="552.57264" y2="22.37421"/>
              <line class="cls-6" x1="569.06264" y1="45.93421" x2="545.51264" y2="22.37421"/>
              <line class="cls-6" x1="564.43264" y1="48.37421" x2="538.43264" y2="22.37421"/>
              <line class="cls-6" x1="564.03264" y1="55.04421" x2="531.37264" y2="22.37421"/>
              <line class="cls-6" x1="564.03264" y1="62.11421" x2="524.29264" y2="22.37421"/>
              <line class="cls-6" x1="564.03264" y1="69.18421" x2="517.22264" y2="22.37421"/>
              <line class="cls-6" x1="564.03264" y1="76.25421" x2="510.15264" y2="22.37421"/>
              <line class="cls-6" x1="564.03264" y1="83.32421" x2="505.86264" y2="25.15421"/>
              <line class="cls-6" x1="564.03264" y1="90.39421" x2="505.60264" y2="31.96421"/>
              <line class="cls-6" x1="563.21264" y1="96.64421" x2="516.81264" y2="50.24421"/>
              <line class="cls-6" x1="512.50264" y1="45.93421" x2="505.60264" y2="39.03421"/>
              <line class="cls-6" x1="557.87264" y1="98.37421" x2="516.81264" y2="57.31421"/>
              <line class="cls-6" x1="550.80264" y1="98.37421" x2="516.81264" y2="64.39421"/>
              <line class="cls-6" x1="543.72264" y1="98.37421" x2="516.81264" y2="71.45421"/>
              <line class="cls-6" x1="536.65264" y1="98.37421" x2="516.81264" y2="78.53421"/>
              <line class="cls-6" x1="529.58264" y1="98.37421" x2="516.81264" y2="85.60421"/>
              <line class="cls-6" x1="522.51264" y1="98.37421" x2="516.81264" y2="92.67421"/>
            </g>
            <path class="cls-5" d="m570.91986,45.93633h-2.66023c-2.33478,0-4.2275,1.89272-4.2275,4.2275v43.98445c0,2.33478-1.89272,4.2275-4.2275,4.2275h-38.76082c-2.33478,0-4.2275-1.89272-4.2275-4.2275v-43.98445c0-2.33478-1.89272-4.2275-4.2275-4.2275h-2.75496c-2.33478,0-4.2275-1.89272-4.2275-4.2275v-15.10555c0-2.33478,1.89272-4.2275,4.2275-4.2275h61.08602c2.33478,0,4.2275,1.89272,4.2275,4.2275v15.10555c0,2.33478-1.89272,4.2275-4.2275,4.2275Z"/>
          </g>
          <g>
            <path class="cls-3" d="m688.63766,98.37664h-18.33602c-2.33478,0-4.2275-1.89272-4.2275-4.2275v-7.59969c0-2.33478-1.89272-4.2275-4.2275-4.2275h-2.94441c-2.33478,0-4.2275,1.89272-4.2275,4.2275v7.59969c0,2.33478-1.89272,4.2275-4.2275,4.2275h-18.33602c-2.33478,0-4.2275-1.89272-4.2275-4.2275v-22.05827c0-1.11442.44004-2.18376,1.22439-2.97541l5.87024-5.92489c1.64338-1.65868,1.63086-4.33557-.02798-5.9788l-5.81428-5.75959c-.80147-.79393-1.25237-1.87526-1.25237-3.00339v-21.84466c0-2.33478,1.89272-4.2275,4.2275-4.2275h18.33602c2.33478,0,4.2275,1.89272,4.2275,4.2275v7.69539c0,2.33478,1.89272,4.2275,4.2275,4.2275h2.94441c2.33478,0,4.2275-1.89272,4.2275-4.2275v-7.69539c0-2.33478,1.89272-4.2275,4.2275-4.2275h18.33602c2.33478,0,4.2275,1.89272,4.2275,4.2275v21.85625c0,1.12127-.44545,2.19662-1.23835,2.98944l-5.84238,5.84181c-1.65108,1.65092-1.65114,4.32773-.00014,5.97873l5.84267,5.84267c.79281.79281,1.23821,1.86809,1.23821,2.98929v22.0468c0,2.33478-1.89272,4.2275-4.2275,4.2275Z"/>
            <g>
              <line class="cls-6" x1="692.87" y1="29.16336" x2="686.08" y2="22.37336"/>
              <line class="cls-6" x1="692.87" y1="36.23336" x2="679.01" y2="22.37336"/>
              <line class="cls-6" x1="692.87" y1="43.30336" x2="671.93" y2="22.37336"/>
              <line class="cls-6" x1="692.56" y1="50.06336" x2="666.78" y2="24.28336"/>
              <line class="cls-6" x1="689.25" y1="53.83336" x2="666.07" y2="30.65336"/>
              <line class="cls-6" x1="685.72" y1="57.36336" x2="665.21" y2="36.85336"/>
              <line class="cls-6" x1="654.66" y1="26.30336" x2="650.74" y2="22.38336"/>
              <line class="cls-6" x1="692.83" y1="71.55336" x2="659.8" y2="38.52336"/>
              <line class="cls-6" x1="654.67" y1="33.39336" x2="643.65" y2="22.37336"/>
              <line class="cls-6" x1="692.87" y1="78.66336" x2="636.59" y2="22.37336"/>
              <line class="cls-6" x1="692.87" y1="85.73336" x2="630.05" y2="22.91336"/>
              <line class="cls-6" x1="692.87" y1="92.80336" x2="627.88" y2="27.80336"/>
              <line class="cls-6" x1="690.78" y1="97.78336" x2="627.88" y2="34.88336"/>
              <line class="cls-6" x1="684.3" y1="98.37336" x2="627.88" y2="41.96336"/>
              <line class="cls-6" x1="677.23" y1="98.37336" x2="666.07" y2="87.21336"/>
              <line class="cls-6" x1="661.18" y1="82.32336" x2="627.93" y2="49.07336"/>
              <line class="cls-6" x1="670.14" y1="98.36336" x2="666.08" y2="94.30336"/>
              <line class="cls-6" x1="655.64" y1="83.86336" x2="634.98" y2="63.20336"/>
              <line class="cls-6" x1="654.67" y1="89.95336" x2="631.46" y2="66.74336"/>
              <line class="cls-6" x1="654.03" y1="96.39336" x2="628.18" y2="70.54336"/>
              <line class="cls-6" x1="648.95" y1="98.37336" x2="627.88" y2="77.30336"/>
              <line class="cls-6" x1="641.87" y1="98.37336" x2="627.88" y2="84.38336"/>
              <line class="cls-6" x1="634.8" y1="98.37336" x2="627.88" y2="91.45336"/>
            </g>
            <path class="cls-5" d="m688.63766,98.37664h-18.33602c-2.33478,0-4.2275-1.89272-4.2275-4.2275v-7.59969c0-2.33478-1.89272-4.2275-4.2275-4.2275h-2.94441c-2.33478,0-4.2275,1.89272-4.2275,4.2275v7.59969c0,2.33478-1.89272,4.2275-4.2275,4.2275h-18.33602c-2.33478,0-4.2275-1.89272-4.2275-4.2275v-22.05827c0-1.11442.44004-2.18376,1.22439-2.97541l5.87024-5.92489c1.64338-1.65868,1.63086-4.33557-.02798-5.9788l-5.81428-5.75959c-.80147-.79393-1.25237-1.87526-1.25237-3.00339v-21.84466c0-2.33478,1.89272-4.2275,4.2275-4.2275h18.33602c2.33478,0,4.2275,1.89272,4.2275,4.2275v7.69539c0,2.33478,1.89272,4.2275,4.2275,4.2275h2.94441c2.33478,0,4.2275-1.89272,4.2275-4.2275v-7.69539c0-2.33478,1.89272-4.2275,4.2275-4.2275h18.33602c2.33478,0,4.2275,1.89272,4.2275,4.2275v21.85625c0,1.12127-.44545,2.19662-1.23835,2.98944l-5.84238,5.84181c-1.65108,1.65092-1.65114,4.32773-.00014,5.97873l5.84267,5.84267c.79281.79281,1.23821,1.86809,1.23821,2.98929v22.0468c0,2.33478-1.89272,4.2275-4.2275,4.2275Z"/>
          </g>
        </g>
      </g>
      <g>
        <g>
          <g>
            <g>
              <rect class="cls-2" x="743.375" y=".375" width="120" height="120"/>
              <polygon class="cls-4" points="743.375 .375 863.375 .375 855.875 7.875 804.20833 18.47868 750.875 7.875 743.375 .375"/>
              <polygon class="cls-3" points="863.375 120.375 855.875 112.875 804.20833 103.72871 750.875 112.875 743.375 120.375 863.375 120.375"/>
              <rect class="cls-1" x="750.875" y="7.875" width="105" height="105"/>
              <rect class="cls-8" x="757.875" y="14.875" width="91" height="91"/>
              <rect class="cls-7" x="750.875" y="7.875" width="105" height="105"/>
            </g>
            <g>
              <rect class="cls-2" x="863.375" y=".375" width="120" height="120"/>
              <polygon class="cls-4" points="863.375 .375 983.375 .375 975.875 7.875 924.20833 18.47868 870.875 7.875 863.375 .375"/>
              <polygon class="cls-3" points="983.375 120.375 975.875 112.875 924.20833 103.72871 870.875 112.875 863.375 120.375 983.375 120.375"/>
              <rect class="cls-1" x="870.875" y="7.875" width="105" height="105"/>
              <rect class="cls-8" x="877.875" y="14.875" width="91" height="91"/>
              <rect class="cls-7" x="870.875" y="7.875" width="105" height="105"/>
            </g>
            <g>
              <rect class="cls-2" x="983.375" y=".375" width="120" height="120"/>
              <polygon class="cls-4" points="983.375 .375 1103.375 .375 1095.875 7.875 1044.20833 18.47868 990.875 7.875 983.375 .375"/>
              <polygon class="cls-3" points="1103.375 120.375 1095.875 112.875 1044.20833 103.72871 990.875 112.875 983.375 120.375 1103.375 120.375"/>
              <rect class="cls-1" x="990.875" y="7.875" width="105" height="105"/>
              <rect class="cls-8" x="997.875" y="14.875" width="91" height="91"/>
              <rect class="cls-7" x="990.875" y="7.875" width="105" height="105"/>
            </g>
            <g>
              <rect class="cls-2" x="1103.375" y=".375" width="120" height="120"/>
              <polygon class="cls-4" points="1103.375 .375 1223.375 .375 1215.875 7.875 1164.20833 18.47868 1110.875 7.875 1103.375 .375"/>
              <polygon class="cls-3" points="1223.375 120.375 1215.875 112.875 1164.20833 103.72871 1110.875 112.875 1103.375 120.375 1223.375 120.375"/>
              <rect class="cls-1" x="1110.875" y="7.875" width="105" height="105"/>
              <rect class="cls-8" x="1117.875" y="14.875" width="91" height="91"/>
              <rect class="cls-7" x="1110.875" y="7.875" width="105" height="105"/>
            </g>
          </g>
          <line class="cls-7" x1="863.375" y1=".375" x2="863.375" y2="120.375"/>
          <line class="cls-7" x1="983.375" y1=".375" x2="983.375" y2="120.375"/>
          <line class="cls-7" x1="1103.375" y1=".375" x2="1103.375" y2="120.375"/>
          <rect class="cls-5" x="743.375" y=".375" width="480" height="120"/>
        </g>
        <g>
          <g>
            <path class="cls-3" d="m833.66995,30.36499c-.39001-1.93005-1.14001-3.53992-2.28003-4.78992-1.10999-1.22009-2.57996-2.1001-4.44995-2.62012-1.3501-.38989-2.91992-.57996-4.70996-.57996h-45.27002c-2.33008,0-4.21997,1.90002-4.21997,4.22998v15.20007c.03992,1.8999,1.33997,3.48999,3.08997,3.96997.35999.10999.73999.15991,1.13.15991h5.22998c.17993,0,.34998.01001.52002.04004.95996.10999,1.82996.56006,2.46997,1.19995.59998.6001,1.02002,1.37012,1.15991,2.22998.06006.24011.08008.5.08008.76001,0,2.34009-1.89001,4.2301-4.22998,4.2301h-4.93994c-2.34009,0-4.22998,1.89001-4.22998,4.22998v35.52991c0,1.09009.40991,2.09009,1.09985,2.83008.77002.85999,1.89014,1.39001,3.13013,1.39001h52.53992c2.32996,0,4.22009-1.89001,4.22009-4.22009v-15.10986c0-1.79004-1.1001-3.31006-2.66016-3.93005-.47998-.19006-1.01001-.29993-1.55994-.29993h-5.22998c-1.90002,0-3.52002-1.26001-4.04993-3-.12012-.39014-.18005-.80005-.18005-1.2301v-.18005c0-2.33984,1.90002-4.22998,4.22998-4.22998h5.22998c2.32996,0,4.22009-1.8999,4.22009-4.22998v-27.97998c0-1.30005-.11011-2.5-.34009-3.59998Z"/>
            <g>
              <line class="cls-6" x1="778.02996" y1="22.375" x2="772.73996" y2="27.665"/>
              <line class="cls-6" x1="785.08996" y1="22.375" x2="772.73996" y2="34.725"/>
              <line class="cls-6" x1="792.16996" y1="22.375" x2="772.73996" y2="41.805"/>
              <line class="cls-6" x1="799.22996" y1="22.375" x2="775.82996" y2="45.775"/>
              <line class="cls-6" x1="806.30996" y1="22.375" x2="782.70996" y2="45.975"/>
              <line class="cls-6" x1="813.36996" y1="22.375" x2="786.33996" y2="49.405"/>
              <line class="cls-6" x1="781.34996" y1="54.395" x2="773.01996" y2="62.725"/>
              <line class="cls-6" x1="820.44996" y1="22.375" x2="773.01996" y2="69.805"/>
              <line class="cls-6" x1="826.93996" y1="22.955" x2="773.01996" y2="76.875"/>
              <line class="cls-6" x1="831.38996" y1="25.575" x2="773.01996" y2="83.945"/>
              <line class="cls-6" x1="833.66996" y1="30.365" x2="773.01996" y2="91.015"/>
              <line class="cls-6" x1="834.00996" y1="37.095" x2="774.11996" y2="96.985"/>
              <line class="cls-6" x1="834.00996" y1="44.175" x2="779.80996" y2="98.375"/>
              <line class="cls-6" x1="834.00996" y1="51.235" x2="786.86996" y2="98.375"/>
              <line class="cls-6" x1="834.00996" y1="58.315" x2="826.14996" y2="66.175"/>
              <line class="cls-6" x1="820.50996" y1="71.815" x2="793.94996" y2="98.375"/>
              <line class="cls-6" x1="824.56996" y1="74.815" x2="801.00996" y2="98.375"/>
              <line class="cls-6" x1="831.34996" y1="75.115" x2="808.08996" y2="98.375"/>
              <line class="cls-6" x1="834.00996" y1="79.515" x2="815.15996" y2="98.375"/>
              <line class="cls-6" x1="834.00996" y1="86.595" x2="822.22996" y2="98.375"/>
              <line class="cls-6" x1="834.00996" y1="93.665" x2="829.29996" y2="98.375"/>
            </g>
            <path class="cls-5" d="m833.66995,30.36499c-.39001-1.93005-1.14001-3.53992-2.28003-4.78992-1.10999-1.22009-2.57996-2.1001-4.44995-2.62012-1.3501-.38989-2.91992-.57996-4.70996-.57996h-45.27002c-2.33008,0-4.21997,1.90002-4.21997,4.22998v15.20007c.03992,1.8999,1.33997,3.48999,3.08997,3.96997.35999.10999.73999.15991,1.13.15991h5.22998c.17993,0,.34998.01001.52002.04004.95996.10999,1.82996.56006,2.46997,1.19995.59998.6001,1.02002,1.37012,1.15991,2.22998.06006.24011.08008.5.08008.76001,0,2.34009-1.89001,4.2301-4.22998,4.2301h-4.93994c-2.34009,0-4.22998,1.89001-4.22998,4.22998v35.52991c0,1.09009.40991,2.09009,1.09985,2.83008.77002.85999,1.89014,1.39001,3.13013,1.39001h52.53992c2.32996,0,4.22009-1.89001,4.22009-4.22009v-15.10986c0-1.79004-1.1001-3.31006-2.66016-3.93005-.47998-.19006-1.01001-.29993-1.55994-.29993h-5.22998c-1.90002,0-3.52002-1.26001-4.04993-3-.12012-.39014-.18005-.80005-.18005-1.2301v-.18005c0-2.33984,1.90002-4.22998,4.22998-4.22998h5.22998c2.32996,0,4.22009-1.8999,4.22009-4.22998v-27.97998c0-1.30005-.11011-2.5-.34009-3.59998Z"/>
          </g>
          <g>
            <path class="cls-3" d="m959.45007,32.20498c-.04004-.48999-.09009-.96008-.17017-1.40002-.32983-2.15991-1.0199-3.81006-2.0199-5.06006-1.09998-1.34985-2.54993-2.22998-4.31995-2.73999-.98999-.29993-2.08008-.47998-3.26001-.56995-.59009-.03992-1.21008-.05994-1.84009-.05994h-48.92993c-.70996,0-1.38013.03992-2.03003.10986-1.1001.12012-2.10999.3501-3.03003.68005-1.72998.59998-3.13,1.56995-4.19995,2.88-1.07007,1.31006-1.79004,2.94995-2.16003,4.92004-.05994.33997-.10999.68994-.14001,1.04993-.07996.65002-.12,1.33008-.12,2.05005v52.63c0,.20007,0,.39001.01001.57996.01001.46997.03003.92004.05994,1.36011.17004,2.21997.66016,4.06995,1.54004,5.52991.88,1.44006,2.14001,2.51001,3.87012,3.22009,1.50989.60986,3.35986.92993,5.61987.97998.15002.01001.29004.01001.44995.01001h49.06006c.15002,0,.30005,0,.43994-.01001,2.11011-.04004,3.94006-.44006,5.47009-1.15002,1.60999-.74011,2.89001-1.82996,3.83997-3.2301.96997-1.43994,1.58008-3.19995,1.81006-5.26001.06006-.50989.09998-1.03992.10999-1.58984.01001-.15015.01001-.29004.01001-.44006v-52.63c0-.65002-.02002-1.27002-.06995-1.85999Zm-30.33008,40.38c-.04004,1.8999-1.34009,3.48999-3.09998,3.96997-.35999.10999-.7301.16003-1.12.16003h-2.94995c-.46008,0-.90015-.06995-1.31006-.21008-1.68994-.54993-2.92004-2.13989-2.92004-4.01001v-24.51001c0-.28992.03003-.57996.08997-.84985.36011-1.80005,1.86011-3.17004,3.71008-3.36011.14001-.01001.27991-.02002.43005-.02002h2.94995c.06995,0,.12988,0,.19995.01001,1.89001.08008,3.44995,1.41003,3.89001,3.19006.08997.32996.13.67004.13,1.02991v24.6001Z"/>
            <g>
              <line class="cls-6" x1="896.88" y1="22.48498" x2="887.35" y2="32.01498"/>
              <line class="cls-6" x1="904.07" y1="22.37498" x2="887.23" y2="39.21498"/>
              <line class="cls-6" x1="911.13" y1="22.37498" x2="887.23" y2="46.28498"/>
              <line class="cls-6" x1="918.21" y1="22.37498" x2="887.23" y2="53.35498"/>
              <line class="cls-6" x1="925.28" y1="22.37498" x2="887.23" y2="60.42498"/>
              <line class="cls-6" x1="932.35" y1="22.37498" x2="887.23" y2="67.49498"/>
              <line class="cls-6" x1="939.43" y1="22.37498" x2="887.23" y2="74.56498"/>
              <line class="cls-6" x1="946.49" y1="22.37498" x2="925.1" y2="43.76498"/>
              <line class="cls-6" x1="917.72" y1="51.14498" x2="887.23" y2="81.63498"/>
              <line class="cls-6" x1="952.94" y1="23.00498" x2="928.99" y2="46.95498"/>
              <line class="cls-6" x1="917.72" y1="58.21498" x2="887.3" y2="88.63498"/>
              <line class="cls-6" x1="957.26" y1="25.74498" x2="929.12" y2="53.88498"/>
              <line class="cls-6" x1="917.72" y1="65.28498" x2="888.84" y2="94.16498"/>
              <line class="cls-6" x1="959.28" y1="30.80498" x2="929.12" y2="60.96498"/>
              <line class="cls-6" x1="917.72" y1="72.36498" x2="892.71" y2="97.38498"/>
              <line class="cls-6" x1="959.52" y1="37.62498" x2="929.12" y2="68.03498"/>
              <line class="cls-6" x1="920.64" y1="76.50498" x2="898.78" y2="98.37498"/>
              <line class="cls-6" x1="959.52" y1="44.70498" x2="905.85" y2="98.37498"/>
              <line class="cls-6" x1="959.52" y1="51.77498" x2="912.92" y2="98.37498"/>
              <line class="cls-6" x1="959.52" y1="58.84498" x2="919.99" y2="98.37498"/>
              <line class="cls-6" x1="959.52" y1="65.92498" x2="927.06" y2="98.37498"/>
              <line class="cls-6" x1="959.52" y1="72.98498" x2="934.13" y2="98.37498"/>
              <line class="cls-6" x1="959.52" y1="80.06498" x2="941.2" y2="98.37498"/>
              <line class="cls-6" x1="959.51" y1="87.13498" x2="948.28" y2="98.36498"/>
            </g>
            <path class="cls-5" d="m959.45007,32.20498c-.04004-.48999-.09009-.96008-.17017-1.40002-.32983-2.15991-1.0199-3.81006-2.0199-5.06006-1.09998-1.34985-2.54993-2.22998-4.31995-2.73999-.98999-.29993-2.08008-.47998-3.26001-.56995-.59009-.03992-1.21008-.05994-1.84009-.05994h-48.92993c-.70996,0-1.38013.03992-2.03003.10986-1.1001.12012-2.10999.3501-3.03003.68005-1.72998.59998-3.13,1.56995-4.19995,2.88-1.07007,1.31006-1.79004,2.94995-2.16003,4.92004-.05994.33997-.10999.68994-.14001,1.04993-.07996.65002-.12,1.33008-.12,2.05005v52.63c0,.20007,0,.39001.01001.57996.01001.46997.03003.92004.05994,1.36011.17004,2.21997.66016,4.06995,1.54004,5.52991.88,1.44006,2.14001,2.51001,3.87012,3.22009,1.50989.60986,3.35986.92993,5.61987.97998.15002.01001.29004.01001.44995.01001h49.06006c.15002,0,.30005,0,.43994-.01001,2.11011-.04004,3.94006-.44006,5.47009-1.15002,1.60999-.74011,2.89001-1.82996,3.83997-3.2301.96997-1.43994,1.58008-3.19995,1.81006-5.26001.06006-.50989.09998-1.03992.10999-1.58984.01001-.15015.01001-.29004.01001-.44006v-52.63c0-.65002-.02002-1.27002-.06995-1.85999Zm-30.33008,40.38c-.04004,1.8999-1.34009,3.48999-3.09998,3.96997-.35999.10999-.7301.16003-1.12.16003h-2.94995c-.46008,0-.90015-.06995-1.31006-.21008-1.68994-.54993-2.92004-2.13989-2.92004-4.01001v-24.51001c0-.28992.03003-.57996.08997-.84985.36011-1.80005,1.86011-3.17004,3.71008-3.36011.14001-.01001.27991-.02002.43005-.02002h2.94995c.06995,0,.12988,0,.19995.01001,1.89001.08008,3.44995,1.41003,3.89001,3.19006.08997.32996.13.67004.13,1.02991v24.6001Z"/>
          </g>
          <g>
            <path class="cls-3" d="m1193.5859,86.59734c0,7.59961-4.46484,11.7793-11.78027,11.7793h-44.41312c-2.33478,0-4.2275-1.89272-4.2275-4.2275v-10.545c0-2.33478,1.89272-4.2275,4.2275-4.2275h5.03523c2.33478,0,4.2275-1.89272,4.2275-4.2275v-3.51473c0-2.33478-1.89272-4.2275-4.2275-4.2275h-4.75008c-2.33478,0-4.2275-1.89272-4.2275-4.2275v-5.41512c0-2.33478,1.89272-4.2275,4.2275-4.2275h4.75008c2.33478,0,4.2275-1.89272,4.2275-4.2275v-3.42c0-2.33478-1.89272-4.2275-4.2275-4.2275h-4.65437c-2.33478,0-4.2275-1.89272-4.2275-4.2275v-10.83016c0-2.33478,1.89272-4.2275,4.2275-4.2275h44.03227c7.69531,0,11.78027,3.13477,11.78027,11.7793v16.33984c0,5.51074-4.08496,9.12109-9.12012,10.35547v.28516c4.65527.85547,9.12012,4.94043,9.12012,10.64062v14.82031Z"/>
            <g>
              <line class="cls-6" x1="1142.0041" y1="22.37336" x2="1133.5441" y2="30.83336"/>
              <line class="cls-6" x1="1149.0641" y1="22.37336" x2="1133.5641" y2="37.87336"/>
              <line class="cls-6" x1="1156.1441" y1="22.37336" x2="1136.9441" y2="41.57336"/>
              <line class="cls-6" x1="1163.2041" y1="22.37336" x2="1143.7141" y2="41.86336"/>
              <line class="cls-6" x1="1170.2841" y1="22.37336" x2="1146.6541" y2="46.00336"/>
              <line class="cls-6" x1="1139.1241" y1="53.53336" x2="1133.4541" y2="59.20336"/>
              <line class="cls-6" x1="1177.3441" y1="22.37336" x2="1134.1741" y2="65.54336"/>
              <line class="cls-6" x1="1184.2941" y1="22.50336" x2="1139.3941" y2="67.40336"/>
              <line class="cls-6" x1="1189.6141" y1="24.25336" x2="1145.3141" y2="68.55336"/>
              <line class="cls-6" x1="1192.6741" y1="28.26336" x2="1146.6541" y2="74.28336"/>
              <line class="cls-6" x1="1141.5641" y1="79.37336" x2="1133.1641" y2="87.77336"/>
              <line class="cls-6" x1="1193.5841" y1="34.43336" x2="1133.2241" y2="94.79336"/>
              <line class="cls-6" x1="1193.5841" y1="41.49336" x2="1136.7541" y2="98.32336"/>
              <line class="cls-6" x1="1193.5841" y1="48.57336" x2="1143.7841" y2="98.37336"/>
              <line class="cls-6" x1="1187.1941" y1="62.02336" x2="1150.8441" y2="98.37336"/>
              <line class="cls-6" x1="1191.1841" y1="65.11336" x2="1157.9241" y2="98.37336"/>
              <line class="cls-6" x1="1193.4241" y1="69.93336" x2="1164.9841" y2="98.37336"/>
              <line class="cls-6" x1="1193.5841" y1="76.85336" x2="1172.0641" y2="98.37336"/>
              <line class="cls-6" x1="1193.5841" y1="83.92336" x2="1179.1341" y2="98.37336"/>
              <line class="cls-6" x1="1192.6641" y1="91.91336" x2="1187.1241" y2="97.45336"/>
            </g>
            <path class="cls-5" d="m1193.5859,86.59734c0,7.59961-4.46484,11.7793-11.78027,11.7793h-44.41312c-2.33478,0-4.2275-1.89272-4.2275-4.2275v-10.545c0-2.33478,1.89272-4.2275,4.2275-4.2275h5.03523c2.33478,0,4.2275-1.89272,4.2275-4.2275v-3.51473c0-2.33478-1.89272-4.2275-4.2275-4.2275h-4.75008c-2.33478,0-4.2275-1.89272-4.2275-4.2275v-5.41512c0-2.33478,1.89272-4.2275,4.2275-4.2275h4.75008c2.33478,0,4.2275-1.89272,4.2275-4.2275v-3.42c0-2.33478-1.89272-4.2275-4.2275-4.2275h-4.65437c-2.33478,0-4.2275-1.89272-4.2275-4.2275v-10.83016c0-2.33478,1.89272-4.2275,4.2275-4.2275h44.03227c7.69531,0,11.78027,3.13477,11.78027,11.7793v16.33984c0,5.51074-4.08496,9.12109-9.12012,10.35547v.28516c4.65527.85547,9.12012,4.94043,9.12012,10.64062v14.82031Z"/>
          </g>
          <g>
            <path class="cls-3" d="m1073.66995,30.36499c-.39001-1.93005-1.14001-3.53992-2.28003-4.78992-1.10999-1.22009-2.57996-2.1001-4.44995-2.62012-1.3501-.38989-2.91992-.57996-4.70996-.57996h-45.27002c-2.33008,0-4.21997,1.90002-4.21997,4.22998v15.20007c.03992,1.8999,1.33997,3.48999,3.08997,3.96997.35999.10999.73999.15991,1.13.15991h5.22998c.17993,0,.34998.01001.52002.04004.95996.10999,1.82996.56006,2.46997,1.19995.59998.6001,1.02002,1.37012,1.15991,2.22998.06006.24011.08008.5.08008.76001,0,2.34009-1.89001,4.2301-4.22998,4.2301h-4.93994c-2.34009,0-4.22998,1.89001-4.22998,4.22998v35.52991c0,1.09009.40991,2.09009,1.09985,2.83008.77002.85999,1.89014,1.39001,3.13013,1.39001h52.53992c2.32996,0,4.22009-1.89001,4.22009-4.22009v-15.10986c0-1.79004-1.1001-3.31006-2.66016-3.93005-.47998-.19006-1.01001-.29993-1.55994-.29993h-5.22998c-1.90002,0-3.52002-1.26001-4.04993-3-.12012-.39014-.18005-.80005-.18005-1.2301v-.18005c0-2.33984,1.90002-4.22998,4.22998-4.22998h5.22998c2.32996,0,4.22009-1.8999,4.22009-4.22998v-27.97998c0-1.30005-.11011-2.5-.34009-3.59998Z"/>
            <g>
              <line class="cls-6" x1="1018.02996" y1="22.375" x2="1012.73996" y2="27.665"/>
              <line class="cls-6" x1="1025.08996" y1="22.375" x2="1012.73996" y2="34.725"/>
              <line class="cls-6" x1="1032.16996" y1="22.375" x2="1012.73996" y2="41.805"/>
              <line class="cls-6" x1="1039.22996" y1="22.375" x2="1015.82996" y2="45.775"/>
              <line class="cls-6" x1="1046.30996" y1="22.375" x2="1022.70996" y2="45.975"/>
              <line class="cls-6" x1="1053.36996" y1="22.375" x2="1026.33996" y2="49.405"/>
              <line class="cls-6" x1="1021.34996" y1="54.395" x2="1013.01996" y2="62.725"/>
              <line class="cls-6" x1="1060.44996" y1="22.375" x2="1013.01996" y2="69.805"/>
              <line class="cls-6" x1="1066.93996" y1="22.955" x2="1013.01996" y2="76.875"/>
              <line class="cls-6" x1="1071.38996" y1="25.575" x2="1013.01996" y2="83.945"/>
              <line class="cls-6" x1="1073.66996" y1="30.365" x2="1013.01996" y2="91.015"/>
              <line class="cls-6" x1="1074.00996" y1="37.095" x2="1014.11996" y2="96.985"/>
              <line class="cls-6" x1="1074.00996" y1="44.175" x2="1019.80996" y2="98.375"/>
              <line class="cls-6" x1="1074.00996" y1="51.235" x2="1026.86996" y2="98.375"/>
              <line class="cls-6" x1="1074.00996" y1="58.315" x2="1066.14996" y2="66.175"/>
              <line class="cls-6" x1="1060.50996" y1="71.815" x2="1033.94996" y2="98.375"/>
              <line class="cls-6" x1="1064.56996" y1="74.815" x2="1041.00996" y2="98.375"/>
              <line class="cls-6" x1="1071.34996" y1="75.115" x2="1048.08996" y2="98.375"/>
              <line class="cls-6" x1="1074.00996" y1="79.515" x2="1055.15996" y2="98.375"/>
              <line class="cls-6" x1="1074.00996" y1="86.595" x2="1062.22996" y2="98.375"/>
              <line class="cls-6" x1="1074.00996" y1="93.665" x2="1069.29996" y2="98.375"/>
            </g>
            <path class="cls-5" d="m1073.66995,30.36499c-.39001-1.93005-1.14001-3.53992-2.28003-4.78992-1.10999-1.22009-2.57996-2.1001-4.44995-2.62012-1.3501-.38989-2.91992-.57996-4.70996-.57996h-45.27002c-2.33008,0-4.21997,1.90002-4.21997,4.22998v15.20007c.03992,1.8999,1.33997,3.48999,3.08997,3.96997.35999.10999.73999.15991,1.13.15991h5.22998c.17993,0,.34998.01001.52002.04004.95996.10999,1.82996.56006,2.46997,1.19995.59998.6001,1.02002,1.37012,1.15991,2.22998.06006.24011.08008.5.08008.76001,0,2.34009-1.89001,4.2301-4.22998,4.2301h-4.93994c-2.34009,0-4.22998,1.89001-4.22998,4.22998v35.52991c0,1.09009.40991,2.09009,1.09985,2.83008.77002.85999,1.89014,1.39001,3.13013,1.39001h52.53992c2.32996,0,4.22009-1.89001,4.22009-4.22009v-15.10986c0-1.79004-1.1001-3.31006-2.66016-3.93005-.47998-.19006-1.01001-.29993-1.55994-.29993h-5.22998c-1.90002,0-3.52002-1.26001-4.04993-3-.12012-.39014-.18005-.80005-.18005-1.2301v-.18005c0-2.33984,1.90002-4.22998,4.22998-4.22998h5.22998c2.32996,0,4.22009-1.8999,4.22009-4.22998v-27.97998c0-1.30005-.11011-2.5-.34009-3.59998Z"/>
          </g>
        </g>
      </g>
    </g>
  </g>
</svg>