<?xml version="1.0" encoding="UTF-8"?>
<svg xmlns="http://www.w3.org/2000/svg" xmlns:xlink="http://www.w3.org/1999/xlink" viewBox="0 0 1440 564.24651">
  <defs>
    <style>
      .cls-1 {
        fill: url(#linear-gradient);
      }

      .cls-2 {
        fill: #f6eba8;
      }

      .cls-3 {
        fill: #f2c054;
      }

      .cls-4 {
        fill: #8f7968;
      }

      .cls-5 {
        fill: #8f8483;
      }

      .cls-6 {
        fill: #1b2f45;
      }

      .cls-7 {
        fill: #7a6a63;
      }

      .cls-8 {
        fill: #835c46;
      }

      .cls-9 {
        fill: #4e4247;
      }

      .cls-10 {
        stroke: #8f8483;
        stroke-linecap: round;
        stroke-width: 1.75px;
      }

      .cls-10, .cls-11, .cls-12 {
        fill: none;
        stroke-miterlimit: 10;
      }

      .cls-13 {
        fill: #aac8d8;
        mix-blend-mode: soft-light;
        opacity: .75;
      }

      .cls-11 {
        stroke: #000;
      }

      .cls-11, .cls-12 {
        stroke-width: .75px;
      }

      .cls-12 {
        stroke: #335a85;
      }

      .cls-14 {
        fill: url(#radial-gradient-3);
      }

      .cls-15 {
        fill: url(#radial-gradient-2);
      }

      .cls-16 {
        fill: #8b5a42;
      }

      .cls-16, .cls-17, .cls-18 {
        opacity: .15;
      }

      .cls-17 {
        fill: #7d6962;
      }

      .cls-18 {
        fill: #947865;
      }

      .cls-19 {
        fill: url(#radial-gradient);
      }

      .cls-20 {
        isolation: isolate;
      }
    </style>
    <linearGradient id="linear-gradient" x1="720" y1="563.82739" x2="720" y2="0" gradientUnits="userSpaceOnUse">
      <stop offset="0" stop-color="#4e4247" stop-opacity="0"/>
      <stop offset="1" stop-color="#000" stop-opacity=".3"/>
    </linearGradient>
    <radialGradient id="radial-gradient" cx="719.99903" cy="146.10343" fx="719.99903" fy="146.10343" r="54.53234" gradientUnits="userSpaceOnUse">
      <stop offset="0" stop-color="#fcefa3" stop-opacity=".4"/>
      <stop offset="1" stop-color="#fef1df" stop-opacity="0"/>
    </radialGradient>
    <radialGradient id="radial-gradient-2" cx="360.0002" fx="360.0002" xlink:href="#radial-gradient"/>
    <radialGradient id="radial-gradient-3" cx="1080.0002" fx="1080.0002" xlink:href="#radial-gradient"/>
  </defs>
  <g class="cls-20">
    <g id="Layer_2" data-name="Layer 2">
      <g id="wall">
        <g>
          <g>
            <g>
              <rect class="cls-9" x="0" width="1440" height="563.87151"/>
              <g>
                <rect class="cls-17" x="887.2593" y="82.7988" width="50" height="20" rx="2.00491" ry="2.00491" transform="translate(1824.5186 185.5976) rotate(-180)"/>
                <rect class="cls-16" x="832.2593" y="82.7988" width="50" height="20" rx="2.00491" ry="2.00491" transform="translate(1714.5186 185.5976) rotate(-180)"/>
                <rect class="cls-16" x="859.7593" y="57.7988" width="50" height="20" rx="2.00491" ry="2.00491" transform="translate(1769.5186 135.5976) rotate(-180)"/>
                <rect class="cls-16" x="859.7593" y="107.7988" width="50" height="20" rx="2.00491" ry="2.00491" transform="translate(1769.5186 235.5976) rotate(-180)"/>
                <rect class="cls-18" x="584.7593" y="307.7988" width="50" height="20" rx="2.00491" ry="2.00491"/>
                <rect class="cls-16" x="639.7593" y="307.7988" width="50" height="20" rx="2.00491" ry="2.00491"/>
                <rect class="cls-18" x="612.2593" y="282.7988" width="50" height="20" rx="2.00491" ry="2.00491"/>
                <rect class="cls-16" x="612.2593" y="332.7988" width="50" height="20" rx="2.00491" ry="2.00491"/>
                <rect class="cls-18" x="667.2593" y="282.7988" width="50" height="20" rx="2.00491" ry="2.00491"/>
                <rect class="cls-16" x="639.7593" y="257.7988" width="50" height="20" rx="2.00491" ry="2.00491"/>
                <rect class="cls-18" x="969.7593" y="257.7988" width="50" height="20" rx="2.00491" ry="2.00491" transform="translate(1989.5186 535.5976) rotate(-180)"/>
                <rect class="cls-16" x="914.7593" y="257.7988" width="50" height="20" rx="2.00491" ry="2.00491" transform="translate(1879.5186 535.5976) rotate(-180)"/>
                <rect class="cls-18" x="942.2593" y="232.7988" width="50" height="20" rx="2.00491" ry="2.00491" transform="translate(1934.5186 485.5976) rotate(-180)"/>
                <rect class="cls-16" x="942.2593" y="282.7988" width="50" height="20" rx="2.00491" ry="2.00491" transform="translate(1934.5186 585.5976) rotate(-180)"/>
                <rect class="cls-18" x="887.2593" y="282.7988" width="50" height="20" rx="2.00491" ry="2.00491" transform="translate(1824.5186 585.5976) rotate(-180)"/>
                <rect class="cls-18" x="749.7593" y="207.7988" width="50" height="20" rx="2.00491" ry="2.00491" transform="translate(1549.5186 435.5976) rotate(-180)"/>
                <rect class="cls-18" x="722.2593" y="182.7988" width="50" height="20" rx="2.00491" ry="2.00491" transform="translate(1494.5186 385.5976) rotate(-180)"/>
                <rect class="cls-18" x="1272.5" y="282.7988" width="50" height="20" rx="2.00491" ry="2.00491"/>
                <rect class="cls-16" x="1327.5" y="282.7988" width="50" height="20" rx="2.00491" ry="2.00491"/>
                <rect class="cls-16" x="1300" y="257.7988" width="50" height="20" rx="2.00491" ry="2.00491"/>
                <rect class="cls-18" x="1355" y="257.7988" width="50" height="20" rx="2.00491" ry="2.00491"/>
                <rect class="cls-18" x="584.7593" y="507.7988" width="50" height="20" rx="2.00491" ry="2.00491"/>
                <rect class="cls-18" x="639.7593" y="507.7988" width="50" height="20" rx="2.00491" ry="2.00491"/>
                <rect class="cls-16" x="612.2593" y="482.7988" width="50" height="20" rx="2.00491" ry="2.00491"/>
                <rect class="cls-18" x="667.2593" y="482.7988" width="50" height="20" rx="2.00491" ry="2.00491"/>
                <rect class="cls-18" x="172.2593" y="82.7988" width="50" height="20" rx="2.00491" ry="2.00491" transform="translate(394.5186 185.5976) rotate(-180)"/>
                <rect class="cls-16" x="117.2593" y="82.7988" width="50" height="20" rx="2.00491" ry="2.00491" transform="translate(284.5186 185.5976) rotate(-180)"/>
                <rect class="cls-18" x="144.7593" y="57.7988" width="50" height="20" rx="2.00491" ry="2.00491" transform="translate(339.5186 135.5976) rotate(-180)"/>
                <rect class="cls-18" x="144.7593" y="107.7988" width="50" height="20" rx="2.00491" ry="2.00491" transform="translate(339.5186 235.5976) rotate(-180)"/>
                <rect class="cls-18" x="89.7593" y="57.7988" width="50" height="20" rx="2.00491" ry="2.00491" transform="translate(229.5186 135.5976) rotate(-180)"/>
                <rect class="cls-16" x="117.2593" y="32.7988" width="50" height="20" rx="2.00491" ry="2.00491" transform="translate(284.5186 85.5976) rotate(-180)"/>
                <rect class="cls-18" x="144.7593" y="207.7988" width="50" height="20" rx="2.00491" ry="2.00491" transform="translate(339.5186 435.5976) rotate(-180)"/>
                <rect class="cls-18" x="89.7593" y="207.7988" width="50" height="20" rx="2.00491" ry="2.00491" transform="translate(229.5186 435.5976) rotate(-180)"/>
                <rect class="cls-16" x="117.2593" y="182.7988" width="50" height="20" rx="2.00491" ry="2.00491" transform="translate(284.5186 385.5976) rotate(-180)"/>
                <rect class="cls-18" x="62.2593" y="182.7988" width="50" height="20" rx="2.00491" ry="2.00491" transform="translate(174.5186 385.5976) rotate(-180)"/>
                <rect class="cls-16" x="668.07708" y="433.15964" width="50" height="20" rx="2.00491" ry="2.00491" transform="translate(1386.15416 886.31928) rotate(-180)"/>
                <rect class="cls-18" x="695.57708" y="408.15964" width="50" height="20" rx="2.00491" ry="2.00491" transform="translate(1441.15416 836.31928) rotate(-180)"/>
                <rect class="cls-18" x="117.2593" y="432.7988" width="50" height="20" rx="2.00491" ry="2.00491" transform="translate(284.5186 885.5976) rotate(-180)"/>
                <rect class="cls-18" x="144.7593" y="407.7988" width="50" height="20" rx="2.00491" ry="2.00491" transform="translate(339.5186 835.5976) rotate(-180)"/>
                <rect class="cls-18" x="1024.7593" y="357.7988" width="50" height="20" rx="2.00491" ry="2.00491" transform="translate(2099.5186 735.5976) rotate(-180)"/>
                <rect class="cls-18" x="1052.2593" y="332.7988" width="50" height="20" rx="2.00491" ry="2.00491" transform="translate(2154.5186 685.5976) rotate(-180)"/>
                <rect class="cls-16" x="914.7593" y="457.7988" width="50" height="20" rx="2.00491" ry="2.00491" transform="translate(1879.5186 935.5976) rotate(-180)"/>
                <rect class="cls-18" x="887.2593" y="432.7988" width="50" height="20" rx="2.00491" ry="2.00491" transform="translate(1824.5186 885.5976) rotate(-180)"/>
                <rect class="cls-18" x="337.2593" y="382.7988" width="50" height="20" rx="2.00491" ry="2.00491" transform="translate(724.5186 785.5976) rotate(-180)"/>
                <rect class="cls-18" x="309.7593" y="357.7988" width="50" height="20" rx="2.00491" ry="2.00491" transform="translate(669.5186 735.5976) rotate(-180)"/>
                <rect class="cls-16" x="1327.2593" y="432.7988" width="50" height="20" rx="2.00491" ry="2.00491" transform="translate(2704.5186 885.5976) rotate(-180)"/>
                <rect class="cls-18" x="1299.7593" y="407.7988" width="50" height="20" rx="2.00491" ry="2.00491" transform="translate(2649.5186 835.5976) rotate(-180)"/>
                <rect class="cls-18" x="1299.7593" y="457.7988" width="50" height="20" rx="2.00491" ry="2.00491" transform="translate(2649.5186 935.5976) rotate(-180)"/>
                <rect class="cls-18" x="34.7593" y="357.7988" width="50" height="20" rx="2.00491" ry="2.00491"/>
                <rect class="cls-16" x="62.2593" y="382.7988" width="50" height="20" rx="2.00491" ry="2.00491"/>
                <rect class="cls-16" x="62.2593" y="332.7988" width="50" height="20" rx="2.00491" ry="2.00491"/>
                <rect class="cls-16" x="1134.7593" y="307.7988" width="50" height="20" rx="2.00491" ry="2.00491"/>
                <rect class="cls-17" x="1162.2593" y="332.7988" width="50" height="20" rx="2.00491" ry="2.00491"/>
                <rect class="cls-16" x="1162.2593" y="282.7988" width="50" height="20" rx="2.00491" ry="2.00491"/>
                <rect class="cls-16" x="997.2593" y="32.7988" width="50" height="20" rx="2.00491" ry="2.00491"/>
                <rect class="cls-18" x="1189.17697" y="208.02695" width="50" height="20" rx="2.00491" ry="2.00491"/>
                <rect class="cls-18" x="254.7593" y="57.7988" width="50" height="20" rx="2.00491" ry="2.00491"/>
                <rect class="cls-18" x="254.7593" y="208.02695" width="50" height="20" rx="2.00491" ry="2.00491"/>
                <rect class="cls-17" x="1134.7593" y="457.7988" width="50" height="20" rx="2.00491" ry="2.00491" transform="translate(2319.5186 935.5976) rotate(-180)"/>
                <rect class="cls-17" x="1079.7593" y="457.7988" width="50" height="20" rx="2.00491" ry="2.00491" transform="translate(2209.5186 935.5976) rotate(-180)"/>
                <rect class="cls-16" x="1107.2593" y="432.7988" width="50" height="20" rx="2.00491" ry="2.00491" transform="translate(2264.5186 885.5976) rotate(-180)"/>
                <rect class="cls-16" x="1107.2593" y="482.7988" width="50" height="20" rx="2.00491" ry="2.00491" transform="translate(2264.5186 985.5976) rotate(-180)"/>
                <rect class="cls-18" x="529.7593" y="407.7988" width="50" height="20" rx="2.00491" ry="2.00491" transform="translate(1109.5186 835.5976) rotate(-180)"/>
                <rect class="cls-18" x="474.7593" y="407.7988" width="50" height="20" rx="2.00491" ry="2.00491" transform="translate(999.5186 835.5976) rotate(-180)"/>
                <rect class="cls-18" x="502.2593" y="382.7988" width="50" height="20" rx="2.00491" ry="2.00491" transform="translate(1054.5186 785.5976) rotate(-180)"/>
                <rect class="cls-16" x="502.2593" y="432.7988" width="50" height="20" rx="2.00491" ry="2.00491" transform="translate(1054.5186 885.5976) rotate(-180)"/>
                <rect class="cls-16" x="419.7593" y="257.7988" width="50" height="20" rx="2.00491" ry="2.00491" transform="translate(889.5186 535.5976) rotate(-180)"/>
                <rect class="cls-17" x="364.7593" y="257.7988" width="50" height="20" rx="2.00491" ry="2.00491" transform="translate(779.5186 535.5976) rotate(-180)"/>
                <rect class="cls-16" x="392.2593" y="232.7988" width="50" height="20" rx="2.00491" ry="2.00491" transform="translate(834.5186 485.5976) rotate(-180)"/>
                <rect class="cls-17" x="392.2593" y="282.7988" width="50" height="20" rx="2.00491" ry="2.00491" transform="translate(834.5186 585.5976) rotate(-180)"/>
                <rect class="cls-18" x="199.7593" y="307.7988" width="50" height="20" rx="2.00491" ry="2.00491" transform="translate(449.5186 635.5976) rotate(-180)"/>
                <rect class="cls-16" x="144.7593" y="307.7988" width="50" height="20" rx="2.00491" ry="2.00491" transform="translate(339.5186 635.5976) rotate(-180)"/>
                <rect class="cls-18" x="172.2593" y="282.7988" width="50" height="20" rx="2.00491" ry="2.00491" transform="translate(394.5186 585.5976) rotate(-180)"/>
                <rect class="cls-16" x="887.2593" y="482.7988" width="50" height="20" rx="2.00491" ry="2.00491"/>
                <rect class="cls-18" x="942.2593" y="482.7988" width="50" height="20" rx="2.00491" ry="2.00491"/>
                <rect class="cls-18" x="914.7593" y="507.7988" width="50" height="20" rx="2.00491" ry="2.00491"/>
                <rect class="cls-16" x="254.7593" y="457.7988" width="50" height="20" rx="2.00491" ry="2.00491"/>
                <rect class="cls-16" x="309.7593" y="457.7988" width="50" height="20" rx="2.00491" ry="2.00491"/>
                <rect class="cls-18" x="282.2593" y="482.7988" width="50" height="20" rx="2.00491" ry="2.00491"/>
                <rect class="cls-16" x="612.2593" y="32.7988" width="50" height="20" rx="2.00491" ry="2.00491"/>
                <rect class="cls-18" x="667.2593" y="32.7988" width="50" height="20" rx="2.00491" ry="2.00491"/>
                <rect class="cls-18" x="639.7593" y="57.7988" width="50" height="20" rx="2.00491" ry="2.00491"/>
                <rect class="cls-17" x="804.7593" y="357.7988" width="50" height="20" rx="2.00491" ry="2.00491"/>
                <rect class="cls-16" x="859.7593" y="357.7988" width="50" height="20" rx="2.00491" ry="2.00491"/>
                <rect class="cls-17" x="832.2593" y="382.7988" width="50" height="20" rx="2.00491" ry="2.00491"/>
                <rect class="cls-16" x="364.7593" y="307.7988" width="50" height="20" rx="2.00491" ry="2.00491"/>
                <rect class="cls-16" x="1189.7593" y="357.7988" width="50" height="20" rx="2.00491" ry="2.00491"/>
                <rect class="cls-18" x="1134.7593" y="207.7988" width="50" height="20" rx="2.00491" ry="2.00491"/>
                <rect class="cls-16" x="337.2593" y="32.7988" width="50" height="20" rx="2.00491" ry="2.00491"/>
                <rect class="cls-16" x="777.2593" y="332.7988" width="50" height="20" rx="2.00491" ry="2.00491"/>
                <rect class="cls-16" x="419.7593" y="307.7988" width="50" height="20" rx="2.00491" ry="2.00491"/>
                <rect class="cls-18" x="529.7593" y="208.02695" width="50" height="20" rx="2.00491" ry="2.00491"/>
                <g>
                  <rect class="cls-16" x="1244.77978" y="57.99778" width="50" height="20" rx="2.00491" ry="2.00491" transform="translate(2539.55956 135.99556) rotate(-180)"/>
                  <rect class="cls-18" x="1189.77978" y="57.99778" width="50" height="20" rx="2.00491" ry="2.00491" transform="translate(2429.55956 135.99556) rotate(-180)"/>
                  <rect class="cls-17" x="1217.27978" y="32.99778" width="50" height="20" rx="2.00491" ry="2.00491" transform="translate(2484.55956 85.99556) rotate(-180)"/>
                  <rect class="cls-16" x="1217.27978" y="82.99778" width="50" height="20" rx="2.00491" ry="2.00491" transform="translate(2484.55956 185.99556) rotate(-180)"/>
                </g>
              </g>
            </g>
            <g>
              <g>
                <g>
                  <path class="cls-6" d="m600.95804,191.75893H179.92801c3.06995-11.94,8.62988-24.02997,16.26001-35.28998,8.47998-12.54999,19.54004-24.12,32.85999-34.40997,3.31995-2.55005,6.75-5.02002,10.23999-7.34003,1.12-.76001,2.2699-1.51001,3.45007-2.26001,10.84985-6.95001,23.78992-13.54999,37.43994-19.07001,17.87-7.26001,36.91992-12.71997,56.63989-16.22998,14.90015-2.66003,30.29004-4.19,45.83008-4.57001,2.16992-.04999,4.34009-.08002,6.51001-.09003,12.58997-.04999,25.13.67004,37.45996,2.14001,5.43994.64001,10.84009,1.42999,16.17993,2.37,3.27002.57001,6.53003,1.20001,9.77002,1.88,8.16016,1.71002,16.2002,3.76001,24.09009,6.14001,6.68994,2.02002,13.28003,4.28003,19.71997,6.77002,13.61011,5.26001,26.16016,11.34998,37.30005,18.08997,2.66992,1.62,5.23999,3.25,7.62988,4.85004,2.94995,1.97998,5.77002,3.96997,8.39014,5.94995,14.16992,10.61005,25.8999,22.65002,34.84985,35.79004,7.72021,11.33997,13.33008,23.41998,16.41016,35.27997Z"/>
                  <path class="cls-13" d="m427.07965,75.63893l-117.12988,117.12h-46.01001l119.16992-119.16998c2.16992-.04999,4.34009-.08002,6.51001-.09003,12.58997-.04999,25.13.67004,37.45996,2.14001Z"/>
                  <path class="cls-13" d="m477.11969,86.02895l-106.72998,106.72998h-30.22998l112.86987-112.87c8.16016,1.71002,16.2002,3.76001,24.09009,6.14001Z"/>
                  <path d="m588.67289,151.66526h-33.48047v-34.47998h-5v34.47998h-49.51953v-38.08008h43.41016v-5h-43.41016v-20.9502h-5v20.9502h-49.52051v-36h-5v36h-49.51562v-40.5874h-5v40.5874h-48.2041v-35.8501h-5v35.8501h-52.63965v-19.33008h-5v19.33008h-39.32031v5h39.32031v38.08008h-47.2998v-33.06006h-5v33.06006h-31.4502v5h31.4502v40.58984h5v-40.58984h47.2998v40.58984h5v-40.58984h52.63965v40.58984h5v-40.58984h48.2041v40.59033h5v-40.59033h49.51562v40.58984h5v-40.58984h49.52051v40.58984h5v-40.58984h49.51953v40.58984h5v-40.58984h33.48047v-5Zm-307.87988,0v-38.08008h52.63965v38.08008h-52.63965Zm57.63965,0v-38.08008h48.2041v38.08008h-48.2041Zm53.2041,0v-38.08008h49.51562v38.08008h-49.51562Zm54.51562,0v-38.08008h49.52051v38.08008h-49.52051Z"/>
                  <path class="cls-12" d="m588.67289,151.66526h-33.48047v-34.47998h-5v34.47998h-49.51953v-38.08008h43.41016v-5h-43.41016v-20.9502h-5v20.9502h-49.52051v-36h-5v36h-49.51562v-40.5874h-5v40.5874h-48.2041v-35.8501h-5v35.8501h-52.63965v-19.33008h-5v19.33008h-39.32031v5h39.32031v38.08008h-47.2998v-33.06006h-5v33.06006h-31.4502v5h31.4502v40.58984h5v-40.58984h47.2998v40.58984h5v-40.58984h52.63965v40.58984h5v-40.58984h48.2041v40.59033h5v-40.59033h49.51562v40.58984h5v-40.58984h49.52051v40.58984h5v-40.58984h49.51953v40.58984h5v-40.58984h33.48047v-5Zm-307.87988,0v-38.08008h52.63965v38.08008h-52.63965Zm57.63965,0v-38.08008h48.2041v38.08008h-48.2041Zm53.2041,0v-38.08008h49.51562v38.08008h-49.51562Zm54.51562,0v-38.08008h49.52051v38.08008h-49.52051Z"/>
                  <path class="cls-8" d="m613.23734,202.2551H167.6641l1.11426-5.92432c2.85156-15.16162,9.46484-30.71191,19.125-44.97021,9.0791-13.42383,20.86719-25.77734,35.03418-36.71338,3.50098-2.70068,7.12207-5.29932,10.76465-7.72412,1.10645-.75391,2.34766-1.56982,3.64648-2.39648,11.34863-7.26904,24.8623-14.15527,39.06836-19.90625,18.50488-7.52295,38.23633-13.1792,58.63965-16.80811,17.54492-3.12988,35.7334-4.75098,54.05762-4.81738,18.77734-.06348,37.37109,1.50439,55.40137,4.66553,19.15039,3.34863,37.80957,8.5,55.45703,15.31006,14.16211,5.47363,27.24219,11.82129,38.87988,18.86719,2.80273,1.69678,5.49902,3.41016,8.01172,5.09277,3.10742,2.07422,6.08301,4.18262,8.83984,6.26318,15.04199,11.26074,27.53027,24.10254,37.10156,38.15723,9.78418,14.35645,16.46191,29.90918,19.31055,44.97559l1.12109,5.92871Zm-433.31152-10h421.03223c-3.08105-11.85938-8.69238-23.93994-16.41699-35.27393-8.94922-13.14209-20.67285-25.18408-34.84473-35.79395-2.62012-1.97607-5.4375-3.97217-8.38965-5.94385-2.39258-1.60156-4.95898-3.23242-7.63281-4.85107-11.13867-6.74365-23.68945-12.83105-37.30371-18.09375-17.03906-6.57471-35.06641-11.55078-53.5791-14.78809-17.45312-3.06006-35.49609-4.57812-53.64062-4.51562-17.74902.06445-35.3584,1.63281-52.33984,4.6626-19.7168,3.50684-38.77051,8.96729-56.63477,16.22949-13.64941,5.52588-26.5957,12.11865-37.44531,19.06836-1.17871.74951-2.32617,1.50146-3.44336,2.2627-3.49316,2.32568-6.92383,4.78711-10.23926,7.3457-13.32324,10.28369-24.37988,21.8584-32.86328,34.40234-7.63379,11.26709-13.19043,23.354-16.25879,35.28906Z"/>
                  <rect class="cls-7" x="165.90726" y="191.2551" width="450" height="12" rx="2" ry="2"/>
                </g>
                <g>
                  <path class="cls-6" d="m1259.05844,191.75133h-421.03003c3.07007-11.92999,8.63-24.02002,16.26001-35.29004,8.47998-12.53998,19.54004-24.10999,32.85999-34.39996,3.31995-2.56,6.75-5.02002,10.23999-7.34003,1.12-.76001,2.27002-1.52002,3.45007-2.27002,10.84985-6.94995,23.78992-13.53998,37.43994-19.06,17.87-7.26996,36.91992-12.72998,56.64001-16.22998,16.97998-3.02997,34.58997-4.59998,52.33997-4.66998,4.97998-.02002,9.94995.08997,14.90002.31,9.40002.41998,18.72998,1.26001,27.93005,2.52997,3.61987.49005,7.22998,1.05005,10.80981,1.67999,3.27002.57001,6.53003,1.20001,9.77002,1.88,12.84009,2.70001,25.41016,6.23004,37.51001,10.57001,2.12012.75,4.21997,1.54004,6.30005,2.34003,13.61011,5.26001,26.16016,11.34998,37.30005,18.08997,2.66992,1.62,5.23999,3.25,7.63013,4.85004,2.94995,1.96997,5.76978,3.96997,8.38989,5.95001,14.16992,10.60999,25.8999,22.64996,34.84985,35.78998,7.72021,11.33002,13.33008,23.40997,16.41016,35.27002Z"/>
                  <path class="cls-13" d="m1090.63573,76.33129l-116.42004,116.42004h-30.46008l118.95007-118.95001c9.40002.41998,18.72998,1.26001,27.93005,2.52997Z"/>
                  <path class="cls-13" d="m1148.72558,90.46129l-102.28992,102.29004h-48.07996l112.85986-112.86005c12.84009,2.70001,25.41016,6.23004,37.51001,10.57001Z"/>
                  <path d="m1246.85836,151.66526h-33.48047v-34.47998h-5v34.47998h-49.51953v-38.08008h43.41016v-5h-43.41016v-20.9502h-5v20.9502h-49.52051v-36h-5v36h-49.51562v-40.5874h-5v40.5874h-48.2041v-35.8501h-5v35.8501h-52.63965v-19.33008h-5v19.33008h-39.32031v5h39.32031v38.08008h-47.2998v-33.06006h-5v33.06006h-31.4502v5h31.4502v40.58984h5v-40.58984h47.2998v40.58984h5v-40.58984h52.63965v40.58984h5v-40.58984h48.2041v40.59033h5v-40.59033h49.51562v40.58984h5v-40.58984h49.52051v40.58984h5v-40.58984h49.51953v40.58984h5v-40.58984h33.48047v-5Zm-307.87988,0v-38.08008h52.63965v38.08008h-52.63965Zm57.63965,0v-38.08008h48.2041v38.08008h-48.2041Zm53.2041,0v-38.08008h49.51562v38.08008h-49.51562Zm54.51562,0v-38.08008h49.52051v38.08008h-49.52051Z"/>
                  <path class="cls-12" d="m1246.85836,151.66526h-33.48047v-34.47998h-5v34.47998h-49.51953v-38.08008h43.41016v-5h-43.41016v-20.9502h-5v20.9502h-49.52051v-36h-5v36h-49.51562v-40.5874h-5v40.5874h-48.2041v-35.8501h-5v35.8501h-52.63965v-19.33008h-5v19.33008h-39.32031v5h39.32031v38.08008h-47.2998v-33.06006h-5v33.06006h-31.4502v5h31.4502v40.58984h5v-40.58984h47.2998v40.58984h5v-40.58984h52.63965v40.58984h5v-40.58984h48.2041v40.59033h5v-40.59033h49.51562v40.58984h5v-40.58984h49.52051v40.58984h5v-40.58984h49.51953v40.58984h5v-40.58984h33.48047v-5Zm-307.87988,0v-38.08008h52.63965v38.08008h-52.63965Zm57.63965,0v-38.08008h48.2041v38.08008h-48.2041Zm53.2041,0v-38.08008h49.51562v38.08008h-49.51562Zm54.51562,0v-38.08008h49.52051v38.08008h-49.52051Z"/>
                  <path class="cls-8" d="m1271.42282,202.2551h-445.57324l1.11426-5.92432c2.85156-15.16162,9.46484-30.71191,19.125-44.97021,9.0791-13.42383,20.86719-25.77734,35.03418-36.71338,3.50098-2.70068,7.12207-5.29932,10.76465-7.72412,1.10645-.75391,2.34766-1.56982,3.64648-2.39648,11.34863-7.26904,24.8623-14.15527,39.06836-19.90625,18.50488-7.52295,38.23633-13.1792,58.63965-16.80811,17.54492-3.12988,35.7334-4.75098,54.05762-4.81738,18.77734-.06348,37.37109,1.50439,55.40137,4.66553,19.15039,3.34863,37.80957,8.5,55.45703,15.31006,14.16211,5.47363,27.24219,11.82129,38.87988,18.86719,2.80273,1.69678,5.49902,3.41016,8.01172,5.09277,3.10742,2.07422,6.08301,4.18262,8.83984,6.26318,15.04199,11.26074,27.53027,24.10254,37.10156,38.15723,9.78418,14.35645,16.46191,29.90918,19.31055,44.97559l1.12109,5.92871Zm-433.31152-10h421.03223c-3.08105-11.85938-8.69238-23.93994-16.41699-35.27393-8.94922-13.14209-20.67285-25.18408-34.84473-35.79395-2.62012-1.97607-5.4375-3.97217-8.38965-5.94385-2.39258-1.60156-4.95898-3.23242-7.63281-4.85107-11.13867-6.74365-23.68945-12.83105-37.30371-18.09375-17.03906-6.57471-35.06641-11.55078-53.5791-14.78809-17.45312-3.06006-35.49609-4.57812-53.64062-4.51562-17.74902.06445-35.3584,1.63281-52.33984,4.6626-19.7168,3.50684-38.77051,8.96729-56.63477,16.22949-13.64941,5.52588-26.5957,12.11865-37.44531,19.06836-1.17871.74951-2.32617,1.50146-3.44336,2.2627-3.49316,2.32568-6.92383,4.78711-10.23926,7.3457-13.32324,10.28369-24.37988,21.8584-32.86328,34.40234-7.63379,11.26709-13.19043,23.354-16.25879,35.28906Z"/>
                  <rect class="cls-7" x="824.09274" y="191.2551" width="450" height="12" rx="2" ry="2"/>
                </g>
              </g>
              <g>
                <g>
                  <rect class="cls-4" x="715.99903" width="8" height="78.84664"/>
                  <rect class="cls-7" x="702.86735" y="78.84664" width="34.26336" height="24.6632" rx="2" ry="2"/>
                  <rect class="cls-11" x="702.86735" y="78.84664" width="34.26336" height="24.6632" rx="2" ry="2"/>
                  <circle class="cls-3" cx="719.99903" cy="145.30003" r="17.13168"/>
                  <circle class="cls-2" cx="719.99903" cy="145.30003" r="12.97826"/>
                  <path class="cls-5" d="m783.4352,145.29579h-126.88c-1.73999,0-2.65002-2.08002-1.46008-3.35999l6.19006-6.64001,9.31995-10,23.51001-25.22003c.37012-.40997.90015-.63995,1.46008-.63995h48.84998c.55005,0,1.08008.22998,1.45996.63995l23.51001,25.22003,9.32007,10,6.18994,6.64001c1.18994,1.27997.28003,3.35999-1.46997,3.35999Z"/>
                  <polygon class="cls-7" points="778.71523 135.29579 661.28517 135.29579 670.60512 125.29579 769.39516 125.29579 778.71523 135.29579"/>
                  <line class="cls-10" x1="707.02077" y1="83.37045" x2="732.97729" y2="83.37045"/>
                  <line class="cls-10" x1="707.02077" y1="89.20722" x2="732.97729" y2="89.20722"/>
                  <line class="cls-10" x1="707.02077" y1="95.04399" x2="732.97729" y2="95.04399"/>
                  <path class="cls-11" d="m744.42457,99.435h-48.85107c-.5549,0-1.08486.23054-1.46317.6365l-39.01337,41.86505c-1.19172,1.27882-.28485,3.3635,1.46317,3.3635h126.87781c1.74802,0,2.65488-2.08468,1.46317-3.3635l-39.01337-41.86505c-.37831-.40596-.90827-.6365-1.46317-.6365Z"/>
                  <polyline class="cls-11" points="723.99903 0 723.99903 78.84664 715.99903 78.84664 715.99903 0"/>
                </g>
                <g>
                  <rect class="cls-4" x="1075.99903" width="8" height="78.84664"/>
                  <rect class="cls-7" x="1062.86735" y="78.84664" width="34.26336" height="24.6632" rx="2" ry="2"/>
                  <rect class="cls-11" x="1062.86735" y="78.84664" width="34.26336" height="24.6632" rx="2" ry="2"/>
                  <circle class="cls-3" cx="1079.99903" cy="145.30003" r="17.13168"/>
                  <circle class="cls-2" cx="1079.99903" cy="145.30003" r="12.97826"/>
                  <path class="cls-5" d="m1143.4352,145.29579h-126.88c-1.73999,0-2.65002-2.08002-1.46008-3.35999l6.19006-6.64001,9.31995-10,23.51001-25.22003c.37012-.40997.90015-.63995,1.46008-.63995h48.84998c.55005,0,1.08008.22998,1.45996.63995l23.51001,25.22003,9.32007,10,6.18994,6.64001c1.18994,1.27997.28003,3.35999-1.46997,3.35999Z"/>
                  <polygon class="cls-7" points="1138.71523 135.29579 1021.28517 135.29579 1030.60512 125.29579 1129.39516 125.29579 1138.71523 135.29579"/>
                  <line class="cls-10" x1="1067.02077" y1="83.37045" x2="1092.97729" y2="83.37045"/>
                  <line class="cls-10" x1="1067.02077" y1="89.20722" x2="1092.97729" y2="89.20722"/>
                  <line class="cls-10" x1="1067.02077" y1="95.04399" x2="1092.97729" y2="95.04399"/>
                  <path class="cls-11" d="m1104.42457,99.435h-48.85107c-.5549,0-1.08486.23054-1.46317.6365l-39.01337,41.86505c-1.19172,1.27882-.28485,3.3635,1.46317,3.3635h126.87781c1.74802,0,2.65488-2.08468,1.46317-3.3635l-39.01337-41.86505c-.37831-.40596-.90827-.6365-1.46317-.6365Z"/>
                  <polyline class="cls-11" points="1083.99903 0 1083.99903 78.84664 1075.99903 78.84664 1075.99903 0"/>
                </g>
                <g>
                  <rect class="cls-4" x="355.99903" width="8" height="78.84664"/>
                  <rect class="cls-7" x="342.86735" y="78.84664" width="34.26336" height="24.6632" rx="2" ry="2"/>
                  <rect class="cls-11" x="342.86735" y="78.84664" width="34.26336" height="24.6632" rx="2" ry="2"/>
                  <circle class="cls-3" cx="359.99903" cy="145.30003" r="17.13168"/>
                  <circle class="cls-2" cx="359.99903" cy="145.30003" r="12.97826"/>
                  <path class="cls-5" d="m423.4352,145.29579h-126.88c-1.73999,0-2.65002-2.08002-1.46008-3.35999l6.19006-6.64001,9.31995-10,23.51001-25.22003c.37012-.40997.90015-.63995,1.46008-.63995h48.84998c.55005,0,1.08008.22998,1.45996.63995l23.51001,25.22003,9.32007,10,6.18994,6.64001c1.18994,1.27997.28003,3.35999-1.46997,3.35999Z"/>
                  <polygon class="cls-7" points="418.71523 135.29579 301.28517 135.29579 310.60512 125.29579 409.39516 125.29579 418.71523 135.29579"/>
                  <line class="cls-10" x1="347.02077" y1="83.37045" x2="372.97729" y2="83.37045"/>
                  <line class="cls-10" x1="347.02077" y1="89.20722" x2="372.97729" y2="89.20722"/>
                  <line class="cls-10" x1="347.02077" y1="95.04399" x2="372.97729" y2="95.04399"/>
                  <path class="cls-11" d="m384.42457,99.435h-48.85107c-.5549,0-1.08486.23054-1.46317.6365l-39.01337,41.86505c-1.19172,1.27882-.28485,3.3635,1.46317,3.3635h126.87781c1.74802,0,2.65488-2.08468,1.46317-3.3635l-39.01337-41.86505c-.37831-.40596-.90827-.6365-1.46317-.6365Z"/>
                  <polyline class="cls-11" points="363.99903 0 363.99903 78.84664 355.99903 78.84664 355.99903 0"/>
                </g>
              </g>
            </g>
          </g>
          <g>
            <rect class="cls-1" width="1440" height="563.82739"/>
            <g>
              <path class="cls-19" d="m719.99903,214.23496c38.07406,0,68.93917-30.86511,68.93917-68.93917h-137.87834c0,38.07406,30.86511,68.93917,68.93917,68.93917Z"/>
              <path class="cls-15" d="m360.0002,214.23496c38.07406,0,68.93917-30.86511,68.93917-68.93917h-137.87834c0,38.07406,30.86511,68.93917,68.93917,68.93917Z"/>
              <path class="cls-14" d="m1080.0002,214.23496c38.07406,0,68.93917-30.86511,68.93917-68.93917h-137.87834c0,38.07406,30.86511,68.93917,68.93917,68.93917Z"/>
            </g>
          </g>
          <line class="cls-11" x1="0" y1="563.87151" x2="1440" y2="563.87151"/>
        </g>
      </g>
    </g>
  </g>
</svg>