<?xml version="1.0" encoding="UTF-8"?>
<svg id="Layer_2" data-name="Layer 2" xmlns="http://www.w3.org/2000/svg" viewBox="0 0 257.531 84.09607">
  <defs>
    <style>
      .cls-1 {
        opacity: 0;
      }

      .cls-1, .cls-2 {
        fill: #5d3e1f;
      }

      .cls-1, .cls-3 {
        stroke: #000;
      }

      .cls-1, .cls-3, .cls-4 {
        stroke-width: .75px;
      }

      .cls-1, .cls-3, .cls-4, .cls-5 {
        stroke-miterlimit: 10;
      }

      .cls-6 {
        fill: #6e502c;
      }

      .cls-7 {
        fill: #482f1c;
      }

      .cls-8 {
        fill: #7c603b;
      }

      .cls-3, .cls-4, .cls-5 {
        fill: none;
      }

      .cls-4 {
        stroke: #482f1c;
      }

      .cls-5 {
        stroke: #5d3e1f;
      }
    </style>
  </defs>
  <g id="colors">
    <g>
      <g>
        <g>
          <rect class="cls-2" x="10.46218" y="7.18788" width="235" height="70"/>
          <polygon class="cls-8" points="10.46218 7.18788 15.46218 12.18788 136.71297 31.50616 240.46218 12.18788 245.46218 7.18788 10.46218 7.18788"/>
          <polygon class="cls-7" points="10.46218 77.18788 15.46218 72.18788 150.69524 47.71669 240.46218 72.18788 245.46218 77.18788 10.46218 77.18788"/>
          <rect class="cls-6" x="15.46218" y="12.18788" width="225" height="60"/>
          <rect class="cls-4" x="15.46218" y="12.18788" width="225" height="60"/>
          <rect class="cls-3" x="10.46218" y="7.18788" width="235" height="70"/>
          <rect class="cls-5" x="22.96218" y="19.68788" width="210" height="45"/>
        </g>
        <g>
          <polygon class="cls-1" points="228.41035 .49382 224.84056 5.89988 228.38956 10.08721 236.3076 8.71275 235.52306 4.35976 228.41035 .49382"/>
          <polygon class="cls-1" points="255.53564 5.48464 249.34983 7.38748 248.96094 12.08276 254.09864 15.40726 257.1217 10.49739 255.53564 5.48464"/>
          <polygon class="cls-1" points="244.11705 19.34752 241.9731 24.91912 243.86108 28.69356 249.71212 28.69356 249.5721 22.8968 244.11705 19.34752"/>
          <polygon class="cls-1" points="21.06137 73.66751 18.20464 79.6984 20.77767 83.64437 27.46258 81.28547 28.09741 75.88941 21.06137 73.66751"/>
          <polygon class="cls-1" points="11.85841 54.92284 6.08088 57.83922 5.82545 62.02895 11.87741 63.52162 14.26516 59.59732 11.85841 54.92284"/>
          <polygon class="cls-1" points="8.24541 72.24368 4.53749 68.66914 .41636 69.57859 1.22382 75.75837 5.30551 78.87097 8.24541 72.24368"/>
        </g>
      </g>
      <g>
        <path class="cls-7" d="m57.08983,44.50074c-5.34375-.76758-7.80762-3.13574-7.80762-7.55078,0-4.76758,3.3916-8,8.41602-8,5.24707,0,8.25488,2.97656,8.38281,8.25586h-5.43945c-.12793-2.30469-.99219-3.26367-2.94336-3.26367-1.76074,0-2.97656,1.11914-2.97656,2.75195,0,1.72656.7998,2.27148,3.96777,2.71875,5.53613.76855,8,3.10352,8,7.67969,0,5.05566-3.23242,8.0957-8.57617,8.0957-5.9834,0-8.99121-2.81641-9.15137-8.76758h5.44043c.06348,2.87988,1.15137,4.03125,3.71094,4.03125,1.85645,0,3.13574-1.15137,3.13574-2.81445,0-2.04883-.83105-2.68848-4.15918-3.13672Z"/>
        <path class="cls-7" d="m69.37792,44.02027v-5.18359c0-6.0791,3.64844-9.88672,9.43945-9.88672,5.82422,0,8.99121,3.04004,9.37598,9.15137h-5.44043c-.35156-2.87988-1.34375-3.96777-3.96777-3.96777-2.52734,0-3.96777,1.66406-3.96777,4.70312v5.4082c0,3.04004,1.44043,4.73633,3.96777,4.73633,2.81641,0,3.71191-1.24805,3.96777-4.22461h5.44043c-.38477,6.14453-3.64844,9.15234-9.47168,9.15234-5.75977,0-9.34375-3.80859-9.34375-9.88867Z"/>
        <path class="cls-7" d="m109.40819,28.94995v24.31836h-5.43945v-9.15137h-6.97559v9.15137h-5.43945v-24.31836h5.43945v10.23926h6.97559v-10.23926h5.43945Z"/>
        <path class="cls-7" d="m119.10545,34.13355v5.79102h8.41602v4.92773h-8.41602v5.4082h9.63184v4.92773h-15.07129v-26.23828h15.07129v5.18359h-9.63184Z"/>
        <path class="cls-7" d="m150.68846,40.9812v4.0957c0,6.5918-3.42383,10.11133-9.8877,10.11133h-8.60742v-24.31836h8.60742c6.46387,0,9.8877,3.51953,9.8877,10.11133Zm-5.43945,0c0-3.19922-1.56836-4.92773-4.44824-4.92773h-3.16797v14.20703h3.16797c2.87988,0,4.44824-1.72852,4.44824-4.95898v-4.32031Z"/>
        <path class="cls-7" d="m154.04979,44.08472v-13.21484h5.43945v13.4707c0,2.65625,1.12012,4,3.32715,4,2.20801,0,3.2959-1.34375,3.2959-4v-13.4707h5.43945v13.21484c0,5.82422-3.16699,9.18359-8.73535,9.18359-5.59961,0-8.7666-3.35938-8.7666-9.18359Z"/>
        <path class="cls-7" d="m190.04881,48.34058v4.92773h-14.39941v-24.31836h5.43945v19.39062h8.95996Z"/>
        <path class="cls-7" d="m198.94432,34.13355v5.79102h8.41602v4.92773h-8.41602v5.4082h9.63184v4.92773h-15.07129v-26.23828h15.07129v5.18359h-9.63184Z"/>
      </g>
    </g>
  </g>
</svg>