<?xml version="1.0" encoding="UTF-8"?>
<svg id="Layer_2" data-name="Layer 2" xmlns="http://www.w3.org/2000/svg" viewBox="0 0 237 72">
  <defs>
    <style>
      .cls-1 {
        fill: #6e502c;
      }

      .cls-2 {
        fill: #5d3e1f;
      }

      .cls-3 {
        fill: #482f1c;
      }

      .cls-4 {
        fill: #2d1e12;
      }

      .cls-5 {
        fill: #7c603b;
      }

      .cls-6 {
        stroke: #482f1c;
        stroke-width: .75px;
      }

      .cls-6, .cls-7 {
        stroke-miterlimit: 10;
      }

      .cls-6, .cls-7, .cls-8 {
        fill: none;
      }

      .cls-7 {
        stroke: #5d3e1f;
      }

      .cls-8 {
        stroke: #000;
        stroke-linejoin: round;
        stroke-width: 2px;
      }
    </style>
  </defs>
  <g id="colors">
    <g>
      <g>
        <rect class="cls-2" x="1" y="1" width="235" height="70"/>
        <polygon class="cls-5" points="1 1 6 6 127.25079 25.31827 231 6 236 1 1 1"/>
        <polygon class="cls-3" points="1 71 6 66 141.23306 41.5288 231 66 236 71 1 71"/>
        <rect class="cls-1" x="6" y="6" width="225" height="60"/>
        <rect class="cls-6" x="6" y="6" width="225" height="60"/>
        <rect class="cls-8" x="1" y="1" width="235" height="70"/>
        <rect class="cls-7" x="13.5" y="13.5" width="210" height="45"/>
      </g>
      <g>
        <path class="cls-4" d="m46.8208,38.43164c-5.34375-.76758-7.80762-3.13574-7.80762-7.55078,0-4.76758,3.3916-8,8.41602-8,5.24707,0,8.25488,2.97656,8.38281,8.25586h-5.43945c-.12793-2.30469-.99219-3.26367-2.94336-3.26367-1.76074,0-2.97656,1.11914-2.97656,2.75195,0,1.72656.7998,2.27148,3.96777,2.71875,5.53613.76855,8,3.10352,8,7.67969,0,5.05566-3.23242,8.0957-8.57617,8.0957-5.9834,0-8.99121-2.81641-9.15137-8.76758h5.44043c.06348,2.87988,1.15137,4.03125,3.71094,4.03125,1.85645,0,3.13574-1.15137,3.13574-2.81445,0-2.04883-.83105-2.68848-4.15918-3.13672Z"/>
        <path class="cls-4" d="m59.10889,37.95117v-5.18359c0-6.0791,3.64844-9.88672,9.43945-9.88672,5.82422,0,8.99121,3.04004,9.37598,9.15137h-5.44043c-.35156-2.87988-1.34375-3.96777-3.96777-3.96777-2.52734,0-3.96777,1.66406-3.96777,4.70312v5.4082c0,3.04004,1.44043,4.73633,3.96777,4.73633,2.81641,0,3.71191-1.24805,3.96777-4.22461h5.44043c-.38477,6.14453-3.64844,9.15234-9.47168,9.15234-5.75977,0-9.34375-3.80859-9.34375-9.88867Z"/>
        <path class="cls-4" d="m99.13916,22.88086v24.31836h-5.43945v-9.15137h-6.97559v9.15137h-5.43945v-24.31836h5.43945v10.23926h6.97559v-10.23926h5.43945Z"/>
        <path class="cls-4" d="m108.83643,28.06445v5.79102h8.41602v4.92773h-8.41602v5.4082h9.63184v4.92773h-15.07129v-26.23828h15.07129v5.18359h-9.63184Z"/>
        <path class="cls-4" d="m140.41943,34.91211v4.0957c0,6.5918-3.42383,10.11133-9.8877,10.11133h-8.60742v-24.31836h8.60742c6.46387,0,9.8877,3.51953,9.8877,10.11133Zm-5.43945,0c0-3.19922-1.56836-4.92773-4.44824-4.92773h-3.16797v14.20703h3.16797c2.87988,0,4.44824-1.72852,4.44824-4.95898v-4.32031Z"/>
        <path class="cls-4" d="m143.78076,38.01562v-13.21484h5.43945v13.4707c0,2.65625,1.12012,4,3.32715,4,2.20801,0,3.2959-1.34375,3.2959-4v-13.4707h5.43945v13.21484c0,5.82422-3.16699,9.18359-8.73535,9.18359-5.59961,0-8.7666-3.35938-8.7666-9.18359Z"/>
        <path class="cls-4" d="m179.77979,42.27148v4.92773h-14.39941v-24.31836h5.43945v19.39062h8.95996Z"/>
        <path class="cls-4" d="m188.67529,28.06445v5.79102h8.41602v4.92773h-8.41602v5.4082h9.63184v4.92773h-15.07129v-26.23828h15.07129v5.18359h-9.63184Z"/>
      </g>
    </g>
  </g>
</svg>