<?xml version="1.0" encoding="UTF-8"?>
<svg xmlns="http://www.w3.org/2000/svg" xmlns:xlink="http://www.w3.org/1999/xlink" viewBox="0 0 682.42246 111.49204">
  <defs>
    <style>
      .cls-1, .cls-2, .cls-3 {
        fill: none;
      }

      .cls-4 {
        fill: #f7db9d;
      }

      .cls-5 {
        fill: #fff;
      }

      .cls-6 {
        fill: #f2b9bb;
      }

      .cls-7 {
        fill: url(#radial-gradient-6);
      }

      .cls-7, .cls-8, .cls-9, .cls-10, .cls-11, .cls-12, .cls-13, .cls-14, .cls-15, .cls-16, .cls-17, .cls-18, .cls-19, .cls-20, .cls-21, .cls-22, .cls-23, .cls-24, .cls-25, .cls-26, .cls-27, .cls-28, .cls-29, .cls-30, .cls-31, .cls-32, .cls-33, .cls-34, .cls-35, .cls-36, .cls-37, .cls-38, .cls-39, .cls-40, .cls-41, .cls-42, .cls-43, .cls-44, .cls-45, .cls-46, .cls-47, .cls-48, .cls-49, .cls-50, .cls-51, .cls-52, .cls-53, .cls-54, .cls-55, .cls-56, .cls-57, .cls-58, .cls-59, .cls-60, .cls-61, .cls-62, .cls-63, .cls-64, .cls-65, .cls-66, .cls-67, .cls-68, .cls-69, .cls-70, .cls-71, .cls-72, .cls-73, .cls-74, .cls-75, .cls-76, .cls-77, .cls-78, .cls-79, .cls-80, .cls-81, .cls-82, .cls-83, .cls-84, .cls-85, .cls-86, .cls-87, .cls-88, .cls-89, .cls-90, .cls-91, .cls-92, .cls-93, .cls-94, .cls-95, .cls-96, .cls-97, .cls-2 {
        mix-blend-mode: screen;
      }

      .cls-7, .cls-86, .cls-87, .cls-88, .cls-89, .cls-90, .cls-91 {
        opacity: .15;
      }

      .cls-8 {
        fill: url(#radial-gradient-13);
      }

      .cls-9 {
        fill: url(#radial-gradient-14);
      }

      .cls-10 {
        fill: url(#radial-gradient-12);
      }

      .cls-11 {
        fill: url(#radial-gradient-56);
      }

      .cls-12 {
        fill: url(#radial-gradient-25);
      }

      .cls-13 {
        fill: url(#radial-gradient-59);
      }

      .cls-14 {
        fill: url(#radial-gradient-54);
      }

      .cls-15 {
        fill: url(#radial-gradient-53);
      }

      .cls-16 {
        fill: url(#radial-gradient-52);
      }

      .cls-17 {
        fill: url(#radial-gradient-24);
      }

      .cls-18 {
        fill: url(#radial-gradient-28);
      }

      .cls-19 {
        fill: url(#radial-gradient-36);
      }

      .cls-20 {
        fill: url(#radial-gradient-39);
      }

      .cls-21 {
        fill: url(#radial-gradient-22);
      }

      .cls-22 {
        fill: url(#radial-gradient-27);
      }

      .cls-23 {
        fill: url(#radial-gradient-26);
      }

      .cls-24 {
        fill: url(#radial-gradient-32);
      }

      .cls-25 {
        fill: url(#radial-gradient-31);
      }

      .cls-26 {
        fill: url(#radial-gradient-38);
      }

      .cls-27 {
        fill: url(#radial-gradient-40);
      }

      .cls-28 {
        fill: url(#radial-gradient-45);
      }

      .cls-29 {
        fill: url(#radial-gradient-46);
      }

      .cls-30 {
        fill: url(#radial-gradient-17);
      }

      .cls-31 {
        fill: url(#radial-gradient-18);
      }

      .cls-32 {
        fill: url(#radial-gradient-11);
      }

      .cls-33 {
        fill: url(#radial-gradient-10);
      }

      .cls-34 {
        fill: url(#radial-gradient-50);
      }

      .cls-35 {
        fill: url(#radial-gradient-55);
      }

      .cls-36 {
        fill: url(#radial-gradient-41);
      }

      .cls-37 {
        fill: url(#radial-gradient-42);
      }

      .cls-38 {
        fill: url(#radial-gradient-60);
      }

      .cls-39 {
        fill: url(#radial-gradient-64);
      }

      .cls-40 {
        fill: url(#radial-gradient-66);
      }

      .cls-41 {
        fill: url(#radial-gradient-78);
      }

      .cls-42 {
        fill: url(#radial-gradient-98);
      }

      .cls-43 {
        fill: url(#radial-gradient-68);
      }

      .cls-44 {
        fill: url(#radial-gradient-67);
      }

      .cls-45 {
        fill: url(#radial-gradient-69);
      }

      .cls-46 {
        fill: url(#radial-gradient-95);
      }

      .cls-47 {
        fill: url(#radial-gradient-96);
      }

      .cls-48 {
        fill: url(#radial-gradient-97);
      }

      .cls-49 {
        fill: url(#radial-gradient-92);
      }

      .cls-50 {
        fill: url(#radial-gradient-94);
      }

      .cls-51 {
        fill: url(#radial-gradient-81);
      }

      .cls-52 {
        fill: url(#radial-gradient-74);
      }

      .cls-53 {
        fill: url(#radial-gradient-73);
      }

      .cls-54 {
        fill: url(#radial-gradient-70);
      }

      .cls-55 {
        fill: url(#radial-gradient-82);
      }

      .cls-56 {
        fill: url(#radial-gradient-80);
      }

      .cls-57 {
        fill: url(#radial-gradient-88);
      }

      .cls-58 {
        fill: url(#radial-gradient-83);
      }

      .cls-59 {
        fill: url(#radial-gradient-84);
      }

      .cls-60 {
        fill: url(#radial-gradient-87);
      }

      .cls-98 {
        fill: url(#radial-gradient-43);
      }

      .cls-98, .cls-99, .cls-100, .cls-101, .cls-102, .cls-103, .cls-104 {
        opacity: .21;
      }

      .cls-99 {
        fill: url(#radial-gradient-29);
      }

      .cls-100 {
        fill: url(#radial-gradient-15);
      }

      .cls-101 {
        fill: url(#radial-gradient-57);
      }

      .cls-102 {
        fill: url(#radial-gradient-85);
      }

      .cls-103 {
        fill: url(#radial-gradient-71);
      }

      .cls-61 {
        fill: url(#radial-gradient-3);
      }

      .cls-62 {
        fill: url(#radial-gradient-4);
      }

      .cls-63 {
        fill: url(#radial-gradient-8);
      }

      .cls-64 {
        fill: url(#radial-gradient-9);
      }

      .cls-64, .cls-65, .cls-74, .cls-75, .cls-76, .cls-77, .cls-78, .cls-79, .cls-80, .cls-81, .cls-82, .cls-83, .cls-84, .cls-85 {
        opacity: .5;
      }

      .cls-65 {
        fill: url(#radial-gradient-7);
      }

      .cls-66 {
        fill: url(#radial-gradient-5);
      }

      .cls-66, .cls-92, .cls-93, .cls-94, .cls-95, .cls-96, .cls-97 {
        opacity: .2;
      }

      .cls-67 {
        fill: url(#radial-gradient-2);
      }

      .cls-67, .cls-68, .cls-69, .cls-70, .cls-71, .cls-72, .cls-73 {
        opacity: .25;
      }

      .cls-68 {
        fill: url(#radial-gradient-72);
      }

      .cls-69 {
        fill: url(#radial-gradient-86);
      }

      .cls-70 {
        fill: url(#radial-gradient-30);
      }

      .cls-71 {
        fill: url(#radial-gradient-16);
      }

      .cls-72 {
        fill: url(#radial-gradient-44);
      }

      .cls-73 {
        fill: url(#radial-gradient-58);
      }

      .cls-74 {
        fill: url(#radial-gradient-91);
      }

      .cls-75 {
        fill: url(#radial-gradient-93);
      }

      .cls-76 {
        fill: url(#radial-gradient-79);
      }

      .cls-77 {
        fill: url(#radial-gradient-65);
      }

      .cls-78 {
        fill: url(#radial-gradient-63);
      }

      .cls-79 {
        fill: url(#radial-gradient-77);
      }

      .cls-80 {
        fill: url(#radial-gradient-51);
      }

      .cls-81 {
        fill: url(#radial-gradient-35);
      }

      .cls-82 {
        fill: url(#radial-gradient-37);
      }

      .cls-83 {
        fill: url(#radial-gradient-23);
      }

      .cls-84 {
        fill: url(#radial-gradient-49);
      }

      .cls-85 {
        fill: url(#radial-gradient-21);
      }

      .cls-105 {
        fill: #efc5c8;
      }

      .cls-105, .cls-106, .cls-107, .cls-2, .cls-3 {
        stroke-miterlimit: 10;
      }

      .cls-105, .cls-107 {
        stroke: #c23226;
      }

      .cls-106 {
        fill: #ebd266;
      }

      .cls-106, .cls-3 {
        stroke: #000;
      }

      .cls-107 {
        fill: #f5eabb;
      }

      .cls-86 {
        fill: url(#radial-gradient-34);
      }

      .cls-87 {
        fill: url(#radial-gradient-48);
      }

      .cls-88 {
        fill: url(#radial-gradient-20);
      }

      .cls-89 {
        fill: url(#radial-gradient-62);
      }

      .cls-90 {
        fill: url(#radial-gradient-90);
      }

      .cls-91 {
        fill: url(#radial-gradient-76);
      }

      .cls-92 {
        fill: url(#radial-gradient-89);
      }

      .cls-93 {
        fill: url(#radial-gradient-19);
      }

      .cls-94 {
        fill: url(#radial-gradient-33);
      }

      .cls-95 {
        fill: url(#radial-gradient-47);
      }

      .cls-96 {
        fill: url(#radial-gradient-61);
      }

      .cls-97 {
        fill: url(#radial-gradient-75);
      }

      .cls-2 {
        opacity: .03;
        stroke: #fff;
      }

      .cls-2, .cls-3 {
        stroke-width: 2px;
      }

      .cls-108 {
        isolation: isolate;
      }

      .cls-104 {
        fill: url(#radial-gradient);
      }
    </style>
    <radialGradient id="radial-gradient" cx="31.91965" cy="79.72773" fx="31.91965" fy="79.72773" r="23.31646" gradientUnits="userSpaceOnUse">
      <stop offset="0" stop-color="#ddc040"/>
      <stop offset=".28212" stop-color="#d99f38"/>
      <stop offset=".65363" stop-color="#ec7b30"/>
      <stop offset=".74246" stop-color="#e2792e"/>
      <stop offset=".88961" stop-color="#c9762a"/>
      <stop offset="1" stop-color="#b27327"/>
    </radialGradient>
    <radialGradient id="radial-gradient-2" cx="1194.62973" cy="-304.56871" fx="1194.62973" fy="-304.56871" r="9.01278" gradientTransform="translate(-1185.45196 -108.52374) rotate(23.00232)" gradientUnits="userSpaceOnUse">
      <stop offset=".1" stop-color="#000"/>
      <stop offset=".14305" stop-color="#151208"/>
      <stop offset=".20074" stop-color="#2b2510"/>
      <stop offset=".26894" stop-color="#3c3317"/>
      <stop offset=".35324" stop-color="#483d1b"/>
      <stop offset=".47156" stop-color="#4f431e"/>
      <stop offset=".8" stop-color="#51451f"/>
      <stop offset="1" stop-color="#000"/>
    </radialGradient>
    <radialGradient id="radial-gradient-3" cx="1211.4697" cy="-321.40869" fx="1211.4697" fy="-321.40869" r=".30043" gradientTransform="translate(-1185.45196 -108.52374) rotate(23.00232)" gradientUnits="userSpaceOnUse">
      <stop offset="0" stop-color="#ccdd9b"/>
      <stop offset=".05404" stop-color="#abb982"/>
      <stop offset=".13147" stop-color="#838e64"/>
      <stop offset=".21499" stop-color="#606849"/>
      <stop offset=".3036" stop-color="#424732"/>
      <stop offset=".39867" stop-color="#2a2d1f"/>
      <stop offset=".5027" stop-color="#171911"/>
      <stop offset=".62031" stop-color="#0a0a07"/>
      <stop offset=".76293" stop-color="#020201"/>
      <stop offset="1" stop-color="#000"/>
    </radialGradient>
    <radialGradient id="radial-gradient-4" cx="1212.3325" cy="-322.27148" fx="1212.3325" fy="-322.27148" r=".30043" xlink:href="#radial-gradient-3"/>
    <radialGradient id="radial-gradient-5" cx="1211.62439" cy="-321.56337" fx="1211.62439" fy="-321.56337" r="2.2532" gradientTransform="translate(-1185.45196 -108.52374) rotate(23.00232)" gradientUnits="userSpaceOnUse">
      <stop offset=".05" stop-color="#000"/>
      <stop offset=".08419" stop-color="#040703"/>
      <stop offset=".29237" stop-color="#1b3218"/>
      <stop offset=".48007" stop-color="#2c5127"/>
      <stop offset=".63895" stop-color="#376430"/>
      <stop offset=".75" stop-color="#3b6b34"/>
      <stop offset=".77052" stop-color="#486b2f"/>
      <stop offset=".82857" stop-color="#6a6b23"/>
      <stop offset=".86" stop-color="#786c1f"/>
      <stop offset=".88825" stop-color="#74681e"/>
      <stop offset=".91346" stop-color="#695f1b"/>
      <stop offset=".93752" stop-color="#574e16"/>
      <stop offset=".96085" stop-color="#3d370f"/>
      <stop offset=".98346" stop-color="#1d1a07"/>
      <stop offset="1" stop-color="#000"/>
    </radialGradient>
    <radialGradient id="radial-gradient-6" cx="1198.17028" cy="-308.10927" fx="1198.17028" fy="-308.10927" r="6.00852" gradientTransform="translate(-1185.45196 -108.52374) rotate(23.00232)" gradientUnits="userSpaceOnUse">
      <stop offset="0" stop-color="#1f0201"/>
      <stop offset=".73" stop-color="#874830"/>
      <stop offset="1" stop-color="#1f0201"/>
    </radialGradient>
    <radialGradient id="radial-gradient-7" cx="1198.17028" cy="-308.10927" fx="1198.17028" fy="-308.10927" r="3.00426" gradientTransform="translate(-1185.45196 -108.52374) rotate(23.00232)" gradientUnits="userSpaceOnUse">
      <stop offset=".15" stop-color="#fff"/>
      <stop offset=".20836" stop-color="#e0d3d4"/>
      <stop offset=".28976" stop-color="#b99d9e"/>
      <stop offset=".36012" stop-color="#9d7576"/>
      <stop offset=".41585" stop-color="#8c5c5e"/>
      <stop offset=".45" stop-color="#865456"/>
      <stop offset=".54069" stop-color="#673b3c"/>
      <stop offset=".67601" stop-color="#401c1c"/>
      <stop offset=".78387" stop-color="#270908"/>
      <stop offset=".85" stop-color="#1f0201"/>
      <stop offset=".85751" stop-color="#230402"/>
      <stop offset=".8653" stop-color="#2f0b07"/>
      <stop offset=".87321" stop-color="#44170f"/>
      <stop offset=".88121" stop-color="#61271a"/>
      <stop offset=".88928" stop-color="#863c29"/>
      <stop offset=".8973" stop-color="#b4563a"/>
      <stop offset=".9" stop-color="#c56041"/>
      <stop offset=".91204" stop-color="#98462f"/>
      <stop offset=".92436" stop-color="#733121"/>
      <stop offset=".93729" stop-color="#542015"/>
      <stop offset=".95076" stop-color="#3d130c"/>
      <stop offset=".96502" stop-color="#2c0906"/>
      <stop offset=".9806" stop-color="#220302"/>
      <stop offset="1" stop-color="#1f0201"/>
    </radialGradient>
    <radialGradient id="radial-gradient-8" cx="1198.17028" cy="-308.10927" fx="1198.17028" fy="-308.10927" r="2.50355" gradientTransform="translate(-1185.45196 -108.52374) rotate(23.00232)" gradientUnits="userSpaceOnUse">
      <stop offset=".15" stop-color="#fff"/>
      <stop offset=".28237" stop-color="#c2c2c2"/>
      <stop offset=".42528" stop-color="#878787"/>
      <stop offset=".5636" stop-color="#575757"/>
      <stop offset=".69361" stop-color="#313131"/>
      <stop offset=".81336" stop-color="#161616"/>
      <stop offset=".91921" stop-color="#050505"/>
      <stop offset="1" stop-color="#000"/>
    </radialGradient>
    <radialGradient id="radial-gradient-9" cx="1212.3325" cy="-322.27148" fx="1212.3325" fy="-322.27148" r="4.50639" gradientTransform="translate(-1185.45196 -108.52374) rotate(23.00232)" gradientUnits="userSpaceOnUse">
      <stop offset=".64" stop-color="#000"/>
      <stop offset=".71776" stop-color="#000100"/>
      <stop offset=".74576" stop-color="#030803"/>
      <stop offset=".76572" stop-color="#071407"/>
      <stop offset=".78186" stop-color="#0e250d"/>
      <stop offset=".79552" stop-color="#163b14"/>
      <stop offset=".8" stop-color="#1a4418"/>
      <stop offset=".8131" stop-color="#232d10"/>
      <stop offset=".82975" stop-color="#2c1608"/>
      <stop offset=".84569" stop-color="#320903"/>
      <stop offset=".86" stop-color="#340502"/>
      <stop offset=".8691" stop-color="#250301"/>
      <stop offset=".8839" stop-color="#140100"/>
      <stop offset=".90233" stop-color="#080000"/>
      <stop offset=".9282" stop-color="#010000"/>
      <stop offset="1" stop-color="#000"/>
    </radialGradient>
    <radialGradient id="radial-gradient-10" cx="1200.47374" cy="-310.41273" fx="1200.47374" fy="-310.41273" r=".32837" gradientTransform="translate(-1185.45196 -108.52374) rotate(23.00232)" gradientUnits="userSpaceOnUse">
      <stop offset=".1" stop-color="#000"/>
      <stop offset=".22957" stop-color="#0b170e"/>
      <stop offset=".41335" stop-color="#18311e"/>
      <stop offset=".60138" stop-color="#224429"/>
      <stop offset=".79436" stop-color="#285030"/>
      <stop offset="1" stop-color="#2a5433"/>
    </radialGradient>
    <radialGradient id="radial-gradient-11" cx="1207.60196" cy="-317.54095" fx="1207.60196" fy="-317.54095" r=".57331" gradientTransform="translate(-1185.45196 -108.52374) rotate(23.00232)" gradientUnits="userSpaceOnUse">
      <stop offset=".1" stop-color="#000"/>
      <stop offset=".1712" stop-color="#0b0805"/>
      <stop offset=".36892" stop-color="#251a10"/>
      <stop offset=".57117" stop-color="#382819"/>
      <stop offset=".7788" stop-color="#44301e"/>
      <stop offset="1" stop-color="#483320"/>
    </radialGradient>
    <radialGradient id="radial-gradient-12" cx="1203.74665" cy="-313.68564" fx="1203.74665" fy="-313.68564" r=".41644" gradientTransform="translate(-1185.45196 -108.52374) rotate(23.00232)" gradientUnits="userSpaceOnUse">
      <stop offset=".1" stop-color="#743125"/>
      <stop offset=".18234" stop-color="#5e281e"/>
      <stop offset=".33771" stop-color="#3c1913"/>
      <stop offset=".49645" stop-color="#220e0a"/>
      <stop offset=".65786" stop-color="#0f0604"/>
      <stop offset=".82355" stop-color="#030101"/>
      <stop offset="1" stop-color="#000"/>
    </radialGradient>
    <radialGradient id="radial-gradient-13" cx="1195.63408" cy="-305.57306" fx="1195.63408" fy="-305.57306" r="1.01986" gradientTransform="translate(-1185.45196 -108.52374) rotate(23.00232)" gradientUnits="userSpaceOnUse">
      <stop offset=".1" stop-color="#000"/>
      <stop offset=".2578" stop-color="#0c110d"/>
      <stop offset=".49509" stop-color="#1a231b"/>
      <stop offset=".73956" stop-color="#222f24"/>
      <stop offset="1" stop-color="#253327"/>
    </radialGradient>
    <radialGradient id="radial-gradient-14" cx="1206.10436" cy="-316.04334" fx="1206.10436" fy="-316.04334" r=".52265" xlink:href="#radial-gradient-13"/>
    <radialGradient id="radial-gradient-15" cx="-109.0418" cy="43.56544" fx="-109.0418" fy="43.56544" r="23.31646" gradientTransform="translate(247.54886 39.32414) rotate(25.34051)" xlink:href="#radial-gradient"/>
    <radialGradient id="radial-gradient-16" cx="1050.74518" cy="-282.77243" fx="1050.74518" fy="-282.77243" gradientTransform="translate(-777.39131 -566.12725) rotate(48.34282)" xlink:href="#radial-gradient-2"/>
    <radialGradient id="radial-gradient-17" cx="1067.58515" cy="-299.6124" fx="1067.58515" fy="-299.6124" r=".30043" gradientTransform="translate(-777.39131 -566.12725) rotate(48.34282)" xlink:href="#radial-gradient-3"/>
    <radialGradient id="radial-gradient-18" cx="1068.44795" cy="-300.4752" fx="1068.44795" fy="-300.4752" r=".30043" gradientTransform="translate(-777.39131 -566.12725) rotate(48.34282)" xlink:href="#radial-gradient-3"/>
    <radialGradient id="radial-gradient-19" cx="1067.73984" cy="-299.76709" fx="1067.73984" fy="-299.76709" gradientTransform="translate(-777.39131 -566.12725) rotate(48.34282)" xlink:href="#radial-gradient-5"/>
    <radialGradient id="radial-gradient-20" cx="1054.28573" cy="-286.31298" fx="1054.28573" fy="-286.31298" gradientTransform="translate(-777.39131 -566.12725) rotate(48.34282)" xlink:href="#radial-gradient-6"/>
    <radialGradient id="radial-gradient-21" cx="1054.28573" cy="-286.31298" fx="1054.28573" fy="-286.31298" gradientTransform="translate(-777.39131 -566.12725) rotate(48.34282)" xlink:href="#radial-gradient-7"/>
    <radialGradient id="radial-gradient-22" cx="1054.28573" cy="-286.31298" fx="1054.28573" fy="-286.31298" r="2.50355" gradientTransform="translate(-777.39131 -566.12725) rotate(48.34282)" xlink:href="#radial-gradient-8"/>
    <radialGradient id="radial-gradient-23" cx="1068.44795" cy="-300.4752" fx="1068.44795" fy="-300.4752" r="4.50639" gradientTransform="translate(-777.39131 -566.12725) rotate(48.34282)" xlink:href="#radial-gradient-9"/>
    <radialGradient id="radial-gradient-24" cx="1056.58919" cy="-288.61644" fx="1056.58919" fy="-288.61644" gradientTransform="translate(-777.39131 -566.12725) rotate(48.34282)" xlink:href="#radial-gradient-10"/>
    <radialGradient id="radial-gradient-25" cx="1063.71741" cy="-295.74466" fx="1063.71741" fy="-295.74466" gradientTransform="translate(-777.39131 -566.12725) rotate(48.34282)" xlink:href="#radial-gradient-11"/>
    <radialGradient id="radial-gradient-26" cx="1059.8621" cy="-291.88935" fx="1059.8621" fy="-291.88935" r=".41644" gradientTransform="translate(-777.39131 -566.12725) rotate(48.34282)" xlink:href="#radial-gradient-12"/>
    <radialGradient id="radial-gradient-27" cx="1051.74953" cy="-283.77678" fx="1051.74953" fy="-283.77678" gradientTransform="translate(-777.39131 -566.12725) rotate(48.34282)" xlink:href="#radial-gradient-13"/>
    <radialGradient id="radial-gradient-28" cx="1062.21981" cy="-294.24706" fx="1062.21981" fy="-294.24706" r=".52265" gradientTransform="translate(-777.39131 -566.12725) rotate(48.34282)" xlink:href="#radial-gradient-13"/>
    <radialGradient id="radial-gradient-29" cx="-269.31228" cy="233.49158" fx="-269.31228" fy="233.49158" r="23.31646" gradientTransform="translate(592.14117 186.88404) rotate(60.58484)" xlink:href="#radial-gradient"/>
    <radialGradient id="radial-gradient-30" cx="977.43508" cy="-45.31886" fx="977.43508" fy="-45.31886" gradientTransform="translate(104.45845 -899.04382) rotate(83.58716)" xlink:href="#radial-gradient-2"/>
    <radialGradient id="radial-gradient-31" cx="994.27505" cy="-62.15883" fx="994.27505" fy="-62.15883" r=".30043" gradientTransform="translate(104.45845 -899.04382) rotate(83.58716)" xlink:href="#radial-gradient-3"/>
    <radialGradient id="radial-gradient-32" cx="995.13785" cy="-63.02163" fx="995.13785" fy="-63.02163" r=".30043" gradientTransform="translate(104.45845 -899.04382) rotate(83.58716)" xlink:href="#radial-gradient-3"/>
    <radialGradient id="radial-gradient-33" cx="994.42974" cy="-62.31352" fx="994.42974" fy="-62.31352" r="2.2532" gradientTransform="translate(104.45845 -899.04382) rotate(83.58716)" xlink:href="#radial-gradient-5"/>
    <radialGradient id="radial-gradient-34" cx="980.97564" cy="-48.85941" fx="980.97564" fy="-48.85941" gradientTransform="translate(104.45845 -899.04382) rotate(83.58716)" xlink:href="#radial-gradient-6"/>
    <radialGradient id="radial-gradient-35" cx="980.97564" cy="-48.85941" fx="980.97564" fy="-48.85941" r="3.00426" gradientTransform="translate(104.45845 -899.04382) rotate(83.58716)" xlink:href="#radial-gradient-7"/>
    <radialGradient id="radial-gradient-36" cx="980.97564" cy="-48.85941" fx="980.97564" fy="-48.85941" r="2.50355" gradientTransform="translate(104.45845 -899.04382) rotate(83.58716)" xlink:href="#radial-gradient-8"/>
    <radialGradient id="radial-gradient-37" cx="995.13785" cy="-63.02163" fx="995.13785" fy="-63.02163" r="4.50639" gradientTransform="translate(104.45845 -899.04382) rotate(83.58716)" xlink:href="#radial-gradient-9"/>
    <radialGradient id="radial-gradient-38" cx="983.2791" cy="-51.16287" fx="983.2791" fy="-51.16287" gradientTransform="translate(104.45845 -899.04382) rotate(83.58716)" xlink:href="#radial-gradient-10"/>
    <radialGradient id="radial-gradient-39" cx="990.40732" cy="-58.29109" fx="990.40732" fy="-58.29109" r=".57331" gradientTransform="translate(104.45845 -899.04382) rotate(83.58716)" xlink:href="#radial-gradient-11"/>
    <radialGradient id="radial-gradient-40" cx="986.55201" cy="-54.43578" fx="986.55201" fy="-54.43578" r=".41644" gradientTransform="translate(104.45845 -899.04382) rotate(83.58716)" xlink:href="#radial-gradient-12"/>
    <radialGradient id="radial-gradient-41" cx="978.43943" cy="-46.32321" fx="978.43943" fy="-46.32321" r="1.01986" gradientTransform="translate(104.45845 -899.04382) rotate(83.58716)" xlink:href="#radial-gradient-13"/>
    <radialGradient id="radial-gradient-42" cx="988.90971" cy="-56.79349" fx="988.90971" fy="-56.79349" r=".52265" gradientTransform="translate(104.45845 -899.04382) rotate(83.58716)" xlink:href="#radial-gradient-13"/>
    <radialGradient id="radial-gradient-43" cx="375.88408" cy="43.32484" fx="375.88408" fy="43.32484" r="23.31646" xlink:href="#radial-gradient"/>
    <radialGradient id="radial-gradient-44" cx="1497.02013" cy="-472.48759" fx="1497.02013" fy="-472.48759" r="9.01278" xlink:href="#radial-gradient-2"/>
    <radialGradient id="radial-gradient-45" cx="1513.8601" cy="-489.32756" fx="1513.8601" fy="-489.32756" r=".30043" xlink:href="#radial-gradient-3"/>
    <radialGradient id="radial-gradient-46" cx="1514.7229" cy="-490.19036" fx="1514.7229" fy="-490.19036" xlink:href="#radial-gradient-3"/>
    <radialGradient id="radial-gradient-47" cx="1514.01479" cy="-489.48225" fx="1514.01479" fy="-489.48225" r="2.2532" xlink:href="#radial-gradient-5"/>
    <radialGradient id="radial-gradient-48" cx="1500.56068" cy="-476.02814" fx="1500.56068" fy="-476.02814" xlink:href="#radial-gradient-6"/>
    <radialGradient id="radial-gradient-49" cx="1500.56068" cy="-476.02814" fx="1500.56068" fy="-476.02814" r="3.00426" xlink:href="#radial-gradient-7"/>
    <radialGradient id="radial-gradient-50" cx="1500.56068" cy="-476.02814" fx="1500.56068" fy="-476.02814" r="2.50355" xlink:href="#radial-gradient-8"/>
    <radialGradient id="radial-gradient-51" cx="1514.7229" cy="-490.19036" fx="1514.7229" fy="-490.19036" xlink:href="#radial-gradient-9"/>
    <radialGradient id="radial-gradient-52" cx="1502.86414" cy="-478.3316" fx="1502.86414" fy="-478.3316" r=".32837" xlink:href="#radial-gradient-10"/>
    <radialGradient id="radial-gradient-53" cx="1509.99236" cy="-485.45982" fx="1509.99236" fy="-485.45982" r=".57331" xlink:href="#radial-gradient-11"/>
    <radialGradient id="radial-gradient-54" cx="1506.13705" cy="-481.60451" fx="1506.13705" fy="-481.60451" r=".41644" xlink:href="#radial-gradient-12"/>
    <radialGradient id="radial-gradient-55" cx="1498.02448" cy="-473.49194" fx="1498.02448" fy="-473.49194" r="1.01986" xlink:href="#radial-gradient-13"/>
    <radialGradient id="radial-gradient-56" cx="1508.49476" cy="-483.96221" fx="1508.49476" fy="-483.96221" r=".52265" xlink:href="#radial-gradient-13"/>
    <radialGradient id="radial-gradient-57" cx="-178.05148" cy="66.79074" fx="-178.05148" fy="66.79074" gradientTransform="translate(616.78656 157.48613) rotate(45.56391)" xlink:href="#radial-gradient"/>
    <radialGradient id="radial-gradient-58" cx="996.29824" cy="-234.42699" fx="996.29824" fy="-234.42699" r="9.01278" gradientTransform="translate(-135.67471 -764.94316) rotate(68.56622)" xlink:href="#radial-gradient-2"/>
    <radialGradient id="radial-gradient-59" cx="1013.13821" cy="-251.26697" fx="1013.13821" fy="-251.26697" r=".30043" gradientTransform="translate(-135.67471 -764.94316) rotate(68.56622)" xlink:href="#radial-gradient-3"/>
    <radialGradient id="radial-gradient-60" cx="1014.00101" cy="-252.12976" fx="1014.00101" fy="-252.12976" r=".30043" gradientTransform="translate(-135.67471 -764.94316) rotate(68.56622)" xlink:href="#radial-gradient-3"/>
    <radialGradient id="radial-gradient-61" cx="1013.2929" cy="-251.42165" fx="1013.2929" fy="-251.42165" gradientTransform="translate(-135.67471 -764.94316) rotate(68.56622)" xlink:href="#radial-gradient-5"/>
    <radialGradient id="radial-gradient-62" cx="999.83879" cy="-237.96755" fx="999.83879" fy="-237.96755" r="6.00852" gradientTransform="translate(-135.67471 -764.94316) rotate(68.56622)" xlink:href="#radial-gradient-6"/>
    <radialGradient id="radial-gradient-63" cx="999.83879" cy="-237.96755" fx="999.83879" fy="-237.96755" gradientTransform="translate(-135.67471 -764.94316) rotate(68.56622)" xlink:href="#radial-gradient-7"/>
    <radialGradient id="radial-gradient-64" cx="999.83879" cy="-237.96755" fx="999.83879" fy="-237.96755" r="2.50355" gradientTransform="translate(-135.67471 -764.94316) rotate(68.56622)" xlink:href="#radial-gradient-8"/>
    <radialGradient id="radial-gradient-65" cx="1014.00101" cy="-252.12976" fx="1014.00101" fy="-252.12976" r="4.50639" gradientTransform="translate(-135.67471 -764.94316) rotate(68.56622)" xlink:href="#radial-gradient-9"/>
    <radialGradient id="radial-gradient-66" cx="1002.14225" cy="-240.27101" fx="1002.14225" fy="-240.27101" gradientTransform="translate(-135.67471 -764.94316) rotate(68.56622)" xlink:href="#radial-gradient-10"/>
    <radialGradient id="radial-gradient-67" cx="1009.27047" cy="-247.39923" fx="1009.27047" fy="-247.39923" gradientTransform="translate(-135.67471 -764.94316) rotate(68.56622)" xlink:href="#radial-gradient-11"/>
    <radialGradient id="radial-gradient-68" cx="1005.41516" cy="-243.54392" fx="1005.41516" fy="-243.54392" gradientTransform="translate(-135.67471 -764.94316) rotate(68.56622)" xlink:href="#radial-gradient-12"/>
    <radialGradient id="radial-gradient-69" cx="997.30258" cy="-235.43134" fx="997.30258" fy="-235.43134" gradientTransform="translate(-135.67471 -764.94316) rotate(68.56622)" xlink:href="#radial-gradient-13"/>
    <radialGradient id="radial-gradient-70" cx="1007.77286" cy="-245.90162" fx="1007.77286" fy="-245.90162" r=".52265" gradientTransform="translate(-135.67471 -764.94316) rotate(68.56622)" xlink:href="#radial-gradient-13"/>
    <radialGradient id="radial-gradient-71" cx="267.5932" cy="-129.48892" fx="267.5932" fy="-129.48892" r="23.31646" gradientTransform="translate(258.67626 -46.62176) rotate(42.03643)" xlink:href="#radial-gradient"/>
    <radialGradient id="radial-gradient-72" cx="1329.8094" cy="-589.24411" fx="1329.8094" fy="-589.24411" r="9.01278" gradientTransform="translate(-549.11389 -921.00658) rotate(65.03875)" xlink:href="#radial-gradient-2"/>
    <radialGradient id="radial-gradient-73" cx="1346.64937" cy="-606.08408" fx="1346.64937" fy="-606.08408" r=".30043" gradientTransform="translate(-549.11389 -921.00658) rotate(65.03875)" xlink:href="#radial-gradient-3"/>
    <radialGradient id="radial-gradient-74" cx="1347.51217" cy="-606.94688" fx="1347.51217" fy="-606.94688" r=".30043" gradientTransform="translate(-549.11389 -921.00658) rotate(65.03875)" xlink:href="#radial-gradient-3"/>
    <radialGradient id="radial-gradient-75" cx="1346.80406" cy="-606.23877" fx="1346.80406" fy="-606.23877" gradientTransform="translate(-549.11389 -921.00658) rotate(65.03875)" xlink:href="#radial-gradient-5"/>
    <radialGradient id="radial-gradient-76" cx="1333.34996" cy="-592.78466" fx="1333.34996" fy="-592.78466" r="6.00852" gradientTransform="translate(-549.11389 -921.00658) rotate(65.03875)" xlink:href="#radial-gradient-6"/>
    <radialGradient id="radial-gradient-77" cx="1333.34996" cy="-592.78466" fx="1333.34996" fy="-592.78466" r="3.00426" gradientTransform="translate(-549.11389 -921.00658) rotate(65.03875)" xlink:href="#radial-gradient-7"/>
    <radialGradient id="radial-gradient-78" cx="1333.34996" cy="-592.78466" fx="1333.34996" fy="-592.78466" r="2.50355" gradientTransform="translate(-549.11389 -921.00658) rotate(65.03875)" xlink:href="#radial-gradient-8"/>
    <radialGradient id="radial-gradient-79" cx="1347.51217" cy="-606.94688" fx="1347.51217" fy="-606.94688" gradientTransform="translate(-549.11389 -921.00658) rotate(65.03875)" xlink:href="#radial-gradient-9"/>
    <radialGradient id="radial-gradient-80" cx="1335.65342" cy="-595.08812" fx="1335.65342" fy="-595.08812" gradientTransform="translate(-549.11389 -921.00658) rotate(65.03875)" xlink:href="#radial-gradient-10"/>
    <radialGradient id="radial-gradient-81" cx="1342.78164" cy="-602.21634" fx="1342.78164" fy="-602.21634" r=".57331" gradientTransform="translate(-549.11389 -921.00658) rotate(65.03875)" xlink:href="#radial-gradient-11"/>
    <radialGradient id="radial-gradient-82" cx="1338.92633" cy="-598.36103" fx="1338.92633" fy="-598.36103" r=".41644" gradientTransform="translate(-549.11389 -921.00658) rotate(65.03875)" xlink:href="#radial-gradient-12"/>
    <radialGradient id="radial-gradient-83" cx="1330.81375" cy="-590.24846" fx="1330.81375" fy="-590.24846" r="1.01986" gradientTransform="translate(-549.11389 -921.00658) rotate(65.03875)" xlink:href="#radial-gradient-13"/>
    <radialGradient id="radial-gradient-84" cx="1341.28403" cy="-600.71874" fx="1341.28403" fy="-600.71874" r=".52265" gradientTransform="translate(-549.11389 -921.00658) rotate(65.03875)" xlink:href="#radial-gradient-13"/>
    <radialGradient id="radial-gradient-85" cx="646.44778" cy="70.80048" fx="646.44778" fy="70.80048" r="23.31646" xlink:href="#radial-gradient"/>
    <radialGradient id="radial-gradient-86" cx="1756.80766" cy="-552.9243" fx="1756.80766" fy="-552.9243" xlink:href="#radial-gradient-2"/>
    <radialGradient id="radial-gradient-87" cx="1773.64763" cy="-569.76427" fx="1773.64763" fy="-569.76427" r=".30043" xlink:href="#radial-gradient-3"/>
    <radialGradient id="radial-gradient-88" cx="1774.51043" cy="-570.62707" fx="1774.51043" fy="-570.62707" r=".30043" xlink:href="#radial-gradient-3"/>
    <radialGradient id="radial-gradient-89" cx="1773.80232" cy="-569.91896" fx="1773.80232" fy="-569.91896" r="2.2532" xlink:href="#radial-gradient-5"/>
    <radialGradient id="radial-gradient-90" cx="1760.34821" cy="-556.46485" fx="1760.34821" fy="-556.46485" r="6.00852" xlink:href="#radial-gradient-6"/>
    <radialGradient id="radial-gradient-91" cx="1760.34821" cy="-556.46485" fx="1760.34821" fy="-556.46485" xlink:href="#radial-gradient-7"/>
    <radialGradient id="radial-gradient-92" cx="1760.34821" cy="-556.46485" fx="1760.34821" fy="-556.46485" xlink:href="#radial-gradient-8"/>
    <radialGradient id="radial-gradient-93" cx="1774.51043" cy="-570.62707" fx="1774.51043" fy="-570.62707" xlink:href="#radial-gradient-9"/>
    <radialGradient id="radial-gradient-94" cx="1762.65167" cy="-558.76831" fx="1762.65167" fy="-558.76831" r=".32837" xlink:href="#radial-gradient-10"/>
    <radialGradient id="radial-gradient-95" cx="1769.77989" cy="-565.89653" fx="1769.77989" fy="-565.89653" r=".57331" xlink:href="#radial-gradient-11"/>
    <radialGradient id="radial-gradient-96" cx="1765.92458" cy="-562.04122" fx="1765.92458" fy="-562.04122" r=".41644" xlink:href="#radial-gradient-12"/>
    <radialGradient id="radial-gradient-97" cx="1757.812" cy="-553.92865" fx="1757.812" fy="-553.92865" xlink:href="#radial-gradient-13"/>
    <radialGradient id="radial-gradient-98" cx="1768.28228" cy="-564.39892" fx="1768.28228" fy="-564.39892" r=".52265" xlink:href="#radial-gradient-13"/>
  </defs>
  <g class="cls-108">
    <g id="Layer_2" data-name="Layer 2">
      <g id="candy_groups" data-name="candy groups">
        <g>
          <g>
            <g>
              <circle class="cls-104" cx="31.91965" cy="79.72773" r="23.31646"/>
              <circle class="cls-106" cx="35.26505" cy="78.81534" r="31.62928"/>
              <circle class="cls-107" cx="31.81827" cy="79.62635" r="30.81827"/>
              <path class="cls-105" d="m23.51314,61.08477l8.55465,6.65523c.54202.42167,1.25682.54963,1.91145.34218l10.33218-3.27416c1.64855-.52241,3.18052,1.0723,2.5924,2.69856l-3.68597,10.19254c-.23354.64579-.13435,1.36515.26524,1.92364l6.30673,8.81472c1.00627,1.40643-.03698,3.35621-1.76539,3.29942l-10.83271-.3559c-.68635-.02255-1.33985.29408-1.74753.84669l-6.43441,8.72196c-1.02664,1.39163-3.20337,1.00195-3.68347-.65941l-3.00901-10.41249c-.19065-.65973-.69372-1.1834-1.34527-1.40036l-10.28342-3.42425c-1.64077-.54635-1.94281-2.73697-.51112-3.70696l8.97304-6.07937c.56852-.38518.91111-1.02546.91611-1.71216l.07891-10.83826c.01259-1.72929,2.00265-2.69349,3.36758-1.63162Z"/>
              <path class="cls-4" d="m9.37776,58.81294c-1.01934,1.53119-1.72998,4.23375-.42066,5.66144.8179.89185,2.32053,1.21171,3.59443.87701,3.01482-.79211,2.31901-4.61202,5.61073-7.1056,2.96774-2.24816,4.5708.07091,9.93069-2.31178,3.63827-1.61736,4.37525-3.34188,6.94284-3.14372,2.48918.1921,3.72264,1.96155,5.19696,1.1994,1.16534-.60243,1.76419-2.4159,1.25135-3.16-.21572-.31299-.73537-.45593-1.77468-.74179-.75739-.20833-1.33923-.29813-1.40034-.30736-2.09506-.31647-3.14259-.4747-4.63545-.54774-2.83153-.13853-5.02594.10395-5.70651.18592-1.67746.20204-3.71652.45705-6.20104,1.36904-1.61895.59427-2.9331,1.28556-4.2418,1.97398-1.50306.79066-2.55971,1.44746-2.83853,1.62201-2.70042,1.69063-3.91311,2.89382-4.25779,3.24403-.53812.54674-.80718.82012-1.0502,1.18516Z"/>
              <path class="cls-4" d="m34.14992,109.53224c-.80516-.708-.88169-2.37246-.20275-3.44678.91244-1.44383,2.56922-.84047,5.8798-2.02752,2.86434-1.02704,4.82861-2.6277,6.08255-3.64953,1.05397-.85887.89084-.87673,3.85228-3.85228,4.0667-4.08607,4.30392-3.98166,4.86604-5.06879,1.66623-3.22241.84897-6.59004,1.62201-6.69081.5085-.06628.70614,1.41118,2.43302,2.63577.97263.68972,1.35743.53837,1.62201,1.01376.59076,1.06143-.88765,2.60648-2.63577,5.4743-2.56383,4.20599-1.75937,4.77974-3.24403,5.8798-2.35801,1.74717-4.27371.2157-6.89356,2.23027-1.36191,1.04726-.85876,1.4723-2.63577,3.24403-2.19,2.18348-4.47735,3.05652-6.08255,3.64953-2.19939.8125-3.77082,1.39304-4.66329.60826Z"/>
              <path class="cls-6" d="m39.21871,109.12673c-1.0742.56638-3.48453-1.32983-3.24403-2.02752.15468-.44872,1.29616-.08342,3.24403-.60826.29176-.07862,1.36635-.38325,3.04128-1.41926,4.02329-2.48857,4.08454-4.60385,7.29906-6.28531,3.06574-1.60363,4.42564-.42011,6.08255-2.23027,1.78773-1.95307,1.62173-4.87902,2.43302-4.86604.38095.0061.73929.65638.81101,1.21651.15013,1.17255-.9332,2.12638-1.82477,3.04128-2.18965,2.24695-1.29257,2.27848-3.64953,4.86604-2.43126,2.66912-4.68472,4.06158-7.29906,5.67705-3.29865,2.03831-4.7043,2.32976-5.27155,1.82477-.42806-.38109-.37429-1.21182-.60826-1.21651-.32657-.00655-.23332,1.61602-1.01376,2.02752Z"/>
              <g>
                <circle class="cls-67" cx="33.20744" cy="77.9476" r="9.01278"/>
                <circle class="cls-61" cx="55.28897" cy="69.02712" r=".30043"/>
                <circle class="cls-62" cx="56.42032" cy="68.57008" r=".30043"/>
                <circle class="cls-66" cx="55.49181" cy="68.94518" r="2.2532"/>
                <line class="cls-1" x1="37.85001" y1="76.0721" x2="56.42032" y2="68.57008"/>
                <circle class="cls-7" cx="37.85001" cy="76.0721" r="6.00852"/>
                <circle class="cls-65" cx="37.85001" cy="76.0721" r="3.00426"/>
                <circle class="cls-63" cx="37.85001" cy="76.0721" r="2.50355"/>
                <polyline class="cls-2" points="37.85001 76.0721 33.5747 89.33776 37.85001 76.0721 42.12532 62.80644 37.85001 76.0721 24.58436 71.79679 37.85001 76.0721 51.11567 80.34741 37.85001 76.0721 46.98289 83.43635 37.85001 76.0721 28.71713 68.70785 37.85001 76.0721 30.48576 85.20498 37.85001 76.0721 45.21426 66.93922 37.85001 76.0721 38.52459 89.48341 37.85001 76.0721 37.17543 62.66079 37.85001 76.0721 24.43871 76.74668 37.85001 76.0721 51.26132 75.39752 37.85001 76.0721 41.26042 82.78824 37.85001 76.0721 34.43961 69.35596 37.85001 76.0721 31.13387 79.4825 37.85001 76.0721 44.56616 72.6617 37.85001 76.0721 37.76847 76.70916 37.85001 76.0721 37.93156 75.43504 37.85001 76.0721 37.21295 75.99056 37.85001 76.0721 38.48707 76.15364 37.85001 76.0721 40.50578 77.66736 37.85001 76.0721 35.19425 74.47684 37.85001 76.0721 36.25475 78.72786 37.85001 76.0721 39.44528 73.41634 37.85001 76.0721 42.08566 81.65866 37.85001 76.0721 33.61436 70.48554 37.85001 76.0721 32.26345 80.30775 37.85001 76.0721 43.43657 71.83645 37.85001 76.0721 38.88317 78.26914 37.85001 76.0721 36.81686 73.87506 37.85001 76.0721 35.65298 77.10525 37.85001 76.0721 40.04705 75.03895 37.85001 76.0721 43.91446 88.78743 37.85001 76.0721 31.78557 63.35677 37.85001 76.0721 25.13468 82.13654 37.85001 76.0721 50.56534 70.00766 37.85001 76.0721 39.046 79.61943 37.85001 76.0721 36.65402 72.52477 37.85001 76.0721 34.30269 77.26809 37.85001 76.0721 41.39734 74.87611 37.85001 76.0721 43.32048 83.9162 37.85001 76.0721 32.37954 68.228 37.85001 76.0721 30.00592 81.54257 37.85001 76.0721 45.69411 70.60163 37.85001 76.0721 46.03554 82.58421 37.85001 76.0721 29.66449 69.55999 37.85001 76.0721 31.3379 84.25763 37.85001 76.0721 44.36213 67.88658 37.85001 76.0721 42.10953 82.82599 37.85001 76.0721 33.5905 69.31821 37.85001 76.0721 31.09612 80.33161 37.85001 76.0721 44.6039 71.81259 37.85001 76.0721 37.67679 78.00488 37.85001 76.0721 38.02324 74.13932 37.85001 76.0721 35.91724 75.89887 37.85001 76.0721 39.78279 76.24533 37.85001 76.0721 40.5203 80.00905 37.85001 76.0721 35.17973 72.13515 37.85001 76.0721 33.91306 78.74238 37.85001 76.0721 41.78697 73.40181"/>
                <circle class="cls-64" cx="56.42032" cy="68.57008" r="4.50639"/>
                <circle class="cls-33" cx="40.87044" cy="74.85191" r=".32837"/>
                <circle class="cls-32" cx="50.21737" cy="71.07594" r=".57331"/>
                <circle class="cls-10" cx="45.16207" cy="73.11818" r=".41644"/>
                <circle class="cls-8" cx="34.52439" cy="77.41558" r="1.01986"/>
                <circle class="cls-9" cx="48.25363" cy="71.86926" r=".52265"/>
              </g>
              <circle class="cls-5" cx="14.28024" cy="80.13323" r="3.04128"/>
              <circle class="cls-5" cx="6.57567" cy="76.07819" r="4.05504"/>
              <circle class="cls-5" cx="48.34254" cy="103.65244" r="1.21651"/>
              <circle class="cls-5" cx="54.01959" cy="97.16438" r="2.02752"/>
            </g>
            <path class="cls-3" d="m35.26505,47.18606c-5.68149,0-11.01236,1.49918-15.62069,4.12176-10.96585,4.72046-18.64437,15.62211-18.64437,28.31852,0,17.02046,13.79781,30.81827,30.81827,30.81827.57422,0,1.14444-.01702,1.71092-.04801.57478.0311,1.15332.04801,1.73586.04801,17.46837,0,31.62928-14.16091,31.62928-31.62928s-14.16091-31.62928-31.62928-31.62928Z"/>
          </g>
          <g>
            <g>
              <circle class="cls-100" cx="130.35317" cy="32.02817" r="23.31646"/>
              <circle class="cls-106" cx="133.76718" cy="32.6354" r="31.62928"/>
              <circle class="cls-107" cx="130.30494" cy="31.89316" r="30.81827"/>
              <path class="cls-105" d="m130.73466,11.58107l4.8831,9.67623c.30939.61308.90064,1.03466,1.58108,1.12736l10.73935,1.46302c1.71351.23343,2.41555,2.33037,1.18799,3.54845l-7.69368,7.63423c-.48747.4837-.70571,1.17629-.5836,1.85207l1.92723,10.66583c.3075,1.70178-1.46987,3.01745-3.00766,2.22637l-9.63806-4.95802c-.61066-.31414-1.33679-.30767-1.94176.01729l-9.54826,5.12883c-1.52347.81833-3.32398-.46549-3.04682-2.17247l1.73703-10.69845c.11006-.67785-.12048-1.36644-.61648-1.84139l-7.82838-7.49604c-1.24905-1.19603-.58446-3.30513,1.12462-3.56903l10.71161-1.65399c.67868-.1048,1.26233-.53684,1.56076-1.15533l4.71006-9.76164c.75151-1.55751,2.96276-1.5772,3.74188-.03331Z"/>
              <path class="cls-4" d="m118.93172,3.47794c-1.57661.94759-3.37556,3.08595-2.80326,4.93665.3575,1.15609,1.57864,2.0883,2.87322,2.33103,3.06376.57444,4.06981-3.17572,8.11205-4.02052,3.64439-.76166,4.10065,2.02037,9.96459,2.16096,3.98042.09543,5.38458-1.14773,7.6203.13028,2.16745,1.23898,2.52492,3.36609,4.18357,3.30827,1.31105-.0457,2.62844-1.42838,2.48341-2.32037-.061-.37521-.46948-.7268-1.28643-1.42998-.59535-.51244-1.08277-.84263-1.13405-.87712-1.75803-1.18269-2.63704-1.77405-3.95499-2.479-2.49979-1.33708-4.58683-2.05714-5.23701-2.27434-1.60253-.53535-3.55453-1.17758-6.19033-1.41671-1.71752-.15582-3.20109-.0935-4.67852-.03143-1.69684.07128-2.93292.21264-3.25962.25106-3.16417.37218-4.77513.94058-5.23654,1.10957-.72035.26382-1.08052.39573-1.45639.62164Z"/>
              <path class="cls-4" d="m119.6126,59.91944c-.42466-.98448.21855-2.52154,1.29197-3.20191,1.4426-.91438,2.68173.34002,6.18182.68411,3.0283.29771,5.48865-.30824,7.05928-.69506,1.32015-.32514,1.18037-.41109,5.13038-1.83285,5.42423-1.95238,5.59393-1.75649,6.56726-2.49842,2.88509-2.19921,3.5878-5.59259,4.32959-5.3528.48794.15773.03421,1.57762,1.07081,3.42349.58385,1.03964.9964,1.06755,1.03206,1.61043.07963,1.21214-1.9178,1.97578-4.72514,3.81946-4.11728,2.70398-3.6358,3.56683-5.44843,3.92561-2.87891.56984-3.95482-1.63419-7.18481-.93475-1.67909.3636-1.40627.96309-3.77059,1.80379-2.9138,1.03607-5.35472.84613-7.05928.69506-2.33551-.20701-4.00421-.3549-4.47492-1.44615Z"/>
              <path class="cls-6" d="m124.36723,61.72239c-1.21325.05213-2.58009-2.69324-2.06412-3.22086.33185-.33934,1.20714.47936,3.19222.83871.29734.05382,1.39891.23842,3.35609.01896,4.70127-.52717,5.66196-2.4127,9.28684-2.55656,3.4571-.1372,4.17961,1.51448,6.45184.58764,2.45162-1,3.55389-3.71547,4.28157-3.35651.34169.16856.38722.90964.21231,1.44657-.36617,1.12399-1.75349,1.52238-2.95084,1.96765-2.94065,1.09358-2.14338,1.50603-5.38103,2.83584-3.3397,1.37173-5.97231,1.66573-9.02651,2.00683-3.85364.43037-5.24879.09217-5.54531-.60702-.22377-.52763.18038-1.25542-.02907-1.35979-.29235-.14569-.90252,1.36067-1.78399,1.39854Z"/>
              <g>
                <circle class="cls-71" cx="132.27893" cy="30.9705" r="9.01278"/>
                <circle class="cls-30" cx="156.05373" cy="32.35917" r=".30043"/>
                <circle class="cls-31" cx="157.27183" cy="32.43032" r=".30043"/>
                <circle class="cls-93" cx="156.27212" cy="32.37193" r="2.2532"/>
                <line class="cls-1" x1="137.27751" y1="31.26246" x2="157.27183" y2="32.43032"/>
                <circle class="cls-88" cx="137.27751" cy="31.26246" r="6.00852"/>
                <circle class="cls-85" cx="137.27751" cy="31.26246" r="3.00426"/>
                <circle class="cls-21" cx="137.27751" cy="31.26246" r="2.50355"/>
                <polyline class="cls-2" points="137.27751 31.26246 127.73591 41.42188 137.27751 31.26246 146.81911 21.10304 137.27751 31.26246 127.1181 21.72086 137.27751 31.26246 147.43693 40.80406 137.27751 31.26246 142.37975 41.82697 137.27751 31.26246 132.17528 20.69795 137.27751 31.26246 126.71301 36.3647 137.27751 31.26246 147.84202 26.16022 137.27751 31.26246 132.14719 43.67206 137.27751 31.26246 142.40784 18.85287 137.27751 31.26246 124.86792 26.13214 137.27751 31.26246 149.6871 36.39279 137.27751 31.26246 137.48528 38.79202 137.27751 31.26246 137.06975 23.7329 137.27751 31.26246 129.74796 31.47023 137.27751 31.26246 144.80707 31.0547 137.27751 31.26246 136.93116 31.80333 137.27751 31.26246 137.62387 30.7216 137.27751 31.26246 136.73665 30.91611 137.27751 31.26246 137.81838 31.60882 137.27751 31.26246 138.99497 33.84089 137.27751 31.26246 135.56005 28.68404 137.27751 31.26246 134.69909 32.97992 137.27751 31.26246 139.85594 29.545 137.27751 31.26246 138.71458 38.12433 137.27751 31.26246 135.84045 24.4006 137.27751 31.26246 130.41565 32.69953 137.27751 31.26246 144.13938 29.8254 137.27751 31.26246 137.27093 33.69029 137.27751 31.26246 137.2841 28.83464 137.27751 31.26246 134.84969 31.25588 137.27751 31.26246 139.70534 31.26904 137.27751 31.26246 137.31632 45.34989 137.27751 31.26246 137.23871 17.17504 137.27751 31.26246 123.19009 31.30126 137.27751 31.26246 151.36494 31.22366 137.27751 31.26246 136.84018 34.98035 137.27751 31.26246 137.71485 27.54458 137.27751 31.26246 133.55963 30.82513 137.27751 31.26246 140.9954 31.6998 137.27751 31.26246 138.86437 40.69315 137.27751 31.26246 135.69066 21.83178 137.27751 31.26246 127.84683 32.84932 137.27751 31.26246 146.7082 29.67561 137.27751 31.26246 141.88826 40.65136 137.27751 31.26246 132.66676 21.87357 137.27751 31.26246 127.88862 35.87322 137.27751 31.26246 146.66641 26.65171 137.27751 31.26246 138.23653 39.18955 137.27751 31.26246 136.31849 23.33537 137.27751 31.26246 129.35042 32.22148 137.27751 31.26246 145.2046 30.30344 137.27751 31.26246 136.29373 32.93513 137.27751 31.26246 138.2613 29.5898 137.27751 31.26246 135.60485 30.27868 137.27751 31.26246 138.95018 32.24625 137.27751 31.26246 138.00586 35.96348 137.27751 31.26246 136.54917 26.56145 137.27751 31.26246 132.5765 31.99081 137.27751 31.26246 141.97853 30.53411"/>
                <circle class="cls-83" cx="157.27183" cy="32.43032" r="4.50639"/>
                <circle class="cls-17" cx="140.52956" cy="31.45241" r=".32837"/>
                <circle class="cls-12" cx="150.59323" cy="32.04023" r=".57331"/>
                <circle class="cls-23" cx="145.15027" cy="31.72231" r=".41644"/>
                <circle class="cls-22" cx="133.69688" cy="31.05332" r="1.01986"/>
                <circle class="cls-18" cx="148.4789" cy="31.91673" r=".52265"/>
              </g>
              <circle class="cls-5" cx="114.23747" cy="24.84504" r="3.04128"/>
              <circle class="cls-5" cx="109.00978" cy="17.88265" r="4.05504"/>
              <circle class="cls-5" cx="134.95615" cy="60.67979" r="1.21651"/>
              <circle class="cls-5" cx="142.86383" cy="57.24578" r="2.02752"/>
            </g>
            <path class="cls-3" d="m147.30441,4.04948c-5.13482-2.43166-10.5944-3.35833-15.88177-2.96044-11.93106-.42709-23.53662,6.13922-28.97065,17.61399-7.2847,15.38275-.71993,33.75837,14.66282,41.04307.51897.24577,1.0416.47444,1.56684.68887.50617.27411,1.0218.53701,1.54829.78634,15.78757,7.47641,34.64674.73889,42.12315-15.04868,7.47641-15.78757.73889-34.64674-15.04868-42.12315Z"/>
          </g>
          <g>
            <g>
              <circle class="cls-99" cx="256.48193" cy="66.96614" r="23.31646"/>
              <circle class="cls-106" cx="258.91974" cy="69.43217" r="31.62928"/>
              <circle class="cls-107" cx="256.52045" cy="66.82805" r="30.81827"/>
              <path class="cls-105" d="m268.59279,50.48718l-1.59579,10.72043c-.10111.67924.13849,1.36474.64071,1.8331l7.92656,7.39215c1.26472,1.17945.628,3.29714-1.07746,3.58355l-10.68886,1.79511c-.67724.11374-1.25514.55344-1.54539,1.17581l-4.58091,9.8229c-.7309,1.56729-2.9417,1.61614-3.74112.08266l-5.01029-9.61099c-.31745-.60894-.91421-1.02269-1.59581-1.10641l-10.75772-1.32126c-1.71644-.21081-2.44607-2.29831-1.23468-3.53247l7.59233-7.73503c.48104-.49009.69013-1.1855.55912-1.85961l-2.06773-10.63949c-.32992-1.69758,1.42995-3.03657,2.97804-2.26584l9.70261,4.83048c.61475.30606,1.34074.29001,1.94137-.04289l9.47979-5.25431c1.51254-.83835,3.32983.42161,3.07521,2.1321Z"/>
              <path class="cls-4" d="m263.62937,37.0583c-1.83443-.13591-4.5376.57238-5.13819,2.41409-.37517,1.15048.08419,2.61649,1.0014,3.56178,2.17068,2.23713,5.1564-.24507,8.9452,1.39762,3.41589,1.48101,2.18311,4.01637,6.89106,7.51507,3.19574,2.3749,5.05989,2.1699,6.14831,4.5038,1.05518,2.26263.11965,4.20612,1.50763,5.11605,1.0971.71924,2.97091.35023,3.3672-.46195.1667-.34163.03599-.8645-.22544-1.91021-.19051-.76206-.39805-1.31301-.42002-1.37077-.75329-1.9804-1.12992-2.9706-1.7995-4.30688-1.26999-2.53453-2.55896-4.32696-2.96462-4.87954-.99985-1.36198-2.22344-3.01293-4.2381-4.72925-1.31278-1.11838-2.56037-1.92359-3.8028-2.72547-1.42694-.92097-2.51802-1.51882-2.80701-1.67597-2.79895-1.52197-4.44262-1.98739-4.91697-2.11564-.74055-.20023-1.11082-.30034-1.54816-.33274Z"/>
              <path class="cls-4" d="m231.61506,83.54691c.22129-1.04908,1.63358-1.93322,2.90286-1.86945,1.70583.0857,1.99396,1.82522,4.65391,4.12602,2.30141,1.99067,4.66045,2.91557,6.1664,3.506,1.26579.49628,1.20123.34541,5.24765,1.46367,5.55661,1.53563,5.58216,1.79354,6.80523,1.74927,3.62533-.13121,6.15743-2.49707,6.62488-1.87317.30748.41039-.88245,1.30818-1.10104,3.41388-.12311,1.18599.19771,1.44685-.08644,1.9108-.63445,1.0359-2.70642.50692-6.06309.39264-4.92295-.1676-5.02764.81493-6.71505.06195-2.68004-1.19593-2.28686-3.61683-5.32842-4.90951-1.58113-.67199-1.70426-.02495-4.12034-.70273-2.97758-.83529-4.86147-2.39898-6.1664-3.506-1.78795-1.5168-3.06543-2.60053-2.82014-3.76338Z"/>
              <path class="cls-6" d="m234.45775,87.7631c-1.02094-.65755-.55298-3.68845.17288-3.8216.46684-.08564.70925,1.08809,2.12309,2.52709.21178.21554,1.00491,1.00197,2.72997,1.95216,4.14373,2.2824,6.0164,1.29686,9.05985,3.27117,2.90258,1.88292,2.53953,3.64878,4.9301,4.20305,2.5793.59804,5.04653-.98359,5.43367-.27051.18178.33484-.20867.96635-.66137,1.30393-.94766.70666-2.31058.23145-3.54541-.09585-3.0327-.80382-2.61957-.00689-6.03114-.78917-3.5191-.80693-5.83881-2.08601-8.53001-3.5699-3.39562-1.87231-4.33987-2.95362-4.17856-3.69575.12173-.56004.87177-.92121.76095-1.12731-.15469-.28769-1.52228.59045-2.26403.11271Z"/>
              <g>
                <circle class="cls-70" cx="258.66504" cy="67.21364" r="9.01278"/>
                <circle class="cls-25" cx="277.28053" cy="82.06735" r=".30043"/>
                <circle class="cls-24" cx="278.2343" cy="82.82839" r=".30043"/>
                <circle class="cls-94" cx="277.45153" cy="82.2038" r="2.2532"/>
                <line class="cls-1" x1="262.5789" y1="70.33659" x2="278.2343" y2="82.82839"/>
                <circle class="cls-86" cx="262.5789" cy="70.33659" r="6.00852"/>
                <circle class="cls-81" cx="262.5789" cy="70.33659" r="3.00426"/>
                <circle class="cls-19" cx="262.5789" cy="70.33659" r="2.50355"/>
                <polyline class="cls-2" points="262.5789 70.33659 248.92364 73.12765 262.5789 70.33659 276.23415 67.54552 262.5789 70.33659 259.78783 56.68134 262.5789 70.33659 265.36996 83.99184 262.5789 70.33659 260.64948 81.90893 262.5789 70.33659 264.50831 58.76425 262.5789 70.33659 251.00656 68.40718 262.5789 70.33659 274.15123 72.266 262.5789 70.33659 251.22783 77.51096 262.5789 70.33659 273.92996 63.16222 262.5789 70.33659 255.40453 58.98552 262.5789 70.33659 269.75326 81.68765 262.5789 70.33659 258.40354 76.60586 262.5789 70.33659 266.75425 64.06731 262.5789 70.33659 256.30962 66.16123 262.5789 70.33659 268.84817 74.51195 262.5789 70.33659 261.98391 70.57844 262.5789 70.33659 263.17388 70.09474 262.5789 70.33659 262.33704 69.74161 262.5789 70.33659 262.82075 70.93157 262.5789 70.33659 262.49363 73.43347 262.5789 70.33659 262.66417 67.23971 262.5789 70.33659 259.48202 70.25132 262.5789 70.33659 265.67578 70.42186 262.5789 70.33659 259.79281 76.76994 262.5789 70.33659 265.36498 63.90323 262.5789 70.33659 256.14554 67.5505 262.5789 70.33659 269.01225 73.12268 262.5789 70.33659 261.17251 72.31559 262.5789 70.33659 263.98528 68.35759 262.5789 70.33659 260.59989 68.9302 262.5789 70.33659 264.5579 71.74297 262.5789 70.33659 254.48123 81.86416 262.5789 70.33659 270.67656 58.80902 262.5789 70.33659 251.05132 62.23892 262.5789 70.33659 274.10647 78.43425 262.5789 70.33659 260.07626 73.12061 262.5789 70.33659 265.08152 67.55257 262.5789 70.33659 259.79487 67.83396 262.5789 70.33659 265.36292 72.83922 262.5789 70.33659 258.43276 78.95433 262.5789 70.33659 266.72503 61.71884 262.5789 70.33659 253.96115 66.19046 262.5789 70.33659 271.19664 74.48272 262.5789 70.33659 260.92649 80.66519 262.5789 70.33659 264.2313 60.00799 262.5789 70.33659 252.25029 68.68418 262.5789 70.33659 272.90749 71.98899 262.5789 70.33659 258.78768 77.36405 262.5789 70.33659 266.37011 63.30913 262.5789 70.33659 255.55144 66.54537 262.5789 70.33659 269.60635 74.1278 262.5789 70.33659 260.81021 71.13494 262.5789 70.33659 264.34758 69.53823 262.5789 70.33659 261.78054 68.5679 262.5789 70.33659 263.37725 72.10528 262.5789 70.33659 260.46095 74.5962 262.5789 70.33659 264.69684 66.07697 262.5789 70.33659 258.31928 68.21864 262.5789 70.33659 266.83851 72.45454"/>
                <circle class="cls-82" cx="278.2343" cy="82.82839" r="4.50639"/>
                <circle class="cls-26" cx="265.12522" cy="72.36836" r=".32837"/>
                <circle class="cls-20" cx="273.005" cy="78.65581" r=".57331"/>
                <circle class="cls-27" cx="268.74321" cy="75.25523" r=".41644"/>
                <circle class="cls-36" cx="259.77529" cy="68.09952" r="1.01986"/>
                <circle class="cls-37" cx="271.34949" cy="77.33485" r=".52265"/>
              </g>
              <circle class="cls-5" cx="247.46539" cy="51.7999" r="3.04128"/>
              <circle class="cls-5" cx="247.21369" cy="43.09701" r="4.05504"/>
              <circle class="cls-5" cx="243.70735" cy="93.02211" r="1.21651"/>
              <circle class="cls-5" cx="252.14718" cy="94.78079" r="2.02752"/>
            </g>
            <path class="cls-3" d="m286.47149,53.89795c-2.79038-4.94906-6.71446-8.8564-11.26225-11.58259-9.49762-7.23379-22.76505-8.56826-33.8247-2.33261-14.82625,8.35933-20.06872,27.15496-11.70939,41.98121.28202.5002.5769.98855.88211,1.46677.25521.51596.52461,1.02822.81072,1.53567,8.57931,15.21642,27.86956,20.59685,43.08598,12.01754s20.59685-27.86956,12.01754-43.08598Z"/>
          </g>
          <g>
            <g>
              <circle class="cls-98" cx="375.88408" cy="43.32484" r="23.31646"/>
              <circle class="cls-106" cx="379.22949" cy="42.41246" r="31.62928"/>
              <circle class="cls-107" cx="375.78271" cy="43.22347" r="30.81827"/>
              <path class="cls-105" d="m367.47758,24.68188l8.55465,6.65523c.54202.42167,1.25682.54963,1.91145.34218l10.33218-3.27416c1.64855-.52241,3.18052,1.0723,2.5924,2.69856l-3.68597,10.19254c-.23354.64579-.13435,1.36515.26524,1.92364l6.30673,8.81472c1.00627,1.40643-.03698,3.35621-1.76539,3.29942l-10.83271-.3559c-.68635-.02255-1.33985.29408-1.74753.84669l-6.43441,8.72196c-1.02664,1.39163-3.20337,1.00195-3.68347-.65941l-3.00901-10.41249c-.19065-.65973-.69372-1.1834-1.34527-1.40036l-10.28342-3.42425c-1.64077-.54635-1.94281-2.73697-.51112-3.70696l8.97304-6.07937c.56852-.38518.91111-1.02546.91611-1.71216l.07891-10.83826c.01259-1.72929,2.00265-2.69349,3.36758-1.63162Z"/>
              <path class="cls-4" d="m353.34219,22.41006c-1.01934,1.53119-1.72998,4.23375-.42066,5.66144.8179.89185,2.32053,1.21171,3.59443.87701,3.01482-.79211,2.31901-4.61202,5.61073-7.1056,2.96774-2.24816,4.5708.07091,9.93069-2.31178,3.63827-1.61736,4.37525-3.34188,6.94284-3.14372,2.48918.1921,3.72264,1.96155,5.19696,1.1994,1.16534-.60243,1.76419-2.4159,1.25135-3.16-.21572-.31299-.73537-.45593-1.77468-.74179-.75739-.20833-1.33923-.29813-1.40034-.30736-2.09506-.31647-3.14259-.4747-4.63545-.54774-2.83153-.13853-5.02594.10395-5.70651.18592-1.67746.20204-3.71652.45705-6.20104,1.36904-1.61895.59427-2.9331,1.28556-4.2418,1.97398-1.50306.79066-2.55971,1.44746-2.83853,1.62201-2.70042,1.69063-3.91311,2.89382-4.25779,3.24403-.53812.54674-.80718.82012-1.0502,1.18516Z"/>
              <path class="cls-4" d="m378.11435,73.12936c-.80516-.708-.88169-2.37246-.20275-3.44678.91244-1.44383,2.56922-.84047,5.8798-2.02752,2.86434-1.02704,4.82861-2.6277,6.08255-3.64953,1.05397-.85887.89084-.87673,3.85228-3.85228,4.0667-4.08607,4.30392-3.98166,4.86604-5.06879,1.66623-3.22241.84897-6.59004,1.62201-6.69081.5085-.06628.70614,1.41118,2.43302,2.63577.97263.68972,1.35743.53837,1.62201,1.01376.59076,1.06143-.88765,2.60648-2.63577,5.4743-2.56383,4.20599-1.75937,4.77974-3.24403,5.8798-2.35801,1.74717-4.27371.2157-6.89356,2.23027-1.36191,1.04726-.85876,1.4723-2.63577,3.24403-2.19,2.18348-4.47735,3.05652-6.08255,3.64953-2.19939.8125-3.77082,1.39304-4.66329.60826Z"/>
              <path class="cls-6" d="m383.18315,72.72385c-1.0742.56638-3.48453-1.32983-3.24403-2.02752.15468-.44872,1.29616-.08342,3.24403-.60826.29176-.07862,1.36635-.38325,3.04128-1.41926,4.02329-2.48857,4.08454-4.60385,7.29906-6.28531,3.06574-1.60363,4.42564-.42011,6.08255-2.23027,1.78773-1.95307,1.62173-4.87902,2.43302-4.86604.38095.0061.73929.65638.81101,1.21651.15013,1.17255-.9332,2.12638-1.82477,3.04128-2.18965,2.24695-1.29257,2.27848-3.64953,4.86604-2.43126,2.66912-4.68472,4.06158-7.29906,5.67705-3.29865,2.03831-4.7043,2.32976-5.27155,1.82477-.42806-.38109-.37429-1.21182-.60826-1.21651-.32657-.00655-.23332,1.61602-1.01376,2.02752Z"/>
              <g>
                <circle class="cls-72" cx="377.17187" cy="41.54472" r="9.01278"/>
                <circle class="cls-28" cx="399.25341" cy="32.62424" r=".30043"/>
                <circle class="cls-29" cx="400.38476" cy="32.1672" r=".30043"/>
                <circle class="cls-95" cx="399.45624" cy="32.5423" r="2.2532"/>
                <line class="cls-1" x1="381.81445" y1="39.66922" x2="400.38476" y2="32.1672"/>
                <circle class="cls-87" cx="381.81445" cy="39.66922" r="6.00852"/>
                <circle class="cls-84" cx="381.81445" cy="39.66922" r="3.00426"/>
                <circle class="cls-34" cx="381.81445" cy="39.66922" r="2.50355"/>
                <polyline class="cls-2" points="381.81445 39.66922 377.53914 52.93488 381.81445 39.66922 386.08976 26.40356 381.81445 39.66922 368.54879 35.39391 381.81445 39.66922 395.08011 43.94453 381.81445 39.66922 390.94733 47.03347 381.81445 39.66922 372.68157 32.30497 381.81445 39.66922 374.4502 48.8021 381.81445 39.66922 389.1787 30.53634 381.81445 39.66922 382.48903 53.08053 381.81445 39.66922 381.13987 26.25791 381.81445 39.66922 368.40314 40.3438 381.81445 39.66922 395.22576 38.99464 381.81445 39.66922 385.22485 46.38536 381.81445 39.66922 378.40405 32.95308 381.81445 39.66922 375.09831 43.07962 381.81445 39.66922 388.53059 36.25882 381.81445 39.66922 381.73291 40.30628 381.81445 39.66922 381.89599 39.03216 381.81445 39.66922 381.17739 39.58768 381.81445 39.66922 382.45151 39.75076 381.81445 39.66922 384.47021 41.26448 381.81445 39.66922 379.15869 38.07396 381.81445 39.66922 380.21919 42.32498 381.81445 39.66922 383.40971 37.01346 381.81445 39.66922 386.0501 45.25578 381.81445 39.66922 377.5788 34.08266 381.81445 39.66922 376.22789 43.90487 381.81445 39.66922 387.40101 35.43357 381.81445 39.66922 382.8476 41.86625 381.81445 39.66922 380.7813 37.47218 381.81445 39.66922 379.61741 40.70237 381.81445 39.66922 384.01148 38.63607 381.81445 39.66922 387.87889 52.38455 381.81445 39.66922 375.75001 26.95389 381.81445 39.66922 369.09912 45.73366 381.81445 39.66922 394.52978 33.60478 381.81445 39.66922 383.01044 43.21655 381.81445 39.66922 380.61846 36.12189 381.81445 39.66922 378.26712 40.86521 381.81445 39.66922 385.36178 38.47323 381.81445 39.66922 387.28492 47.51332 381.81445 39.66922 376.34398 31.82512 381.81445 39.66922 373.97035 45.13969 381.81445 39.66922 389.65855 34.19875 381.81445 39.66922 389.99997 46.18133 381.81445 39.66922 373.62892 33.15711 381.81445 39.66922 375.30234 47.85475 381.81445 39.66922 388.32656 31.48369 381.81445 39.66922 386.07396 46.42311 381.81445 39.66922 377.55494 32.91533 381.81445 39.66922 375.06056 43.92873 381.81445 39.66922 388.56834 35.40971 381.81445 39.66922 381.64122 41.602 381.81445 39.66922 381.98768 37.73644 381.81445 39.66922 379.88167 39.49599 381.81445 39.66922 383.74723 39.84245 381.81445 39.66922 384.48474 43.60617 381.81445 39.66922 379.14416 35.73227 381.81445 39.66922 377.8775 42.3395 381.81445 39.66922 385.7514 36.99893"/>
                <circle class="cls-80" cx="400.38476" cy="32.1672" r="4.50639"/>
                <circle class="cls-16" cx="384.83488" cy="38.44903" r=".32837"/>
                <circle class="cls-15" cx="394.18181" cy="34.67306" r=".57331"/>
                <circle class="cls-14" cx="389.12651" cy="36.7153" r=".41644"/>
                <circle class="cls-35" cx="378.48883" cy="41.0127" r="1.01986"/>
                <circle class="cls-11" cx="392.21806" cy="35.46638" r=".52265"/>
              </g>
              <circle class="cls-5" cx="358.24468" cy="43.73035" r="3.04128"/>
              <circle class="cls-5" cx="350.54011" cy="39.67531" r="4.05504"/>
              <circle class="cls-5" cx="392.30698" cy="67.24956" r="1.21651"/>
              <circle class="cls-5" cx="397.98403" cy="60.7615" r="2.02752"/>
            </g>
            <path class="cls-3" d="m379.22949,10.78318c-5.68149,0-11.01236,1.49918-15.62069,4.12176-10.96585,4.72046-18.64437,15.62211-18.64437,28.31852,0,17.02046,13.79781,30.81827,30.81827,30.81827.57422,0,1.14444-.01702,1.71092-.04801.57478.0311,1.15332.04801,1.73586.04801,17.46837,0,31.62928-14.16091,31.62928-31.62928s-14.16091-31.62928-31.62928-31.62928Z"/>
          </g>
          <g>
            <g>
              <circle class="cls-101" cx="444.43965" cy="77.11279" r="23.31646"/>
              <circle class="cls-106" cx="447.43328" cy="78.86275" r="31.62928"/>
              <circle class="cls-107" cx="444.44106" cy="76.96943" r="30.81827"/>
              <path class="cls-105" d="m451.8658,58.0581l1.23718,10.76771c.07839.68223.48746,1.28221,1.0939,1.60441l9.57156,5.08522c1.52718.81137,1.46107,3.02172-.11188,3.74036l-9.85839,4.50403c-.62462.28537-1.06882.85983-1.18785,1.53615l-1.87856,10.67451c-.29973,1.70317-2.42233,2.32332-3.59186,1.04943l-7.33-7.98407c-.46442-.50586-1.14803-.75081-1.82803-.65501l-10.73257,1.51199c-1.71243.24124-2.95815-1.58583-2.10801-3.09177l5.3282-9.43845c.33759-.59801.3593-1.32385.05806-1.94097l-4.75453-9.74005c-.75861-1.55407.59409-3.30341,2.28904-2.96025l10.62301,2.15078c.67307.13627,1.37009-.06738,1.86392-.54458l7.79411-7.53167c1.24358-1.20171,3.32532-.4558,3.52272,1.26224Z"/>
              <path class="cls-4" d="m443.59159,46.37445c-1.80698.34417-4.23422,1.72884-4.33696,3.66328-.06418,1.2084.75943,2.50527,1.89029,3.18054,2.67631,1.59811,4.9167-1.57309,9.00177-.96848,3.68301.5451,3.14944,3.31334,8.60329,5.47232,3.70205,1.4655,5.44938.78438,7.10549,2.75644,1.60554,1.91184,1.20567,4.03139,2.78206,4.55051,1.24602.41033,2.96016-.43172,3.13242-1.31885.07246-.37316-.1893-.84428-.71281-1.78652-.3815-.68665-.72474-1.16498-.76093-1.21507-1.24081-1.7175-1.86121-2.57625-2.85423-3.69334-1.88348-2.11879-3.59295-3.5159-4.12796-3.94447-1.31867-1.05631-2.92833-2.33372-5.31897-3.46926-1.55777-.73993-2.97143-1.19429-4.37923-1.64677-1.61687-.51968-2.82562-.81433-3.14546-.8912-3.09777-.74456-4.8059-.76808-5.29727-.76901-.76714-.00146-1.15071-.00218-1.5815.07987Z"/>
              <path class="cls-4" d="m424.71972,99.57181c-.05817-1.07059,1.07673-2.29054,2.31916-2.55791,1.66975-.35933,2.39887,1.24608,5.56424,2.77887,2.7387,1.32619,5.25684,1.60809,6.86436,1.78805,1.35116.15126,1.24971.02228,5.44769.05362,5.76474.04304,5.85626.28552,7.02606-.07422,3.46745-1.06631,5.29987-4.00758,5.91304-3.52615.40333.31668-.51325,1.49219-.17864,3.58259.18847,1.17737.56594,1.34617.41174,1.86792-.3443,1.16494-2.48256,1.19103-5.75416,1.9506-4.79818,1.11401-4.64464,2.09011-6.46955,1.80019-2.89841-.46047-3.1461-2.90056-6.41876-3.36078-1.70127-.23925-1.6525.4176-4.16168.38916-3.09232-.03505-5.31711-1.05706-6.86436-1.78805-2.11997-1.00159-3.63468-1.7172-3.69915-2.90389Z"/>
              <path class="cls-6" d="m428.55799,102.90719c-1.15647-.37048-1.49003-3.4191-.82348-3.73583.42869-.20371.96702.86709,2.7055,1.89049.2604.15329,1.23025.70729,3.14264,1.17792,4.59368,1.13047,6.14694-.30673,9.59808.81134,3.2914,1.06631,3.39842,2.86593,5.85096,2.7817,2.64617-.09088,4.61917-2.2579,5.1779-1.66953.26235.27628.04891.98742-.30083,1.43078-.73214.92812-2.17165.82238-3.44911.8263-3.1374.00964-2.53185.67226-6.0296.8009-3.608.13269-6.17994-.50147-9.16377-1.23719-3.76484-.92829-4.95707-1.72792-4.99362-2.48651-.02758-.57245.60323-1.11567.44278-1.28601-.22396-.23777-1.31724.9648-2.15746.69564Z"/>
              <g>
                <circle class="cls-73" cx="446.61231" cy="76.78603" r="9.01278"/>
                <circle class="cls-13" cx="468.44139" cy="86.3076" r=".30043"/>
                <circle class="cls-38" cx="469.55981" cy="86.79544" r=".30043"/>
                <circle class="cls-96" cx="468.64191" cy="86.39506" r="2.2532"/>
                <line class="cls-1" x1="451.20181" y1="78.78791" x2="469.55981" y2="86.79544"/>
                <circle class="cls-89" cx="451.20181" cy="78.78791" r="6.00852"/>
                <circle class="cls-78" cx="451.20181" cy="78.78791" r="3.00426"/>
                <circle class="cls-39" cx="451.20181" cy="78.78791" r="2.50355"/>
                <polyline class="cls-2" points="451.20181 78.78791 438.7365 85.02267 451.20181 78.78791 463.66711 72.55316 451.20181 78.78791 444.96705 66.32261 451.20181 78.78791 457.43656 91.25321 451.20181 78.78791 452.33755 90.46489 451.20181 78.78791 450.06607 67.11093 451.20181 78.78791 439.52483 79.92365 451.20181 78.78791 462.87878 77.65217 451.20181 78.78791 442.09799 88.65902 451.20181 78.78791 460.30562 68.9168 451.20181 78.78791 441.3307 69.6841 451.20181 78.78791 461.07291 87.89173 451.20181 78.78791 448.79394 85.92511 451.20181 78.78791 453.60968 71.65072 451.20181 78.78791 444.06461 76.38004 451.20181 78.78791 458.339 81.19578 451.20181 78.78791 450.68984 79.1757 451.20181 78.78791 451.71378 78.40012 451.20181 78.78791 450.81402 78.27594 451.20181 78.78791 451.5896 79.29988 451.20181 78.78791 451.92207 81.80107 451.20181 78.78791 450.48154 75.77475 451.20181 78.78791 448.18864 79.50818 451.20181 78.78791 454.21497 78.06764 451.20181 78.78791 450.17826 85.72352 451.20181 78.78791 452.22535 71.8523 451.20181 78.78791 444.26619 77.76437 451.20181 78.78791 458.13742 79.81146 451.20181 78.78791 450.35638 81.06379 451.20181 78.78791 452.04724 76.51203 451.20181 78.78791 448.92593 77.94248 451.20181 78.78791 453.47768 79.63334 451.20181 78.78791 446.36846 92.02029 451.20181 78.78791 456.03516 65.55553 451.20181 78.78791 437.96943 73.95456 451.20181 78.78791 464.43418 83.62127 451.20181 78.78791 449.50623 82.12542 451.20181 78.78791 452.89738 75.4504 451.20181 78.78791 447.8643 77.09233 451.20181 78.78791 454.53931 80.48349 451.20181 78.78791 449.43082 88.18576 451.20181 78.78791 452.97279 69.39006 451.20181 78.78791 441.80396 77.01693 451.20181 78.78791 460.59965 80.5589 451.20181 78.78791 452.28275 89.19185 451.20181 78.78791 450.12087 68.38397 451.20181 78.78791 440.79786 79.86885 451.20181 78.78791 461.60575 77.70697 451.20181 78.78791 449.36145 86.55783 451.20181 78.78791 453.04216 71.01799 451.20181 78.78791 443.43189 76.94756 451.20181 78.78791 458.97172 80.62826 451.20181 78.78791 449.70046 80.01738 451.20181 78.78791 452.70315 77.55844 451.20181 78.78791 449.97233 77.28657 451.20181 78.78791 452.43128 80.28925 451.20181 78.78791 450.2602 83.45089 451.20181 78.78791 452.14341 74.12493 451.20181 78.78791 446.53882 77.8463 451.20181 78.78791 455.86479 79.72952"/>
                <circle class="cls-77" cx="469.55981" cy="86.79544" r="4.50639"/>
                <circle class="cls-40" cx="454.1877" cy="80.09032" r=".32837"/>
                <circle class="cls-44" cx="463.42777" cy="84.12072" r=".57331"/>
                <circle class="cls-43" cx="458.43027" cy="81.94087" r=".41644"/>
                <circle class="cls-45" cx="447.91421" cy="77.3539" r="1.01986"/>
                <circle class="cls-54" cx="461.48648" cy="83.27396" r=".52265"/>
              </g>
              <circle class="cls-5" cx="431.80052" cy="64.8016" r="3.04128"/>
              <circle class="cls-5" cx="429.30187" cy="56.4613" r="4.05504"/>
              <circle class="cls-5" cx="438.85453" cy="105.58927" r="1.21651"/>
              <circle class="cls-5" cx="447.46179" cy="105.10049" r="2.02752"/>
            </g>
            <path class="cls-3" d="m470.01759,56.71867c-3.97769-4.05677-8.78037-6.81358-13.87932-8.26797-11.0479-4.5251-24.20785-2.37542-33.27349,6.51351-12.15315,11.91625-12.34519,31.42836-.42894,43.58151.40202.41001.81339.80525,1.23212,1.18803.38021.43218.77317.85713,1.18102,1.27308,12.22984,12.47297,32.25542,12.67007,44.72839.44023,12.47297-12.22984,12.67007-32.25542.44023-44.72839Z"/>
          </g>
          <g>
            <g>
              <circle class="cls-103" cx="544.12904" cy="36.38553" r="23.31646"/>
              <circle class="cls-106" cx="547.22467" cy="37.94798" r="31.62928"/>
              <circle class="cls-107" cx="544.12163" cy="36.24235" r="30.81827"/>
              <path class="cls-105" d="m550.36875,16.91002l1.89734,10.67119c.12021.67612.56543,1.24979,1.19055,1.53406l9.8663,4.48668c1.57421.71587,1.64422,2.9261.11846,3.74015l-9.56259,5.10205c-.60588.32326-1.01389.92396-1.09108,1.60633l-1.21823,10.76987c-.19437,1.71838-2.27479,2.46796-3.52049,1.26844l-7.80735-7.51795c-.49467-.47633-1.19205-.67875-1.86487-.5413l-10.61921,2.16947c-1.69434.34615-3.05012-1.40082-2.29425-2.95622l4.73739-9.7484c.30016-.61765.27717-1.34345-.06147-1.94087l-5.3448-9.42906c-.85279-1.50445.38972-3.33371,2.10257-3.09548l10.73521,1.4931c.68017.0946,1.36335-.15155,1.82688-.65823l7.31594-7.99695c1.16729-1.27595,3.29097-.65953,3.5937,1.04311Z"/>
              <path class="cls-4" d="m541.39135,5.7576c-1.78238.45469-4.11982,1.98609-4.10335,3.92318.01029,1.21006.91214,2.45379,2.0824,3.05821,2.76957,1.43042,4.8106-1.87262,8.92513-1.5205,3.70957.31746,3.34734,3.11328,8.92369,4.93261,3.7852,1.23495,5.48732.44761,7.26163,2.31404,1.72013,1.80944,1.45142,3.94957,3.05676,4.37072,1.26891.33288,2.92799-.61303,3.04534-1.50908.04936-.37691-.24088-.83104-.82138-1.73927-.42303-.66188-.79504-1.11818-.83425-1.16595-1.34413-1.6379-2.0162-2.45686-3.07607-3.51073-2.01027-1.99889-3.80247-3.28818-4.36283-3.68301-1.38117-.97317-3.06637-2.14913-5.52235-3.13542-1.60035-.64268-3.03928-1.0092-4.47225-1.37421-1.64578-.41921-2.87037-.63893-3.19433-.69598-3.13771-.55255-4.84405-.47093-5.33455-.44162-.76577.04575-1.14866.06862-1.57359.17702Z"/>
              <path class="cls-4" d="m525.82832,60.01531c-.12393-1.06498.93376-2.35245,2.15739-2.69575,1.64448-.46138,2.47099,1.09613,5.72467,2.43126,2.81511,1.15517,5.34582,1.28161,6.96137,1.36232,1.35791.06784,1.24871-.05465,5.44067-.28166,5.75646-.31173,5.86274-.07534,7.00818-.50637,3.39528-1.27763,5.04325-4.32608,5.68489-3.88329.42205.29127-.42047,1.52094.04213,3.5868.26055,1.16354.64769,1.3088.52589,1.83904-.27197,1.18392-2.40458,1.34151-5.62325,2.30095-4.72054,1.40712-4.50725,2.37192-6.34654,2.19483-2.92125-.28127-3.3186-2.70149-6.61338-2.95948-1.71276-.13412-1.62367.51848-4.12985.64448-3.08862.15528-5.37207-.72791-6.96137-1.36232-2.17758-.86925-3.73344-1.49031-3.87081-2.67079Z"/>
              <path class="cls-6" d="m529.86453,63.10821c-1.17708-.29863-1.69757-3.32094-1.05177-3.67809.41535-.2297,1.01854.80595,2.81669,1.72045.26934.13697,1.27144.63026,3.20916.98233,4.65453.84569,6.11642-.68435,9.62981.21926,3.35077.86178,3.56831,2.6514,6.01102,2.41643,2.63556-.25351,4.4715-2.53783,5.06537-1.98495.27885.25962.10957.98254-.21223,1.44658-.67364.9714-2.11694.95443-3.39174,1.03695-3.13086.20265-2.48569.82677-5.96889,1.17037-3.593.35443-6.19908-.12029-9.22253-.67102-3.81483-.69489-5.054-1.41966-5.13715-2.17455-.06275-.56967.53344-1.15067.36282-1.31082-.23817-.22354-1.25538,1.04402-2.11057.82706Z"/>
              <g>
                <circle class="cls-68" cx="546.27748" cy="35.9257" r="9.01278"/>
                <circle class="cls-53" cx="568.65104" cy="44.08615" r=".30043"/>
                <circle class="cls-52" cx="569.79736" cy="44.50426" r=".30043"/>
                <circle class="cls-97" cx="568.85656" cy="44.16112" r="2.2532"/>
                <line class="cls-1" x1="550.98146" y1="37.64142" x2="569.79736" y2="44.50426"/>
                <circle class="cls-91" cx="550.98146" cy="37.64142" r="6.00852"/>
                <circle class="cls-79" cx="550.98146" cy="37.64142" r="3.00426"/>
                <circle class="cls-41" cx="550.98146" cy="37.64142" r="2.50355"/>
                <polyline class="cls-2" points="550.98146 37.64142 538.92338 44.63131 550.98146 37.64142 563.03953 30.65152 550.98146 37.64142 543.99156 25.58334 550.98146 37.64142 557.97135 49.69949 550.98146 37.64142 552.8335 49.22639 550.98146 37.64142 549.12942 26.05644 550.98146 37.64142 539.39648 39.49346 550.98146 37.64142 562.56643 35.78937 550.98146 37.64142 542.50223 48.05395 550.98146 37.64142 559.46068 27.22888 550.98146 37.64142 540.56892 29.16219 550.98146 37.64142 561.39399 46.12064 550.98146 37.64142 549.01728 44.91324 550.98146 37.64142 552.94563 30.36959 550.98146 37.64142 543.70963 35.67724 550.98146 37.64142 558.25328 39.60559 550.98146 37.64142 550.49431 38.05997 550.98146 37.64142 551.4686 37.22286 550.98146 37.64142 550.5629 37.15427 550.98146 37.64142 551.40001 38.12856 550.98146 37.64142 551.88575 40.60455 550.98146 37.64142 550.07716 34.67828 550.98146 37.64142 548.01832 38.54571 550.98146 37.64142 553.9446 36.73712 550.98146 37.64142 550.38658 44.62686 550.98146 37.64142 551.57633 30.65597 550.98146 37.64142 543.99601 37.04654 550.98146 37.64142 557.96691 38.23629 550.98146 37.64142 550.27766 39.965 550.98146 37.64142 551.68526 35.31783 550.98146 37.64142 548.65787 36.93762 550.98146 37.64142 553.30504 38.34521 550.98146 37.64142 546.97141 51.1461 550.98146 37.64142 554.9915 24.13673 550.98146 37.64142 537.47677 33.63137 550.98146 37.64142 564.48614 41.65146 550.98146 37.64142 549.49444 41.07692 550.98146 37.64142 552.46847 34.20591 550.98146 37.64142 547.54595 36.1544 550.98146 37.64142 554.41696 39.12843 550.98146 37.64142 549.79205 47.13042 550.98146 37.64142 552.17086 28.15241 550.98146 37.64142 541.49245 36.45201 550.98146 37.64142 560.47046 38.83082 550.98146 37.64142 552.70047 47.95914 550.98146 37.64142 549.26244 27.32369 550.98146 37.64142 540.66373 39.36043 550.98146 37.64142 561.29918 35.9224 550.98146 37.64142 549.62265 45.50984 550.98146 37.64142 552.34026 29.77299 550.98146 37.64142 543.11303 36.28261 550.98146 37.64142 558.84988 39.00022 550.98146 37.64142 549.5586 38.96093 550.98146 37.64142 552.40431 36.3219 550.98146 37.64142 549.66194 36.21856 550.98146 37.64142 552.30097 39.06427 550.98146 37.64142 550.32854 42.3535 550.98146 37.64142 551.63438 32.92933 550.98146 37.64142 546.26937 36.98849 550.98146 37.64142 555.69354 38.29434"/>
                <circle class="cls-76" cx="569.79736" cy="44.50426" r="4.50639"/>
                <circle class="cls-56" cx="554.04183" cy="38.75765" r=".32837"/>
                <circle class="cls-51" cx="563.51237" cy="42.2119" r=".57331"/>
                <circle class="cls-55" cx="558.39021" cy="40.34366" r=".41644"/>
                <circle class="cls-58" cx="547.61186" cy="36.4124" r="1.01986"/>
                <circle class="cls-59" cx="561.52266" cy="41.48617" r=".52265"/>
              </g>
              <circle class="cls-5" cx="530.75639" cy="24.8753" r="3.04128"/>
              <circle class="cls-5" cx="527.74932" cy="16.70455" r="4.05504"/>
              <circle class="cls-5" cx="540.30658" cy="65.15169" r="1.21651"/>
              <circle class="cls-5" cx="548.86746" cy="64.13425" r="2.02752"/>
            </g>
            <path class="cls-3" d="m568.40373,14.4563c-4.21975-3.80434-9.18295-6.26044-14.36173-7.39835-11.30538-3.83678-24.30814-.88148-32.8097,8.54839-11.39695,12.64142-10.3881,32.12838,2.25332,43.52533.42649.3845.86139.75368,1.30288,1.10997.40608.40797.82445.80793,1.25711,1.198,12.9741,11.69687,32.97386,10.66148,44.67073-2.31261,11.69687-12.9741,10.66148-32.97386-2.31261-44.67073Z"/>
          </g>
          <g>
            <g>
              <circle class="cls-102" cx="646.44778" cy="70.80048" r="23.31646"/>
              <circle class="cls-106" cx="649.79318" cy="69.8881" r="31.62928"/>
              <circle class="cls-107" cx="646.3464" cy="70.69911" r="30.81827"/>
              <path class="cls-105" d="m638.04127,52.15752l8.55465,6.65523c.54202.42167,1.25682.54963,1.91145.34218l10.33218-3.27416c1.64855-.52241,3.18052,1.0723,2.5924,2.69856l-3.68597,10.19254c-.23354.64579-.13435,1.36515.26524,1.92364l6.30673,8.81472c1.00627,1.40643-.03698,3.35621-1.76539,3.29942l-10.83271-.3559c-.68635-.02255-1.33985.29408-1.74753.84669l-6.43441,8.72196c-1.02664,1.39163-3.20337,1.00195-3.68347-.65941l-3.00901-10.41249c-.19065-.65973-.69372-1.1834-1.34527-1.40036l-10.28342-3.42425c-1.64077-.54635-1.94281-2.73697-.51112-3.70696l8.97304-6.07937c.56852-.38518.91111-1.02546.91611-1.71216l.07891-10.83826c.01259-1.72929,2.00265-2.69349,3.36758-1.63162Z"/>
              <path class="cls-4" d="m623.90589,49.8857c-1.01934,1.53119-1.72998,4.23375-.42066,5.66144.8179.89185,2.32053,1.21171,3.59443.87701,3.01482-.79211,2.31901-4.61202,5.61073-7.1056,2.96774-2.24816,4.5708.07091,9.93069-2.31178,3.63827-1.61736,4.37525-3.34188,6.94284-3.14372,2.48918.1921,3.72264,1.96155,5.19696,1.1994,1.16534-.60243,1.76419-2.4159,1.25135-3.16-.21572-.31299-.73537-.45593-1.77468-.74179-.75739-.20833-1.33923-.29813-1.40034-.30736-2.09506-.31647-3.14259-.4747-4.63545-.54774-2.83153-.13853-5.02594.10395-5.70651.18592-1.67746.20204-3.71652.45705-6.20104,1.36904-1.61895.59427-2.9331,1.28556-4.2418,1.97398-1.50306.79066-2.55971,1.44746-2.83853,1.62201-2.70042,1.69063-3.91311,2.89382-4.25779,3.24403-.53812.54674-.80718.82012-1.0502,1.18516Z"/>
              <path class="cls-4" d="m648.67805,100.605c-.80516-.708-.88169-2.37246-.20275-3.44678.91244-1.44383,2.56922-.84047,5.8798-2.02752,2.86434-1.02704,4.82861-2.6277,6.08255-3.64953,1.05397-.85887.89084-.87673,3.85228-3.85228,4.0667-4.08607,4.30392-3.98166,4.86604-5.06879,1.66623-3.22241.84897-6.59004,1.62201-6.69081.5085-.06628.70614,1.41118,2.43302,2.63577.97263.68972,1.35743.53837,1.62201,1.01376.59076,1.06143-.88765,2.60648-2.63577,5.4743-2.56383,4.20599-1.75937,4.77974-3.24403,5.8798-2.35801,1.74717-4.27371.2157-6.89356,2.23027-1.36191,1.04726-.85876,1.4723-2.63577,3.24403-2.19,2.18348-4.47735,3.05652-6.08255,3.64953-2.19939.8125-3.77082,1.39304-4.66329.60826Z"/>
              <path class="cls-6" d="m653.74684,100.19949c-1.0742.56638-3.48453-1.32983-3.24403-2.02752.15468-.44872,1.29616-.08342,3.24403-.60826.29176-.07862,1.36635-.38325,3.04128-1.41926,4.02329-2.48857,4.08454-4.60385,7.29906-6.28531,3.06574-1.60363,4.42564-.42011,6.08255-2.23027,1.78773-1.95307,1.62173-4.87902,2.43302-4.86604.38095.0061.73929.65638.81101,1.21651.15013,1.17255-.9332,2.12638-1.82477,3.04128-2.18965,2.24695-1.29257,2.27848-3.64953,4.86604-2.43126,2.66912-4.68472,4.06158-7.29906,5.67705-3.29865,2.03831-4.7043,2.32976-5.27155,1.82477-.42806-.38109-.37429-1.21182-.60826-1.21651-.32657-.00655-.23332,1.61602-1.01376,2.02752Z"/>
              <g>
                <circle class="cls-69" cx="647.73557" cy="69.02036" r="9.01278"/>
                <circle class="cls-60" cx="669.8171" cy="60.09988" r=".30043"/>
                <circle class="cls-57" cx="670.94845" cy="59.64284" r=".30043"/>
                <circle class="cls-92" cx="670.01994" cy="60.01794" r="2.2532"/>
                <line class="cls-1" x1="652.37814" y1="67.14486" x2="670.94845" y2="59.64284"/>
                <circle class="cls-90" cx="652.37814" cy="67.14486" r="6.00852"/>
                <circle class="cls-74" cx="652.37814" cy="67.14486" r="3.00426"/>
                <circle class="cls-49" cx="652.37814" cy="67.14486" r="2.50355"/>
                <polyline class="cls-2" points="652.37814 67.14486 648.10283 80.41052 652.37814 67.14486 656.65345 53.8792 652.37814 67.14486 639.11249 62.86954 652.37814 67.14486 665.6438 71.42017 652.37814 67.14486 661.51102 74.50911 652.37814 67.14486 643.24526 59.7806 652.37814 67.14486 645.01389 76.27774 652.37814 67.14486 659.74239 58.01198 652.37814 67.14486 653.05272 80.55617 652.37814 67.14486 651.70356 53.73355 652.37814 67.14486 638.96684 67.81944 652.37814 67.14486 665.78945 66.47028 652.37814 67.14486 655.78855 73.861 652.37814 67.14486 648.96774 60.42871 652.37814 67.14486 645.662 70.55526 652.37814 67.14486 659.09429 63.73446 652.37814 67.14486 652.2966 67.78192 652.37814 67.14486 652.45969 66.5078 652.37814 67.14486 651.74108 67.06331 652.37814 67.14486 653.0152 67.2264 652.37814 67.14486 655.03391 68.74012 652.37814 67.14486 649.72238 65.5496 652.37814 67.14486 650.78288 69.80062 652.37814 67.14486 653.97341 64.48909 652.37814 67.14486 656.61379 72.73141 652.37814 67.14486 648.14249 61.5583 652.37814 67.14486 646.79158 71.38051 652.37814 67.14486 657.9647 62.90921 652.37814 67.14486 653.4113 69.34189 652.37814 67.14486 651.34499 64.94782 652.37814 67.14486 650.18111 68.17801 652.37814 67.14486 654.57518 66.1117 652.37814 67.14486 658.44259 79.86018 652.37814 67.14486 646.3137 54.42953 652.37814 67.14486 639.66281 73.2093 652.37814 67.14486 665.09348 61.08042 652.37814 67.14486 653.57413 70.69219 652.37814 67.14486 651.18215 63.59753 652.37814 67.14486 648.83082 68.34085 652.37814 67.14486 655.92547 65.94887 652.37814 67.14486 657.84861 74.98895 652.37814 67.14486 646.90767 59.30076 652.37814 67.14486 644.53405 72.61533 652.37814 67.14486 660.22224 61.67439 652.37814 67.14486 660.56367 73.65697 652.37814 67.14486 644.19262 60.63275 652.37814 67.14486 645.86603 75.33038 652.37814 67.14486 658.89026 58.95933 652.37814 67.14486 656.63766 73.89875 652.37814 67.14486 648.11863 60.39097 652.37814 67.14486 645.62425 71.40437 652.37814 67.14486 659.13203 62.88534 652.37814 67.14486 652.20492 69.07763 652.37814 67.14486 652.55137 65.21208 652.37814 67.14486 650.44537 66.97163 652.37814 67.14486 654.31092 67.31808 652.37814 67.14486 655.04843 71.08181 652.37814 67.14486 649.70786 63.2079 652.37814 67.14486 648.44119 69.81514 652.37814 67.14486 656.3151 64.47457"/>
                <circle class="cls-75" cx="670.94845" cy="59.64284" r="4.50639"/>
                <circle class="cls-50" cx="655.39857" cy="65.92467" r=".32837"/>
                <circle class="cls-46" cx="664.7455" cy="62.1487" r=".57331"/>
                <circle class="cls-47" cx="659.6902" cy="64.19094" r=".41644"/>
                <circle class="cls-48" cx="649.05252" cy="68.48834" r="1.01986"/>
                <circle class="cls-42" cx="662.78176" cy="62.94201" r=".52265"/>
              </g>
              <circle class="cls-5" cx="628.80837" cy="71.20599" r="3.04128"/>
              <circle class="cls-5" cx="621.1038" cy="67.15095" r="4.05504"/>
              <circle class="cls-5" cx="662.87067" cy="94.72519" r="1.21651"/>
              <circle class="cls-5" cx="668.54772" cy="88.23714" r="2.02752"/>
            </g>
            <path class="cls-3" d="m649.79318,38.25882c-5.68149,0-11.01236,1.49918-15.62069,4.12176-10.96585,4.72046-18.64437,15.62211-18.64437,28.31852,0,17.02046,13.79781,30.81827,30.81827,30.81827.57422,0,1.14444-.01702,1.71092-.04801.57478.0311,1.15332.04801,1.73586.04801,17.46837,0,31.62928-14.16091,31.62928-31.62928s-14.16091-31.62928-31.62928-31.62928Z"/>
          </g>
        </g>
      </g>
    </g>
  </g>
</svg>