<?xml version="1.0" encoding="UTF-8"?>
<svg id="Layer_2" data-name="Layer 2" xmlns="http://www.w3.org/2000/svg" viewBox="0 0 257.531 84.09607">
  <defs>
    <style>
      .cls-1 {
        fill: #6e502c;
      }

      .cls-2, .cls-3 {
        fill: #5d3e1f;
      }

      .cls-4 {
        fill: #482f1c;
      }

      .cls-5 {
        fill: #7c603b;
      }

      .cls-6 {
        fill: #fff;
      }

      .cls-6, .cls-7, .cls-8, .cls-3 {
        stroke-width: .75px;
      }

      .cls-6, .cls-7, .cls-3 {
        stroke: #000;
      }

      .cls-7, .cls-8, .cls-9 {
        fill: none;
      }

      .cls-7, .cls-8, .cls-9, .cls-3 {
        stroke-miterlimit: 10;
      }

      .cls-8 {
        stroke: #482f1c;
      }

      .cls-9 {
        stroke: #5d3e1f;
      }
    </style>
  </defs>
  <g id="buttons">
    <g>
      <g>
        <path class="cls-2" d="m38.57888,77.18788l-1.13965-3.41895c-.37012-1.1084-.9043-2.16992-1.59082-3.1543-1.5293-2.19043-3.76562-3.8623-6.29395-4.70312l-3.66211-1.21777.27148-4.13867c.00684-.0957.01758-.18945.01855-.28809,0-6.44336-4.82422-11.78906-11.22168-12.43457l-4.49805-.45312V7.18788h205.68945l1.14746,3.40234c.40527,1.2002.99805,2.33691,1.7627,3.37793,1.71582,2.34863,4.19434,4.02539,6.98633,4.73145l4.13086,1.0459-.37695,4.24414c-.03516.39062-.07031.84668-.07031,1.26758,0,6.45117,4.82617,11.79688,11.22656,12.43457l4.50391.44922v39.04688H38.57888Z"/>
        <path class="cls-2" d="m245.46218,42.44753v34.73999H43.09206c-.05981-1.73999-.36987-3.41998-.90991-5-.53003-1.59003-1.29004-3.08002-2.22998-4.42999-2.12988-3.04999-5.20996-5.39001-8.82007-6.59003.02002-.29999.05005-.58997.05005-.89996,0-9.06-6.8999-16.52002-15.71997-17.41003-.58984-.06-1.17993-.08997-1.78003-.08997-1.09985,0-2.17993.12-3.21997.31V7.18752h201.19995c.06006,1.73999.37012,3.41998.90015,5,.57983,1.71997,1.41992,3.31,2.46997,4.73999,2.35986,3.22998,5.80005,5.60999,9.79004,6.62-.05005.56-.09009,1.13-.09009,1.71002,0,9.07001,6.8999,16.52997,15.72998,17.40997.58008.06,1.16992.09003,1.77002.09003,1.10986,0,2.17993-.10999,3.22998-.31Z"/>
        <path class="cls-5" d="m215.03225,16.92751l-78.32007,14.58002L15.46218,12.18752l-5-5h201.19995c.05717,1.65641.34091,3.25845.82529,4.77163.02444.07635.04939.15248.07485.22837.57983,1.71997,1.41992,3.31,2.46997,4.73999Z"/>
        <path class="cls-4" d="m245.46218,77.18752H43.09206c-.05981-1.73999-.36987-3.41998-.90991-5-.53003-1.59003-1.29004-3.08002-2.22998-4.42999l110.73999-20.03998,89.77002,24.46997,5,5Z"/>
        <path class="cls-1" d="m240.46218,42.6675v29.52002H42.18215c-.53003-1.59003-1.29004-3.08002-2.22998-4.42999-.79004-1.13-1.70996-2.16003-2.72998-3.07001-1.75-1.56-3.82007-2.76001-6.09009-3.52002.02002-.29999.05005-.58997.05005-.89996,0-.79999-.05005-1.59003-.15991-2.36005v-.00995c-.38013-2.81-1.41992-5.39001-2.95996-7.61005-1.36011-1.94-3.09009-3.58997-5.1001-4.85999-2.20996-1.39001-4.76001-2.29999-7.5-2.57001V12.18752h197.1001c.57983,1.71997,1.41992,3.31,2.46997,4.73999.73999,1.01001,1.57983,1.92999,2.51001,2.76001,2.0498,1.82001,4.54004,3.16998,7.28003,3.85999-.05005.56-.09009,1.13-.09009,1.71002,0,.38.01001.76001.04004,1.14001.19995,3.09998,1.19995,5.96997,2.80005,8.41998,1.38989,2.13,3.22998,3.94,5.38989,5.28998,2.20996,1.38,4.76001,2.29004,7.5,2.56Z"/>
        <polygon class="cls-5" points="211.44606 7.3962 216.00255 7.3962 212.24873 12.08276 211.44606 7.3962"/>
        <path class="cls-9" d="m22.9622,45.42753v-25.74h194.58m15.42,20.42v24.58H37.2222"/>
        <path class="cls-8" d="m240.46218,42.6675v29.52002H42.18215c-.53003-1.59003-1.29004-3.08002-2.22998-4.42999-2.12988-3.04999-5.20996-5.39001-8.82007-6.59003.02002-.29999.05005-.58997.05005-.89996,0-9.06-6.8999-16.52002-15.71997-17.41003V12.18752h197.1001c.57983,1.71997,1.41992,3.31,2.46997,4.73999,2.35986,3.22998,5.80005,5.60999,9.79004,6.62-.05005.56-.09009,1.13-.09009,1.71002,0,9.07001,6.8999,16.52997,15.72998,17.40997Z"/>
        <line class="cls-8" x1="10.46267" y1="47.37929" x2="15.46218" y2="42.8575"/>
        <line class="cls-8" x1="25.89236" y1="64.69374" x2="31.1321" y2="61.1675"/>
        <line class="cls-8" x1="38.57888" y1="77.18788" x2="42.18215" y2="72.18752"/>
        <line class="cls-8" x1="212.56228" y1="12.18752" x2="216.15212" y2="7.18788"/>
        <line class="cls-8" x1="224.82229" y1="23.5475" x2="230.17947" y2="19.7455"/>
        <line class="cls-8" x1="240.46218" y1="42.6675" x2="245.46267" y2="38.14101"/>
        <polygon class="cls-4" points="42.39371 72.36202 38.88941 77.09656 43.58666 77.00336 42.39371 72.36202"/>
        <polygon class="cls-3" points="228.41035 .49382 224.84056 5.89988 228.38956 10.08721 236.3076 8.71275 235.52306 4.35976 228.41035 .49382"/>
        <polygon class="cls-3" points="255.53564 5.48464 249.34983 7.38748 248.96094 12.08276 254.09864 15.40726 257.1217 10.49739 255.53564 5.48464"/>
        <polygon class="cls-3" points="244.11705 19.34752 241.9731 24.91912 243.86108 28.69356 249.71212 28.69356 249.5721 22.8968 244.11705 19.34752"/>
        <path class="cls-7" d="m240.95876,37.69179c-6.40039-.6377-11.22656-5.9834-11.22656-12.43457,0-.4209.03516-.87695.07031-1.26758l.37695-4.24414-4.13086-1.0459c-2.79199-.70605-5.27051-2.38281-6.98633-4.73145-.76465-1.04102-1.35742-2.17773-1.7627-3.37793l-1.14746-3.40234h-4.48999v-.00037H10.46218v35.89001c.00024,0,.00024-.00006.00049-.00006v4.30182l4.49805.45312c6.39746.64551,11.22168,5.99121,11.22168,12.43457-.00098.09863-.01172.19238-.01855.28809l-.27148,4.13867,3.66211,1.21777c2.52832.84082,4.76465,2.5127,6.29395,4.70312.68652.98438,1.2207,2.0459,1.59082,3.1543l1.13965,3.41895h206.88379v-39.04688l-4.50391-.44922Z"/>
        <polygon class="cls-3" points="21.06137 73.66751 18.20464 79.6984 20.77767 83.64437 27.46258 81.28547 28.09741 75.88941 21.06137 73.66751"/>
        <polygon class="cls-3" points="11.85841 54.92284 6.08088 57.83922 5.82545 62.02895 11.87741 63.52162 14.26516 59.59732 11.85841 54.92284"/>
        <polygon class="cls-3" points="8.24541 72.24368 4.53749 68.66914 .41636 69.57859 1.22382 75.75837 5.30551 78.87097 8.24541 72.24368"/>
      </g>
      <g>
        <path class="cls-6" d="m58.12938,28.94995l-5.53613,24.31836h-7.9668l-5.53613-24.31836h5.47168l4.06348,18.94287,4.03223-18.94287h5.47168Z"/>
        <path class="cls-6" d="m59.15379,45.30103v-4.54395c0-6.04736,3.61621-9.88721,9.40723-9.88721,5.75977,0,9.37598,3.83984,9.37598,9.88721v4.54395c0,6.04736-3.61621,9.88721-9.37598,9.88721-5.82324,0-9.40723-3.83984-9.40723-9.88721Zm13.34375.15967v-4.70361c0-3.03955-1.4082-4.70361-3.93652-4.70361-2.52734,0-3.96777,1.66406-3.96777,4.70361v4.70361c0,3.07178,1.44043,4.7998,3.96777,4.7998,2.52832,0,3.93652-1.72803,3.93652-4.7998Z"/>
        <path class="cls-6" d="m95.69774,48.34058v4.92773h-14.39941v-24.31836h5.43945v19.39062h8.95996Z"/>
        <path class="cls-6" d="m98.16258,44.08521v-13.21533h5.43945v13.47119c0,2.65576,1.12012,3.99951,3.32715,3.99951,2.20801,0,3.2959-1.34375,3.2959-3.99951v-13.47119h5.43945v13.21533c0,5.82324-3.16699,9.18311-8.73535,9.18311-5.59961,0-8.7666-3.35986-8.7666-9.18311Z"/>
        <path class="cls-6" d="m137.937,30.86988v22.39844h-5.75977l-6.97559-12.70312v12.70312h-5.43945v-22.39844h5.91992l6.81543,12.5752v-12.5752h5.43945Z"/>
        <path class="cls-6" d="m159.50438,36.05347h-6.33496v19.13477h-5.43945v-19.13477h-6.30371v-5.18359h18.07812v5.18359Z"/>
        <path class="cls-6" d="m168.43309,34.13355v5.7915h8.41602v4.92773h-8.41602v5.40771h9.63184v4.92773h-15.07129v-26.23828h15.07129v5.18359h-9.63184Z"/>
        <path class="cls-6" d="m186.96043,34.13355v4.54395h8.41602v4.92773h-8.41602v4.73535h9.63184v4.92773h-15.07129v-24.31836h15.07129v5.18359h-9.63184Z"/>
        <path class="cls-6" d="m212.46434,55.18824l-6.97559-8.44727v8.44727h-5.43945v-24.31836h8.5752c5.44043,0,8.35156,2.75195,8.35156,7.87158,0,4.0957-1.9834,6.75146-5.53516,7.61523l7.00684,8.83154h-5.9834Zm-3.99902-19.13477h-2.97656v5.95166h2.97656c2.04785,0,3.07129-.95996,3.07129-2.97559,0-2.01611-.99219-2.97607-3.07129-2.97607Z"/>
      </g>
    </g>
  </g>
</svg>