<?xml version="1.0" encoding="UTF-8"?>
<svg id="Layer_2" data-name="Layer 2" xmlns="http://www.w3.org/2000/svg" viewBox="0 0 71.39563 546.38689">
  <defs>
    <style>
      .cls-1 {
        fill: #f5ecf0;
      }

      .cls-2 {
        fill: #b81837;
      }

      .cls-3 {
        fill: #498012;
      }

      .cls-4 {
        fill: none;
        stroke: #000;
        stroke-linejoin: bevel;
        stroke-width: 2px;
      }
    </style>
  </defs>
  <g id="candy_groups" data-name="candy groups">
    <g>
      <g>
        <path class="cls-2" d="m3.31629,104.24914c.79445-4.77776,1.68827-9.33977,2.68317-13.57313.00446-.06951-.01717-.14048.01391-.21701.31717-1.54838.67446-3.04226,1.03911-4.51801-.08474-1.26049-.15044-2.54592-.18582-3.89921-.2304-6.19449-.06317-13.28722.79071-21.03325.89039-8.17949,2.39209-15.42223,4.04267-21.59189-.03287-.16766-.04614-.36896-.08603-.56325-.23827-1.5842-.50932-3.74568-.78585-6.2301l.00946-.1475c-.92186-8.19119-1.69654-19.76338.42902-26.26859.44909-1.29606,1.62093-4.89054,3.79277-5.18711,1.40708-.19728,2.02399,1.19308,4.02803,2.28913.04233.02016.09279.04957.14325.07898,3.98892,2.08596,6.51196-.69819,10.69588.65954.02585.00166.07632.03107.11976.03385,3.09709,1.04398,6.24287,4.04346,6.63475,7.31091.37269,3.16174-2.04873,4.4969-3.30394,8.9836l-.00334.05213c-.06882.2569-.13063.54063-.20169.8325-.67592,3.06834-.39425,5.7446-.04846,7.55359.69137,2.40632,1.48507,5.7955,1.85126,9.87183l-.00167.02607c.4288,4.32463.38977,9.42086-.66697,15.02723-.15824.83528-.32162,1.61789-.51998,2.39846-1.32567,5.58913-3.37406,10.07733-5.1508,13.31896.64032,1.70573,1.50849,4.3415,2.16505,7.69571.57735,2.95675.83718,5.70162.88446,8.36286.04435,4.20401-.46083,8.27683-1.02013,12.92156-.51019,4.15101-1.01962,8.29335-2.66488,13.69623-.95897,3.26809-2.05075,6.02207-3.00689,8.15722l-.00167.02607c-.16919.32898-.30921.6077-.45066.91229.07186.10058.10752.22479.1953.35256.06005.15195.15354.3235.23853.49471.09994.20686.20823.42298.28801.67216,1.67724,3.61116,3.716,9.87796,2.08239,16.86817-.60375,2.61972-1.40307,6.11594-4.52659,8.47815-.98818.72973-2.13233,1.31008-3.31304,1.64401-.19707.08334-.40003.12246-.59543.17973-3.4548.86801-7.35217.20853-10.20434-1.66518-.1338-.0871-.30125-.19359-.43414-.29808-.0752-.04844-.11697-.0773-.19185-.13423-1.23804-.94246-2.11048-2.01809-2.78195-3.23789-.43072-.75962-.7984-1.5501-1.15235-2.41843-.24624-.64331-.51542-1.34044-.78182-2.08081-1.27429-3.50702-2.8486-9.40422-2.21775-17.33904.43769-5.74182,1.12321-11.94717,2.17055-18.49555Z"/>
        <g>
          <path class="cls-1" d="m29.93011,4.04917c-4.1873-1.35497-6.70805,1.42936-10.70371-.66204-.04601-.02712-.09262-.05428-.13922-.08144-2.26879,4.87744-4.62084,11.0536-6.34626,18.38004-.89702,3.83051-1.51498,7.43721-1.89932,10.793l-.00926.14443c.27604,2.4808.54748,4.64708.7837,6.23158.88498-2.50246,1.71509-4.5262,2.36219-5.95738,4.01046-9.06412,7.7416-13.02658,14.20985-25.41024.68753-1.30774,1.27013-2.47777,1.74201-3.43795Z"/>
          <path class="cls-1" d="m6.01337,90.459c.31717-1.54838.67446-3.04226,1.03911-4.51801-.08474-1.26049-.15044-2.54592-.18582-3.89921.24621-1.52696.5146-3.13103.8917-4.7977,1.49714-6.90278,3.477-11.68306,6.89538-19.86604,3.6503-8.67392,6.92721-15.06169,9.715-20.47857,3.47352-6.73287,6.58837-12.35541,9.00506-16.47123-.06882.2569-.13063.54063-.20169.8325-.67592,3.06834-.39425,5.7446-.04846,7.55359.69137,2.40632,1.48507,5.7955,1.85126,9.87183l-.00167.02607c-2.68043,3.06176-5.94243,7.17573-9.28358,12.2522-2.30011,3.52215-4.27725,6.89903-6.78191,11.70654-3.35978,6.45247-7.97977,15.97923-12.94669,28.60393l.03839-.59889c.00446-.06951-.01717-.14048.01391-.21701Z"/>
          <path class="cls-1" d="m33.78643,56.14121c-8.46,14.81576-14.75227,27.83857-19.26573,37.98055-7.64629,17.186-10.21701,26.0282-10.72782,36.25818-.21302,4.45388-.01061,8.45098.35529,11.78294.3547.86755.71458,1.66351,1.14918,2.41592.16044-1.00372.3533-2.12682.57482-3.31999.58497-3.10121,1.92407-9.29397,6.80966-20.71616,1.13904-2.7043,4.28204-9.91628,9.49953-19.3611,3.46746-6.24968,6.75132-11.52071,9.50439-15.66672-.04708-2.6589-.30555-5.40446-.88873-8.36361-.65422-3.34986-1.52318-5.98952-2.16246-7.69655,1.77726-3.24291,3.82782-7.72342,5.15187-13.31346Z"/>
          <path class="cls-1" d="m25.26618,122.74958c-.08089-.24631-.18737-.47067-.29479-.67093-.08549-.17468-.17101-.34877-.23397-.49783-2.75115,4.87009-5.65295,9.8278-8.70627,14.89607-2.43146,4.02161-4.88182,7.97008-7.32287,11.77353,2.85003,1.87293,6.7435,2.53286,10.20408,1.66878.19666-.0605.39232-.09629.59045-.17969,1.16061-2.65458,2.24496-5.62768,3.15617-8.92552,1.91282-6.85635,2.55284-13.06917,2.6072-18.06441Z"/>
        </g>
        <path class="cls-4" d="m33.3745,20.37625c1.25368-4.48326,3.68191-5.82443,3.3052-8.98789-.39461-3.26129-3.53481-6.26351-6.63136-7.30744-.04756-.00305-.09416-.03021-.11823-.03175-4.1873-1.35497-6.70805,1.42936-10.70371-.66204-.04601-.02712-.09262-.05428-.13922-.08144-2.0068-1.09432-2.61796-2.48591-4.0309-2.28644-2.16841.29548-3.3404,3.89082-3.7857,5.19051-2.13194,6.50391-1.35199,18.07236-.42897,26.26897l-.00926.14443c.27604,2.4808.54748,4.64708.7837,6.23158.0358.19566.04752.38979.08487.56138-1.65142,6.17215-3.15405,13.41678-4.04031,21.59467-.85907,7.74455-1.02347,14.83326-.79288,21.02997.03346,1.35396.09618,2.63788.18451,3.89926-.3604,1.47433-.72172,2.97218-1.03857,4.52122-.02874.07126-.00926.14443-.01389.21665-.99602,4.23449-1.89174,8.78963-2.68095,13.56855-1.04769,6.54866-1.7353,12.75902-2.17599,18.50178-.62915,7.92849.94889,13.82543,2.22069,17.33574.26668.74164.53586,1.4351.78464,2.07891.3547.86755.71458,1.66351,1.14918,2.41592.66952,1.22613,1.54301,2.29614,2.78622,3.24542.06854.05274.11518.07931.18431.13208.13826.10555.30059.21264.4404.29412,2.85003,1.87293,6.7435,2.53286,10.20408,1.66878.19666-.0605.39232-.09629.59045-.17969,1.18112-.33519,2.3289-.91364,3.31739-1.64673,3.12139-2.35968,3.92517-5.85777,4.52808-8.47559,1.63163-6.99465-.4057-13.25884-2.0821-16.8676-.08089-.24631-.18737-.47067-.29479-.67093-.08549-.17468-.17101-.34877-.23397-.49783-.08857-.12653-.129-.24998-.19504-.3509.14039-.30464.27927-.58579.44527-.91295l.00154-.02407c.95757-2.13583,2.05214-4.89133,3.00995-8.16201,1.65025-5.39992,2.1577-9.54488,2.66514-13.68983.5633-4.64838,1.06611-8.72112,1.02148-12.92623-.04708-2.6589-.30555-5.40446-.88873-8.36361-.65422-3.34986-1.52318-5.98952-2.16246-7.69655,1.77726-3.24291,3.82782-7.72342,5.15187-13.31346.19529-.78395.36595-1.57007.51622-2.40584,1.0598-5.60639,1.09626-10.69945.67378-15.02488l.00154-.02407c-.36629-4.08011-1.16336-7.46389-1.85421-9.8746-.34273-1.80828-.6305-4.4832.04925-7.55476.06666-.28578.13329-.57097.19841-.83268l.00309-.04814Z"/>
      </g>
      <g>
        <path class="cls-3" d="m37.27843,242.64521c.35996,4.82997.57226,9.47386.60852,13.8224.01214.06859.04996.13241.03789.21413.05865,1.57944.06541,3.11544.06073,4.63556.38093,1.20453.74926,2.43782,1.10421,3.74421,1.69124,5.9636,3.20895,12.89406,4.21433,20.62189,1.07258,8.1576,1.32934,15.54993,1.18726,21.93498.07165.1551.13223.34753.21701.52683.60676,1.48266,1.38213,3.51841,2.23931,5.86661l.02575.14554c2.83601,7.73967,6.32996,18.79896,5.80591,25.62254-.12929,1.36555-.41628,5.13532-2.45605,5.93793-1.3203.52498-2.24901-.67967-4.45565-1.26978-.0459-.00956-.10189-.02618-.15789-.0428-4.36952-1.08166-6.16122,2.22093-10.54768,1.89296-.02551.00451-.0815-.0121-.12437-.00452-3.25624-.2806-7.02303-2.4495-8.17777-5.53112-1.11106-2.98346.92516-4.85423,1.08179-9.51057l-.0091-.05144c.006-.26589-.00116-.55619-.00126-.85658-.07017-3.14112-.9778-5.67449-1.74228-7.35008-1.24172-2.17406-2.81569-5.27875-4.13709-9.15231l-.00455-.02572c-1.44104-4.09996-2.61037-9.06038-2.91178-14.75751-.04413-.84899-.07079-1.64802-.06299-2.45337-.03606-5.74409.89082-10.58978,1.84909-14.16002-1.02616-1.5055-2.494-3.86059-3.92645-6.9638-1.26133-2.73582-2.16399-5.34102-2.84035-7.91531-1.03897-4.07385-1.51297-8.15041-2.06988-12.79543-.48765-4.15372-.974-8.29883-.65544-13.93767.15751-3.40224.56582-6.33646.98896-8.63734l-.00455-.02572c.08645-.3597.15645-.66365.22173-.99308-.09364-.08069-.15771-.19292-.27326-.29626-.09434-.1334-.2258-.27792-.34893-.42413-.1461-.17729-.3025-.36161-.43904-.58481-2.48494-3.11106-5.9502-8.71653-6.01899-15.89476-.03401-2.68817-.08566-6.27423,2.38938-9.30913.78719-.94304,1.7613-1.77791,2.82929-2.38203.17172-.12765.35963-.21373.5359-.31566,3.15085-1.66171,7.09351-1.94423,10.30835-.79951.15062.05292.33853.11672.49239.18675.08454.02925.13196.04739.21818.08496,1.42606.62236,2.52847,1.46071,3.46978,2.48672.59841.63597,1.14287,1.31685,1.69245,2.07661.39162.56667.81828,1.18019,1.25249,1.83637,2.06879,3.10534,4.99527,8.46174,6.26204,16.32016.93494,5.68207,1.7389,11.87319,2.2726,18.48328Z"/>
        <g>
          <path class="cls-1" d="m35.15831,346.29768c4.3891.32448,6.17852-2.97773,10.55588-1.89238.05113.01545.10284.0308.15455.04614,1.0488-5.27606,1.87085-11.8336,1.81161-19.36024-.03592-3.93398-.28993-7.5844-.71148-10.93572l-.02522-.14252c-.85585-2.3448-1.63273-4.38512-2.23758-5.86856-.26699,2.64087-.59408,4.80365-.88373,6.34739-1.74913,9.75616-4.43541,14.48969-7.78601,28.05313-.35817,1.43339-.64703,2.70812-.87802,3.75275Z"/>
          <path class="cls-1" d="m37.92484,256.68174c.05865,1.57944.06541,3.11544.06073,4.63556.38093,1.20453.74926,2.43782,1.10421,3.74421.12252,1.54183.24175,3.16381.2702,4.87238.18066,7.06096-.61046,12.17419-1.99309,20.93403-1.49166,9.29174-3.1621,16.27396-4.58736,22.19705-1.77971,7.36407-3.47399,13.56444-4.84691,18.1356.006-.26589-.00116-.55619-.00126-.85658-.07017-3.14112-.9778-5.67449-1.74228-7.35008-1.24172-2.17406-2.81569-5.27875-4.13709-9.15231l-.00455-.02572c1.87885-3.60957,4.07345-8.37918,6.11694-14.10264,1.40029-3.96677,2.52121-7.7159,3.81573-12.97989,1.73564-7.06471,3.96736-17.41472,5.80226-30.85669l.10457.59094c.01214.06859.04996.13241.03789.21413Z"/>
          <path class="cls-1" d="m19.07176,296.60185c4.70952-16.39813,7.73775-30.54083,9.72023-41.46333,3.35749-18.50815,3.76043-27.70764,1.83334-37.76745-.84811-4.37758-1.99162-8.21295-3.13642-11.3634-.55012-.75883-1.08831-1.44689-1.68877-2.07493.08189,1.01316.16057,2.14997.22801,3.36167.16632,3.15152.33233,9.48523-1.70842,21.73964-.466,2.89716-1.81111,10.6484-4.64273,21.06034-1.88829,6.8932-3.83004,12.7921-5.52261,17.47227.6756,2.57207,1.57711,5.17825,2.84467,7.91502,1.42914,3.09953,2.89867,5.45822,3.92413,6.96522-.95847,3.57161-1.88928,8.41036-1.85143,14.15493Z"/>
          <path class="cls-1" d="m11.57077,229.87101c.13694.22013.29353.41289.44534.582.12443.14946.24876.29833.34524.42824,1.51918-5.38319,3.16396-10.88719,4.92976-16.53449,1.40958-4.48312,2.85485-8.89967,4.32543-13.17312-3.21259-1.14448-7.15156-.86331-10.30896.79594-.17673.10536-.35835.18649-.53108.31444-.49874,2.85396-.84793,5.99931-.95199,9.41913-.23419,7.11433.61576,13.30192,1.74625,18.16785Z"/>
        </g>
        <path class="cls-4" d="m27.94426,331.25125c-.15596,4.65264-2.19737,6.53085-1.082,9.51503,1.15594,3.07498,4.91795,5.24788,8.17366,5.52855.04693-.0083.09863.00704.12239.00284,4.3891.32448,6.17852-2.97773,10.55588-1.89238.05113.01545.10284.0308.15455.04614,2.20891.58779,3.13232,1.79499,4.4578,1.26649,2.03669-.80074,2.32364-4.57138,2.44838-5.93956.53056-6.82382-2.96762-17.87824-5.80605-25.62289l-.02522-.14252c-.85585-2.3448-1.63273-4.38512-2.23758-5.86856-.08113-.18162-.13851-.36743-.21543-.5253.1423-6.38767-.114-13.78205-1.19021-21.93712-.99997-7.72762-2.51948-14.65351-4.21144-20.61922-.35325-1.3075-.71832-2.54001-1.10295-3.74457.00089-1.51774-.00289-3.05855-.06201-4.63856.01104-.07604-.02522-.14252-.03783-.21377-.03543-4.34991-.24427-8.98758-.60959-13.81744-.53343-6.61045-1.33655-12.80693-2.2688-18.49063-1.26692-7.85186-4.19697-13.20714-6.26412-16.31625-.43477-.65736-.86056-1.26732-1.25477-1.83387-.55012-.75883-1.08831-1.44689-1.68877-2.07493-.94092-1.03263-2.04302-1.86527-3.47571-2.49302-.07908-.035-.13069-.04977-.21035-.08466-.15933-.06979-.34241-.13538-.49753-.18142-3.21259-1.14448-7.15156-.86331-10.30896.79594-.17673.10536-.35835.18649-.53108.31444-1.0681.60544-2.04618,1.43932-2.83288,2.38571-2.47356,3.03193-2.42581,6.62087-2.39143,9.307.07176,7.18207,3.53502,12.78535,6.01857,15.89427.13694.22013.29353.41289.44534.582.12443.14946.24876.29833.34524.42824.11603.10195.18455.21231.27262.29471-.06423.32922-.13255.63527-.21633.99244l.0042.02375c-.42436,2.30187-.83503,5.23823-.99079,8.64271-.3241,5.63715.16479,9.78434.65368,13.93152.55388,4.64951,1.03016,8.72544,2.06967,12.80028.6756,2.57207,1.57711,5.17825,2.84467,7.91502,1.42914,3.09953,2.89867,5.45822,3.92413,6.96522-.95847,3.57161-1.88928,8.41036-1.85143,14.15493-.00402.8079.0164,1.61207.06839,2.45964.29845,5.69787,1.46952,10.6546,2.90462,14.75684l.0042.02375c1.32239,3.87721,2.89836,6.97586,4.14061,9.15429.76134,1.67562,1.67457,4.20624,1.74178,7.35139.00293.29344.00576.5863.00449.85598l.00841.04751Z"/>
      </g>
      <g>
        <path class="cls-2" d="m65.26319,444.19954c-1.34024,4.65424-2.7543,9.0827-4.23086,13.17304-.01244.06853.00085.14152-.03885.21395-.49365,1.50146-1.02087,2.94416-1.5533,4.36799-.06121,1.26185-.14423,2.54628-.26518,3.89462-.48565,6.17972-1.46987,13.20582-3.21152,20.80166-1.82791,8.02219-4.155,15.04338-6.50622,20.98147.01332.17033.00328.37182.02049.56941.05395,1.60111.07388,3.77942.06199,6.27916l-.02641.14542c-.02911,8.24285-.5944,19.82716-3.45612,26.04377-.59559,1.23561-2.17421,4.67093-4.36576,4.71501-1.42044.03366-1.87286-1.41858-3.7371-2.73847-.03972-.02491-.08645-.05994-.13319-.09498-3.72169-2.53214-6.54903-.05759-10.54842-1.88886-.02549-.00463-.07222-.03966-.11506-.04744-2.956-1.39425-5.73481-4.73656-5.74719-8.0274-.00551-3.18362,2.55375-4.23057,4.31811-8.54255l.00933-.0514c.09799-.24725.19212-.52196.29637-.80368,1.02533-2.96989,1.05423-5.66079.91941-7.49759-.4092-2.47001-.80667-5.92812-.70023-10.01948l.00467-.0257c.07289-4.34522.69948-9.40294,2.39584-14.85.25353-.81145.50609-1.56999.79316-2.32248,1.96151-5.39892,4.51392-9.62089,6.65271-12.63594-.43929-1.7682-.99765-4.48652-1.26293-7.89408-.23245-3.0036-.17393-5.76013.08606-8.40906.44086-4.18107,1.41245-8.16843,2.50376-12.71765.98559-4.06446,1.96941-8.12039,4.2269-13.29743,1.32953-3.13566,2.73168-5.74533,3.92772-7.75594l.00467-.0257c.20601-.30727.37724-.56798.55288-.85422-.05978-.10819-.08087-.23569-.15333-.37274-.04213-.15787-.1152-.33905-.17988-.51893-.07542-.21701-.15805-.44417-.20856-.7009-1.24952-3.78052-2.55182-10.24066-.12282-16.99578.90189-2.53259,2.09915-5.91328,5.47429-7.89944,1.06575-.61087,2.26921-1.05538,3.48055-1.25089.20537-.06005.41148-.0755.61218-.10985,3.53186-.46372,7.32715.6409,9.94416,2.83109.12286.10195.27691.22705.39686.34617.06911.05679.10728.09027.17508.15546,1.12107,1.07897,1.86361,2.24806,2.3899,3.53716.34023.80423.61427,1.63184.86571,2.53521.17039.66742.35736,1.39095.53659,2.1571.86127,3.6306,1.74485,9.67002.20297,17.47911-1.09706,5.65301-2.49377,11.73787-4.28944,18.12173Z"/>
        <g>
          <path class="cls-1" d="m27.2694,540.66093c4.00307,1.82891,6.82815-.64608,10.5559,1.89225.04258.03225.08574.0646.12889.09695,2.81624-4.58319,5.86498-10.44683,8.42395-17.52535,1.33286-3.70148,2.36272-7.21282,3.13156-10.50188l.02586-.1424c.01195-2.49608-.0078-4.67921-.05969-6.28038-1.16772,2.38368-2.22572,4.29816-3.03359,5.64515-5.0292,8.54103-9.19249,12.04667-17.04596,23.6016-.83378,1.21971-1.54746,2.31473-2.12694,3.21407Z"/>
          <path class="cls-1" d="m60.99349,457.58654c-.49365,1.50146-1.02087,2.94416-1.5533,4.36799-.06121,1.26185-.14423,2.54628-.26518,3.89462-.4207,1.48837-.87231,3.05077-1.43914,4.66283-2.28335,6.68402-4.80139,11.20403-9.14082,18.93809-4.62644,8.19497-8.61827,14.16214-12.01227,19.2213-4.22694,6.28728-7.96953,11.513-10.84484,15.3226.09799-.24725.19212-.52196.29637-.80368,1.02533-2.96989,1.05423-5.66079.91941-7.49759-.4092-2.47001-.80667-5.92812-.70023-10.01948l.00467-.0257c3.0157-2.73215,6.73046-6.44241,10.63486-11.0996,2.69102-3.23334,5.04447-6.35963,8.08694-10.84614,4.08162-6.02187,9.76964-14.95214,16.15961-26.91967l-.10722.59047c-.01244.06853.00085.14152-.03885.21395Z"/>
          <path class="cls-1" d="m29.4474,488.47177c10.11246-13.74105,17.86486-25.95115,23.51802-35.50483,9.57758-16.18933,13.15105-24.67599,14.83844-34.77877.72534-4.39958.98533-8.39335,1.00619-11.74527-.25227-.90267-.51793-1.73483-.86284-2.53235-.27515.97852-.59626,2.07187-.95393,3.23153-.93877,3.01304-2.98325,9.01001-9.15372,19.79243-1.44337,2.55487-5.39726,9.35618-11.66934,18.13614-4.16519,5.80801-8.03512,10.66508-11.24804,14.46586-.25993,2.64658-.31987,5.40363-.08191,8.4103.26347,3.40296.82215,6.12524,1.26026,7.89461-2.13945,3.01626-4.69313,7.23035-6.65313,12.63035Z"/>
          <path class="cls-1" d="m45.59376,423.29076c.05194.254.13182.48915.21544.70046.06477.18337.12964.36617.17498.5215,3.29453-4.52026,6.74881-9.11017,10.36635-13.79241,2.87911-3.71431,5.76854-7.35378,8.63202-10.85028-2.61498-2.18917-6.40634-3.29379-9.94349-2.83464-.20232.03741-.40081.0504-.60723.11038-1.45906,2.50299-2.87911,5.33117-4.16462,8.5019-2.6909,6.58996-4.04327,12.68748-4.67344,17.6431Z"/>
        </g>
        <path class="cls-4" d="m25.73125,524.04554c-1.76244,4.30873-4.32915,5.36087-4.31985,8.54666.0158,3.28504,2.78875,6.62943,5.74422,8.02356.04689.00851.09005.04087.11378.04518,4.00307,1.82891,6.82815-.64608,10.5559,1.89225.04258.03225.08574.0646.12889.09695,1.86718,1.31849,2.31374,2.77129,3.74027,2.73613,2.18802-.04339,3.7669-3.47955,4.35914-4.7192,2.86791-6.21459,3.42753-17.79579,3.45611-26.04416l.02586-.1424c.01195-2.49608-.0078-4.67921-.05969-6.28038-.01299-.19849-.00225-.39267-.01955-.56742,2.35232-5.94047,4.68056-12.96342,6.50419-20.9845,1.74663-7.59377,2.72759-14.6162,3.2133-20.79815.12293-1.34879.20873-2.63136.26648-3.89452.52805-1.42292,1.05973-2.86909,1.55314-4.37125.03677-.06747.02586-.1424.03879-.2136,1.4778-4.09134,2.89296-8.51276,4.22812-13.16876,1.79606-6.3841,3.19542-12.4737,4.29556-18.1273,1.53947-7.803.65214-13.84261-.20627-17.47618-.17935-.76745-.36675-1.48733-.53961-2.15554-.25227-.90267-.51793-1.73483-.86284-2.53235-.52362-1.29517-1.26786-2.45879-2.39327-3.54513-.062-.06029-.10527-.09206-.16785-.15246-.12516-.12079-.27406-.24589-.40353-.34295-2.61498-2.18917-6.40634-3.29379-9.94349-2.83464-.20232.03741-.40081.0504-.60723.11038-1.21189.19672-2.41873.63891-3.48519,1.2531-3.37273,1.98389-4.57463,5.36592-5.47547,7.89673-2.42754,6.75976-1.12636,13.21714.1226,16.99518.05194.254.13182.48915.21544.70046.06477.18337.12964.36617.17498.5215.07339.13591.09931.26319.15327.37106-.17459.28641-.34497.54966-.5476.8555l-.00431.02373c-1.19754,2.01112-2.60263,4.62197-3.93131,7.76034-2.26209,5.17353-3.24425,9.23229-4.22641,13.29105-1.09571,4.55238-2.06494,8.53994-2.50564,12.72213-.25993,2.64658-.31987,5.40363-.08191,8.4103.26347,3.40296.82215,6.12524,1.26026,7.89461-2.13945,3.01626-4.69313,7.23035-6.65313,12.63035-.28441.75619-.54461,1.51738-.79027,2.33024-1.6994,5.44672-2.32308,10.50159-2.40233,14.84688l-.00431.02373c-.10678,4.09513.29467,7.54826.70285,10.02256.13187,1.83574.10917,4.526-.92033,7.49865-.09918.27618-.19826.55179-.29313.80424l-.00862.04747Z"/>
      </g>
    </g>
  </g>
</svg>