<?xml version="1.0" encoding="UTF-8"?>
<svg id="Layer_2" data-name="Layer 2" xmlns="http://www.w3.org/2000/svg" viewBox="0 0 342.37394 1334.99264">
  <defs>
    <style>
      .cls-1 {
        fill: #f8fafb;
        opacity: .1;
      }

      .cls-2 {
        fill: #e6d9cf;
      }

      .cls-3 {
        fill: #803b1c;
      }

      .cls-4 {
        fill: #9f3f7b;
      }

      .cls-5, .cls-6 {
        fill: #215176;
      }

      .cls-7 {
        fill: #a35542;
      }

      .cls-8, .cls-9 {
        fill: #7a2b5c;
      }

      .cls-10 {
        fill: #623316;
      }

      .cls-11 {
        fill: #4f738e;
      }

      .cls-12 {
        fill: none;
        stroke: #000;
        stroke-miterlimit: 10;
        stroke-width: .75px;
      }

      .cls-9, .cls-6 {
        opacity: .35;
      }
    </style>
  </defs>
  <g id="floor_clutter" data-name="floor clutter">
    <g>
      <g>
        <g>
          <g>
            <g>
              <g>
                <path class="cls-3" d="m66.00002,1241.31006c0,11.04565-8.95435,20-20.00001,19.99999v30c27.61425,0,50-22.38573,50.00001-49.99998h-30Z"/>
                <path class="cls-3" d="m46.00002,690.63562c11.04565,0,20,8.95435,20,20h30c0-27.61426-22.38574-50-50-50v30Z"/>
                <rect class="cls-3" x=".00002" y="660.63562" width="46" height="30"/>
                <rect class="cls-3" x="-184.3372" y="960.97284" width="530.67444" height="30" transform="translate(1056.97286 894.97282) rotate(90)"/>
                <rect class="cls-3" x=".00002" y="1261.31005" width="45.99998" height="30"/>
              </g>
              <rect class="cls-10" x="77.00002" y="697.13562" width="8" height="35" rx=".99921" ry=".99921" transform="translate(-633.6356 795.63564) rotate(-90)"/>
              <rect class="cls-10" x="38.00002" y="658.13562" width="8" height="35" rx=".99921" ry=".99921"/>
              <rect class="cls-10" x="77.00002" y="1219.81006" width="8" height="35" rx=".99921" ry=".99921" transform="translate(-1156.31004 1318.31008) rotate(-90)"/>
              <rect class="cls-10" x="38" y="1258.81005" width="8" height="35" rx=".99921" ry=".99921"/>
              <rect class="cls-10" x="77.00002" y="958.47284" width="8" height="35" rx=".99921" ry=".99921" transform="translate(-894.97282 1056.97286) rotate(-90)"/>
            </g>
            <g>
              <rect class="cls-3" x="96.00002" y="1147.875" width="7" height="20" transform="translate(199.00004 2315.75) rotate(180)"/>
              <path class="cls-10" d="m110.44938,1162.77222h2.31851c.5642,0,1.02158-.45738,1.02158-1.02158v-7.75127c0-.5642-.45738-1.02158-1.02158-1.02158h-2.31851c-.65816,0-1.14458-.61325-.99476-1.25414l2.35989-10.09451c.14983-.64088-.3366-1.25414-.99476-1.25414h-6.79815c-.5642,0-1.02158.45738-1.02158,1.02158v32.95684c0,.5642.45738,1.02158,1.02158,1.02158h6.79815c.65816,0,1.14458-.61325.99476-1.25414l-2.35989-10.09451c-.14983-.64088.3366-1.25414.99476-1.25414Z"/>
            </g>
          </g>
          <g>
            <path class="cls-12" d="m0,1291.30999h38v1.50073c0,.552.44739.99927.99921.99927h6.00159c.55188,0,.99921-.44727.99921-.99927v-1.50073c27.61426,0,50-22.38574,50-50h1.50079c.55188,0,.99921-.44727.99921-.99927v-6.00146c0-.55176-.44733-.99927-.99921-.99927h-1.50079v-65.43506h7v6.47852c0,.56421.4574,1.02148,1.02161,1.02148h6.79816c.65814,0,1.14459-.61328.99475-1.25415l-2.35986-10.09448c-.14984-.64087.33655-1.25415.99475-1.25415h2.31848c.56421,0,1.02161-.45728,1.02161-1.02148v-7.75146c0-.56396-.4574-1.02148-1.02161-1.02148h-2.31848c-.6582,0-1.14459-.61328-.99475-1.25415l2.35986-10.09448c.14984-.64087-.33661-1.25415-.99475-1.25415h-6.79816c-.56421,0-1.02161.45728-1.02161,1.02173v6.47827h-7v-167.9021h1.50079c.55188,0,.99921-.44727.99921-.99927v-6.00146c0-.552-.44733-.99927-.99921-.99927h-1.50079v-253.33716h1.50079c.55188,0,.99921-.44751.99921-.99927v-6.00146c0-.552-.44733-.99927-.99921-.99927h-1.50079c0-27.61426-22.38574-50-50-50v-1.50073c0-.552-.44733-.99927-.99921-.99927h-6.00153c-.55188,0-.99927.44727-.99927.99927v1.50073H0"/>
            <path class="cls-12" d="m0,690.63568h38v1.50073c0,.55176.44739.99927.99927.99927h6.00153c.55188,0,.99921-.44751.99921-.99927v-1.50073c11.04565,0,20,8.95435,20,20h-1.50073c-.55188,0-.99927.44727-.99927.99927v6.00146c0,.55176.44739.99927.99927.99927h1.50073v253.33716h-1.50073c-.55188,0-.99927.44727-.99927.99927v6.00146c0,.552.44739.99927.99927.99927h1.50073v253.33716h-1.50073c-.55188,0-.99927.44751-.99927.99927v6.00146c0,.552.44739.99927.99927.99927h1.50073c0,11.04565-8.95435,20-20,20v-1.50073c0-.55176-.44733-.99927-.99921-.99927h-6.00159c-.55182,0-.99921.44751-.99921.99927v1.50073H0"/>
          </g>
        </g>
        <g>
          <g>
            <rect class="cls-7" x=".00002" y="421.78631" width="150.7753" height="30"/>
            <rect class="cls-7" x="-79.76903" y="722.33066" width="531.08869" height="30" transform="translate(923.10598 551.55534) rotate(90)"/>
            <rect class="cls-7" x=".00002" y="1022.875" width="150.77529" height="30"/>
            <rect class="cls-7" x=".00002" y="2.875" width="72.50502" height="30"/>
            <rect class="cls-7" x="-81.10061" y="226.48065" width="377.2113" height="30" transform="translate(348.98569 133.97561) rotate(90)"/>
            <path class="cls-7" d="m170.77532,1002.87501c0,11.04565-8.95435,20-20.00001,19.99999v30c27.61425,0,50-22.38573,50.00001-49.99998h-30Z"/>
            <path class="cls-7" d="m150.77532,451.78631c11.04565,0,20,8.95435,20,20h30c0-27.61426-22.38574-50-50-50v30Z"/>
            <path class="cls-7" d="m72.50504,32.875c11.04565,0,20,8.95435,20,20h30c0-27.61426-22.38574-50-50-50v30Z"/>
            <rect class="cls-3" x="103.50504" y="39.375" width="8" height="35" rx=".99921" ry=".99921" transform="translate(50.63004 164.38004) rotate(-90)"/>
            <rect class="cls-3" x="64.50504" y=".375" width="8" height="35" rx=".99921" ry=".99921"/>
            <rect class="cls-3" x="181.77532" y="458.28631" width="8" height="35" rx=".99921" ry=".99921" transform="translate(-290.01099 661.56163) rotate(-90)"/>
            <rect class="cls-3" x="142.77532" y="419.28631" width="8" height="35" rx=".99921" ry=".99921"/>
            <rect class="cls-3" x="38.40448" y="419.28631" width="8" height="35" rx=".99921" ry=".99921"/>
            <rect class="cls-3" x="142.77531" y="1020.375" width="8" height="35" rx=".99921" ry=".99921"/>
            <rect class="cls-3" x="181.77532" y="981.38991" width="8" height="35" rx=".99921" ry=".99921" transform="translate(-813.11459 1184.66524) rotate(-90)"/>
            <rect class="cls-3" x="181.77532" y="719.83066" width="8" height="35" rx=".99921" ry=".99921" transform="translate(-551.55534 923.10598) rotate(-90)"/>
            <path class="cls-3" d="m128.01497,207.37c-11.31006-11.31-29.71002-11.31-41.02002,0-11.29999,11.31-11.29999,29.71002,0,41.01001,11.31,11.31,29.70996,11.31,41.02002,0,11.30005-11.29999,11.30005-29.70001,0-41.01001Zm-6.93005,1.98004l-10.75,10.75c-1.55994,1.56-4.09998,1.56-5.65997,0l-10.75-10.75c8.06-5.92004,19.10004-5.92004,27.15997,0Zm-15.34998,16.76001c.97998-.98004,2.56006-.98004,3.54004,0,.96997.96997.96997,2.56,0,3.52997-.97998.97998-2.56006.97998-3.54004,0-.96997-.96997-.96997-2.56,0-3.52997Zm-16.76001-11.81l10.75,10.75c1.56,1.56,1.56,4.08997,0,5.64996l2.83002-2.82001-13.58002,13.58002c-5.90997-8.06-5.90997-19.09998,0-27.15997Zm4.95001,32.10999l10.75-10.76001c1.52997-1.53003,3.98993-1.56,5.56-.09003l10.84998,10.85004c-8.05994,5.90997-19.09998,5.90997-27.15997,0Zm32.11005-4.95001l-13.58008-13.58002,2.83008,2.82001c-1.56006-1.56-1.56006-4.08997,0-5.64996l10.75-10.75c5.90991,8.06,5.90991,19.09998,0,27.15997Z"/>
          </g>
          <path class="cls-12" d="m0,32.875h64.50507v1.50098c0,.55176.44733.99902.99921.99902h6.00159c.55182,0,.99921-.44727.99921-.99902v-1.50098c11.04565,0,20,8.95459,20,20h-1.50079c-.55188,0-.99921.44751-.99921.99951v6.00146c0,.55176.44733.99902.99921.99902h1.50079v142.18213c-1.96301,1.18604-3.8172,2.62012-5.51007,4.31299-11.29999,11.31006-11.29999,29.70996,0,41.01001,1.69287,1.69287,3.54706,3.12695,5.51007,4.31299v169.09326h-46.10059v-1.50073c0-.55176-.44733-.99927-.99921-.99927h-6.00159c-.55182,0-.99921.44751-.99921.99927v1.50073H0M0,1052.875h142.77533v1.50098c0,.55176.44733.99902.99921.99902h6.00159c.55182,0,.99921-.44727.99921-.99902v-1.50098c27.60925.00024,49.99158-22.37769,49.99963-49.98486h1.50116c.55182,0,.99921-.44751.99921-.99927v-6.00171c0-.55176-.44739-.99902-.99921-.99902h-1.50079v-253.55933h1.50079c.55182,0,.99921-.44751.99921-.99927v-6.00146c0-.55176-.44739-.99927-.99921-.99927h-1.50079v-253.54443h1.50079c.55182,0,.99921-.44727.99921-.99927v-6.00146c0-.55176-.44739-.99927-.99921-.99927h-1.50079c0-27.61426-22.38574-50-50-50v-1.50073c0-.55176-.44739-.99927-.99921-.99927h-6.00159c-.55182,0-.99921.44751-.99921.99927v1.50073h-20.27026v-169.09351c1.96295-1.18604,3.81708-2.61987,5.50995-4.31274,11.30005-11.30005,11.30005-29.69995,0-41.01001-1.69287-1.69287-3.547-3.12671-5.50995-4.31299V60.875h1.50079c.55182,0,.99921-.44727.99921-.99902v-6.00146c0-.552-.44739-.99951-.99921-.99951h-1.50079c0-27.61426-22.38574-50-50-50v-1.50049c0-.552-.44739-.99951-.99921-.99951h-6.00159c-.55188,0-.99921.44751-.99921.99951v1.50049H0M0,451.78638h38.40448v1.50073c0,.552.44739.99927.99921.99927h6.00159c.55188,0,.99921-.44727.99921-.99927v-1.50073h96.37085v1.50073c0,.552.44739.99927.99921.99927h6.00159c.55182,0,.99921-.44727.99921-.99927v-1.50073c11.04565,0,20,8.95435,20,20h-1.50079c-.55182,0-.99921.44751-.99921.99927v6.00146c0,.552.44739.99927.99921.99927h1.50079v253.54443h-1.50079c-.55182,0-.99921.44751-.99921.99927v6.00146c0,.55176.44739.99927.99921.99927h1.50079v253.55933h-1.50079c-.55182,0-.99921.44727-.99921.99902v6.00171c0,.55176.44739.99927.99921.99927h1.50006c-.00818,11.03882-8.95862,19.98486-19.99927,19.98486v-1.50049c0-.552-.44739-.99951-.99921-.99951h-6.00159c-.55188,0-.99921.44751-.99921.99951v1.50049H0M126.03504,214.30029c5.90991,8.05981,5.90991,19.09985,0,27.15991l-3.52997-3.53003v-20.1001l3.52997-3.52979Zm-37.06006,27.15991c-5.90997-8.06006-5.90997-19.1001,0-27.15991l3.53009,3.53003v20.09985l-3.53009,3.53003Z"/>
        </g>
        <path class="cls-2" d="m177.00892,476.69183c-.3571.54176-.68126,1.11762-1.07678,1.61965-2.27015,2.88137-27.14949,32.00473-29.36463,34.94062-.43575.57747-.80151,1.59847-.65428,2.32872,2.60951,12.94396,7.66041,24.44066,17.43924,33.02078,4.08695,3.58594,8.63268,5.96787,13.50361,7.34235.99939.282,2.08628.21278,3.09712.09535,4.29247-.49869,8.57042-1.08262,12.85757-1.61323.32827-.04063.68685.09112,1.03136.14274.05206.18869.10413.37739.1562.56609-.58875.19149-1.16016.47729-1.76906.55928-4.15904.56006-8.33171,1.04667-12.4853,1.63474-.80997.11467-1.67334.38942-2.31282.89539-7.23468,5.72418-9.5171,17.06871-5.36834,26.80909.29014.68118,1.14292,1.34193,1.81457,1.56369,3.1411,1.03723,6.31184,1.90818,9.46837,2.86167.55761.16845,1.09802.44676,1.64638.67433-.02037.20834-.04075.41668-.06112.62501-.59821-.05186-1.21044-.00594-1.79224-.17214-2.85963-.81688-5.73741-1.56329-8.55631-2.58838-1.85664-.67513-3.12366-.21767-4.42089,1.11324-7.66146,7.86041-11.03303,18.12846-11.20506,30.14917-.18453,12.89718,3.05674,25.26906,8.21502,37.14211,1.56768,3.60861,4.38873,6.6178,6.62354,9.91165.67916,1.00105,1.31773,2.0358,1.97487,3.05509-.13314.14594-.26628.29188-.39947.43783-.41474-.38832-.90255-.71242-1.23226-1.17544-2.10297-2.95331-4.2302-5.89012-6.22547-8.93104-.98397-1.49969-2.11007-2.38371-3.65907-2.86509-22.62744-7.03171-43.07768-3.67418-61.2153,10.43302-3.19206,2.48275-6.07036,5.46882-8.96973,8.37822-.71591.71836-1.22964,1.9776-1.35547,3.10641-.98243,8.81256-1.84237,17.65516-2.75715,26.48449-.07827.7549-.27948,1.48079-.4235,2.22016-.1986-.03924-.39715-.0785-.59575-.11774-.01397-.67698-.09781-1.37014-.03169-2.02853,1.73348-17.26078,3.48098-34.51834,5.22905-51.77573,2.86495-28.28342,5.72282-56.56849,8.62334-84.84355.15388-1.49973-.15385-2.61213-1.03353-3.87121-28.02018-40.10245-56.00819-80.23253-83.99532-120.36335-.37527-.53809-.67623-1.13979-1.01186-1.71181.12961-.14259.25926-.2852.38888-.4278.45292.43427.98067.80255,1.34605,1.31398,1.78272,2.4953,3.6657,4.92687,5.24626,7.57053,3.10887,5.20007,7.47543,8.36189,12.28604,10.84713,9.95699,5.14396,20.14678,6.42034,30.43298,5.23161,13.94353-1.61139,26.50006-7.1093,38.36944-14.44993,3.06009-1.89252,6.05915-3.91317,8.96566-6.0696.77068-.5718,1.43347-1.77782,1.56496-2.84404.7057-5.72075,1.21838-11.49159,1.82533-17.23855.07763-.73497.316-1.43163.4799-2.14603.19291.04945.38583.0989.57872.14836-.00534.77018.05042,1.55451-.02513,2.30842-1.29026,12.87716-2.60075,25.74962-3.88937,38.62715-.07431.74269-.13904,1.54679.02687,2.2771,2.71059,11.93279,6.72691,23.29245,13.94945,33.14735,4.04072,5.51341,8.89428,9.69055,14.89044,11.88348,1.2615.46137,2.02646.21383,2.82764-.84951,2.28981-3.03903,27.24901-32.26102,29.62718-35.21097.24292-.30132.62021-.46089.93515-.68626.15524.17131.31048.34262.46569.51393Zm-146.407-16.4298c-.07764.09438-.15524.18875-.23284.28311.4363.67395.85486,1.36308,1.31164,2.01951,5.06393,7.27677,10.08443,14.59226,15.24692,21.78171.94468,1.31561,2.37486,2.52576,3.74961,3.0809,8.17528,3.30117,16.36579,3.67848,24.48826,2.13439,13.10168-2.49063,23.94079-9.58035,33.86483-18.67082,2.98164-2.73118,4.70054-5.77398,4.73192-10.38477.02405-3.52947.65875-6.98897,1.0108-10.48216.06616-.65672.08006-1.32562.14413-2.44291-.89539.60005-1.48739.98246-2.06637,1.38693-12.53749,8.75895-25.79851,15.822-40.79866,18.7189-12.30143,2.37571-24.57895,1.61582-36.73523-4.69185-1.59896-.82963-3.14464-1.81807-4.71501-2.73296Zm19.41065,28.36606c.60354.97811.93378,1.57532,1.31787,2.12647,5.22637,7.50019,10.49296,14.96654,15.66676,22.51079,1.13172,1.65012,2.42206,2.68048,4.10737,3.32934,14.77019,5.68626,26.89661,1.5906,37.1719-9.28949.53664-.56823.81608-1.6201.91081-2.51933,1.16756-11.08106,2.2801-22.17525,3.39931-33.26781.06539-.64832.06595-1.31176.12435-2.56026-.89669.82802-1.42975,1.29409-1.93729,1.79282-6.74508,6.62843-14.13994,12.18993-22.56526,15.97623-10.81373,4.85965-22.15297,6.48763-34.22555,3.14863-1.19135-.32952-2.37131-.74253-3.97027-1.2474Zm43.16007,185.17443c.15695.14128.31385.28257.4708.42385,9.21003-9.75885,19.86317-16.78772,32.47973-20.0568,12.61996-3.26995,25.48455-2.62732,38.5816,1.30033-3.22853-4.95457-6.46424-9.667-9.79547-14.29441-.69835-.97012-1.66901-1.83628-2.64867-2.39572-8.13075-4.64319-16.51712-5.93956-25.02012-4.66128-10.24203,1.53972-19.08596,6.37076-27.32303,12.69939-2.96458,2.2777-5.33036,4.72395-4.95153,9.36472.01106.13543-.04007.26971-.05391.40647-.58041,5.73766-1.15985,11.47558-1.7394,17.21345Zm2.69451-25.27715c.61377-.4203,1.02101-.64346,1.37129-.94736,5.1608-4.47682,10.76382-8.15862,16.90406-10.84388,9.5307-4.16797,19.45739-5.84993,30.07796-2.64432,2.44743.73873,4.8454,1.79334,7.64373,2.84445-.57429-.92092-.90851-1.5111-1.29052-2.06046-2.26955-3.26393-4.44657-6.61933-6.86575-9.7384-1.45226-1.87234-3.11921-3.73684-4.97874-4.97903-13.15918-8.79023-26.08683-9.85324-38.55769-1.96959-.78526.4964-1.47985,1.73936-1.59916,2.78851-.96187,8.45904-1.7779,16.95438-2.6295,25.44074-.05885.58725-.04498,1.19133-.07565,2.10934Zm78.10635-91.70297c-16.92693-7.51874-24.94724-22.5129-29.2854-41.09454-.62895.71168-1.05197,1.14884-1.43381,1.62894-3.38423,4.2548-6.81404,8.46441-10.0944,12.82298-.63682.8462-1.03102,2.27684-.94764,3.44568.97925,13.72964,9.76979,21.91078,17.40213,25.65219.81101.39756,1.82929.38561,2.70331.28274,5.56211-.65475,11.11078-1.38794,16.66374-2.09627,1.6643-.2123,3.32806-.42772,4.99207-.64171Zm-59.89771-84.72422c-.1864-.00333-.37285-.00665-.55926-.00998-.47331,5.79039-1.40117,11.54284-1.30258,17.38093.11812,6.99237,1.77581,13.94176,4.32969,20.63211,2.86441,7.50377,6.93648,14.00812,12.8673,18.97939,1.12472.94277,1.98872,1.45174,3.08562.00103,3.40123-4.49831,6.96686-8.83202,10.45827-13.24044.29377-.37092.50977-.82269.81942-1.33141-.45117-.22456-.73018-.39475-1.0223-.50421-6.012-2.25276-10.95247-6.39471-15.08441-11.93827-6.10616-8.19227-9.90825-17.5889-12.78173-27.46682-.24466-.84117-.53883-1.66856-.81002-2.50234Zm49.8587,179.24622c-.47991-1.47551-1.07658-2.92843-1.41956-4.43049-1.46012-6.39519-3.31525-12.77478-4.15698-19.21589-1.60896-12.31232.14755-23.73868,6.29207-33.4913,1.6202-2.57157,3.65843-4.78356,5.52833-7.19105-.0916-.07757-.22749-.26792-.38564-.31559-4.30598-1.29808-8.60794-2.62921-12.93019-3.80688-.53672-.14624-1.43775.33548-1.7372.86624-1.77281,3.14272-3.79301,6.17895-5.0438,9.62929-7.13225,19.67462-.81966,41.38296,13.85297,57.95567Zm-13.84643-19.53466c-6.27469-18.18678-5.68095-34.8484,4.59077-49.63711-5.54184-1.63967-10.68298-3.18936-15.83948-4.62761-.3793-.1058-1.08607.46667-1.27036.93978-.74133,1.90313-1.57017,3.81251-1.95025,5.86021-3.38062,18.21399,3.24261,33.52451,14.46932,47.46472Zm-41.39908-122.28822c-11.07769,9.98328-23.35002,13.99539-38.53156,7.98489.69397,1.11628,1.02571,1.70676,1.40736,2.25459,2.31154,3.31816,4.58313,6.674,6.9841,9.91017.74611,1.00563,1.76936,1.93594,2.80822,2.46208,7.85765,3.9797,15.10608,3.1633,21.90167-1.39309,2.473-1.65813,4.18624-3.62913,4.12883-7.31299-.03768-2.41761.44536-4.78969.67922-7.18582.21833-2.23743.4156-4.47969.62218-6.71984Zm30.19445,108.79947c-.19279-.34802-.35853-.71915-.58246-1.04055-3.50608-5.0326-7.10736-9.9885-10.49409-15.11647-1.65337-2.50343-3.69999-3.96375-6.15785-4.8529-8.28819-2.99833-14.91528-.02215-20.82893,5.47737-.21665.20149-.44926.50653-.48254.81002-.48303,4.4092-.93319,8.82638-1.43842,13.69638,13.07848-7.95063,26.2714-7.33924,39.98428,1.02615Zm36.7589-60.23689c-.64627-.06313-.89158-.13166-1.11963-.10292-7.42458.93557-14.85563,1.83768-22.2571,2.89542-.68215.09748-1.5037,1.0581-1.70209,1.85064-1.58864,6.34755.0573,12.10192,4.21354,17.21726.64633.79553,1.63697,1.43724,2.54171,1.73076,3.74879,1.21614,7.525,2.27595,11.29294,3.38126.68826.2019,1.38483.34823,2.41547.60409-1.70945-5.23662-2.60186-10.11135-1.77442-15.0396.82869-4.9358,3.05178-8.88121,6.38958-12.53691Zm-93.89636-24.03382c.13562.31125.20722.58488.35334.79487,4.1807,6.00905,8.3078,12.06635,12.58616,17.98834,1.69224,2.34233,4.07173,2.99053,6.46809,2.40775,1.91294-.46521,3.20712-1.59109,3.41418-4.19599.52429-6.59559,1.29317-13.14082,1.95042-19.70936.03681-.36767-.04924-.76377-.0838-1.22132-9.0813,5.51667-9.97266,7.34885-24.6884,3.93572Zm29.76602-38.4096c-1.33894,8.61085-2.38717,17.17534-.01849,26.09383,1.84278,6.93851,5.14304,12.828,10.33296,17.42133,1.11278.9848,1.8599,1.12451,2.75382-.124,1.55482-2.17161,3.28343-4.17669,4.92353-6.26768.32961-.42023.58963-.91226.91025-1.41606-11.39934-8.95335-16.316-21.59706-18.90207-35.70742Zm25.40336,81.2855c-3.36617-1.00231-6.44852-1.95869-9.54671-2.79392-.38862-.10477-1.0243.29137-1.26936.68882-3.42926,5.56201-2.79128,18.88294,1.2251,24.82259,3.01221,4.45475,6.12668,8.82528,9.20741,13.22317.30775.43937.69724.80833,1.0488,1.20997-4.4126-12.73082-6.03238-25.03724-.66524-37.15063Zm10.77373-16.75917c-9.48063-6.18642-15.46637-14.65528-16.73799-27.24929-2.16866,2.70401-4.09756,4.92372-5.81115,7.34709-.59246.83787-.97904,2.17815-.8983,3.2957.55438,7.67796,4.5686,13.16611,9.97175,17.67768.37874.31624.95998.54141,1.39208.48993,4.03475-.48059,8.05743-1.03096,12.08361-1.56113Zm-23.98509,36.23892c-1.96726-2.83429-3.88687-5.71215-5.92532-8.48131-.80295-1.09073-1.77972-2.12601-2.83511-2.86367-3.7116-2.59424-7.59565-2.85413-11.43829-1.71033-.60009.17862-1.22186,1.20064-1.31756,1.96808-.56725,4.54963-.98793,9.13791-1.44108,13.71704-.05017.50646.0062,1.03742.01927,2.01403,6.83288-5.69502,14.13171-8.11963,22.93808-4.64385Zm29.46152-15.90516c.07942-.14887.15887-.29778.23833-.44668-4.20289-5.72683-5.45633-11.95323-3.73628-18.88111-4.16301.52778-7.94669.99476-11.72519,1.49042-3.11225.40827-3.7874,1.36929-3.51897,5.00547.21587,2.92446,1.42721,5.43403,3.1383,7.7048.23702.31458.58509.63408.91597.73459,4.89255,1.48571,9.79086,2.93475,14.68784,4.39249Zm-43.66211-63.04256c-.27015-.01464-.54029-.02928-.81044-.04391-.11399,4.73422-.69826,9.47998-.22467,14.1998.61155,6.09402,3.49362,11.16444,8.55555,14.36943.49539.31367,1.46683.44591,1.77042.12457,1.35108-1.42993,2.53955-3.05558,3.90544-4.75842-7.60944-6.1019-11.5704-14.25428-13.19631-23.89146Zm-1.69068,16.92604c-.17423-.00033-.34846-.00065-.52273-.00097-.61616,6.20843-1.35816,12.39446-1.71759,18.6486-.05621.97735,1.50053,2.47489,2.5449,3.34892,1.02234.85565,2.17906.79983,3.05578-.47027,1.08498-1.57171,2.34465-2.98072,3.51696-4.47229.94606-1.20369,1.87456-2.4255,2.8907-3.74281-5.17715-2.99033-8.1069-7.57713-9.76802-13.31118Zm24.8389,27.74258c.06453-.17099.12901-.34197.19354-.51297-5.33562-4.78421-9.00151-10.61341-9.82483-18.25894-3.96527,3.2232-5.00057,5.99755-3.46541,11.01526.82676,2.70228,2.43311,5.18608,3.79369,7.70193.26935.49819,1.06866,1.01284,1.54503.97396,2.59956-.21225,5.17453-.59507,7.75798-.91924Zm-8.96011,31.90556c-1.52789-7.2548-1.53959-14.12139,1.69755-20.51007-2.28741-.68713-4.33486-1.38774-6.40462-1.85971-.47693-.10875-1.22923.40796-1.51438.90708-1.39715,2.44549-1.74648,5.24415-1.36773,8.29397.69403,5.5882,4.75447,8.87869,7.58918,13.16873Zm11.86088-18.75128c.09506-.1454.19011-.29082.28517-.43623-2.18106-3.60323-3.1065-7.38281-2.01751-11.62726-3.02704.39268-5.72009.71197-8.39538,1.121-.40905.06253-.89526.43737-1.07374.84268-.81529,1.85146.75939,6.75843,2.57002,7.44776,2.83414,1.0789,5.75015,1.78693,8.63144,2.65205Zm-18.09473-25.41358c-1.78083,2.23328-3.40571,4.3969-5.15704,6.41892-1.01212,1.16857-1.41954,2.36676-.73695,4.04411.75693,1.85999,1.87884,3.70818,3.61241,3.80823,2.45085.14146,4.87488-.44508,7.36809-.72694-1.24094-2.40236-2.49301-4.36896-3.29732-6.51207-.80172-2.13614-1.15432-4.44929-1.78919-7.03225Zm-3.61622,32.37946c-3.07267-4.4087-6.29147-9.0271-9.51027-13.64551-.16965.03282-.33926.06564-.50892.09846-.446,4.41003-.89199,8.82006-1.29594,12.81414,3.92695.25437,7.59213.49177,11.31513.73292Zm-8.25375-14.6039c-.0877.17419-.1754.34838-.2631.52258,3.10763,4.44329,6.21522,8.88661,9.17261,13.11518.60467-3.52899,1.18744-6.93008,1.7957-10.48005-3.3693-.99384-7.03725-2.07577-10.70521-3.15771Zm10.31729-2.13243c.49522,4.63483,2.51006,5.03637,8.29984,6.12977-.46315-2.23975-.93664-4.52939-1.44901-7.00713-2.21901.28417-4.48504.57438-6.85083.87736Zm-11.88651-9.58721c-2.29806.29272-4.34323.55322-6.64084.84589,1.81742,2.57889,3.60267,5.11208,5.71976,8.11615.35005-3.40594.63422-6.17083.92107-8.96204Zm5.8157,3.51205c-1.5792,2.00411-3.0562,3.87848-4.53316,5.75284.09167.13682.18335.27365.27502.41047,2.3929-.33265,4.78584-.66531,7.20111-1.00107-1.03848-1.82161-1.89366-3.32166-2.94297-5.16224Zm-4.70032-3.62495c-.27981,2.72623-.53865,5.24853-.79748,7.77083.16413.07872.32826.15744.49238.23615,1.42411-1.7845,2.84818-3.569,4.312-5.40326-1.37294-.89213-2.51829-1.63639-4.0069-2.60373Zm2.74861,10.71188l.0208.54552c2.5008.74545,5.00156,1.49092,7.50235,2.23636-.6378-1.35918.16003-3.60718-1.93687-3.47777-1.87704.11582-3.72528.45516-5.58628.69589Z"/>
      </g>
      <g>
        <g>
          <g>
            <rect class="cls-4" x="154.80244" y="1157.70884" width="103.51403" height="121.62898"/>
            <rect class="cls-1" x="167.74169" y="1154.22258" width="12.93925" height="128.32301"/>
            <rect class="cls-9" x="216.91086" y="1162.22521" width="28.46636" height="112.03926"/>
            <rect class="cls-8" x="150.92066" y="1153.94409" width="111.27758" height="8.28112"/>
            <rect class="cls-8" x="150.92066" y="1274.26447" width="111.27758" height="8.28112"/>
            <rect class="cls-8" x="162.89118" y="1149.42772" width="20.70281" height="4.51637"/>
            <g>
              <rect class="cls-8" x="154.80244" y="1189.02076" width="103.51403" height="8.28112"/>
              <circle class="cls-8" cx="154.80244" cy="1193.16132" r="4.14056"/>
              <circle class="cls-8" cx="258.31647" cy="1193.16132" r="4.14056"/>
            </g>
            <g>
              <rect class="cls-8" x="154.80244" y="1240.08196" width="103.51403" height="8.28112"/>
              <circle class="cls-8" cx="154.80244" cy="1244.22252" r="4.14056"/>
              <circle class="cls-8" cx="258.31647" cy="1244.22252" r="4.14056"/>
            </g>
            <rect class="cls-9" x="154.80244" y="1162.22521" width="103.51403" height="5.1757"/>
            <rect class="cls-9" x="154.80244" y="1197.30189" width="103.51403" height="5.1757"/>
            <rect class="cls-9" x="154.80244" y="1248.36308" width="103.51403" height="5.1757"/>
          </g>
          <g>
            <rect class="cls-12" x="162.89118" y="1149.42772" width="20.70281" height="4.51637"/>
            <path class="cls-12" d="m258.31643,1248.36306c2.28674,0,4.14056-1.8537,4.14056-4.14056,0-2.28674-1.85383-4.14056-4.14056-4.14056v-42.78003c2.28674,0,4.14056-1.85383,4.14056-4.14056s-1.85383-4.14056-4.14056-4.14056v-26.79563h3.88178v-8.28112h-78.6042v-4.51636h-20.70281v4.51636h-11.97058v8.28112h3.88178v26.79563c-2.28674,0-4.14056,1.85383-4.14056,4.14056s1.85383,4.14056,4.14056,4.14056v42.78003c-2.28674,0-4.14056,1.85383-4.14056,4.14056,0,2.28686,1.85383,4.14056,4.14056,4.14056v25.90138h-3.88178v8.28112h111.27758v-8.28112h-3.88178v-25.90138Z"/>
          </g>
        </g>
        <g>
          <g>
            <rect class="cls-11" x="226.2197" y="1217.90562" width="103.51403" height="121.62898" transform="translate(1556.69683 1000.74339) rotate(90)"/>
            <rect class="cls-1" x="271.36784" y="1182.21047" width="12.93925" height="128.32301" transform="translate(1524.20945 968.53451) rotate(90)"/>
            <rect class="cls-6" x="263.46504" y="1247.28506" width="28.46636" height="112.03926" transform="translate(1581.00291 1025.60647) rotate(90)"/>
            <rect class="cls-5" x="161.89924" y="1274.57955" width="111.27758" height="8.28112" transform="translate(-1061.18208 1496.25814) rotate(-90)"/>
            <rect class="cls-5" x="282.21962" y="1274.57955" width="111.27758" height="8.28112" transform="translate(1616.57852 940.8617) rotate(90)"/>
            <rect class="cls-5" x="200.78789" y="1309.7788" width="20.70281" height="4.51637" transform="translate(-1100.89769 1523.17627) rotate(-90)"/>
            <g>
              <rect class="cls-5" x="200.8577" y="1274.57955" width="103.51403" height="8.28112" transform="translate(1531.33482 1026.1054) rotate(90)"/>
              <circle class="cls-5" cx="252.61471" cy="1226.9631" r="4.14056"/>
              <circle class="cls-5" cx="252.61471" cy="1330.47712" r="4.14056"/>
            </g>
            <g>
              <rect class="cls-5" x="251.91889" y="1274.57955" width="103.51403" height="8.28112" transform="translate(1582.39601 975.04421) rotate(90)"/>
              <circle class="cls-5" cx="303.6759" cy="1226.9631" r="4.14056"/>
              <circle class="cls-5" cx="303.6759" cy="1330.47712" r="4.14056"/>
            </g>
            <rect class="cls-6" x="172.50943" y="1276.13226" width="103.51403" height="5.1757" transform="translate(1502.98655 1054.45367) rotate(90)"/>
            <rect class="cls-6" x="207.58611" y="1276.13226" width="103.51403" height="5.1757" transform="translate(1538.06323 1019.37699) rotate(90)"/>
            <rect class="cls-6" x="258.6473" y="1276.13226" width="103.51403" height="5.1757" transform="translate(1589.12443 968.31579) rotate(90)"/>
          </g>
          <g>
            <rect class="cls-12" x="200.78789" y="1309.77871" width="20.70281" height="4.51637" transform="translate(-1100.89761 1523.17618) rotate(-90)"/>
            <path class="cls-12" d="m307.81644,1226.96306c0-2.28674-1.8537-4.14056-4.14056-4.14056-2.28674,0-4.14056,1.85383-4.14056,4.14056h-37.60433s-5.1757,0-5.1757,0c0-2.28674-1.85383-4.14056-4.14056-4.14056s-4.14056,1.85383-4.14056,4.14056h-21.61993s-5.1757,0-5.1757,0v-3.88178s-8.28112,0-8.28112,0v78.6042h-4.51636s0,20.70281,0,20.70281h4.51636v11.97058s8.28112,0,8.28112,0v-3.88178h5.1757s21.61993,0,21.61993,0c0,2.28674,1.85383,4.14056,4.14056,4.14056s4.14056-1.85383,4.14056-4.14056h5.1757s37.60433,0,37.60433,0c0,2.28674,1.85383,4.14056,4.14056,4.14056,2.28686,0,4.14056-1.85383,4.14056-4.14056h5.1757s20.72568,0,20.72568,0v3.88178s8.28112,0,8.28112,0v-16.82103s0-12.93925,0-12.93925v-81.5173s-8.28112,0-8.28112,0v3.88178h-20.72568s-5.1757,0-5.1757,0Z"/>
          </g>
        </g>
      </g>
    </g>
  </g>
</svg>