<?xml version="1.0" encoding="UTF-8"?>
<svg id="Layer_2" data-name="Layer 2" xmlns="http://www.w3.org/2000/svg" xmlns:xlink="http://www.w3.org/1999/xlink" viewBox="0 0 327.63683 1281.39174">
  <defs>
    <style>
      .cls-1, .cls-2, .cls-3, .cls-4, .cls-5, .cls-6, .cls-7 {
        stroke-linejoin: round;
      }

      .cls-1, .cls-2, .cls-3, .cls-4, .cls-5, .cls-6, .cls-7, .cls-8, .cls-9, .cls-10, .cls-11, .cls-12, .cls-13, .cls-14, .cls-15, .cls-16, .cls-17, .cls-18, .cls-19, .cls-20, .cls-21, .cls-22, .cls-23, .cls-24, .cls-25, .cls-26 {
        stroke-linecap: round;
      }

      .cls-1, .cls-7, .cls-14, .cls-18, .cls-19, .cls-23, .cls-27, .cls-28, .cls-29, .cls-30, .cls-31 {
        stroke: #231f20;
      }

      .cls-1, .cls-18 {
        fill: #4e0a05;
      }

      .cls-2, .cls-3, .cls-4, .cls-6, .cls-13, .cls-20, .cls-21, .cls-22, .cls-24, .cls-25, .cls-32 {
        stroke: #221f20;
      }

      .cls-2, .cls-33, .cls-30 {
        fill: #54b8b4;
      }

      .cls-3, .cls-28 {
        fill: #3a8186;
      }

      .cls-4, .cls-24, .cls-32 {
        fill: #f6ceec;
      }

      .cls-5, .cls-6, .cls-7, .cls-34, .cls-35, .cls-8, .cls-9, .cls-10, .cls-11, .cls-12, .cls-13, .cls-14, .cls-15, .cls-16, .cls-17, .cls-36, .cls-26, .cls-31, .cls-37, .cls-38 {
        fill: none;
      }

      .cls-5, .cls-37 {
        stroke: #fff;
      }

      .cls-34 {
        stroke: #e6d9cf;
        stroke-width: 1.5px;
      }

      .cls-34, .cls-35, .cls-8, .cls-9, .cls-10, .cls-11, .cls-12, .cls-13, .cls-14, .cls-15, .cls-16, .cls-17, .cls-18, .cls-19, .cls-20, .cls-21, .cls-22, .cls-23, .cls-24, .cls-36, .cls-25, .cls-27, .cls-32, .cls-28, .cls-29, .cls-30, .cls-26, .cls-31, .cls-37, .cls-38 {
        stroke-miterlimit: 10;
      }

      .cls-35, .cls-8 {
        stroke-width: 3px;
      }

      .cls-35, .cls-26 {
        stroke: #dfa5c2;
      }

      .cls-39 {
        clip-path: url(#clippath);
      }

      .cls-8 {
        stroke: #f4b5d0;
      }

      .cls-40 {
        fill: #fff;
      }

      .cls-41, .cls-23, .cls-27 {
        fill: #fbf0e0;
      }

      .cls-42 {
        fill: #e6d9cf;
      }

      .cls-43 {
        fill: #803b1c;
      }

      .cls-44 {
        fill: #d38ab3;
      }

      .cls-45 {
        fill: #a35542;
      }

      .cls-46 {
        fill: #967865;
      }

      .cls-47, .cls-22, .cls-29 {
        fill: #9ad7d0;
      }

      .cls-48 {
        fill: #623316;
      }

      .cls-9, .cls-36 {
        stroke: #000;
      }

      .cls-9, .cls-38 {
        stroke-width: 1.75px;
      }

      .cls-10 {
        stroke: #cf63a5;
      }

      .cls-11 {
        stroke: #ca4b57;
      }

      .cls-12 {
        stroke: #54b8b4;
      }

      .cls-15 {
        stroke: #8cc63f;
      }

      .cls-16 {
        stroke: #fff300;
      }

      .cls-17 {
        stroke: #f3777c;
      }

      .cls-19 {
        fill: #7b3f24;
      }

      .cls-20 {
        fill: #e4313d;
      }

      .cls-21 {
        fill: #231f20;
      }

      .cls-49 {
        clip-path: url(#clippath-1);
      }

      .cls-50 {
        clip-path: url(#clippath-3);
      }

      .cls-51 {
        clip-path: url(#clippath-2);
      }

      .cls-36 {
        stroke-width: .75px;
      }

      .cls-25 {
        fill: #fab040;
      }

      .cls-26 {
        stroke-width: 2px;
      }

      .cls-38 {
        stroke: #7d6962;
      }

      .cls-52 {
        fill: #f9e0bd;
        opacity: .25;
      }
    </style>
    <clipPath id="clippath">
      <path class="cls-27" d="m154.7117,226.07036l-125.18072.79488c-1.04078-2.00591-1.15432-4.4661-.30273-6.54766.77582-1.93026,2.28982-3.44414,3.40625-5.20403h19.85101l75.16535.03788,24.3357.01883c.96513,1.77884,2.32759,3.3306,3.1227,5.18521.81359,1.85449.94619,4.21996-.39756,5.7149Z"/>
    </clipPath>
    <clipPath id="clippath-1">
      <path class="cls-30" d="m52.48551,215.11354h-19.85101c1.17326-1.85449,1.91132-3.97394,2.74397-6.03668,7.7587-19.11295,26.34184-33.38154,46.81736-35.97409,1.24903-.17025,2.55478-.30273,3.65227-.94619.94619-.58663,1.64636-1.51388,2.49795-2.25193,2.91433-2.51689,7.85341-2.19511,10.40807.70017.73805.83265,1.30574,1.85461,2.27087,2.40335.77582.45415,1.70318.54875,2.59255.64346,20.49435,2.27076,39.13444,16.8989,46.23085,36.25787.66229,1.77884,1.21092,3.61439,2.13816,5.26075l-24.3357-.01883-75.16535-.03788Z"/>
    </clipPath>
    <clipPath id="clippath-2">
      <path class="cls-30" d="m170.22932,242.25027c-1.24926.60546-2.7062.6244-4.08783.6244-49.50439.0946-99.0089.20813-148.51352.30284h-2.93316c-8.68606.01894,14.26847-17.39094,14.83616-16.31227l125.18072-.79488c5.65819,2.81962,10.97564,6.35847,15.76341,10.50278.757.64334,1.53294,1.3814,1.74107,2.36547.2839,1.36246-.73805,2.72491-1.98686,3.31166Z"/>
    </clipPath>
    <clipPath id="clippath-3">
      <path class="cls-23" d="m77.00548,170.89238c.09564-.87134.37775-1.73077.82004-2.48075,1.14905-1.94842,3.17684-3.23805,5.29638-4.0281s4.3707-1.14722,6.56936-1.67876c1.07533-.25997,2.23455-.62863,2.83721-1.55639.55465-.85386.4505-2.07884-.24032-2.82682-.74355-.80506-1.78802-.80956-2.75921-.53297.167-.35577.33515-.78524.56268-1.11997.34623-.50936.75492-.98172,1.20603-1.40078.86005-.79894,1.89747-1.41482,3.04008-1.70451,1.81696-.46066,3.75261-.09092,5.50549.57312,3.35348,1.27039,6.2826,3.63428,8.23249,6.64387,1.94989,3.00959,2.91027,6.64901,2.69921,10.22884-.10964,1.85969-.71858,3.95268-2.40798,4.73779-1.05373.48969-2.27845.34472-3.43176.20322-7.98852-.98009-16.09084-1.29957-24.08506-.36708-.60712.07082-1.24461.14512-1.81134-.08384-.37658-.15214-.69127-.42848-.95598-.73651-.90681-1.0552-1.23015-2.47799-1.07732-3.87037Z"/>
    </clipPath>
  </defs>
  <g id="floor_clutter" data-name="floor clutter">
    <g>
      <g>
        <g>
          <g>
            <rect class="cls-43" x="272.63683" y="597.98891" width="55" height="30" transform="translate(600.27367 1225.97782) rotate(180)"/>
            <rect class="cls-43" x="-23.96695" y="300.43194" width="525.11394" height="30" transform="translate(-76.84192 554.02196) rotate(-90)"/>
            <rect class="cls-43" x="273.59003" y="2.87498" width="54.0468" height="30" transform="translate(601.22687 35.74996) rotate(180)"/>
            <path class="cls-43" d="m273.59002,597.98891c-11.04565,0-20-8.95435-20-20h-30c0,27.61426,22.38574,50,50,50v-30Z"/>
            <path class="cls-43" d="m253.59002,52.87497c0-11.04565,8.95435-20,20.00001-19.99999V2.87498c-27.61425,0-50,22.38573-50.00001,49.99998h30Z"/>
          </g>
          <rect class="cls-48" x="273.59004" y=".37498" width="8" height="35" rx=".99921" ry=".99921"/>
          <rect class="cls-48" x="234.59002" y="39.67482" width="8" height="35" rx=".99921" ry=".99921" transform="translate(295.76484 -181.4152) rotate(90)"/>
          <rect class="cls-48" x="233.63683" y="556.48891" width="8" height="35" rx=".99921" ry=".99921" transform="translate(811.62574 336.35208) rotate(90)"/>
          <rect class="cls-48" x="273.59002" y="595.48891" width="8" height="35" rx=".99921" ry=".99921" transform="translate(555.18004 1225.97782) rotate(180)"/>
          <rect class="cls-48" x="234.61343" y="297.93195" width="8" height="35" rx=".99921" ry=".99921" transform="translate(554.04537 76.81852) rotate(90)"/>
          <path class="cls-48" d="m259.10001,172.48391c-11.31006-11.31-29.71002-11.31-41.02002,0-11.29999,11.31-11.29999,29.71002,0,41.01001,11.31,11.31,29.70996,11.31,41.02002,0,11.30005-11.29999,11.30005-29.70001,0-41.01001Zm-6.93005,1.98004l-10.75,10.75c-1.55994,1.56-4.09998,1.56-5.65997,0l-10.75-10.75c8.06-5.92004,19.10004-5.92004,27.15997,0Zm-15.34998,16.76001c.97998-.98004,2.56006-.98004,3.54004,0,.96997.96997.96997,2.56,0,3.52997-.97998.97998-2.56006.97998-3.54004,0-.96997-.96997-.96997-2.56,0-3.52997Zm-16.76001-11.81l10.75,10.75c1.56,1.56,1.56,4.08997,0,5.64996l2.83002-2.82001-13.58002,13.58002c-5.90997-8.06-5.90997-19.09998,0-27.15997Zm4.95001,32.10999l10.75-10.76001c1.52997-1.53003,3.98993-1.56,5.56-.09003l10.84998,10.85004c-8.05994,5.90997-19.09998,5.90997-27.15997,0Zm32.11005-4.95001l-13.58008-13.58002,2.83008,2.82001c-1.56006-1.56-1.56006-4.08997,0-5.64996l10.75-10.75c5.90991,8.06,5.90991,19.09998,0,27.15997Z"/>
          <path class="cls-36" d="m327.62934,597.98889h-46.04688v-1.50073c0-.55176-.44727-.99927-.99915-.99927h-6.00159c-.55176,0-.99927.44751-.99927.99927v1.50073c-11.04565,0-20-8.95428-20-19.99994h.54761c.552,0,.99927-.44739.99927-.99921v-6.00159c0-.55182-.44727-.99921-.99927-.99921h-.54761v-250.55695h1.52429c.55188,0,.99915-.44739.99915-.99921v-6.00159c0-.55188-.44727-.99921-.99915-.99921h-1.52429v-93.62512c1.96313-1.1861,3.81714-2.62006,5.51001-4.31293,11.30005-11.29999,11.30005-29.70001,0-41.01001-1.69287-1.69287-3.54688-3.12683-5.51001-4.31293V61.17487h1.50085c.55188,0,.99915-.44739.99915-.99921v-6.00159c0-.55188-.44727-.99921-.99915-.99921h-1.50085v-.29987c0-11.04565,8.95447-20,20.00012-20v1.50079c0,.55188.44739.99921.99915.99921h6.00171c.55176,0,.99915-.44733.99915-.99921v-1.50079h46.04675m0-30h-46.04675v-1.50079c0-.55182-.44739-.99921-.99915-.99921h-6.00171c-.55176,0-.99915.44739-.99915.99921v1.50079c-27.61426,0-50,22.38574-50.00012,50v.29987h-1.50073c-.55176,0-.99927.44733-.99927.99921v6.00159c0,.55182.44751.99921.99927.99921h1.50073v106.99615c-1.96289,1.1861-3.81714,2.62006-5.51001,4.31293-11.29993,11.31-11.29993,29.71002,0,41.01001,1.69287,1.69287,3.54712,3.12683,5.51001,4.31293v93.62512h-1.47729c-.55176,0-.99927.44733-.99927.99921v6.00159c0,.55182.44751.99921.99927.99921h1.47729v250.55695h-2.45386c-.55188,0-.99927.44739-.99927.99921v6.00159c0,.55182.44739.99921.99927.99921h2.45386c0,27.29462,21.87427,49.46588,49.04688,49.97589v.02405h.95312v1.50085c0,.55188.44751.99915.99927.99915h6.00159c.55188,0,.99915-.44727.99915-.99915v-1.50085h46.04688m-107.5769-421.41492c-5.90991-8.06-5.90991-19.09998,0-27.15997l3.53003,3.53003v20.09991l-3.53003,3.53003Zm37.06006-27.15997c5.90991,8.06,5.90991,19.09998,0,27.15997l-3.53003-3.53003v-20.09991l3.53003-3.53003Z"/>
        </g>
        <g>
          <g>
            <g>
              <rect class="cls-45" x="130.86153" y="604.23244" width="7" height="20"/>
              <path class="cls-43" d="m123.41217,609.33522h-2.31851c-.5642,0-1.02158.45738-1.02158,1.02158v7.75127c0,.5642.45738,1.02158,1.02158,1.02158h2.31851c.65816,0,1.14458.61325.99476,1.25414l-2.35989,10.09451c-.14983.64088.3366,1.25414.99476,1.25414h6.79815c.5642,0,1.02158-.45738,1.02158-1.02158v-32.95684c0-.5642-.45738-1.02158-1.02158-1.02158h-6.79815c-.65816,0-1.14458.61325-.99476,1.25414l2.35989,10.09451c.14983.64088-.3366,1.25414-.99476,1.25414Z"/>
            </g>
            <g>
              <rect class="cls-45" x="187.86153" y="832.83822" width="139.7753" height="30" transform="translate(515.49837 1695.67643) rotate(180)"/>
              <rect class="cls-45" x="-36.74425" y="608.23244" width="379.21156" height="30" transform="translate(-470.3709 776.09397) rotate(-90)"/>
              <rect class="cls-45" x="187.86155" y="383.62666" width="139.77529" height="30" transform="translate(515.49838 797.25332) rotate(180)"/>
              <path class="cls-45" d="m167.86153,433.62665c0-11.04565,8.95435-20,20.00001-19.99999v-30c-27.61425,0-50,22.38573-50.00001,49.99998h30Z"/>
              <path class="cls-45" d="m187.86153,832.83822c-11.04565,0-20-8.95435-20-20h-30c0,27.61426,22.38574,50,50,50v-30Z"/>
            </g>
            <rect class="cls-43" x="148.86153" y="420.12665" width="8" height="35" rx=".99921" ry=".99921" transform="translate(590.48819 284.76512) rotate(90)"/>
            <rect class="cls-43" x="187.86155" y="381.12666" width="8" height="35" rx=".99921" ry=".99921" transform="translate(383.7231 797.25332) rotate(180)"/>
            <rect class="cls-43" x="148.86153" y="791.33822" width="8" height="35" rx=".99921" ry=".99921" transform="translate(961.69975 655.97668) rotate(90)"/>
            <rect class="cls-43" x="187.86153" y="830.33822" width="8" height="35" rx=".99921" ry=".99921" transform="translate(383.72307 1695.67643) rotate(180)"/>
          </g>
          <g>
            <path class="cls-36" d="m327.63678,832.83821h-131.77527v-1.50079c0-.55182-.44739-.99921-.99915-.99921h-6.00171c-.55176,0-.99915.44739-.99915.99921v1.50079c-11.04565,0-20-8.95435-20-20h1.50085c.55176,0,.99915-.44733.99915-.99921v-6.00159c0-.55182-.44739-.99921-.99915-.99921h-1.50085v-363.21155h1.50085c.55176,0,.99915-.44733.99915-.99921v-6.00159c0-.55182-.44739-.99921-.99915-.99921h-1.50085c0-11.04565,8.95435-20,20-20v1.50079c0,.55188.44739.99921.99927.99921h6.00159c.55176,0,.99915-.44733.99915-.99921v-1.50079h131.77527"/>
            <path class="cls-36" d="m327.63678,383.62666h-131.77527v-1.50079c0-.55182-.44739-.99921-.99915-.99921h-6.00159c-.55188,0-.99927.44739-.99927.99921v1.50079c-27.61426,0-50,22.38574-50,50h-1.50085c-.55176,0-.99915.44739-.99915.99921v6.00159c0,.55188.44739.99921.99915.99921h1.50085v162.60577h-7v-6.47839c0-.56421-.4574-1.02161-1.02161-1.02161h-6.7981c-.6582,0-1.14453.61328-.99475,1.25415l2.35986,10.09454c.14978.64087-.33655,1.25409-.99475,1.25409h-2.3186c-.56409,0-1.02148.4574-1.02148,1.02161v7.75128c0,.56421.4574,1.02155,1.02148,1.02155h2.3186c.6582,0,1.14453.61328.99475,1.25415l-2.35986,10.09454c-.14978.64087.33655,1.25409.99475,1.25409h6.7981c.56421,0,1.02161-.45734,1.02161-1.02155v-6.47845h7v180.60577h-1.50085c-.55176,0-.99915.44739-.99915.99921v6.00159c0,.55188.44739.99921.99915.99921h1.50085c0,27.61426,22.38574,49.99994,50,49.99994v1.50085c0,.55188.44739.99915.99915.99915h6.00171c.55176,0,.99915-.44727.99915-.99915v-1.50085h131.77527"/>
          </g>
        </g>
        <g>
          <path class="cls-42" d="m154.97027,842.87616c.36499-.95035.62601-1.95215,1.11019-2.8437,13.4036-24.68006,21.22339-38.79796,34.64393-63.46966,1.90358-3.49942,1.84928-3.70654-1.42459-6.13166-5.07632-3.76031-15.8673-4.70923-21.0789-1.27369-2.2697,1.49615-3.61915,4.2643-5.38211,6.45812-.95898,1.19331-1.9087,2.39341-3.12372,3.91815-.31866-2.43082,114.58404-158.68487,117.37693-160.32288,1.02964,1.89519-22.71462,214.99593-24.63521,217.72647-.08404-1.50416-.25775-2.42125-.16445-3.31287.46333-4.42594.93862-8.85228,1.53524-13.26308.22864-1.69038-.33282-2.49945-2.04626-3.03772-30.86962-9.69747-59.54191-6.45867-85.54847,13.00253-3.67736,2.75185-6.44512,6.05359-8.43103,10.08286-1.89952,3.85406,1.53635-2.96347-.54919.8058-.40363.72937-.96196,1.38081-1.449,2.06817-.27782-.13557-.55556-.27121-.83338-.40684Zm99.21634-26.5176c.45586-3.76669.85643-7.0575,1.24989-10.34905.05494-.45952.25092-.99943.07458-1.36866-.37595-.78769-.78356-1.70877-1.47326-2.19158-21.72619-15.20851-45.01238-17.907-69.81496-7.71274-1.13062.46475-2.25298,1.49982-2.83352,2.545-5.59011,10.06521-11.06715,20.18766-16.557,30.30331-.26145.48172-.33973,1.05394-.66301,2.10184,27.55291-20.64399,57.45032-23.89725,90.01729-13.32812Zm1.39242-14.96935c.26244-.80086.476-1.20988.52396-1.63586.50795-4.51175.73731-9.06918,1.57018-13.52438.5246-2.8063-.43515-4.47061-2.55193-6.16771-16.82286-13.48745-36.17921-15.41244-56.82253-11.39824-.9325.18133-1.94499,1.18686-2.43345,2.0571-3.75791,6.69471-7.40082,13.44821-11.05754,20.19431-.23099.42612-.27867.94274-.51115,1.77252,25.59433-9.61526,49.22822-6.8017,71.28246,8.70225Zm4.01808-33.10201c.553-4.97826,1.09916-9.11195,1.40964-13.26172.07415-.98992-.40655-2.18921-1.0258-3.02734-4.45779-6.0339-10.35845-10.23636-17.85442-12.24166-9.91312-2.65199-19.63104-1.53471-29.21561,1.5599-.52994.17101-1.199.44771-1.4374.86535-2.25327,3.94754-4.42704,7.93642-6.95848,12.51959,21.02859-4.52607,39.77879-2.8321,55.08206,13.58588Zm-61.71981-1.40838c22.48413-3.82399,42.81875-1.5322,60.31643,13.52635.32407-2.56998.4585-4.50007.83338-6.38657.45458-2.28724.02163-4.24726-1.88799-5.75156-3.86899-3.0477-7.41826-6.66912-11.73899-8.95235-13.00574-6.87264-26.81383-6.33912-40.72609-2.76516-.5345.13733-1.22206.40345-1.46038.81084-1.72354,2.94608-3.34973,5.94395-5.33635,9.51845Zm68.339-57.31941c.7077-6.30972,1.43832-11.81425,1.85946-17.34018.09635-1.26446-.49543-2.95511-1.41263-3.85192-7.83114-7.65724-22.89552-5.5867-28.08029,3.76452-2.01559,3.63516-3.96428,7.30406-5.94343,10.95758,5.96841-1.80898,11.64285-3.13392,17.67174-2.37094,6.27967.79482,11.1154,4.06763,15.90515,8.84095Zm-4.67711,41.38017c.49685-4.28501,1.05697-7.8236,1.23565-11.37957.05999-1.19399-.51051-2.74887-1.37641-3.59623-3.94329-3.85902-8.75681-6.37707-14.28103-7.62048-9.11027-2.05052-17.93455-.71553-26.61379,2.0924-3.63928,1.17743-6.30088,4.6666-6.77403,8.72214,17.93227-4.54617,34.53445-3.84978,47.80961,11.78173Zm-36.71713-33.45189c.13122.19253.26252.38512.39374.57772,14.07224-5.60547,27.39508-5.6035,39.46482,5.26651.38178-3.41382.55307-6.09004,1.0174-8.71909.34207-1.93715-.27668-3.3238-1.59047-4.75621-8.23135-8.97448-22.64681-10.51001-32.80031-3.40825-.38463.26903-.8121.57425-1.02494.96032-1.84544,3.34695-3.64619,6.7163-5.46024,10.079Zm38.12584,17.3688c2.61733-7.79176,1.85021-10.16752-4.67583-14.32008-1.8374-1.16914-3.83633-2.21046-5.90735-2.92462-9.2516-3.19027-18.11238-1.47124-26.81468,2.14033-4.24843,1.76322-4.85885,5.67356-6.99378,9.49449,16.1481-4.90196,31.04866-5.78876,44.39164,5.60988Zm-93.48508,31.85825c9.32034-2.06172,17.27203-1.55264,23.91939,4.9486,2.71987-5.01927,5.29002-9.57949,7.61346-14.25138.33966-.68308-.20544-2.14047-.83544-2.82612-3.38253-3.68088-7.85968-4.72321-12.84306-4.78404-4.65896-.05682-7.44914,2.1588-9.73692,5.7483-2.29511,3.60105-5.02438,6.95024-8.11742,11.16464Zm101.38403-98.30771c1.65494-14.70612,3.22847-28.68771,4.80193-42.6693l-.83601-.19836c-7.09632,13.06047-14.19272,26.12098-21.28904,39.18149,6.45081-1.79849,11.89704-.89403,17.32312,3.68618Zm-2.24202,19.21552c.55136-4.61174,1.05206-8.69947,1.52592-12.79008.53528-4.62125-.29753-6.45707-4.94055-8.05767-2.50127-.8623-5.51212-1.01582-8.17222-.662-3.35535.44629-5.90052,2.36005-7.41136,5.57909-1.99082,4.24166-4.40669,8.30176-7.0801,13.25585,9.61232-3.6467,18.08399-4.34356,26.0783,2.6748Zm-66.0014,67.00877c1.94136-3.54871,3.62057-6.64468,5.32539-9.72782,2.25526-4.07849,2.0612-5.20372-2.36563-7.25165-2.28621-1.05761-4.9582-1.65413-7.50102-1.81705-2.13001-.13638-5.1287-.0556-6.33703,1.18001-3.24049,3.31348-5.72703,7.29802-9.00787,11.67644,8.03431-1.11293,14.5096-.02376,19.88616,5.94008Zm-8.75845-20.96733c.06376.25206.12759.50419.19143.75626,6.39161-1.00805,11.97318.47521,16.4837,4.6909.39345-.25444.61726-.32117.69696-.4621,1.65665-2.92992,3.29507-5.86914,4.94112-8.80449,2.1214-3.78339,1.87198-5.30622-2.15456-7.2486-2.14517-1.03473-4.77965-1.43526-7.21744-1.52507-1.56947-.05798-3.75037.52259-4.67227,1.59072-3.00018,3.47586-5.54742,7.30759-8.26893,11.00239Zm25.09797-9.0575c1.73507-3.14573,3.2417-5.89697,4.76741-8.63858,1.81797-3.26664,1.61687-4.4237-1.24604-6.93537-2.62487-2.30272-7.66619-3.22618-9.30212-1.30112-3.01683,3.55013-5.62918,7.41295-8.85487,11.74249,6.08931-.54615,10.90462.5602,14.63563,5.13257Zm1.96129-27.6096c3.47803,2.2166,6.47394,4.12598,9.71586,6.19211,2.64302-4.84792,5.65131-9.91512,8.07103-15.2263.42726-.93789-1.25038-3.49704-2.5957-4.21223-1.36225-.72421-4.41829-.80076-5.17375.06989-3.68654,4.24882-6.85174,8.90941-10.01744,13.17653Zm12.27498-16.59404c2.65803,1.52443,4.92468,2.82442,7.49867,4.30072,2.53094-4.61768,5.20449-9.50695,7.89099-14.38976.71062-1.29148,1.39264-2.61028-.41167-3.56425-1.69258-.89481-3.67309-1.45172-5.01584.26018-3.46672,4.41962-6.71376,8.99607-9.96215,13.39312Zm17.66007-14.31607c5.74553-10.5595,11.47526-21.09007,17.20499-31.62062l-.67675-.37311c-7.31636,9.91345-14.63271,19.82694-22.01162,29.82518,1.98036.78321,3.47789,1.37542,5.48337,2.16854Zm-24.24104,44.71741c.86611-2.46782,3.35684-4.14658,1.43519-6.863-1.92948-2.72735-4.78876-4.71093-7.95204-4.27747-1.83249.25111-3.28113,3.05232-5.18399,4.993,8.76535,1.76132,7.8315,2.58112,11.70085,6.14748Z"/>
          <line class="cls-34" x1="230.85443" y1="812.1414" x2="230.85443" y2="972.98891"/>
          <g>
            <ellipse cx="231.03469" cy="962.80897" rx="7.29231" ry="6.81435"/>
            <ellipse cx="230.90859" cy="971.86792" rx="4.78278" ry="5.04318"/>
            <path class="cls-9" d="m219.11791,950.49102c-1.95242,1.79641-2.79678,4.44651-2.12836,6.81079.8686,3.07247,4.16541,5.21497,7.78377,4.74321"/>
            <path class="cls-9" d="m242.77327,950.49102c1.86995,1.79455,2.69575,4.371,2.06759,6.68915-.83886,3.09544-4.15304,5.29704-7.84454,4.86485"/>
            <path class="cls-9" d="m213.52338,960.03831c.23662.68432,1.45101,3.96463,4.9865,5.71618,4.25505,2.10794,8.31708.24054,8.81751,0"/>
            <path class="cls-9" d="m248.18548,960.2815c-.14256.47775-1.24022,3.93999-4.86485,5.47298-3.2112,1.35813-6.09142.22326-6.62838,0"/>
            <path class="cls-9" d="m243.86789,975.74123c-.06951-.35365-.80233-3.76484-4.13508-5.31364-3.01395-1.40065-5.79983-.18419-6.20276,0"/>
            <path class="cls-9" d="m218.02339,975.74123c.08817-.43386.79899-3.65006,3.95266-5.31364,3.48316-1.83745,6.87029-.15807,7.17563,0"/>
            <path class="cls-9" d="m223.07067,982.78148c-.14099-.27932-1.46584-3.02102,0-5.87042,1.32132-2.56831,3.8801-3.22249,4.25672-3.31203"/>
            <path class="cls-9" d="m234.3206,973.35583c.41599.11301,3.02956.87047,4.37837,3.55522,1.5054,2.99647.15866,5.85245,0,6.17449"/>
          </g>
        </g>
      </g>
      <g>
        <path class="cls-19" d="m121.89797,370.72359c-6.81274-.0946-13.62501-.20813-20.43775-.30273.01894-2.34653.03788-4.69306.07577-7.05853h13.5303c.51098.79477,1.0409,1.58953,1.57082,2.3843,1.21115.11354,2.44124.22708,3.51979.88948.45415.26496.96513.64334,1.36269,1.40034.56757,1.09761.45415,2.27087.37838,2.68714Z"/>
        <path class="cls-19" d="m84.52354,363.3055v7.05853c-6.83157.01894-13.64407.03788-20.4567.05683-.05671-.41638-.17025-1.58965.41638-2.68714.39744-.73805.92725-1.13549,1.36246-1.40046,1.07867-.6244,2.3277-.73794,3.53885-.83265.23932-.35349.47979-.7075.72142-1.06206.24533-.36002.49053-.71874.73563-1.07621,4.56069-.01894,9.12127-.03788,13.68196-.05683Z"/>
        <path class="cls-3" d="m126.11793,313.29002l-14.11705,7.17206-6.98299-13.68184c-.15131-.24602-.20813-.51098-.20813-.79477,0-.62452.35956-1.23009.94619-1.53282,6.94487-3.55768,15.44162-.81382,18.98059,6.13128l1.3814,2.70608Z"/>
        <path class="cls-4" d="m138.02105,332.34626c-.81382,1.40034-2.61172,1.53282-2.81962,1.55176,1.75978,2.3843.96513,5.27969-.54886,6.03668-1.30563.66229-3.57662-.03788-4.82565-2.08168.24602,1.24903-.24579,2.51689-1.21092,3.25495-.81382.60557-1.98709.85148-2.9901.41627-1.36246-.56769-2.15734-2.27087-1.7219-4.01183-1.7413,1.2868-3.80369,1.3814-4.84459.43521-1.05984-.94619-.92725-2.87633-.51098-4.03077.03788-.13236.09471-.22708.15154-.34061l-4.78777-9.36717-1.91132-3.74698,14.11705-7.17206,1.89238,3.7091,4.82565,9.44294c.32156-.01894,2.74385-.13248,4.29573,1.70307.17002.20825,1.93003,2.36547.88936,4.20113Z"/>
        <path class="cls-22" d="m128.0103,316.99912c-.1326.13236-.2839.2459-.47309.34061l-13.09509,6.69897c-.17048.0946-.35967.15142-.52992.17036-.88936.18919-1.83555-.24602-2.25205-1.07867l-1.02173-1.96814,1.36246-.70017,14.11705-7.17206,1.32457-.6624,1.00301,1.91132c.41627.83265.22708,1.83566-.43521,2.46018Z"/>
        <path class="cls-3" d="m82.02559,305.05812c0,.26496-.05683.52992-.20825.79488l-6.96393,13.68184-14.13599-7.17206,1.3814-2.70608c3.53873-6.9451,12.03548-9.68896,18.98059-6.15022.60557.30273.94619.9083.94619,1.55165Z"/>
        <path class="cls-4" d="m72.94209,323.26288l-4.78765,9.38611c.03788.0946.0946.20813.13248.32167.41627,1.15444.54875,3.08458-.51098,4.04971-1.04078.92725-3.08458.83265-4.84448-.43521.43521,1.74095-.35956,3.4252-1.72201,3.99289-1.00301.43521-2.17628.18931-2.97104-.41627-.98407-.73805-1.47611-1.98709-1.23009-3.25495-1.24892,2.0438-3.51979,2.76291-4.82554,2.10051-1.51388-.77582-2.30876-3.65227-.54875-6.03668-.20825-.01883-2.00591-.17025-2.8008-1.55165-1.05973-1.83566.70017-4.01183.87053-4.22008,1.55176-1.83555,3.97394-1.72201,4.29573-1.70307l4.82554-9.44294,1.89238-3.69016,14.13599,7.17206-1.91132,3.72804Z"/>
        <path class="cls-22" d="m76.19704,320.21607l-1.02184,1.96814c-.41638.85148-1.36257,1.26786-2.23311,1.07867-.18919-.01894-.37838-.07577-.54875-.17036l-13.09521-6.69897c-.18931-.09471-.34061-.20825-.47309-.34061-.64346-.60557-.85159-1.60859-.43533-2.44124l1.00301-1.93026,1.32469.68134,14.13599,7.17206,1.34363.68123Z"/>
        <path class="cls-28" d="m70.99301,363.13514c4.50386.05683,9.00773.11354,13.53053.17036v.05683h-13.68196c.05683-.07577.0946-.15142.15142-.22719Z"/>
        <rect class="cls-29" x="96.80504" y="358.32855" width="25.14975" height="5.03378"/>
        <path class="cls-28" d="m119.32413,358.32855h-19.83195c-.01894-2.55466-.01894-5.0905-.03788-7.64516-4.12537-.05683-8.25073-.11354-12.39504-.18931-.07565,2.61149-.15142,5.22298-.22708,7.83446h-20.13491c-.45415-10.76762-.01894-24.33593,3.02787-39.38034,1.36246-6.68003,3.02776-12.67894,4.78765-17.92075h11.18401v14.89299h14.91193v-14.89299h9.40505c2.72491,6.33941,5.94209,15.40385,7.87212,26.85282,2.04391,11.97866,2.00603,22.53815,1.43822,30.44827Z"/>
        <path class="cls-29" d="m89.19765,358.32855v5.03378h-4.67411v-.05683c-4.56069.01894-9.12127.03788-13.68196.05683h-6.79357v-5.03378h25.14964Z"/>
        <rect class="cls-29" x="77.54067" y="326.47983" width="29.91846" height="4.01183"/>
        <path class="cls-28" d="m106.28586,330.49165v12.86825c-2.44124,1.34351-7.51279,3.69004-14.24965,3.5765-6.22588-.0946-10.91905-2.25193-13.32229-3.5765v-12.86825h27.57193Z"/>
        <rect class="cls-2" x="82.02153" y="303.37024" width="20.47413" height="15.06936"/>
        <path class="cls-1" d="m157.45428,311.6795c7.08116,1.21704,14.95213-.13242,20.13468-5.1088,5.18232-4.97644,6.60229-13.99884,1.92633-19.45374,1.28438,2.15404-.52599,5.16713-2.96677,5.74343-2.44078.57624-4.99105-.6937-6.7633-2.46804-1.77249-1.77433-2.97948-4.02066-4.44865-6.05309-3.15042-4.3581-7.90238-7.88632-13.26927-8.22336-5.36689-.33709-11.09299,3.30987-11.88187,8.62923-6.06822.43353-10.84697,7.90596-11.27689,13.97475-.57685,8.14422,6.28197,15.51064,13.27044,18.64892,8.86968,3.98306,22.22675,4.37728,29.8472-2.42229,3.26014-2.90896,4.81918-6.32018,5.56278-8.37582"/>
        <path class="cls-6" d="m128.90857,298.71986c-.1483,1.71959-.17395,4.34799.64034,7.37211.47425,1.76105,2.36616,8.36831,8.96245,12.34122,7.42698,4.47326,15.10274,2.16467,16.30141,1.78236"/>
        <path class="cls-1" d="m25.3998,309.34517c-7.08116,1.21704-14.95213-.13242-20.13468-5.1088-5.18232-4.97644-6.60229-13.99884-1.92633-19.45374-1.28438,2.15404.52599,5.16713,2.96677,5.74343,2.44078.57624,4.99105-.6937,6.7633-2.46804,1.77249-1.77433,2.97948-4.02066,4.44865-6.05309,3.15042-4.3581,7.90238-7.88632,13.26927-8.22336,5.36689-.33709,11.09299,3.30987,11.88187,8.62923,6.06822.43353,10.84697,7.90596,11.27689,13.97475.57685,8.14422-6.28197,15.51064-13.27044,18.64892-8.86968,3.98306-22.22675,4.37728-29.8472-2.42229-3.26014-2.90896-4.81918-6.32018-5.56278-8.37582"/>
        <path class="cls-6" d="m53.88875,295.78254c.20629,1.82279.30354,4.68127-.58351,7.97509-.4687,1.74049-2.36154,8.3507-8.96245,12.34122-7.50205,4.53534-15.27414,2.17374-16.4712,1.78814"/>
        <rect class="cls-25" x="36.81967" y="274.73762" width="10.28782" height="14.51432" rx="1.0955" ry="1.0955" transform="translate(-173.18972 94.93582) rotate(-40.53153)"/>
        <rect class="cls-25" x="134.0908" y="276.388" width="10.54557" height="14.51432" rx="1.0955" ry="1.0955" transform="translate(60.95518 589.79693) rotate(-139.46847)"/>
        <path class="cls-32" d="m24.7763,273.50611c-.9477-1.67078-1.67755-3.48381-2.24103-5.31799-.87636-2.85263-1.39878-5.87628-.94355-8.82556.45521-2.94922,1.99199-5.82503,4.52144-7.40836,5.94463-3.72108,12.69574,1.87687,12.30967,8.23953.6162,2.38921,1.38486,4.21419,1.96722,5.43079.9947,2.07796,2.07233,4.09531,3.88501,7.67822.67684,1.3378,1.35472,2.95476.62521,4.2646-.27161.48756-.71029.85978-1.16829,1.1787-4.56356,3.17781-10.71194,3.09194-15.02058-.44607-1.61403-1.32535-2.90361-2.97535-3.9351-4.79387Z"/>
        <path class="cls-32" d="m158.97777,273.50611c.9477-1.67078,1.67755-3.48381,2.24103-5.31799.87636-2.85263,1.39878-5.87628.94355-8.82556-.45521-2.94922-1.99199-5.82503-4.52144-7.40836-5.94463-3.72108-12.69574,1.87687-12.30967,8.23953-.6162,2.38921-1.38486,4.21419-1.96722,5.43079-.9947,2.07796-2.07233,4.09531-3.88501,7.67822-.67684,1.3378-1.35472,2.95476-.62521,4.2646.27161.48756.71029.85978,1.16829,1.1787,4.56356,3.17781,10.71194,3.09194,15.02058-.44607,1.61403-1.32535,2.90361-2.97535,3.9351-4.79387Z"/>
        <path class="cls-24" d="m122.61685,243.34776c-5.43088-3.78475-9.27246-9.65107-9.424-9.91603-2.47889-3.86041-4.2389-8.19402-5.09038-12.69788-11.73275,5.73395-26.87176,3.55768-36.52283-5.22286-.0946,2.98987-.81371,15.47962-10.86222,26.09582-10.01074,10.57843-22.38684,11.99771-25.4146,12.26256,2.53572,22.46249,18.16676,40.95104,39.05855,47.63119,3.63345,1.19209,7.4182,1.98697,11.33543,2.40324,1.98697.20813,3.99289.32179,6.03668.32179,3.02776,0,5.97986-.22719,8.87525-.70029,3.25483-.49192,6.41507-1.2868,9.46188-2.34653,22.17859-7.55056,38.18802-28.44235,38.45298-53.11901-2.13839.3785-15.59316,2.49795-25.90675-4.712Zm-23.88166,41.04564c-3.955,2.85751-9.7079,2.93316-13.73855.20813-4.04971-2.72503-6.52872-8.1939-5.3744-12.92485,7.81552.07565,15.64999.15131,23.48434.22708.49204,1.7599.54886,3.57662.22708,5.27969-.54875,2.83856-2.11945,5.43111-4.59846,7.20995Z"/>
        <line class="cls-13" x1="148.54662" y1="248.05442" x2="148.52769" y2="248.05442"/>
        <line class="cls-13" x1="35.30683" y1="253.86401" x2="35.28791" y2="253.86401"/>
        <g>
          <g>
            <path class="cls-21" d="m103.33365,277.18345c-1.93014-.20813-6.01774-.35956-10.59726,1.62742-4.01183,1.74107-6.52872,4.33361-7.73975,5.79067-4.04971-2.72503-6.52872-8.1939-5.3744-12.92485,7.81552.07565,15.64999.15131,23.48434.22708.49204,1.7599.54886,3.57662.22708,5.27969Z"/>
            <path class="cls-20" d="m103.33365,277.18345c-.54875,2.83856-2.11945,5.43111-4.59846,7.20995-3.955,2.85751-9.7079,2.93316-13.73855.20813,1.21103-1.45705,3.72793-4.0496,7.73975-5.79067,4.57952-1.98697,8.66711-1.83555,10.59726-1.62742Z"/>
            <ellipse class="cls-21" cx="77.03126" cy="263.71965" rx="1.58568" ry="3.62466"/>
            <ellipse class="cls-21" cx="105.83081" cy="263.71965" rx="1.58568" ry="3.62466"/>
          </g>
          <path class="cls-13" d="m75.92662,260.58007c-1.0414.56012-2.47145.24226-3.17752-.70627"/>
          <path class="cls-13" d="m106.30892,260.26903c1.22736.44446,2.71382.03793,3.54415-.96931"/>
          <g>
            <path class="cls-10" d="m113.82874,266.91022l.53962.67453"/>
            <path class="cls-12" d="m110.7259,271.63194l1.07925.53962"/>
            <path class="cls-17" d="m116.52686,271.09231h.67453"/>
            <path class="cls-15" d="m119.35989,266.77532l.94434-.40472"/>
            <path class="cls-11" d="m113.69383,276.08384h.94434"/>
            <path class="cls-16" d="m121.51838,272.30647h.67453"/>
          </g>
          <g>
            <path class="cls-15" d="m69.64626,268.65667l-.53962.67453"/>
            <path class="cls-16" d="m72.7491,273.37839c-.35975.17987-.7195.35975-1.07925.53962"/>
            <path class="cls-17" d="m66.94813,272.83876h-.67453"/>
            <path class="cls-10" d="m64.11511,268.52177l-.94434-.40472"/>
            <path class="cls-11" d="m69.78116,277.83029h-.94434"/>
            <path class="cls-12" d="m61.95661,274.05292h-.67453"/>
          </g>
        </g>
        <path class="cls-13" d="m68.60403,235.0626c-.86956,4.5744.65224,9.53629,3.93695,12.83658s8.23934,4.84556,12.8178,3.99766"/>
        <path class="cls-13" d="m113.46192,232.79432c1.01901,4.46615,3.20584,8.66051,6.28412,12.05302,3.35988,3.70285,7.93477,6.48755,12.91646,6.91486,4.98169.42732,10.30308-1.81135,12.83153-6.12491"/>
        <path class="cls-5" d="m37.25828,298.49066c-1.1758,1.34663-2.3516,2.69327-3.52741,4.0399"/>
        <path class="cls-5" d="m40.48566,301.64613c-1.57437,1.8891-3.14874,3.7782-4.72311,5.6673"/>
        <path class="cls-5" d="m138.07014,304.22006c2.62766,1.08641,5.25555,2.17276,7.88321,3.25916"/>
        <path class="cls-5" d="m139.81748,300.64807c2.04529.65141,4.09058,1.30282,6.13587,1.95423"/>
        <path class="cls-18" d="m91.73753,190.58288c-31.37563,0-56.80916,25.43354-56.80916,56.80916,0,2.19511.13248,4.35244.3785,6.47189,3.02776-.26496,15.40397-1.68424,25.4146-12.26256,3.30045-3.48687,5.58022-7.1716,7.17622-10.65975,1.07105,5.65622,3.93259,12.31765,5.3975,14.24191,4.77206,6.26826,12.36755,10.298,20.23355,10.73482-4.75647-5.59685-7.03866-13.22353-6.13821-20.51306,2.92149,8.2013,11.77838,13.85729,20.44769,13.05813-.20975-5.11579-.41927-10.23181-.62879-15.3476,1.76209-.44457,3.3939-.97887,4.89541-1.57994.35621.63503.69901,1.27802,1.09218,1.89041.15154.26496,3.99312,6.13128,9.424,9.91603,10.31359,7.20995,23.76835,5.0905,25.90675,4.712.01894-.20813.01894-.43521.01894-.66229,0-31.37563-25.43365-56.80916-56.80916-56.80916Z"/>
        <g>
          <g>
            <path class="cls-41" d="m154.7117,226.07036l-125.18072.79488c-1.04078-2.00591-1.15432-4.4661-.30273-6.54766.77582-1.93026,2.28982-3.44414,3.40625-5.20403h19.85101l75.16535.03788,24.3357.01883c.96513,1.77884,2.32759,3.3306,3.1227,5.18521.81359,1.85449.94619,4.21996-.39756,5.7149Z"/>
            <g class="cls-39">
              <path class="cls-37" d="m28.58734,223.13674c1.28032,3.00965,4.40454,5.14093,7.67385,5.23493"/>
              <path class="cls-37" d="m47.72017,230.09829c4.3205-3.60562,7.45762-8.6066,8.82343-14.0657"/>
              <path class="cls-37" d="m74.41949,229.53947c4.16385-4.32972,7.01239-9.90809,8.07822-15.81979.45456-2.52123.56684-5.23245-.55746-7.53444"/>
              <path class="cls-37" d="m99.5555,229.03031c5.57289-4.70414,9.42387-11.40494,10.68279-18.58834"/>
              <path class="cls-37" d="m125.18626,229.06785c5.73668-4.95647,9.97379-11.62637,12.02263-18.92558"/>
              <path class="cls-37" d="m144.6737,229.96942c5.18245-4.29969,9.07341-10.13637,11.04886-16.57397"/>
              <path class="cls-37" d="m34.82813,230.37718c-2.16975-1.11119-3.88084-3.08782-4.66971-5.39438-.78887-2.30656-.64663-4.91706.38819-7.12425"/>
              <path class="cls-37" d="m37.25474,216.97081c38.24394-.09469,76.48788-.18933,114.73182-.28402"/>
              <path class="cls-44" d="m76.59269,211.44686c-3.41587,7.73373-8.87552,14.46571-15.88318,19.22388-1.11567.75753-1.61118,2.19925-.89688,3.42047.64709,1.10631,2.29823,1.65888,3.42047.89688,7.69213-5.22293,13.91396-12.49806,17.67694-21.01764.5451-1.23413.36033-2.68514-.89688-3.42047-1.06309-.6218-2.87216-.34454-3.42047.89688h0Z"/>
              <path class="cls-44" d="m102.24693,212.32635c-4.15311,7.43187-9.30744,14.20579-15.36905,20.18399-2.29455,2.26297,1.24135,5.79814,3.53553,3.53553,6.34468-6.25736,11.80372-13.41684,16.15087-21.19592,1.57135-2.81188-2.74577-5.33589-4.31735-2.5236h0Z"/>
              <path class="cls-44" d="m129.00492,210.85651c-3.42497,7.19799-8.78564,13.01975-15.6395,16.94358-1.17099.67039-1.57404,2.26275-.89688,3.42047.68855,1.1772,2.24452,1.57011,3.42047.89688,7.51807-4.30409,13.70841-10.90911,17.43326-18.73734.57979-1.2185.33737-2.69856-.89688-3.42047-1.08974-.63739-2.83782-.32764-3.42047.89688h0Z"/>
              <path class="cls-44" d="m148.97687,211.52806c-4.37187,8.15253-10.15987,15.39081-17.1379,21.4637-1.01902.88684-.90817,2.62736,0,3.53553,1.01094,1.01094,2.51397.88905,3.53553,0,7.26734-6.32468,13.36687-13.98563,17.91972-22.47564,1.52044-2.83528-2.79445-5.36345-4.31735-2.5236h0Z"/>
              <path class="cls-35" d="m147.99893,214.23c-4.69809,6.93256-10.57909,13.06128-17.31202,18.04124"/>
              <path class="cls-35" d="m127.23885,214.81428c-4.20734,6.48938-10.57603,11.5509-17.84775,14.18449"/>
              <path class="cls-35" d="m99.33211,214.15355c-2.0602,7.97182-8.28508,14.74189-16.05631,17.46258"/>
              <path class="cls-35" d="m76.07108,214.18007c-4.02428,7.19625-9.98404,13.29812-17.08348,17.49083"/>
              <path class="cls-44" d="m50.15318,212.28805c-3.35102,8.35948-9.4504,15.5832-17.03971,20.40177-2.70904,1.72002-.20357,6.04887,2.5236,4.31735,8.77141-5.56911,15.47768-13.76118,19.33751-23.38992.50256-1.2537-.54839-2.7462-1.7461-3.0753-1.42538-.39165-2.57088.48777-3.0753,1.7461h0Z"/>
              <path class="cls-35" d="m48.18686,213.65205c-2.05933,7.5878-7.48103,14.19643-14.52009,17.69887"/>
            </g>
            <path class="cls-31" d="m154.7117,226.07036l-125.18072.79488c-1.04078-2.00591-1.15432-4.4661-.30273-6.54766.77582-1.93026,2.28982-3.44414,3.40625-5.20403h19.85101l75.16535.03788,24.3357.01883c.96513,1.77884,2.32759,3.3306,3.1227,5.18521.81359,1.85449.94619,4.21996-.39756,5.7149Z"/>
          </g>
          <g>
            <path class="cls-33" d="m52.48551,215.11354h-19.85101c1.17326-1.85449,1.91132-3.97394,2.74397-6.03668,7.7587-19.11295,26.34184-33.38154,46.81736-35.97409,1.24903-.17025,2.55478-.30273,3.65227-.94619.94619-.58663,1.64636-1.51388,2.49795-2.25193,2.91433-2.51689,7.85341-2.19511,10.40807.70017.73805.83265,1.30574,1.85461,2.27087,2.40335.77582.45415,1.70318.54875,2.59255.64346,20.49435,2.27076,39.13444,16.8989,46.23085,36.25787.66229,1.77884,1.21092,3.61439,2.13816,5.26075l-24.3357-.01883-75.16535-.03788Z"/>
            <g class="cls-49">
              <path class="cls-47" d="m35.43148,216.58117c5.48678-17.17911,17.39741-31.84212,33.09704-40.71646,4.39385-2.48366,9.01491-4.48133,13.82872-5.99547,3.05887-.96214,1.7526-5.79075-1.3292-4.8214-18.42357,5.79497-34.2667,18.41897-43.85499,35.20866-2.70933,4.7442-4.90115,9.79231-6.56297,14.99547-.98127,3.07235,3.84457,4.38765,4.8214,1.3292h0Z"/>
            </g>
            <path class="cls-31" d="m52.48551,215.11354h-19.85101c1.17326-1.85449,1.91132-3.97394,2.74397-6.03668,7.7587-19.11295,26.34184-33.38154,46.81736-35.97409,1.24903-.17025,2.55478-.30273,3.65227-.94619.94619-.58663,1.64636-1.51388,2.49795-2.25193,2.91433-2.51689,7.85341-2.19511,10.40807.70017.73805.83265,1.30574,1.85461,2.27087,2.40335.77582.45415,1.70318.54875,2.59255.64346,20.49435,2.27076,39.13444,16.8989,46.23085,36.25787.66229,1.77884,1.21092,3.61439,2.13816,5.26075l-24.3357-.01883-75.16535-.03788Z"/>
          </g>
          <g>
            <path class="cls-33" d="m170.22932,242.25027c-1.24926.60546-2.7062.6244-4.08783.6244-49.50439.0946-99.0089.20813-148.51352.30284h-2.93316c-8.68606.01894,14.26847-17.39094,14.83616-16.31227l125.18072-.79488c5.65819,2.81962,10.97564,6.35847,15.76341,10.50278.757.64334,1.53294,1.3814,1.74107,2.36547.2839,1.36246-.73805,2.72491-1.98686,3.31166Z"/>
            <g class="cls-51">
              <path class="cls-47" d="m14.32024,247.3435c12.46967-16.87219,31.45769-28.57168,51.92923-32.84578,5.73351-1.19706,11.56474-1.75946,17.42104-1.72547,3.21796.01868,3.22167-4.9813,0-5-22.30577-.12948-44.29406,8.42355-60.98998,23.14692-4.72238,4.16445-8.93707,8.83952-12.67765,13.90074-.80304,1.08657-.18003,2.79059.89688,3.42047,1.27144.74366,2.61552.19227,3.42047-.89688h0Z"/>
              <path class="cls-47" d="m15.90982,243.97199c13.37602-10.88165,29.86215-17.89962,46.92973-20.24898,4.82968-.66481,9.71886-.91141,14.59139-.8161,3.21874.06296,3.21864-4.93704,0-5-18.26371-.35725-36.56358,4.46043-52.33507,13.66826-4.47174,2.61072-8.7059,5.59445-12.72158,8.86128-1.04815.85269-.88588,2.64966,0,3.53553,1.03629,1.03629,2.48476.85482,3.53553,0h0Z"/>
            </g>
            <path class="cls-31" d="m170.22932,242.25027c-1.24926.60546-2.7062.6244-4.08783.6244-49.50439.0946-99.0089.20813-148.51352.30284h-2.93316c-8.68606.01894,14.26847-17.39094,14.83616-16.31227l125.18072-.79488c5.65819,2.81962,10.97564,6.35847,15.76341,10.50278.757.64334,1.53294,1.3814,1.74107,2.36547.2839,1.36246-.73805,2.72491-1.98686,3.31166Z"/>
          </g>
          <line class="cls-31" x1="85.83924" y1="172.15479" x2="101.02163" y2="173.01341"/>
          <path class="cls-14" d="m52.49013,215.12845c.54863-4.79631,2.31396-14.37554,9.16111-23.96679,9.07611-12.71345,21.36107-17.43584,25.82774-18.91414"/>
          <path class="cls-7" d="m127.65086,215.15143c-.22731-4.59768-1.35807-14.87627-8.27984-25.38393-6.32047-9.59489-14.31075-14.58577-18.34949-16.75409"/>
        </g>
        <g>
          <g>
            <path class="cls-41" d="m77.00548,170.89238c.09564-.87134.37775-1.73077.82004-2.48075,1.14905-1.94842,3.17684-3.23805,5.29638-4.0281s4.3707-1.14722,6.56936-1.67876c1.07533-.25997,2.23455-.62863,2.83721-1.55639.55465-.85386.4505-2.07884-.24032-2.82682-.74355-.80506-1.78802-.80956-2.75921-.53297.167-.35577.33515-.78524.56268-1.11997.34623-.50936.75492-.98172,1.20603-1.40078.86005-.79894,1.89747-1.41482,3.04008-1.70451,1.81696-.46066,3.75261-.09092,5.50549.57312,3.35348,1.27039,6.2826,3.63428,8.23249,6.64387,1.94989,3.00959,2.91027,6.64901,2.69921,10.22884-.10964,1.85969-.71858,3.95268-2.40798,4.73779-1.05373.48969-2.27845.34472-3.43176.20322-7.98852-.98009-16.09084-1.29957-24.08506-.36708-.60712.07082-1.24461.14512-1.81134-.08384-.37658-.15214-.69127-.42848-.95598-.73651-.90681-1.0552-1.23015-2.47799-1.07732-3.87037Z"/>
            <g class="cls-50">
              <path class="cls-40" d="m111.70963,178.91422c2.55125-4.59953,3.36237-10.03499,2.10609-15.16012-1.17098-4.77711-4.09439-8.8325-7.98873-11.76466-1.07943-.81273-2.79484-.17277-3.42047.89688-.74856,1.27982-.18517,2.60577.89688,3.42047,6.18195,4.65456,7.79654,13.39946,4.08889,20.08383-1.56212,2.81628,2.75458,5.34105,4.31735,2.5236h0Z"/>
              <path class="cls-40" d="m79.39503,172.77932c-.117-.25988-.11534-.25043.00499.02834-.05093-.12808-.09919-.25716-.1448-.38724-.09123-.26011-.17175-.52397-.24152-.79063-.07-.2675-.11776-.538-.1769-.80767-.12647-.57671.01042.3862-.02235-.15474-.0335-.55304-.06147-1.09785-.02505-1.6521.00903-.13754.02086-.27484.03549-.41189-.04802.32252-.0495.3393-.00443.05034.04649-.23084.08742-.46164.14338-.69057.11152-.45621.23092-.96809.44792-1.38746-.30209.58382.1-.17967.15528-.28603.10475-.20154.21644-.39919.33423-.59337.11794-.19443.25052-.3786.3718-.57057.16432-.22419.15014-.21165-.04253.03762.08036-.10185.16262-.20214.2468-.30086.3375-.39575.70624-.75946,1.09729-1.1019.9871-.86439.94998-2.66347,0-3.53553-1.0524-.96609-2.48264-.92201-3.53553,0-1.93627,1.69557-3.37834,4.08251-3.941,6.59839-.64906,2.90219-.25375,5.79426.97957,8.47948.54755,1.19215,2.36271,1.57883,3.42047.89688,1.22963-.79276,1.4826-2.14523.89688-3.42047h0Z"/>
              <path class="cls-26" d="m96.64449,174.82914c-1.43118-1.33523-1.7294-2.43691-1.73194-3.20281-.00474-1.45172,1.05222-2.04192,3.15515-5.25269,1.83104-2.79554,1.95417-3.75947,1.98593-4.09601.16967-1.79924-.6199-3.22144-1.10974-4.1038-1.59739-2.87755-4.21754-4.23199-5.46865-4.77093"/>
              <path class="cls-26" d="m92.56544,174.86665c-1.19162-.7119-1.37809-2.45921-.78062-3.71212.59747-1.25291,1.75559-2.12826,2.86328-2.96478,1.10769-.83652,2.25195-1.7406,2.79857-3.01652.73573-1.71734.19755-3.76769-.8929-5.28475-1.09045-1.51706-2.65868-2.60994-4.19546-3.67242"/>
              <path class="cls-8" d="m88.98351,175.04405c-.48719-1.48919-.65639-3.26442.14726-4.67758.47321-.83196,1.24106-1.44816,1.99067-2.04331,2.54877-2.02356,3.44448-2.10174,4.50433-3.57647.377-.52458,1.14589-1.59458,1.13596-2.89276-.01582-2.06072-1.98928-4.04795-4.83755-5.10249"/>
            </g>
            <path class="cls-14" d="m77.00548,170.89238c.09564-.87134.37775-1.73077.82004-2.48075,1.14905-1.94842,3.17684-3.23805,5.29638-4.0281s4.3707-1.14722,6.56936-1.67876c1.07533-.25997,2.23455-.62863,2.83721-1.55639.55465-.85386.4505-2.07884-.24032-2.82682-.74355-.80506-1.78802-.80956-2.75921-.53297.167-.35577.33515-.78524.56268-1.11997.34623-.50936.75492-.98172,1.20603-1.40078.86005-.79894,1.89747-1.41482,3.04008-1.70451,1.81696-.46066,3.75261-.09092,5.50549.57312,3.35348,1.27039,6.2826,3.63428,8.23249,6.64387,1.94989,3.00959,2.91027,6.64901,2.69921,10.22884-.10964,1.85969-.71858,3.95268-2.40798,4.73779-1.05373.48969-2.27845.34472-3.43176.20322-7.98852-.98009-16.09084-1.29957-24.08506-.36708-.60712.07082-1.24461.14512-1.81134-.08384-.37658-.15214-.69127-.42848-.95598-.73651-.90681-1.0552-1.23015-2.47799-1.07732-3.87037Z"/>
          </g>
          <path class="cls-14" d="m86.43082,175.13349c-.32383-.4699-1.05435-1.67098-1.02946-3.32559.00381-.25382.01493-2.71435,1.79366-4.00733.84764-.61619,1.88208-.90946,2.89895-1.16309,1.01658-.25363,2.05717-.48571,2.96718-1.00502.36277-.20708,1.57084-1.05073,1.81415-2.42704.24683-1.39557-.59174-2.92468-2.06742-3.87901"/>
          <path class="cls-14" d="m97.48409,175.23927c-1.19431-2.48491-1.03561-4.09022-.62775-5.11936.9835-2.48172,3.74044-2.43026,5.06007-5.27999.93021-2.00835.48106-4.02072.30802-4.796-1.00604-4.50789-5.38156-6.42174-5.89131-6.63497"/>
        </g>
        <path class="cls-41" d="m45.24831,238.35149c-4.75401-6.64034-4.57116-6.64034-9.32517,0,4.75401-6.64034,4.75401-6.38494,0-13.02527,4.75401,6.64034,4.57116,6.64034,9.32517,0-4.75401,6.64034-4.75401,6.38494,0,13.02527Z"/>
      </g>
      <g>
        <g>
          <rect class="cls-46" x="181.74947" y="1191.01674" width="90" height="90" rx="2" ry="2" transform="translate(1462.76621 1009.26727) rotate(90)"/>
          <line class="cls-38" x1="271.74947" y1="1236.01674" x2="181.74947" y2="1236.01674"/>
          <polygon class="cls-52" points="244.80885 1230.4908 250.4319 1227.19465 227.55934 1227.19465 206.04421 1227.19465 209.5342 1230.4908 206.04421 1231.8481 210.30983 1236.30757 206.04421 1238.44038 210.30983 1241.54268 204.68703 1244.83882 227.55934 1244.83882 249.07448 1244.83882 245.58449 1241.54268 249.07448 1240.18544 244.80885 1235.7259 249.07448 1233.59309 244.80885 1230.4908"/>
          <rect class="cls-36" x="181.74947" y="1191.01674" width="90" height="90" rx="2" ry="2" transform="translate(1462.76621 1009.26727) rotate(90)"/>
        </g>
        <g>
          <rect class="cls-46" x="200.43553" y="1101.01674" width="90" height="90" rx="2" ry="2"/>
          <line class="cls-38" x1="245.43553" y1="1101.01674" x2="245.43553" y2="1191.01674"/>
          <polygon class="cls-52" points="236.61345 1101.01674 236.61345 1122.53186 239.90961 1119.0418 241.26685 1122.53186 245.72637 1118.26624 247.85918 1122.53186 250.96145 1118.26624 254.25761 1123.8891 254.25761 1101.01674 236.61345 1101.01674"/>
          <polygon class="cls-52" points="254.25761 1191.01674 254.25761 1169.50162 250.96145 1172.99167 249.6042 1169.50162 245.14469 1173.76724 243.01188 1169.50162 239.90961 1173.76724 236.61345 1168.14437 236.61345 1191.01674 254.25761 1191.01674"/>
          <rect class="cls-36" x="200.43553" y="1101.01674" width="90" height="90" rx="2" ry="2"/>
        </g>
      </g>
    </g>
  </g>
</svg>