<?xml version="1.0" encoding="UTF-8"?>
<svg id="Layer_2" data-name="Layer 2" xmlns="http://www.w3.org/2000/svg" xmlns:xlink="http://www.w3.org/1999/xlink" viewBox="0 0 712.37352 358.45643">
  <defs>
    <style>
      .cls-1 {
        clip-path: url(#clippath);
      }

      .cls-2 {
        fill: #fab040;
      }

      .cls-3, .cls-4 {
        fill: #ec6c2e;
      }

      .cls-5, .cls-6, .cls-7 {
        fill: #f5c454;
      }

      .cls-8 {
        fill: #967865;
      }

      .cls-9, .cls-10, .cls-11, .cls-12, .cls-13, .cls-14 {
        stroke-linecap: round;
      }

      .cls-9, .cls-10, .cls-11, .cls-12, .cls-13, .cls-14, .cls-15, .cls-16, .cls-6, .cls-4, .cls-7, .cls-17, .cls-18, .cls-19, .cls-20 {
        stroke-miterlimit: 10;
      }

      .cls-9, .cls-10, .cls-11, .cls-15, .cls-19, .cls-20 {
        fill: none;
      }

      .cls-9, .cls-12 {
        stroke: #3c2415;
      }

      .cls-10 {
        stroke: #726658;
      }

      .cls-11, .cls-13, .cls-14, .cls-16, .cls-4, .cls-7, .cls-17, .cls-18, .cls-19 {
        stroke: #231f20;
      }

      .cls-12 {
        fill: #3c2415;
      }

      .cls-13, .cls-18 {
        fill: #7b3f24;
      }

      .cls-14 {
        fill: #231f20;
      }

      .cls-21 {
        clip-path: url(#clippath-1);
      }

      .cls-22 {
        clip-path: url(#clippath-2);
      }

      .cls-15 {
        stroke: #000;
        stroke-width: .75px;
      }

      .cls-16 {
        fill: #fff;
      }

      .cls-6 {
        stroke: #a86723;
      }

      .cls-17 {
        fill: #927968;
      }

      .cls-23 {
        opacity: .89;
      }

      .cls-24 {
        opacity: .79;
      }

      .cls-20 {
        stroke: #7d6962;
        stroke-width: 1.75px;
      }

      .cls-25 {
        fill: #eac6b7;
        opacity: .74;
      }

      .cls-26 {
        fill: #f9e0bd;
        opacity: .25;
      }
    </style>
    <clipPath id="clippath">
      <ellipse class="cls-7" cx="443.52462" cy="98.1268" rx="9.79621" ry="6.57063"/>
    </clipPath>
    <clipPath id="clippath-1">
      <path class="cls-4" d="m418.38197,135.8528c20.07143,5.75856,42.02239,4.74362,61.47681-2.84248,1.77321-.69145,3.58732-1.47816,4.85781-2.89529,1.27049-1.41713,1.84078-3.63793.83837-5.25581-.82023-1.32384-2.41634-1.90864-3.90167-2.37672-13.57847-4.27898-27.85461-6.29653-42.08554-6.05669-7.02839.11845-14.048.78716-20.97102,2.00628-3.63401.63994-7.24147,1.43138-10.80888,2.3744-2.53247.66944-7.79633.9832-6.83829,4.20437,1.76521,5.93511,12.32668,9.37707,17.43243,10.84192Z"/>
    </clipPath>
    <clipPath id="clippath-2">
      <path class="cls-4" d="m402.54484,126.35365c1.17009-.27659,2.28955-.60984,3.23847-.81528,2.95112-.63888,6.33245-1.51811,13.3158-2.50793,13.45462-1.90698,24.44156-1.59598,24.44188-1.59598,5.21591.14764,15.92133.45072,29.1593,3.90809,10.36225,2.70633,15.69757,5.59338,18.27543,3.04585,2.41267-2.38432.52001-8.17229-.8842-11.07273-2.51573-5.1965-7.15938-8.75794-14.82259-12.05356-12.59954-5.41848-25.14714-6.5857-35.43853-6.21665-.00032,0-18.48398.65806-35.60275,9.63163-3.36499,1.76392-8.22156,4.6919-9.60473,9.83084-.15613.58003-1.27154,5.05185.98274,7.118,1.79009,1.64075,4.47651,1.3098,6.93918.72771Z"/>
    </clipPath>
  </defs>
  <g id="floor_clutter" data-name="floor clutter">
    <g>
      <g>
        <g>
          <rect class="cls-8" x="540.43079" y="253.59361" width="90" height="90" rx="2" ry="2"/>
          <line class="cls-20" x1="585.43079" y1="253.59361" x2="585.43079" y2="343.59361"/>
          <polygon class="cls-26" points="576.60871 253.59361 576.60871 275.10873 579.90487 271.61867 581.26212 275.10873 585.72163 270.84311 587.85444 275.10873 590.95671 270.84311 594.25287 276.46597 594.25287 253.59361 576.60871 253.59361"/>
          <polygon class="cls-26" points="594.25287 343.59361 594.25287 322.07849 590.95671 325.56854 589.59947 322.07849 585.13995 326.34411 583.00714 322.07849 579.90487 326.34411 576.60871 320.72124 576.60871 343.59361 594.25287 343.59361"/>
          <rect class="cls-15" x="540.43079" y="253.59361" width="90" height="90" rx="2" ry="2"/>
        </g>
        <g>
          <rect class="cls-8" x="621.99852" y="266.2293" width="90" height="90" rx="2" ry="2" transform="translate(1333.99705 622.45859) rotate(180)"/>
          <line class="cls-20" x1="621.99852" y1="311.2293" x2="711.99852" y2="311.2293"/>
          <polygon class="cls-26" points="621.99852 320.05138 675.13303 320.05138 671.64297 316.75521 675.13303 315.39797 670.86741 310.93846 675.13303 308.80565 670.86741 305.70338 676.49027 302.40722 621.99852 302.40722 621.99852 320.05138"/>
          <polygon class="cls-26" points="711.99852 302.40722 690.4834 302.40722 693.97346 305.70338 690.4834 307.06062 694.74903 311.52013 690.4834 313.65294 694.74903 316.75521 689.12616 320.05138 711.99852 320.05138 711.99852 302.40722"/>
          <rect class="cls-15" x="621.99852" y="266.2293" width="90" height="90" rx="2" ry="2" transform="translate(1333.99705 622.45859) rotate(180)"/>
        </g>
      </g>
      <g>
        <path class="cls-13" d="m509.80651,296.53443c-.98441-3.77226-3.14603-7.2153-5.77505-10.12391-3.09652-3.42584-6.83529-6.19757-10.54697-8.94498-3.29131-2.43624-6.58262-4.87249-9.87393-7.30873-1.61079-1.19231-3.24894-2.39972-5.12615-3.10138s-4.05889-.84273-5.83573.08414c-2.53488,1.32231-3.62209,4.51453-3.31885,7.35744.30324,2.84291,1.71455,5.43115,3.09781,7.93329,0,0,1.3656,2.47021,3.14759,5.69364,1.38761,4.36917,2.77518,8.73826,4.16276,13.10735,1.3865,4.36572,2.90231,8.94007,6.27296,12.04178,4.52685,4.16566,11.92603,4.57234,17.11477,1.26747,5.18873-3.30487,7.94274-9.87113,7.09028-15.96362-.09661-.69047-.23444-1.37169-.40949-2.04249Z"/>
        <path class="cls-13" d="m378.30014,296.53443c.98441-3.77226,3.14603-7.2153,5.77505-10.12391,3.09652-3.42584,6.83529-6.19757,10.54697-8.94498,3.29131-2.43624,6.58262-4.87249,9.87393-7.30873,1.61079-1.19231,3.24894-2.39972,5.12615-3.10138,1.87721-.70166,4.05889-.84273,5.83573.08414,2.53488,1.32231,3.62209,4.51453,3.31885,7.35744-.30324,2.84291-1.71455,5.43115-3.09781,7.93329,0,0-1.3656,2.47021-3.14759,5.69364-1.38761,4.36917-2.77518,8.73826-4.16276,13.10735-1.3865,4.36572-2.90231,8.94007-6.27296,12.04178-4.52685,4.16566-11.92603,4.57234-17.11477,1.26747-5.18873-3.30487-7.94274-9.87113-7.09028-15.96362.09661-.69047.23444-1.37169.40949-2.04249Z"/>
        <path class="cls-13" d="m488.61215,315.38798l-86.07651-1.31461c.71703-8.0071,2.12135-16.6415,4.4816-25.6645,2.2408-8.57477,4.98946-16.22335,7.88765-22.94575h58.38019c4.5115,8.09663,9.76994,19.71895,12.96683,34.38881,1.16526,5.43751,1.94192,10.63631,2.36024,15.53605Z"/>
        <path class="cls-4" d="m487.83531,345.29519h-31.81922v-6.84184h-21.09337v6.84184h-32.41698c-.80656-8.72412-1.10545-19.33053.02991-31.22182l86.07651,1.31461c1.13535,12.16008.29888,22.46779-.77684,29.90721Z"/>
        <line class="cls-19" x1="489.14997" y1="315.38809" x2="488.61218" y2="315.38809"/>
        <line class="cls-16" x1="402.53566" y1="314.07349" x2="402.50579" y2="314.07349"/>
        <path class="cls-11" d="m424.05772,334.32027c13.65865,5.02226,29.02907,5.24591,42.82806.62316"/>
        <path class="cls-6" d="m415.27218,314.38769h7.10831v8.02848c0,.59705-.48473,1.08178-1.08178,1.08178h-4.72914c-.71604,0-1.29738-.58134-1.29738-1.29738v-7.81288h0Z"/>
        <path class="cls-6" d="m466.88578,315.38798h7.10831v7.84706c0,.69718-.56602,1.2632-1.2632,1.2632h-4.72914c-.61592,0-1.11597-.50005-1.11597-1.11597v-7.99429h0Z"/>
        <path class="cls-13" d="m457.08188,357.58393c13.77203.06814,27.54425.13619,41.31628.20433.11995-.70094.35904-2.68173-.82019-4.54652-.80097-1.26656-1.85653-1.91866-2.75309-2.3664-2.17634-1.08694-4.69186-1.27132-7.13083-1.43568-1.07045-1.33757-2.14109-2.67515-3.21154-4.01272-9.1052.0645-18.2104.129-27.3156.19349-.02828,3.98786-.05675,7.97563-.08503,11.96349Z"/>
        <path class="cls-13" d="m433.25571,357.64787c-13.77187.10184-27.54393.20359-41.3158.30543-.12138-.71754-.3645-2.74548.81092-4.65792.79838-1.29893,1.85262-1.96919,2.74826-2.4298,2.17412-1.11818,4.68926-1.31286,7.12789-1.48685,1.06772-1.37228,2.13563-2.74456,3.20335-4.11683,9.10532.04486,18.21064.08971,27.31596.13457.03641,4.08383.07301,8.16757.10942,12.2514Z"/>
        <rect class="cls-6" x="415.27218" y="269.02101" width="7.10831" height="45.36668" transform="translate(837.65267 583.4087) rotate(180)"/>
        <rect class="cls-6" x="466.88578" y="268.6379" width="7.10831" height="46.75018" transform="translate(940.87987 584.02599) rotate(180)"/>
        <path class="cls-13" d="m497.23788,125.41667c4.54393-4.78857,11.55739-6.90889,18.09785-6.01387,6.54046.89498,12.53683,4.61876,16.72835,9.71874,4.28604,5.21514,6.79096,12.01431,6.24441,18.74266-.54655,6.72831-4.33983,13.25669-10.24781,16.52244-4.80109,2.65393-11.0481,2.47244-15.67629.01835-2.01771-1.06989-3.91729-3.39004-7.7166-8.03035-.70473-.86065-1.67184-2.30995-3.4838-4.62991-1.09091-1.3967-1.97038-2.52271-3.19549-3.96905-3.08795-3.64543-4.4056-4.64329-5.28593-7.21025-.00015-.00025-.36999-.93507-.4919-1.96517-.55068-4.65288,1.87602-9.86299,5.02721-13.1836Z"/>
        <path class="cls-12" d="m499.82994,137.40583c2.67264-2.81653,6.7978-4.06365,10.64476-3.53722,3.84695.52641,7.37389,2.71665,9.83925,5.71635,2.52095,3.06743,3.9943,7.06656,3.67283,11.02402-.32147,3.95744-2.55259,7.79729-6.02754,9.71814-2.82389,1.56098-6.49825,1.45424-9.22045.01079-1.18677-.62929-2.30406-1.99395-4.53874-4.72327-.4145-.50622-.98334-1.35866-2.04909-2.72321-.64165-.82151-1.15894-1.4838-1.87952-2.33451-1.81626-2.14416-2.59128-2.73108-3.10907-4.24091-.00009-.00015-.21762-.54999-.28932-1.15587-.3239-2.73672,1.10343-5.8012,2.95689-7.7543Z"/>
        <path class="cls-13" d="m390.07216,125.41667c-4.54393-4.78857-11.55739-6.90889-18.09785-6.01387-6.54046.89498-12.53683,4.61876-16.72835,9.71874-4.28604,5.21514-6.79096,12.01431-6.24441,18.74266.54655,6.72831,4.33983,13.25669,10.24781,16.52244,4.80109,2.65393,11.0481,2.47244,15.67629.01835,2.01771-1.06989,3.91729-3.39004,7.7166-8.03035.70473-.86065,1.67184-2.30995,3.4838-4.62991,1.09091-1.3967,1.97038-2.52271,3.19549-3.96905,3.08795-3.64543,4.4056-4.64329,5.28593-7.21025.00015-.00025.36999-.93507.4919-1.96517.55068-4.65288-1.87602-9.86299-5.02721-13.1836Z"/>
        <path class="cls-12" d="m387.4801,137.40583c-2.67264-2.81653-6.7978-4.06365-10.64476-3.53722-3.84695.52641-7.37389,2.71665-9.83925,5.71635-2.52095,3.06743-3.9943,7.06656-3.67283,11.02402.32147,3.95744,2.55259,7.79729,6.02754,9.71814,2.82389,1.56098,6.49825,1.45424,9.22045.01079,1.18677-.62929,2.30406-1.99395,4.53874-4.72327.4145-.50622.98334-1.35866,2.04909-2.72321.64165-.82151,1.15894-1.4838,1.87952-2.33451,1.81626-2.14416,2.59128-2.73108,3.10907-4.24091.00009-.00015.21762-.54999.28932-1.15587.3239-2.73672-1.10343-5.8012-2.95689-7.7543Z"/>
        <circle class="cls-13" cx="443.86815" cy="195.13432" r="79.58611"/>
        <g>
          <path class="cls-14" d="m447.14445,214.54166c.59766.09881,1.18961.23206,1.77191.39995,3.92655,1.13212,2.04031,4.7738-.3752,6.563-.58602.43409-1.62215,1.04826-3.02894,1.23052-2.18131.28257-3.82723-.65802-4.5325-1.0748-1.82819-1.08035-5.88413-4.81735-2.23144-6.24784,2.65208-1.03862,5.58723-1.33522,8.39618-.87084Z"/>
          <ellipse class="cls-14" cx="469.65063" cy="220.00883" rx="1.99708" ry="3.77279"/>
          <ellipse class="cls-14" cx="421.74128" cy="220.00883" rx="1.99708" ry="3.77279"/>
          <path class="cls-11" d="m443.69704,220.6073c.3262,2.35747.6532,4.73579.482,7.10955-.17119,2.37376-.88094,4.77413-2.41499,6.59367-1.51591,1.79803-3.80444,2.92135-6.15412,3.02072s-4.72489-.8267-6.3872-2.49032"/>
          <path class="cls-11" d="m445.4462,220.6073c-.3262,2.35747-.6532,4.73579-.482,7.10955.17119,2.37376.88094,4.77413,2.41499,6.59367,1.51591,1.79803,3.80444,2.92135,6.15412,3.02072s4.72489-.8267,6.3872-2.49032"/>
        </g>
        <g>
          <ellipse class="cls-5" cx="443.52462" cy="98.1268" rx="9.79621" ry="6.57063"/>
          <g class="cls-1">
            <path class="cls-2" d="m424.68544,94.40316c9.51795,9.02759,22.69414,13.90581,35.80605,13.07711,3.19574-.20198,3.21853-5.20342,0-5-11.82206.74717-23.66152-3.44718-32.27051-11.61265-2.33418-2.21392-5.87597,1.31568-3.53553,3.53553h0Z"/>
          </g>
          <ellipse class="cls-19" cx="443.52462" cy="98.1268" rx="9.79621" ry="6.57063"/>
        </g>
        <g>
          <path class="cls-3" d="m418.38197,135.8528c20.07143,5.75856,42.02239,4.74362,61.47681-2.84248,1.77321-.69145,3.58732-1.47816,4.85781-2.89529,1.27049-1.41713,1.84078-3.63793.83837-5.25581-.82023-1.32384-2.41634-1.90864-3.90167-2.37672-13.57847-4.27898-27.85461-6.29653-42.08554-6.05669-7.02839.11845-14.048.78716-20.97102,2.00628-3.63401.63994-7.24147,1.43138-10.80888,2.3744-2.53247.66944-7.79633.9832-6.83829,4.20437,1.76521,5.93511,12.32668,9.37707,17.43243,10.84192Z"/>
          <g class="cls-21">
            <g class="cls-24">
              <path class="cls-5" d="m448.57243,145.56018c16.49145-1.26241,31.79521-9.88493,41.45433-23.30182.78934-1.09643.19022-2.78463-.89688-3.42047-1.25967-.73678-2.62929-.2021-3.42047.89688-8.55267,11.87999-22.54882,19.7087-37.13698,20.82541-1.34636.10306-2.5,1.07524-2.5,2.5,0,1.27296,1.14635,2.60362,2.5,2.5h0Z"/>
            </g>
          </g>
          <path class="cls-19" d="m418.38197,135.8528c20.07143,5.75856,42.02239,4.74362,61.47681-2.84248,1.77321-.69145,3.58732-1.47816,4.85781-2.89529,1.27049-1.41713,1.84078-3.63793.83837-5.25581-.82023-1.32384-2.41634-1.90864-3.90167-2.37672-13.57847-4.27898-27.85461-6.29653-42.08554-6.05669-7.02839.11845-14.048.78716-20.97102,2.00628-3.63401.63994-7.24147,1.43138-10.80888,2.3744-2.53247.66944-7.79633.9832-6.83829,4.20437,1.76521,5.93511,12.32668,9.37707,17.43243,10.84192Z"/>
        </g>
        <g>
          <path class="cls-3" d="m402.54484,126.35365c1.17009-.27659,2.28955-.60984,3.23847-.81528,2.95112-.63888,6.33245-1.51811,13.3158-2.50793,13.45462-1.90698,24.44156-1.59598,24.44188-1.59598,5.21591.14764,15.92133.45072,29.1593,3.90809,10.36225,2.70633,15.69757,5.59338,18.27543,3.04585,2.41267-2.38432.52001-8.17229-.8842-11.07273-2.51573-5.1965-7.15938-8.75794-14.82259-12.05356-12.59954-5.41848-25.14714-6.5857-35.43853-6.21665-.00032,0-18.48398.65806-35.60275,9.63163-3.36499,1.76392-8.22156,4.6919-9.60473,9.83084-.15613.58003-1.27154,5.05185.98274,7.118,1.79009,1.64075,4.47651,1.3098,6.93918.72771Z"/>
          <g class="cls-22">
            <g class="cls-23">
              <path class="cls-5" d="m459.79378,128.53704c7.7133.31248,15.03213,3.70504,22.8225,2.02443,3.1275-.67469,6.27851-2.20618,8.36099-4.69295,2.46404-2.9424,3.4207-6.80089,2.99008-10.58878-.53027-4.66448-2.72149-8.76323-5.01506-12.78143-1.59492-2.7942-5.91656-.27812-4.31735,2.5236,2.05231,3.59553,4.34808,7.43693,4.43266,11.70071.07301,3.68051-1.67239,6.6547-5.04528,8.16958-3.14297,1.41161-6.80188,1.40669-10.14479.90662-4.71259-.70497-9.29694-2.06784-14.08376-2.26177-3.2176-.13035-3.21168,4.86989,0,5h0Z"/>
            </g>
          </g>
          <path class="cls-19" d="m402.54484,126.35365c1.17009-.27659,2.28955-.60984,3.23847-.81528,2.95112-.63888,6.33245-1.51811,13.3158-2.50793,13.45462-1.90698,24.44156-1.59598,24.44188-1.59598,5.21591.14764,15.92133.45072,29.1593,3.90809,10.36225,2.70633,15.69757,5.59338,18.27543,3.04585,2.41267-2.38432.52001-8.17229-.8842-11.07273-2.51573-5.1965-7.15938-8.75794-14.82259-12.05356-12.59954-5.41848-25.14714-6.5857-35.43853-6.21665-.00032,0-18.48398.65806-35.60275,9.63163-3.36499,1.76392-8.22156,4.6919-9.60473,9.83084-.15613.58003-1.27154,5.05185.98274,7.118,1.79009,1.64075,4.47651,1.3098,6.93918.72771Z"/>
        </g>
        <g>
          <rect class="cls-17" x="392.37537" y="248.15136" width="96.87648" height="68.18356"/>
          <rect class="cls-25" x="398.67947" y="249.08734" width="38.23865" height="13.87017"/>
          <line class="cls-10" x1="444.46532" y1="282.24314" x2="474.64462" y2="282.24314"/>
          <line class="cls-10" x1="444.46532" y1="290.01703" x2="474.64462" y2="290.01703"/>
          <path class="cls-25" d="m430.1753,315.32005h-21.8217v-23.31693c1.10836-.52583,2.21691-1.05174,3.32527-1.57757,1.01974,2.06692,2.03929,4.13384,3.05903,6.20076,1.73622-1.32281,3.47243-2.64572,5.20865-3.96854,1.68115,1.01965,3.36211,2.03938,5.04325,3.05903,1.72856-1.23793,3.45693-2.47576,5.18549-3.71369v23.31693Z"/>
        </g>
        <g>
          <ellipse class="cls-18" cx="496.55379" cy="307.70292" rx="10.96354" ry="13.72562"/>
          <path class="cls-9" d="m488.81226,298.50685c2.6371.44732,5.27419.89463,7.91129,1.34195"/>
          <path class="cls-9" d="m486.41661,307.66099c2.63056-.59357,5.26113-1.18714,7.89169-1.78071"/>
          <path class="cls-9" d="m488.99576,316.10067c2.30503-1.23509,4.61006-2.47018,6.91509-3.70526"/>
          <ellipse class="cls-19" cx="496.55379" cy="307.70292" rx="10.96354" ry="13.72562"/>
        </g>
        <g>
          <ellipse class="cls-18" cx="386.93654" cy="307.70292" rx="10.96354" ry="13.72562"/>
          <path class="cls-9" d="m394.2463,297.60645c-3.21193,1.7914-6.42387,3.5828-9.6358,5.37421"/>
          <path class="cls-9" d="m396.9667,306.45323c-3.40087.50473-6.80174,1.00945-10.20261,1.51418"/>
          <path class="cls-9" d="m395.07223,316.14648c-3.00585-.80716-6.0117-1.61432-9.01755-2.42148"/>
          <ellipse class="cls-19" cx="386.93654" cy="307.70292" rx="10.96354" ry="13.72562"/>
        </g>
      </g>
      <g>
        <g>
          <rect class="cls-8" x="17.70397" y=".375" width="90" height="90" rx="2" ry="2"/>
          <line class="cls-20" x1="62.70397" y1=".375" x2="62.70397" y2="90.375"/>
          <polygon class="cls-26" points="53.88189 .375 53.88189 21.89012 57.17805 18.40007 58.53529 21.89012 62.9948 17.6245 65.12761 21.89012 68.22988 17.6245 71.52605 23.24736 71.52605 .375 53.88189 .375"/>
          <polygon class="cls-26" points="71.52605 90.375 71.52605 68.85988 68.22988 72.34993 66.87264 68.85988 62.41313 73.1255 60.28032 68.85988 57.17805 73.1255 53.88189 67.50264 53.88189 90.375 71.52605 90.375"/>
          <rect class="cls-15" x="17.70397" y=".375" width="90" height="90" rx="2" ry="2"/>
        </g>
        <g>
          <rect class="cls-8" x=".375" y="90.375" width="90" height="90" rx="2" ry="2" transform="translate(90.75 270.75) rotate(180)"/>
          <line class="cls-20" x1=".375" y1="135.375" x2="90.375" y2="135.375"/>
          <polygon class="cls-26" points=".375 144.19708 53.5095 144.19708 50.01945 140.90092 53.5095 139.54368 49.24388 135.08416 53.5095 132.95135 49.24388 129.84908 54.86674 126.55292 .375 126.55292 .375 144.19708"/>
          <polygon class="cls-26" points="90.375 126.55292 68.85988 126.55292 72.34993 129.84908 68.85988 131.20632 73.1255 135.66584 68.85988 137.79865 73.1255 140.90092 67.50264 144.19708 90.375 144.19708 90.375 126.55292"/>
          <rect class="cls-15" x=".375" y="90.375" width="90" height="90" rx="2" ry="2" transform="translate(90.75 270.75) rotate(180)"/>
        </g>
        <g>
          <rect class="cls-8" x="10.95937" y="180.375" width="90" height="90" rx="2" ry="2" transform="translate(281.33437 169.41563) rotate(90)"/>
          <line class="cls-20" x1="100.95937" y1="225.375" x2="10.95937" y2="225.375"/>
          <polygon class="cls-26" points="74.01876 219.84906 79.6418 216.55292 56.76924 216.55292 35.25411 216.55292 38.7441 219.84906 35.25411 221.20636 39.51973 225.66583 35.25411 227.79865 39.51973 230.90094 33.89693 234.19708 56.76924 234.19708 78.28438 234.19708 74.79439 230.90094 78.28438 229.5437 74.01876 225.08417 78.28438 222.95135 74.01876 219.84906"/>
          <rect class="cls-15" x="10.95937" y="180.375" width="90" height="90" rx="2" ry="2" transform="translate(281.33437 169.41563) rotate(90)"/>
        </g>
      </g>
    </g>
  </g>
</svg>