<?xml version="1.0" encoding="UTF-8"?>
<svg id="Layer_2" data-name="Layer 2" xmlns="http://www.w3.org/2000/svg" viewBox="0 0 1260.38032 3783.06693">
  <defs>
    <style>
      .cls-1 {
        stroke-width: .76061px;
      }

      .cls-1, .cls-2, .cls-3, .cls-4, .cls-5, .cls-6, .cls-7, .cls-8 {
        stroke: #000;
      }

      .cls-1, .cls-2, .cls-3, .cls-4, .cls-5, .cls-6, .cls-7, .cls-8, .cls-9 {
        fill: none;
        stroke-miterlimit: 10;
      }

      .cls-2 {
        stroke-width: .76064px;
      }

      .cls-3 {
        stroke-width: .7534px;
      }

      .cls-4 {
        stroke-width: .76613px;
      }

      .cls-10 {
        fill: #8f7968;
      }

      .cls-11 {
        fill: #8f8483;
      }

      .cls-12 {
        fill: #a56623;
      }

      .cls-13 {
        fill: #835c46;
      }

      .cls-5 {
        stroke-width: .74578px;
      }

      .cls-6 {
        stroke-width: .75053px;
      }

      .cls-7 {
        stroke-width: .75px;
      }

      .cls-8 {
        stroke-width: .77555px;
      }

      .cls-9 {
        stroke: #4e4247;
      }

      .cls-14 {
        opacity: .75;
      }

      .cls-15 {
        fill: #4e4247;
        opacity: .5;
      }
    </style>
  </defs>
  <g id="conveyor_belt" data-name="conveyor belt">
    <g>
      <g>
        <g>
          <rect class="cls-13" x="900.38032" y="65.37526" width="360" height="35"/>
          <rect class="cls-12" x="900.38032" y="65.37526" width="360" height="12"/>
          <rect class="cls-15" x="900.38032" y="77.37526" width="360" height="7.5"/>
          <rect class="cls-12" x="900.38032" y="92.37526" width="360" height="8"/>
          <polygon class="cls-11" points="999.50532 130.37527 999.50532 100.37527 977.50532 100.37527 977.50532 130.37527 972.00532 130.37527 972.00532 134.37527 977.50532 134.37527 999.50532 134.37527 1005.00532 134.37527 1005.00532 130.37527 999.50532 130.37527"/>
          <rect class="cls-15" x="977.50532" y="100.37526" width="22" height="10"/>
          <polygon class="cls-11" points="1175.75532 130.37527 1175.75532 100.37527 1153.75532 100.37527 1153.75532 130.37527 1148.25532 130.37527 1148.25532 134.37527 1153.75532 134.37527 1175.75532 134.37527 1181.25532 134.37527 1181.25532 130.37527 1175.75532 130.37527"/>
          <rect class="cls-15" x="1153.75532" y="100.37526" width="22" height="10"/>
          <line class="cls-7" x1="1260.38032" y1="77.37526" x2="900.38032" y2="77.37526"/>
          <polygon class="cls-7" points="999.50532 130.37527 999.50532 100.37527 977.50532 100.37527 977.50532 130.37527 972.00532 130.37527 972.00532 134.37527 977.50532 134.37527 999.50532 134.37527 1005.00532 134.37527 1005.00532 130.37527 999.50532 130.37527"/>
          <polygon class="cls-7" points="1175.75532 130.37527 1175.75532 100.37527 1153.75532 100.37527 1153.75532 130.37527 1148.25532 130.37527 1148.25532 134.37527 1153.75532 134.37527 1175.75532 134.37527 1181.25532 134.37527 1181.25532 130.37527 1175.75532 130.37527"/>
          <line class="cls-7" x1="1260.38032" y1="100.37526" x2="900.38032" y2="100.37526"/>
          <line class="cls-7" x1="900.38032" y1="92.37526" x2="1260.38032" y2="92.37526"/>
          <g>
            <g>
              <circle class="cls-10" cx="1040.06782" cy="84.87526" r="7.5"/>
              <circle class="cls-7" cx="1040.06782" cy="84.87526" r="7.5"/>
            </g>
            <g>
              <circle class="cls-10" cx="1212.56782" cy="84.87526" r="7.5"/>
              <circle class="cls-7" cx="1212.56782" cy="84.87526" r="7.5"/>
            </g>
            <g>
              <circle class="cls-10" cx="1124.44282" cy="84.87526" r="7.5"/>
              <circle class="cls-7" cx="1124.44282" cy="84.87526" r="7.5"/>
            </g>
            <g>
              <circle class="cls-10" cx="948.19282" cy="84.87526" r="7.5"/>
              <circle class="cls-7" cx="948.19282" cy="84.87526" r="7.5"/>
            </g>
          </g>
        </g>
        <g>
          <rect class="cls-11" x="900.38032" y=".37526" width="360" height="65"/>
          <g class="cls-14">
            <line class="cls-9" x1="1246.19407" y1="65.37515" x2="1246.19401" y2=".37524"/>
            <line class="cls-9" x1="1226.69407" y1="65.37515" x2="1226.69401" y2=".37524"/>
            <line class="cls-9" x1="1207.19407" y1="65.37515" x2="1207.19401" y2=".37525"/>
            <line class="cls-9" x1="1187.69407" y1="65.37515" x2="1187.69401" y2=".37525"/>
            <line class="cls-9" x1="1168.19407" y1="65.37516" x2="1168.19401" y2=".37525"/>
            <line class="cls-9" x1="1148.69407" y1="65.37516" x2="1148.69401" y2=".37525"/>
            <line class="cls-9" x1="1129.19407" y1="65.37516" x2="1129.19401" y2=".37526"/>
            <line class="cls-9" x1="1109.69407" y1="65.37516" x2="1109.69401" y2=".37526"/>
            <line class="cls-9" x1="1090.19407" y1="65.37517" x2="1090.19401" y2=".37526"/>
            <line class="cls-9" x1="1070.69407" y1="65.37517" x2="1070.69401" y2=".37526"/>
            <line class="cls-9" x1="1051.19407" y1="65.37517" x2="1051.19401" y2=".37527"/>
            <line class="cls-9" x1="1031.69407" y1="65.37517" x2="1031.69401" y2=".37527"/>
            <line class="cls-9" x1="1012.19407" y1="65.37517" x2="1012.19401" y2=".37527"/>
            <line class="cls-9" x1="992.69407" y1="65.37518" x2="992.69401" y2=".37527"/>
            <line class="cls-9" x1="973.19407" y1="65.37518" x2="973.19401" y2=".37528"/>
            <line class="cls-9" x1="953.69407" y1="65.37518" x2="953.69401" y2=".37528"/>
            <line class="cls-9" x1="934.19407" y1="65.37518" x2="934.19401" y2=".37528"/>
            <line class="cls-9" x1="914.69407" y1="65.37519" x2="914.69401" y2=".37528"/>
          </g>
        </g>
        <g>
          <line class="cls-7" x1="1260.38032" y1="65.3753" x2="900.38032" y2="65.3753"/>
          <line class="cls-6" x1="1260.38032" y1=".37526" x2="900.38032" y2=".37526"/>
        </g>
      </g>
      <g>
        <rect class="cls-11" x="515.38032" y="205.37526" width="590" height="180" transform="translate(515.00506 1105.75558) rotate(-90)"/>
        <g class="cls-14">
          <line class="cls-9" x1="900.38032" y1="15.87526" x2="720.38032" y2="15.87526"/>
          <line class="cls-9" x1="900.38032" y1="35.37526" x2="720.38032" y2="35.37526"/>
          <line class="cls-9" x1="900.38032" y1="54.87526" x2="720.38032" y2="54.87526"/>
          <line class="cls-9" x1="900.38032" y1="74.37526" x2="720.38032" y2="74.37526"/>
          <line class="cls-9" x1="900.38032" y1="93.87526" x2="720.38032" y2="93.87526"/>
          <line class="cls-9" x1="900.38032" y1="113.37526" x2="720.38032" y2="113.37526"/>
          <line class="cls-9" x1="900.38032" y1="132.87526" x2="720.38032" y2="132.87526"/>
          <line class="cls-9" x1="900.38032" y1="152.37526" x2="720.38032" y2="152.37526"/>
          <line class="cls-9" x1="900.38032" y1="171.87526" x2="720.38032" y2="171.87526"/>
          <line class="cls-9" x1="900.38032" y1="191.37526" x2="720.38032" y2="191.37526"/>
          <line class="cls-9" x1="900.38032" y1="210.87526" x2="720.38032" y2="210.87526"/>
          <line class="cls-9" x1="900.38032" y1="230.37526" x2="720.38032" y2="230.37526"/>
          <line class="cls-9" x1="900.38032" y1="249.87526" x2="720.38032" y2="249.87526"/>
          <line class="cls-9" x1="900.38032" y1="269.37526" x2="720.38032" y2="269.37526"/>
          <line class="cls-9" x1="900.38032" y1="288.87526" x2="720.38032" y2="288.87526"/>
          <line class="cls-9" x1="900.38032" y1="308.37526" x2="720.38032" y2="308.37526"/>
          <line class="cls-9" x1="900.38032" y1="327.87526" x2="720.38032" y2="327.87526"/>
          <line class="cls-9" x1="900.38032" y1="347.37526" x2="720.38032" y2="347.37526"/>
          <line class="cls-9" x1="900.38032" y1="366.87526" x2="720.38032" y2="366.87526"/>
          <line class="cls-9" x1="900.38032" y1="386.37526" x2="720.38032" y2="386.37526"/>
          <line class="cls-9" x1="900.38032" y1="405.87526" x2="720.38032" y2="405.87526"/>
          <line class="cls-9" x1="900.38032" y1="425.37526" x2="720.38032" y2="425.37526"/>
          <line class="cls-9" x1="900.38032" y1="444.87526" x2="720.38032" y2="444.87526"/>
          <line class="cls-9" x1="900.38032" y1="464.37526" x2="720.38032" y2="464.37526"/>
          <line class="cls-9" x1="900.38032" y1="483.87526" x2="720.38032" y2="483.87526"/>
          <line class="cls-9" x1="900.38032" y1="503.37526" x2="720.38032" y2="503.37526"/>
          <line class="cls-9" x1="900.38032" y1="522.87526" x2="720.38032" y2="522.87526"/>
          <line class="cls-9" x1="900.38032" y1="542.37526" x2="720.38032" y2="542.37526"/>
          <line class="cls-9" x1="900.38032" y1="561.87526" x2="720.38032" y2="561.87526"/>
          <line class="cls-9" x1="900.38032" y1="581.37526" x2="720.38032" y2="581.37526"/>
        </g>
        <rect class="cls-7" x="515.38032" y="205.37526" width="590" height="180" transform="translate(515.00506 1105.75558) rotate(-90)"/>
      </g>
      <g>
        <rect class="cls-11" x="180.33341" y="580.37526" width="720.04691" height="180"/>
        <g class="cls-14">
          <line class="cls-9" x1="890.83492" y1="760.37517" x2="890.83485" y2="580.37517"/>
          <line class="cls-9" x1="871.33492" y1="760.37518" x2="871.33485" y2="580.37518"/>
          <line class="cls-9" x1="851.83492" y1="760.37518" x2="851.83485" y2="580.37518"/>
          <line class="cls-9" x1="832.33492" y1="760.37519" x2="832.33485" y2="580.37519"/>
          <line class="cls-9" x1="812.83492" y1="760.3752" x2="812.83485" y2="580.3752"/>
          <line class="cls-9" x1="793.33492" y1="760.3752" x2="793.33485" y2="580.3752"/>
          <line class="cls-9" x1="773.83492" y1="760.37521" x2="773.83485" y2="580.37521"/>
          <line class="cls-9" x1="754.33492" y1="760.37522" x2="754.33485" y2="580.37522"/>
          <line class="cls-9" x1="734.83492" y1="760.37522" x2="734.83485" y2="580.37522"/>
          <line class="cls-9" x1="715.33492" y1="760.37523" x2="715.33485" y2="580.37523"/>
          <line class="cls-9" x1="695.83492" y1="760.37524" x2="695.83485" y2="580.37524"/>
          <line class="cls-9" x1="676.33492" y1="760.37524" x2="676.33485" y2="580.37524"/>
          <line class="cls-9" x1="656.83492" y1="760.37525" x2="656.83485" y2="580.37525"/>
          <line class="cls-9" x1="637.33492" y1="760.37526" x2="637.33485" y2="580.37526"/>
          <line class="cls-9" x1="617.83492" y1="760.37526" x2="617.83485" y2="580.37526"/>
          <line class="cls-9" x1="598.33492" y1="760.37527" x2="598.33485" y2="580.37527"/>
          <line class="cls-9" x1="578.83492" y1="760.37528" x2="578.83485" y2="580.37528"/>
          <line class="cls-9" x1="559.33492" y1="760.37528" x2="559.33485" y2="580.37528"/>
          <line class="cls-9" x1="539.83492" y1="760.37529" x2="539.83485" y2="580.37529"/>
          <line class="cls-9" x1="520.33492" y1="760.3753" x2="520.33485" y2="580.3753"/>
          <line class="cls-9" x1="500.83492" y1="760.3753" x2="500.83485" y2="580.3753"/>
          <line class="cls-9" x1="481.33492" y1="760.37531" x2="481.33485" y2="580.37531"/>
          <line class="cls-9" x1="461.83492" y1="760.37532" x2="461.83485" y2="580.37532"/>
          <line class="cls-9" x1="442.33492" y1="760.37532" x2="442.33485" y2="580.37532"/>
          <line class="cls-9" x1="422.83492" y1="760.37533" x2="422.83485" y2="580.37533"/>
          <line class="cls-9" x1="403.33492" y1="760.37534" x2="403.33485" y2="580.37534"/>
          <line class="cls-9" x1="383.83492" y1="760.37535" x2="383.83485" y2="580.37535"/>
          <line class="cls-9" x1="364.33492" y1="760.37535" x2="364.33485" y2="580.37535"/>
          <line class="cls-9" x1="344.83492" y1="760.38703" x2="344.83485" y2="580.38703"/>
          <line class="cls-9" x1="325.33492" y1="760.3987" x2="325.33485" y2="580.3987"/>
          <line class="cls-9" x1="305.83492" y1="760.41037" x2="305.83485" y2="580.41037"/>
          <line class="cls-9" x1="286.33492" y1="760.42205" x2="286.33485" y2="580.42205"/>
          <line class="cls-9" x1="266.83492" y1="760.43372" x2="266.83485" y2="580.43372"/>
          <line class="cls-9" x1="247.33492" y1="760.4454" x2="247.33485" y2="580.4454"/>
          <line class="cls-9" x1="227.83492" y1="760.45707" x2="227.83485" y2="580.45707"/>
          <line class="cls-9" x1="208.33492" y1="760.46874" x2="208.33485" y2="580.46874"/>
          <line class="cls-9" x1="188.83489" y1="760.48625" x2="188.83482" y2="580.48625"/>
        </g>
        <rect class="cls-1" x="180.42693" y="580.37526" width="719.95339" height="180"/>
      </g>
      <g>
        <rect class="cls-11" x="-242.11968" y="822.96875" width="665" height="180" transform="translate(1003.34907 822.58843) rotate(90)"/>
        <g class="cls-14">
          <line class="cls-9" x1=".4272" y1="1231.96891" x2="180.4272" y2="1231.96878"/>
          <line class="cls-9" x1=".42719" y1="1212.46891" x2="180.42719" y2="1212.46878"/>
          <line class="cls-9" x1=".42718" y1="1192.96891" x2="180.42718" y2="1192.96878"/>
          <line class="cls-9" x1=".42716" y1="1173.46891" x2="180.42716" y2="1173.46878"/>
          <line class="cls-9" x1=".42715" y1="1153.96891" x2="180.42715" y2="1153.96878"/>
          <line class="cls-9" x1=".42713" y1="1134.46891" x2="180.42713" y2="1134.46878"/>
          <line class="cls-9" x1=".42712" y1="1114.96891" x2="180.42712" y2="1114.96878"/>
          <line class="cls-9" x1=".42711" y1="1095.46891" x2="180.42711" y2="1095.46878"/>
          <line class="cls-9" x1=".42709" y1="1075.96891" x2="180.42709" y2="1075.96878"/>
          <line class="cls-9" x1=".42708" y1="1056.46891" x2="180.42708" y2="1056.46878"/>
          <line class="cls-9" x1=".42706" y1="1036.96891" x2="180.42706" y2="1036.96878"/>
          <line class="cls-9" x1=".42705" y1="1017.46891" x2="180.42705" y2="1017.46878"/>
          <line class="cls-9" x1=".42704" y1="997.96891" x2="180.42704" y2="997.96878"/>
          <line class="cls-9" x1=".42702" y1="978.46891" x2="180.42702" y2="978.46878"/>
          <line class="cls-9" x1=".42701" y1="958.96891" x2="180.42701" y2="958.96878"/>
          <line class="cls-9" x1=".427" y1="939.46891" x2="180.427" y2="939.46878"/>
          <line class="cls-9" x1=".42698" y1="919.96891" x2="180.42698" y2="919.96878"/>
          <line class="cls-9" x1=".42697" y1="900.46891" x2="180.42697" y2="900.46878"/>
          <line class="cls-9" x1=".42695" y1="880.96891" x2="180.42695" y2="880.96878"/>
          <line class="cls-9" x1=".42694" y1="861.46891" x2="180.42694" y2="861.46878"/>
          <line class="cls-9" x1=".42693" y1="841.96891" x2="180.42693" y2="841.96878"/>
          <line class="cls-9" x1=".42691" y1="822.46891" x2="180.42691" y2="822.46878"/>
          <line class="cls-9" x1=".4269" y1="802.96891" x2="180.4269" y2="802.96878"/>
          <line class="cls-9" x1=".42688" y1="783.46891" x2="180.42688" y2="783.46878"/>
          <line class="cls-9" x1=".42687" y1="763.96891" x2="180.42687" y2="763.96878"/>
          <line class="cls-9" x1=".42686" y1="744.46891" x2="180.42686" y2="744.46878"/>
          <line class="cls-9" x1=".41518" y1="724.96891" x2="180.41518" y2="724.96878"/>
          <line class="cls-9" x1=".40349" y1="705.46891" x2="180.40349" y2="705.46878"/>
          <line class="cls-9" x1=".39181" y1="685.96891" x2="180.39181" y2="685.96878"/>
          <line class="cls-9" x1=".38013" y1="666.46891" x2="180.38013" y2="666.46878"/>
          <line class="cls-9" x1=".36845" y1="646.96891" x2="180.36845" y2="646.96878"/>
          <line class="cls-9" x1=".35677" y1="627.46891" x2="180.35677" y2="627.46878"/>
          <line class="cls-9" x1=".34509" y1="607.96891" x2="180.34509" y2="607.96878"/>
          <line class="cls-9" x1=".33341" y1="588.46891" x2="180.33341" y2="588.46878"/>
        </g>
        <rect class="cls-7" x="-242.11968" y="822.87526" width="665" height="180" transform="translate(1003.25558 822.49494) rotate(90)"/>
      </g>
      <g>
        <rect class="cls-11" x=".38032" y="1240.46875" width="899.99873" height="180" transform="translate(900.75937 2660.93749) rotate(180)"/>
        <g class="cls-14">
          <line class="cls-9" x1="9.38032" y1="1240.51577" x2="9.38052" y2="1420.51577"/>
          <line class="cls-9" x1="28.88032" y1="1240.51575" x2="28.88052" y2="1420.51575"/>
          <line class="cls-9" x1="48.38032" y1="1240.51573" x2="48.38052" y2="1420.51573"/>
          <line class="cls-9" x1="67.88032" y1="1240.51571" x2="67.88052" y2="1420.51571"/>
          <line class="cls-9" x1="87.38032" y1="1240.51569" x2="87.38052" y2="1420.51569"/>
          <line class="cls-9" x1="106.88032" y1="1240.51567" x2="106.88052" y2="1420.51567"/>
          <line class="cls-9" x1="126.38032" y1="1240.51564" x2="126.38052" y2="1420.51564"/>
          <line class="cls-9" x1="145.88032" y1="1240.51562" x2="145.88052" y2="1420.51562"/>
          <line class="cls-9" x1="165.38032" y1="1240.5156" x2="165.38052" y2="1420.5156"/>
          <line class="cls-9" x1="184.88032" y1="1240.51558" x2="184.88052" y2="1420.51558"/>
          <line class="cls-9" x1="204.38032" y1="1240.51556" x2="204.38052" y2="1420.51556"/>
          <line class="cls-9" x1="223.88032" y1="1240.51554" x2="223.88052" y2="1420.51554"/>
          <line class="cls-9" x1="243.38032" y1="1240.51551" x2="243.38052" y2="1420.51551"/>
          <line class="cls-9" x1="262.88032" y1="1240.51549" x2="262.88052" y2="1420.51549"/>
          <line class="cls-9" x1="282.38032" y1="1240.51547" x2="282.38052" y2="1420.51547"/>
          <line class="cls-9" x1="301.88032" y1="1240.51545" x2="301.88052" y2="1420.51545"/>
          <line class="cls-9" x1="321.38032" y1="1240.51543" x2="321.38052" y2="1420.51543"/>
          <line class="cls-9" x1="340.88032" y1="1240.5154" x2="340.88052" y2="1420.5154"/>
          <line class="cls-9" x1="360.38032" y1="1240.51538" x2="360.38052" y2="1420.51538"/>
          <line class="cls-9" x1="379.88032" y1="1240.51536" x2="379.88052" y2="1420.51536"/>
          <line class="cls-9" x1="399.38032" y1="1240.51534" x2="399.38052" y2="1420.51534"/>
          <line class="cls-9" x1="418.88032" y1="1240.51532" x2="418.88052" y2="1420.51532"/>
          <line class="cls-9" x1="438.38032" y1="1240.5153" x2="438.38052" y2="1420.5153"/>
          <line class="cls-9" x1="457.88032" y1="1240.51527" x2="457.88052" y2="1420.51527"/>
          <line class="cls-9" x1="477.38032" y1="1240.51525" x2="477.38052" y2="1420.51525"/>
          <line class="cls-9" x1="496.88032" y1="1240.51523" x2="496.88052" y2="1420.51523"/>
          <line class="cls-9" x1="516.38032" y1="1240.50354" x2="516.38052" y2="1420.50354"/>
          <line class="cls-9" x1="535.88032" y1="1240.49185" x2="535.88052" y2="1420.49185"/>
          <line class="cls-9" x1="555.38032" y1="1240.48016" x2="555.38052" y2="1420.48016"/>
          <line class="cls-9" x1="574.88032" y1="1240.46847" x2="574.88052" y2="1420.46847"/>
          <line class="cls-9" x1="594.38032" y1="1240.45678" x2="594.38052" y2="1420.45678"/>
          <line class="cls-9" x1="613.88032" y1="1240.4451" x2="613.88052" y2="1420.4451"/>
          <line class="cls-9" x1="633.38032" y1="1240.43341" x2="633.38052" y2="1420.43341"/>
          <line class="cls-9" x1="652.88032" y1="1240.42172" x2="652.88052" y2="1420.42172"/>
          <line class="cls-9" x1="672.38042" y1="1240.50954" x2="672.38062" y2="1420.50954"/>
          <line class="cls-9" x1="691.88052" y1="1240.56724" x2="691.88072" y2="1420.56724"/>
          <line class="cls-9" x1="711.38052" y1="1240.56722" x2="711.38072" y2="1420.56722"/>
          <line class="cls-9" x1="730.88052" y1="1240.5672" x2="730.88072" y2="1420.5672"/>
          <line class="cls-9" x1="750.38052" y1="1240.56717" x2="750.38072" y2="1420.56717"/>
          <line class="cls-9" x1="769.88052" y1="1240.56715" x2="769.88072" y2="1420.56715"/>
          <line class="cls-9" x1="789.38052" y1="1240.56713" x2="789.38072" y2="1420.56713"/>
          <line class="cls-9" x1="808.88052" y1="1240.56711" x2="808.88072" y2="1420.56711"/>
          <line class="cls-9" x1="828.38052" y1="1240.56709" x2="828.38072" y2="1420.56709"/>
          <line class="cls-9" x1="847.88052" y1="1240.56706" x2="847.88072" y2="1420.56706"/>
          <line class="cls-9" x1="867.38052" y1="1240.56704" x2="867.38072" y2="1420.56704"/>
          <line class="cls-9" x1="886.88062" y1="1240.46874" x2="886.88082" y2="1420.46874"/>
        </g>
        <rect class="cls-2" x=".38032" y="1240.46875" width="900" height="180" transform="translate(900.76064 2660.93749) rotate(180)"/>
      </g>
      <g>
        <rect class="cls-11" x="330.34399" y="1810.50507" width="1320.07265" height="180" transform="translate(-910.12475 2890.88539) rotate(-90)"/>
        <g class="cls-14">
          <line class="cls-9" x1="1080.37905" y1="1248.06752" x2="900.37905" y2="1248.0678"/>
          <line class="cls-9" x1="1080.37908" y1="1267.56752" x2="900.37908" y2="1267.5678"/>
          <line class="cls-9" x1="1080.37911" y1="1287.06752" x2="900.37911" y2="1287.0678"/>
          <line class="cls-9" x1="1080.37914" y1="1306.56752" x2="900.37914" y2="1306.5678"/>
          <line class="cls-9" x1="1080.37917" y1="1326.06752" x2="900.37917" y2="1326.0678"/>
          <line class="cls-9" x1="1080.37921" y1="1345.56752" x2="900.37921" y2="1345.5678"/>
          <line class="cls-9" x1="1080.37924" y1="1365.06752" x2="900.37924" y2="1365.0678"/>
          <line class="cls-9" x1="1080.37927" y1="1384.56752" x2="900.37927" y2="1384.5678"/>
          <line class="cls-9" x1="1080.3793" y1="1404.06752" x2="900.3793" y2="1404.0678"/>
          <line class="cls-9" x1="1080.37933" y1="1423.56752" x2="900.37933" y2="1423.5678"/>
          <line class="cls-9" x1="1080.37936" y1="1443.06752" x2="900.37936" y2="1443.0678"/>
          <line class="cls-9" x1="1080.37939" y1="1462.56752" x2="900.37939" y2="1462.5678"/>
          <line class="cls-9" x1="1080.37942" y1="1482.06752" x2="900.37942" y2="1482.0678"/>
          <line class="cls-9" x1="1080.37946" y1="1501.56752" x2="900.37946" y2="1501.5678"/>
          <line class="cls-9" x1="1080.37949" y1="1521.06752" x2="900.37949" y2="1521.0678"/>
          <line class="cls-9" x1="1080.37952" y1="1540.56752" x2="900.37952" y2="1540.5678"/>
          <line class="cls-9" x1="1080.37955" y1="1560.06752" x2="900.37955" y2="1560.0678"/>
          <line class="cls-9" x1="1080.37958" y1="1579.56752" x2="900.37958" y2="1579.5678"/>
          <line class="cls-9" x1="1080.37961" y1="1599.06752" x2="900.37961" y2="1599.0678"/>
          <line class="cls-9" x1="1080.37964" y1="1618.56752" x2="900.37964" y2="1618.5678"/>
          <line class="cls-9" x1="1080.37967" y1="1638.06752" x2="900.37967" y2="1638.0678"/>
          <line class="cls-9" x1="1080.37971" y1="1657.56752" x2="900.37971" y2="1657.5678"/>
          <line class="cls-9" x1="1080.37974" y1="1677.06752" x2="900.37974" y2="1677.0678"/>
          <line class="cls-9" x1="1080.37977" y1="1696.56752" x2="900.37977" y2="1696.5678"/>
          <line class="cls-9" x1="1080.3798" y1="1716.06752" x2="900.3798" y2="1716.0678"/>
          <line class="cls-9" x1="1080.3915" y1="1735.56752" x2="900.3915" y2="1735.5678"/>
          <line class="cls-9" x1="1080.4032" y1="1755.06752" x2="900.4032" y2="1755.0678"/>
          <line class="cls-9" x1="1080.41489" y1="1774.56752" x2="900.41489" y2="1774.5678"/>
          <line class="cls-9" x1="1080.42659" y1="1794.06751" x2="900.42659" y2="1794.0678"/>
          <line class="cls-9" x1="1080.43829" y1="1813.56751" x2="900.43829" y2="1813.5678"/>
          <line class="cls-9" x1="1080.44999" y1="1833.06751" x2="900.44999" y2="1833.0678"/>
          <line class="cls-9" x1="1080.46169" y1="1852.56751" x2="900.46169" y2="1852.5678"/>
          <line class="cls-9" x1="1080.47339" y1="1872.06751" x2="900.47339" y2="1872.0678"/>
          <line class="cls-9" x1="1080.33317" y1="1891.5678" x2="900.33317" y2="1891.56809"/>
          <line class="cls-9" x1="1080.3332" y1="1911.0678" x2="900.3332" y2="1911.06809"/>
          <line class="cls-9" x1="1080.33323" y1="1930.5678" x2="900.33323" y2="1930.56809"/>
          <line class="cls-9" x1="1080.33326" y1="1950.0678" x2="900.33326" y2="1950.06809"/>
          <line class="cls-9" x1="1080.33329" y1="1969.5678" x2="900.33329" y2="1969.56809"/>
          <line class="cls-9" x1="1080.33332" y1="1989.0678" x2="900.33332" y2="1989.06809"/>
          <line class="cls-9" x1="1080.33335" y1="2008.5678" x2="900.33335" y2="2008.56809"/>
          <line class="cls-9" x1="1080.33338" y1="2028.0678" x2="900.33338" y2="2028.06809"/>
          <line class="cls-9" x1="1080.33342" y1="2047.5678" x2="900.33342" y2="2047.56809"/>
          <line class="cls-9" x1="1080.33345" y1="2067.0678" x2="900.33345" y2="2067.06809"/>
          <line class="cls-9" x1="1080.33348" y1="2086.5678" x2="900.33348" y2="2086.56809"/>
          <line class="cls-9" x1="1080.33351" y1="2106.0678" x2="900.33351" y2="2106.06809"/>
          <line class="cls-9" x1="1080.33354" y1="2125.5678" x2="900.33354" y2="2125.56809"/>
          <line class="cls-9" x1="1080.33357" y1="2145.0678" x2="900.33357" y2="2145.06809"/>
          <line class="cls-9" x1="1080.3336" y1="2164.5678" x2="900.3336" y2="2164.56809"/>
          <line class="cls-9" x1="1080.33363" y1="2184.0678" x2="900.33363" y2="2184.06809"/>
          <line class="cls-9" x1="1080.33367" y1="2203.5678" x2="900.33367" y2="2203.56809"/>
          <line class="cls-9" x1="1080.3337" y1="2223.0678" x2="900.3337" y2="2223.06809"/>
          <line class="cls-9" x1="1080.33373" y1="2242.5678" x2="900.33373" y2="2242.56809"/>
          <line class="cls-9" x1="1080.33376" y1="2262.0678" x2="900.33376" y2="2262.06809"/>
          <line class="cls-9" x1="1080.33379" y1="2281.5678" x2="900.33379" y2="2281.56809"/>
          <line class="cls-9" x1="1080.33382" y1="2301.0678" x2="900.33382" y2="2301.06809"/>
          <line class="cls-9" x1="1080.33385" y1="2320.5678" x2="900.33385" y2="2320.56809"/>
          <line class="cls-9" x1="1080.33388" y1="2340.0678" x2="900.33388" y2="2340.06809"/>
          <line class="cls-9" x1="1080.33392" y1="2359.5678" x2="900.33392" y2="2359.56809"/>
          <line class="cls-9" x1="1080.34561" y1="2379.0678" x2="900.34561" y2="2379.06809"/>
          <line class="cls-9" x1="1080.35731" y1="2398.5678" x2="900.35731" y2="2398.56809"/>
          <line class="cls-9" x1="1080.36901" y1="2418.0678" x2="900.36901" y2="2418.06809"/>
          <line class="cls-9" x1="1080.38071" y1="2437.5678" x2="900.38071" y2="2437.56809"/>
          <line class="cls-9" x1="1080.39241" y1="2457.0678" x2="900.39241" y2="2457.06809"/>
          <line class="cls-9" x1="1080.40411" y1="2476.5678" x2="900.40411" y2="2476.56809"/>
          <line class="cls-9" x1="1080.41581" y1="2496.0678" x2="900.41581" y2="2496.06809"/>
          <line class="cls-9" x1="1080.4275" y1="2515.5678" x2="900.4275" y2="2515.56809"/>
          <line class="cls-9" x1="1080.36901" y1="2535.0678" x2="900.36901" y2="2535.06809"/>
          <line class="cls-9" x1="1080.38071" y1="2554.5678" x2="900.38071" y2="2554.56809"/>
        </g>
        <rect class="cls-5" x="330.37285" y="1810.47621" width="1320.01493" height="180" transform="translate(-910.09589 2890.85653) rotate(-90)"/>
      </g>
      <g>
        <rect class="cls-11" x="360.35953" y="2560.46875" width="720.02118" height="180"/>
        <g class="cls-14">
          <line class="cls-9" x1="408.88238" y1="2560.48982" x2="408.88258" y2="2740.48982"/>
          <line class="cls-9" x1="428.38238" y1="2560.4898" x2="428.38258" y2="2740.4898"/>
          <line class="cls-9" x1="447.88238" y1="2560.48978" x2="447.88258" y2="2740.48978"/>
          <line class="cls-9" x1="467.38238" y1="2560.48976" x2="467.38258" y2="2740.48976"/>
          <line class="cls-9" x1="486.88238" y1="2560.48974" x2="486.88258" y2="2740.48974"/>
          <line class="cls-9" x1="506.38238" y1="2560.48972" x2="506.38258" y2="2740.48972"/>
          <line class="cls-9" x1="525.88238" y1="2560.48969" x2="525.88258" y2="2740.48969"/>
          <line class="cls-9" x1="545.38238" y1="2560.48967" x2="545.38258" y2="2740.48967"/>
          <line class="cls-9" x1="564.88238" y1="2560.48965" x2="564.88258" y2="2740.48965"/>
          <line class="cls-9" x1="584.38238" y1="2560.48963" x2="584.38258" y2="2740.48963"/>
          <line class="cls-9" x1="603.88238" y1="2560.48961" x2="603.88258" y2="2740.48961"/>
          <line class="cls-9" x1="623.38238" y1="2560.48959" x2="623.38258" y2="2740.48959"/>
          <line class="cls-9" x1="642.88238" y1="2560.48956" x2="642.88258" y2="2740.48956"/>
          <line class="cls-9" x1="662.38238" y1="2560.48954" x2="662.38258" y2="2740.48954"/>
          <line class="cls-9" x1="681.88238" y1="2560.48952" x2="681.88258" y2="2740.48952"/>
          <line class="cls-9" x1="701.38238" y1="2560.4895" x2="701.38258" y2="2740.4895"/>
          <line class="cls-9" x1="720.88238" y1="2560.47781" x2="720.88258" y2="2740.47781"/>
          <line class="cls-9" x1="740.38238" y1="2560.46612" x2="740.38258" y2="2740.46612"/>
          <line class="cls-9" x1="759.88238" y1="2560.45443" x2="759.88258" y2="2740.45443"/>
          <line class="cls-9" x1="779.38238" y1="2560.44274" x2="779.38258" y2="2740.44274"/>
          <line class="cls-9" x1="798.88238" y1="2560.43105" x2="798.88258" y2="2740.43105"/>
          <line class="cls-9" x1="818.38238" y1="2560.41936" x2="818.38258" y2="2740.41936"/>
          <line class="cls-9" x1="837.88238" y1="2560.40767" x2="837.88258" y2="2740.40767"/>
          <line class="cls-9" x1="857.38238" y1="2560.39599" x2="857.38258" y2="2740.39599"/>
          <line class="cls-9" x1="876.88248" y1="2560.48381" x2="876.88268" y2="2740.48381"/>
          <line class="cls-9" x1="896.38258" y1="2560.54151" x2="896.38278" y2="2740.54151"/>
          <line class="cls-9" x1="915.88258" y1="2560.54149" x2="915.88278" y2="2740.54149"/>
          <line class="cls-9" x1="935.38258" y1="2560.54146" x2="935.38278" y2="2740.54146"/>
          <line class="cls-9" x1="954.88258" y1="2560.54144" x2="954.88278" y2="2740.54144"/>
          <line class="cls-9" x1="974.38258" y1="2560.54142" x2="974.38278" y2="2740.54142"/>
          <line class="cls-9" x1="993.88258" y1="2560.5414" x2="993.88278" y2="2740.5414"/>
          <line class="cls-9" x1="1013.38258" y1="2560.54138" x2="1013.38278" y2="2740.54138"/>
          <line class="cls-9" x1="1032.88258" y1="2560.54135" x2="1032.88278" y2="2740.54135"/>
          <line class="cls-9" x1="1052.38258" y1="2560.54133" x2="1052.38278" y2="2740.54133"/>
          <line class="cls-9" x1="1071.88258" y1="2560.54131" x2="1071.88278" y2="2740.54131"/>
          <line class="cls-9" x1="369.88228" y1="2560.54276" x2="369.88248" y2="2740.54276"/>
          <line class="cls-9" x1="389.38228" y1="2560.54274" x2="389.38248" y2="2740.54274"/>
        </g>
        <rect class="cls-4" x="360.38071" y="2560.46875" width="720" height="180"/>
      </g>
      <g>
        <rect class="cls-11" x=".35948" y="2740.48997" width="540.04246" height="180" transform="translate(3100.87068 2560.10927) rotate(90)"/>
        <g class="cls-14">
          <line class="cls-9" x1="360.3594" y1="2567.54245" x2="180.3594" y2="2567.54274"/>
          <line class="cls-9" x1="360.35944" y1="2587.04245" x2="180.35944" y2="2587.04274"/>
          <line class="cls-9" x1="360.35947" y1="2606.54245" x2="180.35947" y2="2606.54274"/>
          <line class="cls-9" x1="360.3595" y1="2626.04245" x2="180.3595" y2="2626.04274"/>
          <line class="cls-9" x1="360.35953" y1="2645.54245" x2="180.35953" y2="2645.54274"/>
          <line class="cls-9" x1="360.35956" y1="2665.04245" x2="180.35956" y2="2665.04274"/>
          <line class="cls-9" x1="360.35959" y1="2684.54245" x2="180.35959" y2="2684.54274"/>
          <line class="cls-9" x1="360.35962" y1="2704.04245" x2="180.35962" y2="2704.04274"/>
          <line class="cls-9" x1="360.35965" y1="2723.54245" x2="180.35965" y2="2723.54274"/>
          <line class="cls-9" x1="360.35969" y1="2743.04245" x2="180.35969" y2="2743.04274"/>
          <line class="cls-9" x1="360.35972" y1="2762.54245" x2="180.35972" y2="2762.54274"/>
          <line class="cls-9" x1="360.35975" y1="2782.04245" x2="180.35975" y2="2782.04274"/>
          <line class="cls-9" x1="360.35978" y1="2801.54245" x2="180.35978" y2="2801.54274"/>
          <line class="cls-9" x1="360.35981" y1="2821.04245" x2="180.35981" y2="2821.04274"/>
          <line class="cls-9" x1="360.35984" y1="2840.54245" x2="180.35984" y2="2840.54274"/>
          <line class="cls-9" x1="360.35987" y1="2860.04245" x2="180.35987" y2="2860.04274"/>
          <line class="cls-9" x1="360.37157" y1="2879.54245" x2="180.37157" y2="2879.54274"/>
          <line class="cls-9" x1="360.38327" y1="2899.04245" x2="180.38327" y2="2899.04274"/>
          <line class="cls-9" x1="360.39497" y1="2918.54245" x2="180.39497" y2="2918.54274"/>
          <line class="cls-9" x1="360.40667" y1="2938.04245" x2="180.40667" y2="2938.04274"/>
          <line class="cls-9" x1="360.41837" y1="2957.54245" x2="180.41837" y2="2957.54274"/>
          <line class="cls-9" x1="360.43006" y1="2977.04245" x2="180.43006" y2="2977.04274"/>
          <line class="cls-9" x1="360.44176" y1="2996.54245" x2="180.44176" y2="2996.54274"/>
          <line class="cls-9" x1="360.45346" y1="3016.04245" x2="180.45346" y2="3016.04274"/>
          <line class="cls-9" x1="360.36565" y1="3035.54255" x2="180.36565" y2="3035.54284"/>
          <line class="cls-9" x1="360.30796" y1="3055.04265" x2="180.30796" y2="3055.04294"/>
          <line class="cls-9" x1="360.30799" y1="3074.54265" x2="180.30799" y2="3074.54294"/>
          <line class="cls-9" x1="360.30797" y1="3094.04294" x2="180.30797" y2="3094.04323"/>
        </g>
        <rect class="cls-3" x=".44951" y="2740.39995" width="539.86241" height="180" transform="translate(3100.78066 2560.01924) rotate(90)"/>
      </g>
      <g>
        <rect class="cls-11" x="180.38071" y="3100.46875" width="539.99961" height="180"/>
        <g class="cls-14">
          <line class="cls-9" x1="188.47367" y1="3100.51139" x2="188.47407" y2="3280.51139"/>
          <line class="cls-9" x1="207.97367" y1="3100.51134" x2="207.97407" y2="3280.51134"/>
          <line class="cls-9" x1="227.47367" y1="3100.5113" x2="227.47407" y2="3280.5113"/>
          <line class="cls-9" x1="246.97367" y1="3100.51126" x2="246.97407" y2="3280.51126"/>
          <line class="cls-9" x1="266.47367" y1="3100.51121" x2="266.47407" y2="3280.51121"/>
          <line class="cls-9" x1="285.97367" y1="3100.51117" x2="285.97407" y2="3280.51117"/>
          <line class="cls-9" x1="305.47367" y1="3100.51113" x2="305.47407" y2="3280.51113"/>
          <line class="cls-9" x1="324.97367" y1="3100.51108" x2="324.97407" y2="3280.51108"/>
          <line class="cls-9" x1="344.47367" y1="3100.51104" x2="344.47407" y2="3280.51104"/>
          <line class="cls-9" x1="363.97367" y1="3100.51099" x2="363.97407" y2="3280.51099"/>
          <line class="cls-9" x1="383.47367" y1="3100.51095" x2="383.47407" y2="3280.51095"/>
          <line class="cls-9" x1="402.97367" y1="3100.51091" x2="402.97407" y2="3280.51091"/>
          <line class="cls-9" x1="422.47367" y1="3100.51086" x2="422.47407" y2="3280.51086"/>
          <line class="cls-9" x1="441.97367" y1="3100.51082" x2="441.97407" y2="3280.51082"/>
          <line class="cls-9" x1="461.47367" y1="3100.51078" x2="461.47407" y2="3280.51078"/>
          <line class="cls-9" x1="480.97367" y1="3100.51073" x2="480.97407" y2="3280.51073"/>
          <line class="cls-9" x1="500.47367" y1="3100.49902" x2="500.47407" y2="3280.49902"/>
          <line class="cls-9" x1="519.97367" y1="3100.48731" x2="519.97407" y2="3280.48731"/>
          <line class="cls-9" x1="539.47367" y1="3100.4756" x2="539.47407" y2="3280.4756"/>
          <line class="cls-9" x1="558.97367" y1="3100.46389" x2="558.97407" y2="3280.46389"/>
          <line class="cls-9" x1="578.47367" y1="3100.45218" x2="578.47407" y2="3280.45218"/>
          <line class="cls-9" x1="597.97367" y1="3100.44047" x2="597.97407" y2="3280.44047"/>
          <line class="cls-9" x1="617.47367" y1="3100.42875" x2="617.47407" y2="3280.42875"/>
          <line class="cls-9" x1="636.97367" y1="3100.41704" x2="636.97407" y2="3280.41704"/>
          <line class="cls-9" x1="656.47377" y1="3100.50484" x2="656.47417" y2="3280.50484"/>
          <line class="cls-9" x1="675.97387" y1="3100.56252" x2="675.97427" y2="3280.56252"/>
          <line class="cls-9" x1="695.47417" y1="3100.58299" x2="695.47457" y2="3280.58299"/>
          <line class="cls-9" x1="714.97427" y1="3100.64067" x2="714.97467" y2="3280.64067"/>
        </g>
        <rect class="cls-8" x="180.38071" y="3100.46875" width="539.99961" height="180"/>
      </g>
      <g>
        <rect class="cls-11" x="469.26912" y="3351.58034" width="682.22319" height="180" transform="translate(4251.96105 2631.19963) rotate(90)"/>
        <g class="cls-14">
          <line class="cls-9" x1="900.43216" y1="3111.46875" x2="720.43216" y2="3111.46903"/>
          <line class="cls-9" x1="900.43219" y1="3130.96875" x2="720.43219" y2="3130.96903"/>
          <line class="cls-9" x1="900.43222" y1="3150.46875" x2="720.43222" y2="3150.46903"/>
          <line class="cls-9" x1="900.43225" y1="3169.96875" x2="720.43225" y2="3169.96903"/>
          <line class="cls-9" x1="900.43228" y1="3189.46875" x2="720.43228" y2="3189.46903"/>
          <line class="cls-9" x1="900.43231" y1="3208.96875" x2="720.43231" y2="3208.96903"/>
          <line class="cls-9" x1="900.43234" y1="3228.46875" x2="720.43234" y2="3228.46903"/>
          <line class="cls-9" x1="900.43237" y1="3247.96875" x2="720.43237" y2="3247.96903"/>
          <line class="cls-9" x1="900.43241" y1="3267.46875" x2="720.43241" y2="3267.46903"/>
          <line class="cls-9" x1="900.43244" y1="3286.96875" x2="720.43244" y2="3286.96903"/>
          <line class="cls-9" x1="900.43247" y1="3306.46875" x2="720.43247" y2="3306.46903"/>
          <line class="cls-9" x1="900.4325" y1="3325.96875" x2="720.4325" y2="3325.96903"/>
          <line class="cls-9" x1="900.43253" y1="3345.46875" x2="720.43253" y2="3345.46903"/>
          <line class="cls-9" x1="900.43256" y1="3364.96875" x2="720.43256" y2="3364.96903"/>
          <line class="cls-9" x1="900.43259" y1="3384.46875" x2="720.43259" y2="3384.46903"/>
          <line class="cls-9" x1="900.43262" y1="3403.96875" x2="720.43262" y2="3403.96903"/>
          <line class="cls-9" x1="900.44432" y1="3423.46875" x2="720.44432" y2="3423.46903"/>
          <line class="cls-9" x1="900.45602" y1="3442.96875" x2="720.45602" y2="3442.96903"/>
          <line class="cls-9" x1="900.46772" y1="3462.46875" x2="720.46772" y2="3462.46903"/>
          <line class="cls-9" x1="900.47942" y1="3481.96875" x2="720.47942" y2="3481.96903"/>
          <line class="cls-9" x1="900.49112" y1="3501.46875" x2="720.49112" y2="3501.46903"/>
          <line class="cls-9" x1="900.50282" y1="3520.96875" x2="720.50282" y2="3520.96903"/>
          <line class="cls-9" x1="900.51451" y1="3540.46875" x2="720.51451" y2="3540.46903"/>
          <line class="cls-9" x1="900.52621" y1="3559.96875" x2="720.52621" y2="3559.96903"/>
          <line class="cls-9" x1="900.4384" y1="3579.46885" x2="720.4384" y2="3579.46914"/>
          <line class="cls-9" x1="900.38071" y1="3598.96895" x2="720.38071" y2="3598.96924"/>
          <line class="cls-9" x1="900.38074" y1="3618.46895" x2="720.38074" y2="3618.46924"/>
          <line class="cls-9" x1="900.40667" y1="3637.96924" x2="720.40667" y2="3637.96952"/>
          <line class="cls-9" x1="900.41837" y1="3657.46924" x2="720.41837" y2="3657.46952"/>
          <line class="cls-9" x1="900.43006" y1="3676.96924" x2="720.43006" y2="3676.96952"/>
          <line class="cls-9" x1="900.44176" y1="3696.46924" x2="720.44176" y2="3696.46952"/>
          <line class="cls-9" x1="900.45346" y1="3715.96924" x2="720.45346" y2="3715.96952"/>
          <line class="cls-9" x1="900.36565" y1="3735.46934" x2="720.36565" y2="3735.46962"/>
          <line class="cls-9" x1="900.30796" y1="3754.96944" x2="720.30796" y2="3754.96973"/>
          <line class="cls-9" x1="900.30799" y1="3774.46944" x2="720.30799" y2="3774.46973"/>
        </g>
        <rect class="cls-7" x="469.26912" y="3351.58034" width="682.22319" height="180" transform="translate(4251.96105 2631.19963) rotate(90)"/>
      </g>
    </g>
  </g>
</svg>