<?xml version="1.0" encoding="UTF-8"?>
<svg id="Layer_2" data-name="Layer 2" xmlns="http://www.w3.org/2000/svg" viewBox="0 0 439.51275 96.54616">
  <defs>
    <style>
      .cls-1 {
        fill: #f8fafb;
      }

      .cls-2 {
        fill: #f8e789;
      }

      .cls-3 {
        fill: #e8984c;
      }

      .cls-4 {
        fill: none;
        stroke: #000;
        stroke-linecap: round;
        stroke-miterlimit: 10;
        stroke-width: 2px;
      }
    </style>
  </defs>
  <g id="candy_groups" data-name="candy groups">
    <g>
      <g>
        <path class="cls-3" d="m43.13355,95.35273L3.95552,84.99167c-2.98569-.7896-4.13584-4.35086-2.13688-6.61222l7.39505-8.36502s16.20199,2.85008,22.98882,5.07534c6.78389,2.22449,13.93447,5.46173,13.93447,5.46173l2.12281,10.10982c.61975,2.95391-2.14056,5.48101-5.12625,4.69141Z"/>
        <path class="cls-2" d="m46.13699,80.55149s-7.15058-3.23724-13.93447-5.46173c-6.78683-2.22525-22.98882-5.07534-22.98882-5.07534l13.52459-15.29421.00369-.00208c.1618-.00604,5.38929-.19871,9.94805.8665,4.56168,1.06596,8.94849,4.07595,9.07876,4.16535l.00218.00363,4.36601,20.79788Z"/>
        <path class="cls-1" d="m41.76879,59.74998c-.13027-.0894-4.51708-3.09938-9.07876-4.16535-4.55876-1.06521-9.78625-.87254-9.94805-.8665l8.9769-10.15367c2.25384-2.54808,6.5665-1.40755,7.26606,1.92159l2.78385,13.26392Z"/>
        <path class="cls-4" d="m13.96833,64.89209l-11.96874,13.53534c-2.00082,2.26271-.85018,5.82148,2.13772,6.61166l39.1759,10.36049c2.98789.79018,5.74738-1.73452,5.1267-4.69051l-9.27546-44.17463c-.69927-3.33028-5.01025-4.47037-7.26442-1.92115l-15.09303,17.06857"/>
        <path class="cls-4" d="m17.64419,71.51729c4.73143.91363,10.39626,2.13674,13.71988,3.30896,6.48213,2.28621,14.77291,5.72525,14.77291,5.72525"/>
        <path class="cls-4" d="m38.9886,58.16151c-1.77605-.93716-4.14187-2.04085-6.29857-2.57687-4.15281-1.03212-9.57191-.87318-9.57191-.87318"/>
      </g>
      <g>
        <path class="cls-3" d="m147.84746,40.60717l-37.12103,16.25726c-2.82893,1.23894-5.9447-.83408-5.78616-3.84813l.58699-11.1497s14.45889-7.84652,21.15711-10.32577c6.69544-2.47801,14.30796-4.39115,14.30796-4.39115l7.95076,6.59547c2.32268,1.92739,1.73331,5.62309-1.09562,6.86202Z"/>
        <path class="cls-2" d="m140.99232,27.14968s-7.61252,1.91314-14.30796,4.39115c-6.69822,2.47925-21.15711,10.32577-21.15711,10.32577l1.07621-20.38796.0016-.00393c.12293-.10538,4.09618-3.50789,8.32825-5.50952,4.23483-2.00286,9.54197-2.37478,9.69958-2.38582l.00397.00149,16.35546,13.56882Z"/>
        <path class="cls-1" d="m124.63289,13.57937c-.15761.01104-5.46475.38296-9.69958,2.38582-4.23207,2.00163-8.20532,5.40414-8.32825,5.50952l.71297-13.53415c.17976-3.39709,4.26599-5.18666,6.88457-3.01512l10.43029,8.65393Z"/>
        <path class="cls-4" d="m106.06385,34.89832l-.95206,18.043c-.15916,3.01626,2.95545,5.08702,5.78647,3.84717l37.11901-16.25638c2.83102-1.23985,3.42124-4.93316,1.09654-6.8616L114.37325,4.85168c-2.61906-2.17263-6.7037-.38375-6.88301,3.01443l-1.20058,22.75289"/>
        <path class="cls-4" d="m113.0631,37.79932c4.27298-2.22772,9.46932-4.79373,12.80085-5.94328,6.49755-2.24199,15.12837-4.70636,15.12837-4.70636"/>
        <path class="cls-4" d="m121.46794,14.06497c-1.97358.37096-4.51253.97839-6.53463,1.90022-3.89363,1.77503-8.03789,5.27031-8.03789,5.27031"/>
      </g>
      <g>
        <path class="cls-3" d="m138.53738,39.44007l37.63766,15.0225c2.8683,1.14484,3.57938,4.81905,1.32164,6.8221l-8.3523,7.40942s-15.73846-4.78834-22.20641-7.81794c-6.46512-3.02849-13.17178-7.10664-13.17178-7.10664l-.88474-10.29233c-.25801-3.00717,2.78763-5.18195,5.65592-4.03711Z"/>
        <path class="cls-2" d="m133.76619,53.76951s6.70666,4.07815,13.17178,7.10664c6.46795,3.0296,22.20641,7.81794,22.20641,7.81794l-15.27475,13.54656-.00392.00162c-.16134-.01357-5.37378-.45443-9.77027-2.06308-4.39931-1.60975-8.38995-5.12811-8.50846-5.2326l-.00173-.00387-1.81906-21.17321Z"/>
        <path class="cls-1" d="m135.58697,74.94659c.1185.10449,4.10915,3.62286,8.50846,5.2326,4.3965,1.60864,9.60893,2.04951,9.77027,2.06308l-10.13883,8.99365c-2.54542,2.25685-6.68852.60319-6.98038-2.78611l-1.15952-13.50322Z"/>
        <path class="cls-4" d="m163.80523,73.2039l13.51763-11.98874c2.25975-2.00416,1.54788-5.67596-1.32254-6.82165l-37.63562-15.02169c-2.87042-1.14568-5.91494,1.02681-5.65627,4.03616l3.86572,44.97208c.29143,3.3904,4.43292,5.04342,6.9788,2.78548l17.04624-15.11825"/>
        <path class="cls-4" d="m160.95747,66.18282c-4.58623-1.47906-10.0616-3.37819-13.21908-4.94371-6.15811-3.05326-13.9722-7.4696-13.9722-7.4696"/>
        <path class="cls-4" d="m138.15468,76.85959c1.64969,1.14505,3.86469,2.52672,5.94075,3.3196,3.99753,1.52671,9.39608,2.02423,9.39608,2.02423"/>
      </g>
      <g>
        <path class="cls-3" d="m215.28922,7.32457l6.76043,39.95705c.5152,3.04505-2.25213,5.56445-5.13755,4.67903l-10.67376-3.27587s-4.10216-15.9311-4.88136-23.03079c-.77868-7.0967-.78676-14.94593-.78676-14.94593l8.32815-6.11201c2.43354-1.78537,5.87565-.31654,6.39085,2.72851Z"/>
        <path class="cls-2" d="m200.57021,10.70806s.00809,7.84924.78676,14.94593c.7792,7.09969,4.88136,23.03079,4.88136,23.03079l-19.51697-5.99292-.00342-.0025c-.07238-.14483-2.40868-4.82516-3.32318-9.41653-.91501-4.59434.01242-9.83304.03997-9.98861l.00241-.00349,17.13307-12.57267Z"/>
        <path class="cls-1" d="m183.43474,23.28422c-.02755.15557-.95499,5.39427-.03997,9.98861.91449,4.59136,3.25079,9.2717,3.32318,9.41653l-12.95631-3.97688c-3.25185-.99898-3.99603-5.3974-1.25381-7.41054l10.92692-8.01772Z"/>
        <path class="cls-4" d="m199.60871,46.47278l17.27228,5.30328c2.88741.88655,5.65227-1.63226,5.13669-4.67956l-6.76006-39.95488c-.51558-3.04731-3.95516-4.51637-6.39022-2.7293l-36.38972,26.70618c-2.74339,2.01335-1.9995,6.41006,1.25352,7.40886l21.78098,6.68763"/>
        <path class="cls-4" d="m204.12192,40.38703c-1.12389-4.68594-2.35182-10.34973-2.6583-13.86065-.59774-6.84744-.8934-15.81832-.8934-15.81832"/>
        <path class="cls-4" d="m183.13757,26.47238c-.11919,2.0046-.14623,4.61506.2572,6.80045.77681,4.20805,3.16161,9.07679,3.16161,9.07679"/>
      </g>
      <g>
        <path class="cls-3" d="m310.99324,83.24861l-38.86214,11.48926c-2.96161.87558-5.7938-1.57068-5.25972-4.54127l1.9762-10.98886s15.32636-5.97748,22.28196-7.59994c6.95269-1.62158,14.74466-2.56808,14.74466-2.56808l7.06389,7.53765c2.06352,2.20262,1.01677,5.79566-1.94484,6.67123Z"/>
        <path class="cls-2" d="m305.87419,69.03972s-7.79196.9465-14.74466,2.56808c-6.9556,1.62246-22.28196,7.59994-22.28196,7.59994l3.61645-20.0935.00208-.00369c.13514-.08918,4.50257-2.96831,8.95166-4.42519,4.45198-1.45776,9.76399-1.16332,9.92174-1.15457l.00375.00197,14.53093,15.50696Z"/>
        <path class="cls-1" d="m291.3395,53.53079c-.15775-.00875-5.46976-.30319-9.92174,1.15457-4.44909,1.45688-8.81652,4.33601-8.95166,4.42519l2.39928-13.33886c.60301-3.34797,4.88091-4.61269,7.20748-2.13083l9.26665,9.88993Z"/>
        <path class="cls-4" d="m270.25106,72.3612l-3.20014,17.78245c-.53497,2.9727,2.29634,5.41657,5.26015,4.54035l38.86003-11.48863c2.9638-.87622,4.01109-4.46677,1.9457-6.6707l-30.86542-32.93566c-2.32692-2.48299-6.60314-1.21876-7.20585,2.13035l-4.03549,22.42433"/>
        <path class="cls-4" d="m276.83275,76.11441c4.51795-1.67608,9.9943-3.57238,13.4434-4.29643,6.72685-1.41215,15.59804-2.77825,15.59804-2.77825"/>
        <path class="cls-4" d="m288.13867,53.61693c-2.00447.12133-4.59943.40661-6.72092,1.06843-4.08498,1.27436-8.63367,4.22416-8.63367,4.22416"/>
      </g>
      <g>
        <path class="cls-3" d="m295.665,2.51054l40.49659-1.51502c3.08617-.11546,5.22492,2.95557,3.97234,5.7016l-4.63406,10.15805s-16.32887,1.99888-23.46963,1.84963c-7.13773-.14938-14.92157-1.16053-14.92157-1.16053l-4.97891-9.05126c-1.45427-2.64476.44906-5.86701,3.53523-5.98247Z"/>
        <path class="cls-2" d="m297.10868,17.54426s7.78384,1.01116,14.92157,1.16053c7.14076.14924,23.46963-1.84963,23.46963-1.84963l-8.47635,18.57361-.00293.00307c-.153.05297-5.09707,1.76178-9.76831,2.07237-4.67426.31072-9.74819-1.28908-9.89886-1.3366l-.00315-.00284-10.24161-18.62051Z"/>
        <path class="cls-1" d="m307.35344,36.16761c.15068.04752,5.22461,1.64732,9.89886,1.3366,4.67124-.31059,9.6153-2.0194,9.76831-2.07237l-5.62551,12.33026c-1.41275,3.09461-5.87056,3.26139-7.51061.28098l-6.53105-11.87547Z"/>
        <path class="cls-4" d="m332.44579,23.14145l7.50108-16.43746c1.25396-2.74786-.88453-5.81636-3.97298-5.70082l-40.49439,1.51494c-3.08845.11554-4.99169,3.33526-3.53592,5.98174l21.75512,39.5493c1.6401,2.98158,6.09617,2.81488,7.50891-.28092l9.45914-20.72825"/>
        <path class="cls-4" d="m326.99757,17.87625c-4.7922.50593-10.56748.98806-14.08848.83608-6.86709-.29641-15.80041-1.16807-15.80041-1.16807"/>
        <path class="cls-4" d="m310.47603,36.87623c1.97215.37847,4.557.74422,6.77628.62797,4.27329-.22385,9.41046-1.95628,9.41046-1.95628"/>
      </g>
      <g>
        <path class="cls-3" d="m420.33936,25.56599l17.81475,36.39923c1.35763,2.77392-.58158,5.97469-3.59963,5.94394l-11.16456-.11427s-8.45181-14.11362-11.21251-20.70083c-2.75934-6.58449-4.99315-14.10916-4.99315-14.10916l6.25284-8.22294c1.82729-2.40222,5.54464-1.96989,6.90227.80403Z"/>
        <path class="cls-2" d="m407.18425,32.9849s2.23381,7.52467,4.99315,14.10916c2.76069,6.58721,11.21251,20.70083,11.21251,20.70083l-20.41525-.21182-.00399-.00143c-.11049-.11835-3.67821-3.94395-5.85728-8.08745-2.18041-4.14621-2.77675-9.43284-2.79445-9.58984l.00132-.00403,12.86399-16.91542Z"/>
        <path class="cls-1" d="m394.31894,49.90435c.0177.157.61405,5.44363,2.79445,9.58984,2.17906,4.1435,5.74679,7.96909,5.85728,8.08745l-13.55221-.13916c-3.40165-.03573-5.36267-4.04251-3.30397-6.7507l8.20445-10.78742Z"/>
        <path class="cls-4" d="m416.40516,67.55388l18.06713.18709c3.02029.03128,4.95729-3.16824,3.59866-5.94421l-17.81378-36.39725c-1.35863-2.77597-5.07362-3.20925-6.90188-.80496l-27.32172,35.92987c-2.05976,2.70872-.0995,6.71393,3.30322,6.74917l22.78333.23593"/>
        <path class="cls-4" d="m419.00714,60.43805c-2.40668-4.17481-5.19046-9.25781-6.48006-12.53767-2.51515-6.39678-5.34282-14.91548-5.34282-14.91548"/>
        <path class="cls-4" d="m394.93814,53.0459c.45421,1.9561,1.16862,4.46704,2.17526,6.44829,1.93833,3.81497,5.60599,7.80748,5.60599,7.80748"/>
      </g>
    </g>
  </g>
</svg>