<?xml version="1.0" encoding="UTF-8"?>
<svg id="Layer_2" data-name="Layer 2" xmlns="http://www.w3.org/2000/svg" xmlns:xlink="http://www.w3.org/1999/xlink" viewBox="0 0 103.16454 1211.54515">
  <defs>
    <style>
      .cls-1 {
        fill: url(#linear-gradient);
      }

      .cls-2 {
        fill: #d55159;
      }

      .cls-3 {
        fill: #96363e;
      }

      .cls-4, .cls-5, .cls-6, .cls-7 {
        stroke-width: 2px;
      }

      .cls-4, .cls-5, .cls-6, .cls-7, .cls-8 {
        fill: none;
      }

      .cls-4, .cls-5, .cls-6, .cls-8 {
        stroke-linecap: round;
      }

      .cls-4, .cls-5, .cls-7 {
        stroke: #000;
      }

      .cls-4, .cls-6, .cls-8 {
        stroke-linejoin: round;
      }

      .cls-9 {
        fill: #f0a3a1;
      }

      .cls-9, .cls-10, .cls-11, .cls-12, .cls-13, .cls-14, .cls-15, .cls-16 {
        stroke: #e83388;
      }

      .cls-9, .cls-10, .cls-11, .cls-12, .cls-13, .cls-14, .cls-15, .cls-16, .cls-5, .cls-7 {
        stroke-miterlimit: 10;
      }

      .cls-10 {
        fill: #f6d2d1;
      }

      .cls-11 {
        fill: #e4cfc9;
      }

      .cls-12 {
        fill: #e3492c;
      }

      .cls-13 {
        fill: #431d0f;
      }

      .cls-14 {
        fill: #7c201a;
      }

      .cls-15 {
        fill: #f8e17c;
      }

      .cls-16 {
        fill: #f3dfd8;
      }

      .cls-6, .cls-8 {
        stroke: #96363e;
      }

      .cls-17 {
        fill: #e9c8e3;
        opacity: .2;
      }

      .cls-18 {
        fill: url(#linear-gradient-3);
      }

      .cls-19 {
        fill: url(#linear-gradient-4);
      }

      .cls-20 {
        fill: url(#linear-gradient-2);
      }

      .cls-8 {
        stroke-width: 1.93407px;
      }
    </style>
    <linearGradient id="linear-gradient" x1="49.44434" y1="88.39214" x2="49.44434" y2=".98065" gradientUnits="userSpaceOnUse">
      <stop offset=".41105" stop-color="#cb4244"/>
      <stop offset=".49703" stop-color="#ce5d62"/>
      <stop offset=".55732" stop-color="#d06c73"/>
      <stop offset=".6419" stop-color="#cf686f"/>
      <stop offset=".72227" stop-color="#ce5e63"/>
      <stop offset=".80071" stop-color="#cc4d50"/>
      <stop offset=".84023" stop-color="#cb4244"/>
    </linearGradient>
    <linearGradient id="linear-gradient-2" x1="63.12371" y1="431.42407" x2="63.12371" y2="344.01258" gradientTransform="translate(119.77379) rotate(-180) scale(1 -1)" xlink:href="#linear-gradient"/>
    <linearGradient id="linear-gradient-3" x1="56.26138" y1="566.92162" x2="56.26138" y2="479.51013" xlink:href="#linear-gradient"/>
    <linearGradient id="linear-gradient-4" x1="54.74795" y1="1014.88941" x2="54.74795" y2="927.47792" xlink:href="#linear-gradient"/>
  </defs>
  <g id="candy_groups" data-name="candy groups">
    <g>
      <g>
        <path class="cls-1" d="m56.05119,5.8782c.92806-1.90597,2.63276-4.15799,5.47237-4.00134,4.87167.26875,6.45716,5.39221,6.33971,6.82356s2.10866-3.51534,4.16925-3.33408,4.5997.12468,4.56064,5.32242c-.03906,5.19775,2.22854.5,4.01137,7.3197,1.63063,6.2375,12.03923,47.31276,12.08409,56.32463.00459.92166-.59464,1.62015-1.18628,2.32685-2.82756,3.37745-19.74664,13.42126-39.2091,11.48707-22.55774-2.2418-43.70286-7.25931-46.04324-12.18288,0,0-.63127-13.01603,2.59477-23.38028,2.98273-9.58258,7.99916-31.31834,8.75067-34.58353.05266-.2288.10891-.45434.172-.68049.29272-1.04923,1.35765-5.15142.82723-7.35472-.57888-2.40457,2.47507-7.86531,8.3768-2.10011l1.14238.16254s.95721-5.42201,4.04415-5.74992,7.93089-1.27379,8.33491,6.86965c0,0,.87633-8.74191,7.5301-8.1366,6.65377.60531,7.09763,7.41815,7.09763,7.41815,0,0,.26642-1.18671.93055-2.55064"/>
        <path class="cls-2" d="m72.25865,38.04608c-.77625,11.97826-3.46219,26.61861-12.34456,17.20522-1.34941-1.43008-3.75308-.356-3.61606,1.60544l1.32485,18.96574c.07096,1.01587.85545,1.83621,1.86786,1.94599,5.27538.57203,20.57755.73973,19.12814-16.86405-.83687-10.16414-1.40001-17.51266-2.1763-23.02876-.35298-2.5082-4.02013-2.35719-4.18393.17042Z"/>
        <path class="cls-2" d="m54.248,55.23461c-3.1945,3.64701-10.21342,9.53055-17.03867.97707-.57443-.71988-1.73914-.32172-1.77205.59867-.20534,5.74127-1.32558,18.68588,2.29512,19.6514,3.22215.85924,12.88002,1.25258,17.39977,1.47912,1.90789.09563,2.4935-2.07858,2.36038-3.98422l-1.26147-18.05853c-.07033-1.00687-1.31803-1.42275-1.98307-.6635Z"/>
        <path class="cls-2" d="m21.14876,36.87495c.77625,11.97826,3.3169,29.1354,12.19926,19.72201,1.34941-1.43008,2.24142-.46136,2.10441,1.50008l.3321,16.55432c-.07096,1.01587-.85545,1.83621-1.86786,1.94599-5.27538.57203-17.59865-1.55888-16.14924-19.16266.83687-10.16414,1.40001-17.51266,2.1763-23.02876.35298-2.5082,1.04122-.05859,1.20502,2.46902Z"/>
        <path class="cls-17" d="m49.63588,35.79069h-.00009c-18.39652-.55256-33.73685,13.27988-34.26357,30.89559l-.0985,3.29397c-.0468.00047-.07871.00078-.07871.00078,0,0-.9501,5.95703,2.62065,7.22174,3.57076,1.26474,25.76462,7.59961,30.78479,7.43271s25.45938-.1558,32.47876-5.5271c0,0,.3359-1.45489.56756-3.18302.09004-.2799.14596-.57459.15513-.8818l.02844-.95074c.02079-.34254.03135-.67904.02997-1.00321l.13166-4.40232c.52675-17.61571-13.95958-32.34403-32.35609-32.8966Z"/>
        <path class="cls-2" d="m19.90914,24.36897c.1286-1.74016-2.10868-2.20427-2.58107-.53627-3.55244,12.54373-10.36211,34.7708-8.10845,38.49921,3.32615,5.50273,2.86698.57576,4.68226.62394,1.34618.03573,4.8463-22.87755,6.00725-38.58687Z"/>
        <path class="cls-2" d="m77.43413,24.36897c-.1286-1.74016,2.10868-2.20427,2.58107-.53627,3.55244,12.54373,10.11345,34.63139,8.10845,38.49921-2.69298,5.19499-1.84582,1.23661-3.6611,1.28479-1.34618.03573-5.86747-23.53841-7.02842-39.24773Z"/>
        <circle class="cls-2" cx="52.47613" cy="8.24804" r="3.03178"/>
        <path class="cls-3" d="m35.05331,66.07183c-.53839.01951-.78398.67799-.39132,1.04687.62333.58558,1.5333,1.17256,2.54908.96525,1.88541-.38478,3.42452-2.38562,4.96363-2.27019l-7.12138.25806Z"/>
        <circle class="cls-3" cx="53.89832" cy="8.3086" r="1.22291"/>
        <path class="cls-3" d="m33.90594,6.32191c0-1.61385,1.38744-2.92214,3.09894-2.92214s3.09894,1.30829,3.09894,2.92214,1.15273,3.2096-.55877,3.2096-5.63911-1.59575-5.63911-3.2096Z"/>
        <path class="cls-3" d="m26.45776,9.77994c.85426.35222,1.65877-.6336,1.17842-1.42296-.57299-.9416-1.33082-1.94949-2.03418-2.13425-1.11987-.29417-1.52991,2.57358.85575,3.55721Z"/>
        <circle class="cls-2" cx="20.23562" cy="8.83892" r="1.44191"/>
        <circle class="cls-2" cx="69.91484" cy="11.85853" r="1.44191"/>
        <path class="cls-17" d="m27.78027,13.36469c-.39552.17256-2.7125-2.45202-2.30915-2.63424,1.73878-.78554,5.20488-2.09573,7.91719-.68016,3.7267,1.94499-1.82305,1.66309-5.60805,3.3144Z"/>
        <ellipse class="cls-2" cx="55.12123" cy="10.93857" rx="15.52833" ry="1.55702"/>
        <path class="cls-3" d="m37.19473,17.48336l1.65091,3.41887,1.67108-2.99753s-1.97204.87695-3.32199-.42134Z"/>
        <path class="cls-3" d="m52.31622,19.1928s2.77828,2.10172,3.9762,0l-1.48247,4.61137-2.49373-4.61137Z"/>
        <path class="cls-3" d="m67.50921,14.57349l1.30968,1.20436,1.16667-2.33997s-1.40822,1.72721-2.47635,1.13562Z"/>
        <path class="cls-3" d="m11.81258,73.2064c1.76762-11.7142,3.61379-2.5604,9.08152-4.42866.40027-.13677.55404-.51633.21785-.44585-3.01905.63285-8.69574,2.67189-8.95467,4.26526"/>
        <g>
          <path class="cls-3" d="m79.68323,71.38156c-.61324-.25352-1.0535.61584-.48613.95995,3.86056,2.34143,7.68998,5.74418,2.34113,7.96862-.5384.32169,6.70609-3.13108,5.17089-5.03641-.82277-1.02114-4.03884-2.65727-7.0259-3.89216Z"/>
          <path class="cls-3" d="m87.09257,76.02132c-.13413-1.9859-.74478-7.85989-3.42631-9.9764-.24455-.19302-.59612.03391-.51464.33462.51029,1.88331,1.60045,6.38074.15957,5.66541-3.58894-1.78175,1.50209,2.46902,3.25882,3.90347.21738.1775.54147.35291.52256.0729Z"/>
        </g>
        <path class="cls-3" d="m67.36287,6.88899s-.27374,2.55565-1.9162,2.49256,2.06254.14997,2.06254.14997l-.14634-2.64253Z"/>
        <path class="cls-3" d="m76.55314,9.70151c0-.35453-.47897-.46934-.6361-.15153-.45276.91572-1.09655,1.89718-1.76139,1.85277-1.23504-.0825,2.39749.79659,2.39749.79659v-2.49783Z"/>
        <path class="cls-3" d="m19.34782,9.85344c-.28885.58568.86181,1.96039,2.25349,2.09781.15524.01533.21458.20682.08717.29682l-2.07009,1.46227c-.44775.31628-1.06296-.04524-.99758-.58951.09646-.80298.17068-1.77732.08419-2.47592-.03747-.30262.78576-1.08128.64283-.79147Z"/>
        <path class="cls-17" d="m27.9742,13.66731s-1.00025-1.49549-1.45161-1.46798.30191,1.78517-.10897,2.5841,1.56058-1.11612,1.56058-1.11612Z"/>
        <g>
          <g>
            <path class="cls-6" d="m54.55315,24.69274c-2.1232-6.87636-5.40137-11.02542-8.64504-11.02542-1.79278,0-3.49162,1.29971-5.01117,3.62342-1.46591,2.24167-2.31976,4.82623-2.62917,7.48673-1.16486,10.01607-3.74387,32.4465-2.44448,39.34784"/>
            <path class="cls-6" d="m56.98484,69.73594c.23919,2.82629.49193,5.46463.75629,7.77936"/>
            <path class="cls-6" d="m56.68675,63.63654c.07945,1.01751.16061,2.01812.24339,2.99623"/>
            <path class="cls-6" d="m68.41698,16.05517c-1.55723-2.46929-3.30871-3.85583-5.16041-3.85583-3.45282,0-6.55715,4.82101-8.70342,12.4934,0,0,.74616,19.07468,1.9325,35.51397"/>
            <path class="cls-6" d="m20.62535,33.80197c1.88567-12.775,5.91982-21.60263,10.59208-21.60263,2.9127,0,5.57741,3.43069,7.62821,9.10971"/>
            <path class="cls-6" d="m19.59332,45.01817c.11878-2.86619.33672-5.63096.64229-8.2571"/>
            <path class="cls-6" d="m28.11385,13.54277c-1.24018-1.38519-2.57725-2.14003-3.97111-2.14003-1.61374,0-3.15137,1.01178-4.55064,2.84214"/>
            <path class="cls-6" d="m16.40349,21.83066c-2.20265,8.15658-13.25994,49.81147-10.1535,54.13348,3.42278,4.76213,60.4195,25.00117,86.16476,0,2.08681-2.0265-8.60066-45.46844-11.32373-56.3706-.52164-2.08844-1.4635-4.04931-2.78095-5.75166-.02219-.02867-.04388-.05663-.06502-.08383-.3399-.43729-.71035-.84915-1.1421-1.19606-.94173-.75666-1.92936-1.15924-2.94729-1.15924-2.2199,0-3.63846,1.46686-5.40826,4.79318"/>
            <path class="cls-6" d="m18.88255,8.97927c-.02884.29813-.03054.60385-.0046.91284.01534.18271.02862.36545.03814.54817"/>
            <path class="cls-6" d="m27.30043,8.42428c-.09821-.18944-.20782-.37622-.32896-.55927-1.55219-2.34557-4.40836-3.18964-6.37943-1.88528-1.00899.6677-1.59045,1.76894-1.7095,2.99953"/>
            <path class="cls-6" d="m72.51844,25.10267c3.24676,8.55901,7.28908,22.46721,5.77128,35.80176"/>
            <path class="cls-6" d="m68.41698,16.05517s1.32473,2.55811,2.99571,6.76248"/>
            <line class="cls-6" x1="17.76744" y1="17.31984" x2="17.36053" y2="18.69709"/>
          </g>
          <path class="cls-6" d="m68.29804,8.42428c.09821-.18944.20782-.37622.32896-.55927,1.55219-2.34557,4.40836-3.18964,6.37943-1.88528,1.46233.9677,2.02667,2.84606,1.58673,4.70903"/>
          <path class="cls-6" d="m55.39969,8.93325c-.02327-.22511-.0352-.45372-.0352-.68522,0-3.5187,2.75751-6.37117,6.15908-6.37117s6.15908,2.85247,6.15908,6.37117c0,.19923-.00884.39632-.02614.59089"/>
          <path class="cls-6" d="m40.49291,9.14729c-.03621-.29464-.05486-.59475-.05486-.89925,0-4.00298,3.2227-7.24804,7.1981-7.24804s7.1981,3.24506,7.1981,7.24804"/>
          <path class="cls-6" d="m40.45423,8.70042c.01013-.14943.01529-.30029.01529-.45239,0-3.5187-2.75751-6.37117-6.15908-6.37117s-6.15908,2.85247-6.15908,6.37117"/>
          <path class="cls-6" d="m54.80995,9.53151h11.18067c2.14578,0,4.13921.65231,5.7928,1.76945"/>
          <line class="cls-6" x1="51.24487" y1="9.53151" x2="54.80995" y2="9.53151"/>
          <line class="cls-6" x1="45.91646" y1="9.53151" x2="48.54314" y2="9.53151"/>
          <path class="cls-6" d="m24.98221,11.34907c1.66731-1.1465,3.68697-1.81756,5.86337-1.81756h12.59429"/>
        </g>
        <path class="cls-8" d="m53.30797,66.57148c-1.25629-.07178-2.53146-.12959-3.8224-.17258-5.0849-.16934-9.94087-.09304-14.37524.19045"/>
        <path class="cls-8" d="m81.48154,80.63588c3.21862-1.18364,5.08562-2.61956,5.13877-4.21551.13015-3.90823-10.65684-7.58262-25.67822-9.2197"/>
        <path class="cls-8" d="m21.13716,68.47649c-5.76872,1.35048-9.29741,3.24837-9.37077,5.45111-.05523,1.65833,1.85514,3.27456,5.22054,4.71091"/>
        <path class="cls-6" d="m64.44729,83.60121s-15.21412,3.25473-26.12533-.37128"/>
        <g>
          <g>
            <path class="cls-5" d="m74.15565,11.40274c1.01793,0,2.00557.40258,2.94729,1.15924.43176.34691.8022.75877,1.1421,1.19606.02114.02719.04282.05515.06502.08383,1.31746,1.70235,2.25932,3.66322,2.78095,5.75166,2.72307,10.90216,13.41054,54.34411,11.32373,56.3706-25.74525,25.00117-82.74198,4.76213-86.16476,0-3.10644-4.32201,7.95085-45.9769,10.1535-54.13348,0,0,1.18133-5.86674,3.18862-7.4524"/>
            <path class="cls-5" d="m18.88255,8.97927c-.02884.29813-.03054.60385-.0046.91284.00015.00183.00031.00365.00046.00548.03042.3633.01947.72674-.0179,1.08939,0,0-.16094,1.53762-.21584,1.97967"/>
            <path class="cls-5" d="m26.52259,7.26902c-1.60994-1.88404-4.13676-2.47633-5.93055-1.28929-1.00899.6677-1.59045,1.76894-1.7095,2.99953"/>
          </g>
          <path class="cls-4" d="m76.59316,10.68876c.43994-1.86297-.12439-3.74132-1.58673-4.70903-1.97107-1.30436-4.82724-.46029-6.37943,1.88528-.00121.00183-.00242.00366-.00363.00549-.24621.37292-.55373.70139-.92903.94396l-.03784.02446c.0173-.19456.02614-.39166.02614-.59089,0-3.5187-2.75751-6.37117-6.15908-6.37117-2.83938,0-5.23001,1.98752-5.94264,4.69102-.03351.12712-.0757.25219-.13161.37117l-.61505,1.30898-.19267-1.67289c-.74999-3.19647-3.60184-5.57515-7.00543-5.57515-3.61255,0-6.60354,2.67972-7.11944,6.17277"/>
          <path class="cls-5" d="m30.86685,2.96496c-1.63833,1.14495-2.71548,3.08389-2.71548,5.28308"/>
          <path class="cls-5" d="m40.43772,7.59662c-.31541-3.2127-2.93831-5.71976-6.12728-5.71976-.53143,0-1.04714.06962-1.53908.20054"/>
        </g>
      </g>
      <g>
        <g>
          <path class="cls-15" d="m2.77013,246.47538c-.14413-1.12942.91556-5.00186,3.03494-12.74677,2.91183-10.64074,4.42001-16.07285,6.98037-21.5481,2.76616-5.91534,4.98382-10.51461,10.01532-14.26424,2.37362-1.7689,4.91813-3.00936,8.80134-4.24892,7.76939-2.48006,23.01658-7.34711,38.54379-.30349,3.16107,1.43397,9.48878,4.3935,14.26424,10.9258,1.54863,2.11837,2.97563,5.38649,5.76639,11.83628,3.73826,8.63955,5.60739,12.95931,6.37338,16.3887.35929,1.60857,2.69863,12.08176-.30349,19.72714-6.11838,15.58149-34.11371,18.63066-50.98706,16.99569-17.79434-1.72422-40.90795-10.37181-42.48922-22.76208Z"/>
          <path class="cls-13" d="m29.47764,193.97085c-4.70789,1.71277-8.48297,3.14188-11.53279,6.98037-3.3226,4.18181-5.0526,10.30231-3.64193,15.78171,2.3315,9.05619,12.31557,12.76181,18.81665,15.17472,15.71547,5.83288,29.76511,1.39777,36.11583-.60699,8.39026-2.64857,15.14251-4.78009,17.60268-10.9258,2.91865-7.29103-1.94378-15.88491-6.06989-20.33413-7.95624-8.57927-19.75368-8.84192-31.56342-9.10483-6.11725-.13619-12.75849.49968-19.72714,3.03494Z"/>
          <path class="cls-16" d="m30.69162,193.66736c-3.13834,1.05247-4.62738,6.66988-3.94543,10.9258,1.23215,7.68965,9.63924,11.48192,12.44327,12.74677,5.39883,2.43531,10.33011,2.44535,12.44327,2.42796,5.80355-.04775,5.29654-1.70506,13.05026-2.12446,2.46241-.13319,5.15318-.10881,5.76639-1.51747.45304-1.04069-.6924-1.79642-.91048-3.94543-.31615-3.11534,1.61602-6.20772,2.42796-6.06989.71226.12091.55144,2.72571.91048,2.73145.46999.00752,1.8993-4.4374,0-6.67688-1.17547-1.38599-2.63338-.75699-3.64193-2.12446-1.51631-2.05592.57809-5.10626-.30349-5.76639-1.20236-.90033-4.85306,4.95742-11.22929,6.98037-5.91075,1.87526-11.78842-.29838-14.26424-1.21398-7.70341-2.84884-9.57856-7.43585-12.74677-6.37338Z"/>
          <path class="cls-11" d="m34.03006,207.32461c-.48712.81907,3.70039,4.95325,8.49784,7.28387,9.56552,4.64696,20.62391,1.67098,20.63762.60699.00671-.52022-2.63083-.2854-9.40833-2.12446-1.8762-.50911-3.86763-1.12232-14.56773-4.55242-3.78727-1.21407-4.93808-1.58614-5.1594-1.21398Z"/>
          <path class="cls-11" d="m32.20909,201.86171h0c-.49494.7158.84865-1.56767,1.51747-2.12446,1.36728-1.13825,4.15614,1.23571,8.19435,2.73145,6.08612,2.25429,9.6533.52961,12.13978,3.64193.14199.17772,1.37271,1.71821.91048,2.42796-.56633.8696-3.25927-.14491-11.83628-3.03494-5.2087-1.75508-10.9258-3.64193-10.9258-3.64193Z"/>
          <path class="cls-11" d="m60.73756,203.37918c-.40476-1.09172,5.76293-4.55003,5.76639-4.55242h0c-.00043.00035-.70109,3.43693-2.73145,4.55242-1.19627.65724-2.84767.50514-3.03494,0Z"/>
          <path class="cls-11" d="m59.52359,209.44907c-.27306-.97432,4.18824-2.94247,7.58736-3.64193,1.35152-.27812,1.71481-.18685,1.82097,0,.31552.55533-1.38981,2.39563-3.33844,3.33844-2.55214,1.2348-5.84979,1.08881-6.06989.30349Z"/>
          <path class="cls-12" d="m49.81177,166.35286c-2.16666.00364-8.63162.01451-13.96074,4.85591-6.69612,6.08329-6.21482,14.90183-6.06989,16.69219.60336,7.45388,5.26916,15.30352,13.05026,18.20966,6.12544,2.28779,11.64063.56301,13.35375,0,1.21852-.40047,8.49577-2.92276,12.44327-10.6223.58969-1.15018,5.32173-10.77453,0-19.72714-5.60583-9.43054-17.19319-9.41106-18.81665-9.40833Z"/>
          <path class="cls-9" d="m52.54321,175.1542c-.2158-.99784,4.28771-1.8502,4.24892-3.64193-.03499-1.61661-3.74996-3.17673-6.98037-3.03494-1.52438.06691-4.32107.57336-4.55242,1.82097-.23301,1.25651,2.33617,2.18558,4.55242,6.06989.76666,1.34368.69992,1.65438.60699,1.82097-.6871,1.2317-6.15093.58105-9.40833-2.73145-.3654-.37158-3.45368-3.58411-2.42796-6.06989.89424-2.16716,4.36462-2.44705,7.89085-2.73145,3.32547-.26821,11.50804-.92815,13.35375,3.03494.75894,1.62957.37155,3.87989-.91048,5.1594-2.08958,2.08548-6.17659,1.21344-6.37338.30349Z"/>
          <path class="cls-9" d="m60.43407,182.74156c.51418-1.45001,2.38037-2.2911,3.03494-1.82097.66032.47425.05661,2.26044,0,2.42796-.35892,1.06195-1.30176,2.59065-2.12446,2.42796-.77491-.15325-1.35228-1.7891-.91048-3.03494Z"/>
          <path class="cls-10" d="m39.49296,185.7765c1.37754-.35179,1.97666-3.40973.91048-4.24892-.59625-.4693-1.71844-.24878-2.42796.30349-.05578.04341-1.1176.89823-.91048,2.12446.20769,1.2297,1.55811,2.0431,2.42796,1.82097Z"/>
          <path class="cls-14" d="m48.90128,169.99479c-1.20142-1.54981,2.39887-6.22066,4.85591-9.40833,5.06443-6.57038,9.96369-10.63477,10.31881-10.9258,5.98985-4.90876,19.65778-14.57826,23.67256-11.22929.77309.64488,1.35276,1.9097,1.21398,3.03494-.16934,1.3732-1.39521,2.42967-4.24892,3.94543-4.04653,2.14932-6.00789,2.37604-9.71182,3.94543-1.51141.6404-4.26954,1.82622-7.28387,3.94543-1.56347,1.09919-4.76694,3.39038-7.58736,7.28387-3.43311,4.73928-3.15016,7.50624-6.37338,9.10483-1.65883.82271-4.10851,1.26763-4.85591.30349Z"/>
        </g>
        <path class="cls-7" d="m96.54993,232.51464c-.766-3.4294-2.63516-7.74915-6.37343-16.38871-2.79075-6.44978-4.21777-9.7179-5.76639-11.83628-.88735-1.21381-1.82841-2.30378-2.79267-3.284-.28469-.33912-.5687-.66241-.84922-.96493-3.02217-3.25883-6.59951-5.31573-10.52031-6.63044-.03368-.01529-.06905-.03145-.10204-.04642-.16944-.07687-.33864-.14453-.50804-.2186,1.32816-3.62186,2.9697-10.69013-1.00942-17.38408-3.03441-5.10474-7.81976-7.43785-11.8304-8.50624-.12312-.0442-.24792-.08649-.37509-.12635.93524-1.59364,1.66146-3.7174,3.70764-6.54213,2.82041-3.8935,6.02391-6.1847,7.58738-7.28388,3.01434-2.1192,5.77245-3.30503,7.2839-3.94543,3.70391-1.56937,5.66523-1.7961,9.7118-3.94543,2.85369-1.51574,4.07956-2.57221,4.24888-3.94543.13881-1.12523-.44085-2.39007-1.21395-3.03494-4.01477-3.34897-17.68274,6.32054-23.67257,11.22929-.3551.29103-5.25437,4.35542-10.3188,10.92581-1.33418,1.73087-3.00395,3.8983-4.06046,5.76665-1.00103.00227-2.79163.02252-4.93201.45106-2.70625.26207-5.12044.71472-6.02308,2.27317-.97894.57922-1.95245,1.2791-2.89064,2.13141-6.69611,6.0833-6.2148,14.90183-6.06987,16.6922.15013,1.85487.55224,3.73412,1.19091,5.55572-.49656.16278-.99439.33226-1.49441.51417-4.70789,1.71276-8.48298,3.14187-11.53279,6.98036-1.85864,2.33927-3.21758,5.28549-3.80852,8.38649-.44544.91366-.89056,1.85838-1.3509,2.84279-2.56035,5.47526-4.06852,10.90736-6.98036,21.5481-2.11938,7.74492-3.17909,11.61735-3.03496,12.74678,1.58127,12.39027,24.69488,21.03785,42.48923,22.76207,16.87335,1.63496,44.86866-1.4142,50.98706-16.99568,3.00214-7.64538.66279-18.11857.30352-19.72714Z"/>
      </g>
      <g>
        <g>
          <path class="cls-15" d="m102.15155,720.11633c.14413-1.12942-.91556-5.00186-3.03494-12.74677-2.91183-10.64074-4.42001-16.07285-6.98037-21.5481-2.76616-5.91534-4.98382-10.51461-10.01532-14.26424-2.37362-1.7689-4.91813-3.00936-8.80134-4.24892-7.76939-2.48006-23.01658-7.34711-38.54379-.30349-3.16107,1.43397-9.48878,4.3935-14.26424,10.9258-1.54863,2.11837-2.97563,5.38649-5.76639,11.83628-3.73826,8.63955-5.60739,12.95931-6.37338,16.3887-.35929,1.60857-2.69863,12.08176.30349,19.72714,6.11838,15.58149,34.11371,18.63066,50.98706,16.99569,17.79434-1.72422,40.90795-10.37181,42.48922-22.76208Z"/>
          <path class="cls-13" d="m75.44404,667.6118c4.70789,1.71277,8.48297,3.14188,11.53279,6.98037,3.3226,4.18181,5.0526,10.30231,3.64193,15.78171-2.3315,9.05619-12.31557,12.76181-18.81665,15.17472-15.71547,5.83288-29.76511,1.39777-36.11583-.60699-8.39026-2.64857-15.14251-4.78009-17.60268-10.9258-2.91865-7.29103,1.94378-15.88491,6.06989-20.33413,7.95624-8.57927,19.75368-8.84192,31.56342-9.10483,6.11725-.13619,12.75849.49968,19.72714,3.03494Z"/>
          <path class="cls-16" d="m74.23006,667.3083c3.13834,1.05247,4.62738,6.66988,3.94543,10.9258-1.23215,7.68965-9.63924,11.48192-12.44327,12.74677-5.39883,2.43531-10.33011,2.44535-12.44327,2.42796-5.80355-.04775-5.29654-1.70506-13.05026-2.12446-2.46241-.13319-5.15318-.10881-5.76639-1.51747-.45304-1.04069.6924-1.79642.91048-3.94543.31615-3.11534-1.61602-6.20772-2.42796-6.06989-.71226.12091-.55144,2.72571-.91048,2.73145-.46999.00752-1.8993-4.4374,0-6.67688,1.17547-1.38599,2.63338-.75699,3.64193-2.12446,1.51631-2.05592-.57809-5.10626.30349-5.76639,1.20236-.90033,4.85306,4.95742,11.22929,6.98037,5.91075,1.87526,11.78842-.29838,14.26424-1.21398,7.70341-2.84884,9.57856-7.43585,12.74677-6.37338Z"/>
          <path class="cls-11" d="m70.89163,680.96555c.48712.81907-3.70039,4.95325-8.49784,7.28387-9.56552,4.64696-20.62391,1.67098-20.63762.60699-.00671-.52022,2.63083-.2854,9.40833-2.12446,1.8762-.50911,3.86763-1.12232,14.56773-4.55242,3.78727-1.21407,4.93808-1.58614,5.1594-1.21398Z"/>
          <path class="cls-11" d="m72.71259,675.50265h0c.49494.7158-.84865-1.56767-1.51747-2.12446-1.36728-1.13825-4.15614,1.23571-8.19435,2.73145-6.08612,2.25429-9.6533.52961-12.13978,3.64193-.14199.17772-1.37271,1.71821-.91048,2.42796.56633.8696,3.25927-.14491,11.83628-3.03494,5.2087-1.75508,10.9258-3.64193,10.9258-3.64193Z"/>
          <path class="cls-11" d="m44.18412,677.02012c.40476-1.09172-5.76293-4.55003-5.76639-4.55242h0c.00043.00035.70109,3.43693,2.73145,4.55242,1.19627.65724,2.84767.50514,3.03494,0Z"/>
          <path class="cls-11" d="m45.3981,683.09001c.27306-.97432-4.18824-2.94247-7.58736-3.64193-1.35152-.27812-1.71481-.18685-1.82097,0-.31552.55533,1.38981,2.39563,3.33844,3.33844,2.55214,1.2348,5.84979,1.08881,6.06989.30349Z"/>
          <path class="cls-12" d="m55.10992,639.99381c2.16666.00364,8.63162.01451,13.96074,4.85591,6.69612,6.08329,6.21482,14.90183,6.06989,16.69219-.60336,7.45388-5.26916,15.30352-13.05026,18.20966-6.12544,2.28779-11.64063.56301-13.35375,0-1.21852-.40047-8.49577-2.92276-12.44327-10.6223-.58969-1.15018-5.32173-10.77453,0-19.72714,5.60583-9.43054,17.19319-9.41106,18.81665-9.40833Z"/>
          <path class="cls-9" d="m52.37847,648.79514c.2158-.99784-4.28771-1.8502-4.24892-3.64193.03499-1.61661,3.74996-3.17673,6.98037-3.03494,1.52438.06691,4.32107.57336,4.55242,1.82097.23301,1.25651-2.33617,2.18558-4.55242,6.06989-.76666,1.34368-.69992,1.65438-.60699,1.82097.6871,1.2317,6.15093.58105,9.40833-2.73145.3654-.37158,3.45368-3.58411,2.42796-6.06989-.89424-2.16716-4.36462-2.44705-7.89085-2.73145-3.32547-.26821-11.50804-.92815-13.35375,3.03494-.75894,1.62957-.37155,3.87989.91048,5.1594,2.08958,2.08548,6.17659,1.21344,6.37338.30349Z"/>
          <path class="cls-9" d="m44.48761,656.3825c-.51418-1.45001-2.38037-2.2911-3.03494-1.82097-.66032.47425-.05661,2.26044,0,2.42796.35892,1.06195,1.30176,2.59065,2.12446,2.42796.77491-.15325,1.35228-1.7891.91048-3.03494Z"/>
          <path class="cls-10" d="m65.42873,659.41745c-1.37754-.35179-1.97666-3.40973-.91048-4.24892.59625-.4693,1.71844-.24878,2.42796.30349.05578.04341,1.1176.89823.91048,2.12446-.20769,1.2297-1.55811,2.0431-2.42796,1.82097Z"/>
          <path class="cls-14" d="m56.0204,643.63574c1.20142-1.54981-2.39887-6.22066-4.85591-9.40833-5.06443-6.57038-9.96369-10.63477-10.31881-10.9258-5.98985-4.90876-19.65778-14.57826-23.67256-11.22929-.77309.64488-1.35276,1.9097-1.21398,3.03494.16934,1.3732,1.39521,2.42967,4.24892,3.94543,4.04653,2.14932,6.00789,2.37604,9.71182,3.94543,1.51141.6404,4.26954,1.82622,7.28387,3.94543,1.56347,1.09919,4.76694,3.39038,7.58736,7.28387,3.43311,4.73928,3.15016,7.50624,6.37338,9.10483,1.65883.82271,4.10851,1.26763,4.85591.30349Z"/>
        </g>
        <path class="cls-7" d="m8.37175,706.15559c.766-3.4294,2.63516-7.74915,6.37343-16.38871,2.79075-6.44978,4.21777-9.7179,5.76639-11.83628.88735-1.21381,1.82841-2.30378,2.79267-3.284.28469-.33912.5687-.66241.84922-.96493,3.02217-3.25883,6.59951-5.31573,10.52031-6.63044.03368-.01529.06905-.03145.10204-.04642.16944-.07687.33864-.14453.50804-.2186-1.32816-3.62186-2.9697-10.69013,1.00942-17.38408,3.03441-5.10474,7.81976-7.43785,11.8304-8.50624.12312-.0442.24792-.08649.37509-.12635-.93524-1.59364-1.66146-3.7174-3.70764-6.54213-2.82041-3.8935-6.02391-6.1847-7.58738-7.28388-3.01434-2.1192-5.77245-3.30503-7.2839-3.94543-3.70391-1.56937-5.66523-1.7961-9.7118-3.94543-2.85369-1.51574-4.07956-2.57221-4.24888-3.94543-.13881-1.12523.44085-2.39007,1.21395-3.03494,4.01477-3.34897,17.68274,6.32054,23.67257,11.22929.3551.29103,5.25437,4.35542,10.3188,10.92581,1.33418,1.73087,3.00395,3.8983,4.06046,5.76665,1.00103.00227,2.79163.02252,4.93201.45106,2.70625.26207,5.12044.71472,6.02308,2.27317.97894.57922,1.95245,1.2791,2.89064,2.13141,6.69611,6.0833,6.2148,14.90183,6.06987,16.6922-.15013,1.85487-.55224,3.73412-1.19091,5.55572.49656.16278.99439.33226,1.49441.51417,4.70789,1.71276,8.48298,3.14187,11.53279,6.98036,1.85864,2.33927,3.21758,5.28549,3.80852,8.38649.44544.91366.89056,1.85838,1.3509,2.84279,2.56035,5.47526,4.06852,10.90736,6.98036,21.5481,2.11938,7.74492,3.17909,11.61735,3.03496,12.74678-1.58127,12.39027-24.69488,21.03785-42.48923,22.76207-16.87335,1.63496-44.86866-1.4142-50.98706-16.99568-3.00214-7.64538-.66279-18.11857-.30352-19.72714Z"/>
      </g>
      <g>
        <path class="cls-20" d="m50.04324,348.91013c-.92806-1.90597-2.63276-4.15799-5.47237-4.00134-4.87167.26875-6.45716,5.39221-6.33971,6.82356s-2.10866-3.51534-4.16925-3.33408-4.5997.12468-4.56064,5.32242c.03906,5.19775-2.22854.5-4.01137,7.3197-1.63063,6.2375-12.03923,47.31276-12.08409,56.32463-.00459.92166.59464,1.62015,1.18628,2.32685,2.82756,3.37745,19.74664,13.42126,39.2091,11.48707,22.55774-2.2418,43.70286-7.25931,46.04324-12.18288,0,0,.63127-13.01603-2.59477-23.38028-2.98273-9.58258-7.99916-31.31834-8.75067-34.58353-.05266-.2288-.10891-.45434-.172-.68049-.29272-1.04923-1.35765-5.15142-.82723-7.35472.57888-2.40457-2.47507-7.86531-8.3768-2.10011l-1.14238.16254s-.95721-5.42201-4.04415-5.74992-7.93089-1.27379-8.33491,6.86965c0,0-.87633-8.74191-7.5301-8.1366-6.65377.60531-7.09763,7.41815-7.09763,7.41815,0,0-.26642-1.18671-.93055-2.55064"/>
        <path class="cls-2" d="m33.83577,381.07802c.77625,11.97826,3.46219,26.61861,12.34456,17.20522,1.34941-1.43008,3.75308-.356,3.61606,1.60544l-1.32485,18.96574c-.07096,1.01587-.85545,1.83621-1.86786,1.94599-5.27538.57203-20.57755.73973-19.12814-16.86405.83687-10.16414,1.40001-17.51266,2.1763-23.02876.35298-2.5082,4.02013-2.35719,4.18393.17042Z"/>
        <path class="cls-2" d="m51.84642,398.26654c3.1945,3.64701,10.21342,9.53055,17.03867.97707.57443-.71988,1.73914-.32172,1.77205.59867.20534,5.74127,1.32558,18.68588-2.29512,19.6514-3.22215.85924-12.88002,1.25258-17.39977,1.47912-1.90789.09563-2.4935-2.07858-2.36038-3.98422l1.26147-18.05853c.07033-1.00687,1.31803-1.42275,1.98307-.6635Z"/>
        <path class="cls-2" d="m84.94566,379.90689c-.77625,11.97826-3.3169,29.1354-12.19926,19.72201-1.34941-1.43008-2.24142-.46136-2.10441,1.50008l-.3321,16.55432c.07096,1.01587.85545,1.83621,1.86786,1.94599,5.27538.57203,17.59865-1.55888,16.14924-19.16266-.83687-10.16414-1.40001-17.51266-2.1763-23.02876-.35298-2.5082-1.04122-.05859-1.20502,2.46902Z"/>
        <path class="cls-17" d="m56.45854,378.82262h.00009c18.39652-.55256,33.73685,13.27988,34.26357,30.89559l.0985,3.29397c.0468.00047.07871.00078.07871.00078,0,0,.9501,5.95703-2.62065,7.22174-3.57076,1.26474-25.76462,7.59961-30.78479,7.43271s-25.45938-.1558-32.47876-5.5271c0,0-.3359-1.45489-.56756-3.18302-.09004-.2799-.14596-.57459-.15513-.8818l-.02844-.95074c-.02079-.34254-.03135-.67904-.02997-1.00321l-.13166-4.40232c-.52675-17.61571,13.95958-32.34403,32.35609-32.8966Z"/>
        <path class="cls-2" d="m86.18528,367.4009c-.1286-1.74016,2.10868-2.20427,2.58107-.53627,3.55244,12.54373,10.36211,34.7708,8.10845,38.49921-3.32615,5.50273-2.86698.57576-4.68226.62394-1.34618.03573-4.8463-22.87755-6.00725-38.58687Z"/>
        <path class="cls-2" d="m28.66029,367.4009c.1286-1.74016-2.10868-2.20427-2.58107-.53627-3.55244,12.54373-10.11345,34.63139-8.10845,38.49921,2.69298,5.19499,1.84582,1.23661,3.6611,1.28479,1.34618.03573,5.86747-23.53841,7.02842-39.24773Z"/>
        <circle class="cls-2" cx="53.6183" cy="351.27997" r="3.03178"/>
        <path class="cls-3" d="m71.04111,409.10376c.53839.01951.78398.67799.39132,1.04687-.62333.58558-1.5333,1.17256-2.54908.96525-1.88541-.38478-3.42452-2.38562-4.96363-2.27019l7.12138.25806Z"/>
        <circle class="cls-3" cx="52.1961" cy="351.34054" r="1.22291"/>
        <path class="cls-3" d="m72.18849,349.35384c0-1.61385-1.38744-2.92214-3.09894-2.92214s-3.09894,1.30829-3.09894,2.92214c0,1.61385-1.15273,3.2096.55877,3.2096s5.63911-1.59575,5.63911-3.2096Z"/>
        <path class="cls-3" d="m79.63667,352.81187c-.85426.35222-1.65877-.6336-1.17842-1.42296.57299-.9416,1.33082-1.94949,2.03418-2.13425,1.11987-.29417,1.52991,2.57358-.85575,3.55721Z"/>
        <circle class="cls-2" cx="85.85881" cy="351.87085" r="1.44191"/>
        <circle class="cls-2" cx="36.17958" cy="354.89046" r="1.44191"/>
        <path class="cls-17" d="m78.31416,356.39663c.39552.17256,2.7125-2.45202,2.30915-2.63424-1.73878-.78554-5.20488-2.09573-7.91719-.68016-3.7267,1.94499,1.82305,1.66309,5.60805,3.3144Z"/>
        <ellipse class="cls-2" cx="50.97319" cy="353.97051" rx="15.52833" ry="1.55702"/>
        <path class="cls-3" d="m68.8997,360.51529l-1.65091,3.41887-1.67108-2.99753s1.97204.87695,3.32199-.42134Z"/>
        <path class="cls-3" d="m53.7782,362.22473s-2.77828,2.10172-3.9762,0l1.48247,4.61137,2.49373-4.61137Z"/>
        <path class="cls-3" d="m38.58521,357.60543l-1.30968,1.20436-1.16667-2.33997s1.40822,1.72721,2.47635,1.13562Z"/>
        <path class="cls-3" d="m94.28184,416.23833c-1.76762-11.7142-3.61379-2.5604-9.08152-4.42866-.40027-.13677-.55404-.51633-.21785-.44585,3.01905.63285,8.69574,2.67189,8.95467,4.26526"/>
        <g>
          <path class="cls-3" d="m26.41119,414.41349c.61324-.25352,1.0535.61584.48613.95995-3.86056,2.34143-7.68998,5.74418-2.34113,7.96862.5384.32169-6.70609-3.13108-5.17089-5.03641.82277-1.02114,4.03884-2.65727,7.0259-3.89216Z"/>
          <path class="cls-3" d="m19.00186,419.05326c.13413-1.9859.74478-7.85989,3.42631-9.9764.24455-.19302.59612.03391.51464.33462-.51029,1.88331-1.60045,6.38074-.15957,5.66541,3.58894-1.78175-1.50209,2.46902-3.25882,3.90347-.21738.1775-.54147.35291-.52256.0729Z"/>
        </g>
        <path class="cls-3" d="m38.73155,349.92092s.27374,2.55565,1.9162,2.49256-2.06254.14997-2.06254.14997l.14634-2.64253Z"/>
        <path class="cls-3" d="m29.54128,352.73344c0-.35453.47897-.46934.6361-.15153.45276.91572,1.09655,1.89718,1.76139,1.85277,1.23504-.0825-2.39749.79659-2.39749.79659v-2.49783Z"/>
        <path class="cls-3" d="m86.74661,352.88537c.28885.58568-.86181,1.96039-2.25349,2.09781-.15524.01533-.21458.20682-.08717.29682l2.07009,1.46227c.44775.31628,1.06296-.04524.99758-.58951-.09646-.80298-.17068-1.77732-.08419-2.47592.03747-.30262-.78576-1.08128-.64283-.79147Z"/>
        <path class="cls-17" d="m78.12022,356.69925s1.00025-1.49549,1.45161-1.46798-.30191,1.78517.10897,2.5841-1.56058-1.11612-1.56058-1.11612Z"/>
        <g>
          <g>
            <path class="cls-6" d="m51.54127,367.72467c2.1232-6.87636,5.40137-11.02542,8.64504-11.02542,1.79278,0,3.49162,1.29971,5.01117,3.62342,1.46591,2.24167,2.31976,4.82623,2.62917,7.48673,1.16486,10.01607,3.74387,32.4465,2.44448,39.34784"/>
            <path class="cls-6" d="m49.10958,412.76788c-.23919,2.82629-.49193,5.46463-.75629,7.77936"/>
            <path class="cls-6" d="m49.40767,406.66847c-.07945,1.01751-.16061,2.01812-.24339,2.99623"/>
            <path class="cls-6" d="m37.67744,359.0871c1.55723-2.46929,3.30871-3.85583,5.16041-3.85583,3.45282,0,6.55715,4.82101,8.70342,12.4934,0,0-.74616,19.07468-1.9325,35.51397"/>
            <path class="cls-6" d="m85.46907,376.8339c-1.88567-12.775-5.91982-21.60263-10.59208-21.60263-2.9127,0-5.57741,3.43069-7.62821,9.10971"/>
            <path class="cls-6" d="m86.5011,388.0501c-.11878-2.86619-.33672-5.63096-.64229-8.2571"/>
            <path class="cls-6" d="m77.98057,356.5747c1.24018-1.38519,2.57725-2.14003,3.97111-2.14003,1.61374,0,3.15137,1.01178,4.55064,2.84214"/>
            <path class="cls-6" d="m89.69093,364.86259c2.20265,8.15658,13.25994,49.81147,10.1535,54.13348-3.42278,4.76213-60.4195,25.00117-86.16476,0-2.08681-2.0265,8.60066-45.46844,11.32373-56.3706.52164-2.08844,1.4635-4.04931,2.78095-5.75166.02219-.02867.04388-.05663.06502-.08383.3399-.43729.71035-.84915,1.1421-1.19606.94173-.75666,1.92936-1.15924,2.94729-1.15924,2.2199,0,3.63846,1.46686,5.40826,4.79318"/>
            <path class="cls-6" d="m87.21188,352.0112c.02884.29813.03054.60385.0046.91284-.01534.18271-.02862.36545-.03814.54817"/>
            <path class="cls-6" d="m78.794,351.45621c.09821-.18944.20782-.37622.32896-.55927,1.55219-2.34557,4.40836-3.18964,6.37943-1.88528,1.00899.6677,1.59045,1.76894,1.7095,2.99953"/>
            <path class="cls-6" d="m33.57598,368.1346c-3.24676,8.55901-7.28908,22.46721-5.77128,35.80176"/>
            <path class="cls-6" d="m37.67744,359.0871s-1.32473,2.55811-2.99571,6.76248"/>
            <line class="cls-6" x1="88.32698" y1="360.35177" x2="88.7339" y2="361.72902"/>
          </g>
          <path class="cls-6" d="m37.79638,351.45621c-.09821-.18944-.20782-.37622-.32896-.55927-1.55219-2.34557-4.40836-3.18964-6.37943-1.88528-1.46233.9677-2.02667,2.84606-1.58673,4.70903"/>
          <path class="cls-6" d="m50.69474,351.96519c.02327-.22511.0352-.45372.0352-.68522,0-3.5187-2.75751-6.37117-6.15908-6.37117s-6.15908,2.85247-6.15908,6.37117c0,.19923.00884.39632.02614.59089"/>
          <path class="cls-6" d="m65.60151,352.17922c.03621-.29464.05486-.59475.05486-.89925,0-4.00298-3.2227-7.24804-7.1981-7.24804s-7.1981,3.24506-7.1981,7.24804"/>
          <path class="cls-6" d="m65.64019,351.73235c-.01013-.14943-.01529-.30029-.01529-.45239,0-3.5187,2.75751-6.37117,6.15908-6.37117s6.15908,2.85247,6.15908,6.37117"/>
          <path class="cls-6" d="m51.28447,352.56345h-11.18067c-2.14578,0-4.13921.65231-5.7928,1.76945"/>
          <line class="cls-6" x1="54.84956" y1="352.56345" x2="51.28447" y2="352.56345"/>
          <line class="cls-6" x1="60.17797" y1="352.56345" x2="57.55128" y2="352.56345"/>
          <path class="cls-6" d="m81.11222,354.381c-1.66731-1.1465-3.68697-1.81756-5.86337-1.81756h-12.59429"/>
        </g>
        <path class="cls-8" d="m52.78645,409.60342c1.25629-.07178,2.53146-.12959,3.8224-.17258,5.0849-.16934,9.94087-.09304,14.37524.19045"/>
        <path class="cls-8" d="m24.61289,423.66782c-3.21862-1.18364-5.08562-2.61956-5.13877-4.21551-.13015-3.90823,10.65684-7.58262,25.67822-9.2197"/>
        <path class="cls-8" d="m84.95727,411.50842c5.76872,1.35048,9.29741,3.24837,9.37077,5.45111.05523,1.65833-1.85514,3.27456-5.22054,4.71091"/>
        <path class="cls-6" d="m41.64713,426.63314s15.21412,3.25473,26.12533-.37128"/>
        <g>
          <g>
            <path class="cls-5" d="m31.93877,354.43468c-1.01793,0-2.00557.40258-2.94729,1.15924-.43176.34691-.8022.75877-1.1421,1.19606-.02114.02719-.04282.05515-.06502.08383-1.31746,1.70235-2.25932,3.66322-2.78095,5.75166-2.72307,10.90216-13.41054,54.34411-11.32373,56.3706,25.74525,25.00117,82.74198,4.76213,86.16476,0,3.10644-4.32201-7.95085-45.9769-10.1535-54.13348,0,0-1.18133-5.86674-3.18862-7.4524"/>
            <path class="cls-5" d="m87.21188,352.0112c.02884.29813.03054.60385.0046.91284-.00015.00183-.00031.00365-.00046.00548-.03042.3633-.01947.72674.0179,1.08939,0,0,.16094,1.53762.21584,1.97967"/>
            <path class="cls-5" d="m79.57183,350.30095c1.60994-1.88404,4.13676-2.47633,5.93055-1.28929,1.00899.6677,1.59045,1.76894,1.7095,2.99953"/>
          </g>
          <path class="cls-4" d="m29.50127,353.72069c-.43994-1.86297.12439-3.74132,1.58673-4.70903,1.97107-1.30436,4.82724-.46029,6.37943,1.88528.00121.00183.00242.00366.00363.00549.24621.37292.55373.70139.92903.94396l.03784.02446c-.0173-.19456-.02614-.39166-.02614-.59089,0-3.5187,2.75751-6.37117,6.15908-6.37117,2.83938,0,5.23001,1.98752,5.94264,4.69102.03351.12712.0757.25219.13161.37117l.61505,1.30898.19267-1.67289c.74999-3.19647,3.60184-5.57515,7.00543-5.57515,3.61255,0,6.60354,2.67972,7.11944,6.17277"/>
          <path class="cls-5" d="m75.22758,345.99689c1.63833,1.14495,2.71548,3.08389,2.71548,5.28308"/>
          <path class="cls-5" d="m65.65671,350.62856c.31541-3.2127,2.93831-5.71976,6.12728-5.71976.53143,0,1.04714.06962,1.53908.20054"/>
        </g>
      </g>
      <g>
        <path class="cls-18" d="m62.86822,484.40769c.92806-1.90597,2.63276-4.15799,5.47237-4.00134,4.87167.26875,6.45716,5.39221,6.33971,6.82356s2.10866-3.51534,4.16925-3.33408,4.5997.12468,4.56064,5.32242c-.03906,5.19775,2.22854.5,4.01137,7.3197,1.63063,6.2375,12.03923,47.31276,12.08409,56.32463.00459.92166-.59464,1.62015-1.18628,2.32685-2.82756,3.37745-19.74664,13.42126-39.2091,11.48707-22.55774-2.2418-43.70286-7.25931-46.04324-12.18288,0,0-.63127-13.01603,2.59477-23.38028,2.98273-9.58258,7.99916-31.31834,8.75067-34.58353.05266-.2288.10891-.45434.172-.68049.29272-1.04923,1.35765-5.15142.82723-7.35472-.57888-2.40457,2.47507-7.86531,8.3768-2.10011l1.14238.16254s.95721-5.42201,4.04415-5.74992,7.93089-1.27379,8.33491,6.86965c0,0,.87633-8.74191,7.5301-8.1366,6.65377.60531,7.09763,7.41815,7.09763,7.41815,0,0,.26642-1.18671.93055-2.55064"/>
        <path class="cls-2" d="m79.07569,516.57557c-.77625,11.97826-3.46219,26.61861-12.34456,17.20522-1.34941-1.43008-3.75308-.356-3.61606,1.60544l1.32485,18.96574c.07096,1.01587.85545,1.83621,1.86786,1.94599,5.27538.57203,20.57755.73973,19.12814-16.86405-.83687-10.16414-1.40001-17.51266-2.1763-23.02876-.35298-2.5082-4.02013-2.35719-4.18393.17042Z"/>
        <path class="cls-2" d="m61.06503,533.7641c-3.1945,3.64701-10.21342,9.53055-17.03867.97707-.57443-.71988-1.73914-.32172-1.77205.59867-.20534,5.74127-1.32558,18.68588,2.29512,19.6514,3.22215.85924,12.88002,1.25258,17.39977,1.47912,1.90789.09563,2.4935-2.07858,2.36038-3.98422l-1.26147-18.05853c-.07033-1.00687-1.31803-1.42275-1.98307-.6635Z"/>
        <path class="cls-2" d="m27.9658,515.40444c.77625,11.97826,3.3169,29.1354,12.19926,19.72201,1.34941-1.43008,2.24142-.46136,2.10441,1.50008l.3321,16.55432c-.07096,1.01587-.85545,1.83621-1.86786,1.94599-5.27538.57203-17.59865-1.55888-16.14924-19.16266.83687-10.16414,1.40001-17.51266,2.1763-23.02876.35298-2.5082,1.04122-.05859,1.20502,2.46902Z"/>
        <path class="cls-17" d="m56.45291,514.32017h-.00009c-18.39652-.55256-33.73685,13.27988-34.26357,30.89559l-.0985,3.29397c-.0468.00047-.07871.00078-.07871.00078,0,0-.9501,5.95703,2.62065,7.22174,3.57076,1.26474,25.76462,7.59961,30.78479,7.43271s25.45938-.1558,32.47876-5.5271c0,0,.3359-1.45489.56756-3.18302.09004-.2799.14596-.57459.15513-.8818l.02844-.95074c.02079-.34254.03135-.67904.02997-1.00321l.13166-4.40232c.52675-17.61571-13.95958-32.34403-32.35609-32.8966Z"/>
        <path class="cls-2" d="m26.72618,502.89846c.1286-1.74016-2.10868-2.20427-2.58107-.53627-3.55244,12.54373-10.36211,34.7708-8.10845,38.49921,3.32615,5.50273,2.86698.57576,4.68226.62394,1.34618.03573,4.8463-22.87755,6.00725-38.58687Z"/>
        <path class="cls-2" d="m84.25117,502.89846c-.1286-1.74016,2.10868-2.20427,2.58107-.53627,3.55244,12.54373,10.11345,34.63139,8.10845,38.49921-2.69298,5.19499-1.84582,1.23661-3.6611,1.28479-1.34618.03573-5.86747-23.53841-7.02842-39.24773Z"/>
        <circle class="cls-2" cx="59.29316" cy="486.77752" r="3.03178"/>
        <path class="cls-3" d="m41.87034,544.60131c-.53839.01951-.78398.67799-.39132,1.04687.62333.58558,1.5333,1.17256,2.54908.96525,1.88541-.38478,3.42452-2.38562,4.96363-2.27019l-7.12138.25806Z"/>
        <circle class="cls-3" cx="60.71536" cy="486.83809" r="1.22291"/>
        <path class="cls-3" d="m40.72297,484.85139c0-1.61385,1.38744-2.92214,3.09894-2.92214s3.09894,1.30829,3.09894,2.92214,1.15273,3.2096-.55877,3.2096-5.63911-1.59575-5.63911-3.2096Z"/>
        <path class="cls-3" d="m33.27479,488.30942c.85426.35222,1.65877-.6336,1.17842-1.42296-.57299-.9416-1.33082-1.94949-2.03418-2.13425-1.11987-.29417-1.52991,2.57358.85575,3.55721Z"/>
        <circle class="cls-2" cx="27.05265" cy="487.36841" r="1.44191"/>
        <circle class="cls-2" cx="76.73187" cy="490.38802" r="1.44191"/>
        <path class="cls-17" d="m34.5973,491.89418c-.39552.17256-2.7125-2.45202-2.30915-2.63424,1.73878-.78554,5.20488-2.09573,7.91719-.68016,3.7267,1.94499-1.82305,1.66309-5.60805,3.3144Z"/>
        <ellipse class="cls-2" cx="61.93827" cy="489.46806" rx="15.52833" ry="1.55702"/>
        <path class="cls-3" d="m44.01176,496.01285l1.65091,3.41887,1.67108-2.99753s-1.97204.87695-3.32199-.42134Z"/>
        <path class="cls-3" d="m59.13326,497.72228s2.77828,2.10172,3.9762,0l-1.48247,4.61137-2.49373-4.61137Z"/>
        <path class="cls-3" d="m74.32624,493.10298l1.30968,1.20436,1.16667-2.33997s-1.40822,1.72721-2.47635,1.13562Z"/>
        <path class="cls-3" d="m18.62961,551.73588c1.76762-11.7142,3.61379-2.5604,9.08152-4.42866.40027-.13677.55404-.51633.21785-.44585-3.01905.63285-8.69574,2.67189-8.95467,4.26526"/>
        <g>
          <path class="cls-3" d="m86.50027,549.91104c-.61324-.25352-1.0535.61584-.48613.95995,3.86056,2.34143,7.68998,5.74418,2.34113,7.96862-.5384.32169,6.70609-3.13108,5.17089-5.03641-.82277-1.02114-4.03884-2.65727-7.0259-3.89216Z"/>
          <path class="cls-3" d="m93.9096,554.55081c-.13413-1.9859-.74478-7.85989-3.42631-9.9764-.24455-.19302-.59612.03391-.51464.33462.51029,1.88331,1.60045,6.38074.15957,5.66541-3.58894-1.78175,1.50209,2.46902,3.25882,3.90347.21738.1775.54147.35291.52256.0729Z"/>
        </g>
        <path class="cls-3" d="m74.17991,485.41847s-.27374,2.55565-1.9162,2.49256,2.06254.14997,2.06254.14997l-.14634-2.64253Z"/>
        <path class="cls-3" d="m83.37017,488.23099c0-.35453-.47897-.46934-.6361-.15153-.45276.91572-1.09655,1.89718-1.76139,1.85277-1.23504-.0825,2.39749.79659,2.39749.79659v-2.49783Z"/>
        <path class="cls-3" d="m26.16485,488.38292c-.28885.58568.86181,1.96039,2.25349,2.09781.15524.01533.21458.20682.08717.29682l-2.07009,1.46227c-.44775.31628-1.06296-.04524-.99758-.58951.09646-.80298.17068-1.77732.08419-2.47592-.03747-.30262.78576-1.08128.64283-.79147Z"/>
        <path class="cls-17" d="m34.79124,492.1968s-1.00025-1.49549-1.45161-1.46798.30191,1.78517-.10897,2.5841,1.56058-1.11612,1.56058-1.11612Z"/>
        <g>
          <g>
            <path class="cls-6" d="m61.37018,503.22222c-2.1232-6.87636-5.40137-11.02542-8.64504-11.02542-1.79278,0-3.49162,1.29971-5.01117,3.62342-1.46591,2.24167-2.31976,4.82623-2.62917,7.48673-1.16486,10.01607-3.74387,32.4465-2.44448,39.34784"/>
            <path class="cls-6" d="m63.80187,548.26543c.23919,2.82629.49193,5.46463.75629,7.77936"/>
            <path class="cls-6" d="m63.50378,542.16603c.07945,1.01751.16061,2.01812.24339,2.99623"/>
            <path class="cls-6" d="m75.23402,494.58465c-1.55723-2.46929-3.30871-3.85583-5.16041-3.85583-3.45282,0-6.55715,4.82101-8.70342,12.4934,0,0,.74616,19.07468,1.9325,35.51397"/>
            <path class="cls-6" d="m27.44238,512.33145c1.88567-12.775,5.91982-21.60263,10.59208-21.60263,2.9127,0,5.57741,3.43069,7.62821,9.10971"/>
            <path class="cls-6" d="m26.41036,523.54765c.11878-2.86619.33672-5.63096.64229-8.2571"/>
            <path class="cls-6" d="m34.93089,492.07225c-1.24018-1.38519-2.57725-2.14003-3.97111-2.14003-1.61374,0-3.15137,1.01178-4.55064,2.84214"/>
            <path class="cls-6" d="m23.22053,500.36014c-2.20265,8.15658-13.25994,49.81147-10.1535,54.13348,3.42278,4.76213,60.4195,25.00117,86.16476,0,2.08681-2.0265-8.60066-45.46844-11.32373-56.3706-.52164-2.08844-1.4635-4.04931-2.78095-5.75166-.02219-.02867-.04388-.05663-.06502-.08383-.3399-.43729-.71035-.84915-1.1421-1.19606-.94173-.75666-1.92936-1.15924-2.94729-1.15924-2.2199,0-3.63846,1.46686-5.40826,4.79318"/>
            <path class="cls-6" d="m25.69958,487.50875c-.02884.29813-.03054.60385-.0046.91284.01534.18271.02862.36545.03814.54817"/>
            <path class="cls-6" d="m34.11746,486.95376c-.09821-.18944-.20782-.37622-.32896-.55927-1.55219-2.34557-4.40836-3.18964-6.37943-1.88528-1.00899.6677-1.59045,1.76894-1.7095,2.99953"/>
            <path class="cls-6" d="m79.33547,503.63215c3.24676,8.55901,7.28908,22.46721,5.77128,35.80176"/>
            <path class="cls-6" d="m75.23402,494.58465s1.32473,2.55811,2.99571,6.76248"/>
            <line class="cls-6" x1="24.58448" y1="495.84932" x2="24.17756" y2="497.22657"/>
          </g>
          <path class="cls-6" d="m75.11508,486.95376c.09821-.18944.20782-.37622.32896-.55927,1.55219-2.34557,4.40836-3.18964,6.37943-1.88528,1.46233.9677,2.02667,2.84606,1.58673,4.70903"/>
          <path class="cls-6" d="m62.21672,487.46274c-.02327-.22511-.0352-.45372-.0352-.68522,0-3.5187,2.75751-6.37117,6.15908-6.37117s6.15908,2.85247,6.15908,6.37117c0,.19923-.00884.39632-.02614.59089"/>
          <path class="cls-6" d="m47.30995,487.67677c-.03621-.29464-.05486-.59475-.05486-.89925,0-4.00298,3.2227-7.24804,7.1981-7.24804s7.1981,3.24506,7.1981,7.24804"/>
          <path class="cls-6" d="m47.27126,487.2299c.01013-.14943.01529-.30029.01529-.45239,0-3.5187-2.75751-6.37117-6.15908-6.37117s-6.15908,2.85247-6.15908,6.37117"/>
          <path class="cls-6" d="m61.62699,488.061h11.18067c2.14578,0,4.13921.65231,5.7928,1.76945"/>
          <line class="cls-6" x1="58.0619" y1="488.061" x2="61.62699" y2="488.061"/>
          <line class="cls-6" x1="52.73349" y1="488.061" x2="55.36017" y2="488.061"/>
          <path class="cls-6" d="m31.79924,489.87855c1.66731-1.1465,3.68697-1.81756,5.86337-1.81756h12.59429"/>
        </g>
        <path class="cls-8" d="m60.12501,545.10097c-1.25629-.07178-2.53146-.12959-3.8224-.17258-5.0849-.16934-9.94087-.09304-14.37524.19045"/>
        <path class="cls-8" d="m88.29857,559.16537c3.21862-1.18364,5.08562-2.61956,5.13877-4.21551.13015-3.90823-10.65684-7.58262-25.67822-9.2197"/>
        <path class="cls-8" d="m27.95419,547.00597c-5.76872,1.35048-9.29741,3.24837-9.37077,5.45111-.05523,1.65833,1.85514,3.27456,5.22054,4.71091"/>
        <path class="cls-6" d="m71.26433,562.13069s-15.21412,3.25473-26.12533-.37128"/>
        <g>
          <g>
            <path class="cls-5" d="m80.97268,489.93223c1.01793,0,2.00557.40258,2.94729,1.15924.43176.34691.8022.75877,1.1421,1.19606.02114.02719.04282.05515.06502.08383,1.31746,1.70235,2.25932,3.66322,2.78095,5.75166,2.72307,10.90216,13.41054,54.34411,11.32373,56.3706-25.74525,25.00117-82.74198,4.76213-86.16476,0-3.10644-4.32201,7.95085-45.9769,10.1535-54.13348,0,0,1.18133-5.86674,3.18862-7.4524"/>
            <path class="cls-5" d="m25.69958,487.50875c-.02884.29813-.03054.60385-.0046.91284.00015.00183.00031.00365.00046.00548.03042.3633.01947.72674-.0179,1.08939,0,0-.16094,1.53762-.21584,1.97967"/>
            <path class="cls-5" d="m33.33963,485.7985c-1.60994-1.88404-4.13676-2.47633-5.93055-1.28929-1.00899.6677-1.59045,1.76894-1.7095,2.99953"/>
          </g>
          <path class="cls-4" d="m83.41019,489.21825c.43994-1.86297-.12439-3.74132-1.58673-4.70903-1.97107-1.30436-4.82724-.46029-6.37943,1.88528-.00121.00183-.00242.00366-.00363.00549-.24621.37292-.55373.70139-.92903.94396l-.03784.02446c.0173-.19456.02614-.39166.02614-.59089,0-3.5187-2.75751-6.37117-6.15908-6.37117-2.83938,0-5.23001,1.98752-5.94264,4.69102-.03351.12712-.0757.25219-.13161.37117l-.61505,1.30898-.19267-1.67289c-.74999-3.19647-3.60184-5.57515-7.00543-5.57515-3.61255,0-6.60354,2.67972-7.11944,6.17277"/>
          <path class="cls-5" d="m37.68388,481.49444c-1.63833,1.14495-2.71548,3.08389-2.71548,5.28308"/>
          <path class="cls-5" d="m47.25475,486.12611c-.31541-3.2127-2.93831-5.71976-6.12728-5.71976-.53143,0-1.04714.06962-1.53908.20054"/>
        </g>
      </g>
      <g>
        <g>
          <path class="cls-15" d="m1.01299,864.74536c-.14413-1.12942.91556-5.00186,3.03494-12.74677,2.91183-10.64074,4.42001-16.07285,6.98037-21.5481,2.76616-5.91534,4.98382-10.51461,10.01532-14.26424,2.37362-1.7689,4.91813-3.00936,8.80134-4.24892,7.76939-2.48006,23.01658-7.34711,38.54379-.30349,3.16107,1.43397,9.48878,4.3935,14.26424,10.9258,1.54863,2.11837,2.97563,5.38649,5.76639,11.83628,3.73826,8.63955,5.60739,12.95931,6.37338,16.3887.35929,1.60857,2.69863,12.08176-.30349,19.72714-6.11838,15.58149-34.11371,18.63066-50.98706,16.99569-17.79434-1.72422-40.90795-10.37181-42.48922-22.76208Z"/>
          <path class="cls-13" d="m27.72049,812.24082c-4.70789,1.71277-8.48297,3.14188-11.53279,6.98037-3.3226,4.18181-5.0526,10.30231-3.64193,15.78171,2.3315,9.05619,12.31557,12.76181,18.81665,15.17472,15.71547,5.83288,29.76511,1.39777,36.11583-.60699,8.39026-2.64857,15.14251-4.78009,17.60268-10.9258,2.91865-7.29103-1.94378-15.88491-6.06989-20.33413-7.95624-8.57927-19.75368-8.84192-31.56342-9.10483-6.11725-.13619-12.75849.49968-19.72714,3.03494Z"/>
          <path class="cls-16" d="m28.93447,811.93733c-3.13834,1.05247-4.62738,6.66988-3.94543,10.9258,1.23215,7.68965,9.63924,11.48192,12.44327,12.74677,5.39883,2.43531,10.33011,2.44535,12.44327,2.42796,5.80355-.04775,5.29654-1.70506,13.05026-2.12446,2.46241-.13319,5.15318-.10881,5.76639-1.51747.45304-1.04069-.6924-1.79642-.91048-3.94543-.31615-3.11534,1.61602-6.20772,2.42796-6.06989.71226.12091.55144,2.72571.91048,2.73145.46999.00752,1.8993-4.4374,0-6.67688-1.17547-1.38599-2.63338-.75699-3.64193-2.12446-1.51631-2.05592.57809-5.10626-.30349-5.76639-1.20236-.90033-4.85306,4.95742-11.22929,6.98037-5.91075,1.87526-11.78842-.29838-14.26424-1.21398-7.70341-2.84884-9.57856-7.43585-12.74677-6.37338Z"/>
          <path class="cls-11" d="m32.27291,825.59458c-.48712.81907,3.70039,4.95325,8.49784,7.28387,9.56552,4.64696,20.62391,1.67098,20.63762.60699.00671-.52022-2.63083-.2854-9.40833-2.12446-1.8762-.50911-3.86763-1.12232-14.56773-4.55242-3.78727-1.21407-4.93808-1.58614-5.1594-1.21398Z"/>
          <path class="cls-11" d="m30.45194,820.13168h0c-.49494.7158.84865-1.56767,1.51747-2.12446,1.36728-1.13825,4.15614,1.23571,8.19435,2.73145,6.08612,2.25429,9.6533.52961,12.13978,3.64193.14199.17772,1.37271,1.71821.91048,2.42796-.56633.8696-3.25927-.14491-11.83628-3.03494-5.2087-1.75508-10.9258-3.64193-10.9258-3.64193Z"/>
          <path class="cls-11" d="m58.98042,821.64915c-.40476-1.09172,5.76293-4.55003,5.76639-4.55242h0c-.00043.00035-.70109,3.43693-2.73145,4.55242-1.19627.65724-2.84767.50514-3.03494,0Z"/>
          <path class="cls-11" d="m57.76644,827.71904c-.27306-.97432,4.18824-2.94247,7.58736-3.64193,1.35152-.27812,1.71481-.18685,1.82097,0,.31552.55533-1.38981,2.39563-3.33844,3.33844-2.55214,1.2348-5.84979,1.08881-6.06989.30349Z"/>
          <path class="cls-12" d="m48.05462,784.62283c-2.16666.00364-8.63162.01451-13.96074,4.85591-6.69612,6.08329-6.21482,14.90183-6.06989,16.69219.60336,7.45388,5.26916,15.30352,13.05026,18.20966,6.12544,2.28779,11.64063.56301,13.35375,0,1.21852-.40047,8.49577-2.92276,12.44327-10.6223.58969-1.15018,5.32173-10.77453,0-19.72714-5.60583-9.43054-17.19319-9.41106-18.81665-9.40833Z"/>
          <path class="cls-9" d="m50.78607,793.42417c-.2158-.99784,4.28771-1.8502,4.24892-3.64193-.03499-1.61661-3.74996-3.17673-6.98037-3.03494-1.52438.06691-4.32107.57336-4.55242,1.82097-.23301,1.25651,2.33617,2.18558,4.55242,6.06989.76666,1.34368.69992,1.65438.60699,1.82097-.6871,1.2317-6.15093.58105-9.40833-2.73145-.3654-.37158-3.45368-3.58411-2.42796-6.06989.89424-2.16716,4.36462-2.44705,7.89085-2.73145,3.32547-.26821,11.50804-.92815,13.35375,3.03494.75894,1.62957.37155,3.87989-.91048,5.1594-2.08958,2.08548-6.17659,1.21344-6.37338.30349Z"/>
          <path class="cls-9" d="m58.67692,801.01153c.51418-1.45001,2.38037-2.2911,3.03494-1.82097.66032.47425.05661,2.26044,0,2.42796-.35892,1.06195-1.30176,2.59065-2.12446,2.42796-.77491-.15325-1.35228-1.7891-.91048-3.03494Z"/>
          <path class="cls-10" d="m37.73581,804.04647c1.37754-.35179,1.97666-3.40973.91048-4.24892-.59625-.4693-1.71844-.24878-2.42796.30349-.05578.04341-1.1176.89823-.91048,2.12446.20769,1.2297,1.55811,2.0431,2.42796,1.82097Z"/>
          <path class="cls-14" d="m47.14414,788.26476c-1.20142-1.54981,2.39887-6.22066,4.85591-9.40833,5.06443-6.57038,9.96369-10.63477,10.31881-10.9258,5.98985-4.90876,19.65778-14.57826,23.67256-11.22929.77309.64488,1.35276,1.9097,1.21398,3.03494-.16934,1.3732-1.39521,2.42967-4.24892,3.94543-4.04653,2.14932-6.00789,2.37604-9.71182,3.94543-1.51141.6404-4.26954,1.82622-7.28387,3.94543-1.56347,1.09919-4.76694,3.39038-7.58736,7.28387-3.43311,4.73928-3.15016,7.50624-6.37338,9.10483-1.65883.82271-4.10851,1.26763-4.85591.30349Z"/>
        </g>
        <path class="cls-7" d="m94.79278,850.78462c-.766-3.4294-2.63516-7.74915-6.37343-16.38871-2.79075-6.44978-4.21777-9.7179-5.76639-11.83628-.88735-1.21381-1.82841-2.30378-2.79267-3.284-.28469-.33912-.5687-.66241-.84922-.96493-3.02217-3.25883-6.59951-5.31573-10.52031-6.63044-.03368-.01529-.06905-.03145-.10204-.04642-.16944-.07687-.33864-.14453-.50804-.2186,1.32816-3.62186,2.9697-10.69013-1.00942-17.38408-3.03441-5.10474-7.81976-7.43785-11.8304-8.50624-.12312-.0442-.24792-.08649-.37509-.12635.93524-1.59364,1.66146-3.7174,3.70764-6.54213,2.82041-3.8935,6.02391-6.1847,7.58738-7.28388,3.01434-2.1192,5.77245-3.30503,7.2839-3.94543,3.70391-1.56937,5.66523-1.7961,9.7118-3.94543,2.85369-1.51574,4.07956-2.57221,4.24888-3.94543.13881-1.12523-.44085-2.39007-1.21395-3.03494-4.01477-3.34897-17.68274,6.32054-23.67257,11.22929-.3551.29103-5.25437,4.35542-10.3188,10.92581-1.33418,1.73087-3.00395,3.8983-4.06046,5.76665-1.00103.00227-2.79163.02252-4.93201.45106-2.70625.26207-5.12044.71472-6.02308,2.27317-.97894.57922-1.95245,1.2791-2.89064,2.13141-6.69611,6.0833-6.2148,14.90183-6.06987,16.6922.15013,1.85487.55224,3.73412,1.19091,5.55572-.49656.16278-.99439.33226-1.49441.51417-4.70789,1.71276-8.48298,3.14187-11.53279,6.98036-1.85864,2.33927-3.21758,5.28549-3.80852,8.38649-.44544.91366-.89056,1.85838-1.3509,2.84279-2.56035,5.47526-4.06852,10.90736-6.98036,21.5481-2.11938,7.74492-3.17909,11.61735-3.03496,12.74678,1.58127,12.39027,24.69488,21.03785,42.48923,22.76207,16.87335,1.63496,44.86866-1.4142,50.98706-16.99568,3.00214-7.64538.66279-18.11857.30352-19.72714Z"/>
      </g>
      <g>
        <path class="cls-19" d="m61.35479,932.37547c.92806-1.90597,2.63276-4.15799,5.47237-4.00134,4.87167.26875,6.45716,5.39221,6.33971,6.82356s2.10866-3.51534,4.16925-3.33408,4.5997.12468,4.56064,5.32242c-.03906,5.19775,2.22854.5,4.01137,7.3197,1.63063,6.2375,12.03923,47.31276,12.08409,56.32463.00459.92166-.59464,1.62015-1.18628,2.32685-2.82756,3.37745-19.74664,13.42126-39.2091,11.48707-22.55774-2.2418-43.70286-7.25931-46.04324-12.18288,0,0-.63127-13.01603,2.59477-23.38028,2.98273-9.58258,7.99916-31.31834,8.75067-34.58353.05266-.2288.10891-.45434.172-.68049.29272-1.04923,1.35765-5.15142.82723-7.35472-.57888-2.40457,2.47507-7.86531,8.3768-2.10011l1.14238.16254s.95721-5.42201,4.04415-5.74992,7.93089-1.27379,8.33491,6.86965c0,0,.87633-8.74191,7.5301-8.1366,6.65377.60531,7.09763,7.41815,7.09763,7.41815,0,0,.26642-1.18671.93055-2.55064"/>
        <path class="cls-2" d="m77.56226,964.54335c-.77625,11.97826-3.46219,26.61861-12.34456,17.20522-1.34941-1.43008-3.75308-.356-3.61606,1.60544l1.32485,18.96574c.07096,1.01587.85545,1.83621,1.86786,1.94599,5.27538.57203,20.57755.73973,19.12814-16.86405-.83687-10.16414-1.40001-17.51266-2.1763-23.02876-.35298-2.5082-4.02013-2.35719-4.18393.17042Z"/>
        <path class="cls-2" d="m59.5516,981.73188c-3.1945,3.64701-10.21342,9.53055-17.03867.97707-.57443-.71988-1.73914-.32172-1.77205.59867-.20534,5.74127-1.32558,18.68588,2.29512,19.6514,3.22215.85924,12.88002,1.25258,17.39977,1.47912,1.90789.09563,2.4935-2.07858,2.36038-3.98422l-1.26147-18.05853c-.07033-1.00687-1.31803-1.42275-1.98307-.6635Z"/>
        <path class="cls-2" d="m26.45237,963.37222c.77625,11.97826,3.3169,29.1354,12.19926,19.72201,1.34941-1.43008,2.24142-.46136,2.10441,1.50008l.3321,16.55432c-.07096,1.01587-.85545,1.83621-1.86786,1.94599-5.27538.57203-17.59865-1.55888-16.14924-19.16266.83687-10.16414,1.40001-17.51266,2.1763-23.02876.35298-2.5082,1.04122-.05859,1.20502,2.46902Z"/>
        <path class="cls-17" d="m54.93948,962.28796h-.00009c-18.39652-.55256-33.73685,13.27988-34.26357,30.89559l-.0985,3.29397c-.0468.00047-.07871.00078-.07871.00078,0,0-.9501,5.95703,2.62065,7.22174,3.57076,1.26474,25.76462,7.59961,30.78479,7.43271s25.45938-.1558,32.47876-5.5271c0,0,.3359-1.45489.56756-3.18302.09004-.2799.14596-.57459.15513-.8818l.02844-.95074c.02079-.34254.03135-.67904.02997-1.00321l.13166-4.40232c.52675-17.61571-13.95958-32.34403-32.35609-32.8966Z"/>
        <path class="cls-2" d="m25.21275,950.86624c.1286-1.74016-2.10868-2.20427-2.58107-.53627-3.55244,12.54373-10.36211,34.7708-8.10845,38.49921,3.32615,5.50273,2.86698.57576,4.68226.62394,1.34618.03573,4.8463-22.87755,6.00725-38.58687Z"/>
        <path class="cls-2" d="m82.73774,950.86624c-.1286-1.74016,2.10868-2.20427,2.58107-.53627,3.55244,12.54373,10.11345,34.63139,8.10845,38.49921-2.69298,5.19499-1.84582,1.23661-3.6611,1.28479-1.34618.03573-5.86747-23.53841-7.02842-39.24773Z"/>
        <circle class="cls-2" cx="57.77973" cy="934.74531" r="3.03178"/>
        <path class="cls-3" d="m40.35691,992.5691c-.53839.01951-.78398.67799-.39132,1.04687.62333.58558,1.5333,1.17256,2.54908.96525,1.88541-.38478,3.42452-2.38562,4.96363-2.27019l-7.12138.25806Z"/>
        <circle class="cls-3" cx="59.20193" cy="934.80587" r="1.22291"/>
        <path class="cls-3" d="m39.20954,932.81918c0-1.61385,1.38744-2.92214,3.09894-2.92214s3.09894,1.30829,3.09894,2.92214,1.15273,3.2096-.55877,3.2096-5.63911-1.59575-5.63911-3.2096Z"/>
        <path class="cls-3" d="m31.76136,936.27721c.85426.35222,1.65877-.6336,1.17842-1.42296-.57299-.9416-1.33082-1.94949-2.03418-2.13425-1.11987-.29417-1.52991,2.57358.85575,3.55721Z"/>
        <circle class="cls-2" cx="25.53922" cy="935.33619" r="1.44191"/>
        <circle class="cls-2" cx="75.21845" cy="938.3558" r="1.44191"/>
        <path class="cls-17" d="m33.08387,939.86196c-.39552.17256-2.7125-2.45202-2.30915-2.63424,1.73878-.78554,5.20488-2.09573,7.91719-.68016,3.7267,1.94499-1.82305,1.66309-5.60805,3.3144Z"/>
        <ellipse class="cls-2" cx="60.42484" cy="937.43584" rx="15.52833" ry="1.55702"/>
        <path class="cls-3" d="m42.49833,943.98063l1.65091,3.41887,1.67108-2.99753s-1.97204.87695-3.32199-.42134Z"/>
        <path class="cls-3" d="m57.61983,945.69007s2.77828,2.10172,3.9762,0l-1.48247,4.61137-2.49373-4.61137Z"/>
        <path class="cls-3" d="m72.81282,941.07076l1.30968,1.20436,1.16667-2.33997s-1.40822,1.72721-2.47635,1.13562Z"/>
        <path class="cls-3" d="m17.11618,999.70367c1.76762-11.7142,3.61379-2.5604,9.08152-4.42866.40027-.13677.55404-.51633.21785-.44585-3.01905.63285-8.69574,2.67189-8.95467,4.26526"/>
        <g>
          <path class="cls-3" d="m84.98684,997.87883c-.61324-.25352-1.0535.61584-.48613.95995,3.86056,2.34143,7.68998,5.74418,2.34113,7.96862-.5384.32169,6.70609-3.13108,5.17089-5.03641-.82277-1.02114-4.03884-2.65727-7.0259-3.89216Z"/>
          <path class="cls-3" d="m92.39617,1002.51859c-.13413-1.9859-.74478-7.85989-3.42631-9.9764-.24455-.19302-.59612.03391-.51464.33462.51029,1.88331,1.60045,6.38074.15957,5.66541-3.58894-1.78175,1.50209,2.46902,3.25882,3.90347.21738.1775.54147.35291.52256.0729Z"/>
        </g>
        <path class="cls-3" d="m72.66648,933.38626s-.27374,2.55565-1.9162,2.49256,2.06254.14997,2.06254.14997l-.14634-2.64253Z"/>
        <path class="cls-3" d="m81.85674,936.19878c0-.35453-.47897-.46934-.6361-.15153-.45276.91572-1.09655,1.89718-1.76139,1.85277-1.23504-.0825,2.39749.79659,2.39749.79659v-2.49783Z"/>
        <path class="cls-3" d="m24.65142,936.35071c-.28885.58568.86181,1.96039,2.25349,2.09781.15524.01533.21458.20682.08717.29682l-2.07009,1.46227c-.44775.31628-1.06296-.04524-.99758-.58951.09646-.80298.17068-1.77732.08419-2.47592-.03747-.30262.78576-1.08128.64283-.79147Z"/>
        <path class="cls-17" d="m33.27781,940.16458s-1.00025-1.49549-1.45161-1.46798.30191,1.78517-.10897,2.5841,1.56058-1.11612,1.56058-1.11612Z"/>
        <g>
          <g>
            <path class="cls-6" d="m59.85676,951.19001c-2.1232-6.87636-5.40137-11.02542-8.64504-11.02542-1.79278,0-3.49162,1.29971-5.01117,3.62342-1.46591,2.24167-2.31976,4.82623-2.62917,7.48673-1.16486,10.01607-3.74387,32.4465-2.44448,39.34784"/>
            <path class="cls-6" d="m62.28845,996.23321c.23919,2.82629.49193,5.46463.75629,7.77936"/>
            <path class="cls-6" d="m61.99036,990.13381c.07945,1.01751.16061,2.01812.24339,2.99623"/>
            <path class="cls-6" d="m73.72059,942.55244c-1.55723-2.46929-3.30871-3.85583-5.16041-3.85583-3.45282,0-6.55715,4.82101-8.70342,12.4934,0,0,.74616,19.07468,1.9325,35.51397"/>
            <path class="cls-6" d="m25.92895,960.29924c1.88567-12.775,5.91982-21.60263,10.59208-21.60263,2.9127,0,5.57741,3.43069,7.62821,9.10971"/>
            <path class="cls-6" d="m24.89693,971.51544c.11878-2.86619.33672-5.63096.64229-8.2571"/>
            <path class="cls-6" d="m33.41746,940.04004c-1.24018-1.38519-2.57725-2.14003-3.97111-2.14003-1.61374,0-3.15137,1.01178-4.55064,2.84214"/>
            <path class="cls-6" d="m21.7071,948.32793c-2.20265,8.15658-13.25994,49.81147-10.1535,54.13348,3.42278,4.76213,60.4195,25.00117,86.16476,0,2.08681-2.0265-8.60066-45.46844-11.32373-56.3706-.52164-2.08844-1.4635-4.04931-2.78095-5.75166-.02219-.02867-.04388-.05663-.06502-.08383-.3399-.43729-.71035-.84915-1.1421-1.19606-.94173-.75666-1.92936-1.15924-2.94729-1.15924-2.2199,0-3.63846,1.46686-5.40826,4.79318"/>
            <path class="cls-6" d="m24.18615,935.47654c-.02884.29813-.03054.60385-.0046.91284.01534.18271.02862.36545.03814.54817"/>
            <path class="cls-6" d="m32.60403,934.92155c-.09821-.18944-.20782-.37622-.32896-.55927-1.55219-2.34557-4.40836-3.18964-6.37943-1.88528-1.00899.6677-1.59045,1.76894-1.7095,2.99953"/>
            <path class="cls-6" d="m77.82204,951.59994c3.24676,8.55901,7.28908,22.46721,5.77128,35.80176"/>
            <path class="cls-6" d="m73.72059,942.55244s1.32473,2.55811,2.99571,6.76248"/>
            <line class="cls-6" x1="23.07105" y1="943.81711" x2="22.66413" y2="945.19436"/>
          </g>
          <path class="cls-6" d="m73.60165,934.92155c.09821-.18944.20782-.37622.32896-.55927,1.55219-2.34557,4.40836-3.18964,6.37943-1.88528,1.46233.9677,2.02667,2.84606,1.58673,4.70903"/>
          <path class="cls-6" d="m60.70329,935.43052c-.02327-.22511-.0352-.45372-.0352-.68522,0-3.5187,2.75751-6.37117,6.15908-6.37117s6.15908,2.85247,6.15908,6.37117c0,.19923-.00884.39632-.02614.59089"/>
          <path class="cls-6" d="m45.79652,935.64456c-.03621-.29464-.05486-.59475-.05486-.89925,0-4.00298,3.2227-7.24804,7.1981-7.24804s7.1981,3.24506,7.1981,7.24804"/>
          <path class="cls-6" d="m45.75783,935.19769c.01013-.14943.01529-.30029.01529-.45239,0-3.5187-2.75751-6.37117-6.15908-6.37117s-6.15908,2.85247-6.15908,6.37117"/>
          <path class="cls-6" d="m60.11356,936.02878h11.18067c2.14578,0,4.13921.65231,5.7928,1.76945"/>
          <line class="cls-6" x1="56.54847" y1="936.02878" x2="60.11356" y2="936.02878"/>
          <line class="cls-6" x1="51.22006" y1="936.02878" x2="53.84675" y2="936.02878"/>
          <path class="cls-6" d="m30.28581,937.84634c1.66731-1.1465,3.68697-1.81756,5.86337-1.81756h12.59429"/>
        </g>
        <path class="cls-8" d="m58.61158,993.06875c-1.25629-.07178-2.53146-.12959-3.8224-.17258-5.0849-.16934-9.94087-.09304-14.37524.19045"/>
        <path class="cls-8" d="m86.78514,1007.13315c3.21862-1.18364,5.08562-2.61956,5.13877-4.21551.13015-3.90823-10.65684-7.58262-25.67822-9.2197"/>
        <path class="cls-8" d="m26.44076,994.97376c-5.76872,1.35048-9.29741,3.24837-9.37077,5.45111-.05523,1.65833,1.85514,3.27456,5.22054,4.71091"/>
        <path class="cls-6" d="m69.7509,1010.09848s-15.21412,3.25473-26.12533-.37128"/>
        <g>
          <g>
            <path class="cls-5" d="m79.45925,937.90001c1.01793,0,2.00557.40258,2.94729,1.15924.43176.34691.8022.75877,1.1421,1.19606.02114.02719.04282.05515.06502.08383,1.31746,1.70235,2.25932,3.66322,2.78095,5.75166,2.72307,10.90216,13.41054,54.34411,11.32373,56.3706-25.74525,25.00117-82.74198,4.76213-86.16476,0-3.10644-4.32201,7.95085-45.9769,10.1535-54.13348,0,0,1.18133-5.86674,3.18862-7.4524"/>
            <path class="cls-5" d="m24.18615,935.47654c-.02884.29813-.03054.60385-.0046.91284.00015.00183.00031.00365.00046.00548.03042.3633.01947.72674-.0179,1.08939,0,0-.16094,1.53762-.21584,1.97967"/>
            <path class="cls-5" d="m31.8262,933.76629c-1.60994-1.88404-4.13676-2.47633-5.93055-1.28929-1.00899.6677-1.59045,1.76894-1.7095,2.99953"/>
          </g>
          <path class="cls-4" d="m81.89676,937.18603c.43994-1.86297-.12439-3.74132-1.58673-4.70903-1.97107-1.30436-4.82724-.46029-6.37943,1.88528-.00121.00183-.00242.00366-.00363.00549-.24621.37292-.55373.70139-.92903.94396l-.03784.02446c.0173-.19456.02614-.39166.02614-.59089,0-3.5187-2.75751-6.37117-6.15908-6.37117-2.83938,0-5.23001,1.98752-5.94264,4.69102-.03351.12712-.0757.25219-.13161.37117l-.61505,1.30898-.19267-1.67289c-.74999-3.19647-3.60184-5.57515-7.00543-5.57515-3.61255,0-6.60354,2.67972-7.11944,6.17277"/>
          <path class="cls-5" d="m36.17045,929.46223c-1.63833,1.14495-2.71548,3.08389-2.71548,5.28308"/>
          <path class="cls-5" d="m45.74132,934.09389c-.31541-3.2127-2.93831-5.71976-6.12728-5.71976-.53143,0-1.04714.06962-1.53908.20054"/>
        </g>
      </g>
      <g>
        <g>
          <path class="cls-15" d="m99.04397,1187.38964c.14413-1.12942-.91556-5.00186-3.03494-12.74677-2.91183-10.64074-4.42001-16.07285-6.98037-21.5481-2.76616-5.91534-4.98382-10.51461-10.01532-14.26424-2.37362-1.7689-4.91813-3.00936-8.80134-4.24892-7.76939-2.48006-23.01658-7.34711-38.54379-.30349-3.16107,1.43397-9.48878,4.3935-14.26424,10.9258-1.54863,2.11837-2.97563,5.38649-5.76639,11.83628-3.73826,8.63955-5.60739,12.95931-6.37338,16.3887-.35929,1.60857-2.69863,12.08176.30349,19.72714,6.11838,15.58149,34.11371,18.63066,50.98706,16.99569,17.79434-1.72422,40.90795-10.37181,42.48922-22.76208Z"/>
          <path class="cls-13" d="m72.33647,1134.88511c4.70789,1.71277,8.48297,3.14188,11.53279,6.98037,3.3226,4.18181,5.0526,10.30231,3.64193,15.78171-2.3315,9.05619-12.31557,12.76181-18.81665,15.17472-15.71547,5.83288-29.76511,1.39777-36.11583-.60699-8.39026-2.64857-15.14251-4.78009-17.60268-10.9258-2.91865-7.29103,1.94378-15.88491,6.06989-20.33413,7.95624-8.57927,19.75368-8.84192,31.56342-9.10483,6.11725-.13619,12.75849.49968,19.72714,3.03494Z"/>
          <path class="cls-16" d="m71.12249,1134.58161c3.13834,1.05247,4.62738,6.66988,3.94543,10.9258-1.23215,7.68965-9.63924,11.48192-12.44327,12.74677-5.39883,2.43531-10.33011,2.44535-12.44327,2.42796-5.80355-.04775-5.29654-1.70506-13.05026-2.12446-2.46241-.13319-5.15318-.10881-5.76639-1.51747-.45304-1.04069.6924-1.79642.91048-3.94543.31615-3.11534-1.61602-6.20772-2.42796-6.06989-.71226.12091-.55144,2.72571-.91048,2.73145-.46999.00752-1.8993-4.4374,0-6.67688,1.17547-1.38599,2.63338-.75699,3.64193-2.12446,1.51631-2.05592-.57809-5.10626.30349-5.76639,1.20236-.90033,4.85306,4.95742,11.22929,6.98037,5.91075,1.87526,11.78842-.29838,14.26424-1.21398,7.70341-2.84884,9.57856-7.43585,12.74677-6.37338Z"/>
          <path class="cls-11" d="m67.78405,1148.23886c.48712.81907-3.70039,4.95325-8.49784,7.28387-9.56552,4.64696-20.62391,1.67098-20.63762.60699-.00671-.52022,2.63083-.2854,9.40833-2.12446,1.8762-.50911,3.86763-1.12232,14.56773-4.55242,3.78727-1.21407,4.93808-1.58614,5.1594-1.21398Z"/>
          <path class="cls-11" d="m69.60502,1142.77596h0c.49494.7158-.84865-1.56767-1.51747-2.12446-1.36728-1.13825-4.15614,1.23571-8.19435,2.73145-6.08612,2.25429-9.6533.52961-12.13978,3.64193-.14199.17772-1.37271,1.71821-.91048,2.42796.56633.8696,3.25927-.14491,11.83628-3.03494,5.2087-1.75508,10.9258-3.64193,10.9258-3.64193Z"/>
          <path class="cls-11" d="m41.07654,1144.29344c.40476-1.09172-5.76293-4.55003-5.76639-4.55242h0c.00043.00035.70109,3.43693,2.73145,4.55242,1.19627.65724,2.84767.50514,3.03494,0Z"/>
          <path class="cls-11" d="m42.29052,1150.36332c.27306-.97432-4.18824-2.94247-7.58736-3.64193-1.35152-.27812-1.71481-.18685-1.82097,0-.31552.55533,1.38981,2.39563,3.33844,3.33844,2.55214,1.2348,5.84979,1.08881,6.06989.30349Z"/>
          <path class="cls-12" d="m52.00234,1107.26712c2.16666.00364,8.63162.01451,13.96074,4.85591,6.69612,6.08329,6.21482,14.90183,6.06989,16.69219-.60336,7.45388-5.26916,15.30352-13.05026,18.20966-6.12544,2.28779-11.64063.56301-13.35375,0-1.21852-.40047-8.49577-2.92276-12.44327-10.6223-.58969-1.15018-5.32173-10.77453,0-19.72714,5.60583-9.43054,17.19319-9.41106,18.81665-9.40833Z"/>
          <path class="cls-9" d="m49.27089,1116.06846c.2158-.99784-4.28771-1.8502-4.24892-3.64193.03499-1.61661,3.74996-3.17673,6.98037-3.03494,1.52438.06691,4.32107.57336,4.55242,1.82097.23301,1.25651-2.33617,2.18558-4.55242,6.06989-.76666,1.34368-.69992,1.65438-.60699,1.82097.6871,1.2317,6.15093.58105,9.40833-2.73145.3654-.37158,3.45368-3.58411,2.42796-6.06989-.89424-2.16716-4.36462-2.44705-7.89085-2.73145-3.32547-.26821-11.50804-.92815-13.35375,3.03494-.75894,1.62957-.37155,3.87989.91048,5.1594,2.08958,2.08548,6.17659,1.21344,6.37338.30349Z"/>
          <path class="cls-9" d="m41.38004,1123.65582c-.51418-1.45001-2.38037-2.2911-3.03494-1.82097-.66032.47425-.05661,2.26044,0,2.42796.35892,1.06195,1.30176,2.59065,2.12446,2.42796.77491-.15325,1.35228-1.7891.91048-3.03494Z"/>
          <path class="cls-10" d="m62.32115,1126.69076c-1.37754-.35179-1.97666-3.40973-.91048-4.24892.59625-.4693,1.71844-.24878,2.42796.30349.05578.04341,1.1176.89823.91048,2.12446-.20769,1.2297-1.55811,2.0431-2.42796,1.82097Z"/>
          <path class="cls-14" d="m52.91282,1110.90905c1.20142-1.54981-2.39887-6.22066-4.85591-9.40833-5.06443-6.57038-9.96369-10.63477-10.31881-10.9258-5.98985-4.90876-19.65778-14.57826-23.67256-11.22929-.77309.64488-1.35276,1.9097-1.21398,3.03494.16934,1.3732,1.39521,2.42967,4.24892,3.94543,4.04653,2.14932,6.00789,2.37604,9.71182,3.94543,1.51141.6404,4.26954,1.82622,7.28387,3.94543,1.56347,1.09919,4.76694,3.39038,7.58736,7.28387,3.43311,4.73928,3.15016,7.50624,6.37338,9.10483,1.65883.82271,4.10851,1.26763,4.85591.30349Z"/>
        </g>
        <path class="cls-7" d="m5.26418,1173.4289c.766-3.4294,2.63516-7.74915,6.37343-16.38871,2.79075-6.44978,4.21777-9.7179,5.76639-11.83628.88735-1.21381,1.82841-2.30378,2.79267-3.284.28469-.33912.5687-.66241.84922-.96493,3.02217-3.25883,6.59951-5.31573,10.52031-6.63044.03368-.01529.06905-.03145.10204-.04642.16944-.07687.33864-.14453.50804-.2186-1.32816-3.62186-2.9697-10.69013,1.00942-17.38408,3.03441-5.10474,7.81976-7.43785,11.8304-8.50624.12312-.0442.24792-.08649.37509-.12635-.93524-1.59364-1.66146-3.7174-3.70764-6.54213-2.82041-3.8935-6.02391-6.1847-7.58738-7.28388-3.01434-2.1192-5.77245-3.30503-7.2839-3.94543-3.70391-1.56937-5.66523-1.7961-9.7118-3.94543-2.85369-1.51574-4.07956-2.57221-4.24888-3.94543-.13881-1.12523.44085-2.39007,1.21395-3.03494,4.01477-3.34897,17.68274,6.32054,23.67257,11.22929.3551.29103,5.25437,4.35542,10.3188,10.92581,1.33418,1.73087,3.00395,3.8983,4.06046,5.76665,1.00103.00227,2.79163.02252,4.93201.45106,2.70625.26207,5.12044.71472,6.02308,2.27317.97894.57922,1.95245,1.2791,2.89064,2.13141,6.69611,6.0833,6.2148,14.90183,6.06987,16.6922-.15013,1.85487-.55224,3.73412-1.19091,5.55572.49656.16278.99439.33226,1.49441.51417,4.70789,1.71276,8.48298,3.14187,11.53279,6.98036,1.85864,2.33927,3.21758,5.28549,3.80852,8.38649.44544.91366.89056,1.85838,1.3509,2.84279,2.56035,5.47526,4.06852,10.90736,6.98036,21.5481,2.11938,7.74492,3.17909,11.61735,3.03496,12.74678-1.58127,12.39027-24.69488,21.03785-42.48923,22.76207-16.87335,1.63496-44.86866-1.4142-50.98706-16.99568-3.00214-7.64538-.66279-18.11857-.30352-19.72714Z"/>
      </g>
    </g>
  </g>
</svg>