<?xml version="1.0" encoding="UTF-8"?>
<svg id="Layer_2" data-name="Layer 2" xmlns="http://www.w3.org/2000/svg" viewBox="0 0 257.531 84.09607">
  <defs>
    <style>
      .cls-1 {
        opacity: 0;
      }

      .cls-1, .cls-2 {
        fill: #5d3e1f;
      }

      .cls-1, .cls-3 {
        stroke-width: .75px;
      }

      .cls-1, .cls-3, .cls-4 {
        stroke-miterlimit: 10;
      }

      .cls-1, .cls-5 {
        stroke: #000;
      }

      .cls-6 {
        fill: #6e502c;
      }

      .cls-7 {
        fill: #2d1e12;
      }

      .cls-8 {
        fill: #7c603b;
      }

      .cls-3 {
        stroke: #482f1c;
      }

      .cls-3, .cls-4, .cls-5 {
        fill: none;
      }

      .cls-4 {
        stroke: #5d3e1f;
      }

      .cls-5 {
        stroke-linejoin: round;
        stroke-width: 2px;
      }
    </style>
  </defs>
  <g id="buttons">
    <g>
      <g>
        <rect class="cls-6" x="10.46218" y="7.18788" width="235" height="70"/>
        <polygon class="cls-8" points="10.46218 7.18788 15.46218 12.18788 136.71297 31.50616 240.46218 12.18788 245.46218 7.18788 10.46218 7.18788"/>
        <polygon class="cls-2" points="10.46218 77.18788 15.46218 72.18788 150.69524 47.71669 240.46218 72.18788 245.46218 77.18788 10.46218 77.18788"/>
        <rect class="cls-8" x="15.46218" y="12.18788" width="225" height="60"/>
        <rect class="cls-3" x="15.46218" y="12.18788" width="225" height="60"/>
        <rect class="cls-5" x="10.46218" y="7.18788" width="235" height="70"/>
        <rect class="cls-4" x="22.96218" y="19.68788" width="210" height="45"/>
        <g>
          <polygon class="cls-1" points="228.41035 .49382 224.84056 5.89988 228.38956 10.08721 236.3076 8.71275 235.52306 4.35976 228.41035 .49382"/>
          <polygon class="cls-1" points="255.53564 5.48464 249.34983 7.38748 248.96094 12.08276 254.09864 15.40726 257.1217 10.49739 255.53564 5.48464"/>
          <polygon class="cls-1" points="244.11705 19.34752 241.9731 24.91912 243.86108 28.69356 249.71212 28.69356 249.5721 22.8968 244.11705 19.34752"/>
          <polygon class="cls-1" points="21.06137 73.66751 18.20464 79.6984 20.77767 83.64437 27.46258 81.28547 28.09741 75.88941 21.06137 73.66751"/>
          <polygon class="cls-1" points="11.85841 54.92284 6.08088 57.83922 5.82545 62.02895 11.87741 63.52162 14.26516 59.59732 11.85841 54.92284"/>
          <polygon class="cls-1" points="8.24541 72.24368 4.53749 68.66914 .41636 69.57859 1.22382 75.75837 5.30551 78.87097 8.24541 72.24368"/>
        </g>
      </g>
      <g>
        <path class="cls-7" d="m72.83348,48.34058v4.92773h-14.39941v-24.31836h5.43945v19.39062h8.95996Z"/>
        <path class="cls-7" d="m76.29051,30.86988h5.43945v24.31836h-5.43945v-24.31836Z"/>
        <path class="cls-7" d="m103.52098,28.94995l-5.53613,24.31836h-7.9668l-5.53613-24.31836h5.47168l4.06348,18.94287,4.03223-18.94287h5.47168Z"/>
        <path class="cls-7" d="m111.71336,34.13355v5.7915h8.41602v4.92773h-8.41602v5.40771h9.63184v4.92773h-15.07129v-26.23828h15.07129v5.18359h-9.63184Z"/>
        <path class="cls-7" d="m140.5454,44.50074c-5.34375-.76758-7.80762-3.13574-7.80762-7.55127,0-4.76758,3.3916-7.99951,8.41602-7.99951,5.24707,0,8.25488,2.97607,8.38281,8.25537h-5.43945c-.12793-2.30371-.99219-3.26367-2.94336-3.26367-1.76074,0-2.97656,1.12012-2.97656,2.75195,0,1.72754.7998,2.27197,3.96777,2.71973,5.53613.76807,8,3.10352,8,7.6792,0,5.05566-3.23242,8.0957-8.57617,8.0957-5.9834,0-8.99121-2.81592-9.15039-8.76758h5.43945c.06348,2.87988,1.15137,4.03174,3.71094,4.03174,1.85645,0,3.13672-1.15186,3.13672-2.81543,0-2.04785-.83203-2.68799-4.16016-3.13623Z"/>
        <path class="cls-7" d="m153.53758,30.86988h5.43945v24.31836h-5.43945v-24.31836Z"/>
        <path class="cls-7" d="m180.54344,36.05347h-6.33496v19.13477h-5.43945v-19.13477h-6.30371v-5.18359h18.07812v5.18359Z"/>
        <path class="cls-7" d="m189.47215,34.13355v5.7915h8.41602v4.92773h-8.41602v5.40771h9.63184v4.92773h-15.07129v-26.23828h15.07129v5.18359h-9.63184Z"/>
      </g>
    </g>
  </g>
</svg>