<?xml version="1.0" encoding="UTF-8"?>
<svg id="Layer_2" data-name="Layer 2" xmlns="http://www.w3.org/2000/svg" viewBox="0 0 257.531 84.09607">
  <defs>
    <style>
      .cls-1 {
        opacity: 0;
      }

      .cls-1, .cls-2 {
        fill: #5d3e1f;
      }

      .cls-1, .cls-3 {
        stroke-width: .75px;
      }

      .cls-1, .cls-3, .cls-4 {
        stroke-miterlimit: 10;
      }

      .cls-1, .cls-5 {
        stroke: #000;
      }

      .cls-6 {
        fill: #6e502c;
      }

      .cls-7 {
        fill: #2d1e12;
      }

      .cls-8 {
        fill: #7c603b;
      }

      .cls-3 {
        stroke: #482f1c;
      }

      .cls-3, .cls-4, .cls-5 {
        fill: none;
      }

      .cls-4 {
        stroke: #5d3e1f;
      }

      .cls-5 {
        stroke-linejoin: round;
        stroke-width: 2px;
      }
    </style>
  </defs>
  <g id="buttons">
    <g>
      <g>
        <rect class="cls-6" x="10.46218" y="7.18788" width="235" height="70"/>
        <polygon class="cls-8" points="10.46218 7.18788 15.46218 12.18788 136.71297 31.50616 240.46218 12.18788 245.46218 7.18788 10.46218 7.18788"/>
        <polygon class="cls-2" points="10.46218 77.18788 15.46218 72.18788 150.69524 47.71669 240.46218 72.18788 245.46218 77.18788 10.46218 77.18788"/>
        <rect class="cls-8" x="15.46218" y="12.18788" width="225" height="60"/>
        <rect class="cls-3" x="15.46218" y="12.18788" width="225" height="60"/>
        <rect class="cls-5" x="10.46218" y="7.18788" width="235" height="70"/>
        <rect class="cls-4" x="22.96218" y="19.68788" width="210" height="45"/>
        <g>
          <polygon class="cls-1" points="228.41035 .49382 224.84056 5.89988 228.38956 10.08721 236.3076 8.71275 235.52306 4.35976 228.41035 .49382"/>
          <polygon class="cls-1" points="255.53564 5.48464 249.34983 7.38748 248.96094 12.08276 254.09864 15.40726 257.1217 10.49739 255.53564 5.48464"/>
          <polygon class="cls-1" points="244.11705 19.34752 241.9731 24.91912 243.86108 28.69356 249.71212 28.69356 249.5721 22.8968 244.11705 19.34752"/>
          <polygon class="cls-1" points="21.06137 73.66751 18.20464 79.6984 20.77767 83.64437 27.46258 81.28547 28.09741 75.88941 21.06137 73.66751"/>
          <polygon class="cls-1" points="11.85841 54.92284 6.08088 57.83922 5.82545 62.02895 11.87741 63.52162 14.26516 59.59732 11.85841 54.92284"/>
          <polygon class="cls-1" points="8.24541 72.24368 4.53749 68.66914 .41636 69.57859 1.22382 75.75837 5.30551 78.87097 8.24541 72.24368"/>
        </g>
      </g>
      <g>
        <path class="cls-7" d="m87.88817,30.86988v24.31836h-5.43945v-15.87109l-5.15137,8.25537h-2.46387l-5.21582-8.31934v15.93506h-5.43945v-24.31836h6.36816l5.50293,8.76758,5.47168-8.76758h6.36719Z"/>
        <path class="cls-7" d="m97.61766,34.13355v5.7915h8.41602v4.92773h-8.41602v5.40771h9.63184v4.92773h-15.07129v-26.23828h15.07129v5.18359h-9.63184Z"/>
        <path class="cls-7" d="m128.88036,30.86988v22.39844h-5.75977l-6.97559-12.70312v12.70312h-5.43945v-22.39844h5.91992l6.81543,12.5752v-12.5752h5.43945Z"/>
        <path class="cls-7" d="m150.44774,36.05347h-6.33496v19.13477h-5.43945v-19.13477h-6.30371v-5.18359h18.07812v5.18359Z"/>
        <path class="cls-7" d="m152.62547,45.30103v-4.54395c0-6.04736,3.61621-9.88721,9.40723-9.88721,5.75977,0,9.37598,3.83984,9.37598,9.88721v4.54395c0,6.04736-3.61621,9.88721-9.37598,9.88721-5.82324,0-9.40723-3.83984-9.40723-9.88721Zm13.34375.15967v-4.70361c0-3.03955-1.4082-4.70361-3.93652-4.70361-2.52734,0-3.96777,1.66406-3.96777,4.70361v4.70361c0,3.07178,1.44043,4.7998,3.96777,4.7998,2.52832,0,3.93652-1.72803,3.93652-4.7998Z"/>
        <path class="cls-7" d="m187.37645,55.18824l-6.97559-8.44727v8.44727h-5.43945v-24.31836h8.5752c5.44043,0,8.35156,2.75195,8.35156,7.87158,0,4.0957-1.9834,6.75146-5.53516,7.61523l7.00684,8.83154h-5.9834Zm-3.99902-19.13477h-2.97656v5.95166h2.97656c2.04785,0,3.07129-.95996,3.07129-2.97559,0-2.01611-.99219-2.97607-3.07129-2.97607Z"/>
      </g>
    </g>
  </g>
</svg>