<?xml version="1.0" encoding="UTF-8"?>
<svg id="Layer_2" data-name="Layer 2" xmlns="http://www.w3.org/2000/svg" viewBox="0 0 258.70534 85.15054">
  <defs>
    <style>
      .cls-1 {
        fill: #6e502c;
      }

      .cls-2 {
        fill: #5d3e1f;
      }

      .cls-3, .cls-4 {
        fill: #7c603b;
      }

      .cls-5 {
        fill: #fff;
      }

      .cls-5, .cls-6, .cls-7 {
        stroke-width: .75px;
      }

      .cls-5, .cls-4, .cls-8 {
        stroke: #000;
      }

      .cls-6, .cls-7, .cls-9 {
        stroke-miterlimit: 10;
      }

      .cls-6, .cls-7, .cls-9, .cls-8 {
        fill: none;
      }

      .cls-6, .cls-9 {
        stroke: #5d3e1f;
      }

      .cls-7 {
        stroke: #482f1c;
      }

      .cls-4, .cls-8 {
        stroke-linejoin: round;
        stroke-width: 2px;
      }
    </style>
  </defs>
  <g id="buttons">
    <g>
      <g>
        <path class="cls-1" d="m39.16252,77.69406l-1.13965-3.41895c-.37012-1.1084-.9043-2.16992-1.59082-3.1543-1.5293-2.19043-3.76562-3.8623-6.29395-4.70312l-3.66211-1.21777.27148-4.13867c.00684-.0957.01758-.18945.01855-.28809,0-6.44336-4.82422-11.78906-11.22168-12.43457l-4.49805-.45312V7.69406h205.68945l1.14746,3.40234c.40527,1.2002.99805,2.33691,1.7627,3.37793,1.71582,2.34863,4.19434,4.02539,6.98633,4.73145l4.13086,1.0459-.37695,4.24414c-.03516.39062-.07031.84668-.07031,1.26758,0,6.45117,4.82617,11.79688,11.22656,12.43457l4.50391.44922v39.04687H39.16252Z"/>
        <path class="cls-1" d="m246.04582,42.9537v34.73999H43.6757c-.05981-1.73999-.36987-3.41998-.90991-5-.53003-1.59003-1.29004-3.08002-2.22998-4.42999-2.12988-3.04999-5.20996-5.39001-8.82007-6.59003.02002-.29999.05005-.58997.05005-.89996,0-9.06-6.8999-16.52002-15.71997-17.41003-.58984-.06-1.17993-.08997-1.78003-.08997-1.09985,0-2.17993.12-3.21997.31V7.69369h201.19995c.06006,1.73999.37012,3.41998.90015,5,.57983,1.71997,1.41992,3.31,2.46997,4.73999,2.35986,3.22998,5.80005,5.60999,9.79004,6.62-.05005.56-.09009,1.13-.09009,1.71002,0,9.07001,6.8999,16.52997,15.72998,17.40997.58008.06,1.16992.09003,1.77002.09003,1.10986,0,2.17993-.10999,3.22998-.31Z"/>
        <path class="cls-3" d="m215.61589,17.43368l-78.32007,14.58002L16.04582,12.69369l-5-5h201.19995c.05717,1.65641.34091,3.25845.82529,4.77163.02444.07635.04939.15248.07485.22837.57983,1.71997,1.41992,3.31,2.46997,4.73999Z"/>
        <path class="cls-2" d="m246.04582,77.69369H43.6757c-.05981-1.73999-.36987-3.41998-.90991-5-.53003-1.59003-1.29004-3.08002-2.22998-4.42999l110.73999-20.03998,89.77002,24.46997,5,5Z"/>
        <path class="cls-3" d="m241.04582,43.17367v29.52002H42.76579c-.53003-1.59003-1.29004-3.08002-2.22998-4.42999-.79004-1.13-1.70996-2.16003-2.72998-3.07001-1.75-1.56-3.82007-2.76001-6.09009-3.52002.02002-.29999.05005-.58997.05005-.89996,0-.79999-.05005-1.59003-.15991-2.36005v-.00995c-.38013-2.81-1.41992-5.39001-2.95996-7.61005-1.36011-1.94-3.09009-3.58997-5.1001-4.85999-2.20996-1.39001-4.76001-2.29999-7.5-2.57001V12.69369h197.1001c.57983,1.71997,1.41992,3.31,2.46997,4.73999.73999,1.01001,1.57983,1.92999,2.51001,2.76001,2.0498,1.82001,4.54004,3.16998,7.28003,3.85999-.05005.56-.09009,1.13-.09009,1.71002,0,.38.01001.76001.04004,1.14001.19995,3.09998,1.19995,5.96997,2.80005,8.41998,1.38989,2.13,3.22998,3.94,5.38989,5.28998,2.20996,1.38,4.76001,2.29004,7.5,2.56Z"/>
        <polygon class="cls-3" points="212.0297 7.90237 216.58619 7.90237 212.83237 12.58893 212.0297 7.90237"/>
        <path class="cls-9" d="m23.54584,45.93371v-25.74h194.58m15.42,20.42v24.58H37.80584"/>
        <line class="cls-6" x1="11.04631" y1="47.88547" x2="16.04582" y2="43.36368"/>
        <line class="cls-6" x1="26.476" y1="65.19992" x2="31.71574" y2="61.67367"/>
        <line class="cls-6" x1="39.16252" y1="77.69406" x2="42.76579" y2="72.69369"/>
        <line class="cls-6" x1="213.14592" y1="12.69369" x2="216.73576" y2="7.69406"/>
        <line class="cls-6" x1="225.40593" y1="24.05368" x2="230.76311" y2="20.25168"/>
        <line class="cls-6" x1="241.04582" y1="43.17367" x2="246.04631" y2="38.64719"/>
        <polygon class="cls-2" points="42.97735 72.8682 39.47305 77.60273 44.1703 77.50953 42.97735 72.8682"/>
        <polygon class="cls-4" points="228.99399 1 225.42421 6.40605 228.9732 10.59339 236.89124 9.21892 236.1067 4.86594 228.99399 1"/>
        <polygon class="cls-4" points="256.11928 5.99082 249.93348 7.89366 249.54458 12.58893 254.68228 15.91344 257.70534 11.00356 256.11928 5.99082"/>
        <polygon class="cls-4" points="244.70069 19.8537 242.55674 25.4253 244.44472 29.19973 250.29576 29.19973 250.15574 23.40297 244.70069 19.8537"/>
        <path class="cls-8" d="m241.5424,38.19797c-6.40039-.6377-11.22656-5.9834-11.22656-12.43457,0-.4209.03516-.87695.07031-1.26758l.37695-4.24414-4.13086-1.0459c-2.79199-.70605-5.27051-2.38281-6.98633-4.73145-.76465-1.04102-1.35742-2.17773-1.7627-3.37793l-1.14746-3.40234h-4.48999v-.00037H11.04582v35.89001c.00024,0,.00024-.00006.00049-.00006v4.30182l4.49805.45312c6.39746.64551,11.22168,5.99121,11.22168,12.43457-.00098.09863-.01172.19238-.01855.28809l-.27148,4.13867,3.66211,1.21777c2.52832.84082,4.76465,2.5127,6.29395,4.70312.68652.98438,1.2207,2.0459,1.59082,3.1543l1.13965,3.41895h206.88379v-39.04687l-4.50391-.44922Z"/>
        <polygon class="cls-4" points="21.64501 74.17368 18.78828 80.20457 21.36131 84.15054 28.04622 81.79165 28.68105 76.39559 21.64501 74.17368"/>
        <polygon class="cls-4" points="12.44205 55.42902 6.66452 58.34539 6.40909 62.53513 12.46105 64.02779 14.8488 60.10349 12.44205 55.42902"/>
        <polygon class="cls-4" points="8.82905 72.74986 5.12113 69.17532 1 70.08477 1.80746 76.26454 5.88915 79.37714 8.82905 72.74986"/>
        <path class="cls-7" d="m241.04582,43.17367v29.52002H42.76579c-.53003-1.59003-1.29004-3.08002-2.22998-4.42999-2.12988-3.04999-5.20996-5.39001-8.82007-6.59003.02002-.29999.05005-.58997.05005-.89996,0-9.06-6.8999-16.52002-15.71997-17.41003V12.69369h197.1001c.57983,1.71997,1.41992,3.31,2.46997,4.73999,2.35986,3.22998,5.80005,5.60999,9.79004,6.62-.05005.56-.09009,1.13-.09009,1.71002,0,9.07001,6.8999,16.52997,15.72998,17.40997Z"/>
      </g>
      <g>
        <path class="cls-5" d="m88.47181,31.37605v24.31836h-5.43945v-15.87109l-5.15137,8.25537h-2.46387l-5.21582-8.31934v15.93506h-5.43945v-24.31836h6.36816l5.50293,8.76758,5.47168-8.76758h6.36719Z"/>
        <path class="cls-5" d="m98.2013,34.63972v5.7915h8.41602v4.92773h-8.41602v5.40771h9.63184v4.92773h-15.07129v-26.23828h15.07129v5.18359h-9.63184Z"/>
        <path class="cls-5" d="m129.464,31.37605v22.39844h-5.75977l-6.97559-12.70312v12.70312h-5.43945v-22.39844h5.91992l6.81543,12.5752v-12.5752h5.43945Z"/>
        <path class="cls-5" d="m151.03138,36.55965h-6.33496v19.13477h-5.43945v-19.13477h-6.30371v-5.18359h18.07812v5.18359Z"/>
        <path class="cls-5" d="m153.20911,45.8072v-4.54395c0-6.04736,3.61621-9.88721,9.40723-9.88721,5.75977,0,9.37598,3.83984,9.37598,9.88721v4.54395c0,6.04736-3.61621,9.88721-9.37598,9.88721-5.82324,0-9.40723-3.83984-9.40723-9.88721Zm13.34375.15967v-4.70361c0-3.03955-1.4082-4.70361-3.93652-4.70361-2.52734,0-3.96777,1.66406-3.96777,4.70361v4.70361c0,3.07178,1.44043,4.7998,3.96777,4.7998,2.52832,0,3.93652-1.72803,3.93652-4.7998Z"/>
        <path class="cls-5" d="m187.96009,55.69441l-6.97559-8.44727v8.44727h-5.43945v-24.31836h8.5752c5.44043,0,8.35156,2.75195,8.35156,7.87158,0,4.0957-1.9834,6.75146-5.53516,7.61523l7.00684,8.83154h-5.9834Zm-3.99902-19.13477h-2.97656v5.95166h2.97656c2.04785,0,3.07129-.95996,3.07129-2.97559,0-2.01611-.99219-2.97607-3.07129-2.97607Z"/>
      </g>
    </g>
  </g>
</svg>