<svg width="24" height="25" viewBox="0 0 24 25" fill="none" xmlns="http://www.w3.org/2000/svg">
<mask id="mask0_1117_82261" style="mask-type:alpha" maskUnits="userSpaceOnUse" x="0" y="0" width="24" height="25">
<rect y="0.935059" width="24" height="24" fill="#D9D9D9"/>
</mask>
<g mask="url(#mask0_1117_82261)">
<path d="M12 7.93506C12.2833 7.93506 12.5208 7.83923 12.7125 7.64756C12.9042 7.45589 13 7.21839 13 6.93506C13 6.65173 12.9042 6.41423 12.7125 6.22256C12.5208 6.03089 12.2833 5.93506 12 5.93506C11.7167 5.93506 11.4792 6.03089 11.2875 6.22256C11.0958 6.41423 11 6.65173 11 6.93506C11 7.21839 11.0958 7.45589 11.2875 7.64756C11.4792 7.83923 11.7167 7.93506 12 7.93506ZM11 15.9351H13V9.93506H11V15.9351ZM2 22.9351V4.93506C2 4.38506 2.19583 3.91423 2.5875 3.52256C2.97917 3.13089 3.45 2.93506 4 2.93506H20C20.55 2.93506 21.0208 3.13089 21.4125 3.52256C21.8042 3.91423 22 4.38506 22 4.93506V16.9351C22 17.4851 21.8042 17.9559 21.4125 18.3476C21.0208 18.7392 20.55 18.9351 20 18.9351H6L2 22.9351ZM5.15 16.9351H20V4.93506H4V18.0601L5.15 16.9351Z" fill="#FF80BB"/>
</g>
</svg>
