<svg width="91" height="59" viewBox="0 0 91 59" fill="none" xmlns="http://www.w3.org/2000/svg">
<path d="M90.3765 45.9358C90.3765 52.133 89.116 55.3902 86.9511 56.8859C84.7768 58.3881 81.5892 58.1895 77.5177 57.1806C75.4927 56.6788 73.2721 55.9833 70.8794 55.2195C70.6161 55.1354 70.3507 55.0506 70.0833 54.9651C67.9233 54.2743 65.6319 53.5414 63.2344 52.8586C57.8455 51.3237 51.906 50.0369 45.6648 50.0369C39.4236 50.0369 33.4842 51.3237 28.0952 52.8586C25.6978 53.5414 23.4064 54.2742 21.2464 54.965C20.979 55.0505 20.7136 55.1354 20.4503 55.2195C18.0575 55.9833 15.8369 56.6788 13.812 57.1806C9.74042 58.1895 6.55288 58.3881 4.37854 56.8859C2.21369 55.3902 0.953125 52.133 0.953125 45.9358C0.953125 21.2422 20.9712 1.22412 45.6648 1.22412C70.3584 1.22412 90.3765 21.2422 90.3765 45.9358Z" fill="#D9D9D9" stroke="#646464" stroke-width="0.5"/>
</svg>
