<svg width="91" height="58" viewBox="0 0 91 58" fill="none" xmlns="http://www.w3.org/2000/svg">
<path d="M90.3765 45.2996C90.3765 51.4968 89.116 54.7539 86.9511 56.2496C84.7768 57.7519 81.5892 57.5533 77.5177 56.5444C75.4927 56.0426 73.2721 55.347 70.8794 54.5832C70.6161 54.4992 70.3507 54.4143 70.0833 54.3288C67.9233 53.638 65.6319 52.9052 63.2344 52.2224C57.8455 50.6875 51.906 49.4007 45.6648 49.4007C39.4236 49.4007 33.4842 50.6875 28.0952 52.2224C25.6978 52.9052 23.4064 53.638 21.2464 54.3288C20.979 54.4143 20.7136 54.4992 20.4503 54.5832C18.0575 55.347 15.8369 56.0426 13.812 56.5444C9.74042 57.5533 6.55288 57.7519 4.37854 56.2496C2.21369 54.7539 0.953125 51.4968 0.953125 45.2996C0.953125 20.606 20.9712 0.587891 45.6648 0.587891C70.3584 0.587891 90.3765 20.606 90.3765 45.2996Z" fill="#D9D9D9" stroke="#646464" stroke-width="0.5"/>
</svg>
