<svg width="24" height="25" viewBox="0 0 24 25" fill="none" xmlns="http://www.w3.org/2000/svg">
<mask id="mask0_1117_82264" style="mask-type:alpha" maskUnits="userSpaceOnUse" x="0" y="0" width="24" height="25">
<rect y="0.935059" width="24" height="24" fill="#D9D9D9"/>
</mask>
<g mask="url(#mask0_1117_82264)">
<path d="M9 17.4351C8.3 17.4351 7.70833 17.1934 7.225 16.7101C6.74167 16.2267 6.5 15.6351 6.5 14.9351C6.5 14.2351 6.74167 13.6434 7.225 13.1601C7.70833 12.6767 8.3 12.4351 9 12.4351C9.7 12.4351 10.2917 12.6767 10.775 13.1601C11.2583 13.6434 11.5 14.2351 11.5 14.9351C11.5 15.6351 11.2583 16.2267 10.775 16.7101C10.2917 17.1934 9.7 17.4351 9 17.4351ZM5 22.9351C4.45 22.9351 3.97917 22.7392 3.5875 22.3476C3.19583 21.9559 3 21.4851 3 20.9351V6.93506C3 6.38506 3.19583 5.91423 3.5875 5.52256C3.97917 5.13089 4.45 4.93506 5 4.93506H6V2.93506H8V4.93506H16V2.93506H18V4.93506H19C19.55 4.93506 20.0208 5.13089 20.4125 5.52256C20.8042 5.91423 21 6.38506 21 6.93506V20.9351C21 21.4851 20.8042 21.9559 20.4125 22.3476C20.0208 22.7392 19.55 22.9351 19 22.9351H5ZM5 20.9351H19V10.9351H5V20.9351ZM5 8.93506H19V6.93506H5V8.93506Z" fill="#FF80BB"/>
</g>
</svg>
