<svg width="482" height="111" viewBox="0 0 482 111" fill="none" xmlns="http://www.w3.org/2000/svg">
<mask id="path-1-inside-1_429_530" fill="white">
<path fill-rule="evenodd" clip-rule="evenodd" d="M481.5 81.5933V0H0.5V110.443H439.105L481.5 81.5933Z"/>
</mask>
<path fill-rule="evenodd" clip-rule="evenodd" d="M481.5 81.5933V0H0.5V110.443H439.105L481.5 81.5933Z" fill="black"/>
<path d="M481.5 0H482.5V-1H481.5V0ZM481.5 81.5933L482.063 82.42L482.5 82.1223V81.5933H481.5ZM0.5 0V-1H-0.5V0H0.5ZM0.5 110.443H-0.5V111.443H0.5V110.443ZM439.105 110.443V111.443H439.413L439.667 111.27L439.105 110.443ZM480.5 0V81.5933H482.5V0H480.5ZM0.5 1H481.5V-1H0.5V1ZM1.5 110.443V0H-0.5V110.443H1.5ZM439.105 109.443H0.5V111.443H439.105V109.443ZM439.667 111.27L482.063 82.42L480.937 80.7665L438.542 109.617L439.667 111.27Z" fill="black" mask="url(#path-1-inside-1_429_530)"/>
<path d="M481.5 0H482.5V-1H481.5V0ZM481.5 81.5933L482.063 82.42L482.5 82.1223V81.5933H481.5ZM0.5 0V-1H-0.5V0H0.5ZM0.5 110.443H-0.5V111.443H0.5V110.443ZM439.105 110.443V111.443H439.413L439.667 111.27L439.105 110.443ZM480.5 0V81.5933H482.5V0H480.5ZM0.5 1H481.5V-1H0.5V1ZM1.5 110.443V0H-0.5V110.443H1.5ZM439.105 109.443H0.5V111.443H439.105V109.443ZM439.667 111.27L482.063 82.42L480.937 80.7665L438.542 109.617L439.667 111.27Z" fill="black" fill-opacity="0.2" mask="url(#path-1-inside-1_429_530)"/>
</svg>
