<svg width="77" height="82" viewBox="0 0 77 82" fill="none" xmlns="http://www.w3.org/2000/svg">
<mask id="path-1-inside-1_419_3985" fill="white">
<path fill-rule="evenodd" clip-rule="evenodd" d="M29.0072 0.38623L36.5436 4.73736L11.1059 48.7968L35.9103 72.9051H76.092V81.6074H31.9076V81.1501L0.371699 50.4993L0.148737 50.3705L0.181273 50.3142L0 50.138L0.697067 49.4208L29.0072 0.38623Z"/>
</mask>
<path fill-rule="evenodd" clip-rule="evenodd" d="M29.0072 0.38623L36.5436 4.73736L11.1059 48.7968L35.9103 72.9051H76.092V81.6074H31.9076V81.1501L0.371699 50.4993L0.148737 50.3705L0.181273 50.3142L0 50.138L0.697067 49.4208L29.0072 0.38623Z" fill="#D9D9D9"/>
<path d="M36.5436 4.73736L36.9766 4.98736L37.2266 4.55435L36.7936 4.30435L36.5436 4.73736ZM29.0072 0.38623L29.2572 -0.0467822L28.8242 -0.296782L28.5742 0.13623L29.0072 0.38623ZM11.1059 48.7968L10.6728 48.5468L10.4782 48.884L10.7574 49.1553L11.1059 48.7968ZM35.9103 72.9051L35.5618 73.2636L35.7073 73.4051H35.9103V72.9051ZM76.092 72.9051H76.592V72.4051H76.092V72.9051ZM76.092 81.6074V82.1074H76.592V81.6074H76.092ZM31.9076 81.6074H31.4076V82.1074H31.9076V81.6074ZM31.9076 81.1501H32.4076V80.9388L32.2561 80.7915L31.9076 81.1501ZM0.371699 50.4993L0.720185 50.1407L0.675574 50.0974L0.621699 50.0662L0.371699 50.4993ZM0.148737 50.3705L-0.284276 50.1205L-0.534275 50.5536L-0.101263 50.8036L0.148737 50.3705ZM0.181273 50.3142L0.614286 50.5642L0.808959 50.227L0.529759 49.9556L0.181273 50.3142ZM0 50.138L-0.358549 49.7895L-0.707036 50.1481L-0.348486 50.4965L0 50.138ZM0.697067 49.4208L1.05562 49.7693L1.09897 49.7247L1.13008 49.6708L0.697067 49.4208ZM36.7936 4.30435L29.2572 -0.0467822L28.7572 0.819243L36.2936 5.17037L36.7936 4.30435ZM11.5389 49.0468L36.9766 4.98736L36.1106 4.48736L10.6728 48.5468L11.5389 49.0468ZM36.2588 72.5465L11.4543 48.4382L10.7574 49.1553L35.5618 73.2636L36.2588 72.5465ZM35.9103 73.4051H76.092V72.4051H35.9103V73.4051ZM75.592 72.9051V81.6074H76.592V72.9051H75.592ZM76.092 81.1074H31.9076V82.1074H76.092V81.1074ZM32.4076 81.6074V81.1501H31.4076V81.6074H32.4076ZM0.0232122 50.8578L31.5591 81.5087L32.2561 80.7915L0.720185 50.1407L0.0232122 50.8578ZM-0.101263 50.8036L0.121699 50.9323L0.621699 50.0662L0.398737 49.9375L-0.101263 50.8036ZM-0.25174 50.0642L-0.284276 50.1205L0.58175 50.6205L0.614286 50.5642L-0.25174 50.0642ZM-0.348486 50.4965L-0.167213 50.6727L0.529759 49.9556L0.348486 49.7794L-0.348486 50.4965ZM0.338518 49.0723L-0.358549 49.7895L0.358549 50.4865L1.05562 49.7693L0.338518 49.0723ZM28.5742 0.13623L0.264054 49.1708L1.13008 49.6708L29.4402 0.63623L28.5742 0.13623Z" fill="#646464" mask="url(#path-1-inside-1_419_3985)"/>
</svg>
