<svg width="40" height="54" viewBox="0 0 40 54" fill="none" xmlns="http://www.w3.org/2000/svg">
<g clip-path="url(#clip0_627_2877)">
<path d="M4.91242 0H0.661957C0.296368 0 0 0.296368 0 0.661957V21.3413C0 21.7069 0.296368 22.0033 0.661957 22.0033H4.91242C5.278 22.0033 5.57437 21.7069 5.57437 21.3413V0.661957C5.57437 0.296368 5.278 0 4.91242 0Z" fill="#706DE2"/>
<path d="M15.1352 0H10.9157C10.5416 0 10.2383 0.303301 10.2383 0.677441V21.3258C10.2383 21.7 10.5416 22.0033 10.9157 22.0033H15.1352C15.5094 22.0033 15.8127 21.7 15.8127 21.3258V0.677441C15.8127 0.303301 15.5094 0 15.1352 0Z" fill="#706DE2"/>
<path d="M23.3579 32.5249H19.1384C18.7642 32.5249 18.4609 32.8282 18.4609 33.2023V44.0569C18.4609 44.431 18.7642 44.7343 19.1384 44.7343H23.3579C23.732 44.7343 24.0353 44.431 24.0353 44.0569V33.2023C24.0353 32.8282 23.732 32.5249 23.3579 32.5249Z" fill="#706DE2"/>
<path d="M31.5805 10.0029H27.361C26.9869 10.0029 26.6836 10.3062 26.6836 10.6804V53.1927C26.6836 53.5669 26.9869 53.8702 27.361 53.8702H31.5805C31.9547 53.8702 32.258 53.5669 32.258 53.1927V10.6804C32.258 10.3062 31.9547 10.0029 31.5805 10.0029Z" fill="#706DE2"/>
<path d="M0.402344 9.73194L0.402344 13.9437C0.402344 14.32 0.707378 14.625 1.08366 14.625L39.3146 14.625C39.6908 14.625 39.9959 14.32 39.9959 13.9437V9.73194C39.9959 9.35566 39.6908 9.05063 39.3146 9.05063L1.08366 9.05063C0.707378 9.05063 0.402344 9.35566 0.402344 9.73194Z" fill="#706DE2"/>
<path d="M3.07031 41.6451L3.07031 45.582C3.07031 45.8493 3.28696 46.0659 3.5542 46.0659H39.5166C39.7839 46.0659 40.0005 45.8493 40.0005 45.582V41.6451C40.0005 41.3779 39.7839 41.1612 39.5166 41.1612H3.5542C3.28696 41.1612 3.07031 41.3779 3.07031 41.6451Z" fill="#706DE2"/>
<path d="M0 25.886L0 30.3765C0 30.6758 0.242641 30.9185 0.541954 30.9185H15.2715C15.5708 30.9185 15.8134 30.6758 15.8134 30.3765V25.886C15.8134 25.5867 15.5708 25.3441 15.2715 25.3441H0.541954C0.242641 25.3441 0 25.5867 0 25.886Z" fill="#706DE2"/>
<path d="M0 27.5929L0 34.6345C0 35.0022 0.298102 35.3003 0.665828 35.3003H4.90855C5.27627 35.3003 5.57437 35.0022 5.57437 34.6345L5.57437 27.5929C5.57437 27.2252 5.27627 26.9271 4.90855 26.9271H0.665828C0.298102 26.9271 0 27.2252 0 27.5929Z" fill="#706DE2"/>
<path d="M11.0016 30.6549C9.01964 35.5945 5.48921 40.4256 0.340656 42.934C0.135488 43.0347 0 43.267 0 43.5302V47.889C0 48.2336 0.321301 48.4465 0.572922 48.2723C6.81699 43.9328 10.4636 42.7095 15.7979 30.6395C15.8444 30.5311 15.7786 30.4033 15.6779 30.4033H11.3423C11.1952 30.4033 11.0636 30.504 11.0016 30.6588V30.6549Z" fill="#706DE2"/>
</g>
<defs>
<clipPath id="clip0_627_2877">
<rect width="40" height="53.8701" fill="white"/>
</clipPath>
</defs>
</svg>
