<?xml version="1.0" encoding="UTF-8"?>
<svg id="Layer_2" data-name="Layer 2" xmlns="http://www.w3.org/2000/svg" xmlns:xlink="http://www.w3.org/1999/xlink" viewBox="0 0 402 848">
  <defs>
    <style>
      .cls-1 {
        fill: url(#linear-gradient);
      }

      .cls-2 {
        fill: #ed8795;
      }

      .cls-3 {
        fill: #928786;
      }

      .cls-4 {
        fill: #272124;
      }

      .cls-5 {
        fill: #4e4247;
      }

      .cls-6 {
        fill: none;
        stroke: #000;
        stroke-miterlimit: 10;
        stroke-width: .75px;
      }

      .cls-7 {
        fill: url(#linear-gradient-8);
      }

      .cls-8 {
        fill: url(#linear-gradient-9);
      }

      .cls-9 {
        fill: url(#linear-gradient-3);
      }

      .cls-10 {
        fill: url(#linear-gradient-4);
      }

      .cls-11 {
        fill: url(#linear-gradient-2);
      }

      .cls-12 {
        fill: url(#linear-gradient-6);
      }

      .cls-13 {
        fill: url(#linear-gradient-7);
      }

      .cls-14 {
        fill: url(#linear-gradient-5);
      }

      .cls-15 {
        fill: url(#linear-gradient-10);
      }

      .cls-16 {
        fill: #db626f;
        opacity: .5;
      }
    </style>
    <linearGradient id="linear-gradient" x1="201" y1="420" x2="30" y2="420" gradientUnits="userSpaceOnUse">
      <stop offset="0" stop-color="#ed8795" stop-opacity="0"/>
      <stop offset="1" stop-color="#4e4247" stop-opacity=".5"/>
    </linearGradient>
    <linearGradient id="linear-gradient-2" x1="201" x2="372" xlink:href="#linear-gradient"/>
    <linearGradient id="linear-gradient-3" x1="-2233.7234" y1="-2023.99546" x2="-2063.7234" y2="-2023.99546" gradientTransform="translate(2349.7234 2108.99546)" xlink:href="#linear-gradient"/>
    <linearGradient id="linear-gradient-4" x1="2196.19816" y1="-2286.7671" x2="2366.19816" y2="-2286.7671" gradientTransform="translate(-2080.19816 3041.7671)" xlink:href="#linear-gradient"/>
    <linearGradient id="linear-gradient-5" x1="2332.19214" y1="-2137.83296" x2="2502.19214" y2="-2137.83296" gradientTransform="translate(-2030.19214 2892.83296)" gradientUnits="userSpaceOnUse">
      <stop offset="0" stop-color="#4e4247" stop-opacity="0"/>
      <stop offset="1" stop-color="#000" stop-opacity=".35"/>
    </linearGradient>
    <linearGradient id="linear-gradient-6" x1="-2233.7234" y1="-1837.99546" x2="-2063.7234" y2="-1837.99546" gradientTransform="translate(2535.7234 1922.99546)" xlink:href="#linear-gradient-5"/>
    <linearGradient id="linear-gradient-7" y1="-1765.83296" y2="-1765.83296" gradientTransform="translate(-2402.19214 2520.83296)" xlink:href="#linear-gradient-5"/>
    <linearGradient id="linear-gradient-8" x1="-2233.7234" y1="-2209.99546" x2="-2063.7234" y2="-2209.99546" gradientTransform="translate(2163.7234 2294.99546)" xlink:href="#linear-gradient-5"/>
    <linearGradient id="linear-gradient-9" x1="201" y1="844" x2="402" y2="844" gradientUnits="userSpaceOnUse">
      <stop offset="0" stop-color="#4e4247" stop-opacity="0"/>
      <stop offset="1" stop-color="#000" stop-opacity=".5"/>
    </linearGradient>
    <linearGradient id="linear-gradient-10" x1="161.77459" y1="-4678.69395" x2="362.77459" y2="-4678.69395" gradientTransform="translate(-161.77459 5522.69395)" xlink:href="#linear-gradient-9"/>
  </defs>
  <g id="background_components" data-name="background components">
    <g>
      <g>
        <g>
          <rect class="cls-2" x="30" width="342" height="840"/>
          <polygon class="cls-16" points="30 120 201 180 372 120 372 180 201 240 30 180 30 120"/>
          <polygon class="cls-16" points="30 0 201 60 372 0 372 60 201 120 30 60 30 0"/>
          <polygon class="cls-16" points="30 240 201 300 372 240 372 300 201 360 30 300 30 240"/>
          <polygon class="cls-16" points="30 360 201 420 372 360 372 420 201 480 30 420 30 360"/>
          <polygon class="cls-16" points="30 480 201 540 372 480 372 540 201 600 30 540 30 480"/>
          <polygon class="cls-16" points="30 600 201 660 372 600 372 660 201 720 30 660 30 600"/>
          <polygon class="cls-16" points="30 720 201 780 372 720 372 780 201 840 30 780 30 720"/>
        </g>
        <g>
          <rect class="cls-1" x="30" width="171" height="840"/>
          <rect class="cls-11" x="201" width="171" height="840"/>
          <rect class="cls-9" x="116" y="-86" width="170" height="342" transform="translate(116 286) rotate(-90)"/>
          <rect class="cls-10" x="116" y="584" width="170" height="342" transform="translate(956 554) rotate(90)"/>
        </g>
        <g>
          <rect class="cls-5" x="372" width="30" height="840"/>
          <circle class="cls-3" cx="387" cy="15" r="2.5"/>
          <circle class="cls-3" cx="387" cy="105" r="2.5"/>
          <circle class="cls-3" cx="387" cy="195" r="2.5"/>
          <circle class="cls-3" cx="387" cy="285" r="2.5"/>
          <circle class="cls-3" cx="387" cy="375" r="2.5"/>
          <circle class="cls-3" cx="387" cy="465" r="2.5"/>
          <circle class="cls-3" cx="387" cy="555" r="2.5"/>
          <circle class="cls-3" cx="387" cy="645" r="2.5"/>
          <circle class="cls-3" cx="387" cy="735" r="2.5"/>
          <circle class="cls-3" cx="387" cy="825" r="2.5"/>
          <rect class="cls-14" x="302" y="740" width="170" height="30" transform="translate(1142 368) rotate(90)"/>
          <rect class="cls-12" x="302" y="70" width="170" height="30" transform="translate(302 472) rotate(-90)"/>
        </g>
        <g>
          <rect class="cls-5" x="0" width="30" height="840"/>
          <circle class="cls-3" cx="15" cy="15" r="2.5"/>
          <circle class="cls-3" cx="15" cy="105" r="2.5"/>
          <circle class="cls-3" cx="15" cy="195" r="2.5"/>
          <circle class="cls-3" cx="15" cy="285" r="2.5"/>
          <circle class="cls-3" cx="15" cy="375" r="2.5"/>
          <circle class="cls-3" cx="15" cy="465" r="2.5"/>
          <circle class="cls-3" cx="15" cy="555" r="2.5"/>
          <circle class="cls-3" cx="15" cy="645" r="2.5"/>
          <circle class="cls-3" cx="15" cy="735" r="2.5"/>
          <circle class="cls-3" cx="15" cy="825" r="2.5"/>
          <rect class="cls-13" x="-70" y="740" width="170" height="30" transform="translate(770 740) rotate(90)"/>
          <rect class="cls-7" x="-70" y="70" width="170" height="30" transform="translate(-70 100) rotate(-90)"/>
        </g>
        <line class="cls-6" x1="372.11549" x2="372.11549" y2="840"/>
        <line class="cls-6" x1="30" x2="30" y2="840"/>
      </g>
      <g>
        <rect class="cls-4" x="0" y="840" width="402" height="8"/>
        <g>
          <rect class="cls-8" x="201" y="840" width="201" height="8"/>
          <rect class="cls-15" y="840" width="201" height="8" transform="translate(201 1688) rotate(180)"/>
        </g>
      </g>
    </g>
  </g>
</svg>