<?xml version="1.0" encoding="UTF-8"?>
<svg id="Layer_2" data-name="Layer 2" xmlns="http://www.w3.org/2000/svg" viewBox="0 0 290.18794 104.51087">
  <defs>
    <style>
      .cls-1 {
        fill: #f5eaee;
      }

      .cls-2 {
        fill: #c70032;
      }

      .cls-3 {
        fill: #338000;
      }

      .cls-4 {
        fill: none;
        stroke: #000;
        stroke-linejoin: bevel;
        stroke-width: 2px;
      }
    </style>
  </defs>
  <g id="Layer_8" data-name="Layer 8">
    <g>
      <g>
        <path class="cls-3" d="m135.77855,87.96056c-4.82997.35996-9.47386.57226-13.8224.60852-.06859.01214-.13241.04996-.21413.03789-1.57944.05865-3.11544.06541-4.63556.06073-1.20453.38093-2.43782.74926-3.74421,1.10421-5.9636,1.69124-12.89406,3.20895-20.62189,4.21433-8.1576,1.07258-15.54993,1.32934-21.93498,1.18726-.1551.07165-.34753.13223-.52683.21701-1.48266.60676-3.51841,1.38213-5.86661,2.23931l-.14554.02575c-7.73967,2.83601-18.79896,6.32996-25.62254,5.80591-1.36555-.12929-5.13532-.41628-5.93793-2.45605-.52498-1.3203.67967-2.24901,1.26978-4.45565.00956-.0459.02618-.10189.0428-.15789,1.08166-4.36952-2.22093-6.16122-1.89296-10.54768-.00451-.02551.0121-.0815.00452-.12437.2806-3.25624,2.4495-7.02303,5.53112-8.17777,2.98346-1.11106,4.85423.92516,9.51057,1.08179l.05144-.0091c.26589.006.55619-.00116.85658-.00126,3.14112-.07017,5.67449-.9778,7.35008-1.74228,2.17406-1.24172,5.27875-2.81569,9.15231-4.13709l.02572-.00455c4.09996-1.44104,9.06038-2.61037,14.75751-2.91178.84899-.04413,1.64802-.07079,2.45337-.06299,5.74409-.03606,10.58978.89082,14.16002,1.84909,1.5055-1.02616,3.86059-2.494,6.9638-3.92645,2.73582-1.26133,5.34102-2.16399,7.91531-2.84035,4.07385-1.03897,8.15041-1.51297,12.79543-2.06988,4.15372-.48765,8.29883-.974,13.93767-.65544,3.40224.15751,6.33646.56582,8.63734.98896l.02572-.00455c.3597.08645.66365.15645.99308.22173.08069-.09364.19292-.15771.29626-.27326.1334-.09434.27792-.2258.42413-.34893.17729-.1461.36161-.3025.58481-.43904,3.11106-2.48494,8.71653-5.9502,15.89476-6.01899,2.68817-.03401,6.27423-.08566,9.30913,2.38938.94304.78719,1.77791,1.7613,2.38203,2.82929.12765.17172.21373.35963.31566.5359,1.66171,3.15085,1.94423,7.09351.79951,10.30835-.05292.15062-.11672.33853-.18675.49239-.02925.08454-.04739.13196-.08496.21818-.62236,1.42606-1.46071,2.52847-2.48672,3.46978-.63597.59841-1.31685,1.14287-2.07661,1.69245-.56667.39162-1.18019.81828-1.83637,1.25249-3.10534,2.06879-8.46174,4.99527-16.32016,6.26204-5.68207.93494-11.87319,1.7389-18.48328,2.2726Z"/>
        <g>
          <path class="cls-1" d="m32.12608,85.84044c-.32448,4.3891,2.97773,6.17852,1.89238,10.55588-.01545.05113-.0308.10284-.04614.15455,5.27606,1.0488,11.8336,1.87085,19.36024,1.81161,3.93398-.03592,7.5844-.28993,10.93572-.71148l.14252-.02522c2.3448-.85585,4.38512-1.63273,5.86856-2.23758-2.64087-.26699-4.80365-.59408-6.34739-.88373-9.75616-1.74913-14.48969-4.43541-28.05313-7.78601-1.43339-.35817-2.70812-.64703-3.75275-.87802Z"/>
          <path class="cls-1" d="m121.74202,88.60697c-1.57944.05865-3.11544.06541-4.63556.06073-1.20453.38093-2.43782.74926-3.74421,1.10421-1.54183.12252-3.16381.24175-4.87238.2702-7.06096.18066-12.17419-.61046-20.93403-1.99309-9.29174-1.49166-16.27396-3.1621-22.19705-4.58736-7.36407-1.77971-13.56444-3.47399-18.1356-4.84691.26589.006.55619-.00116.85658-.00126,3.14112-.07017,5.67449-.9778,7.35008-1.74228,2.17406-1.24172,5.27875-2.81569,9.15231-4.13709l.02572-.00455c3.60957,1.87885,8.37918,4.07345,14.10264,6.11694,3.96677,1.40029,7.7159,2.52121,12.97989,3.81573,7.06471,1.73564,17.41472,3.96736,30.85669,5.80226l-.59094.10457c-.06859.01214-.13241.04996-.21413.03789Z"/>
          <path class="cls-1" d="m81.82191,69.75389c16.39813,4.70952,30.54083,7.73775,41.46333,9.72023,18.50815,3.35749,27.70764,3.76043,37.76745,1.83334,4.37758-.84811,8.21295-1.99162,11.3634-3.13642.75883-.55012,1.44689-1.08831,2.07493-1.68877-1.01316.08189-2.14997.16057-3.36167.22801-3.15152.16632-9.48523.33233-21.73964-1.70842-2.89716-.466-10.6484-1.81111-21.06034-4.64273-6.8932-1.88829-12.7921-3.83004-17.47227-5.52261-2.57207.6756-5.17825,1.57711-7.91502,2.84467-3.09953,1.42914-5.45822,2.89867-6.96522,3.92413-3.57161-.95847-8.41036-1.88928-14.15493-1.85143Z"/>
          <path class="cls-1" d="m148.55275,62.2529c-.22013.13694-.41289.29353-.582.44534-.14946.12443-.29833.24876-.42824.34524,5.38319,1.51918,10.88719,3.16396,16.53449,4.92976,4.48312,1.40958,8.89967,2.85485,13.17312,4.32543,1.14448-3.21259.86331-7.15156-.79594-10.30896-.10536-.17673-.18649-.35835-.31444-.53108-2.85396-.49874-5.99931-.84793-9.41913-.95199-7.11433-.23419-13.30192.61576-18.16785,1.74625Z"/>
        </g>
        <path class="cls-4" d="m47.1725,78.62639c-4.65264-.15596-6.53085-2.19737-9.51503-1.082-3.07498,1.15594-5.24788,4.91795-5.52855,8.17366.0083.04693-.00704.09863-.00284.12239-.32448,4.3891,2.97773,6.17852,1.89238,10.55588-.01545.05113-.0308.10284-.04614.15455-.58779,2.20891-1.79499,3.13232-1.26649,4.4578.80074,2.03669,4.57138,2.32364,5.93956,2.44838,6.82382.53056,17.87824-2.96762,25.62289-5.80605l.14252-.02522c2.3448-.85585,4.38512-1.63273,5.86856-2.23758.18162-.08113.36743-.13851.5253-.21543,6.38767.1423,13.78205-.114,21.93712-1.19021,7.72762-.99997,14.65351-2.51948,20.61922-4.21144,1.3075-.35325,2.54001-.71832,3.74457-1.10295,1.51774.00089,3.05855-.00289,4.63856-.06201.07604.01104.14252-.02522.21377-.03783,4.34991-.03543,8.98758-.24427,13.81744-.60959,6.61045-.53343,12.80693-1.33655,18.49063-2.2688,7.85186-1.26692,13.20714-4.19697,16.31625-6.26412.65736-.43477,1.26732-.86056,1.83387-1.25477.75883-.55012,1.44689-1.08831,2.07493-1.68877,1.03263-.94092,1.86527-2.04302,2.49302-3.47571.035-.07908.04977-.13069.08466-.21035.06979-.15933.13538-.34241.18142-.49753,1.14448-3.21259.86331-7.15156-.79594-10.30896-.10536-.17673-.18649-.35835-.31444-.53108-.60544-1.0681-1.43932-2.04618-2.38571-2.83288-3.03193-2.47356-6.62087-2.42581-9.307-2.39143-7.18207.07176-12.78535,3.53502-15.89427,6.01857-.22013.13694-.41289.29353-.582.44534-.14946.12443-.29833.24876-.42824.34524-.10195.11603-.21231.18455-.29471.27262-.32922-.06423-.63527-.13255-.99244-.21633l-.02375.0042c-2.30187-.42436-5.23823-.83503-8.64271-.99079-5.63715-.3241-9.78434.16479-13.93152.65368-4.64951.55388-8.72544,1.03016-12.80028,2.06967-2.57207.6756-5.17825,1.57711-7.91502,2.84467-3.09953,1.42914-5.45822,2.89867-6.96522,3.92413-3.57161-.95847-8.41036-1.88928-14.15493-1.85143-.8079-.00402-1.61207.0164-2.45964.06839-5.69787.29845-10.6546,1.46952-14.75684,2.90462l-.02375.0042c-3.87721,1.32239-6.97586,2.89836-9.15429,4.14061-1.67562.76134-4.20624,1.67457-7.35139,1.74178-.29344.00293-.5863.00576-.85598.00449l-.04751.00841Z"/>
      </g>
      <g>
        <path class="cls-2" d="m102.18735,44.85182c-4.65424-1.34024-9.0827-2.7543-13.17304-4.23086-.06853-.01244-.14152.00085-.21395-.03885-1.50146-.49365-2.94416-1.02087-4.36799-1.5533-1.26185-.06121-2.54628-.14423-3.89462-.26518-6.17972-.48565-13.20582-1.46987-20.80166-3.21152-8.02219-1.82791-15.04338-4.155-20.98147-6.50622-.17033.01332-.37182.00328-.56941.02049-1.60111.05395-3.77942.07388-6.27916.06199l-.14542-.02641c-8.24285-.02911-19.82716-.5944-26.04377-3.45612-1.23561-.59559-4.67093-2.17421-4.71501-4.36576-.03366-1.42044,1.41858-1.87286,2.73847-3.7371.02491-.03972.05994-.08645.09498-.13319,2.53214-3.72169.05759-6.54903,1.88886-10.54842.00463-.02549.03966-.07222.04744-.11506C7.16582,3.79032,10.50813,1.01151,13.79897.99913c3.18362-.00551,4.23057,2.55375,8.54255,4.31811l.0514.00933c.24725.09799.52196.19212.80368.29637,2.96989,1.02533,5.66079,1.05423,7.49759.91941,2.47001-.4092,5.92812-.80667,10.01948-.70023l.0257.00467c4.34522.07289,9.40294.69948,14.85,2.39584.81145.25353,1.56999.50609,2.32248.79316,5.39892,1.96151,9.62089,4.51392,12.63594,6.65271,1.7682-.43929,4.48652-.99765,7.89408-1.26293,3.0036-.23245,5.76013-.17393,8.40906.08606,4.18107.44086,8.16843,1.41245,12.71765,2.50376,4.06446.98559,8.12039,1.96941,13.29743,4.2269,3.13566,1.32953,5.74533,2.73168,7.75594,3.92772l.0257.00467c.30727.20601.56798.37724.85422.55288.10819-.05978.23569-.08087.37274-.15333.15787-.04213.33905-.1152.51893-.17988.21701-.07542.44417-.15805.7009-.20856,3.78052-1.24952,10.24066-2.55182,16.99578-.12282,2.53259.90189,5.91328,2.09915,7.89944,5.47429.61087,1.06575,1.05538,2.26921,1.25089,3.48055.06005.20537.0755.41148.10985.61218.46372,3.53186-.6409,7.32715-2.83109,9.94416-.10195.12286-.22705.27691-.34617.39686-.05679.06911-.09027.10728-.15546.17508-1.07897,1.12107-2.24806,1.86361-3.53716,2.3899-.80423.34023-1.63184.61427-2.53521.86571-.66742.17039-1.39095.35736-2.1571.53659-3.6306.86127-9.67002,1.74485-17.47911.20297-5.65301-1.09706-11.73787-2.49377-18.12173-4.28944Z"/>
        <g>
          <path class="cls-1" d="m5.72595,6.85803c-1.82891,4.00307.64608,6.82815-1.89225,10.5559-.03225.04258-.0646.08574-.09695.12889,4.58319,2.81624,10.44683,5.86498,17.52535,8.42395,3.70148,1.33286,7.21282,2.36272,10.50188,3.13156l.1424.02586c2.49608.01195,4.67921-.0078,6.28038-.05969-2.38368-1.16772-4.29816-2.22572-5.64515-3.03359-8.54103-5.0292-12.04667-9.19249-23.6016-17.04596-1.21971-.83378-2.31473-1.54746-3.21407-2.12694Z"/>
          <path class="cls-1" d="m88.80035,40.58211c-1.50146-.49365-2.94416-1.02087-4.36799-1.5533-1.26185-.06121-2.54628-.14423-3.89462-.26518-1.48837-.4207-3.05077-.87231-4.66283-1.43914-6.68402-2.28335-11.20403-4.80139-18.93809-9.14082-8.19497-4.62644-14.16214-8.61827-19.2213-12.01227-6.28728-4.22694-11.513-7.96953-15.3226-10.84484.24725.09799.52196.19212.80368.29637,2.96989,1.02533,5.66079,1.05423,7.49759.91941,2.47001-.4092,5.92812-.80667,10.01948-.70023l.0257.00467c2.73215,3.0157,6.44241,6.73046,11.0996,10.63486,3.23334,2.69102,6.35963,5.04447,10.84614,8.08694,6.02187,4.08162,14.95214,9.76964,26.91967,16.15961l-.59047-.10722c-.06853-.01244-.14152.00085-.21395-.03885Z"/>
          <path class="cls-1" d="m57.91511,9.03602c13.74105,10.11246,25.95115,17.86486,35.50483,23.51802,16.18933,9.57758,24.67599,13.15105,34.77877,14.83844,4.39958.72534,8.39335.98533,11.74527,1.00619.90267-.25227,1.73483-.51793,2.53235-.86284-.97852-.27515-2.07187-.59626-3.23153-.95393-3.01304-.93877-9.01001-2.98325-19.79243-9.15372-2.55487-1.44337-9.35618-5.39726-18.13614-11.66934-5.80801-4.16519-10.66508-8.03512-14.46586-11.24804-2.64658-.25993-5.40363-.31987-8.4103-.08191-3.40296.26347-6.12524.82215-7.89461,1.26026-3.01626-2.13945-7.23035-4.69313-12.63035-6.65313Z"/>
          <path class="cls-1" d="m123.09613,25.18238c-.254.05194-.48915.13182-.70046.21544-.18337.06477-.36617.12964-.5215.17498,4.52026,3.29453,9.11017,6.74881,13.79241,10.36635,3.71431,2.87911,7.35378,5.76854,10.85028,8.63202,2.18917-2.61498,3.29379-6.40634,2.83464-9.94349-.03741-.20232-.0504-.40081-.11038-.60723-2.50299-1.45906-5.33117-2.87911-8.5019-4.16462-6.58996-2.6909-12.68748-4.04327-17.6431-4.67344Z"/>
        </g>
        <path class="cls-4" d="m22.34135,5.31987c-4.30873-1.76244-5.36087-4.32915-8.54666-4.31985-3.28504.0158-6.62943,2.78875-8.02356,5.74422-.00851.04689-.04087.09005-.04518.11378-1.82891,4.00307.64608,6.82815-1.89225,10.5559-.03225.04258-.0646.08574-.09695.12889-1.31849,1.86718-2.77129,2.31374-2.73613,3.74027.04339,2.18802,3.47955,3.7669,4.7192,4.35914,6.21459,2.86791,17.79579,3.42753,26.04416,3.45611l.1424.02586c2.49608.01195,4.67921-.0078,6.28038-.05969.19849-.01299.39267-.00225.56742-.01955,5.94047,2.35232,12.96342,4.68056,20.9845,6.50419,7.59377,1.74663,14.6162,2.72759,20.79815,3.2133,1.34879.12293,2.63136.20873,3.89452.26648,1.42292.52805,2.86909,1.05973,4.37125,1.55314.06747.03677.1424.02586.2136.03879,4.09134,1.4778,8.51276,2.89296,13.16876,4.22812,6.3841,1.79606,12.4737,3.19542,18.1273,4.29556,7.803,1.53947,13.84261.65214,17.47618-.20627.76745-.17935,1.48733-.36675,2.15554-.53961.90267-.25227,1.73483-.51793,2.53235-.86284,1.29517-.52362,2.45879-1.26786,3.54513-2.39327.06029-.062.09206-.10527.15246-.16785.12079-.12516.24589-.27406.34295-.40353,2.18917-2.61498,3.29379-6.40634,2.83464-9.94349-.03741-.20232-.0504-.40081-.11038-.60723-.19672-1.21189-.63891-2.41873-1.2531-3.48519-1.98389-3.37273-5.36592-4.57463-7.89673-5.47547-6.75976-2.42754-13.21714-1.12636-16.99518.1226-.254.05194-.48915.13182-.70046.21544-.18337.06477-.36617.12964-.5215.17498-.13591.07339-.26319.09931-.37106.15327-.28641-.17459-.54966-.34497-.8555-.5476l-.02373-.00431c-2.01112-1.19754-4.62197-2.60263-7.76034-3.93131-5.17353-2.26209-9.23229-3.24425-13.29105-4.22641-4.55238-1.09571-8.53994-2.06494-12.72213-2.50564-2.64658-.25993-5.40363-.31987-8.4103-.08191-3.40296.26347-6.12524.82215-7.89461,1.26026-3.01626-2.13945-7.23035-4.69313-12.63035-6.65313-.75619-.28441-1.51738-.54461-2.33024-.79027-5.44672-1.6994-10.50159-2.32308-14.84688-2.40233l-.02373-.00431c-4.09513-.10678-7.54826.29467-10.02256.70285-1.83574.13187-4.526.10917-7.49865-.92033-.27618-.09918-.55179-.19826-.80424-.29313l-.04747-.00862Z"/>
      </g>
      <g>
        <path class="cls-2" d="m197.44771,14.62367c4.15077,2.49585,8.06436,5.00477,11.63515,7.48681.063.02971.13695.0357.19668.09274,1.32322.86437,2.58101,1.74602,3.81924,2.62784,1.20332.38475,2.42283.7964,3.69429,1.26118,5.84511,2.06385,12.37928,4.82779,19.26845,8.47053,7.27882,3.8361,13.46172,7.89616,18.59199,11.70004.168.03109.36007.09278.55541.12714,1.5608.36104,3.67049.90389,6.0825,1.56042l.13368.06304c7.95618,2.15516,19.00228,5.69058,24.26991,10.05955,1.04007.89426,3.9517,3.30589,3.42876,5.43459-.33402,1.38102-1.85382,1.44338-3.61006,2.90389-.03432.03195-.08022.06806-.12613.10417-3.40675,2.94224-1.74559,6.31237-4.54686,9.70376-.01105.02343-.05696.05954-.07552.09892-2.10981,2.49611-6.05598,4.31834-9.23857,3.48111-3.07723-.81619-3.42831-3.55895-7.13897-6.37623l-.04725-.02228c-.21359-.15847-.4547-.3203-.69998-.49371-2.60473-1.75697-5.19703-2.47927-7.00642-2.82299-2.49195-.24204-5.93551-.75037-9.86084-1.90896l-.02363-.01114c-4.17925-1.19169-8.90399-3.10218-13.72884-6.14668-.71855-.45434-1.38622-.89408-2.03915-1.3656-4.70991-3.28824-8.13026-6.84367-10.49129-9.68804-1.82168-.03186-4.59201-.19387-7.95262-.81687-2.96186-.55049-5.60993-1.31833-8.10206-2.25306-3.92571-1.50483-7.52731-3.47244-11.64086-5.7007-3.67248-2.00102-7.33717-3.99814-11.75635-7.51508-2.68639-2.09365-4.84586-4.12173-6.47974-5.79608l-.02363-.01114c-.2437-.27833-.4514-.51103-.68262-.75459-.11996.02984-.24858.01731-.39968.05195-.16339-.00004-.35729.02381-.54777.03988-.22912.01687-.46991.03808-.73098.02063-3.97492.23165-10.55232-.17716-16.45187-4.26702-2.21409-1.52487-5.17134-3.55395-6.21929-7.32731-.31517-1.18729-.43407-2.4647-.31039-3.68546-.00502-.21391.03324-.41703.05184-.6198.46336-3.53191,2.50994-6.91362,5.30125-8.87683.1302-.09239.29081-.20894.43685-.29409.07271-.05212.1149-.08035.19538-.12904,1.33172-.80468,2.65282-1.2204,4.03407-1.39622.86479-.12118,1.73509-.17238,2.67274-.18219.68879.0076,1.43606.01367,2.22251.03821,3.72989.10476,9.79277.80955,16.93952,4.31431,5.17847,2.51864,10.69684,5.43821,16.40113,8.8204Z"/>
        <g>
          <path class="cls-1" d="m280.8381,76.22214c2.79995-3.39555,1.13778-6.76362,4.55206-9.71012.04214-.03282.08454-.06616.12693-.09951-3.70125-3.90353-8.57959-8.3621-14.75805-12.66099-3.23218-2.24287-6.35886-4.14393-9.33812-5.73547l-.13091-.06173c-2.40846-.65565-4.52275-1.19991-6.08309-1.56296,2.00163,1.74327,3.57825,3.25946,4.67116,4.38755,6.95401,7.06285,9.2666,11.98975,18.40365,22.55894.96325,1.12028,1.83702,2.09235,2.55637,2.88428Z"/>
          <path class="cls-1" d="m209.27955,22.20323c1.32322.86437,2.58101,1.74602,3.81924,2.62784,1.20332.38475,2.42283.7964,3.69429,1.26118,1.32941.79052,2.72235,1.63001,4.13355,2.59362,5.86844,3.9308,9.5856,7.52992,15.93797,13.71813,6.7236,6.58443,11.4586,11.98087,15.47062,16.56542,4.98361,5.70619,9.06659,10.67051,12.0052,14.43148-.21359-.15847-.4547-.3203-.69998-.49371-2.60473-1.75697-5.19703-2.47927-7.00642-2.82299-2.49195-.24204-5.93551-.75037-9.86084-1.90896l-.02363-.01114c-1.86143-3.61859-4.48746-8.16495-7.97942-13.13888-2.42943-3.43423-4.84254-6.5147-8.39201-10.61185-4.76468-5.4973-11.92475-13.29711-21.83806-22.55882l.5428.25595c.063.02971.13695.0357.19668.09274Z"/>
          <path class="cls-1" d="m230.97847,60.65073c-10.6662-13.31579-20.46232-23.9564-28.23366-31.88339-13.16959-13.43079-20.44671-19.07318-29.77192-23.3104-4.06341-1.83607-7.85483-3.11782-11.08785-4.00292-.9372.01079-1.80973.05273-2.66924.18016.87438.51833,1.84784,1.1107,2.87593,1.75551,2.66875,1.68448,7.93505,5.2072,16.76004,13.95106,2.09589,2.05376,7.64658,7.62879,14.5107,15.95407,4.5365,5.52285,8.23045,10.51506,11.07344,14.59995,2.48988.93406,5.13808,1.70341,8.10433,2.24937,3.3557.62357,6.12994.78629,7.95244.81959,2.36203,2.84533,5.77444,6.39995,10.48579,9.68701Z"/>
          <path class="cls-1" d="m172.17144,28.23155c.2588.01536.5066-.00114.73233-.02739.19388-.01525.38722-.03076.54899-.03449-3.51703-4.34939-7.06013-8.87108-10.65031-13.57434-2.84557-3.74006-5.61619-7.47079-8.25536-11.13954-2.78981,1.96151-4.83536,5.33943-5.30451,8.87527-.01607.20512-.05474.40024-.05005.61515,2.04172,2.05553,4.40768,4.15728,7.1393,6.21745,5.6724,4.30028,11.21445,7.18028,15.83962,9.06789Z"/>
        </g>
        <path class="cls-4" d="m264.38851,73.42067c3.70802,2.81459,4.06219,5.56588,7.14249,6.37897,3.17786.83242,7.12454-.98361,9.23409-3.47924.02033-.0431.06272-.07645.07301-.09827,2.79995-3.39555,1.13778-6.76362,4.55206-9.71012.04214-.03282.08454-.06616.12693-.09951,1.75566-1.46371,3.27448-1.52027,3.60862-2.90755.52269-2.12511-2.38968-4.5372-3.43452-5.42927-5.26407-4.37442-16.30864-7.90357-24.27028-10.05964l-.13091-.06173c-2.40846-.65565-4.52275-1.19991-6.08309-1.56296-.19512-.03867-.37995-.09915-.55325-.12753-5.13228-3.80557-11.31659-7.8672-18.59544-11.69887-6.88588-3.64702-13.41735-6.40686-19.2646-8.47134-1.27138-.46682-2.48839-.88067-3.69386-1.26242-1.23847-.87735-2.49847-1.7642-3.82243-2.62852-.0557-.05293-.13091-.06173-.19636-.09259-3.57144-2.4835-7.47794-4.99166-11.63172-7.48307-5.70443-3.38262-11.22669-6.30598-16.40493-8.82775-7.14148-3.50086-13.20551-4.20207-16.93754-4.31036-.78774-.02476-1.5316-.02947-2.22178-.0349-.9372.01079-1.80973.05273-2.66924.18016-1.38643.17168-2.70269.59044-4.04264,1.39742-.07425.04435-.11611.07794-.19061.12282-.149.08975-.30829.20133-.43547.30137-2.78981,1.96151-4.83536,5.33943-5.30451,8.87527-.01607.20512-.05474.40024-.05005.61515-.12267,1.22161-.00687,2.50169.31132,3.69051,1.04638,3.77044,4.00373,5.80436,6.21636,7.32775,5.90441,4.08966,12.47886,4.49883,16.45123,4.26708.2588.01536.5066-.00114.73233-.02739.19388-.01525.38722-.03076.54899-.03449.15024-.03583.2799-.02803.39804-.05233.23166.24258.44203.47513.68522.74981l.02182.01029c1.63399,1.67594,3.79384,3.70717,6.48307,5.80069,4.4146,3.52049,8.08245,5.51673,11.75031,7.51297,4.11546,2.23332,7.71786,4.1987,11.64469,5.70367,2.48988.93406,5.13808,1.70341,8.10433,2.24937,3.3557.62357,6.12994.78629,7.95244.81959,2.36203,2.84533,5.77444,6.39995,10.48579,9.68701.65719.46991,1.32545.91772,2.04739,1.36481,4.82374,3.04734,9.54647,4.95429,13.72415,6.15214l.02182.01029c3.92888,1.15989,7.36866,1.6631,9.86449,1.90723,1.8076.3463,4.40089,1.06244,7.00721,2.82415.24124.16709.48194.33393.70136.49073l.04364.02058Z"/>
      </g>
    </g>
  </g>
</svg>