<?xml version="1.0" encoding="UTF-8"?>
<svg id="Layer_2" data-name="Layer 2" xmlns="http://www.w3.org/2000/svg" viewBox="0 0 259.96175 114.51986">
  <defs>
    <style>
      .cls-1 {
        fill: #805f34;
      }

      .cls-2 {
        fill: #734e25;
      }

      .cls-3 {
        fill: #4c2e18;
      }

      .cls-4 {
        fill: #623c18;
      }

      .cls-5 {
        fill: #623316;
      }

      .cls-6 {
        stroke: #4c2e18;
        stroke-width: .75px;
      }

      .cls-6, .cls-7, .cls-8 {
        fill: none;
        stroke-miterlimit: 10;
      }

      .cls-7 {
        stroke: #000;
        stroke-width: 2px;
      }

      .cls-8 {
        stroke: #623c18;
      }
    </style>
  </defs>
  <g id="Layer_8" data-name="Layer 8">
    <g>
      <g>
        <path class="cls-5" d="m85.54135,44.6623c-2.42657-1.83204-6.27999-1.75167-8.48648.03683-3.36535,2.72778-1.51869,8.30967-4.6678,9.62602-1.304.54508-2.64524.01632-2.89141-.08073-2.10854-.83129-2.28884-3.03657-4.83537-7.48638-2.44507-4.27252-3.58295-4.51827-4.07656-4.55202-1.22894-.08405-2.61537.86205-3.0686,2.06504-.58778,1.56022.68781,2.77298,2.17207,6.23896,1.48391,3.46518,2.41481,5.63897,1.57114,7.45394-.99836,2.14772-4.26282,3.32239-6.8425,2.78087-2.19846-.46149-2.71588-1.92088-6.60038-5.89331-4.08365-4.1761-6.47824-6.56355-8.97948-6.11613-1.64042.29343-3.12818,1.77076-3.43616,3.32565-.41064,2.07334,1.34437,3.94127,4.32044,7.02233,3.58282,3.70925,4.59412,3.52903,6.64863,6.26614,1.3459,1.79306,3.83981,5.11554,2.83177,7.82153-.92426,2.481-4.01865,2.36685-4.27044,4.49499-.20528,1.73503,1.63542,3.63727,3.37655,4.41521,1.90638.85176,2.68771-.09368,4.47922.63337,2.6399,1.07131,4.67573,4.63907,3.85374,6.93111-.66447,1.85276-2.7213,1.55587-3.62131,3.65278-.89778,2.09173-.0329,5.13929,1.50647,5.67111,1.86761.64522,4.43568-2.5136,5.15955-3.40403,1.315-1.61754,1.07296-2.09808,2.14242-3.33115,1.49804-1.72732,4.6196-3.83595,7.1215-2.96855,2.91027,1.00898,3.88099,5.66283,3.69437,8.67247-.21939,3.53813-2,4.30941-1.5527,7.04709.45894,2.809,2.95469,5.79873,5.31838,5.6044,2.38319-.19598,4.32081-3.60324,4.58124-6.5569.43365-4.91886-3.96572-6.52013-3.87154-12.56436.01004-.64327.0704-4.51447,2.04192-5.38244,1.06604-.46932,1.82896.31899,5.30763,1.24709,3.00231.80108,4.53172,1.186,5.91711.42216,1.14326-.63032,1.97085-1.91941,2.13777-3.20825.08416-.64945.04588-2.1473-3.75989-6.79165-2.86162-3.49215-4.1354-3.84707-3.98536-5.01876.31329-2.44717,6.00932-1.99439,7.38996-5.58095.81142-2.10777-.14397-4.89285-1.75365-6.52061-.45527-.46036-1.44544-1.46167-2.94491-1.66589-2.70184-.36795-4.04443,2.26222-5.54157,1.70271-1.53243-.57269-2.48867-4.21147-1.14741-6.52315,1.74175-3.00192,6.26931-1.88986,7.16182-4.41431.62153-1.75802-.97384-3.99537-2.40014-5.07221Z"/>
        <circle class="cls-5" cx="100.80568" cy="90.96826" r="3.99932"/>
        <circle class="cls-5" cx="44.11012" cy="109.88465" r="4.63473"/>
      </g>
      <g>
        <rect class="cls-4" x="1.81338" y="41.73698" width="111.32191" height="33.15972" transform="translate(135.05817 84.48743) rotate(153.22341)"/>
        <polygon class="cls-1" points="114.6362 48.04286 111.45456 46.99535 56.05311 64.70182 16.29885 95.01318 15.25134 98.19481 114.6362 48.04286"/>
        <polygon class="cls-3" points="99.69732 18.43886 98.64981 21.6205 46.68028 60.83015 3.4941 69.63832 .31246 68.59081 99.69732 18.43886"/>
        <rect class="cls-2" x="4.18193" y="44.10553" width="106.58481" height="28.42262" transform="translate(135.05817 84.48743) rotate(153.22341)"/>
        <rect class="cls-6" x="4.18193" y="44.10553" width="106.58481" height="28.42262" transform="translate(135.05817 84.48743) rotate(153.22341)"/>
        <rect class="cls-7" x="1.81338" y="41.73698" width="111.32191" height="33.15972" rx="2.00409" ry="2.00409" transform="translate(135.05817 84.48743) rotate(153.22341)"/>
        <rect class="cls-8" x="7.73475" y="47.65836" width="99.47915" height="21.31696" transform="translate(135.05817 84.48743) rotate(153.22341)"/>
      </g>
      <g>
        <path class="cls-5" d="m218.82941,23.10944c1.7722.59926,4.1928.00049,5.56033-1.48424.89418-.97086.85704-1.79812,1.14815-10.14609.01259-.36121.28002-5.96757,2.37172-8.5475.07299-.09002.1384-.16386.19416-.22515,1.1411-1.25459,3.1484-3.1737,4.47389-2.603,1.17876.50753,1.24683,2.71349,1.29193,4.96638.09879,4.93572-1.23084,9.00165-1.61084,10.11492-1.53295,4.4906-3.03874,6.119-2.13331,7.52385.69009,1.07081,2.24842,1.18519,4.20901,1.32911,1.64003.12039,2.99212-.0636,8.33578-1.29728,2.97973-.6879,4.06968-.98152,5.86825-.88263,1.48005.08138,3.48223.21806,4.19342,1.56041.48574.91692.24621,2.16429-.31826,2.99912-.7789,1.15202-1.96513,1.20585-5.36787,2.07808-4.72166,1.21031-5.49497,1.8072-5.92827,2.22599-.94878.91693-2.23907,2.82235-1.72502,4.46135.5356,1.70774,2.59447,1.74926,7.62275,4.1149,3.42353,1.61066,5.15715,2.45042,6.22711,4.13711,1.39713,2.20237,2.05772,6.05764.07177,7.55621-2.06535,1.55847-6.42355-1.35178-7.41599-2.00985-4.21968-2.79793-5.02484-6.11091-6.58062-5.78735-1.52489.31714-2.85186,3.93682-1.97866,6.95341,1.12896,3.90028,5.03872,3.69265,7.00309,8.1393,1.18855,2.69052,1.37,6.41738-.2751,7.53288-1.56882,1.06374-4.37101-.53694-5.27323-1.05226-5.15624-2.94513-5.87573-8.10009-8.06731-7.86251-1.75196.18993-1.66424,3.5319-4.63769,4.58976-1.89631.67464-3.75234-.03695-4.13972-.18548-3.67449-1.40878-4.36979-5.59333-5.929-5.36601-.85207.12423-1.19555,1.4544-1.97306,3.67196-1.27618,3.63944-2.84079,7.03273-3.8536,8.91827-.95559,1.77903-3.78989,7.0553-7.66899,6.9186-2.2229-.07835-4.29605-1.91673-5.07834-3.94353-1.15991-3.00498.69183-5.97296,1.53945-7.33151,2.3337-3.74043,4.63437-3.16195,6.59686-6.52615,1.72775-2.9618,2.17246-7.22956.36859-8.92066-1.11408-1.04443-2.1675-.24523-5.24974-1.39922-1.8249-.68325-4.13396-1.54777-4.53914-3.32633-.40349-1.77102,1.38064-3.97867,3.01056-5.02508,1.05576-.67783,1.71935-.65209,1.89049-1.20935.32864-1.06996-1.68989-2.5568-4.07653-4.28196-5.49696-3.97338-7.17704-4.99391-9.30165-6.78388-5.23656-4.4118-5.44553-6.14804-5.46198-6.87375-.04435-1.96242,1.15211-3.94981,2.77149-4.92502,3.29257-1.9828,7.94812.45092,10.19156,2.19682,2.90945,2.26423,2.38243,3.85449,5.83222,6.55017.71609.55957,4.81909,3.76558,6.68317,2.54135,1.17552-.77201,1.24911-3.16675,1.33817-6.06715.06161-2.00789-.19634-3.10801.61954-4.02441.62065-.69715,1.74577-1.16603,2.68342-.88788,1.17179.34762,1.25585,1.6262,2.58075,3.79835,1.04306,1.7101,2.13329,3.49739,3.90633,4.09693Z"/>
        <circle class="cls-5" cx="206.65583" cy="7.43819" r="3.81601"/>
        <circle class="cls-5" cx="222.11056" cy="79.93294" r="6.80794"/>
      </g>
      <g>
        <rect class="cls-4" x="122.01326" y="64.57221" width="111.32191" height="33.15972" transform="translate(334.1789 198.02837) rotate(-167.79633)"/>
        <polygon class="cls-1" points="228.5726 109.12328 226.75825 106.30757 172.55293 85.22149 122.58201 83.77689 119.7663 85.59124 228.5726 109.12328"/>
        <polygon class="cls-3" points="235.58214 76.71289 232.76643 78.52724 167.70232 76.31579 128.59019 55.99656 126.77584 53.18085 235.58214 76.71289"/>
        <rect class="cls-2" x="124.38181" y="66.94076" width="106.58481" height="28.42262" transform="translate(334.1789 198.02837) rotate(-167.79633)"/>
        <rect class="cls-6" x="124.38181" y="66.94076" width="106.58481" height="28.42262" transform="translate(334.1789 198.02837) rotate(-167.79633)"/>
        <rect class="cls-7" x="122.01326" y="64.57221" width="111.32191" height="33.15972" rx="2.00409" ry="2.00409" transform="translate(334.1789 198.02837) rotate(-167.79633)"/>
        <rect class="cls-8" x="127.93464" y="70.49359" width="99.47915" height="21.31696" transform="translate(334.1789 198.02837) rotate(-167.79633)"/>
      </g>
      <g>
        <rect class="cls-4" x="149.70092" y="36.97971" width="111.32191" height="33.15972" transform="translate(336.9087 220.10555) rotate(-142.921)"/>
        <polygon class="cls-1" points="239.77221 100.34593 239.3106 97.02825 199.00393 55.09721 154.27672 32.7666 150.95904 33.2282 239.77221 100.34593"/>
        <polygon class="cls-3" points="259.76472 73.89094 256.44704 74.35254 198.34948 44.97735 171.41315 10.0909 170.95155 6.77322 259.76472 73.89094"/>
        <rect class="cls-2" x="152.06947" y="39.34826" width="106.58481" height="28.42262" transform="translate(336.9087 220.10555) rotate(-142.921)"/>
        <rect class="cls-6" x="152.06947" y="39.34826" width="106.58481" height="28.42262" transform="translate(336.9087 220.10555) rotate(-142.921)"/>
        <rect class="cls-7" x="149.70092" y="36.97971" width="111.32191" height="33.15972" rx="2.00409" ry="2.00409" transform="translate(336.9087 220.10555) rotate(-142.921)"/>
        <rect class="cls-8" x="155.6223" y="42.90109" width="99.47915" height="21.31696" transform="translate(336.9087 220.10555) rotate(-142.921)"/>
      </g>
    </g>
  </g>
</svg>