<?xml version="1.0" encoding="UTF-8"?>
<svg xmlns="http://www.w3.org/2000/svg" xmlns:xlink="http://www.w3.org/1999/xlink" viewBox="0 0 213.46185 104.10084">
  <defs>
    <style>
      .cls-1 {
        opacity: .69;
      }

      .cls-1, .cls-2, .cls-3, .cls-4, .cls-5 {
        fill: #fff;
      }

      .cls-1, .cls-6 {
        mix-blend-mode: screen;
      }

      .cls-7 {
        clip-path: url(#clippath);
      }

      .cls-8 {
        opacity: .83;
        stroke-linecap: round;
      }

      .cls-8, .cls-9, .cls-3, .cls-10, .cls-4, .cls-11, .cls-12, .cls-6 {
        stroke-miterlimit: 10;
      }

      .cls-8, .cls-9, .cls-10, .cls-11, .cls-6 {
        stroke-width: 2.61805px;
      }

      .cls-8, .cls-4 {
        stroke: #fff;
      }

      .cls-8, .cls-11, .cls-12, .cls-6 {
        fill: none;
      }

      .cls-9 {
        stroke: #ffa922;
      }

      .cls-9, .cls-13 {
        fill: #ffc135;
      }

      .cls-14, .cls-10 {
        fill: #f70033;
      }

      .cls-15 {
        fill: #ea9200;
      }

      .cls-16 {
        fill: #eb586c;
      }

      .cls-17 {
        fill: #faeda1;
      }

      .cls-3 {
        stroke: #241f20;
      }

      .cls-3, .cls-12 {
        stroke-width: 7.85416px;
      }

      .cls-10, .cls-11 {
        stroke: #f70033;
      }

      .cls-18 {
        mix-blend-mode: multiply;
      }

      .cls-4 {
        stroke-width: .65451px;
      }

      .cls-4, .cls-5 {
        opacity: .91;
      }

      .cls-19 {
        clip-path: url(#clippath-1);
      }

      .cls-20, .cls-21 {
        mix-blend-mode: soft-light;
      }

      .cls-12 {
        mix-blend-mode: color-dodge;
        stroke: #eb586c;
      }

      .cls-6 {
        stroke: #ffb0d0;
      }

      .cls-22 {
        isolation: isolate;
      }

      .cls-23 {
        fill: #560000;
        mix-blend-mode: hard-light;
        opacity: .84;
      }

      .cls-21 {
        opacity: .87;
      }
    </style>
    <clipPath id="clippath">
      <rect class="cls-13" x="25.37445" y="42.17506" width="175.78889" height="36.3945" rx="18.19723" ry="18.19723" transform="translate(226.53778 120.74463) rotate(180)"/>
    </clipPath>
    <clipPath id="clippath-1">
      <rect class="cls-10" x="18.49765" y="33.7697" width="36.06415" height="53.20522" rx="8.14406" ry="8.14406" transform="translate(38.93554 -10.15037) rotate(33.13088)"/>
    </clipPath>
  </defs>
  <g class="cls-22">
    <g id="Layer_2" data-name="Layer 2">
      <g id="Layer_1-2" data-name="Layer 1">
        <g>
          <g>
            <path class="cls-3" d="m180.75729,40.84863H59.12376c.75598-.20853,1.52619-.43799,2.31844-.71316,5.7345-1.9915,9.92332-4.9301,9.35606-6.56367-.56727-1.63341-5.67586-1.34322-11.41036.64828-.16587.05753-.31607.12288-.47922.182,3.60813-4.68738,5.45518-9.27249,4.11931-10.31913-1.36112-1.06646-5.49961,1.94277-9.24356,6.72123-.40667.51917-.78171,1.0361-1.1438,1.54952.12736-.54138.25439-1.08452.36209-1.65418,1.12718-5.96492.66346-11.06073-1.03562-11.38176-1.69908-.32118-3.9902,4.25418-5.11738,10.2191-.36896,1.95235-.55113,3.78838-.59171,5.41763l-3.46895-2.26411c-3.76665-2.45842-8.81292-1.39787-11.27118,2.36878l-20.17726,30.91537c-2.45826,3.76649-1.39771,8.81276,2.36894,11.27118l2.86094,1.86718c-1.34162.48961-2.7852,1.12063-4.26968,1.90314-5.37001,2.83058-9.06971,6.36537-8.26339,7.89523.80632,1.52954,5.81328.47491,11.18345-2.35583.15532-.08181.29402-.16906.4463-.25199-2.8627,5.1765-3.99963,9.98708-2.5217,10.82104,1.50605.84978,5.14518-2.74717,8.12852-8.03409.32406-.57446.61712-1.14172.89788-1.70388-.04442.55448-.08837,1.11056-.1093,1.68981-.21796,6.06671,1.00638,11.03485,2.73438,11.09685,1.728.06232,3.30548-4.80546,3.52344-10.87202.03132-.8696.02541-1.70643.00016-2.51962l1.94996,1.27275c3.76649,2.45842,8.81276,1.39771,11.27118-2.36878l1.10225-1.68886c1.0369.15212,2.08914.25695,3.16822.25695h134.94511c11.98593,0,21.70249-9.71655,21.70249-21.70249s-9.71655-21.70249-21.70249-21.70249Z"/>
            <g>
              <rect class="cls-9" x="24.10972" y="40.84871" width="178.35001" height="43.4049" rx="21.70243" ry="21.70243" transform="translate(226.56945 125.10231) rotate(-180)"/>
              <rect class="cls-15" x="25.37445" y="46.42898" width="175.78889" height="36.3945" rx="18.19723" ry="18.19723" transform="translate(226.53778 129.25246) rotate(-180)"/>
              <g>
                <rect class="cls-13" x="25.37445" y="42.17506" width="175.78889" height="36.3945" rx="18.19723" ry="18.19723" transform="translate(226.53778 120.74463) rotate(180)"/>
                <g class="cls-7">
                  <g class="cls-21">
                    <path class="cls-17" d="m213.42295,80.51573c-2.13659-31.07273-21.89889-55.66719-51.28312-65.82852-12.95111-4.47861-26.8987-6.78007-40.37588-9.02647C107.22086,3.23667,92.56618,1.39104,77.88348.05717c-10.25843-.93194-20.08055,9.69678-19.6354,19.6354.51217,11.43491,8.64633,18.63708,19.6354,19.6354,5.48803.49857,10.96914,1.06517,16.44039,1.72369,1.35722.16336,2.71217.3469,4.06968.50721,2.3765.28064-3.22279-.46991.64916.08669,3.20239.46035,6.40253.93117,9.59692,1.44464,12.62966,2.03008,25.33316,4.38169,37.66912,7.80207,2.29292.63575,4.52905,1.39917,6.78166,2.15975,4.60881,1.55614-3.50164-1.93798.97675.42026,1.19826.63098,2.40991,1.22449,3.58468,1.90179,1.22253.70484,2.40238,1.46715,3.5779,2.24626,4.26976,2.8299-2.18793-2.37784,1.65263,1.39621,2.00517,1.97045,4.24201,3.92424,5.84411,6.25938-2.73319-3.98377,1.11613,2.03621,1.75672,3.16639.46277.81646,1.20334,3.31488,1.96473,3.85488l-1.077-2.52831c.3394.85417.6482,1.71906.9264,2.59467.44718,1.35304.84682,2.72121,1.1799,4.10709.29521,1.22833.36247,3.2842.8695,4.43207-.83946-1.90048-.41821-3.63944-.19457-.38699.7031,10.22535,8.52763,20.13292,19.6354,19.6354,10.0348-.44946,20.38999-8.66129,19.6354-19.6354h0Z"/>
                  </g>
                  <g class="cls-20">
                    <path class="cls-17" d="m9.62388,37.13354c.7008,11.4819,4.51377,22.72571,11.53387,31.89799,4.45305,5.81823,9.71769,10.89322,16.40093,14.08038,8.96297,4.27434,18.8288,6.2983,28.45113,8.49064,11.28456,2.57105,22.54146,4.85178,34.07298,6.0097,12.90057,1.29539,25.90545,1.36895,38.8265.32265,3.40414-.27566,6.7123-2.81291,6.54513-6.54513-.14823-3.30936-2.89052-6.84107-6.54513-6.54513-11.44973.92716-22.96457.97818-34.41751.07282-2.25253-.17807-4.50218-.39252-6.74774-.64365-1.05925-.11846-2.11759-.24506-3.17489-.37977-.20375-.02596-.40743-.05252-.61114-.07878-1.613-.20793,1.07733.15581.06266.00783-.8411-.12266-1.68298-.23928-2.52326-.36763-5.51125-.84179-10.96481-1.98146-16.40235-3.20467-9.69811-2.18164-19.71869-4.02631-29.02351-7.61642-.38729-.14943-.77008-.3101-1.15663-.46117-.74791-.2923,1.68971.73472.69143.29114-.16235-.07214-.32549-.14243-.48763-.21507-.82632-.37019-1.64173-.76483-2.44209-1.18829-1.41731-.74988-2.78647-1.59078-4.0844-2.53287-.18793-.1364-.42056-.27077-.58497-.43489-.06255-.06244,1.45361,1.1644.74945.57493-.31196-.26115-.63015-.51378-.9387-.7792-.32059-.27577-.63643-.55714-.94797-.84308-1.08257-.99364-2.11235-2.0448-3.09357-3.13843-.74152-.82647-1.41932-1.70101-2.13629-2.54713,1.44736,1.70807.01645.00089-.30903-.4536-.3912-.54626-.7719-1.1-1.14132-1.66122-.80247-1.21912-1.55229-2.47269-2.24771-3.75587-.40828-.75335-.79693-1.51754-1.16599-2.29085-.12697-.26604-.25164-.53329-.3739-.80151-.12629-.27708-.84335-1.63015-.08371-.15113-1.41581-2.75657-2.17723-6.11337-2.80973-9.13075-.15259-.72796-.28993-1.45925-.41118-2.19308-.03828-.23168-.07516-.46364-.11041-.69581-.03423-.22547-.06699-.45115-.09828-.67705.14951,1.13643.19192,1.44367.12724.92172-.10551-1.11338-.23381-2.2205-.30199-3.3376-.20819-3.41093-2.86133-6.71013-6.54513-6.54513-3.36747.15083-6.76852,2.88515-6.54513,6.54513h0Z"/>
                  </g>
                </g>
              </g>
              <path class="cls-1" d="m189.94298,54.81833c-1.00132-2.22073-2.09118-4.54361-3.90531-6.22735-1.62823-1.5112-3.94455-2.02889-6.10651-2.08676-6.26358-.16766-12.56783.62929-18.82516.9444-5.66662.28536-11.44312-.05772-17.1326-.05772-24.74654,0-49.48898-1.09118-74.23575-.96958-7.09961.03645-14.35199-.43599-21.43173.76272-3.92476.66449-7.23161,3.16748-7.23184,3.16762-2.0229,1.53108-3.55692,3.3098-4.54436,4.58684,1.68253-1.13955,4.24016-2.71787,7.42577-4.06407,7.46997-3.15672,15.01132-2.32267,22.61668-2.19382,26.28216.44528,52.57496.39079,78.85692.48699,8.59744.03147,17.20541-.14048,25.77151-.92148,3.61331-.32944,7.33001-.75791,10.8121.26167,3.32461.97347,6.23507,3.28947,7.93028,6.31053Z"/>
              <path class="cls-8" d="m33.02819,62.61835c.62023,1.22843,1.63613,2.85685,3.27448,4.40021,3.35943,3.16458,7.21498,3.9732,8.88145,4.21818"/>
              <circle class="cls-4" cx="181.55975" cy="53.76465" r="1.35212"/>
              <ellipse class="cls-5" cx="173.29303" cy="52.2068" rx="4.93203" ry="1.55785"/>
              <path class="cls-2" d="m183.95354,61.31548c3.06162-10.87567,2.82373-10.78966,12.13251-4.38651-9.30878-6.40314-9.18864-6.07086-6.12702-16.94652-3.06162,10.87567-2.82373,10.78966-12.13251,4.38651,9.30878,6.40314,9.18864,6.07086,6.12702,16.94652Z"/>
            </g>
            <g>
              <g>
                <path class="cls-10" d="m59.38796,34.22008c-.16587.05753-.31607.12288-.47922.182,3.60813-4.68738,5.45518-9.27249,4.11931-10.31913-1.36112-1.06646-5.49961,1.94277-9.24356,6.72123-.40667.51917-.78171,1.0361-1.1438,1.54952.12736-.54138.25439-1.08452.36209-1.65418,1.12718-5.96492.66346-11.06073-1.03562-11.38176-1.69908-.32118-3.9902,4.25418-5.11738,10.2191-1.12718,5.96492-.66346,11.06073,1.03562,11.38176.37488.07079.78059-.13215,1.1943-.50031.03739.41994.1411.77372.39053.96915.31735.24864.79737.25599,1.37662.09076,1.73168.74863,5.9344.2758,10.59541-1.34274,5.7345-1.9915,9.92332-4.9301,9.35606-6.56367-.56727-1.63341-5.67586-1.34322-11.41036.64828Z"/>
                <path class="cls-23" d="m58.46107,35.97763c-.35682-.84563-2.80038-.62208-5.4579.49935-.32166.13566-.63038.27884-.92616.42617.02509-.36065.04011-.73297.04011-1.11727,0-2.88443-.744-5.22268-1.66169-5.22268-.91785,0-1.66185,2.33826-1.66185,5.22268,0,1.22833.14062,2.34273.36641,3.23454-.30089.38862-.43799.74448-.32262,1.01788.11265.26717.45126.41562.92137.47475.21253.31016.44694.49552.6967.49552.26302,0,.50846-.20949.72946-.55145.90699-.13966,1.98383-.44279,3.11038-.91817,2.65752-1.12127,4.52263-2.71585,4.16581-3.56131Z"/>
              </g>
              <g>
                <path class="cls-10" d="m15.2208,86.55543c.15534-.0818.29401-.16899.44642-.25196-2.8627,5.1764-3.99968,9.98702-2.52168,10.82101,1.50594.84979,5.14517-2.74723,8.12846-8.03408.32403-.57439.61712-1.14181.89794-1.70382-.04455.55437-.08851,1.11043-.10938,1.68981-.21792,6.06658,1.00637,11.03482,2.7344,11.09684,1.72805.06218,3.30553-4.80554,3.52345-10.87212.21792-6.06658-1.00637-11.03482-2.7344-11.09684-.38126-.01365-.75186.24796-1.10554.67412-.10008-.40955-.25578-.74373-.53175-.89945-.35111-.19812-.82678-.13325-1.37462.11716-1.82452-.47988-5.90845.6192-10.27328,2.91986-5.37007,2.83071-9.06968,6.36546-8.26335,7.89522.8063,1.5296,5.81326.47495,11.18333-2.35576Z"/>
                <path class="cls-23" d="m23.28359,90.65638c-.91271.09673-1.89899-2.1501-2.20291-5.01849-.03685-.34715-.06086-.68661-.07498-1.01675-.30352.1964-.62212.38964-.95848.57553-2.52456,1.39519-4.93095,1.87502-5.37483,1.07182-.44396-.80334,1.2427-2.58552,3.76725-3.9807,1.07508-.59414,2.11846-1.01009,3.00821-1.24384.19459-.45132.43974-.74345.73484-.77472.28833-.03063.58204.19392.86118.57678.37426.03599.64988.1515.77069.3701.12722.2302.06259.54635-.12981.90518.31647.86138.57203,1.9505.70086,3.16643.30406,2.86831-.18943,5.27201-1.102,5.36866Z"/>
              </g>
              <g>
                <rect class="cls-14" x="18.49765" y="33.7697" width="36.06415" height="53.20522" rx="8.14406" ry="8.14406" transform="translate(38.93554 -10.15037) rotate(33.13088)"/>
                <g class="cls-19">
                  <path class="cls-12" d="m13.64281,52.8843c7.44221,11.33047,11.20817,25.03488,10.601,38.57731"/>
                  <path class="cls-12" d="m23.43639,42.84801c11.16222,14.53128,16.19413,33.6226,13.64451,51.76792"/>
                  <path class="cls-12" d="m32.86987,29.11535c11.72853,14.67591,17.22825,34.17159,14.8986,52.81331"/>
                  <path class="cls-12" d="m50.76597,33.29727c7.12854,11.30962,10.20438,25.11652,8.5507,38.38261"/>
                  <path class="cls-6" d="m12.61694,59.16473l-.80907-1.03323c5.4615,10.40068,8.65327,21.98577,9.289,33.71598"/>
                  <path class="cls-6" d="m21.54341,45.99288c9.52506,13.31521,14.13486,30.06571,12.76385,46.37957"/>
                  <path class="cls-6" d="m31.04431,33.18834c9.38966,14.56805,14.28373,31.99065,13.85337,49.31718"/>
                  <path class="cls-6" d="m43.9795,29.19315c7.07112,12.41437,11.11475,26.53904,11.68447,40.81464"/>
                  <path class="cls-6" d="m57.24885,37.59221c4.67174,10.30394,6.48368,21.887,5.18181,33.12539"/>
                  <g class="cls-20">
                    <path class="cls-2" d="m18.00617,58.20619c1.35459-1.36645,2.7693-2.67006,4.25264-3.89593.3457-.28569.69912-.56155,1.04705-.84441.55065-.44767-.61065.46605-.56525.43499.20978-.1435.40983-.30977.61462-.4614.77207-.57167,1.55848-1.12393,2.3577-1.65696,1.59903-1.06644,3.24985-2.05464,4.94402-2.96233.79101-.4238,1.59133-.82996,2.4003-1.21837.40457-.19425.81118-.38421,1.21989-.56962.23359-.10597.46868-.20844.70275-.31331.80808-.36201-.26823.11854-.50205.20634,3.62394-1.36078,7.21202-2.61816,11.01047-3.41996.87843-.18543,1.76098-.35196,2.64671-.49865.44287-.07334.88733-.1354,1.33067-.20544.73035-.11539-.86432.11099-.78706.10448.31821-.02682.63708-.0783.95477-.11369,1.9105-.21285,3.8309-.33527,5.75303-.36454,2.11328-.03218,4.22838.04791,6.33282.24434.51036.04764,1.01932.10606,1.52863.16334.42276.04755,1.22721.2272-.59641-.08428.25245.04312.50761.07337.76074.11261,1.14115.17687,2.27506.39249,3.40383.63576,3.33848.7195,7.23593-.99159,8.05129-4.57138.75081-3.29638-.99203-7.27988-4.57138-8.05129-16.96579-3.65643-35.1937-.49976-49.9001,8.76671-4.19931,2.64598-8.15092,5.78121-11.64589,9.30678-2.41339,2.43451-2.61265,6.85785,0,9.25622,2.60343,2.3899,6.68063,2.59814,9.25622,0h0Z"/>
                  </g>
                  <g class="cls-18">
                    <path class="cls-16" d="m19.48009,91.68542c17.29893.53947,32.09208-9.22456,46.30573-17.76457,3.93915-2.36677,7.93659-4.63703,12.10246-6.58363,3.11103-1.45369,4.14213-6.17227,2.34808-8.95498-2.06519-3.20327-5.62723-3.90304-8.95498-2.34808-7.16273,3.34694-13.79093,7.66383-20.55814,11.7215-3.31539,1.98794-6.6716,3.9151-10.14601,5.61366-.80765.39485-1.62128.77759-2.44107,1.14659-.27327.123-.54801.24256-.82192.36413-.15999.07101-.88369.37812-.04461.02306.83882-.35495.11522-.04951-.04751.01528-.27797.11069-.55492.22385-.83351.33302-1.73474.67979-3.49811,1.28792-5.2888,1.80321-1.06819.30739-2.14588.58226-3.23212.8183-.99795.21686-2.0721.28317-3.05116.55576-.01156.00322,1.38975-.15948.64294-.08869-.29364.02783-.58644.06684-.88009.09545-.58783.05727-1.17673.10169-1.76654.13252-1.11077.05806-2.22116.06186-3.33273.02719-3.42531-.10682-6.70003,3.08683-6.54513,6.54513.16293,3.63756,2.87525,6.43069,6.54513,6.54513h0Z"/>
                  </g>
                </g>
                <rect class="cls-11" x="18.49765" y="33.7697" width="36.06415" height="53.20522" rx="8.14406" ry="8.14406" transform="translate(38.93554 -10.15037) rotate(33.13088)"/>
              </g>
            </g>
            <path class="cls-2" d="m42.96405,38.18484c-3.52567.09969-6.88143,1.45238-9.51413,3.79265-.6417.57043-.62509,1.74024,0,2.31405.68481.62864,1.62957.60845,2.31405,0,.13657-.1214.27436-.24119.41548-.35729.07052-.05802.14167-.11526.21344-.17173-.15074.116-.15214.11834-.00421.00702.29931-.21028.59687-.41988.90909-.61107.31153-.19077.6311-.3684.95749-.53245.16335-.0821.33001-.15655.49464-.23585.1714-.07498.16684-.07443-.01368.00165.08438-.03498.16912-.06909.25421-.10232.6806-.26577,1.38328-.47512,2.09858-.62419.17878-.03726.35834-.07076.53854-.10043.0901-.01484.18034-.02871.27073-.04162-.20881.02765-.21793.02994-.02738.00688.36468-.03157.72699-.06238,1.09315-.07274.85482-.02417,1.67664-.73531,1.63628-1.63628-.03878-.86582-.7197-1.6622-1.63628-1.63628h0Z"/>
            <path class="cls-2" d="m30.09539,49.65237h.11595c.22528.0085.43543-.03848.63043-.14093.20286-.06599.37839-.17877.5266-.33833.15956-.14821.27234-.32374.33833-.5266.10245-.195.14942-.40514.14093-.63043l-.05845-.43499c-.07774-.27719-.21801-.51787-.42081-.72204l-.33116-.25586c-.25521-.14802-.5305-.22248-.82586-.2234h-.11595c-.22528-.0085-.43543.03848-.63043.14093-.20286.06599-.37839.17877-.5266.33833-.15956.14821-.27234.32374-.33833.5266-.10245.195-.14942.40514-.14093.63043l.05845.43499c.07774.27719.21801.51787.42081.72204l.33116.25586c.25521.14802.5305.22248.82586.2234h0Z"/>
            <path class="cls-2" d="m54.48989,54.49438h.11595c.22528.0085.43543-.03848.63043-.14093.20286-.06599.37839-.17877.5266-.33833.15956-.14821.27234-.32374.33833-.5266.10245-.195.14942-.40514.14093-.63043l-.05845-.43499c-.07774-.27719-.21801-.51787-.42081-.72204l-.33116-.25586c-.25521-.14802-.5305-.22248-.82586-.2234h-.11595c-.22528-.0085-.43543.03848-.63043.14093-.20286.06599-.37839.17877-.5266.33833-.15956.14821-.27234.32374-.33833.5266-.10245.195-.14942.40514-.14093.63043l.05845.43499c.07774.27719.21801.51787.42081.72204l.33116.25586c.25521.14802.5305.22248.82586.2234h0Z"/>
          </g>
          <g>
            <g>
              <path d="m84.58196,71.5303l-3.99268-4.83594v4.83594h-3.90137v-15.70312h5.61133c3.52832,0,5.47168,1.83643,5.47168,5.1709,0,2.51123-1.16113,4.23779-3.28076,4.90137l4.46826,5.63086h-4.37646Zm-2.38232-8.7417c1.15479,0,1.66992-.49658,1.66992-1.61035s-.51514-1.61035-1.66992-1.61035h-1.61035v3.2207h1.61035Z"/>
              <path class="cls-2" d="m82.29906,56.07736c3.40039,0,5.22168,1.72021,5.22168,4.9209,0,2.56055-1.24023,4.22119-3.46094,4.76123l4.38086,5.521h-3.74121l-4.36035-5.28125v5.28125h-3.40137v-15.20312h5.36133m-1.95996,6.96143h1.86035c1.28027,0,1.91992-.6001,1.91992-1.86035s-.62012-1.86035-1.91992-1.86035h-1.86035v3.7207m1.95996-7.46143h-5.86133v16.20312h4.40137v-4.39032l3.47479,4.20868.14996.18164h5.01184l-.64337-.81079-3.92719-4.94928c2.01642-.76971,3.1156-2.52649,3.1156-5.02216,0-3.49573-2.03198-5.4209-5.72168-5.4209h0Zm-1.45996,4.24072h1.36035c1.02179,0,1.41992.38141,1.41992,1.36035s-.39813,1.36035-1.41992,1.36035h-1.36035v-2.7207h0Z"/>
            </g>
            <g>
              <polygon points="89.66839 71.5303 89.66839 54.62698 99.59026 54.62698 99.59026 58.3677 93.56878 58.3677 93.56878 61.48831 98.8305 61.48831 98.8305 65.06887 93.56878 65.06887 93.56878 67.94973 99.59026 67.94973 99.59026 71.5303 89.66839 71.5303"/>
              <path class="cls-2" d="m99.34008,54.87716v3.24072h-6.02148v3.62061h5.26172v3.08057h-5.26172v3.38086h6.02148v3.08057h-9.42188v-16.40332h9.42188m.5-.5h-10.42188v17.40332h10.42188v-4.08057h-6.02148v-2.38086h5.26172v-4.08057h-5.26172v-2.62061h6.02148v-4.24072h0Z"/>
            </g>
            <g>
              <path d="m106.7387,71.5303c-3.90137,0-6.23047-2.4043-6.23047-6.43115v-3.24072c0-3.90674,2.41406-6.43115,6.15039-6.43115,3.84326,0,5.89941,2.00439,6.11084,5.95801l.01416.26318h-3.88525l-.02686-.21973c-.20898-1.71191-.75146-2.26123-2.23242-2.26123-1.84326,0-2.23047,1.46338-2.23047,2.69092v3.38086c0,1.87451.71875,2.71045,2.33008,2.71045,1.49902,0,2.11035-.5708,2.11035-1.9707v-.22998h-3.18066v-3.26074h7.08203v3.09082c0,3.83789-2.13477,5.95117-6.01172,5.95117Z"/>
              <path class="cls-2" d="m106.65844,55.67746c3.82129,0,5.66113,1.97998,5.86133,5.72119h-3.40039c-.21973-1.80078-.83984-2.48096-2.48047-2.48096-1.58008,0-2.48047,1.04053-2.48047,2.94092v3.38086c0,2.02002.82031,2.96045,2.58008,2.96045,1.62012,0,2.36035-.68018,2.36035-2.2207v-.47998h-3.18066v-2.76074h6.58203v2.84082c0,3.7207-2.06055,5.70117-5.76172,5.70117-3.78027,0-5.98047-2.28027-5.98047-6.18115v-3.24072c0-3.80078,2.28027-6.18115,5.90039-6.18115m0-.5c-3.88806,0-6.40039,2.6225-6.40039,6.68115v3.24072c0,4.18353,2.42261,6.68115,6.48047,6.68115,3.97943,0,6.26172-2.26025,6.26172-6.20117v-3.34082h-7.58203v3.76074h3.1806c-.00531,1.23938-.51135,1.70068-1.86029,1.70068-1.47742,0-2.08008-.71283-2.08008-2.46045v-3.38086c0-1.61969.66632-2.44092,1.98047-2.44092,1.34589,0,1.79089.45789,1.98413,2.0415l.05365.43945h4.37054l-.0282-.52673c-.21991-4.11032-2.35999-6.19446-6.3606-6.19446h0Z"/>
            </g>
            <g>
              <rect x="114.16839" y="55.82717" width="3.90039" height="15.70312"/>
              <path class="cls-2" d="m117.8186,56.07736v15.20312h-3.40039v-15.20312h3.40039m.5-.5h-4.40039v16.20312h4.40039v-16.20312h0Z"/>
            </g>
            <g>
              <path d="m125.35882,71.5303c-3.91406,0-5.86768-1.87256-5.97168-5.72412l-.00684-.25684h3.90283l.00537.24463c.03662,1.65918.59814,2.27588,2.07031,2.27588,1.02295,0,1.70996-.60693,1.70996-1.51074,0-1.07812-.3125-1.43359-2.38281-1.7124-3.47949-.5-5.09863-2.0791-5.09863-4.96875,0-3.14062,2.21484-5.25098,5.51172-5.25098,3.40625,0,5.40771,1.97021,5.49121,5.40527l.00635.25586h-3.89404l-.01318-.23633c-.07324-1.31494-.50439-1.8042-1.59033-1.8042-.96338,0-1.61035.59082-1.61035,1.47021,0,.82178.19531,1.16016,2.26562,1.45312,3.60693.50049,5.21582,2.05713,5.21582,5.04834,0,3.27588-2.1499,5.31104-5.61133,5.31104Z"/>
              <path class="cls-2" d="m125.09887,54.87716c3.28027,0,5.16113,1.86035,5.24121,5.16113h-3.40137c-.08008-1.44043-.62012-2.04053-1.83984-2.04053-1.10059,0-1.86035.7002-1.86035,1.72021,0,1.08057.5,1.42041,2.48047,1.70068,3.46094.47998,5.00098,1.94043,5.00098,4.80078,0,3.16064-2.02051,5.06104-5.36133,5.06104-3.74121,0-5.62109-1.76025-5.72168-5.48096h3.40137c.04004,1.80029.71973,2.52051,2.32031,2.52051,1.16016,0,1.95996-.72021,1.95996-1.76074,0-1.28027-.51953-1.68018-2.59961-1.95996-3.34082-.48047-4.88184-1.96045-4.88184-4.72119,0-2.98047,2.12109-5.00098,5.26172-5.00098m0-.5c-3.3924,0-5.76172,2.26208-5.76172,5.50098,0,2.99597,1.73712,4.70215,5.31067,5.21613,2.08771.28082,2.17078.63062,2.17078,1.46503,0,.76587-.57306,1.26074-1.45996,1.26074-1.15131,0-1.78247-.32373-1.82043-2.03162l-.01086-.48889h-4.40405l.01385.51349c.10706,3.95972,2.20026,5.96747,6.2215,5.96747,3.61542,0,5.86133-2.13086,5.86133-5.56104,0-3.09918-1.72614-4.78204-5.43231-5.29602-2.04913-.29004-2.04913-.59595-2.04913-1.20544,0-.74127.534-1.22021,1.36035-1.22021.81293,0,1.26733.24994,1.34064,1.5683l.02625.47223h4.3866l-.01239-.51215c-.0871-3.59-2.17969-5.64899-5.74109-5.64899h0Z"/>
            </g>
            <g>
              <polygon points="135.28753 71.5303 135.28753 59.5679 131.3471 59.5679 131.3471 55.82717 143.14983 55.82717 143.14983 59.5679 139.1889 59.5679 139.1889 71.5303 135.28753 71.5303"/>
              <path class="cls-2" d="m142.89965,56.07736v3.24072h-3.96094v11.9624h-3.40137v-11.9624h-3.94043v-3.24072h11.30273m.5-.5h-12.30273v4.24072h3.94043v11.9624h4.40137v-11.9624h3.96094v-4.24072h0Z"/>
            </g>
            <g>
              <polygon points="144.52776 71.5303 144.52776 54.62698 154.44964 54.62698 154.44964 58.3677 148.42815 58.3677 148.42815 61.48831 153.6889 61.48831 153.6889 65.06887 148.42815 65.06887 148.42815 67.94973 154.44964 67.94973 154.44964 71.5303 144.52776 71.5303"/>
              <path class="cls-2" d="m154.19946,54.87716v3.24072h-6.02148v3.62061h5.26074v3.08057h-5.26074v3.38086h6.02148v3.08057h-9.42188v-16.40332h9.42188m.5-.5h-10.42188v17.40332h10.42188v-4.08057h-6.02148v-2.38086h5.26074v-4.08057h-5.26074v-2.62061h6.02148v-4.24072h0Z"/>
            </g>
            <g>
              <path d="m163.70208,71.5303l-3.99365-4.83594v4.83594h-3.90039v-15.70312h5.61035c3.52832,0,5.47168,1.83643,5.47168,5.1709,0,2.51123-1.16113,4.23779-3.28076,4.90137l4.46826,5.63086h-4.37549Zm-2.3833-8.7417c1.15479,0,1.66992-.49658,1.66992-1.61035s-.51514-1.61035-1.66992-1.61035h-1.61035v3.2207h1.61035Z"/>
              <path class="cls-2" d="m161.41821,56.07736c3.40137,0,5.22168,1.72021,5.22168,4.9209,0,2.56055-1.24023,4.22119-3.46094,4.76123l4.38086,5.521h-3.74023l-4.36133-5.28125v5.28125h-3.40039v-15.20312h5.36035m-1.95996,6.96143h1.86035c1.28027,0,1.91992-.6001,1.91992-1.86035s-.62012-1.86035-1.91992-1.86035h-1.86035v3.7207m1.95996-7.46143h-5.86035v16.20312h4.40039v-4.39056l3.47577,4.20892.15002.18164h5.0108l-.64337-.81079-3.92719-4.94922c2.01642-.76978,3.1156-2.52655,3.1156-5.02222,0-3.49573-2.03198-5.4209-5.72168-5.4209h0Zm-1.45996,4.24072h1.36035c1.02179,0,1.41992.38141,1.41992,1.36035s-.39813,1.36035-1.41992,1.36035h-1.36035v-2.7207h0Z"/>
            </g>
          </g>
        </g>
      </g>
    </g>
  </g>
</svg>