<?xml version="1.0" encoding="UTF-8"?>
<svg xmlns="http://www.w3.org/2000/svg" xmlns:xlink="http://www.w3.org/1999/xlink" viewBox="0 0 215.10454 100.16911">
  <defs>
    <style>
      .cls-1 {
        mix-blend-mode: screen;
        opacity: .69;
      }

      .cls-1, .cls-2, .cls-3, .cls-4, .cls-5 {
        fill: #fff;
      }

      .cls-6 {
        clip-path: url(#clippath);
      }

      .cls-7 {
        opacity: .83;
        stroke-linecap: round;
      }

      .cls-7, .cls-8, .cls-3, .cls-9, .cls-4, .cls-10 {
        stroke-miterlimit: 10;
      }

      .cls-7, .cls-8, .cls-9, .cls-10 {
        stroke-width: 2.61805px;
      }

      .cls-7, .cls-4 {
        stroke: #fff;
      }

      .cls-7, .cls-10 {
        fill: none;
      }

      .cls-8 {
        stroke: #ffa922;
      }

      .cls-8, .cls-11 {
        fill: #ffc135;
      }

      .cls-12, .cls-9 {
        fill: #f70033;
      }

      .cls-13 {
        fill: #ea9200;
      }

      .cls-14 {
        fill: #eb586c;
      }

      .cls-15 {
        fill: #ffb0d0;
      }

      .cls-16 {
        fill: #faeda1;
      }

      .cls-3 {
        stroke: #241f20;
        stroke-width: 7.85416px;
      }

      .cls-9, .cls-10 {
        stroke: #f70033;
      }

      .cls-17 {
        mix-blend-mode: multiply;
      }

      .cls-4 {
        stroke-width: .65451px;
      }

      .cls-4, .cls-5 {
        opacity: .91;
      }

      .cls-18 {
        fill: #fc8093;
        mix-blend-mode: color-dodge;
      }

      .cls-19 {
        clip-path: url(#clippath-1);
      }

      .cls-20, .cls-21 {
        mix-blend-mode: soft-light;
      }

      .cls-22 {
        isolation: isolate;
      }

      .cls-21 {
        opacity: .87;
      }
    </style>
    <clipPath id="clippath">
      <rect class="cls-11" x="27.01714" y="42.17506" width="175.78889" height="36.3945" rx="18.19723" ry="18.19723" transform="translate(229.82317 120.74463) rotate(180)"/>
    </clipPath>
    <clipPath id="clippath-1">
      <circle class="cls-9" cx="35.38542" cy="62.55115" r="28.3375"/>
    </clipPath>
  </defs>
  <g class="cls-22">
    <g id="Layer_2" data-name="Layer 2">
      <g id="Layer_1-2" data-name="Layer 1">
        <g>
          <g>
            <path class="cls-3" d="m182.39995,40.84875H53.59138c-4.92531-4.13609-11.27118-6.6351-18.20605-6.6351-15.65031,0-28.33742,12.68711-28.33742,28.33742s12.68711,28.33758,28.33742,28.33758c6.93487,0,13.28074-2.49901,18.20605-6.6351h128.80857c11.98593,0,21.70249-9.71655,21.70249-21.70233v-.00016c0-11.98593-9.71655-21.70233-21.70249-21.70233Z"/>
            <g>
              <rect class="cls-8" x="25.75241" y="40.84871" width="178.35001" height="43.4049" rx="21.70243" ry="21.70243" transform="translate(229.85483 125.10231) rotate(-180)"/>
              <rect class="cls-13" x="27.01714" y="46.42898" width="175.78889" height="36.3945" rx="18.19723" ry="18.19723" transform="translate(229.82317 129.25246) rotate(-180)"/>
              <g>
                <rect class="cls-11" x="27.01714" y="42.17506" width="175.78889" height="36.3945" rx="18.19723" ry="18.19723" transform="translate(229.82317 120.74463) rotate(180)"/>
                <g class="cls-6">
                  <g class="cls-21">
                    <path class="cls-16" d="m215.06564,80.51573c-2.13659-31.07273-21.89889-55.66719-51.28312-65.82852-12.95111-4.47861-26.8987-6.78007-40.37588-9.02647C108.86355,3.23667,94.20887,1.39104,79.52617.05717c-10.25843-.93194-20.08055,9.69678-19.6354,19.6354.51217,11.43491,8.64633,18.63708,19.6354,19.6354,5.48803.49857,10.96914,1.06517,16.44039,1.72369,1.35722.16336,2.71217.3469,4.06968.50721,2.3765.28064-3.22279-.46991.64916.08669,3.20239.46035,6.40253.93117,9.59692,1.44464,12.62966,2.03008,25.33316,4.38169,37.66912,7.80207,2.29292.63575,4.52905,1.39917,6.78166,2.15975,4.60881,1.55614-3.50164-1.93798.97675.42026,1.19826.63098,2.40991,1.22449,3.58468,1.90179,1.22253.70484,2.40238,1.46715,3.5779,2.24626,4.26976,2.8299-2.18793-2.37784,1.65263,1.39621,2.00517,1.97045,4.24201,3.92424,5.84411,6.25938-2.73319-3.98377,1.11613,2.03621,1.75672,3.16639.46277.81646,1.20334,3.31488,1.96473,3.85488l-1.077-2.52831c.3394.85417.6482,1.71906.9264,2.59467.44718,1.35304.84682,2.72121,1.1799,4.10709.29521,1.22833.36247,3.2842.8695,4.43207-.83946-1.90048-.41821-3.63944-.19457-.38699.7031,10.22535,8.52763,20.13292,19.6354,19.6354,10.0348-.44946,20.38999-8.66129,19.6354-19.6354h0Z"/>
                  </g>
                  <g class="cls-20">
                    <path class="cls-16" d="m11.26657,37.13354c.7008,11.4819,4.51377,22.72571,11.53387,31.89799,4.45305,5.81823,9.71769,10.89322,16.40093,14.08038,8.96297,4.27434,18.8288,6.2983,28.45113,8.49064,11.28456,2.57105,22.54146,4.85178,34.07298,6.0097,12.90057,1.29539,25.90545,1.36895,38.8265.32265,3.40414-.27566,6.7123-2.81291,6.54513-6.54513-.14823-3.30936-2.89052-6.84107-6.54513-6.54513-11.44973.92716-22.96457.97818-34.41751.07282-2.25253-.17807-4.50218-.39252-6.74774-.64365-1.05925-.11846-2.11759-.24506-3.17489-.37977-.20375-.02596-.40743-.05252-.61114-.07878-1.613-.20793,1.07733.15581.06266.00783-.8411-.12266-1.68298-.23928-2.52326-.36763-5.51125-.84179-10.96481-1.98146-16.40235-3.20467-9.69811-2.18164-19.71869-4.02631-29.02351-7.61642-.38729-.14943-.77008-.3101-1.15663-.46117-.74791-.2923,1.68971.73472.69143.29114-.16235-.07214-.32549-.14243-.48763-.21507-.82632-.37019-1.64173-.76483-2.44209-1.18829-1.41731-.74988-2.78647-1.59078-4.0844-2.53287-.18793-.1364-.42056-.27077-.58497-.43489-.06255-.06244,1.45361,1.1644.74945.57493-.31196-.26115-.63015-.51378-.9387-.7792-.32059-.27577-.63643-.55714-.94797-.84308-1.08257-.99364-2.11235-2.0448-3.09357-3.13843-.74152-.82647-1.41932-1.70101-2.13629-2.54713,1.44736,1.70807.01645.00089-.30903-.4536-.3912-.54626-.7719-1.1-1.14132-1.66122-.80247-1.21912-1.55229-2.47269-2.24771-3.75587-.40828-.75335-.79693-1.51754-1.16599-2.29085-.12697-.26604-.25164-.53329-.3739-.80151-.12629-.27708-.84335-1.63015-.08371-.15113-1.41581-2.75657-2.17723-6.11337-2.80973-9.13075-.15259-.72796-.28993-1.45925-.41118-2.19308-.03828-.23168-.07516-.46364-.11041-.69581-.03423-.22547-.06699-.45115-.09828-.67705.14951,1.13643.19192,1.44367.12724.92172-.10551-1.11338-.23381-2.2205-.30199-3.3376-.20819-3.41093-2.86133-6.71013-6.54513-6.54513-3.36747.15083-6.76852,2.88515-6.54513,6.54513h0Z"/>
                  </g>
                </g>
              </g>
              <path class="cls-1" d="m191.58568,54.81833c-1.00132-2.22073-2.09118-4.54361-3.90531-6.22735-1.62823-1.5112-3.94455-2.02889-6.10651-2.08676-6.26358-.16766-12.56783.62929-18.82516.9444-5.66662.28536-11.44312-.05772-17.1326-.05772-24.74654,0-49.48898-1.09118-74.23575-.96958-7.09961.03645-14.35199-.43599-21.43173.76272-3.92476.66449-7.23161,3.16748-7.23184,3.16762-2.0229,1.53108-3.55692,3.3098-4.54436,4.58684,1.68253-1.13955,4.24016-2.71787,7.42577-4.06407,7.46997-3.15672,15.01132-2.32267,22.61668-2.19382,26.28216.44528,52.57496.39079,78.85692.48699,8.59744.03147,17.20541-.14048,25.77151-.92148,3.61331-.32944,7.33001-.75791,10.8121.26167,3.32461.97347,6.23507,3.28947,7.93028,6.31053Z"/>
              <path class="cls-7" d="m34.67088,62.61835c.62023,1.22843,1.63613,2.85685,3.27448,4.40021,3.35943,3.16458,7.21498,3.9732,8.88145,4.21818"/>
              <circle class="cls-4" cx="183.20244" cy="53.76465" r="1.35212"/>
              <ellipse class="cls-5" cx="174.93572" cy="52.2068" rx="4.93203" ry="1.55785"/>
              <path class="cls-2" d="m185.59624,61.31548c3.06162-10.87567,2.82373-10.78966,12.13251-4.38651-9.30878-6.40314-9.18864-6.07086-6.12702-16.94652-3.06162,10.87567-2.82373,10.78966-12.13251,4.38651,9.30878,6.40314,9.18864,6.07086,6.12702,16.94652Z"/>
            </g>
            <g>
              <circle class="cls-12" cx="35.38542" cy="62.55115" r="28.3375"/>
              <g class="cls-19">
                <g class="cls-17">
                  <path class="cls-14" d="m16.56104,97.81495c11.27802-1.17475,22.22404-4.81019,31.67594-11.15609,9.17423-6.15948,16.86969-14.45345,22.14612-24.18132,2.89526-5.33783,5.14337-11.09584,6.53782-17.00763.78448-3.32581-1.03734-7.24635-4.57138-8.05129-3.35228-.76354-7.21055,1.00704-8.05129,4.57138-.55713,2.36197-1.24113,4.69001-2.0678,6.97201-.18357.50673-.37393,1.01104-.57096,1.51269-.09852.25085-.20172.49982-.30025.75064-.51097,1.30062.49208-1.10718.11062-.2596-.49808,1.10673-.99833,2.20965-1.54596,3.29314-1.06391,2.10491-2.24629,4.14985-3.54012,6.12181-.66536,1.0141-1.36036,2.00872-2.0832,2.98268-.16022.21589-.33141.42662-.48622.64601.95287-1.35037.52053-.66784.27852-.36762-.42291.52464-.84639,1.04829-1.28244,1.56214-1.56924,1.84923-3.24726,3.60651-5.02472,5.25667-.803.74549-1.62625,1.46937-2.46893,2.1697-.21402.17787-.42921.3544-.64562.52936l-.32552.26132q-.43809.34442.00509.00305l.33239-.25603c-.1657.1269-.33225.25266-.49967.37728-.33427.25002-.67103.49656-1.01034.73969-1.97922,1.41823-4.04241,2.71969-6.17486,3.89505-1.03597.57101-2.08787,1.11281-3.15434,1.62458-.56462.27094-1.13317.53358-1.70557.78767-.25391.11271-.5142.21576-.76551.3335,1.70183-.79732.37128-.16311.01954-.02347-2.58649,1.0268-5.24239,1.88052-7.94283,2.5527-1.28266.31927-2.57555.59714-3.87609.83318-.68499.12432-1.37241.22668-2.05949.33751-.94828.15295,1.72719-.19539.2919-.03938-.41507.04512-.82951.09515-1.24482.13841-1.78196.18561-3.31733.60624-4.62811,1.91703-1.1352,1.1352-1.99005,2.99771-1.91703,4.62811.14521,3.24206,2.89818,6.92501,6.54513,6.54513h0Z"/>
                </g>
                <g class="cls-20">
                  <path class="cls-15" d="m12.09707,64.88183c1.77908-3.58672,3.87022-7.01001,6.26353-10.22037.14483-.19428.31927-.39328.45144-.59887-.89033,1.38487-.60413.77441-.33386.43578.31198-.39088.62389-.78151.9422-1.16728.63658-.7715,1.29051-1.5288,1.96034-2.27161,1.38213-1.5327,2.83313-3.00314,4.34602-4.40689.68788-.63826,1.38832-1.26304,2.10139-1.87305.38034-.32536.7641-.64676,1.15116-.9641.19353-.15867.38804-.3162.58325-.47279.19278-.15465,1.10685-.84331.22255-.18497-.91728.68289.32515-.24244.53322-.39688.40192-.29833.80698-.59248,1.21523-.88208.86751-.61539,1.7488-1.21125,2.64321-1.78682,1.68317-1.08316,3.41253-2.09423,5.18254-3.02877.82936-.43789,1.66743-.85939,2.51404-1.26295.45144-.21519.9051-.42578,1.36114-.63104.22799-.10262.45777-.20135.68561-.30428,1.04629-.47263-1.10788.45065-.35576.14581,4.24094-1.71888,8.59731-3.05364,13.09538-3.90962,3.37053-.6414,5.59891-4.87612,4.57138-8.05129-1.16436-3.59798-4.44008-5.25858-8.05129-4.57138-17.08494,3.25122-33.19215,13.11511-43.95782,26.76378-3.2255,4.08928-6.11055,8.36074-8.42797,13.03277-1.51938,3.06314-.92247,7.227,2.34808,8.95498,2.95831,1.56301,7.33071.92654,8.95498-2.34808h0Z"/>
                </g>
              </g>
              <circle class="cls-10" cx="35.38542" cy="62.55115" r="28.3375"/>
            </g>
            <path class="cls-2" d="m30.73762,37.97135c-3.52567.09969-6.88143,1.45238-9.51413,3.79265-.6417.57043-.62509,1.74024,0,2.31405.68481.62864,1.62957.60845,2.31405,0,.13657-.1214.27436-.24119.41548-.35729.07052-.05802.14167-.11526.21344-.17173-.15074.116-.15214.11834-.00421.00702.29931-.21028.59687-.41988.90909-.61107.31153-.19077.6311-.3684.95749-.53245.16335-.0821.33001-.15655.49464-.23585.1714-.07498.16684-.07443-.01368.00165.08438-.03498.16912-.06909.25421-.10232.6806-.26577,1.38328-.47512,2.09858-.62419.17878-.03726.35834-.07076.53854-.10043.0901-.01484.18034-.02871.27073-.04162-.20881.02765-.21793.02994-.02738.00688.36468-.03157.72699-.06238,1.09315-.07274.85482-.02417,1.67664-.73531,1.63628-1.63628-.03878-.86582-.7197-1.6622-1.63628-1.63628h0Z"/>
            <path class="cls-2" d="m17.86895,49.43888h.11595c.22528.0085.43543-.03848.63043-.14093.20286-.06599.37839-.17877.5266-.33833.15956-.14821.27234-.32374.33833-.5266.10245-.195.14942-.40514.14093-.63043l-.05845-.43499c-.07774-.27719-.21801-.51787-.42081-.72204l-.33116-.25586c-.25521-.14802-.5305-.22248-.82586-.2234h-.11595c-.22528-.0085-.43543.03848-.63043.14093-.20286.06599-.37839.17877-.5266.33833-.15956.14821-.27234.32374-.33833.5266-.10245.195-.14942.40514-.14093.63043l.05845.43499c.07774.27719.21801.51787.42081.72204l.33116.25586c.25521.14802.5305.22248.82586.2234h0Z"/>
            <path class="cls-2" d="m55.23392,56.5748h.11595c.22528.0085.43543-.03848.63043-.14093.20286-.06599.37839-.17877.5266-.33833.15956-.14821.27234-.32374.33833-.5266.10245-.195.14942-.40514.14093-.63043l-.05845-.43499c-.07774-.27719-.21801-.51787-.42081-.72204l-.33116-.25586c-.25521-.14802-.5305-.22248-.82586-.2234h-.11595c-.22528-.0085-.43543.03848-.63043.14093-.20286.06599-.37839.17877-.5266.33833-.15956.14821-.27234.32374-.33833.5266-.10245.195-.14942.40514-.14093.63043l.05845.43499c.07774.27719.21801.51787.42081.72204l.33116.25586c.25521.14802.5305.22248.82586.2234h0Z"/>
            <path class="cls-18" d="m42.58323,71.01523l-5.79407-1.79928c-.25881-.08037-.5406-.02824-.75354.1394l-4.76695,3.75298c-.53622.42216-1.32376.0462-1.33267-.6362l-.07925-6.0665c-.00354-.27098-.1402-.52287-.36543-.67358l-5.04236-3.37391c-.5672-.37952-.453-1.24469.19325-1.46404l5.74509-1.95002c.25663-.0871.45396-.29491.52769-.55569l1.6506-5.83817c.18567-.65672,1.04379-.81546,1.45211-.26863l3.62991,4.86132c.16214.21715.42076.34061.69156.33014l6.06249-.23428c.68195-.02635,1.0981.74071.7042,1.29802l-3.50169,4.95448c-.15642.22131-.19392.50542-.10028.75973l2.09622,5.69338c.2358.64043-.36512,1.27325-1.01688,1.07085Z"/>
          </g>
          <g>
            <g>
              <polygon points="76.71029 71.4863 73.13607 55.78317 77.07211 55.78317 79.40951 66.67868 81.72836 55.78317 85.66537 55.78317 82.09066 71.4863 76.71029 71.4863"/>
              <path class="cls-2" d="m85.35183,56.0336l-3.46094,15.20312h-4.98096l-3.46045-15.20312h3.42041l2.54053,11.8418,2.52051-11.8418h3.4209m.62665-.5h-4.45233l-.08423.39594-2.03345,9.55322-2.04968-9.55402-.08478-.39514h-4.45111l.13907.61096,3.46045,15.20312.08853.38904h5.77893l.08856-.38904,3.46094-15.20312.1391-.61096h0Z"/>
            </g>
            <g>
              <path d="m91.57064,72.68649c-3.78174,0-6.13135-2.46484-6.13135-6.43164v-2.84082c0-3.90625,2.40674-6.43066,6.13135-6.43066,3.7124,0,6.11084,2.52441,6.11084,6.43066v2.84082c0,3.90723-2.39844,6.43164-6.11084,6.43164Zm0-11.96289c-1.84326,0-2.23047,1.46289-2.23047,2.69043v2.94141c0,1.77344.79199,2.75,2.23047,2.75,1.42529,0,2.21045-.97656,2.21045-2.75v-2.94141c0-1.22754-.3833-2.69043-2.21045-2.69043Z"/>
              <path class="cls-2" d="m91.57058,57.23379c3.60059,0,5.86084,2.40039,5.86084,6.18066v2.84082c0,3.78125-2.26025,6.18164-5.86084,6.18164-3.64111,0-5.88135-2.40039-5.88135-6.18164v-2.84082c0-3.78027,2.26025-6.18066,5.88135-6.18066m0,12.12207c1.58008,0,2.46045-1.08008,2.46045-3v-2.94141c0-1.90039-.88037-2.94043-2.46045-2.94043-1.58057,0-2.48047,1.04004-2.48047,2.94043v2.94141c0,1.91992.8999,3,2.48047,3m0-12.62207c-3.87653,0-6.38135,2.62231-6.38135,6.68066v2.84082c0,4.05896,2.50482,6.68164,6.38135,6.68164,3.86407,0,6.36084-2.62268,6.36084-6.68164v-2.84082c0-4.05835-2.49677-6.68066-6.36084-6.68066h0Zm0,12.12207c-1.6369,0-1.98047-1.3595-1.98047-2.5v-2.94141c0-1.61932.66632-2.44043,1.98047-2.44043,1.30084,0,1.96045.82111,1.96045,2.44043v2.94141c0,1.1405-.34015,2.5-1.96045,2.5h0Z"/>
            </g>
            <g>
              <polygon points="98.97933 71.4863 98.97933 55.78317 102.87972 55.78317 102.87972 67.90524 108.48129 67.90524 108.48129 71.4863 98.97933 71.4863"/>
              <path class="cls-2" d="m102.62966,56.0336v12.12207h5.60156v3.08105h-9.00195v-15.20312h3.40039m.5-.5h-4.40039v16.20312h10.00195v-4.08105h-5.60156v-12.12207h0Z"/>
            </g>
            <g>
              <path d="m114.95004,71.4863c-3.6416,0-5.73047-2.18359-5.73047-5.99121v-8.51172h3.90039v8.67188c0,1.51367.59863,2.25,1.83008,2.25,1.23535,0,1.81055-.71484,1.81055-2.25v-8.67188h3.90137v8.51172c0,3.80762-2.08203,5.99121-5.71191,5.99121Z"/>
              <path class="cls-2" d="m120.41189,57.23379v8.26172c0,3.64062-1.98047,5.74121-5.46191,5.74121-3.5,0-5.48047-2.10059-5.48047-5.74121v-8.26172h3.40039v8.42188c0,1.66016.7002,2.5,2.08008,2.5,1.38086,0,2.06055-.83984,2.06055-2.5v-8.42188h3.40137m.5-.5h-4.40137v8.92188c0,1.76239-.78888,2-1.56055,2-.73566,0-1.58008-.22736-1.58008-2v-8.92188h-4.40039v8.76172c0,3.90802,2.23572,6.24121,5.98047,6.24121,3.73315,0,5.96191-2.33319,5.96191-6.24121v-8.76172h0Z"/>
            </g>
            <g>
              <polygon points="130.28353 71.4863 126.32015 64.26852 126.32015 71.4863 122.41976 71.4863 122.41976 56.98337 126.51888 56.98337 130.3807 64.10837 130.3807 56.98337 134.28207 56.98337 134.28207 71.4863 130.28353 71.4863"/>
              <path class="cls-2" d="m134.03201,57.23379v14.00293h-3.60059l-4.36133-7.94238v7.94238h-3.40039v-14.00293h3.7002l4.26074,7.86133v-7.86133h3.40137m.5-.5h-4.40137v6.38947l-3.32117-6.12769-.14185-.26178h-4.49792v15.00293h4.40039v-6.49304l3.42303,6.2337.14246.25934h4.39642v-15.00293h0Z"/>
            </g>
            <g>
              <polygon points="139.59945 72.68649 139.59945 60.7236 135.65902 60.7236 135.65902 56.98337 147.46175 56.98337 147.46175 60.7236 143.50082 60.7236 143.50082 72.68649 139.59945 72.68649"/>
              <path class="cls-2" d="m147.21169,57.23379v3.24023h-3.96094v11.96289h-3.40137v-11.96289h-3.94043v-3.24023h11.30273m.5-.5h-12.30273v4.24023h3.94043v11.96289h4.40137v-11.96289h3.96094v-4.24023h0Z"/>
            </g>
            <g>
              <polygon points="148.83968 72.68649 148.83968 55.78317 158.76156 55.78317 158.76156 59.52341 152.74007 59.52341 152.74007 62.6445 158.00082 62.6445 158.00082 66.22458 152.74007 66.22458 152.74007 69.10544 158.76156 69.10544 158.76156 72.68649 148.83968 72.68649"/>
              <path class="cls-2" d="m158.5115,56.0336v3.24023h-6.02148v3.62109h5.26074v3.08008h-5.26074v3.38086h6.02148v3.08105h-9.42188v-16.40332h9.42188m.5-.5h-10.42188v17.40332h10.42188v-4.08105h-6.02148v-2.38086h5.26074v-4.08008h-5.26074v-2.62109h6.02148v-4.24023h0Z"/>
            </g>
            <g>
              <polygon points="160.11898 71.4863 160.11898 55.78317 170.04086 55.78317 170.04086 59.52341 164.01937 59.52341 164.01937 61.86423 169.28011 61.86423 169.28011 65.4443 164.01937 65.4443 164.01937 67.90524 170.04086 67.90524 170.04086 71.4863 160.11898 71.4863"/>
              <path class="cls-2" d="m169.79079,56.0336v3.24023h-6.02148v2.84082h5.26074v3.08008h-5.26074v2.96094h6.02148v3.08105h-9.42188v-15.20312h9.42188m.5-.5h-10.42188v16.20312h10.42188v-4.08105h-6.02148v-1.96094h5.26074v-4.08008h-5.26074v-1.84082h6.02148v-4.24023h0Z"/>
            </g>
            <g>
              <path d="m179.2933,72.68649l-3.99365-4.83594v4.83594h-3.90039v-15.70312h5.61035c3.52832,0,5.47168,1.83594,5.47168,5.1709,0,2.51074-1.16113,4.2373-3.28076,4.90039l4.46826,5.63184h-4.37549Zm-2.3833-8.74219c1.15479,0,1.66992-.49707,1.66992-1.61035s-.51514-1.61035-1.66992-1.61035h-1.61035v3.2207h1.61035Z"/>
              <path class="cls-2" d="m177.00954,57.23379c3.40137,0,5.22168,1.71973,5.22168,4.9209,0,2.56055-1.24023,4.2207-3.46094,4.76074l4.38086,5.52148h-3.74023l-4.36133-5.28125v5.28125h-3.40039v-15.20312h5.36035m-1.95996,6.96094h1.86035c1.28027,0,1.91992-.59961,1.91992-1.86035,0-1.25977-.62012-1.86035-1.91992-1.86035h-1.86035v3.7207m1.95996-7.46094h-5.86035v16.20312h4.40039v-4.39056l3.47577,4.20892.15002.18164h5.01074l-.64325-.81079-3.92725-4.94971c2.01642-.76971,3.1156-2.52637,3.1156-5.02173,0-3.49573-2.03198-5.4209-5.72168-5.4209h0Zm-1.45996,4.24023h1.36035c1.02179,0,1.41992.38141,1.41992,1.36035s-.39813,1.36035-1.41992,1.36035h-1.36035v-2.7207h0Z"/>
            </g>
          </g>
        </g>
      </g>
    </g>
  </g>
</svg>