<?xml version="1.0" encoding="UTF-8"?>
<svg id="Layer_2" data-name="Layer 2" xmlns="http://www.w3.org/2000/svg" viewBox="0 0 230.93416 88.05296">
  <defs>
    <style>
      .cls-1 {
        fill: #006845;
      }

      .cls-2 {
        fill: #fff;
      }

      .cls-3 {
        fill: #b7530d;
        opacity: .85;
      }
    </style>
  </defs>
  <g id="SIGNS">
    <g>
      <rect class="cls-1" x="2.97377" y="2.98236" width="224.98608" height="82.09322" rx="14.37791" ry="14.37791" transform="translate(230.93362 88.05793) rotate(-180)"/>
      <path class="cls-2" d="M0,17.24737v53.5581c0,9.50697,7.73059,17.24749,17.23756,17.24749H213.68679c9.51678,0,17.24737-7.74052,17.24737-17.24749V17.24737c0-2.68928-.61526-5.22974-1.71684-7.5023C226.41889,3.98934,220.51429,0,213.68679,0H17.23756c-.95264,0-1.88552,.07941-2.78861,.22829C6.2619,1.56796,0,8.69316,0,17.24737Zm5.95421,0c0-6.22211,5.06118-11.29316,11.28335-11.29316H213.68679c4.43586,0,8.28625,2.57026,10.12217,6.30158,.75415,1.50842,1.17099,3.1954,1.17099,4.99158v53.5581c0,6.2321-5.06112,11.29328-11.29316,11.29328H17.23756c-6.22217,0-11.28335-5.06118-11.28335-11.29328V17.24737Z"/>
      <path class="cls-3" d="M0,20.88941v49.44968c2.19322-.5656,4.20763-1.5679,5.95421-2.89764,3.94961-3.03671,6.50006-7.81,6.50006-13.17868,0-4.5252-1.81599-8.62368-4.75348-11.62066,1.55809-2.29237,2.47099-5.06106,2.47099-8.03816,0-3.96947-1.60751-7.5619-4.21757-10.15197C4.3169,22.8146,2.27256,21.57414,0,20.88941Z"/>
      <path class="cls-3" d="M14.44894,.22829c.54585,2.10382,1.51835,4.04888,2.80848,5.72593,2.92744,3.81072,7.54186,6.27178,12.73204,6.27178s9.79467-2.45112,12.74198-6.27178c1.13131-1.46869,2.01454-3.14579,2.58026-4.95191,2.27244,2.15348,5.33883,3.48322,8.72284,3.48322,3.88019,0,7.35348-1.73664,9.67559-4.48553H17.23756c-.95264,0-1.88552,.07941-2.78861,.22829Z"/>
      <path class="cls-3" d="M97.74836,0c1.27026,2.29243,2.97711,4.31684,5.01145,5.95421,3.47329,2.80842,7.88934,4.48553,12.70237,4.48553,4.8229,0,9.23895-1.67711,12.71224-4.48553C130.20876,4.31684,131.9156,2.29243,133.17593,0h-35.42757Z"/>
      <circle class="cls-3" cx="203.41574" cy="78.33267" r="4.30962"/>
      <path class="cls-3" d="M177.61416,0c.81375,2.21302,2.0344,4.2275,3.5825,5.95421,3.41375,3.83059,8.37559,6.24204,13.91297,6.24204,4.75348,0,9.0802-1.79618,12.36493-4.73362,3.03665,3.26493,7.35342,5.31908,12.16645,5.31908,1.43895,0,2.83816-.17862,4.16796-.52592,1.9748-.50612,3.80073-1.36947,5.40836-2.51072C226.41889,3.98934,220.51429,0,213.68679,0h-36.07263Z"/>
      <path class="cls-3" d="M209.28067,81.01698c0,.36717,.00993,.72441,.02974,1.08177,.11908,2.09376,.58552,4.09837,1.34967,5.95421h3.02671c9.51678,0,17.24737-7.74052,17.24737-17.24749v-28.85803c-2.14355,.14888-4.15803,.75421-5.95421,1.70691-4.76336,2.53053-8.00842,7.55191-8.00842,13.31757,0,2.77862,.76414,5.37862,2.08395,7.61145-5.8252,3.16566-9.77481,9.33828-9.77481,16.43362Z"/>
      <path class="cls-3" d="M186.52567,88.05296h17.16796c-1.88552-2.70927-5.03132-4.48553-8.58401-4.48553-3.55264,0-6.69849,1.77626-8.58395,4.48553Z"/>
      <path class="cls-3" d="M21.37566,88.05296H115.76981c-1.20079-2.2825-2.84815-4.29703-4.81302-5.95421-3.51296-2.96717-8.04809-4.74355-13-4.74355-4.53513,0-8.70309,1.51835-12.07717,4.03889-3.99927-7.60158-11.97783-12.78171-21.16718-12.78171-9.4573,0-17.64434,5.50769-21.5146,13.48638-.64494,1.31981-1.17093,2.70915-1.55797,4.14803-2.58013-1.68698-5.66651-2.67935-8.98086-2.67935-4.36657,0-8.33604,1.69691-11.28335,4.48553Z"/>
    </g>
  </g>
</svg>