<svg width="172" height="159" viewBox="0 0 172 159" fill="none" xmlns="http://www.w3.org/2000/svg">
<g clip-path="url(#clip0_419_3800)">
<path d="M51.3441 6.21671e-06L120.567 1.22683e-05C139.426 1.3917e-05 154.773 15.2364 154.773 33.9584L154.773 53.5147C154.773 72.2366 139.426 87.473 120.567 87.473L51.3441 87.473C32.4852 87.473 17.1373 72.2366 17.1373 53.5146L17.1373 33.9584C17.1373 15.2364 32.4852 4.56801e-06 51.3441 6.21671e-06ZM120.559 75.7689C132.922 75.7689 142.984 65.7802 142.984 53.5069L142.984 33.9506C142.984 21.6772 132.922 11.6886 120.559 11.6885L51.3362 11.6885C38.9731 11.6885 28.9114 21.6772 28.9114 33.9506L28.9114 53.5069C28.9114 65.7802 38.9731 75.7689 51.3362 75.7689L120.559 75.7689Z" fill="#B86BAC"/>
<path d="M119.105 60.5246L119.105 43.8691C119.105 41.7847 117.403 40.095 115.304 40.095L112.578 40.095C110.479 40.095 108.777 41.7847 108.777 43.8691L108.777 60.5246C108.777 62.609 110.479 64.2987 112.578 64.2987L115.304 64.2987C117.403 64.2987 119.105 62.609 119.105 60.5246Z" fill="#B86BAC"/>
<path d="M63.1328 60.5247L63.1328 43.8691C63.1328 41.7847 61.4308 40.0951 59.3312 40.0951L56.6056 40.0951C54.5061 40.0951 52.804 41.7847 52.804 43.8691L52.804 60.5247C52.804 62.609 54.5061 64.2987 56.6056 64.2987L59.3312 64.2987C61.4308 64.2987 63.1328 62.609 63.1328 60.5247Z" fill="#B86BAC"/>
<path d="M88.2366 40.0922L75.8011 27.747C75.0588 27.0101 73.8553 27.0101 73.1129 27.747L72.1521 28.7009C71.4098 29.4378 71.4098 30.6326 72.1521 31.3695L84.5876 43.7147C85.3299 44.4516 86.5334 44.4516 87.2757 43.7147L88.2366 42.7608C88.9789 42.0239 88.9789 40.8291 88.2366 40.0922Z" fill="#B86BAC"/>
<path d="M87.2868 43.7172L99.7223 31.3721C100.465 30.6351 100.465 29.4403 99.7223 28.7034L98.7615 27.7495C98.0192 27.0126 96.8156 27.0126 96.0733 27.7495L83.6378 40.0947C82.8955 40.8316 82.8955 42.0264 83.6378 42.7634L84.5987 43.7172C85.341 44.4542 86.5445 44.4542 87.2868 43.7172Z" fill="#B86BAC"/>
<path d="M21.5782 39.596C22.4579 39.596 23.3297 39.7442 24.1702 40.0561C26.9507 41.0853 28.7337 43.6273 28.828 46.684L29.0558 53.9747C29.0558 66.0375 38.9368 75.8469 51.0879 75.8469L55.565 75.8469L56.8296 80.1277C57.4894 82.4826 58.432 86.0305 59.1624 89.5706C59.9479 93.368 58.7383 105.173 55.5572 124.66C50.6795 154.532 49.2264 155.811 47.6869 157.16C45.5583 159.031 43.4454 159.148 42.0473 158.914C38.7719 158.368 37.468 156.084 35.4965 152.622C34.0906 150.15 31.7342 146.009 27.5084 139.545L26.016 137.276C15.5301 121.307 -2.01703 94.5844 0.174401 69.6322C1.35259 56.1814 9.07365 48.649 13.6922 44.1498C14.4148 43.448 15.0353 42.8398 15.5223 42.3173C17.1717 40.5551 19.371 39.6038 21.5703 39.6038L21.5782 39.596ZM46.5401 87.2313C31.098 85.1415 18.9626 72.72 17.4388 57.2575C14.7525 60.5558 12.4354 64.7275 11.9249 70.6303C10.0947 91.5667 26.2517 116.176 35.905 130.874L37.4052 133.167C38.8347 135.358 40.0679 137.292 41.1204 138.999C44.1601 123.162 48.2131 96.3934 47.6162 91.863C47.2863 90.2801 46.9093 88.6894 46.5401 87.2235L46.5401 87.2313Z" fill="#B86BAC"/>
<path d="M150.422 39.596C152.621 39.596 154.828 40.5473 156.47 42.3096C156.957 42.832 157.578 43.4402 158.3 44.142C162.911 48.6412 170.64 56.1736 171.818 69.6244C174.002 94.5844 156.446 121.307 145.968 137.276L144.484 139.545C140.258 146.009 137.902 150.15 136.496 152.622C134.524 156.076 133.22 158.368 129.945 158.914C128.547 159.148 126.434 159.031 124.305 157.16C122.766 155.811 121.321 154.532 116.435 124.66C113.254 105.173 112.037 93.368 112.83 89.5706C113.56 86.0305 114.503 82.4826 115.163 80.1277L116.364 75.8469L120.842 75.8469C133.055 75.8469 142.937 66.0375 142.937 53.9747L142.937 53.7876L143.164 46.684C143.259 43.6273 145.049 41.0931 147.822 40.0561C148.663 39.7442 149.542 39.596 150.414 39.596L150.422 39.596ZM134.595 133.175L136.095 130.89C145.749 116.184 161.905 91.5823 160.075 70.6381C159.557 64.7353 157.24 60.5636 154.561 57.2653C153.038 72.7434 140.887 85.1727 125.46 87.2391C125.091 88.705 124.714 90.2957 124.384 91.8708C123.787 96.4012 127.84 123.17 130.88 139.007C131.932 137.299 133.165 135.366 134.595 133.175Z" fill="#B86BAC"/>
</g>
<defs>
<clipPath id="clip0_419_3800">
<path d="M172 109C172 136.614 149.614 159 122 159L50 159C22.3858 159 1.95703e-06 136.614 4.37114e-06 109L1.39002e-05 2.22071e-07L172 1.52588e-05L172 109Z" fill="white"/>
</clipPath>
</defs>
</svg>
