<svg width="91" height="59" viewBox="0 0 91 59" fill="none" xmlns="http://www.w3.org/2000/svg">
<path d="M90.3726 45.9358C90.3726 52.133 89.1121 55.3902 86.9472 56.8859C84.7729 58.3881 81.5853 58.1895 77.5138 57.1806C75.4888 56.6788 73.2682 55.9833 70.8755 55.2195C70.6122 55.1354 70.3468 55.0506 70.0794 54.9651C67.9194 54.2743 65.628 53.5414 63.2305 52.8586C57.8416 51.3237 51.9021 50.0369 45.6609 50.0369C39.4197 50.0369 33.4803 51.3237 28.0913 52.8586C25.6938 53.5414 23.4025 54.2742 21.2425 54.965C20.9751 55.0505 20.7097 55.1354 20.4464 55.2195C18.0536 55.9833 15.833 56.6788 13.8081 57.1806C9.73652 58.1895 6.54898 58.3881 4.37464 56.8859C2.20978 55.3902 0.949219 52.133 0.949219 45.9358C0.949219 21.2422 20.9673 1.22412 45.6609 1.22412C70.3545 1.22412 90.3726 21.2422 90.3726 45.9358Z" fill="#D9D9D9" stroke="#646464" stroke-width="0.5"/>
</svg>
