<svg width="24" height="25" viewBox="0 0 24 25" fill="none" xmlns="http://www.w3.org/2000/svg">
<mask id="mask0_1117_82270" style="mask-type:alpha" maskUnits="userSpaceOnUse" x="0" y="0" width="24" height="25">
<rect y="0.935059" width="24" height="24" fill="#D9D9D9"/>
</mask>
<g mask="url(#mask0_1117_82270)">
<path d="M14 15.9351C14.2833 15.9351 14.5292 15.8309 14.7375 15.6226C14.9458 15.4142 15.05 15.1684 15.05 14.8851C15.05 14.6017 14.9458 14.3559 14.7375 14.1476C14.5292 13.9392 14.2833 13.8351 14 13.8351C13.7167 13.8351 13.4708 13.9392 13.2625 14.1476C13.0542 14.3559 12.95 14.6017 12.95 14.8851C12.95 15.1684 13.0542 15.4142 13.2625 15.6226C13.4708 15.8309 13.7167 15.9351 14 15.9351ZM13.25 12.7351H14.75C14.75 12.2517 14.8 11.8976 14.9 11.6726C15 11.4476 15.2333 11.1517 15.6 10.7851C16.1 10.2851 16.4333 9.88089 16.6 9.57256C16.7667 9.26423 16.85 8.90173 16.85 8.48506C16.85 7.73506 16.5875 7.12256 16.0625 6.64756C15.5375 6.17256 14.85 5.93506 14 5.93506C13.3167 5.93506 12.7208 6.12673 12.2125 6.51006C11.7042 6.89339 11.35 7.40173 11.15 8.03506L12.5 8.58506C12.65 8.16839 12.8542 7.85589 13.1125 7.64756C13.3708 7.43923 13.6667 7.33506 14 7.33506C14.4 7.33506 14.725 7.44756 14.975 7.67256C15.225 7.89756 15.35 8.20173 15.35 8.58506C15.35 8.81839 15.2833 9.03923 15.15 9.24756C15.0167 9.45589 14.7833 9.71839 14.45 10.0351C13.9 10.5184 13.5625 10.8976 13.4375 11.1726C13.3125 11.4476 13.25 11.9684 13.25 12.7351ZM8 18.9351C7.45 18.9351 6.97917 18.7392 6.5875 18.3476C6.19583 17.9559 6 17.4851 6 16.9351V4.93506C6 4.38506 6.19583 3.91423 6.5875 3.52256C6.97917 3.13089 7.45 2.93506 8 2.93506H20C20.55 2.93506 21.0208 3.13089 21.4125 3.52256C21.8042 3.91423 22 4.38506 22 4.93506V16.9351C22 17.4851 21.8042 17.9559 21.4125 18.3476C21.0208 18.7392 20.55 18.9351 20 18.9351H8ZM8 16.9351H20V4.93506H8V16.9351ZM4 22.9351C3.45 22.9351 2.97917 22.7392 2.5875 22.3476C2.19583 21.9559 2 21.4851 2 20.9351V6.93506H4V20.9351H18V22.9351H4Z" fill="#FF80BB"/>
</g>
</svg>
