<svg width="24" height="25" viewBox="0 0 24 25" fill="none" xmlns="http://www.w3.org/2000/svg">
<mask id="mask0_1117_82267" style="mask-type:alpha" maskUnits="userSpaceOnUse" x="0" y="0" width="24" height="25">
<rect y="0.935059" width="24" height="24" fill="#D9D9D9"/>
</mask>
<g mask="url(#mask0_1117_82267)">
<path d="M7 21.9351V19.9351H11V16.8351C10.1833 16.6517 9.45417 16.3059 8.8125 15.7976C8.17083 15.2892 7.7 14.6517 7.4 13.8851C6.15 13.7351 5.10417 13.1892 4.2625 12.2476C3.42083 11.3059 3 10.2017 3 8.93506V7.93506C3 7.38506 3.19583 6.91423 3.5875 6.52256C3.97917 6.13089 4.45 5.93506 5 5.93506H7V3.93506H17V5.93506H19C19.55 5.93506 20.0208 6.13089 20.4125 6.52256C20.8042 6.91423 21 7.38506 21 7.93506V8.93506C21 10.2017 20.5792 11.3059 19.7375 12.2476C18.8958 13.1892 17.85 13.7351 16.6 13.8851C16.3 14.6517 15.8292 15.2892 15.1875 15.7976C14.5458 16.3059 13.8167 16.6517 13 16.8351V19.9351H17V21.9351H7ZM7 11.7351V7.93506H5V8.93506C5 9.56839 5.18333 10.1392 5.55 10.6476C5.91667 11.1559 6.4 11.5184 7 11.7351ZM12 14.9351C12.8333 14.9351 13.5417 14.6434 14.125 14.0601C14.7083 13.4767 15 12.7684 15 11.9351V5.93506H9V11.9351C9 12.7684 9.29167 13.4767 9.875 14.0601C10.4583 14.6434 11.1667 14.9351 12 14.9351ZM17 11.7351C17.6 11.5184 18.0833 11.1559 18.45 10.6476C18.8167 10.1392 19 9.56839 19 8.93506V7.93506H17V11.7351Z" fill="#FF80BB"/>
</g>
</svg>
