<svg width="438" height="111" viewBox="0 0 438 111" fill="none" xmlns="http://www.w3.org/2000/svg">
<mask id="path-1-inside-1_429_536" fill="white">
<path fill-rule="evenodd" clip-rule="evenodd" d="M437.5 0.443359H0.5V110.883H398.983L437.5 82.0344V0.443359Z"/>
</mask>
<path fill-rule="evenodd" clip-rule="evenodd" d="M437.5 0.443359H0.5V110.883H398.983L437.5 82.0344V0.443359Z" fill="black"/>
<path d="M0.5 0.443359V-0.556641H-0.5V0.443359H0.5ZM437.5 0.443359H438.5V-0.556641H437.5V0.443359ZM0.5 110.883H-0.5V111.883H0.5V110.883ZM398.983 110.883V111.883H399.316L399.583 111.684L398.983 110.883ZM437.5 82.0344L438.099 82.8348L438.5 82.5348V82.0344H437.5ZM0.5 1.44336H437.5V-0.556641H0.5V1.44336ZM1.5 110.883V0.443359H-0.5V110.883H1.5ZM398.983 109.883H0.5V111.883H398.983V109.883ZM399.583 111.684L438.099 82.8348L436.901 81.234L398.384 110.083L399.583 111.684ZM436.5 0.443359V82.0344H438.5V0.443359H436.5Z" fill="black" mask="url(#path-1-inside-1_429_536)"/>
</svg>
