<svg width="77" height="82" viewBox="0 0 77 82" fill="none" xmlns="http://www.w3.org/2000/svg">
<mask id="path-1-inside-1_419_3989" fill="white">
<path fill-rule="evenodd" clip-rule="evenodd" d="M47.9911 0.38623L40.4547 4.73736L65.8924 48.7968L41.088 72.9051H0.90625L0.90625 81.6074H45.0907V81.1501L76.6266 50.4993L76.8496 50.3705L76.817 50.3142L76.9983 50.138L76.3012 49.4208L47.9911 0.38623Z"/>
</mask>
<path fill-rule="evenodd" clip-rule="evenodd" d="M47.9911 0.38623L40.4547 4.73736L65.8924 48.7968L41.088 72.9051H0.90625L0.90625 81.6074H45.0907V81.1501L76.6266 50.4993L76.8496 50.3705L76.817 50.3142L76.9983 50.138L76.3012 49.4208L47.9911 0.38623Z" fill="#D9D9D9"/>
<path d="M40.4547 4.73736L40.2047 4.30435L39.7717 4.55435L40.0217 4.98736L40.4547 4.73736ZM47.9911 0.38623L48.4241 0.13623L48.1741 -0.296782L47.7411 -0.0467822L47.9911 0.38623ZM65.8924 48.7968L66.2409 49.1553L66.5201 48.884L66.3255 48.5468L65.8924 48.7968ZM41.088 72.9051V73.4051H41.291L41.4365 73.2636L41.088 72.9051ZM0.90625 72.9051V72.4051H0.40625V72.9051H0.90625ZM0.90625 81.6074H0.40625V82.1074H0.90625V81.6074ZM45.0907 81.6074V82.1074H45.5907V81.6074H45.0907ZM45.0907 81.1501L44.7422 80.7915L44.5907 80.9388V81.1501H45.0907ZM76.6266 50.4993L76.3766 50.0663L76.3227 50.0974L76.2781 50.1407L76.6266 50.4993ZM76.8496 50.3705L77.0996 50.8036L77.5326 50.5535L77.2826 50.1205L76.8496 50.3705ZM76.817 50.3142L76.4685 49.9556L76.1893 50.227L76.384 50.5642L76.817 50.3142ZM76.9983 50.138L77.3468 50.4965L77.7053 50.1481L77.3568 49.7895L76.9983 50.138ZM76.3012 49.4208L75.8682 49.6708L75.8993 49.7247L75.9427 49.7693L76.3012 49.4208ZM40.7047 5.17037L48.2411 0.819243L47.7411 -0.0467822L40.2047 4.30435L40.7047 5.17037ZM66.3255 48.5468L40.8877 4.48736L40.0217 4.98736L65.4594 49.0468L66.3255 48.5468ZM41.4365 73.2636L66.2409 49.1553L65.544 48.4382L40.7395 72.5465L41.4365 73.2636ZM41.088 72.4051H0.90625V73.4051H41.088V72.4051ZM0.40625 72.9051L0.40625 81.6074H1.40625L1.40625 72.9051H0.40625ZM0.90625 82.1074H45.0907V81.1074H0.90625V82.1074ZM45.5907 81.6074V81.1501H44.5907V81.6074H45.5907ZM76.2781 50.1407L44.7422 80.7915L45.4392 81.5087L76.9751 50.8578L76.2781 50.1407ZM76.5996 49.9375L76.3766 50.0663L76.8766 50.9323L77.0996 50.8036L76.5996 49.9375ZM76.384 50.5642L76.4166 50.6206L77.2826 50.1205L77.25 50.0642L76.384 50.5642ZM76.6498 49.7794L76.4685 49.9556L77.1655 50.6727L77.3468 50.4965L76.6498 49.7794ZM75.9427 49.7693L76.6397 50.4865L77.3568 49.7895L76.6598 49.0723L75.9427 49.7693ZM47.5581 0.63623L75.8682 49.6708L76.7343 49.1708L48.4241 0.13623L47.5581 0.63623Z" fill="#646464" mask="url(#path-1-inside-1_419_3989)"/>
</svg>
