<svg width="77" height="82" viewBox="0 0 77 82" fill="none" xmlns="http://www.w3.org/2000/svg">
<mask id="path-1-inside-1_419_4234" fill="white">
<path fill-rule="evenodd" clip-rule="evenodd" d="M47.9911 0.75L40.4547 5.10113L65.8924 49.1605L41.088 73.2689H0.90625L0.90625 81.9711H45.0907V81.5139L76.6266 50.863L76.8496 50.7343L76.817 50.678L76.9983 50.5018L76.3012 49.7846L47.9911 0.75Z"/>
</mask>
<path fill-rule="evenodd" clip-rule="evenodd" d="M47.9911 0.75L40.4547 5.10113L65.8924 49.1605L41.088 73.2689H0.90625L0.90625 81.9711H45.0907V81.5139L76.6266 50.863L76.8496 50.7343L76.817 50.678L76.9983 50.5018L76.3012 49.7846L47.9911 0.75Z" fill="#D9D9D9"/>
<path d="M40.4547 5.10113L40.2047 4.66812L39.7717 4.91812L40.0217 5.35113L40.4547 5.10113ZM47.9911 0.75L48.4241 0.5L48.1741 0.0669873L47.7411 0.316987L47.9911 0.75ZM65.8924 49.1605L66.2409 49.5191L66.5201 49.2477L66.3255 48.9105L65.8924 49.1605ZM41.088 73.2689V73.7689H41.291L41.4365 73.6274L41.088 73.2689ZM0.90625 73.2689V72.7689H0.40625V73.2689H0.90625ZM0.90625 81.9711H0.40625V82.4711H0.90625V81.9711ZM45.0907 81.9711V82.4711H45.5907V81.9711H45.0907ZM45.0907 81.5139L44.7422 81.1553L44.5907 81.3026V81.5139H45.0907ZM76.6266 50.863L76.3766 50.43L76.3227 50.4611L76.2781 50.5045L76.6266 50.863ZM76.8496 50.7343L77.0996 51.1673L77.5326 50.9173L77.2826 50.4843L76.8496 50.7343ZM76.817 50.678L76.4685 50.3194L76.1893 50.5908L76.384 50.928L76.817 50.678ZM76.9983 50.5018L77.3468 50.8603L77.7053 50.5118L77.3568 50.1533L76.9983 50.5018ZM76.3012 49.7846L75.8682 50.0346L75.8993 50.0885L75.9427 50.1331L76.3012 49.7846ZM40.7047 5.53414L48.2411 1.18301L47.7411 0.316987L40.2047 4.66812L40.7047 5.53414ZM66.3255 48.9105L40.8877 4.85113L40.0217 5.35113L65.4594 49.4105L66.3255 48.9105ZM41.4365 73.6274L66.2409 49.5191L65.544 48.802L40.7395 72.9103L41.4365 73.6274ZM41.088 72.7689H0.90625V73.7689H41.088V72.7689ZM0.40625 73.2689L0.40625 81.9711H1.40625L1.40625 73.2689H0.40625ZM0.90625 82.4711H45.0907V81.4711H0.90625V82.4711ZM45.5907 81.9711V81.5139H44.5907V81.9711H45.5907ZM76.2781 50.5045L44.7422 81.1553L45.4392 81.8724L76.9751 51.2216L76.2781 50.5045ZM76.5996 50.3013L76.3766 50.43L76.8766 51.2961L77.0996 51.1673L76.5996 50.3013ZM76.384 50.928L76.4166 50.9843L77.2826 50.4843L77.25 50.4279L76.384 50.928ZM76.6498 50.1432L76.4685 50.3194L77.1655 51.0365L77.3468 50.8603L76.6498 50.1432ZM75.9427 50.1331L76.6397 50.8503L77.3568 50.1533L76.6598 49.4361L75.9427 50.1331ZM47.5581 1L75.8682 50.0346L76.7343 49.5346L48.4241 0.5L47.5581 1Z" fill="#646464" mask="url(#path-1-inside-1_419_4234)"/>
</svg>
