<svg width="77" height="82" viewBox="0 0 77 82" fill="none" xmlns="http://www.w3.org/2000/svg">
<mask id="path-1-inside-1_419_4230" fill="white">
<path fill-rule="evenodd" clip-rule="evenodd" d="M29.0072 0.75L36.5436 5.10113L11.1059 49.1605L35.9103 73.2689H76.092V81.9711H31.9076V81.5139L0.371699 50.863L0.148737 50.7343L0.181273 50.678L0 50.5018L0.697067 49.7846L29.0072 0.75Z"/>
</mask>
<path fill-rule="evenodd" clip-rule="evenodd" d="M29.0072 0.75L36.5436 5.10113L11.1059 49.1605L35.9103 73.2689H76.092V81.9711H31.9076V81.5139L0.371699 50.863L0.148737 50.7343L0.181273 50.678L0 50.5018L0.697067 49.7846L29.0072 0.75Z" fill="#D9D9D9"/>
<path d="M36.5436 5.10113L36.9766 5.35113L37.2266 4.91812L36.7936 4.66812L36.5436 5.10113ZM29.0072 0.75L29.2572 0.316987L28.8242 0.0669873L28.5742 0.5L29.0072 0.75ZM11.1059 49.1605L10.6728 48.9105L10.4782 49.2477L10.7574 49.5191L11.1059 49.1605ZM35.9103 73.2689L35.5618 73.6274L35.7073 73.7689H35.9103V73.2689ZM76.092 73.2689H76.592V72.7689H76.092V73.2689ZM76.092 81.9711V82.4711H76.592V81.9711H76.092ZM31.9076 81.9711H31.4076V82.4711H31.9076V81.9711ZM31.9076 81.5139H32.4076V81.3026L32.2561 81.1553L31.9076 81.5139ZM0.371699 50.863L0.720185 50.5045L0.675574 50.4611L0.621699 50.43L0.371699 50.863ZM0.148737 50.7343L-0.284276 50.4843L-0.534275 50.9173L-0.101263 51.1673L0.148737 50.7343ZM0.181273 50.678L0.614286 50.928L0.808959 50.5908L0.529759 50.3194L0.181273 50.678ZM0 50.5018L-0.358549 50.1533L-0.707036 50.5118L-0.348486 50.8603L0 50.5018ZM0.697067 49.7846L1.05562 50.1331L1.09897 50.0884L1.13008 50.0346L0.697067 49.7846ZM36.7936 4.66812L29.2572 0.316987L28.7572 1.18301L36.2936 5.53414L36.7936 4.66812ZM11.5389 49.4105L36.9766 5.35113L36.1106 4.85113L10.6728 48.9105L11.5389 49.4105ZM36.2588 72.9103L11.4543 48.802L10.7574 49.5191L35.5618 73.6274L36.2588 72.9103ZM35.9103 73.7689H76.092V72.7689H35.9103V73.7689ZM75.592 73.2689V81.9711H76.592V73.2689H75.592ZM76.092 81.4711H31.9076V82.4711H76.092V81.4711ZM32.4076 81.9711V81.5139H31.4076V81.9711H32.4076ZM0.0232122 51.2216L31.5591 81.8724L32.2561 81.1553L0.720185 50.5045L0.0232122 51.2216ZM-0.101263 51.1673L0.121699 51.296L0.621699 50.43L0.398737 50.3013L-0.101263 51.1673ZM-0.25174 50.428L-0.284276 50.4843L0.58175 50.9843L0.614286 50.928L-0.25174 50.428ZM-0.348486 50.8603L-0.167213 51.0365L0.529759 50.3194L0.348486 50.1432L-0.348486 50.8603ZM0.338518 49.4361L-0.358549 50.1533L0.358549 50.8503L1.05562 50.1331L0.338518 49.4361ZM28.5742 0.5L0.264054 49.5346L1.13008 50.0346L29.4402 1L28.5742 0.5Z" fill="#646464" mask="url(#path-1-inside-1_419_4230)"/>
</svg>
