<svg width="56" height="95" viewBox="0 0 56 95" fill="none" xmlns="http://www.w3.org/2000/svg">
<mask id="path-1-inside-1_419_4007" fill="white">
<path fill-rule="evenodd" clip-rule="evenodd" d="M50.7303 0.653498L55.0815 8.18988L11.0221 33.6276L20.4492 66.9082L55.2476 86.9991L50.8965 94.5355L12.6316 72.4432L12.8602 72.0472L0.874759 29.7349L0.746032 29.5119L0.802386 29.4794L0.733492 29.2362L1.69577 28.9636L50.7303 0.653498Z"/>
</mask>
<path fill-rule="evenodd" clip-rule="evenodd" d="M50.7303 0.653498L55.0815 8.18988L11.0221 33.6276L20.4492 66.9082L55.2476 86.9991L50.8965 94.5355L12.6316 72.4432L12.8602 72.0472L0.874759 29.7349L0.746032 29.5119L0.802386 29.4794L0.733492 29.2362L1.69577 28.9636L50.7303 0.653498Z" fill="#D9D9D9"/>
<path d="M55.0815 8.18988L55.3315 8.62289L55.7645 8.37289L55.5145 7.93988L55.0815 8.18988ZM50.7303 0.653498L51.1634 0.403498L50.9134 -0.0295147L50.4803 0.220485L50.7303 0.653498ZM11.0221 33.6276L10.7721 33.1946L10.4349 33.3893L10.541 33.7639L11.0221 33.6276ZM20.4492 66.9082L19.9681 67.0445L20.0234 67.2398L20.1992 67.3412L20.4492 66.9082ZM55.2476 86.9991L55.6806 87.2491L55.9306 86.8161L55.4976 86.5661L55.2476 86.9991ZM50.8965 94.5355L50.6465 94.9685L51.0795 95.2185L51.3295 94.7855L50.8965 94.5355ZM12.6316 72.4432L12.1986 72.1932L11.9486 72.6263L12.3816 72.8763L12.6316 72.4432ZM12.8602 72.0472L13.2932 72.2972L13.3989 72.1143L13.3413 71.911L12.8602 72.0472ZM0.874759 29.7349L1.35583 29.5986L1.33888 29.5388L1.30777 29.4849L0.874759 29.7349ZM0.746032 29.5119L0.496031 29.0789L0.0630191 29.3289L0.313018 29.762L0.746032 29.5119ZM0.802386 29.4794L1.05239 29.9124L1.38957 29.7178L1.28346 29.3431L0.802386 29.4794ZM0.733492 29.2362L0.597224 28.7551L0.11615 28.8914L0.25242 29.3725L0.733492 29.2362ZM1.69577 28.9636L1.83203 29.4447L1.89189 29.4277L1.94577 29.3966L1.69577 28.9636ZM55.5145 7.93988L51.1634 0.403498L50.2973 0.903498L54.6485 8.43988L55.5145 7.93988ZM11.2721 34.0606L55.3315 8.62289L54.8315 7.75687L10.7721 33.1946L11.2721 34.0606ZM20.9302 66.772L11.5031 33.4913L10.541 33.7639L19.9681 67.0445L20.9302 66.772ZM20.1992 67.3412L54.9976 87.4321L55.4976 86.5661L20.6992 66.4752L20.1992 67.3412ZM54.8146 86.7491L50.4634 94.2855L51.3295 94.7855L55.6806 87.2491L54.8146 86.7491ZM51.1465 94.1025L12.8816 72.0102L12.3816 72.8763L50.6465 94.9685L51.1465 94.1025ZM13.0646 72.6932L13.2932 72.2972L12.4272 71.7972L12.1986 72.1932L13.0646 72.6932ZM0.393687 29.8712L12.3791 72.1835L13.3413 71.911L1.35583 29.5986L0.393687 29.8712ZM0.313018 29.762L0.441745 29.9849L1.30777 29.4849L1.17905 29.2619L0.313018 29.762ZM0.552386 29.0464L0.496031 29.0789L0.996032 29.945L1.05239 29.9124L0.552386 29.0464ZM0.25242 29.3725L0.321315 29.6157L1.28346 29.3431L1.21456 29.0999L0.25242 29.3725ZM1.5595 28.4825L0.597224 28.7551L0.86976 29.7173L1.83203 29.4447L1.5595 28.4825ZM50.4803 0.220485L1.44577 28.5306L1.94577 29.3966L50.9803 1.08651L50.4803 0.220485Z" fill="#646464" mask="url(#path-1-inside-1_419_4007)"/>
</svg>
