<svg width="55" height="95" viewBox="0 0 55 95" fill="none" xmlns="http://www.w3.org/2000/svg">
<mask id="path-1-inside-1_419_4011" fill="white">
<path fill-rule="evenodd" clip-rule="evenodd" d="M4.77668 0.653372L0.425551 8.18975L44.485 33.6275L35.0579 66.9081L0.259434 86.999L4.61057 94.5354L42.8754 72.4431L42.6468 72.0471L54.6323 29.7348L54.761 29.5118L54.7046 29.4793L54.7735 29.2361L53.8113 28.9635L4.77668 0.653372Z"/>
</mask>
<path fill-rule="evenodd" clip-rule="evenodd" d="M4.77668 0.653372L0.425551 8.18975L44.485 33.6275L35.0579 66.9081L0.259434 86.999L4.61057 94.5354L42.8754 72.4431L42.6468 72.0471L54.6323 29.7348L54.761 29.5118L54.7046 29.4793L54.7735 29.2361L53.8113 28.9635L4.77668 0.653372Z" fill="#D9D9D9"/>
<path d="M0.425551 8.18975L-0.00746145 7.93975L-0.257462 8.37277L0.17555 8.62277L0.425551 8.18975ZM4.77668 0.653372L5.02668 0.220358L4.59367 -0.0296415L4.34367 0.403372L4.77668 0.653372ZM44.485 33.6275L44.966 33.7637L45.0721 33.3891L44.735 33.1945L44.485 33.6275ZM35.0579 66.9081L35.3079 67.3411L35.4836 67.2396L35.5389 67.0444L35.0579 66.9081ZM0.259434 86.999L0.00943375 86.566L-0.423579 86.816L-0.173579 87.249L0.259434 86.999ZM4.61057 94.5354L4.17755 94.7854L4.42755 95.2184L4.86057 94.9684L4.61057 94.5354ZM42.8754 72.4431L43.1254 72.8761L43.5585 72.6261L43.3085 72.1931L42.8754 72.4431ZM42.6468 72.0471L42.1657 71.9109L42.1082 72.1141L42.2138 72.2971L42.6468 72.0471ZM54.6323 29.7348L54.1992 29.4848L54.1681 29.5387L54.1512 29.5985L54.6323 29.7348ZM54.761 29.5118L55.194 29.7618L55.444 29.3288L55.011 29.0788L54.761 29.5118ZM54.7046 29.4793L54.2236 29.343L54.1174 29.7176L54.4547 29.9123L54.7046 29.4793ZM54.7735 29.2361L55.2546 29.3723L55.3909 28.8913L54.9098 28.755L54.7735 29.2361ZM53.8113 28.9635L53.5613 29.3965L53.6151 29.4276L53.675 29.4446L53.8113 28.9635ZM0.858564 8.43975L5.2097 0.903372L4.34367 0.403372L-0.00746145 7.93975L0.858564 8.43975ZM44.735 33.1945L0.675552 7.75674L0.17555 8.62277L44.235 34.0605L44.735 33.1945ZM35.5389 67.0444L44.966 33.7637L44.0039 33.4912L34.5768 66.7718L35.5389 67.0444ZM34.8079 66.4751L0.00943375 86.566L0.509434 87.432L35.3079 67.3411L34.8079 66.4751ZM-0.173579 87.249L4.17755 94.7854L5.04358 94.2854L0.692446 86.749L-0.173579 87.249ZM4.86057 94.9684L43.1254 72.8761L42.6254 72.0101L4.36057 94.1023L4.86057 94.9684ZM43.3085 72.1931L43.0798 71.7971L42.2138 72.2971L42.4424 72.6931L43.3085 72.1931ZM54.1512 29.5985L42.1657 71.9109L43.1279 72.1834L55.1133 29.8711L54.1512 29.5985ZM54.328 29.2618L54.1992 29.4848L55.0653 29.9848L55.194 29.7618L54.328 29.2618ZM54.4547 29.9123L54.511 29.9448L55.011 29.0788L54.9546 29.0463L54.4547 29.9123ZM54.2925 29.0998L54.2236 29.343L55.1857 29.6156L55.2546 29.3723L54.2925 29.0998ZM53.675 29.4446L54.6373 29.7171L54.9098 28.755L53.9475 28.4824L53.675 29.4446ZM4.52668 1.08639L53.5613 29.3965L54.0613 28.5305L5.02668 0.220358L4.52668 1.08639Z" fill="#646464" mask="url(#path-1-inside-1_419_4011)"/>
</svg>
