<?xml version="1.0" encoding="UTF-8"?>
<svg id="Layer_2" data-name="Layer 2" xmlns="http://www.w3.org/2000/svg" viewBox="0 0 232.87087 99.87508">
  <defs>
    <style>
      .cls-1 {
        fill: #005d8d;
      }

      .cls-2 {
        fill: #ee50a8;
      }

      .cls-3 {
        fill: #ffba00;
      }

      .cls-4 {
        fill: #ff8b03;
      }

      .cls-5 {
        fill: #ff7dbe;
      }

      .cls-6 {
        fill: #7da710;
      }

      .cls-7 {
        fill: #bfce3a;
      }

      .cls-8 {
        fill: #599dcd;
      }

      .cls-9 {
        fill: none;
        stroke: #000;
        stroke-linejoin: bevel;
        stroke-width: 2px;
      }

      .cls-10 {
        fill: #f6f8f9;
        opacity: .5;
      }

      .cls-11 {
        fill: #e9d8ce;
        opacity: .35;
      }
    </style>
  </defs>
  <g id="Layer_8" data-name="Layer 8">
    <g>
      <g>
        <path class="cls-1" d="m138.01077,32.27938c-2.60161,12.02922-13.19425,20.27201-25.01042,20.36027-1.87054.02216-3.76988-.17108-5.68007-.58421-2.87749-.62233-5.53923-1.70008-7.92731-3.15352-1.05837-.63906-2.05932-1.34904-3.00489-2.12242-3.67064-3.02791-6.44102-7.00724-7.99919-11.48569-.76026-2.17234-1.22816-4.45733-1.38078-6.80792-.14809-2.33286.01757-4.72329.53616-7.12113,2.85226-13.18813,15.3214-21.82825,28.4559-20.15885.74112.09329,1.49132.22204,2.23479.38283,4.65167,1.00604,8.7365,3.20311,11.99371,6.20839,1.36147,1.24837,2.5766,2.63217,3.62631,4.12257,2.26941,3.20161,3.79478,6.9033,4.42472,10.83804.34939,2.17561.41531,4.4237.18257,6.69932-.09481.94178-.24751,1.87922-.45148,2.82232Z"/>
        <g>
          <path class="cls-8" d="m116.00016,1.20591l-28.99206,27.27998c-.14809-2.33286.01757-4.72329.53616-7.12113,2.85226-13.18813,15.3214-21.82825,28.4559-20.15885Z"/>
          <path class="cls-8" d="m133.85497,11.9197c-4.85559,2.91565-15.31266,9.44743-21.49597,15.09639-6.09034,5.56857-12.84473,15.13498-15.97091,19.76341-3.67064-3.02791-6.44102-7.00724-7.99919-11.48569,3.93923-3.39817,13.85344-11.82957,19.27933-15.52534,5.34506-3.62991,17.41999-9.51888,22.56044-11.97134,1.36147,1.24837,2.5766,2.63217,3.62631,4.12257Z"/>
          <path class="cls-8" d="m138.46225,29.45707c-4.9338,3.19982-10.82803,7.27984-14.86498,10.97492-3.58962,3.28995-7.42244,7.97451-10.59692,12.20766-1.87054.02216-3.76988-.17108-5.68007-.58421-2.87749-.62233-5.53923-1.70008-7.92731-3.15352,3.77344-3.25019,13.9804-11.95286,19.51352-15.71756,4.42414-3.00896,13.47574-7.569,19.37319-10.42662.34939,2.17561.41531,4.4237.18257,6.69932Z"/>
        </g>
        <path class="cls-11" d="m133.58931,30.13556c-2.23742,10.34528-11.34722,17.43418-21.50928,17.51009-1.60869.01906-3.24214-.14713-4.88493-.50242-2.47468-.53521-4.76381-1.46209-6.81759-2.71207-.91021-.5496-1.77104-1.1602-2.58424-1.82531-3.1568-2.60404-5.53936-6.02631-6.87941-9.87784-.65383-1.86824-1.05623-3.83336-1.18749-5.8549-.12736-2.00629.01511-4.06209.4611-6.12426,2.45298-11.34196,13.1766-18.77257,24.47243-17.33686.63737.08023,1.28255.19095,1.92195.32924,4.0005.86521,7.5135,2.75471,10.31474,5.3393,1.17088,1.07361,2.21591,2.2637,3.11867,3.54546,1.95172,2.75342,3.26356,5.93693,3.80531,9.32085.30048,1.87105.35717,3.80444.15701,5.7615-.08154.80995-.21286,1.61615-.38828,2.42723Z"/>
        <path class="cls-10" d="m95.21934,26.08754c1.36558-6.3141,5.46803-11.27634,10.65092-13.73711,2.91274-1.3835,6.16727-1.97851,9.46948-1.57611.51387.05962,1.03055.14719,1.54784.25907,5.52319,1.19452,9.85903,4.99207,12.16048,9.95963-1.5434-6.81862-6.58887-12.36622-13.48432-13.85753-.51729-.11188-1.03398-.19941-1.54784-.25907-3.30221-.40236-6.55675.19265-9.46955,1.5761-5.18283,2.46081-9.28528,7.42305-10.65086,13.73716-.97224,4.49542-.39617,8.93844,1.35043,12.70798-.63113-2.78764-.68049-5.78659-.02658-8.81011Z"/>
        <path class="cls-9" d="m138.01077,32.27938c-2.60161,12.02922-13.19425,20.27201-25.01042,20.36027-1.87054.02216-3.76988-.17108-5.68007-.58421-2.87749-.62233-5.53923-1.70008-7.92731-3.15352-1.05837-.63906-2.05932-1.34904-3.00489-2.12242-3.67064-3.02791-6.44102-7.00724-7.99919-11.48569-.76026-2.17234-1.22816-4.45733-1.38078-6.80792-.14809-2.33286.01757-4.72329.53616-7.12113,2.85226-13.18813,15.3214-21.82825,28.4559-20.15885.74112.09329,1.49132.22204,2.23479.38283,4.65167,1.00604,8.7365,3.20311,11.99371,6.20839,1.36147,1.24837,2.5766,2.63217,3.62631,4.12257,2.26941,3.20161,3.79478,6.9033,4.42472,10.83804.34939,2.17561.41531,4.4237.18257,6.69932-.09481.94178-.24751,1.87922-.45148,2.82232Z"/>
      </g>
      <g>
        <path class="cls-6" d="m231.28245,51.06104c-2.60161,12.02922-13.19425,20.27201-25.01042,20.36027-1.87054.02216-3.76988-.17108-5.68007-.58421-2.87749-.62233-5.53923-1.70008-7.92731-3.15352-1.05837-.63906-2.05932-1.34904-3.00489-2.12242-3.67064-3.02791-6.44102-7.00724-7.99919-11.48569-.76026-2.17234-1.22816-4.45733-1.38078-6.80792-.14809-2.33286.01757-4.72329.53616-7.12113,2.85226-13.18813,15.3214-21.82825,28.4559-20.15885.74112.09329,1.49132.22204,2.23479.38283,4.65167,1.00604,8.7365,3.20311,11.99371,6.20839,1.36147,1.24837,2.5766,2.63217,3.62631,4.12257,2.26941,3.20161,3.79478,6.9033,4.42472,10.83804.34939,2.17561.41531,4.4237.18257,6.69932-.09481.94178-.24751,1.87922-.45148,2.82232Z"/>
        <g>
          <path class="cls-7" d="m209.27184,19.98757l-28.99206,27.27998c-.14809-2.33286.01757-4.72329.53616-7.12113,2.85226-13.18813,15.3214-21.82825,28.4559-20.15885Z"/>
          <path class="cls-7" d="m227.12665,30.70136c-4.85559,2.91565-15.31266,9.44743-21.49597,15.09639-6.09034,5.56857-12.84473,15.13498-15.97091,19.76341-3.67064-3.02791-6.44102-7.00724-7.99919-11.48569,3.93923-3.39817,13.85344-11.82957,19.27933-15.52534,5.34506-3.62991,17.41999-9.51888,22.56044-11.97134,1.36147,1.24837,2.5766,2.63217,3.62631,4.12257Z"/>
          <path class="cls-7" d="m231.73393,48.23872c-4.9338,3.19982-10.82803,7.27984-14.86498,10.97492-3.58962,3.28995-7.42244,7.97451-10.59692,12.20766-1.87054.02216-3.76988-.17108-5.68007-.58421-2.87749-.62233-5.53923-1.70008-7.92731-3.15352,3.77344-3.25019,13.9804-11.95286,19.51352-15.71756,4.42414-3.00896,13.47574-7.569,19.37319-10.42662.34939,2.17561.41531,4.4237.18257,6.69932Z"/>
        </g>
        <path class="cls-11" d="m226.86099,48.91722c-2.23742,10.34528-11.34722,17.43418-21.50928,17.51009-1.60869.01906-3.24214-.14713-4.88493-.50242-2.47468-.53521-4.76381-1.46209-6.81759-2.71207-.91021-.5496-1.77104-1.1602-2.58424-1.82531-3.1568-2.60404-5.53936-6.02631-6.87941-9.87784-.65383-1.86824-1.05623-3.83336-1.18749-5.8549-.12736-2.00629.01511-4.06209.4611-6.12426,2.45298-11.34196,13.1766-18.77257,24.47243-17.33686.63737.08023,1.28255.19095,1.92195.32924,4.0005.86521,7.5135,2.75471,10.31474,5.3393,1.17088,1.07361,2.21591,2.2637,3.11867,3.54546,1.95172,2.75342,3.26356,5.93693,3.80531,9.32085.30048,1.87105.35717,3.80444.15701,5.7615-.08154.80995-.21286,1.61615-.38828,2.42723Z"/>
        <path class="cls-10" d="m188.49102,44.8692c1.36558-6.3141,5.46803-11.27634,10.65092-13.73711,2.91274-1.3835,6.16727-1.97851,9.46948-1.57611.51387.05962,1.03055.14719,1.54784.25907,5.52319,1.19452,9.85903,4.99207,12.16048,9.95963-1.5434-6.81862-6.58887-12.36622-13.48432-13.85753-.51729-.11188-1.03398-.19941-1.54784-.25907-3.30221-.40236-6.55675.19265-9.46955,1.5761-5.18283,2.46081-9.28528,7.42305-10.65086,13.73716-.97224,4.49542-.39617,8.93844,1.35043,12.70798-.63113-2.78764-.68049-5.78659-.02658-8.81011Z"/>
        <path class="cls-9" d="m231.28245,51.06104c-2.60161,12.02922-13.19425,20.27201-25.01042,20.36027-1.87054.02216-3.76988-.17108-5.68007-.58421-2.87749-.62233-5.53923-1.70008-7.92731-3.15352-1.05837-.63906-2.05932-1.34904-3.00489-2.12242-3.67064-3.02791-6.44102-7.00724-7.99919-11.48569-.76026-2.17234-1.22816-4.45733-1.38078-6.80792-.14809-2.33286.01757-4.72329.53616-7.12113,2.85226-13.18813,15.3214-21.82825,28.4559-20.15885.74112.09329,1.49132.22204,2.23479.38283,4.65167,1.00604,8.7365,3.20311,11.99371,6.20839,1.36147,1.24837,2.5766,2.63217,3.62631,4.12257,2.26941,3.20161,3.79478,6.9033,4.42472,10.83804.34939,2.17561.41531,4.4237.18257,6.69932-.09481.94178-.24751,1.87922-.45148,2.82232Z"/>
      </g>
      <g>
        <path class="cls-4" d="m52.05459,78.5131c-2.60161,12.02922-13.19425,20.27201-25.01042,20.36027-1.87054.02216-3.76988-.17108-5.68007-.58421-2.87749-.62233-5.53923-1.70008-7.92731-3.15352-1.05837-.63906-2.05932-1.34904-3.00489-2.12242-3.67064-3.02791-6.44102-7.00724-7.99919-11.48569-.76026-2.17234-1.22816-4.45733-1.38078-6.80792-.14809-2.33286.01757-4.72329.53616-7.12113,2.85226-13.18813,15.3214-21.82825,28.4559-20.15885.74112.09329,1.49132.22204,2.23479.38283,4.65167,1.00604,8.7365,3.20311,11.99371,6.20839,1.36147,1.24837,2.5766,2.63217,3.62631,4.12257,2.26941,3.20161,3.79478,6.9033,4.42472,10.83804.34939,2.17561.41531,4.4237.18257,6.69932-.09481.94178-.24751,1.87922-.45148,2.82232Z"/>
        <g>
          <path class="cls-3" d="m30.04398,47.43963L1.05192,74.71961c-.14809-2.33286.01757-4.72329.53616-7.12113,2.85226-13.18813,15.3214-21.82825,28.4559-20.15885Z"/>
          <path class="cls-3" d="m47.89878,58.15343c-4.85559,2.91565-15.31266,9.44743-21.49597,15.09639-6.09034,5.56857-12.84473,15.13498-15.97091,19.76341-3.67064-3.02791-6.44102-7.00724-7.99919-11.48569,3.93923-3.39817,13.85344-11.82957,19.27933-15.52534,5.34506-3.62991,17.41999-9.51888,22.56044-11.97134,1.36147,1.24837,2.5766,2.63217,3.62631,4.12257Z"/>
          <path class="cls-3" d="m52.50606,75.69079c-4.9338,3.19982-10.82803,7.27984-14.86498,10.97492-3.58962,3.28995-7.42244,7.97451-10.59692,12.20766-1.87054.02216-3.76988-.17108-5.68007-.58421-2.87749-.62233-5.53923-1.70008-7.92731-3.15352,3.77344-3.25019,13.9804-11.95286,19.51352-15.71756,4.42414-3.00896,13.47574-7.569,19.37319-10.42662.34939,2.17561.41531,4.4237.18257,6.69932Z"/>
        </g>
        <path class="cls-11" d="m47.63312,76.36928c-2.23742,10.34528-11.34722,17.43418-21.50928,17.51009-1.60869.01906-3.24214-.14713-4.88493-.50242-2.47468-.53521-4.76381-1.46209-6.81759-2.71207-.91021-.5496-1.77104-1.1602-2.58424-1.82531-3.1568-2.60404-5.53936-6.02631-6.87941-9.87784-.65383-1.86824-1.05623-3.83336-1.18749-5.8549-.12736-2.00629.01511-4.06209.4611-6.12426,2.45298-11.34196,13.1766-18.77257,24.47243-17.33686.63737.08023,1.28255.19095,1.92195.32924,4.0005.86521,7.5135,2.75471,10.31474,5.3393,1.17088,1.07361,2.21591,2.2637,3.11867,3.54546,1.95172,2.75342,3.26356,5.93693,3.80531,9.32085.30048,1.87105.35717,3.80444.15701,5.7615-.08154.80995-.21286,1.61615-.38828,2.42723Z"/>
        <path class="cls-10" d="m9.26315,72.32126c1.36558-6.3141,5.46803-11.27634,10.65092-13.73711,2.91274-1.3835,6.16727-1.97851,9.46948-1.57611.51387.05962,1.03055.14719,1.54784.25907,5.52319,1.19452,9.85903,4.99207,12.16048,9.95963-1.5434-6.81862-6.58887-12.36622-13.48432-13.85753-.51729-.11188-1.03398-.19941-1.54784-.25907-3.30221-.40236-6.55675.19265-9.46955,1.5761-5.18283,2.46081-9.28528,7.42305-10.65086,13.73716-.97224,4.49542-.39617,8.93844,1.35043,12.70798-.63113-2.78764-.68049-5.78659-.02658-8.81011Z"/>
        <path class="cls-9" d="m52.05459,78.5131c-2.60161,12.02922-13.19425,20.27201-25.01042,20.36027-1.87054.02216-3.76988-.17108-5.68007-.58421-2.87749-.62233-5.53923-1.70008-7.92731-3.15352-1.05837-.63906-2.05932-1.34904-3.00489-2.12242-3.67064-3.02791-6.44102-7.00724-7.99919-11.48569-.76026-2.17234-1.22816-4.45733-1.38078-6.80792-.14809-2.33286.01757-4.72329.53616-7.12113,2.85226-13.18813,15.3214-21.82825,28.4559-20.15885.74112.09329,1.49132.22204,2.23479.38283,4.65167,1.00604,8.7365,3.20311,11.99371,6.20839,1.36147,1.24837,2.5766,2.63217,3.62631,4.12257,2.26941,3.20161,3.79478,6.9033,4.42472,10.83804.34939,2.17561.41531,4.4237.18257,6.69932-.09481.94178-.24751,1.87922-.45148,2.82232Z"/>
      </g>
      <g>
        <path class="cls-2" d="m159.88221,67.63423c-2.60161,12.02922-13.19425,20.27201-25.01042,20.36027-1.87054.02216-3.76988-.17108-5.68007-.58421-2.87749-.62233-5.53923-1.70008-7.92731-3.15352-1.05837-.63906-2.05932-1.34904-3.00489-2.12242-3.67064-3.02791-6.44102-7.00724-7.99919-11.48569-.76026-2.17234-1.22816-4.45733-1.38078-6.80792-.14809-2.33286.01757-4.72329.53616-7.12113,2.85226-13.18813,15.3214-21.82825,28.4559-20.15885.74112.09329,1.49132.22204,2.23479.38283,4.65167,1.00604,8.7365,3.20311,11.99371,6.20839,1.36147,1.24837,2.5766,2.63217,3.62631,4.12257,2.26941,3.20161,3.79478,6.9033,4.42472,10.83804.34939,2.17561.41531,4.4237.18257,6.69932-.09481.94178-.24751,1.87922-.45148,2.82232Z"/>
        <g>
          <path class="cls-5" d="m137.8716,36.56076l-28.99206,27.27998c-.14809-2.33286.01757-4.72329.53616-7.12113,2.85226-13.18813,15.3214-21.82825,28.4559-20.15885Z"/>
          <path class="cls-5" d="m155.72641,47.27455c-4.85559,2.91565-15.31266,9.44743-21.49597,15.09639-6.09034,5.56857-12.84473,15.13498-15.97091,19.76341-3.67064-3.02791-6.44102-7.00724-7.99919-11.48569,3.93923-3.39817,13.85344-11.82957,19.27933-15.52534,5.34506-3.62991,17.41999-9.51888,22.56044-11.97134,1.36147,1.24837,2.5766,2.63217,3.62631,4.12257Z"/>
          <path class="cls-5" d="m160.33369,64.81191c-4.9338,3.19982-10.82803,7.27984-14.86498,10.97492-3.58962,3.28995-7.42244,7.97451-10.59692,12.20766-1.87054.02216-3.76988-.17108-5.68007-.58421-2.87749-.62233-5.53923-1.70008-7.92731-3.15352,3.77344-3.25019,13.9804-11.95286,19.51352-15.71756,4.42414-3.00896,13.47574-7.569,19.37319-10.42662.34939,2.17561.41531,4.4237.18257,6.69932Z"/>
        </g>
        <path class="cls-11" d="m155.46075,65.49041c-2.23742,10.34528-11.34722,17.43418-21.50928,17.51009-1.60869.01906-3.24214-.14713-4.88493-.50242-2.47468-.53521-4.76381-1.46209-6.81759-2.71207-.91021-.5496-1.77104-1.1602-2.58424-1.82531-3.1568-2.60404-5.53936-6.02631-6.87941-9.87784-.65383-1.86824-1.05623-3.83336-1.18749-5.8549-.12736-2.00629.01511-4.06209.4611-6.12426,2.45298-11.34196,13.1766-18.77257,24.47243-17.33686.63737.08023,1.28255.19095,1.92195.32924,4.0005.86521,7.5135,2.75471,10.31474,5.3393,1.17088,1.07361,2.21591,2.2637,3.11867,3.54546,1.95172,2.75342,3.26356,5.93693,3.80531,9.32085.30048,1.87105.35717,3.80444.15701,5.7615-.08154.80995-.21286,1.61615-.38828,2.42723Z"/>
        <path class="cls-10" d="m117.09078,61.44239c1.36558-6.3141,5.46803-11.27634,10.65092-13.73711,2.91274-1.3835,6.16727-1.97851,9.46948-1.57611.51387.05962,1.03055.14719,1.54784.25907,5.52319,1.19452,9.85903,4.99207,12.16048,9.95963-1.5434-6.81862-6.58887-12.36622-13.48432-13.85753-.51729-.11188-1.03398-.19941-1.54784-.25907-3.30221-.40236-6.55675.19265-9.46955,1.5761-5.18283,2.46081-9.28528,7.42305-10.65086,13.73716-.97224,4.49542-.39617,8.93844,1.35043,12.70798-.63113-2.78764-.68049-5.78659-.02658-8.81011Z"/>
        <path class="cls-9" d="m159.88221,67.63423c-2.60161,12.02922-13.19425,20.27201-25.01042,20.36027-1.87054.02216-3.76988-.17108-5.68007-.58421-2.87749-.62233-5.53923-1.70008-7.92731-3.15352-1.05837-.63906-2.05932-1.34904-3.00489-2.12242-3.67064-3.02791-6.44102-7.00724-7.99919-11.48569-.76026-2.17234-1.22816-4.45733-1.38078-6.80792-.14809-2.33286.01757-4.72329.53616-7.12113,2.85226-13.18813,15.3214-21.82825,28.4559-20.15885.74112.09329,1.49132.22204,2.23479.38283,4.65167,1.00604,8.7365,3.20311,11.99371,6.20839,1.36147,1.24837,2.5766,2.63217,3.62631,4.12257,2.26941,3.20161,3.79478,6.9033,4.42472,10.83804.34939,2.17561.41531,4.4237.18257,6.69932-.09481.94178-.24751,1.87922-.45148,2.82232Z"/>
      </g>
    </g>
  </g>
</svg>