<?xml version="1.0" encoding="UTF-8"?>
<svg id="Layer_2" data-name="Layer 2" xmlns="http://www.w3.org/2000/svg" viewBox="0 0 171.57196 52.5108">
  <defs>
    <style>
      .cls-1 {
        fill: #6e502c;
      }

      .cls-2 {
        fill: #5d3e1f;
      }

      .cls-3 {
        fill: #482f1c;
      }

      .cls-4 {
        fill: #2d1e12;
      }

      .cls-5 {
        fill: #7c603b;
      }

      .cls-6 {
        stroke: #482f1c;
        stroke-width: .75px;
      }

      .cls-6, .cls-7 {
        stroke-miterlimit: 10;
      }

      .cls-6, .cls-7, .cls-8 {
        fill: none;
      }

      .cls-7 {
        stroke: #5d3e1f;
      }

      .cls-8 {
        stroke: #000;
        stroke-linejoin: round;
        stroke-width: 2px;
      }
    </style>
  </defs>
  <g id="Layer_7" data-name="Layer 7">
    <g>
      <g>
        <rect class="cls-2" x="1" y="1" width="169.57196" height="50.5108"/>
        <polygon class="cls-5" points="1 1 4.60791 4.60791 92.1004 18.54765 166.96404 4.60791 170.57196 1 1 1"/>
        <polygon class="cls-3" points="1 51.5108 4.60791 47.90288 102.18976 30.24489 166.96404 47.90288 170.57196 51.5108 1 51.5108"/>
        <rect class="cls-1" x="4.60791" y="4.60791" width="162.35613" height="43.29497"/>
        <rect class="cls-6" x="4.60791" y="4.60791" width="162.35613" height="43.29497"/>
        <rect class="cls-8" x="1" y="1" width="169.57196" height="50.5108"/>
        <rect class="cls-7" x="10.01978" y="10.01978" width="151.53239" height="32.47123"/>
      </g>
      <g>
        <path class="cls-4" d="m69.68002,20.77165v4.22521h6.07285v3.57973h-6.07285v6.00238h-3.92502v-17.54771h10.87518v3.74039h-6.95017Z"/>
        <path class="cls-4" d="m86.46739,30.76952h-4.68676l-.90057,3.80945h-3.99478l4.36403-17.54771h5.74941l4.34007,17.54771h-3.97082l-.90057-3.80945Zm-.83151-3.55577l-1.50024-6.37234-1.5242,6.37234h3.02445Z"/>
        <path class="cls-4" d="m103.60005,31.64683l2.00902,3.34789-3.37114,1.8702-2.23944-3.71714c-.30019.02325-.62363.0458-.94708.0458-4.20195,0-6.78809-2.77077-6.78809-7.13409v-3.27883c0-4.36403,2.6094-7.13479,6.78809-7.13479,4.15615,0,6.76554,2.77077,6.76554,7.13479v3.27883c0,2.42407-.80826,4.34077-2.21689,5.58733Zm-4.54865-2.00902c1.82439,0,2.84053-1.24656,2.84053-3.46275v-3.3944c0-2.19364-1.01614-3.3944-2.84053-3.3944-1.82369,0-2.86308,1.20076-2.86308,3.3944v3.3944c0,2.21619,1.01614,3.46275,2.86308,3.46275Z"/>
      </g>
    </g>
  </g>
</svg>