<?xml version="1.0" encoding="UTF-8"?>
<svg id="Layer_2" data-name="Layer 2" xmlns="http://www.w3.org/2000/svg" xmlns:xlink="http://www.w3.org/1999/xlink" viewBox="0 0 281.22659 157.831">
  <defs>
    <style>
      .cls-1 {
        fill: url(#linear-gradient);
      }

      .cls-2 {
        fill: #e54455;
      }

      .cls-3 {
        fill: #a12c3b;
      }

      .cls-4, .cls-5, .cls-6, .cls-7 {
        stroke-width: 2px;
      }

      .cls-4, .cls-5, .cls-6, .cls-7, .cls-8 {
        fill: none;
      }

      .cls-4, .cls-5, .cls-6, .cls-8 {
        stroke-linecap: round;
      }

      .cls-4, .cls-5, .cls-8 {
        stroke-linejoin: round;
      }

      .cls-4, .cls-6, .cls-7 {
        stroke: #000;
      }

      .cls-5, .cls-8 {
        stroke: #a12c3b;
      }

      .cls-9 {
        fill: #fbcece;
      }

      .cls-9, .cls-10, .cls-11, .cls-12, .cls-13, .cls-14, .cls-15, .cls-16 {
        stroke: #fb0287;
      }

      .cls-9, .cls-10, .cls-11, .cls-12, .cls-13, .cls-14, .cls-15, .cls-16, .cls-6, .cls-7 {
        stroke-miterlimit: 10;
      }

      .cls-10 {
        fill: #f5dcd5;
      }

      .cls-11 {
        fill: #e6ccc6;
      }

      .cls-12 {
        fill: #fb9d9d;
      }

      .cls-13 {
        fill: #fbde6a;
      }

      .cls-14 {
        fill: #491a0a;
      }

      .cls-15 {
        fill: #851312;
      }

      .cls-16 {
        fill: #f53615;
      }

      .cls-17 {
        fill: #eec4e3;
        opacity: .2;
      }

      .cls-8 {
        stroke-width: 1.93407px;
      }

      .cls-18 {
        fill: url(#linear-gradient-2);
      }
    </style>
    <linearGradient id="linear-gradient" x1="126.15157" y1="157.01146" x2="126.15157" y2="69.59997" gradientUnits="userSpaceOnUse">
      <stop offset=".41105" stop-color="#da323e"/>
      <stop offset=".50106" stop-color="#dc5460"/>
      <stop offset=".55732" stop-color="#dd6571"/>
      <stop offset=".63866" stop-color="#dc616d"/>
      <stop offset=".71596" stop-color="#dc5561"/>
      <stop offset=".79139" stop-color="#da424e"/>
      <stop offset=".84023" stop-color="#da323e"/>
    </linearGradient>
    <linearGradient id="linear-gradient-2" x1="236.98791" y1="115.48136" x2="236.98791" y2="28.06987" xlink:href="#linear-gradient"/>
  </defs>
  <g id="Layer_8" data-name="Layer 8">
    <g>
      <g>
        <g>
          <path class="cls-13" d="m1.01299,109.73407c-.14413-1.12942.91556-5.00186,3.03494-12.74677,2.91183-10.64074,4.42001-16.07285,6.98037-21.5481,2.76616-5.91534,4.98382-10.51461,10.01532-14.26424,2.37362-1.7689,4.91813-3.00936,8.80134-4.24892,7.76939-2.48006,23.01658-7.34711,38.54379-.30349,3.16107,1.43397,9.48878,4.3935,14.26424,10.9258,1.54863,2.11837,2.97563,5.38649,5.76639,11.83628,3.73826,8.63955,5.60739,12.95931,6.37338,16.3887.35929,1.60857,2.69863,12.08176-.30349,19.72714-6.11838,15.58149-34.11371,18.63066-50.98706,16.99569-17.79434-1.72422-40.90795-10.37181-42.48922-22.76208Z"/>
          <path class="cls-14" d="m27.72049,57.22954c-4.70789,1.71277-8.48297,3.14188-11.53279,6.98037-3.3226,4.18181-5.0526,10.30231-3.64193,15.78171,2.3315,9.05619,12.31557,12.76181,18.81665,15.17472,15.71547,5.83288,29.76511,1.39777,36.11583-.60699,8.39026-2.64857,15.14251-4.78009,17.60268-10.9258,2.91865-7.29103-1.94378-15.88491-6.06989-20.33413-7.95624-8.57927-19.75368-8.84192-31.56342-9.10483-6.11725-.13619-12.75849.49968-19.72714,3.03494Z"/>
          <path class="cls-10" d="m28.93447,56.92604c-3.13834,1.05247-4.62738,6.66988-3.94543,10.9258,1.23215,7.68965,9.63924,11.48192,12.44327,12.74677,5.39883,2.43531,10.33011,2.44535,12.44327,2.42796,5.80355-.04775,5.29654-1.70506,13.05026-2.12446,2.46241-.13319,5.15318-.10881,5.76639-1.51747.45304-1.04069-.6924-1.79642-.91048-3.94543-.31615-3.11534,1.61602-6.20772,2.42796-6.06989.71226.12091.55144,2.72571.91048,2.73145.46999.00752,1.8993-4.4374,0-6.67688-1.17547-1.38599-2.63338-.75699-3.64193-2.12446-1.51631-2.05592.57809-5.10626-.30349-5.76639-1.20236-.90033-4.85306,4.95742-11.22929,6.98037-5.91075,1.87526-11.78842-.29838-14.26424-1.21398-7.70341-2.84884-9.57856-7.43585-12.74677-6.37338Z"/>
          <path class="cls-11" d="m32.27291,70.58329c-.48712.81907,3.70039,4.95325,8.49784,7.28387,9.56552,4.64696,20.62391,1.67098,20.63762.60699.00671-.52022-2.63083-.2854-9.40833-2.12446-1.8762-.50911-3.86763-1.12232-14.56773-4.55242-3.78727-1.21407-4.93808-1.58614-5.1594-1.21398Z"/>
          <path class="cls-11" d="m30.45194,65.12039h0c-.49494.7158.84865-1.56767,1.51747-2.12446,1.36728-1.13825,4.15614,1.23571,8.19435,2.73145,6.08612,2.25429,9.6533.52961,12.13978,3.64193.14199.17772,1.37271,1.71821.91048,2.42796-.56633.8696-3.25927-.14491-11.83628-3.03494-5.2087-1.75508-10.9258-3.64193-10.9258-3.64193Z"/>
          <path class="cls-11" d="m58.98042,66.63786c-.40476-1.09172,5.76293-4.55003,5.76639-4.55242h0c-.00043.00035-.70109,3.43693-2.73145,4.55242-1.19627.65724-2.84767.50514-3.03494,0Z"/>
          <path class="cls-11" d="m57.76644,72.70775c-.27306-.97432,4.18824-2.94247,7.58736-3.64193,1.35152-.27812,1.71481-.18685,1.82097,0,.31552.55533-1.38981,2.39563-3.33844,3.33844-2.55214,1.2348-5.84979,1.08881-6.06989.30349Z"/>
          <path class="cls-16" d="m48.05462,29.61154c-2.16666.00364-8.63162.01451-13.96074,4.85591-6.69612,6.08329-6.21482,14.90183-6.06989,16.69219.60336,7.45388,5.26916,15.30352,13.05026,18.20966,6.12544,2.28779,11.64063.56301,13.35375,0,1.21852-.40047,8.49577-2.92276,12.44327-10.6223.58969-1.15018,5.32173-10.77453,0-19.72714-5.60583-9.43054-17.19319-9.41106-18.81665-9.40833Z"/>
          <path class="cls-12" d="m50.78607,38.41288c-.2158-.99784,4.28771-1.8502,4.24892-3.64193-.03499-1.61661-3.74996-3.17673-6.98037-3.03494-1.52438.06691-4.32107.57336-4.55242,1.82097-.23301,1.25651,2.33617,2.18558,4.55242,6.06989.76666,1.34368.69992,1.65438.60699,1.82097-.6871,1.2317-6.15093.58105-9.40833-2.73145-.3654-.37158-3.45368-3.58411-2.42796-6.06989.89424-2.16716,4.36462-2.44705,7.89085-2.73145,3.32547-.26821,11.50804-.92815,13.35375,3.03494.75894,1.62957.37155,3.87989-.91048,5.1594-2.08958,2.08548-6.17659,1.21344-6.37338.30349Z"/>
          <path class="cls-12" d="m58.67692,46.00024c.51418-1.45001,2.38037-2.2911,3.03494-1.82097.66032.47425.05661,2.26044,0,2.42796-.35892,1.06195-1.30176,2.59065-2.12446,2.42796-.77491-.15325-1.35228-1.7891-.91048-3.03494Z"/>
          <path class="cls-9" d="m37.73581,49.03519c1.37754-.35179,1.97666-3.40973.91048-4.24892-.59625-.4693-1.71844-.24878-2.42796.30349-.05578.04341-1.1176.89823-.91048,2.12446.20769,1.2297,1.55811,2.0431,2.42796,1.82097Z"/>
          <path class="cls-15" d="m47.14414,33.25348c-1.20142-1.54981,2.39887-6.22066,4.85591-9.40833,5.06443-6.57038,9.96369-10.63477,10.31881-10.9258,5.98985-4.90876,19.65778-14.57826,23.67256-11.22929.77309.64488,1.35276,1.9097,1.21398,3.03494-.16934,1.3732-1.39521,2.42967-4.24892,3.94543-4.04653,2.14932-6.00789,2.37604-9.71182,3.94543-1.51141.6404-4.26954,1.82622-7.28387,3.94543-1.56347,1.09919-4.76694,3.39038-7.58736,7.28387-3.43311,4.73928-3.15016,7.50624-6.37338,9.10483-1.65883.82271-4.10851,1.26763-4.85591.30349Z"/>
        </g>
        <path class="cls-7" d="m94.79278,95.77333c-.766-3.4294-2.63516-7.74915-6.37343-16.38871-2.79075-6.44978-4.21777-9.7179-5.76639-11.83628-.88735-1.21381-1.82841-2.30378-2.79267-3.284-.28469-.33912-.5687-.66241-.84922-.96493-3.02217-3.25883-6.59951-5.31573-10.52031-6.63044-.03368-.01529-.06905-.03145-.10204-.04642-.16944-.07687-.33864-.14453-.50804-.2186,1.32816-3.62186,2.9697-10.69013-1.00942-17.38408-3.03441-5.10474-7.81976-7.43785-11.8304-8.50624-.12312-.0442-.24792-.08649-.37509-.12635.93524-1.59364,1.66146-3.7174,3.70764-6.54213,2.82041-3.8935,6.02391-6.1847,7.58738-7.28388,3.01434-2.1192,5.77245-3.30503,7.2839-3.94543,3.70391-1.56937,5.66523-1.7961,9.7118-3.94543,2.85369-1.51574,4.07956-2.57221,4.24888-3.94543.13881-1.12523-.44085-2.39007-1.21395-3.03494-4.01477-3.34897-17.68274,6.32054-23.67257,11.22929-.3551.29103-5.25437,4.35542-10.3188,10.92581-1.33418,1.73087-3.00395,3.8983-4.06046,5.76665-1.00103.00227-2.79163.02252-4.93201.45106-2.70625.26207-5.12044.71472-6.02308,2.27317-.97894.57922-1.95245,1.2791-2.89064,2.13141-6.69611,6.0833-6.2148,14.90183-6.06987,16.6922.15013,1.85487.55224,3.73412,1.19091,5.55572-.49656.16278-.99439.33226-1.49441.51417-4.70789,1.71276-8.48298,3.14187-11.53279,6.98036-1.85864,2.33927-3.21758,5.28549-3.80852,8.38649-.44544.91366-.89056,1.85838-1.3509,2.84279-2.56035,5.47526-4.06852,10.90736-6.98036,21.5481-2.11938,7.74492-3.17909,11.61735-3.03496,12.74678,1.58127,12.39027,24.69488,21.03785,42.48923,22.76207,16.87335,1.63496,44.86866-1.4142,50.98706-16.99568,3.00214-7.64538.66279-18.11857.30352-19.72714Z"/>
      </g>
      <g>
        <path class="cls-1" d="m132.75841,74.49753c.92806-1.90597,2.63276-4.15799,5.47237-4.00134,4.87167.26875,6.45716,5.39221,6.33971,6.82356s2.10866-3.51534,4.16925-3.33408,4.5997.12468,4.56064,5.32242c-.03906,5.19775,2.22854.5,4.01137,7.3197,1.63063,6.2375,12.03923,47.31276,12.08409,56.32463.00459.92166-.59464,1.62015-1.18628,2.32685-2.82756,3.37745-19.74664,13.42126-39.2091,11.48707-22.55774-2.2418-43.70286-7.25931-46.04324-12.18288,0,0-.63127-13.01603,2.59477-23.38028,2.98273-9.58258,7.99916-31.31834,8.75067-34.58353.05266-.2288.10891-.45434.172-.68049.29272-1.04923,1.35765-5.15142.82723-7.35472-.57888-2.40457,2.47507-7.86531,8.3768-2.10011l1.14238.16254s.95721-5.42201,4.04415-5.74992c3.08693-.32791,7.93089-1.27379,8.33491,6.86965,0,0,.87633-8.74191,7.5301-8.1366,6.65377.60531,7.09763,7.41815,7.09763,7.41815,0,0,.26642-1.18671.93055-2.55064"/>
        <path class="cls-2" d="m148.96588,106.66541c-.77625,11.97826-3.46219,26.61861-12.34456,17.20522-1.34941-1.43008-3.75308-.356-3.61606,1.60544l1.32485,18.96574c.07096,1.01587.85545,1.83621,1.86786,1.94599,5.27538.57203,20.57755.73973,19.12814-16.86405-.83687-10.16414-1.40001-17.51266-2.1763-23.02876-.35298-2.5082-4.02013-2.35719-4.18393.17042Z"/>
        <path class="cls-2" d="m130.95523,123.85394c-3.1945,3.64701-10.21342,9.53055-17.03867.97707-.57443-.71988-1.73914-.32172-1.77205.59867-.20534,5.74127-1.32558,18.68588,2.29512,19.6514,3.22215.85924,12.88002,1.25258,17.39977,1.47912,1.90789.09563,2.4935-2.07858,2.36038-3.98422l-1.26147-18.05853c-.07033-1.00687-1.31803-1.42275-1.98307-.6635Z"/>
        <path class="cls-2" d="m97.85599,105.49428c.77625,11.97826,3.3169,29.1354,12.19926,19.72201,1.34941-1.43008,2.24142-.46136,2.10441,1.50008l.3321,16.55432c-.07096,1.01587-.85545,1.83621-1.86786,1.94599-5.27538.57203-17.59865-1.55888-16.14924-19.16266.83687-10.16414,1.40001-17.51266,2.1763-23.02876.35298-2.5082,1.04122-.05859,1.20502,2.46902Z"/>
        <path class="cls-17" d="m126.34311,104.41001h-.00009c-18.39652-.55256-33.73685,13.27988-34.26357,30.89559l-.0985,3.29397c-.0468.00047-.07871.00078-.07871.00078,0,0-.9501,5.95703,2.62065,7.22174,3.57076,1.26474,25.76462,7.59961,30.78479,7.43271,5.02017-.1669,25.45938-.1558,32.47876-5.5271,0,0,.3359-1.45489.56756-3.18302.09004-.2799.14596-.57459.15513-.8818l.02844-.95074c.02079-.34254.03135-.67904.02997-1.00321l.13166-4.40232c.52675-17.61571-13.95958-32.34403-32.35609-32.8966Z"/>
        <path class="cls-2" d="m96.61637,92.9883c.1286-1.74016-2.10868-2.20427-2.58107-.53627-3.55244,12.54373-10.36211,34.7708-8.10845,38.49921,3.32615,5.50273,2.86698.57576,4.68226.62394,1.34618.03573,4.8463-22.87755,6.00725-38.58687Z"/>
        <path class="cls-2" d="m154.14136,92.9883c-.1286-1.74016,2.10868-2.20427,2.58107-.53627,3.55244,12.54373,10.11345,34.63139,8.10845,38.49921-2.69298,5.19499-1.84582,1.23661-3.6611,1.28479-1.34618.03573-5.86747-23.53841-7.02842-39.24773Z"/>
        <circle class="cls-2" cx="129.18336" cy="76.86736" r="3.03178"/>
        <path class="cls-3" d="m111.76054,134.69115c-.53839.01951-.78398.67799-.39132,1.04687.62333.58558,1.5333,1.17256,2.54908.96525,1.88541-.38478,3.42452-2.38562,4.96363-2.27019l-7.12138.25806Z"/>
        <circle class="cls-3" cx="130.60555" cy="76.92793" r="1.22291"/>
        <path class="cls-3" d="m110.61317,74.94123c0-1.61385,1.38744-2.92214,3.09894-2.92214s3.09894,1.30829,3.09894,2.92214,1.15273,3.2096-.55877,3.2096-5.63911-1.59575-5.63911-3.2096Z"/>
        <path class="cls-3" d="m103.16498,78.39926c.85426.35222,1.65877-.6336,1.17842-1.42296-.57299-.9416-1.33082-1.94949-2.03418-2.13425-1.11987-.29417-1.52991,2.57358.85575,3.55721Z"/>
        <circle class="cls-2" cx="96.94285" cy="77.45825" r="1.44191"/>
        <circle class="cls-2" cx="146.62207" cy="80.47786" r="1.44191"/>
        <path class="cls-17" d="m104.48749,81.98402c-.39552.17256-2.7125-2.45202-2.30915-2.63424,1.73878-.78554,5.20488-2.09573,7.91719-.68016,3.7267,1.94499-1.82305,1.66309-5.60805,3.3144Z"/>
        <ellipse class="cls-2" cx="131.82846" cy="79.5579" rx="15.52833" ry="1.55702"/>
        <path class="cls-3" d="m113.90195,86.10269l1.65091,3.41887,1.67108-2.99753s-1.97204.87695-3.32199-.42134Z"/>
        <path class="cls-3" d="m129.02345,87.81212s2.77828,2.10172,3.9762,0l-1.48247,4.61137-2.49373-4.61137Z"/>
        <path class="cls-3" d="m144.21644,83.19282l1.30968,1.20436,1.16667-2.33997s-1.40822,1.72721-2.47635,1.13562Z"/>
        <path class="cls-3" d="m88.51981,141.82572c1.76762-11.7142,3.61379-2.5604,9.08152-4.42866.40027-.13677.55404-.51633.21785-.44585-3.01905.63285-8.69574,2.67189-8.95467,4.26526"/>
        <g>
          <path class="cls-3" d="m156.39046,140.00088c-.61324-.25352-1.0535.61584-.48613.95995,3.86056,2.34143,7.68998,5.74418,2.34113,7.96862-.5384.32169,6.70609-3.13108,5.17089-5.03641-.82277-1.02114-4.03884-2.65727-7.0259-3.89216Z"/>
          <path class="cls-3" d="m163.79979,144.64065c-.13413-1.9859-.74478-7.85989-3.42631-9.9764-.24455-.19302-.59612.03391-.51464.33462.51029,1.88331,1.60045,6.38074.15957,5.66541-3.58894-1.78175,1.50209,2.46902,3.25882,3.90347.21738.1775.54147.35291.52256.0729Z"/>
        </g>
        <path class="cls-3" d="m144.0701,75.50831s-.27374,2.55565-1.9162,2.49256,2.06254.14997,2.06254.14997l-.14634-2.64253Z"/>
        <path class="cls-3" d="m153.26037,78.32083c0-.35453-.47897-.46934-.6361-.15153-.45276.91572-1.09655,1.89718-1.76139,1.85277-1.23504-.0825,2.39749.79659,2.39749.79659v-2.49783Z"/>
        <path class="cls-3" d="m96.05505,78.47276c-.28885.58568.86181,1.96039,2.25349,2.09781.15524.01533.21458.20682.08717.29682l-2.07009,1.46227c-.44775.31628-1.06296-.04524-.99758-.58951.09646-.80298.17068-1.77732.08419-2.47592-.03747-.30262.78576-1.08128.64283-.79147Z"/>
        <path class="cls-17" d="m104.68143,82.28664s-1.00025-1.49549-1.45161-1.46798.30191,1.78517-.10897,2.5841,1.56058-1.11612,1.56058-1.11612Z"/>
        <g>
          <g>
            <path class="cls-5" d="m131.26038,93.31206c-2.1232-6.87636-5.40137-11.02542-8.64504-11.02542-1.79278,0-3.49162,1.29971-5.01117,3.62342-1.46591,2.24167-2.31976,4.82623-2.62917,7.48673-1.16486,10.01607-3.74387,32.4465-2.44448,39.34784"/>
            <path class="cls-5" d="m133.69207,138.35527c.23919,2.82629.49193,5.46463.75629,7.77936"/>
            <path class="cls-5" d="m133.39398,132.25587c.07945,1.01751.16061,2.01812.24339,2.99623"/>
            <path class="cls-5" d="m145.12421,84.67449c-1.55723-2.46929-3.30871-3.85583-5.16041-3.85583-3.45282,0-6.55715,4.82101-8.70342,12.4934,0,0,.74616,19.07468,1.9325,35.51397"/>
            <path class="cls-5" d="m97.33258,102.42129c1.88567-12.775,5.91982-21.60263,10.59208-21.60263,2.9127,0,5.57741,3.43069,7.62821,9.10971"/>
            <path class="cls-5" d="m96.30055,113.63749c.11878-2.86619.33672-5.63096.64229-8.2571"/>
            <path class="cls-5" d="m104.82108,82.1621c-1.24018-1.38519-2.57725-2.14003-3.97111-2.14003-1.61374,0-3.15137,1.01178-4.55064,2.84214"/>
            <path class="cls-5" d="m93.11072,90.44998c-2.20265,8.15658-13.25994,49.81147-10.1535,54.13348,3.42278,4.76213,60.4195,25.00117,86.16476,0,2.08681-2.0265-8.60066-45.46844-11.32373-56.3706-.52164-2.08844-1.4635-4.04931-2.78095-5.75166-.02219-.02867-.04388-.05663-.06502-.08383-.3399-.43729-.71035-.84915-1.1421-1.19606-.94173-.75666-1.92936-1.15924-2.94729-1.15924-2.2199,0-3.63846,1.46686-5.40826,4.79318"/>
            <path class="cls-5" d="m95.58977,77.59859c-.02884.29813-.03054.60385-.0046.91284.01534.18271.02862.36545.03814.54817"/>
            <path class="cls-5" d="m104.00766,77.0436c-.09821-.18944-.20782-.37622-.32896-.55927-1.55219-2.34557-4.40836-3.18964-6.37943-1.88528-1.00899.6677-1.59045,1.76894-1.7095,2.99953"/>
            <path class="cls-5" d="m149.22567,93.72199c3.24676,8.55901,7.28908,22.46721,5.77128,35.80176"/>
            <path class="cls-5" d="m145.12421,84.67449s1.32473,2.55811,2.99571,6.76248"/>
            <line class="cls-5" x1="94.47467" y1="85.93916" x2="94.06775" y2="87.31641"/>
          </g>
          <path class="cls-5" d="m145.00527,77.0436c.09821-.18944.20782-.37622.32896-.55927,1.55219-2.34557,4.40836-3.18964,6.37943-1.88528,1.46233.9677,2.02667,2.84606,1.58673,4.70903"/>
          <path class="cls-5" d="m132.10691,77.55258c-.02327-.22511-.0352-.45372-.0352-.68522,0-3.5187,2.75751-6.37117,6.15908-6.37117s6.15908,2.85247,6.15908,6.37117c0,.19923-.00884.39632-.02614.59089"/>
          <path class="cls-5" d="m117.20014,77.76661c-.03621-.29464-.05486-.59475-.05486-.89925,0-4.00298,3.2227-7.24804,7.1981-7.24804s7.1981,3.24506,7.1981,7.24804"/>
          <path class="cls-5" d="m117.16146,77.31974c.01013-.14943.01529-.30029.01529-.45239,0-3.5187-2.75751-6.37117-6.15908-6.37117-3.40156,0-6.15908,2.85247-6.15908,6.37117"/>
          <path class="cls-5" d="m131.51718,78.15084h11.18067c2.14578,0,4.13921.65231,5.7928,1.76945"/>
          <line class="cls-5" x1="127.9521" y1="78.15084" x2="131.51718" y2="78.15084"/>
          <line class="cls-5" x1="122.62369" y1="78.15084" x2="125.25037" y2="78.15084"/>
          <path class="cls-5" d="m101.68943,79.9684c1.66731-1.1465,3.68697-1.81756,5.86337-1.81756h12.59429"/>
        </g>
        <path class="cls-8" d="m130.0152,135.19081c-1.25629-.07178-2.53146-.12959-3.8224-.17258-5.0849-.16934-9.94087-.09304-14.37524.19045"/>
        <path class="cls-8" d="m158.18877,149.25521c3.21862-1.18364,5.08562-2.61956,5.13877-4.21551.13015-3.90823-10.65684-7.58262-25.67822-9.2197"/>
        <path class="cls-8" d="m97.84439,137.09581c-5.76872,1.35048-9.29741,3.24837-9.37077,5.45111-.05523,1.65833,1.85514,3.27456,5.22054,4.71091"/>
        <path class="cls-5" d="m141.15452,152.22053s-15.21412,3.25473-26.12533-.37128"/>
        <g>
          <g>
            <path class="cls-6" d="m150.86288,80.02207c1.01793,0,2.00557.40258,2.94729,1.15924.43176.34691.8022.75877,1.1421,1.19606.02114.02719.04282.05515.06502.08383,1.31746,1.70235,2.25932,3.66322,2.78095,5.75166,2.72307,10.90216,13.41054,54.34411,11.32373,56.3706-25.74525,25.00117-82.74198,4.76213-86.16476,0-3.10644-4.32201,7.95085-45.9769,10.1535-54.13348,0,0,1.18133-5.86674,3.18862-7.4524"/>
            <path class="cls-6" d="m95.58977,77.59859c-.02884.29813-.03054.60385-.0046.91284.00015.00183.00031.00365.00046.00548.03042.3633.01947.72674-.0179,1.08939,0,0-.16094,1.53762-.21584,1.97967"/>
            <path class="cls-6" d="m103.22982,75.88835c-1.60994-1.88404-4.13676-2.47633-5.93055-1.28929-1.00899.6677-1.59045,1.76894-1.7095,2.99953"/>
          </g>
          <path class="cls-4" d="m153.30038,79.30809c.43994-1.86297-.12439-3.74132-1.58673-4.70903-1.97107-1.30436-4.82724-.46029-6.37943,1.88528-.00121.00183-.00242.00366-.00363.00549-.24621.37292-.55373.70139-.92903.94396l-.03784.02446c.0173-.19456.02614-.39166.02614-.59089,0-3.5187-2.75751-6.37117-6.15908-6.37117-2.83938,0-5.23001,1.98752-5.94264,4.69102-.03351.12712-.0757.25219-.13161.37117l-.61505,1.30898-.19267-1.67289c-.74999-3.19647-3.60184-5.57515-7.00543-5.57515-3.61255,0-6.60354,2.67972-7.11944,6.17277"/>
          <path class="cls-6" d="m107.57407,71.58428c-1.63833,1.14495-2.71548,3.08389-2.71548,5.28308"/>
          <path class="cls-6" d="m117.14494,76.21595c-.31541-3.2127-2.93831-5.71976-6.12728-5.71976-.53143,0-1.04714.06962-1.53908.20054"/>
        </g>
      </g>
      <g>
        <path class="cls-18" d="m243.59475,32.96742c.92806-1.90597,2.63276-4.15799,5.47237-4.00134,4.87167.26875,6.45716,5.39221,6.33971,6.82356s2.10866-3.51534,4.16925-3.33408,4.5997.12468,4.56064,5.32242c-.03906,5.19775,2.22854.5,4.01137,7.3197,1.63063,6.2375,12.03923,47.31276,12.08409,56.32463.00459.92166-.59464,1.62015-1.18628,2.32685-2.82756,3.37745-19.74664,13.42126-39.2091,11.48707-22.55774-2.2418-43.70286-7.25931-46.04324-12.18288,0,0-.63127-13.01603,2.59477-23.38028,2.98273-9.58258,7.99916-31.31834,8.75067-34.58353.05266-.2288.10891-.45434.172-.68049.29272-1.04923,1.35765-5.15142.82723-7.35472-.57888-2.40457,2.47507-7.86531,8.3768-2.10011l1.14238.16254s.95721-5.42201,4.04415-5.74992c3.08693-.32791,7.93089-1.27379,8.33491,6.86965,0,0,.87633-8.74191,7.5301-8.1366,6.65377.60531,7.09763,7.41815,7.09763,7.41815,0,0,.26642-1.18671.93055-2.55064"/>
        <path class="cls-2" d="m259.80222,65.13531c-.77625,11.97826-3.46219,26.61861-12.34456,17.20522-1.34941-1.43008-3.75308-.356-3.61606,1.60544l1.32485,18.96574c.07096,1.01587.85545,1.83621,1.86786,1.94599,5.27538.57203,20.57755.73973,19.12814-16.86405-.83687-10.16414-1.40001-17.51266-2.1763-23.02876-.35298-2.5082-4.02013-2.35719-4.18393.17042Z"/>
        <path class="cls-2" d="m241.79156,82.32383c-3.1945,3.64701-10.21342,9.53055-17.03867.97707-.57443-.71988-1.73914-.32172-1.77205.59867-.20534,5.74127-1.32558,18.68588,2.29512,19.6514,3.22215.85924,12.88002,1.25258,17.39977,1.47912,1.90789.09563,2.4935-2.07858,2.36038-3.98422l-1.26147-18.05853c-.07033-1.00687-1.31803-1.42275-1.98307-.6635Z"/>
        <path class="cls-2" d="m208.69233,63.96418c.77625,11.97826,3.3169,29.1354,12.19926,19.72201,1.34941-1.43008,2.24142-.46136,2.10441,1.50008l.3321,16.55432c-.07096,1.01587-.85545,1.83621-1.86786,1.94599-5.27538.57203-17.59865-1.55888-16.14924-19.16266.83687-10.16414,1.40001-17.51266,2.1763-23.02876.35298-2.5082,1.04122-.05859,1.20502,2.46902Z"/>
        <path class="cls-17" d="m237.17944,62.87991h-.00009c-18.39652-.55256-33.73685,13.27988-34.26357,30.89559l-.0985,3.29397c-.0468.00047-.07871.00078-.07871.00078,0,0-.9501,5.95703,2.62065,7.22174,3.57076,1.26474,25.76462,7.59961,30.78479,7.43271,5.02017-.1669,25.45938-.1558,32.47876-5.5271,0,0,.3359-1.45489.56756-3.18302.09004-.2799.14596-.57459.15513-.8818l.02844-.95074c.02079-.34254.03135-.67904.02997-1.00321l.13166-4.40232c.52675-17.61571-13.95958-32.34403-32.35609-32.8966Z"/>
        <path class="cls-2" d="m207.45271,51.45819c.1286-1.74016-2.10868-2.20427-2.58107-.53627-3.55244,12.54373-10.36211,34.7708-8.10845,38.49921,3.32615,5.50273,2.86698.57576,4.68226.62394,1.34618.03573,4.8463-22.87755,6.00725-38.58687Z"/>
        <path class="cls-2" d="m264.9777,51.45819c-.1286-1.74016,2.10868-2.20427,2.58107-.53627,3.55244,12.54373,10.11345,34.63139,8.10845,38.49921-2.69298,5.19499-1.84582,1.23661-3.6611,1.28479-1.34618.03573-5.86747-23.53841-7.02842-39.24773Z"/>
        <circle class="cls-2" cx="240.01969" cy="35.33726" r="3.03178"/>
        <path class="cls-3" d="m222.59687,93.16105c-.53839.01951-.78398.67799-.39132,1.04687.62333.58558,1.5333,1.17256,2.54908.96525,1.88541-.38478,3.42452-2.38562,4.96363-2.27019l-7.12138.25806Z"/>
        <circle class="cls-3" cx="241.44189" cy="35.39783" r="1.22291"/>
        <path class="cls-3" d="m221.4495,33.41113c0-1.61385,1.38744-2.92214,3.09894-2.92214s3.09894,1.30829,3.09894,2.92214,1.15273,3.2096-.55877,3.2096-5.63911-1.59575-5.63911-3.2096Z"/>
        <path class="cls-3" d="m214.00132,36.86916c.85426.35222,1.65877-.6336,1.17842-1.42296-.57299-.9416-1.33082-1.94949-2.03418-2.13425-1.11987-.29417-1.52991,2.57358.85575,3.55721Z"/>
        <circle class="cls-2" cx="207.77918" cy="35.92814" r="1.44191"/>
        <circle class="cls-2" cx="257.4584" cy="38.94775" r="1.44191"/>
        <path class="cls-17" d="m215.32383,40.45392c-.39552.17256-2.7125-2.45202-2.30915-2.63424,1.73878-.78554,5.20488-2.09573,7.91719-.68016,3.7267,1.94499-1.82305,1.66309-5.60805,3.3144Z"/>
        <ellipse class="cls-2" cx="242.6648" cy="38.0278" rx="15.52833" ry="1.55702"/>
        <path class="cls-3" d="m224.73829,44.57258l1.65091,3.41887,1.67108-2.99753s-1.97204.87695-3.32199-.42134Z"/>
        <path class="cls-3" d="m239.85978,46.28202s2.77828,2.10172,3.9762,0l-1.48247,4.61137-2.49373-4.61137Z"/>
        <path class="cls-3" d="m255.05277,41.66272l1.30968,1.20436,1.16667-2.33997s-1.40822,1.72721-2.47635,1.13562Z"/>
        <path class="cls-3" d="m199.35614,100.29562c1.76762-11.7142,3.61379-2.5604,9.08152-4.42866.40027-.13677.55404-.51633.21785-.44585-3.01905.63285-8.69574,2.67189-8.95467,4.26526"/>
        <g>
          <path class="cls-3" d="m267.2268,98.47078c-.61324-.25352-1.0535.61584-.48613.95995,3.86056,2.34143,7.68998,5.74418,2.34113,7.96862-.5384.32169,6.70609-3.13108,5.17089-5.03641-.82277-1.02114-4.03884-2.65727-7.0259-3.89216Z"/>
          <path class="cls-3" d="m274.63613,103.11055c-.13413-1.9859-.74478-7.85989-3.42631-9.9764-.24455-.19302-.59612.03391-.51464.33462.51029,1.88331,1.60045,6.38074.15957,5.66541-3.58894-1.78175,1.50209,2.46902,3.25882,3.90347.21738.1775.54147.35291.52256.0729Z"/>
        </g>
        <path class="cls-3" d="m254.90644,33.97821s-.27374,2.55565-1.9162,2.49256,2.06254.14997,2.06254.14997l-.14634-2.64253Z"/>
        <path class="cls-3" d="m264.0967,36.79073c0-.35453-.47897-.46934-.6361-.15153-.45276.91572-1.09655,1.89718-1.76139,1.85277-1.23504-.0825,2.39749.79659,2.39749.79659v-2.49783Z"/>
        <path class="cls-3" d="m206.89138,36.94266c-.28885.58568.86181,1.96039,2.25349,2.09781.15524.01533.21458.20682.08717.29682l-2.07009,1.46227c-.44775.31628-1.06296-.04524-.99758-.58951.09646-.80298.17068-1.77732.08419-2.47592-.03747-.30262.78576-1.08128.64283-.79147Z"/>
        <path class="cls-17" d="m215.51777,40.75654s-1.00025-1.49549-1.45161-1.46798.30191,1.78517-.10897,2.5841,1.56058-1.11612,1.56058-1.11612Z"/>
        <g>
          <g>
            <path class="cls-5" d="m242.09671,51.78196c-2.1232-6.87636-5.40137-11.02542-8.64504-11.02542-1.79278,0-3.49162,1.29971-5.01117,3.62342-1.46591,2.24167-2.31976,4.82623-2.62917,7.48673-1.16486,10.01607-3.74387,32.4465-2.44448,39.34784"/>
            <path class="cls-5" d="m244.5284,96.82517c.23919,2.82629.49193,5.46463.75629,7.77936"/>
            <path class="cls-5" d="m244.23031,90.72576c.07945,1.01751.16061,2.01812.24339,2.99623"/>
            <path class="cls-5" d="m255.96055,43.14439c-1.55723-2.46929-3.30871-3.85583-5.16041-3.85583-3.45282,0-6.55715,4.82101-8.70342,12.4934,0,0,.74616,19.07468,1.9325,35.51397"/>
            <path class="cls-5" d="m208.16891,60.89119c1.88567-12.775,5.91982-21.60263,10.59208-21.60263,2.9127,0,5.57741,3.43069,7.62821,9.10971"/>
            <path class="cls-5" d="m207.13689,72.10739c.11878-2.86619.33672-5.63096.64229-8.2571"/>
            <path class="cls-5" d="m215.65742,40.63199c-1.24018-1.38519-2.57725-2.14003-3.97111-2.14003-1.61374,0-3.15137,1.01178-4.55064,2.84214"/>
            <path class="cls-5" d="m203.94705,48.91988c-2.20265,8.15658-13.25994,49.81147-10.1535,54.13348,3.42278,4.76213,60.4195,25.00117,86.16476,0,2.08681-2.0265-8.60066-45.46844-11.32373-56.3706-.52164-2.08844-1.4635-4.04931-2.78095-5.75166-.02219-.02867-.04388-.05663-.06502-.08383-.3399-.43729-.71035-.84915-1.1421-1.19606-.94173-.75666-1.92936-1.15924-2.94729-1.15924-2.2199,0-3.63846,1.46686-5.40826,4.79318"/>
            <path class="cls-5" d="m206.42611,36.06849c-.02884.29813-.03054.60385-.0046.91284.01534.18271.02862.36545.03814.54817"/>
            <path class="cls-5" d="m214.84399,35.5135c-.09821-.18944-.20782-.37622-.32896-.55927-1.55219-2.34557-4.40836-3.18964-6.37943-1.88528-1.00899.6677-1.59045,1.76894-1.7095,2.99953"/>
            <path class="cls-5" d="m260.062,52.19189c3.24676,8.55901,7.28908,22.46721,5.77128,35.80176"/>
            <path class="cls-5" d="m255.96055,43.14439s1.32473,2.55811,2.99571,6.76248"/>
            <line class="cls-5" x1="205.31101" y1="44.40906" x2="204.90409" y2="45.78631"/>
          </g>
          <path class="cls-5" d="m255.84161,35.5135c.09821-.18944.20782-.37622.32896-.55927,1.55219-2.34557,4.40836-3.18964,6.37943-1.88528,1.46233.9677,2.02667,2.84606,1.58673,4.70903"/>
          <path class="cls-5" d="m242.94325,36.02248c-.02327-.22511-.0352-.45372-.0352-.68522,0-3.5187,2.75751-6.37117,6.15908-6.37117s6.15908,2.85247,6.15908,6.37117c0,.19923-.00884.39632-.02614.59089"/>
          <path class="cls-5" d="m228.03648,36.23651c-.03621-.29464-.05486-.59475-.05486-.89925,0-4.00298,3.2227-7.24804,7.1981-7.24804s7.1981,3.24506,7.1981,7.24804"/>
          <path class="cls-5" d="m227.99779,35.78964c.01013-.14943.01529-.30029.01529-.45239,0-3.5187-2.75751-6.37117-6.15908-6.37117-3.40156,0-6.15908,2.85247-6.15908,6.37117"/>
          <path class="cls-5" d="m242.35352,36.62074h11.18067c2.14578,0,4.13921.65231,5.7928,1.76945"/>
          <line class="cls-5" x1="238.78843" y1="36.62074" x2="242.35352" y2="36.62074"/>
          <line class="cls-5" x1="233.46002" y1="36.62074" x2="236.0867" y2="36.62074"/>
          <path class="cls-5" d="m212.52577,38.43829c1.66731-1.1465,3.68697-1.81756,5.86337-1.81756h12.59429"/>
        </g>
        <path class="cls-8" d="m240.85154,93.66071c-1.25629-.07178-2.53146-.12959-3.8224-.17258-5.0849-.16934-9.94087-.09304-14.37524.19045"/>
        <path class="cls-8" d="m269.0251,107.72511c3.21862-1.18364,5.08562-2.61956,5.13877-4.21551.13015-3.90823-10.65684-7.58262-25.67822-9.2197"/>
        <path class="cls-8" d="m208.68072,95.56571c-5.76872,1.35048-9.29741,3.24837-9.37077,5.45111-.05523,1.65833,1.85514,3.27456,5.22054,4.71091"/>
        <path class="cls-5" d="m251.99086,110.69043s-15.21412,3.25473-26.12533-.37128"/>
        <g>
          <g>
            <path class="cls-6" d="m261.69921,38.49197c1.01793,0,2.00557.40258,2.94729,1.15924.43176.34691.8022.75877,1.1421,1.19606.02114.02719.04282.05515.06502.08383,1.31746,1.70235,2.25932,3.66322,2.78095,5.75166,2.72307,10.90216,13.41054,54.34411,11.32373,56.3706-25.74525,25.00117-82.74198,4.76213-86.16476,0-3.10644-4.32201,7.95085-45.9769,10.1535-54.13348,0,0,1.18133-5.86674,3.18862-7.4524"/>
            <path class="cls-6" d="m206.42611,36.06849c-.02884.29813-.03054.60385-.0046.91284.00015.00183.00031.00365.00046.00548.03042.3633.01947.72674-.0179,1.08939,0,0-.16094,1.53762-.21584,1.97967"/>
            <path class="cls-6" d="m214.06616,34.35824c-1.60994-1.88404-4.13676-2.47633-5.93055-1.28929-1.00899.6677-1.59045,1.76894-1.7095,2.99953"/>
          </g>
          <path class="cls-4" d="m264.13672,37.77798c.43994-1.86297-.12439-3.74132-1.58673-4.70903-1.97107-1.30436-4.82724-.46029-6.37943,1.88528-.00121.00183-.00242.00366-.00363.00549-.24621.37292-.55373.70139-.92903.94396l-.03784.02446c.0173-.19456.02614-.39166.02614-.59089,0-3.5187-2.75751-6.37117-6.15908-6.37117-2.83938,0-5.23001,1.98752-5.94264,4.69102-.03351.12712-.0757.25219-.13161.37117l-.61505,1.30898-.19267-1.67289c-.74999-3.19647-3.60184-5.57515-7.00543-5.57515-3.61255,0-6.60354,2.67972-7.11944,6.17277"/>
          <path class="cls-6" d="m218.41041,30.05418c-1.63833,1.14495-2.71548,3.08389-2.71548,5.28308"/>
          <path class="cls-6" d="m227.98128,34.68585c-.31541-3.2127-2.93831-5.71976-6.12728-5.71976-.53143,0-1.04714.06962-1.53908.20054"/>
        </g>
      </g>
    </g>
  </g>
</svg>