<?xml version="1.0" encoding="UTF-8"?>
<svg xmlns="http://www.w3.org/2000/svg" xmlns:xlink="http://www.w3.org/1999/xlink" viewBox="0 0 215.10454 100.16911">
  <defs>
    <style>
      .cls-1 {
        mix-blend-mode: screen;
        opacity: .69;
      }

      .cls-1, .cls-2, .cls-3, .cls-4, .cls-5 {
        fill: #fff;
      }

      .cls-6 {
        clip-path: url(#clippath);
      }

      .cls-7 {
        opacity: .83;
        stroke-linecap: round;
      }

      .cls-7, .cls-8, .cls-3, .cls-9, .cls-4, .cls-10 {
        stroke-miterlimit: 10;
      }

      .cls-7, .cls-8, .cls-9, .cls-10 {
        stroke-width: 2.61805px;
      }

      .cls-7, .cls-4 {
        stroke: #fff;
      }

      .cls-7, .cls-10 {
        fill: none;
      }

      .cls-8 {
        stroke: #ffa922;
      }

      .cls-8, .cls-11 {
        fill: #ffc135;
      }

      .cls-12, .cls-9 {
        fill: #f70033;
      }

      .cls-13 {
        fill: #ea9200;
      }

      .cls-14 {
        fill: #eb586c;
      }

      .cls-15 {
        fill: #ffb0d0;
      }

      .cls-16 {
        fill: #faeda1;
      }

      .cls-3 {
        stroke: #241f20;
        stroke-width: 7.85416px;
      }

      .cls-9, .cls-10 {
        stroke: #f70033;
      }

      .cls-17 {
        mix-blend-mode: multiply;
      }

      .cls-4 {
        stroke-width: .65451px;
      }

      .cls-4, .cls-5 {
        opacity: .91;
      }

      .cls-18 {
        fill: #fc8093;
        mix-blend-mode: color-dodge;
      }

      .cls-19 {
        clip-path: url(#clippath-1);
      }

      .cls-20, .cls-21 {
        mix-blend-mode: soft-light;
      }

      .cls-22 {
        isolation: isolate;
      }

      .cls-21 {
        opacity: .87;
      }
    </style>
    <clipPath id="clippath">
      <rect class="cls-11" x="27.01714" y="42.17506" width="175.78889" height="36.3945" rx="18.19723" ry="18.19723" transform="translate(229.82317 120.74463) rotate(180)"/>
    </clipPath>
    <clipPath id="clippath-1">
      <circle class="cls-9" cx="35.38542" cy="62.55115" r="28.3375"/>
    </clipPath>
  </defs>
  <g class="cls-22">
    <g id="Layer_2" data-name="Layer 2">
      <g id="Layer_1-2" data-name="Layer 1">
        <g>
          <g>
            <path class="cls-3" d="m182.39995,40.84875H53.59138c-4.92531-4.13609-11.27118-6.6351-18.20605-6.6351-15.65031,0-28.33742,12.68711-28.33742,28.33742s12.68711,28.33758,28.33742,28.33758c6.93487,0,13.28074-2.49901,18.20605-6.6351h128.80857c11.98593,0,21.70249-9.71655,21.70249-21.70233v-.00016c0-11.98593-9.71655-21.70233-21.70249-21.70233Z"/>
            <g>
              <rect class="cls-8" x="25.75241" y="40.84871" width="178.35001" height="43.4049" rx="21.70243" ry="21.70243" transform="translate(229.85483 125.10231) rotate(-180)"/>
              <rect class="cls-13" x="27.01714" y="46.42898" width="175.78889" height="36.3945" rx="18.19723" ry="18.19723" transform="translate(229.82317 129.25246) rotate(-180)"/>
              <g>
                <rect class="cls-11" x="27.01714" y="42.17506" width="175.78889" height="36.3945" rx="18.19723" ry="18.19723" transform="translate(229.82317 120.74463) rotate(180)"/>
                <g class="cls-6">
                  <g class="cls-21">
                    <path class="cls-16" d="m215.06564,80.51573c-2.13659-31.07273-21.89889-55.66719-51.28312-65.82852-12.95111-4.47861-26.8987-6.78007-40.37588-9.02647C108.86355,3.23667,94.20887,1.39104,79.52617.05717c-10.25843-.93194-20.08055,9.69678-19.6354,19.6354.51217,11.43491,8.64633,18.63708,19.6354,19.6354,5.48803.49857,10.96914,1.06517,16.44039,1.72369,1.35722.16336,2.71217.3469,4.06968.50721,2.3765.28064-3.22279-.46991.64916.08669,3.20239.46035,6.40253.93117,9.59692,1.44464,12.62966,2.03008,25.33316,4.38169,37.66912,7.80207,2.29292.63575,4.52905,1.39917,6.78166,2.15975,4.60881,1.55614-3.50164-1.93798.97675.42026,1.19826.63098,2.40991,1.22449,3.58468,1.90179,1.22253.70484,2.40238,1.46715,3.5779,2.24626,4.26976,2.8299-2.18793-2.37784,1.65263,1.39621,2.00517,1.97045,4.24201,3.92424,5.84411,6.25938-2.73319-3.98377,1.11613,2.03621,1.75672,3.16639.46277.81646,1.20334,3.31488,1.96473,3.85488l-1.077-2.52831c.3394.85417.6482,1.71906.9264,2.59467.44718,1.35304.84682,2.72121,1.1799,4.10709.29521,1.22833.36247,3.2842.8695,4.43207-.83946-1.90048-.41821-3.63944-.19457-.38699.7031,10.22535,8.52763,20.13292,19.6354,19.6354,10.0348-.44946,20.38999-8.66129,19.6354-19.6354h0Z"/>
                  </g>
                  <g class="cls-20">
                    <path class="cls-16" d="m11.26657,37.13354c.7008,11.4819,4.51377,22.72571,11.53387,31.89799,4.45305,5.81823,9.71769,10.89322,16.40093,14.08038,8.96297,4.27434,18.8288,6.2983,28.45113,8.49064,11.28456,2.57105,22.54146,4.85178,34.07298,6.0097,12.90057,1.29539,25.90545,1.36895,38.8265.32265,3.40414-.27566,6.7123-2.81291,6.54513-6.54513-.14823-3.30936-2.89052-6.84107-6.54513-6.54513-11.44973.92716-22.96457.97818-34.41751.07282-2.25253-.17807-4.50218-.39252-6.74774-.64365-1.05925-.11846-2.11759-.24506-3.17489-.37977-.20375-.02596-.40743-.05252-.61114-.07878-1.613-.20793,1.07733.15581.06266.00783-.8411-.12266-1.68298-.23928-2.52326-.36763-5.51125-.84179-10.96481-1.98146-16.40235-3.20467-9.69811-2.18164-19.71869-4.02631-29.02351-7.61642-.38729-.14943-.77008-.3101-1.15663-.46117-.74791-.2923,1.68971.73472.69143.29114-.16235-.07214-.32549-.14243-.48763-.21507-.82632-.37019-1.64173-.76483-2.44209-1.18829-1.41731-.74988-2.78647-1.59078-4.0844-2.53287-.18793-.1364-.42056-.27077-.58497-.43489-.06255-.06244,1.45361,1.1644.74945.57493-.31196-.26115-.63015-.51378-.9387-.7792-.32059-.27577-.63643-.55714-.94797-.84308-1.08257-.99364-2.11235-2.0448-3.09357-3.13843-.74152-.82647-1.41932-1.70101-2.13629-2.54713,1.44736,1.70807.01645.00089-.30903-.4536-.3912-.54626-.7719-1.1-1.14132-1.66122-.80247-1.21912-1.55229-2.47269-2.24771-3.75587-.40828-.75335-.79693-1.51754-1.16599-2.29085-.12697-.26604-.25164-.53329-.3739-.80151-.12629-.27708-.84335-1.63015-.08371-.15113-1.41581-2.75657-2.17723-6.11337-2.80973-9.13075-.15259-.72796-.28993-1.45925-.41118-2.19308-.03828-.23168-.07516-.46364-.11041-.69581-.03423-.22547-.06699-.45115-.09828-.67705.14951,1.13643.19192,1.44367.12724.92172-.10551-1.11338-.23381-2.2205-.30199-3.3376-.20819-3.41093-2.86133-6.71013-6.54513-6.54513-3.36747.15083-6.76852,2.88515-6.54513,6.54513h0Z"/>
                  </g>
                </g>
              </g>
              <path class="cls-1" d="m191.58568,54.81833c-1.00132-2.22073-2.09118-4.54361-3.90531-6.22735-1.62823-1.5112-3.94455-2.02889-6.10651-2.08676-6.26358-.16766-12.56783.62929-18.82516.9444-5.66662.28536-11.44312-.05772-17.1326-.05772-24.74654,0-49.48898-1.09118-74.23575-.96958-7.09961.03645-14.35199-.43599-21.43173.76272-3.92476.66449-7.23161,3.16748-7.23184,3.16762-2.0229,1.53108-3.55692,3.3098-4.54436,4.58684,1.68253-1.13955,4.24016-2.71787,7.42577-4.06407,7.46997-3.15672,15.01132-2.32267,22.61668-2.19382,26.28216.44528,52.57496.39079,78.85692.48699,8.59744.03147,17.20541-.14048,25.77151-.92148,3.61331-.32944,7.33001-.75791,10.8121.26167,3.32461.97347,6.23507,3.28947,7.93028,6.31053Z"/>
              <path class="cls-7" d="m34.67088,62.61835c.62023,1.22843,1.63613,2.85685,3.27448,4.40021,3.35943,3.16458,7.21498,3.9732,8.88145,4.21818"/>
              <circle class="cls-4" cx="183.20244" cy="53.76465" r="1.35212"/>
              <ellipse class="cls-5" cx="174.93572" cy="52.2068" rx="4.93203" ry="1.55785"/>
              <path class="cls-2" d="m185.59624,61.31548c3.06162-10.87567,2.82373-10.78966,12.13251-4.38651-9.30878-6.40314-9.18864-6.07086-6.12702-16.94652-3.06162,10.87567-2.82373,10.78966-12.13251,4.38651,9.30878,6.40314,9.18864,6.07086,6.12702,16.94652Z"/>
            </g>
            <g>
              <circle class="cls-12" cx="35.38542" cy="62.55115" r="28.3375"/>
              <g class="cls-19">
                <g class="cls-17">
                  <path class="cls-14" d="m16.56104,97.81495c11.27802-1.17475,22.22404-4.81019,31.67594-11.15609,9.17423-6.15948,16.86969-14.45345,22.14612-24.18132,2.89526-5.33783,5.14337-11.09584,6.53782-17.00763.78448-3.32581-1.03734-7.24635-4.57138-8.05129-3.35228-.76354-7.21055,1.00704-8.05129,4.57138-.55713,2.36197-1.24113,4.69001-2.0678,6.97201-.18357.50673-.37393,1.01104-.57096,1.51269-.09852.25085-.20172.49982-.30025.75064-.51097,1.30062.49208-1.10718.11062-.2596-.49808,1.10673-.99833,2.20965-1.54596,3.29314-1.06391,2.10491-2.24629,4.14985-3.54012,6.12181-.66536,1.0141-1.36036,2.00872-2.0832,2.98268-.16022.21589-.33141.42662-.48622.64601.95287-1.35037.52053-.66784.27852-.36762-.42291.52464-.84639,1.04829-1.28244,1.56214-1.56924,1.84923-3.24726,3.60651-5.02472,5.25667-.803.74549-1.62625,1.46937-2.46893,2.1697-.21402.17787-.42921.3544-.64562.52936l-.32552.26132q-.43809.34442.00509.00305l.33239-.25603c-.1657.1269-.33225.25266-.49967.37728-.33427.25002-.67103.49656-1.01034.73969-1.97922,1.41823-4.04241,2.71969-6.17486,3.89505-1.03597.57101-2.08787,1.11281-3.15434,1.62458-.56462.27094-1.13317.53358-1.70557.78767-.25391.11271-.5142.21576-.76551.3335,1.70183-.79732.37128-.16311.01954-.02347-2.58649,1.0268-5.24239,1.88052-7.94283,2.5527-1.28266.31927-2.57555.59714-3.87609.83318-.68499.12432-1.37241.22668-2.05949.33751-.94828.15295,1.72719-.19539.2919-.03938-.41507.04512-.82951.09515-1.24482.13841-1.78196.18561-3.31733.60624-4.62811,1.91703-1.1352,1.1352-1.99005,2.99771-1.91703,4.62811.14521,3.24206,2.89818,6.92501,6.54513,6.54513h0Z"/>
                </g>
                <g class="cls-20">
                  <path class="cls-15" d="m12.09707,64.88183c1.77908-3.58672,3.87022-7.01001,6.26353-10.22037.14483-.19428.31927-.39328.45144-.59887-.89033,1.38487-.60413.77441-.33386.43578.31198-.39088.62389-.78151.9422-1.16728.63658-.7715,1.29051-1.5288,1.96034-2.27161,1.38213-1.5327,2.83313-3.00314,4.34602-4.40689.68788-.63826,1.38832-1.26304,2.10139-1.87305.38034-.32536.7641-.64676,1.15116-.9641.19353-.15867.38804-.3162.58325-.47279.19278-.15465,1.10685-.84331.22255-.18497-.91728.68289.32515-.24244.53322-.39688.40192-.29833.80698-.59248,1.21523-.88208.86751-.61539,1.7488-1.21125,2.64321-1.78682,1.68317-1.08316,3.41253-2.09423,5.18254-3.02877.82936-.43789,1.66743-.85939,2.51404-1.26295.45144-.21519.9051-.42578,1.36114-.63104.22799-.10262.45777-.20135.68561-.30428,1.04629-.47263-1.10788.45065-.35576.14581,4.24094-1.71888,8.59731-3.05364,13.09538-3.90962,3.37053-.6414,5.59891-4.87612,4.57138-8.05129-1.16436-3.59798-4.44008-5.25858-8.05129-4.57138-17.08494,3.25122-33.19215,13.11511-43.95782,26.76378-3.2255,4.08928-6.11055,8.36074-8.42797,13.03277-1.51938,3.06314-.92247,7.227,2.34808,8.95498,2.95831,1.56301,7.33071.92654,8.95498-2.34808h0Z"/>
                </g>
              </g>
              <circle class="cls-10" cx="35.38542" cy="62.55115" r="28.3375"/>
            </g>
            <path class="cls-2" d="m30.73762,37.97135c-3.52567.09969-6.88143,1.45238-9.51413,3.79265-.6417.57043-.62509,1.74024,0,2.31405.68481.62864,1.62957.60845,2.31405,0,.13657-.1214.27436-.24119.41548-.35729.07052-.05802.14167-.11526.21344-.17173-.15074.116-.15214.11834-.00421.00702.29931-.21028.59687-.41988.90909-.61107.31153-.19077.6311-.3684.95749-.53245.16335-.0821.33001-.15655.49464-.23585.1714-.07498.16684-.07443-.01368.00165.08438-.03498.16912-.06909.25421-.10232.6806-.26577,1.38328-.47512,2.09858-.62419.17878-.03726.35834-.07076.53854-.10043.0901-.01484.18034-.02871.27073-.04162-.20881.02765-.21793.02994-.02738.00688.36468-.03157.72699-.06238,1.09315-.07274.85482-.02417,1.67664-.73531,1.63628-1.63628-.03878-.86582-.7197-1.6622-1.63628-1.63628h0Z"/>
            <path class="cls-2" d="m17.86895,49.43888h.11595c.22528.0085.43543-.03848.63043-.14093.20286-.06599.37839-.17877.5266-.33833.15956-.14821.27234-.32374.33833-.5266.10245-.195.14942-.40514.14093-.63043l-.05845-.43499c-.07774-.27719-.21801-.51787-.42081-.72204l-.33116-.25586c-.25521-.14802-.5305-.22248-.82586-.2234h-.11595c-.22528-.0085-.43543.03848-.63043.14093-.20286.06599-.37839.17877-.5266.33833-.15956.14821-.27234.32374-.33833.5266-.10245.195-.14942.40514-.14093.63043l.05845.43499c.07774.27719.21801.51787.42081.72204l.33116.25586c.25521.14802.5305.22248.82586.2234h0Z"/>
            <path class="cls-2" d="m55.23392,56.5748h.11595c.22528.0085.43543-.03848.63043-.14093.20286-.06599.37839-.17877.5266-.33833.15956-.14821.27234-.32374.33833-.5266.10245-.195.14942-.40514.14093-.63043l-.05845-.43499c-.07774-.27719-.21801-.51787-.42081-.72204l-.33116-.25586c-.25521-.14802-.5305-.22248-.82586-.2234h-.11595c-.22528-.0085-.43543.03848-.63043.14093-.20286.06599-.37839.17877-.5266.33833-.15956.14821-.27234.32374-.33833.5266-.10245.195-.14942.40514-.14093.63043l.05845.43499c.07774.27719.21801.51787.42081.72204l.33116.25586c.25521.14802.5305.22248.82586.2234h0Z"/>
            <path class="cls-18" d="m42.58323,71.01523l-5.79407-1.79928c-.25881-.08037-.5406-.02824-.75354.1394l-4.76695,3.75298c-.53622.42216-1.32376.0462-1.33267-.6362l-.07925-6.0665c-.00354-.27098-.1402-.52287-.36543-.67358l-5.04236-3.37391c-.5672-.37952-.453-1.24469.19325-1.46404l5.74509-1.95002c.25663-.0871.45396-.29491.52769-.55569l1.6506-5.83817c.18567-.65672,1.04379-.81546,1.45211-.26863l3.62991,4.86132c.16214.21715.42076.34061.69156.33014l6.06249-.23428c.68195-.02635,1.0981.74071.7042,1.29802l-3.50169,4.95448c-.15642.22131-.19392.50542-.10028.75973l2.09622,5.69338c.2358.64043-.36512,1.27325-1.01688,1.07085Z"/>
          </g>
          <g>
            <g>
              <polygon points="80.08665 69.99457 80.08665 54.29145 83.98753 54.29145 83.98753 66.41401 89.58861 66.41401 89.58861 69.99457 80.08665 69.99457"/>
              <path class="cls-2" d="m83.73766,54.54133v12.12256h5.60107v3.08057h-9.00195v-15.20312h3.40088m.5-.5h-4.40088v16.20312h10.00195v-4.08057h-5.60107v-12.12256h0Z"/>
            </g>
            <g>
              <rect x="90.94652" y="55.49164" width="3.90088" height="15.70312"/>
              <path class="cls-2" d="m94.59752,55.74152v15.20312h-3.40088v-15.20312h3.40088m.5-.5h-4.40088v16.20312h4.40088v-16.20312h0Z"/>
            </g>
            <g>
              <polygon points="99.27708 69.99457 95.70287 54.29145 99.6389 54.29145 101.9763 65.18745 104.29515 54.29145 108.23216 54.29145 104.65746 69.99457 99.27708 69.99457"/>
              <path class="cls-2" d="m107.91881,54.54133l-3.46094,15.20312h-4.98096l-3.46045-15.20312h3.42041l2.54053,11.84229,2.52051-11.84229h3.4209m.62665-.5h-4.45233l-.08429.3959-2.03339,9.55365-2.04968-9.55444-.08478-.39511h-4.45111l.13904.61096,3.46045,15.20312.08856.38904h5.77893l.08856-.38901,3.46094-15.20312.1391-.61099h0Z"/>
            </g>
            <g>
              <polygon points="109.08665 71.19477 109.08665 54.29145 119.00853 54.29145 119.00853 58.03217 112.98705 58.03217 112.98705 61.15278 118.24779 61.15278 118.24779 64.73334 112.98705 64.73334 112.98705 67.6142 119.00853 67.6142 119.00853 71.19477 109.08665 71.19477"/>
              <path class="cls-2" d="m118.75865,54.54133v3.24072h-6.02148v3.62061h5.26074v3.08057h-5.26074v3.38086h6.02148v3.08057h-9.42188v-16.40332h9.42188m.5-.5h-10.42188v17.40332h10.42188v-4.08057h-6.02148v-2.38086h5.26074v-4.08057h-5.26074v-2.62061h6.02148v-4.24072h0Z"/>
            </g>
            <g>
              <path d="m130.79759,71.19477c-3.91455,0-5.86768-1.87256-5.9707-5.72412l-.00684-.25684h3.90186l.00537.24463c.03662,1.65918.59814,2.27588,2.07031,2.27588,1.02344,0,1.71094-.60693,1.71094-1.51074,0-1.07812-.31299-1.43359-2.38379-1.7124-3.47949-.5-5.09863-2.0791-5.09863-4.96875,0-3.14062,2.21484-5.25098,5.51172-5.25098,3.40625,0,5.40771,1.97021,5.49121,5.40527l.00635.25586h-3.89404l-.01318-.23633c-.07324-1.31494-.50439-1.8042-1.59033-1.8042-.96338,0-1.61035.59082-1.61035,1.47021,0,.82178.19531,1.16016,2.26562,1.45312,3.60693.50049,5.21582,2.05713,5.21582,5.04834,0,3.27588-2.1499,5.31104-5.61133,5.31104Z"/>
              <path class="cls-2" d="m130.53795,54.54133c3.28027,0,5.16113,1.86035,5.24121,5.16113h-3.40137c-.08008-1.44043-.62012-2.04053-1.83984-2.04053-1.10059,0-1.86035.7002-1.86035,1.72021,0,1.08057.5,1.42041,2.48047,1.70068,3.46094.47998,5.00098,1.94043,5.00098,4.80078,0,3.16064-2.02051,5.06104-5.36133,5.06104-3.74121,0-5.62109-1.76025-5.7207-5.48096h3.40039c.04004,1.80029.71973,2.52051,2.32031,2.52051,1.16016,0,1.96094-.72021,1.96094-1.76074,0-1.28027-.52051-1.68018-2.60059-1.95996-3.34082-.48047-4.88184-1.96045-4.88184-4.72119,0-2.98047,2.12109-5.00098,5.26172-5.00098m0-.5c-3.3924,0-5.76172,2.26208-5.76172,5.50098,0,2.99597,1.73712,4.70215,5.31067,5.21609,2.08868.28098,2.17175.63071,2.17175,1.46506,0,.76587-.57343,1.26074-1.46094,1.26074-1.15137,0-1.78247-.32376-1.82043-2.03162l-.01086-.48889h-4.40295l.01373.51337c.10602,3.95981,2.19891,5.96759,6.22052,5.96759,3.61542,0,5.86133-2.13086,5.86133-5.56104,0-3.09921-1.72614-4.78204-5.43231-5.29605-2.04913-.28998-2.04913-.59592-2.04913-1.20541,0-.74124.534-1.22021,1.36035-1.22021.81293,0,1.26733.24994,1.34064,1.56827l.02625.47226h4.3866l-.01245-.51215c-.08704-3.59-2.17963-5.64899-5.74103-5.64899h0Z"/>
            </g>
            <g>
              <rect x="137.7263" y="55.49164" width="3.90039" height="15.70312"/>
              <path class="cls-2" d="m141.37682,55.74152v15.20312h-3.40039v-15.20312h3.40039m.5-.5h-4.40039v16.20312h4.40039v-16.20312h0Z"/>
            </g>
            <g>
              <polygon points="146.94603 71.19477 146.94603 59.23237 143.0056 59.23237 143.0056 55.49164 154.80833 55.49164 154.80833 59.23237 150.8474 59.23237 150.8474 71.19477 146.94603 71.19477"/>
              <path class="cls-2" d="m154.55846,55.74152v3.24072h-3.96094v11.9624h-3.40137v-11.9624h-3.94043v-3.24072h11.30273m.5-.5h-12.30273v4.24072h3.94043v11.9624h4.40137v-11.9624h3.96094v-4.24072h0Z"/>
            </g>
            <g>
              <polygon points="156.18626 71.19477 156.18626 54.29145 166.10814 54.29145 166.10814 58.03217 160.08665 58.03217 160.08665 61.15278 165.3474 61.15278 165.3474 64.73334 160.08665 64.73334 160.08665 67.6142 166.10814 67.6142 166.10814 71.19477 156.18626 71.19477"/>
              <path class="cls-2" d="m165.85826,54.54133v3.24072h-6.02148v3.62061h5.26074v3.08057h-5.26074v3.38086h6.02148v3.08057h-9.42188v-16.40332h9.42188m.5-.5h-10.42188v17.40332h10.42188v-4.08057h-6.02148v-2.38086h5.26074v-4.08057h-5.26074v-2.62061h6.02148v-4.24072h0Z"/>
            </g>
          </g>
        </g>
      </g>
    </g>
  </g>
</svg>