<?xml version="1.0" encoding="UTF-8"?>
<svg xmlns="http://www.w3.org/2000/svg" xmlns:xlink="http://www.w3.org/1999/xlink" viewBox="0 0 223.92768 101.59955">
  <defs>
    <style>
      .cls-1 {
        mix-blend-mode: screen;
        opacity: .69;
      }

      .cls-1, .cls-2, .cls-3, .cls-4 {
        fill: #fff;
      }

      .cls-5 {
        clip-path: url(#clippath);
      }

      .cls-6 {
        opacity: .83;
        stroke-linecap: round;
      }

      .cls-6, .cls-7, .cls-8, .cls-9, .cls-3, .cls-10 {
        stroke-miterlimit: 10;
      }

      .cls-6, .cls-7, .cls-8, .cls-10 {
        stroke-width: 2.61805px;
      }

      .cls-6, .cls-3 {
        stroke: #fff;
      }

      .cls-6, .cls-10 {
        fill: none;
      }

      .cls-7 {
        stroke: #ffa922;
      }

      .cls-7, .cls-11 {
        fill: #ffc135;
      }

      .cls-12, .cls-8, .cls-9 {
        fill: #f70033;
      }

      .cls-13 {
        fill: #ea9200;
      }

      .cls-14 {
        fill: #eb586c;
      }

      .cls-15 {
        fill: #ffb0d0;
      }

      .cls-16 {
        fill: #faeda1;
      }

      .cls-8, .cls-10 {
        stroke: #f70033;
      }

      .cls-17 {
        mix-blend-mode: multiply;
      }

      .cls-9 {
        stroke: #241f20;
        stroke-width: 7.85416px;
      }

      .cls-3 {
        stroke-width: .65451px;
      }

      .cls-3, .cls-4 {
        opacity: .91;
      }

      .cls-18 {
        clip-path: url(#clippath-1);
      }

      .cls-19, .cls-20 {
        mix-blend-mode: soft-light;
      }

      .cls-21 {
        isolation: isolate;
      }

      .cls-20 {
        opacity: .87;
      }
    </style>
    <clipPath id="clippath">
      <rect class="cls-11" x="35.84028" y="42.17506" width="175.78889" height="36.3945" rx="18.19723" ry="18.19723" transform="translate(247.46944 120.74463) rotate(180)"/>
    </clipPath>
    <clipPath id="clippath-1">
      <path class="cls-8" d="m74.1502,37.39617c-7.00866-7.00866-18.37232-7.00866-25.38098,0l-2.7434,2.74322-2.74268-2.74322c-6.94498-6.94462-18.20443-6.94462-25.14905,0-6.94462,6.9448-6.94462,18.20425,0,25.14887l14.36577,14.36559c.32746.38824.59413.80978.9603,1.17559l3.27963,3.27982c1.32141,1.32159,2.85412,2.29907,4.48743,2.94856,4.664,1.99188,10.26405,1.10467,14.07015-2.70125l.17223-.17223c.02858-.02822.06296-.0465.09191-.07508l18.5887-18.58888c7.00866-7.00866,7.00866-18.37214,0-25.38098Z"/>
    </clipPath>
  </defs>
  <g class="cls-21">
    <g id="Layer_2" data-name="Layer 2">
      <g id="Layer_1-2" data-name="Layer 1">
        <g>
          <g>
            <path class="cls-9" d="m191.22313,40.85029h-114.39666c-.73888-1.22737-1.61759-2.39386-2.67622-3.45249-7.00869-7.00869-18.37239-7.00869-25.38093,0l-2.74349,2.74317-2.74269-2.74317c-6.94494-6.94462-18.20445-6.94462-25.14907,0-6.94462,6.94478-6.94462,18.20413,0,25.14875l14.3659,14.36558c.32742.3883.59411.80983.9602,1.1756l3.2796,3.27992c1.32149,1.32149,2.85423,2.29895,4.48748,2.94851,3.53079,1.50781,7.59466,1.35856,11.01391-.45046,1.30935.24656,2.65576.38942,4.03686.38942h134.94511c11.98593,0,21.70249-9.71639,21.70249-21.70233v-.00016c0-11.98578-9.71655-21.70233-21.70249-21.70233Z"/>
            <g>
              <rect class="cls-7" x="34.57555" y="40.84871" width="178.35001" height="43.4049" rx="21.70243" ry="21.70243" transform="translate(247.50111 125.10231) rotate(-180)"/>
              <rect class="cls-13" x="35.84028" y="46.42898" width="175.78889" height="36.3945" rx="18.19723" ry="18.19723" transform="translate(247.46944 129.25246) rotate(-180)"/>
              <g>
                <rect class="cls-11" x="35.84028" y="42.17506" width="175.78889" height="36.3945" rx="18.19723" ry="18.19723" transform="translate(247.46944 120.74463) rotate(180)"/>
                <g class="cls-5">
                  <g class="cls-20">
                    <path class="cls-16" d="m223.88878,80.51573c-2.13659-31.07273-21.89889-55.66719-51.28312-65.82852-12.95111-4.47861-26.8987-6.78007-40.37588-9.02647C117.68668,3.23667,103.032,1.39104,88.34931.05717c-10.25843-.93194-20.08055,9.69678-19.6354,19.6354.51217,11.43491,8.64633,18.63708,19.6354,19.6354,5.48803.49857,10.96914,1.06517,16.44039,1.72369,1.35722.16336,2.71217.3469,4.06968.50721,2.3765.28064-3.22279-.46991.64916.08669,3.20239.46035,6.40253.93117,9.59692,1.44464,12.62966,2.03008,25.33316,4.38169,37.66912,7.80207,2.29292.63575,4.52905,1.39917,6.78166,2.15975,4.60881,1.55614-3.50164-1.93798.97675.42026,1.19826.63098,2.40991,1.22449,3.58468,1.90179,1.22253.70484,2.40238,1.46715,3.5779,2.24626,4.26976,2.8299-2.18793-2.37784,1.65263,1.39621,2.00517,1.97045,4.24201,3.92424,5.84411,6.25938-2.73319-3.98377,1.11613,2.03621,1.75672,3.16639.46277.81646,1.20334,3.31488,1.96473,3.85488l-1.077-2.52831c.3394.85417.6482,1.71906.9264,2.59467.44718,1.35304.84682,2.72121,1.1799,4.10709.29521,1.22833.36247,3.2842.8695,4.43207-.83946-1.90048-.41821-3.63944-.19457-.38699.7031,10.22535,8.52763,20.13292,19.6354,19.6354,10.0348-.44946,20.38999-8.66129,19.6354-19.6354h0Z"/>
                  </g>
                  <g class="cls-19">
                    <path class="cls-16" d="m20.08971,37.13354c.7008,11.4819,4.51377,22.72571,11.53387,31.89799,4.45305,5.81823,9.71769,10.89322,16.40093,14.08038,8.96297,4.27434,18.8288,6.2983,28.45113,8.49064,11.28456,2.57105,22.54146,4.85178,34.07298,6.0097,12.90057,1.29539,25.90545,1.36895,38.8265.32265,3.40414-.27566,6.7123-2.81291,6.54513-6.54513-.14823-3.30936-2.89052-6.84107-6.54513-6.54513-11.44973.92716-22.96457.97818-34.41751.07282-2.25253-.17807-4.50218-.39252-6.74774-.64365-1.05925-.11846-2.11759-.24506-3.17489-.37977-.20375-.02596-.40743-.05252-.61114-.07878-1.613-.20793,1.07733.15581.06266.00783-.8411-.12266-1.68298-.23928-2.52326-.36763-5.51125-.84179-10.96481-1.98146-16.40235-3.20467-9.69811-2.18164-19.71869-4.02631-29.02351-7.61642-.38729-.14943-.77008-.3101-1.15663-.46117-.74791-.2923,1.68971.73472.69143.29114-.16235-.07214-.32549-.14243-.48763-.21507-.82632-.37019-1.64173-.76483-2.44209-1.18829-1.41731-.74988-2.78647-1.59078-4.0844-2.53287-.18793-.1364-.42056-.27077-.58497-.43489-.06255-.06244,1.45361,1.1644.74945.57493-.31196-.26115-.63015-.51378-.9387-.7792-.32059-.27577-.63643-.55714-.94797-.84308-1.08257-.99364-2.11235-2.0448-3.09357-3.13843-.74152-.82647-1.41932-1.70101-2.13629-2.54713,1.44736,1.70807.01645.00089-.30903-.4536-.3912-.54626-.7719-1.1-1.14132-1.66122-.80247-1.21912-1.55229-2.47269-2.24771-3.75587-.40828-.75335-.79693-1.51754-1.16599-2.29085-.12697-.26604-.25164-.53329-.3739-.80151-.12629-.27708-.84335-1.63015-.08371-.15113-1.41581-2.75657-2.17723-6.11337-2.80973-9.13075-.15259-.72796-.28993-1.45925-.41118-2.19308-.03828-.23168-.07516-.46364-.11041-.69581-.03423-.22547-.06699-.45115-.09828-.67705.14951,1.13643.19192,1.44367.12724.92172-.10551-1.11338-.23381-2.2205-.30199-3.3376-.20819-3.41093-2.86133-6.71013-6.54513-6.54513-3.36747.15083-6.76852,2.88515-6.54513,6.54513h0Z"/>
                  </g>
                </g>
              </g>
              <path class="cls-1" d="m200.40881,54.81833c-1.00132-2.22073-2.09118-4.54361-3.90531-6.22735-1.62823-1.5112-3.94455-2.02889-6.10651-2.08676-6.26358-.16766-12.56783.62929-18.82516.9444-5.66662.28536-11.44312-.05772-17.1326-.05772-24.74654,0-49.48898-1.09118-74.23575-.96958-7.09961.03645-14.35199-.43599-21.43173.76272-3.92476.66449-7.23161,3.16748-7.23184,3.16762-2.0229,1.53108-3.55692,3.3098-4.54436,4.58684,1.68253-1.13955,4.24016-2.71787,7.42577-4.06407,7.46997-3.15672,15.01132-2.32267,22.61668-2.19382,26.28216.44528,52.57496.39079,78.85692.48699,8.59744.03147,17.20541-.14048,25.77151-.92148,3.61331-.32944,7.33001-.75791,10.8121.26167,3.32461.97347,6.23507,3.28947,7.93028,6.31053Z"/>
              <path class="cls-6" d="m43.49401,62.61835c.62023,1.22843,1.63613,2.85685,3.27448,4.40021,3.35943,3.16458,7.21498,3.9732,8.88145,4.21818"/>
              <circle class="cls-3" cx="192.02557" cy="53.76465" r="1.35212"/>
              <ellipse class="cls-4" cx="183.75886" cy="52.2068" rx="4.93203" ry="1.55785"/>
              <path class="cls-2" d="m194.41937,61.31548c3.06162-10.87567,2.82373-10.78966,12.13251-4.38651-9.30878-6.40314-9.18864-6.07086-6.12702-16.94652-3.06162,10.87567-2.82373,10.78966-12.13251,4.38651,9.30878,6.40314,9.18864,6.07086,6.12702,16.94652Z"/>
            </g>
            <g>
              <path class="cls-12" d="m74.1502,37.39617c-7.00866-7.00866-18.37232-7.00866-25.38098,0l-2.7434,2.74322-2.74268-2.74322c-6.94498-6.94462-18.20443-6.94462-25.14905,0-6.94462,6.9448-6.94462,18.20425,0,25.14887l14.36577,14.36559c.32746.38824.59413.80978.9603,1.17559l3.27963,3.27982c1.32141,1.32159,2.85412,2.29907,4.48743,2.94856,4.664,1.99188,10.26405,1.10467,14.07015-2.70125l.17223-.17223c.02858-.02822.06296-.0465.09191-.07508l18.5887-18.58888c7.00866-7.00866,7.00866-18.37214,0-25.38098Z"/>
              <g class="cls-18">
                <g class="cls-17">
                  <path class="cls-14" d="m76.12135,28.20782c-2.62245,6.15272-5.39414,12.27113-8.3793,18.25717-2.50093,5.01503-5.29417,9.90493-8.64205,14.40838-.13504.18165-.27439.36003-.40992.54128,1.86401-2.49276.25693-.3414-.22906.25786-1.25684,1.54976-2.56047,3.06168-3.89885,4.54149-4.24197,4.69023-8.8483,8.99435-13.7694,12.96284-1.20893.97491,1.16411-.86469-.088.07089-.48274.3607-.96305.72429-1.45,1.07935-.81405.59357-1.63797,1.1736-2.46606,1.74739-1.29589.89793-2.6033,1.77936-3.91825,2.64912-2.45434,1.6234-4.95038,3.1831-7.47809,4.68958-2.94095,1.75277-4.27488,5.96637-2.34808,8.95498,1.90759,2.95883,5.80773,4.2238,8.95498,2.34808,11.05419-6.58815,21.46713-14.18569,30.29843-23.59555,6.15618-6.55948,11.38826-13.72626,15.55745-21.71424,3.49624-6.69864,6.60741-13.6427,9.56925-20.59169.7196-1.68831,1.16955-3.19232.6598-5.04341-.41808-1.5182-1.59197-3.16348-3.00788-3.91157-1.51899-.80255-3.35916-1.20485-5.04341-.6598-1.50288.48635-3.26228,1.48451-3.91157,3.00788h0Z"/>
                </g>
                <g class="cls-19">
                  <path class="cls-15" d="m28.00427,12.28c-9.16896,5.45796-17.13007,13.69657-21.83939,23.31309-2.40806,4.9173-4.38368,10.10559-5.20721,15.53706C.44547,54.50831-.01295,57.89684.00028,61.31862c.01322,3.41744.4731,6.81734.99759,10.18843.98698,6.34366,3.39288,12.57887,6.54582,18.14831,1.6072,2.83901,4.69445,5.15418,7.82315,6.01576,3.13343.86288,7.30589.47329,10.08682-1.31961,2.79507-1.80202,5.25552-4.48536,6.01576-7.82315.7892-3.46495.45889-6.94523-1.31961-10.08682-.83069-1.46735-1.57646-2.97292-2.24271-4.52187l1.31961,3.127c-1.52208-3.63579-2.55528-7.43011-3.10481-11.33268l.4676,3.47991c-.5129-3.90759-.53085-7.8401-.03657-11.75059l-.4676,3.47991c.5242-3.84644,1.54327-7.57658,3.04926-11.15416l-1.31961,3.127c1.52191-3.52816,3.47494-6.82964,5.82247-9.87111l-2.04685,2.64931c2.2939-2.9201,4.91365-5.54276,7.84104-7.82796l-2.64931,2.04685c1.42102-1.08918,2.8972-2.09117,4.43576-3.00702,2.8426-1.6921,5.13486-4.62429,6.01576-7.82315.86288-3.13343.47329-7.30589-1.31961-10.08682-1.80202-2.79507-4.48536-5.25552-7.82315-6.01576-3.42228-.77949-7.0072-.51358-10.08682,1.31961h0Z"/>
                </g>
                <path class="cls-2" d="m26.71616,39.64338c.26355-.15137.53047-.29627.80292-.43105.1557-.07703.31428-.14742.47106-.22206.34291-.16326-.23611.08707.08821-.03924.58777-.22892,1.18116-.4316,1.79289-.58746.29448-.07503.59126-.14048.88998-.19626.14941-.0279.2995-.05082.44926-.07651.18773-.02728.1717-.02572-.04809.00468.06459-.00816.12925-.01572.19399-.02267.62629-.06923,1.25505-.09301,1.88485-.07889.85629.01919,1.67525-.76634,1.63628-1.63628-.04044-.90297-.71878-1.61572-1.63628-1.63628-2.85381-.06397-5.70307.67546-8.17677,2.09627-.74256.4265-1.06339,1.49986-.58702,2.23875.48323.74952,1.44426,1.04334,2.23875.58702h0Z"/>
                <path class="cls-2" d="m21.7,44.28317h.13904c.22528.0085.43543-.03848.63043-.14093.20286-.06599.37839-.17877.5266-.33833.15956-.14821.27234-.32374.33833-.5266.10245-.195.14942-.40514.14093-.63043l-.05845-.43499c-.07774-.27719-.21801-.51787-.42081-.72204l-.33116-.25586c-.25521-.14802-.5305-.22248-.82586-.2234h-.13904c-.22528-.0085-.43543.03848-.63043.14093-.20286.06599-.37839.17877-.5266.33833-.15956.14821-.27234.32374-.33833.5266-.10245.195-.14942.40514-.14093.63043l.05845.43499c.07774.27719.21801.51787.42081.72204l.33116.25586c.25521.14802.5305.22248.82586.2234h0Z"/>
              </g>
              <path class="cls-10" d="m74.1502,37.39617c-7.00866-7.00866-18.37232-7.00866-25.38098,0l-2.7434,2.74322-2.74268-2.74322c-6.94498-6.94462-18.20443-6.94462-25.14905,0-6.94462,6.9448-6.94462,18.20425,0,25.14887l14.36577,14.36559c.32746.38824.59413.80978.9603,1.17559l3.27963,3.27982c1.32141,1.32159,2.85412,2.29907,4.48743,2.94856,4.664,1.99188,10.26405,1.10467,14.07015-2.70125l.17223-.17223c.02858-.02822.06296-.0465.09191-.07508l18.5887-18.58888c7.00866-7.00866,7.00866-18.37214,0-25.38098Z"/>
            </g>
            <path class="cls-2" d="m66.95103,41.74595c.50767.40739.97488.86024,1.39226,1.36004.05447.06523.13883.13835.17558.21619-.03737-.07915-.17751-.23924-.05346-.06516.09705.1362.1943.27194.28641.41159.18414.27919.35418.56753.50949.86373.06903.13165.13511.26479.19823.39938.03268.0697.1095.17511.11494.25386-.00529-.07658-.11556-.29254-.0366-.08212.11769.31362.23056.62681.32179.94942.08589.30372.15723.6115.21326.92212.005.02772.06838.25576.04559.27471.01549-.01287-.04089-.37255-.01458-.10368.01811.18511.03564.36955.04682.55524.05138.85279.71581,1.67751,1.63628,1.63628.84244-.03773,1.69141-.72124,1.63628-1.63628-.19106-3.17133-1.66123-6.26564-4.15824-8.26939-.35061-.28135-.68939-.47926-1.15703-.47926-.40133,0-.88072.17826-1.15703.47926-.54573.59449-.71291,1.74197,0,2.31405h0Z"/>
          </g>
          <g>
            <g>
              <polygon points="106.67109 71.18624 106.67109 61.88741 103.83906 66.42549 102.02216 66.42549 99.1496 61.84346 99.1496 71.18624 95.24873 71.18624 95.24873 55.48311 99.61787 55.48311 102.92011 60.74288 106.20234 55.48311 110.57197 55.48311 110.57197 71.18624 106.67109 71.18624"/>
              <path class="cls-2" d="m110.32209,55.73354v15.20312h-3.40088v-9.92188l-3.2207,5.16113h-1.54004l-3.26074-5.20117v9.96191h-3.40088v-15.20312h3.98096l3.44092,5.48096,3.42041-5.48096h3.98096m.5-.5h-4.7583l-.14685.23529-2.9975,4.80328-3.01617-4.80444-.14697-.23413h-4.75745v16.20312h4.40088v-8.72302l2.3371,3.72784.14697.23444h2.09406l.14685-.23529,2.29651-3.68018v8.67621h4.40088v-16.20312h0Z"/>
            </g>
            <g>
              <polygon points="112.44843 71.18624 112.44843 54.28292 122.3708 54.28292 122.3708 58.02413 116.34931 58.02413 116.34931 61.14424 121.61054 61.14424 121.61054 64.7253 116.34931 64.7253 116.34931 67.60616 122.3708 67.60616 122.3708 71.18624 112.44843 71.18624"/>
              <path class="cls-2" d="m122.12092,54.53334v3.24072h-6.02148v3.62061h5.26123v3.08057h-5.26123v3.38086h6.02148v3.08057h-9.42236v-16.40332h9.42236m.5-.5h-10.42236v17.40332h10.42236v-4.08057h-6.02148v-2.38086h5.26123v-4.08057h-5.26123v-2.62061h6.02148v-4.24072h0Z"/>
            </g>
            <g>
              <polygon points="131.59296 69.98604 127.62958 62.76924 127.62958 69.98604 123.72919 69.98604 123.72919 55.48311 127.82831 55.48311 131.69013 62.60909 131.69013 55.48311 135.5915 55.48311 135.5915 69.98604 131.59296 69.98604"/>
              <path class="cls-2" d="m135.34162,55.73354v14.00293h-3.60059l-4.36133-7.94189v7.94189h-3.40039v-14.00293h3.7002l4.26074,7.86182v-7.86182h3.40137m.5-.5h-4.40137v6.38989l-3.32117-6.12811-.14185-.26178h-4.49792v15.00293h4.40039v-6.49268l3.4231,6.23334.1424.25934h4.39642v-15.00293h0Z"/>
            </g>
            <g>
              <polygon points="140.90888 71.18624 140.90888 59.22432 136.96845 59.22432 136.96845 55.48311 148.77119 55.48311 148.77119 59.22432 144.81025 59.22432 144.81025 71.18624 140.90888 71.18624"/>
              <path class="cls-2" d="m148.52131,55.73354v3.24072h-3.96094v11.9624h-3.40137v-11.9624h-3.94043v-3.24072h11.30273m.5-.5h-12.30273v4.24072h3.94043v11.9624h4.40137v-11.9624h3.96094v-4.24072h0Z"/>
            </g>
            <g>
              <path d="m155.45869,71.18624c-3.78174,0-6.13086-2.46387-6.13086-6.43066v-2.84082c0-3.90723,2.40674-6.43164,6.13086-6.43164,3.7124,0,6.11133,2.52441,6.11133,6.43164v2.84082c0,3.90625-2.39893,6.43066-6.11133,6.43066Zm0-11.96191c-1.84326,0-2.23047,1.46289-2.23047,2.69043v2.94043c0,1.77441.79199,2.75098,2.23047,2.75098,1.42578,0,2.21094-.97656,2.21094-2.75098v-2.94043c0-1.22754-.38379-2.69043-2.21094-2.69043Z"/>
              <path class="cls-2" d="m155.45881,55.73354c3.60156,0,5.86133,2.40039,5.86133,6.18115v2.84082c0,3.78076-2.25977,6.18115-5.86133,6.18115-3.64062,0-5.88086-2.40039-5.88086-6.18115v-2.84082c0-3.78076,2.26074-6.18115,5.88086-6.18115m0,12.12256c1.58105,0,2.46094-1.08008,2.46094-3.00049v-2.94092c0-1.90039-.87988-2.94043-2.46094-2.94043-1.58008,0-2.48047,1.04004-2.48047,2.94043v2.94092c0,1.92041.90039,3.00049,2.48047,3.00049m0-12.62256c-3.87622,0-6.38086,2.6225-6.38086,6.68115v2.84082c0,4.05865,2.50464,6.68115,6.38086,6.68115,3.86438,0,6.36133-2.6225,6.36133-6.68115v-2.84082c0-4.05865-2.49695-6.68115-6.36133-6.68115h0Zm0,12.12256c-1.6369,0-1.98047-1.3598-1.98047-2.50049v-2.94092c0-1.61932.66632-2.44043,1.98047-2.44043,1.30121,0,1.96094.82111,1.96094,2.44043v2.94092c0,1.14069-.34021,2.50049-1.96094,2.50049h0Z"/>
            </g>
            <g>
              <path d="m170.88203,71.18624l-3.99365-4.83594v4.83594h-3.90039v-15.70312h5.61035c3.52832,0,5.47168,1.83594,5.47168,5.1709,0,2.51172-1.16113,4.23828-3.28076,4.90137l4.46826,5.63086h-4.37549Zm-2.3833-8.74121c1.15479,0,1.66992-.49707,1.66992-1.61035,0-1.12891-.49951-1.61035-1.66992-1.61035h-1.61035v3.2207h1.61035Z"/>
              <path class="cls-2" d="m168.59846,55.73354c3.40137,0,5.22168,1.72021,5.22168,4.9209,0,2.56055-1.24023,4.22119-3.46094,4.76123l4.38086,5.521h-3.74023l-4.36133-5.28125v5.28125h-3.40039v-15.20312h5.36035m-1.95996,6.96143h1.86035c1.28027,0,1.91992-.6001,1.91992-1.86035s-.62012-1.86035-1.91992-1.86035h-1.86035v3.7207m1.95996-7.46143h-5.86035v16.20312h4.40039v-4.39056l3.47577,4.20892.15002.18164h5.0108l-.64337-.81079-3.92719-4.94922c2.01642-.76978,3.1156-2.52655,3.1156-5.02222,0-3.49573-2.03198-5.4209-5.72168-5.4209h0Zm-1.45996,4.24072h1.36035c1.02179,0,1.41992.38141,1.41992,1.36035s-.39813,1.36035-1.41992,1.36035h-1.36035v-2.7207h0Z"/>
            </g>
          </g>
        </g>
      </g>
    </g>
  </g>
</svg>