<?xml version="1.0" encoding="UTF-8"?>
<svg id="Layer_2" data-name="Layer 2" xmlns="http://www.w3.org/2000/svg" xmlns:xlink="http://www.w3.org/1999/xlink" viewBox="0 0 402.03405 845.02707">
  <defs>
    <style>
      .cls-1 {
        fill: url(#linear-gradient);
      }

      .cls-2 {
        fill: #f6eba8;
      }

      .cls-3 {
        fill: #f2c054;
      }

      .cls-4 {
        fill: #8f7968;
      }

      .cls-5 {
        fill: #8f8483;
      }

      .cls-6 {
        fill: #b2a29f;
      }

      .cls-7 {
        fill: #c0b0ab;
      }

      .cls-8 {
        fill: #958787;
      }

      .cls-9 {
        fill: #a39593;
      }

      .cls-10 {
        fill: #7a6a63;
      }

      .cls-11, .cls-12 {
        fill: #504147;
      }

      .cls-13 {
        stroke: #8f8483;
        stroke-linecap: round;
        stroke-width: 1.75px;
      }

      .cls-13, .cls-14, .cls-15, .cls-16 {
        fill: none;
        stroke-miterlimit: 10;
      }

      .cls-14, .cls-15 {
        stroke-width: .75px;
      }

      .cls-14, .cls-16 {
        stroke: #000;
      }

      .cls-15 {
        stroke: #504147;
      }

      .cls-17 {
        fill: #8b5a42;
      }

      .cls-17, .cls-18, .cls-19 {
        opacity: .15;
      }

      .cls-18 {
        fill: #7d6962;
      }

      .cls-19 {
        fill: #947865;
      }

      .cls-20 {
        fill: url(#radial-gradient);
      }

      .cls-12 {
        opacity: .35;
      }
    </style>
    <radialGradient id="radial-gradient" cx="201" cy="85.64478" fx="201" fy="85.64478" r="43.77958" gradientUnits="userSpaceOnUse">
      <stop offset="0" stop-color="#fcefa3" stop-opacity=".4"/>
      <stop offset="1" stop-color="#fef1df" stop-opacity="0"/>
    </radialGradient>
    <linearGradient id="linear-gradient" x1="201" y1="845.02707" x2="201" y2="688.01001" gradientUnits="userSpaceOnUse">
      <stop offset="0" stop-color="#fd8094" stop-opacity="0"/>
      <stop offset="1" stop-color="#504147"/>
    </linearGradient>
  </defs>
  <g id="Layer_7" data-name="Layer 7">
    <g>
      <g>
        <rect class="cls-11" x="0" width="402" height="650"/>
        <g>
          <g>
            <rect class="cls-19" x="258.5" y="414.2847" width="50" height="20" rx="2.00491" ry="2.00491"/>
            <rect class="cls-17" x="313.5" y="414.2847" width="50" height="20" rx="2.00491" ry="2.00491"/>
            <rect class="cls-19" x="286" y="439.2847" width="50" height="20" rx="2.00491" ry="2.00491"/>
            <rect class="cls-17" x="286" y="389.2847" width="50" height="20" rx="2.00491" ry="2.00491"/>
            <rect class="cls-19" x="341" y="389.2847" width="50" height="20" rx="2.00491" ry="2.00491"/>
          </g>
          <rect class="cls-19" x="176" y="389.2847" width="50" height="20" rx="2.00491" ry="2.00491"/>
          <g>
            <rect class="cls-19" x="118.5" y="139.2847" width="50" height="20" rx="2.00491" ry="2.00491" transform="translate(287 298.5694) rotate(-180)"/>
            <rect class="cls-17" x="63.5" y="139.2847" width="50" height="20" rx="2.00491" ry="2.00491" transform="translate(177 298.5694) rotate(180)"/>
            <rect class="cls-17" x="91" y="164.2847" width="50" height="20" rx="2.00491" ry="2.00491" transform="translate(232 348.5694) rotate(-180)"/>
            <rect class="cls-19" x="36" y="164.2847" width="50" height="20" rx="2.00491" ry="2.00491" transform="translate(122 348.5694) rotate(180)"/>
          </g>
          <g>
            <rect class="cls-19" x="8.5" y="339.2847" width="50" height="20" rx="2.00491" ry="2.00491"/>
            <rect class="cls-17" x="63.5" y="339.2847" width="50" height="20" rx="2.00491" ry="2.00491"/>
            <rect class="cls-19" x="36" y="364.2847" width="50" height="20" rx="2.00491" ry="2.00491"/>
            <rect class="cls-19" x="36" y="314.2847" width="50" height="20" rx="2.00491" ry="2.00491"/>
            <rect class="cls-19" x="91" y="364.2847" width="50" height="20" rx="2.00491" ry="2.00491"/>
            <rect class="cls-17" x="63.5" y="389.2847" width="50" height="20" rx="2.00491" ry="2.00491"/>
          </g>
          <g>
            <rect class="cls-19" x="256" y="514.2847" width="50" height="20" rx="2.00491" ry="2.00491"/>
            <rect class="cls-19" x="311" y="514.2847" width="50" height="20" rx="2.00491" ry="2.00491"/>
            <rect class="cls-17" x="283.5" y="539.2847" width="50" height="20" rx="2.00491" ry="2.00491"/>
            <rect class="cls-19" x="338.5" y="539.2847" width="50" height="20" rx="2.00491" ry="2.00491"/>
          </g>
          <g>
            <rect class="cls-17" x="341" y="589.2847" width="50" height="20" rx="2.00491" ry="2.00491"/>
            <rect class="cls-19" x="313.5" y="614.2847" width="50" height="20" rx="2.00491" ry="2.00491"/>
          </g>
          <g>
            <rect class="cls-19" x="339" y="188.9572" width="50" height="20" rx="2.00491" ry="2.00491"/>
            <rect class="cls-19" x="339" y="139.2847" width="50" height="20" rx="2.00491" ry="2.00491"/>
          </g>
          <g>
            <rect class="cls-19" x="36" y="464.2847" width="50" height="20" rx="2.00491" ry="2.00491"/>
            <rect class="cls-19" x="8.5" y="489.2847" width="50" height="20" rx="2.00491" ry="2.00491"/>
          </g>
          <g>
            <rect class="cls-19" x="256" y="213.5885" width="50" height="20" rx="2.00491" ry="2.00491"/>
            <rect class="cls-19" x="283.5" y="238.5885" width="50" height="20" rx="2.00491" ry="2.00491"/>
          </g>
          <g>
            <rect class="cls-17" x="8.5" y="39.2847" width="50" height="20" rx="2.00491" ry="2.00491"/>
            <rect class="cls-19" x="36" y="64.2847" width="50" height="20" rx="2.00491" ry="2.00491"/>
            <rect class="cls-19" x="36" y="14.2847" width="50" height="20" rx="2.00491" ry="2.00491"/>
          </g>
          <g>
            <rect class="cls-19" x="148.5" y="464.2847" width="50" height="20" rx="2.00491" ry="2.00491" transform="translate(347 948.5694) rotate(-180)"/>
            <rect class="cls-17" x="121" y="439.2847" width="50" height="20" rx="2.00491" ry="2.00491" transform="translate(292 898.5694) rotate(-180)"/>
            <rect class="cls-17" x="121" y="489.2847" width="50" height="20" rx="2.00491" ry="2.00491" transform="translate(292 998.5694) rotate(-180)"/>
          </g>
          <rect class="cls-19" x="36" y="614.2847" width="50" height="20" rx="2.00491" ry="2.00491" transform="translate(122 1248.5694) rotate(-180)"/>
          <g>
            <rect class="cls-19" x="173.5" y="589.2847" width="50" height="20" rx="2.00491" ry="2.00491"/>
            <rect class="cls-19" x="228.5" y="589.2847" width="50" height="20" rx="2.00491" ry="2.00491"/>
            <rect class="cls-19" x="201" y="614.2847" width="50" height="20" rx="2.00491" ry="2.00491"/>
            <rect class="cls-17" x="201" y="564.2847" width="50" height="20" rx="2.00491" ry="2.00491"/>
          </g>
          <g>
            <rect class="cls-19" x="258.5" y="14.2847" width="50" height="20" rx="2.00491" ry="2.00491"/>
            <rect class="cls-17" x="313.5" y="14.2847" width="50" height="20" rx="2.00491" ry="2.00491"/>
            <rect class="cls-19" x="286" y="39.2847" width="50" height="20" rx="2.00491" ry="2.00491"/>
          </g>
          <g>
            <rect class="cls-17" x="201" y="314.2847" width="50" height="20" rx="2.00491" ry="2.00491"/>
            <rect class="cls-19" x="228.5" y="339.2847" width="50" height="20" rx="2.00491" ry="2.00491"/>
            <rect class="cls-17" x="228.5" y="289.2847" width="50" height="20" rx="2.00491" ry="2.00491" transform="translate(507 598.5694) rotate(-180)"/>
            <rect class="cls-19" x="173.5" y="289.2847" width="50" height="20" rx="2.00491" ry="2.00491" transform="translate(397 598.5694) rotate(-180)"/>
            <rect class="cls-19" x="201" y="264.2847" width="50" height="20" rx="2.00491" ry="2.00491" transform="translate(452 548.5694) rotate(-180)"/>
          </g>
          <g>
            <rect class="cls-17" x="118.5" y="239.2847" width="50" height="20" rx="2.00491" ry="2.00491" transform="translate(287 498.5694) rotate(-180)"/>
            <rect class="cls-19" x="63.5" y="239.2847" width="50" height="20" rx="2.00491" ry="2.00491" transform="translate(177 498.5694) rotate(-180)"/>
            <rect class="cls-19" x="91" y="214.2847" width="50" height="20" rx="2.00491" ry="2.00491" transform="translate(232 448.5694) rotate(-180)"/>
          </g>
          <g>
            <rect class="cls-17" x="91" y="564.2847" width="50" height="20" rx="2.00491" ry="2.00491" transform="translate(232 1148.5694) rotate(-180)"/>
            <rect class="cls-18" x="63.5" y="539.2847" width="50" height="20" rx="2.00491" ry="2.00491" transform="translate(177 1098.5694) rotate(-180)"/>
            <rect class="cls-17" x="63.5" y="589.2847" width="50" height="20" rx="2.00491" ry="2.00491" transform="translate(177 1198.5694) rotate(-180)"/>
            <rect class="cls-17" x="36" y="514.2847" width="50" height="20" rx="2.00491" ry="2.00491" transform="translate(122 1048.5694) rotate(180)"/>
          </g>
          <rect class="cls-19" x="121" y="189.814" width="50" height="20" rx="2.00491" ry="2.00491" transform="translate(292 399.628) rotate(180)"/>
          <g>
            <rect class="cls-18" x="228.5" y="139.2847" width="50" height="20" rx="2.00491" ry="2.00491"/>
            <rect class="cls-17" x="283.5" y="139.2847" width="50" height="20" rx="2.00491" ry="2.00491"/>
            <rect class="cls-17" x="256" y="164.2847" width="50" height="20" rx="2.00491" ry="2.00491"/>
            <rect class="cls-17" x="256" y="114.2847" width="50" height="20" rx="2.00491" ry="2.00491"/>
          </g>
          <g>
            <g>
              <rect class="cls-19" x="148.55278" y="64.2847" width="50" height="20" rx="2.00491" ry="2.00491"/>
              <rect class="cls-19" x="203.55278" y="64.2847" width="50" height="20" rx="2.00491" ry="2.00491"/>
              <rect class="cls-19" x="176.05278" y="89.2847" width="50" height="20" rx="2.00491" ry="2.00491"/>
              <rect class="cls-17" x="176.05278" y="39.2847" width="50" height="20" rx="2.00491" ry="2.00491"/>
            </g>
            <rect class="cls-17" x="121" y="89.2847" width="50" height="20" rx="2.00491" ry="2.00491"/>
          </g>
          <g>
            <rect class="cls-17" x="313.5" y="314.2847" width="50" height="20" rx="2.00491" ry="2.00491" transform="translate(677 648.5694) rotate(180)"/>
            <rect class="cls-19" x="341" y="289.2847" width="50" height="20" rx="2.00491" ry="2.00491"/>
          </g>
          <g>
            <rect class="cls-19" x="8" y="239.2847" width="50" height="20" rx="2.00491" ry="2.00491" transform="translate(66 498.5694) rotate(-180)"/>
            <rect class="cls-19" x="35.5" y="264.2847" width="50" height="20" rx="2.00491" ry="2.00491" transform="translate(121 548.5694) rotate(180)"/>
          </g>
          <rect class="cls-19" x="8" y="589.2847" width="50" height="20" rx="2.00491" ry="2.00491" transform="translate(66 1198.5694) rotate(-180)"/>
        </g>
        <g>
          <g>
            <rect class="cls-4" x="197.78873" width="6.42255" height="31.64978"/>
            <rect class="cls-10" x="187.24637" y="31.64978" width="27.50726" height="19.80008" rx="2" ry="2"/>
            <rect class="cls-14" x="187.24637" y="31.64978" width="27.50726" height="19.80008" rx="2" ry="2"/>
            <circle class="cls-3" cx="201" cy="84.9998" r="13.75363"/>
            <circle class="cls-2" cx="201" cy="84.9998" r="10.41919"/>
            <path class="cls-5" d="m251.92774,84.9964h-101.86164c-1.3969,0-2.12749-1.66988-1.17218-2.69746l4.9695-5.33073,7.48223-8.02819,18.87428-20.24711c.29714-.32913.72265-.51377,1.17218-.51377h39.21767c.44159,0,.86711.18463,1.17208.51377l18.87428,20.24711,7.48233,8.02819,4.9694,5.33073c.95531,1.02758.22481,2.69746-1.18012,2.69746Z"/>
            <polygon class="cls-10" points="248.13846 76.96821 153.86342 76.96821 161.34565 68.94002 240.65614 68.94002 248.13846 76.96821"/>
            <line class="cls-13" x1="190.58081" y1="35.28158" x2="211.41919" y2="35.28158"/>
            <line class="cls-13" x1="190.58081" y1="39.96745" x2="211.41919" y2="39.96745"/>
            <line class="cls-13" x1="190.58081" y1="44.65332" x2="211.41919" y2="44.65332"/>
            <path class="cls-14" d="m220.60928,48.1785h-39.21856c-.44549,0-.87095.18508-1.17466.51099l-31.32066,33.61005c-.95673,1.02666-.22869,2.70028,1.17466,2.70028h101.85988c1.40334,0,2.13139-1.67362,1.17466-2.70028l-31.32066-33.61005c-.30371-.32591-.72917-.51099-1.17466-.51099Z"/>
            <polyline class="cls-14" points="204.21127 0 204.21127 31.64978 197.78873 31.64978 197.78873 0"/>
          </g>
          <path class="cls-20" d="m201,140.34205c30.56656,0,55.34566-24.77909,55.34566-55.34566h-110.69131c0,30.56656,24.77909,55.34566,55.34566,55.34566Z"/>
        </g>
      </g>
      <g>
        <rect class="cls-1" x="30" y="688.01001" width="342" height="157.01706"/>
        <path class="cls-9" d="m402,650v120h-65.21997c0-45.28003-60.76001-81.98999-135.71002-81.98999-1.92999,0-3.84003.01996-5.75.07996-3.34003.08002-6.65002.23004-9.91998.47003-34.70001,2.40997-65.42004,12.72998-87.10004,27.89001-3.82001,2.67999-7.34998,5.5-10.58002,8.44995-14.12994,12.94-22.35999,28.44-22.35999,45.10004H.14001L0,650h402Z"/>
        <rect class="cls-6" x="160.64235" y="549.2847" width="75.7153" height="75.7153" transform="translate(397 1174.2847) rotate(180)"/>
        <path class="cls-7" d="m195.32001,599.27997v88.81c-3.34003.08002-6.65002.23004-9.91998.47003-14.40002,1-28.11005,3.35999-40.77002,6.87-17.87,4.94-33.65002,12.14996-46.33002,21.02002v-117.17004h97.02002Z"/>
        <path class="cls-8" d="m402,674.54999v95.45001h-65.21997c0-45.28003-60.76001-81.98999-135.71002-81.98999-5.29999,0-10.53003.17999-15.66998.54999v-14.01001h216.59998Z"/>
        <rect class="cls-8" y="700.12656" width="52.42046" height="69.87344" transform="translate(52.42046 1470.12656) rotate(180)"/>
        <path class="cls-6" d="m98.29999,650.02997v66.42004c-3.82001,2.67999-7.34998,5.5-10.58002,8.44995H29.09003v-74.87h69.20996Z"/>
        <rect class="cls-8" y="573.68583" width="123.64364" height="109.19129" transform="translate(123.64364 1256.56296) rotate(180)"/>
        <rect class="cls-7" y="561.48461" width="52.42046" height="75.95718" transform="translate(52.42046 1198.92639) rotate(180)"/>
        <rect class="cls-8" x="185.40446" y="574.2847" width="143.42019" height="100.26285" transform="translate(514.22912 1248.83225) rotate(180)"/>
        <rect class="cls-6" x="302.62942" y="553.41484" width="99.40463" height="145.56149" transform="translate(704.66348 1252.39116) rotate(180)"/>
        <rect class="cls-8" x="352.33174" y="680.90349" width="49.6812" height="58.19301" transform="translate(754.34468 1420) rotate(180)"/>
        <path class="cls-8" d="m185.40002,674.54755v13.93849c-14.40002,1.01077-28.11005,3.39616-40.77002,6.94395v-20.88244h40.77002Z"/>
        <g>
          <polyline class="cls-15" points="0 650.02707 123.64364 650.02707 402 650.02707"/>
          <polyline class="cls-15" points="0 561.48461 52.42046 561.48461 52.42046 574.2847 123.64364 573.68583 123.64364 599.4632 160.64235 599.4632 160.64235 549.2847 236.35765 549.2847 236.35765 574.2847 302.62942 573.68583 302.62942 553.41484 402.03405 553.41484"/>
          <polyline class="cls-15" points="123.64364 599.4632 123.64364 650.02707 123.64364 682.87712 0 682.87712"/>
          <polyline class="cls-15" points="52.42046 574.2847 52.42046 637.44178 0 637.44178"/>
          <polyline class="cls-15" points="160.64235 599.4632 185.40446 599.4632 185.40446 574.2847 236.35765 574.2847"/>
          <polyline class="cls-15" points="302.62942 573.68583 302.4477 649.83194 302.62942 698.97633 352.33174 698.97633"/>
          <polyline class="cls-15" points="402 680.90349 352.33174 680.90349 352.33174 739.09651 402 739.09651"/>
          <polyline class="cls-15" points="29.09003 682.87712 29.09003 724.89996 87.71997 724.89996"/>
          <line class="cls-15" x1="98.29999" y1="716.45001" x2="98.29999" y2="682.87712"/>
          <line class="cls-15" x1="52.42046" y1="724.9005" x2="52.42046" y2="770"/>
          <line class="cls-15" x1="29.09003" y1="700.12656" y2="700.12656"/>
          <line class="cls-15" x1="185.40002" y1="674.54999" x2="302.4477" y2="674.54999"/>
          <polyline class="cls-15" points="185.40446 599.4632 185.40002 674.54755 144.63 674.54755 144.63 695.42999"/>
        </g>
        <circle class="cls-11" cx="359.62175" cy="732.86573" r="2.5"/>
        <circle class="cls-11" cx="359.62175" cy="688.00566" r="2.5"/>
        <circle class="cls-11" cx="309.83069" cy="691.29872" r="2.5"/>
        <circle class="cls-11" cx="309.83069" cy="561.7847" r="2.5"/>
        <circle class="cls-11" cx="191.56421" cy="667.58263" r="2.5"/>
        <circle class="cls-11" cx="151.38487" cy="681.45458" r="2.5"/>
        <circle class="cls-11" cx="115.98275" cy="675.69505" r="2.5"/>
        <circle class="cls-11" cx="35.71143" cy="718.95001" r="2.5"/>
        <path class="cls-16" d="m402,770h-65.23999c0-45.28466-60.78003-81.99434-135.76001-81.99434s-135.76001,36.70968-135.76001,81.99434H0"/>
        <circle class="cls-11" cx="116" cy="580.91569" r="2.5"/>
        <circle class="cls-11" cx="45.61899" cy="568.65226" r="2.5"/>
        <circle class="cls-11" cx="45.61899" cy="630.78148" r="2.5"/>
        <circle class="cls-11" cx="191.89688" cy="580.76006" r="2.5"/>
        <circle class="cls-11" cx="167.51723" cy="556.00792" r="2.5"/>
        <circle class="cls-11" cx="229.49929" cy="556.00792" r="2.5"/>
        <path class="cls-12" d="m402,650v120h-65.21997c0-45.28003-60.76001-81.98999-135.71002-81.98999-1.92999,0-3.84003.01996-5.75.07996-3.34003.08002-6.65002.23004-9.91998.47003-34.70001,2.40997-65.42004,12.72998-87.10004,27.89001-3.82001,2.67999-7.34998,5.5-10.58002,8.44995-14.12994,12.94-22.35999,28.44-22.35999,45.10004H.14001L0,650h402Z"/>
      </g>
    </g>
  </g>
</svg>