<?xml version="1.0" encoding="UTF-8"?>
<svg id="Layer_2" data-name="Layer 2" xmlns="http://www.w3.org/2000/svg" viewBox="0 0 171.57196 52.5108">
  <defs>
    <style>
      .cls-1 {
        fill: #6e502c;
      }

      .cls-2 {
        fill: #5d3e1f;
      }

      .cls-3 {
        fill: #482f1c;
      }

      .cls-4 {
        fill: #2d1e12;
      }

      .cls-5 {
        fill: #7c603b;
      }

      .cls-6 {
        stroke: #482f1c;
        stroke-width: .75px;
      }

      .cls-6, .cls-7 {
        stroke-miterlimit: 10;
      }

      .cls-6, .cls-7, .cls-8 {
        fill: none;
      }

      .cls-7 {
        stroke: #5d3e1f;
      }

      .cls-8 {
        stroke: #000;
        stroke-linejoin: round;
        stroke-width: 2px;
      }
    </style>
  </defs>
  <g id="Layer_7" data-name="Layer 7">
    <g>
      <g>
        <rect class="cls-2" x="1" y="1" width="169.57196" height="50.5108"/>
        <polygon class="cls-5" points="1 1 4.60791 4.60791 92.1004 18.54765 166.96404 4.60791 170.57196 1 1 1"/>
        <polygon class="cls-3" points="1 51.5108 4.60791 47.90288 102.18976 30.24489 166.96404 47.90288 170.57196 51.5108 1 51.5108"/>
        <rect class="cls-1" x="4.60791" y="4.60791" width="162.35613" height="43.29497"/>
        <rect class="cls-6" x="4.60791" y="4.60791" width="162.35613" height="43.29497"/>
        <rect class="cls-8" x="1" y="1" width="169.57196" height="50.5108"/>
        <rect class="cls-7" x="10.01978" y="10.01978" width="151.53239" height="32.47123"/>
      </g>
      <g>
        <path class="cls-4" d="m34.64571,27.92431c-3.85596-.55387-5.63384-2.2627-5.63384-5.44851,0-3.4402,2.44732-5.77266,6.07285-5.77266,3.7862,0,5.95658,2.14784,6.04889,5.95729h-3.92502c-.09231-1.66302-.71595-2.35501-2.12388-2.35501-1.27052,0-2.14784.80755-2.14784,1.98576,0,1.24586.57713,1.63906,2.86308,1.9618,3.99478.55458,5.77266,2.23944,5.77266,5.54153,0,3.64808-2.33246,5.84172-6.18842,5.84172-4.31752,0-6.4879-2.03227-6.60347-6.32653h3.92572c.0458,2.07807.83081,2.90888,2.67775,2.90888,1.33958,0,2.2627-.83081,2.2627-2.03086,0-1.4784-.59967-1.93996-3.00119-2.2634Z"/>
        <path class="cls-4" d="m43.51258,27.57761v-3.74039c0-4.38658,2.63265-7.13409,6.81135-7.13409,4.20266,0,6.4879,2.19364,6.76554,6.60347h-3.92572c-.25368-2.07807-.96963-2.86308-2.86308-2.86308-1.82369,0-2.86308,1.20076-2.86308,3.39369v3.90247c0,2.19364,1.03939,3.41765,2.86308,3.41765,2.03227,0,2.67845-.90057,2.86308-3.04841h3.92572c-.27764,4.43379-2.63265,6.60417-6.8346,6.60417-4.15615,0-6.74229-2.74822-6.74229-7.1355Z"/>
        <path class="cls-4" d="m72.39774,16.70314v17.54771h-3.92502v-6.60347h-5.03346v6.60347h-3.92502v-17.54771h3.92502v7.38847h5.03346v-7.38847h3.92502Z"/>
        <path class="cls-4" d="m79.39512,20.44353v4.1787h6.07285v3.55577h-6.07285v3.90247h6.95017v3.55577h-10.87518v-18.93309h10.87518v3.74039h-6.95017Z"/>
        <path class="cls-4" d="m102.18487,25.38468v2.95539c0,4.75653-2.47058,7.29616-7.13479,7.29616h-6.21097v-17.54771h6.21097c4.66422,0,7.13479,2.53963,7.13479,7.29616Zm-3.92502,0c0-2.3085-1.1317-3.55577-3.20978-3.55577h-2.28595v10.25155h2.28595c2.07807,0,3.20978-1.24727,3.20978-3.57832v-3.11746Z"/>
        <path class="cls-4" d="m104.61035,27.62412v-9.5356h3.92502v9.72023c0,1.9167.80826,2.88633,2.40081,2.88633,1.59326,0,2.37826-.96963,2.37826-2.88633v-9.72023h3.92502v9.5356c0,4.20266-2.28525,6.62672-6.30328,6.62672-4.04058,0-6.32583-2.42407-6.32583-6.62672Z"/>
        <path class="cls-4" d="m130.58662,30.69508v3.55577h-10.39037v-17.54771h3.92502v13.99194h6.46535Z"/>
        <path class="cls-4" d="m137.00547,20.44353v4.1787h6.07285v3.55577h-6.07285v3.90247h6.95017v3.55577h-10.87518v-18.93309h10.87518v3.74039h-6.95017Z"/>
      </g>
    </g>
  </g>
</svg>