<?xml version="1.0" encoding="UTF-8"?>
<svg id="Layer_2" data-name="Layer 2" xmlns="http://www.w3.org/2000/svg" viewBox="0 0 94.7965 620.88269">
  <defs>
    <style>
      .cls-1 {
        fill: #6e502c;
      }

      .cls-2 {
        fill: #967865;
      }

      .cls-3 {
        fill: #5d3e1f;
      }

      .cls-4 {
        fill: #482f1c;
      }

      .cls-5 {
        fill: #7c603b;
      }

      .cls-6 {
        stroke-linejoin: bevel;
      }

      .cls-6, .cls-7 {
        fill: none;
        stroke: #000;
        stroke-width: 2px;
      }

      .cls-7 {
        stroke-linejoin: round;
      }
    </style>
  </defs>
  <g id="candy_groups" data-name="candy groups">
    <g>
      <g>
        <g>
          <path class="cls-3" d="m69.74576,139.47267c-1.8681,7.36597-6.62596,11.79513-8.23562,13.25192-8.02423,7.27218-17.81044,7.63645-23.9901,7.87164-6.13291.22315-14.67371.54038-22.88582-5.08714-1.8681-1.28068-8.91712-6.09734-11.41968-15.03798-.12907-.43454-.23491-.88113-.34046-1.32772-2.09125-9.52777,2.40847-17.22302,4.9225-21.64042.92817-1.6329,11.36059-19.32602,28.18435-19.33778,5.74483,0,10.17399,2.05597,12.7821,3.27784.21168.09408.41131.18787.61094.29371,9.09323,4.45268,13.8161,11.54875,15.46105,14.29768,2.27912,3.81822,7.62469,12.7471,4.91074,23.43824Z"/>
          <path class="cls-1" d="m57.24561,122.63716c0,17.04691-13.32276,30.85125-29.75873,30.85125-10.03316,0-18.89148-5.13418-24.27233-13.01729-.12907-.43454-.23491-.88113-.34046-1.32772-2.09125-9.52777,2.40847-17.22302,4.9225-21.64042.92817-1.6329,11.36059-19.32602,28.18435-19.33778,5.74483,0,10.17399,2.05597,12.7821,3.27784.21168.09408.41131.18787.61094.29371,4.88751,5.49816,7.87164,12.8409,7.87164,20.90041Z"/>
          <path class="cls-2" d="m42.1767,114.17558c-4.86915,0-8.45562-2.71222-8.60592-2.82695-.51514-.39467-.61381-1.13239-.22028-1.64638.22372-.29486.56447-.46351.9339-.46351.25929,0,.50481.08375.71247.24208.31321.23979,3.19065,2.35541,7.11328,2.35541,1.28154,0,2.54013-.23061,3.74135-.68723,4.70279-1.78864,6.35032-6.16675,6.6337-7.02608.15833-.48301.60578-.8077,1.11403-.8077.12391,0,.24782.02065.36828.05966.6161.20307.95111.86851.74804,1.48461-.34075,1.03716-2.33247,6.31934-8.02997,8.48545-1.45019.55071-2.96692.83065-4.5089.83065Z"/>
          <path class="cls-2" d="m41.77859,123.54789c-2.21085,0-4.29894-.17554-5.97515-.31666-1.87584-.15948-4.17618-.35337-7.06165-1.18975-6.3595-1.83798-12.09601-5.77552-16.59114-11.38698-.19619-.24438-.28453-.55185-.25011-.86392s.18816-.59201.43368-.7882c.26617-.21225.54497-.257.73198-.257.36025,0,.69527.16062.92014.44171,2.91988,3.64613,7.96343,8.44644,15.40827,10.59878,2.67207.77213,4.74639.94652,6.57749,1.10141,1.74734.148,3.7207.31321,5.84436.31321,5.7434,0,10.07561-1.30792,13.24446-3.9972,2.11448-1.79438,3.72988-4.21289,4.80146-7.189.16636-.4658.61151-.77787,1.106-.77787.13538,0,.26847.02409.39811.06999.29371.10555.53005.3201.66429.60463.13309.28338.148.60233.04245.89719-1.2127,3.36963-3.061,6.12315-5.49328,8.18715-3.61056,3.0633-8.45218,4.5525-14.80135,4.5525Z"/>
          <path class="cls-2" d="m42.22489,135.85957c-2.73976,0-5.08026-.24208-6.78859-.41877-4.25879-.43827-11.38813-1.1714-19.14504-5.83633-4.16586-2.50341-7.83722-5.73307-10.91429-9.59948-.19504-.24552-.28338-.55071-.24782-.86277.03442-.31207.1893-.59086.43483-.78705.26617-.21225.54382-.25585.73083-.25585.36025,0,.69527.16062.91899.44286,2.90497,3.64727,6.36523,6.69107,10.28671,9.04992,7.30602,4.38958,14.10838,5.09288,18.17327,5.51164,1.63146.16865,3.86297.39811,6.49029.39811,5.25923,0,10.04463-.90407,14.6304-2.76385,4.10046-1.66359,7.88312-4.03162,11.24127-7.0387.21569-.19389.49334-.29945.78246-.29945.33845,0,.65052.13882.87769.39238.43024.48187.38894,1.22647-.09293,1.65785-3.56123,3.18835-7.57334,5.6998-11.92506,7.4655-4.88521,1.98139-9.94023,2.94398-15.45302,2.94398Z"/>
          <path class="cls-2" d="m20.59938,143.51036c-3.18491,0-7.9118-.68609-12.34956-3.9536-4.41597-3.24916-6.39736-7.52516-7.18556-9.7842-.2134-.61151.11129-1.28383.7228-1.49723.1262-.04474.257-.06654.38779-.06654.49793,0,.94308.31666,1.10829.78934.69871,2.00204,2.45293,5.79273,6.3595,8.66787,3.92722,2.89006,8.10913,3.49698,10.92691,3.49698.61954,0,1.22647-.02983,1.80241-.08834.05278-.00574.09637-.00803.13997-.00803.59316,0,1.0865.45433,1.1473,1.05667.06654.64364-.405,1.22188-1.04863,1.28727-.63675.06654-1.31251.09982-2.01122.09982Z"/>
        </g>
        <path class="cls-7" d="m69.3146,125.69873c.0958-.08433.19475-.16349.28969-.24868.48187-.43139.52317-1.17599.09293-1.65785-.22717-.25355-.53923-.39238-.87769-.39238-.09064,0-.17554.02811-.26216.04847-1.22417-3.22449-2.74951-5.78642-3.72099-7.41387-.60119-1.00475-1.61913-2.59348-3.10603-4.41855.11014-.27334.24265-.52518.34419-.80741.10555-.29486.09064-.61381-.04245-.89719-.13423-.28453-.37058-.49908-.66429-.60463-.12965-.04589-.26273-.06999-.39811-.06999-.36599,0-.70387.17238-.92272.45032-1.45564-1.56091-3.23539-3.19638-5.35991-4.74037.00918-.02754.02237-.06368.02983-.08691.20307-.6161-.13194-1.28154-.74804-1.48461-.12047-.03901-.24438-.05966-.36828-.05966-.31264,0-.59316.13309-.80655.34018-1.06527-.6749-2.19967-1.32169-3.41867-1.91886-.19963-.10584-.39926-.19963-.61094-.29371-2.60811-1.22188-7.03727-3.27784-12.7821-3.27784-9.60722.00688-17.1255,5.77839-21.9849,11.03361-.00287-.00373-.0066-.00803-.00975-.01147-.22487-.28109-.55988-.44171-.92014-.44171-.18701,0-.4658.04474-.73198.257-.24552.19619-.39926.47613-.43368.7882s.05392.61954.25011.86392c.08978.11186.18758.21282.27851.32354-2.6976,3.21532-4.29521,5.93155-4.63252,6.52471-.18529.32583-.38377.6749-.58713,1.03573-.22401-.27937-.55644-.43942-.91469-.43942-.18701,0-.46466.0436-.73083.25585-.24552.19619-.40041.47498-.43483.78705-.03557.31207.05278.61725.24782.86277.20479.25728.41877.50395.62872.75521-1.13698,2.19938-2.28858,4.83244-2.99217,7.82116-.21684-.22688-.51227-.37259-.83868-.37259-.13079,0-.26158.0218-.38779.06654-.61151.2134-.9362.88572-.7228,1.49723.27507.78848.70789,1.83023,1.32628,2.98041-.12534,2.01811-.00803,4.15151.48359,6.39048.10555.44659.21139.89318.34046,1.32772,2.50255,8.94064,9.55158,13.7573,11.41968,15.03798,8.2121,5.62752,16.75291,5.31029,22.88582,5.08714,6.17966-.2352,15.96586-.59947,23.9901-7.87164,1.60967-1.45679,6.36753-5.88595,8.23562-13.25192,1.29989-5.12127.74345-9.82951-.43253-13.77394Z"/>
      </g>
      <g>
        <g>
          <path class="cls-4" d="m88.85964,42.30748c-1.8681,7.36597-6.62596,11.79513-8.23562,13.25192-8.02423,7.27218-17.81044,7.63645-23.9901,7.87164-6.13291.22315-14.67371.54038-22.88582-5.08714-1.8681-1.28068-8.91712-6.09734-11.41968-15.03798-.12907-.43454-.23491-.88113-.34046-1.32772-2.09125-9.52777,2.40847-17.22302,4.9225-21.64042.92817-1.6329,11.36059-19.32602,28.18435-19.33778,5.74483,0,10.17399,2.05597,12.7821,3.27784.21168.09408.41131.18787.61094.29371,9.09323,4.45268,13.8161,11.54875,15.46105,14.29768,2.27912,3.81822,7.62469,12.7471,4.91074,23.43824Z"/>
          <path class="cls-3" d="m76.35949,25.47196c0,17.04691-13.32276,30.85125-29.75873,30.85125-10.03316,0-18.89148-5.13418-24.27233-13.01729-.12907-.43454-.23491-.88113-.34046-1.32772-2.09125-9.52777,2.40847-17.22302,4.9225-21.64042.92817-1.6329,11.36059-19.32602,28.18435-19.33778,5.74483,0,10.17399,2.05597,12.7821,3.27784.21168.09408.41131.18787.61094.29371,4.88751,5.49816,7.87164,12.8409,7.87164,20.90041Z"/>
          <path class="cls-1" d="m26.91691,11.64014c-.27306.67089-1.48748,3.85723,0,7.23862,1.10543,2.51259,3.84289,5.45083,7.56761,5.2644,2.40589-.12047,4.99077-1.5328,6.14208-4.05801,1.38479-3.03748.08088-6.33799-1.64523-8.11602-2.73632-2.81892-7.85558-3.17143-12.06446-.32899Z"/>
          <path class="cls-1" d="m50.82612,5.71777c-1.75996,2.97582-5.34758,3.47288-7.12876,1.97422-1.91083-1.60708-1.5718-5.36565-.10957-6.25165,1.43126-.86736,4.54848.6465,7.23833,4.27743Z"/>
          <path class="cls-1" d="m66.18047,3.8534c-2.31927.79221-4.45096,3.05182-4.38671,5.81252.07515,3.23252,3.11607,5.26354,5.48353,5.81281,2.08235.4833,5.42502.23376,7.0192-2.30321,1.37217-2.18332.69469-4.85911-.32928-6.47079-1.54828-2.43744-4.79745-3.87243-7.78674-2.85133Z"/>
          <path class="cls-1" d="m45.77906,14.30914c.36746-.30744,4.22933-3.43929,8.51425-2.05048.69205.22414,3.79152,1.22868,4.48525,4.11064.73938,3.07269-1.93371,5.46427-2.05509,5.56963-1.85404,1.60631-4.35806,1.77956-6.16591,1.18246-3.09063-1.02091-5.22538-4.64856-4.7785-8.81225Z"/>
          <path class="cls-1" d="m40.2399,29.31655c-1.55804.59373-2.33189,2.34308-2.19307,3.83859.11014,1.18287.85245,2.86252,2.41278,3.18061,1.58385.32297,2.95488-.97177,3.5096-2.08379.76582-1.53566.49793-3.77376-.98725-4.71599-1.22073-.77414-2.62044-.2656-2.74205-.21942Z"/>
          <path class="cls-1" d="m57.4568,26.73619c-.64937,2.20311-.11473,4.55795,1.4261,6.1418.20766.21311,2.19135,2.18389,5.04469,1.7548.46408-.0697,3.16942-.53665,4.16758-2.96119.84728-2.05711-.01606-4.35459-1.42552-5.59339-1.87527-1.64839-4.39589-1.14071-5.70324-.8774-1.63433.32899-2.82982,1.05093-3.5096,1.53538Z"/>
          <path class="cls-1" d="m23.76726,25.51681c-1.74734.33243-2.56135,2.44232-2.63191,2.6322-.11588.31264-.89949,2.54328.54841,4.16758,1.52477,1.71034,3.99778,1.0363,4.16758.98697.15546-.04503,2.24986-.68551,2.74205-2.41278.71305-2.50255-2.34968-5.84493-4.82613-5.37397Z"/>
          <path class="cls-5" d="m50.82612,5.50983c-1.33486,2.25703-4.05592,2.63404-5.40687,1.49736-1.44929-1.21891-1.19215-4.06962-.0831-4.74162,1.08555-.65786,3.44983.49035,5.48998,3.24425Z"/>
          <path class="cls-5" d="m26.78385,11.27983c-.22302.54794-1.21489,3.15037,0,5.9121.90285,2.05215,3.13866,4.45194,6.1808,4.29967,1.965-.09839,4.07618-1.2519,5.01651-3.31436,1.13102-2.48085.06606-5.17651-1.34373-6.62871-2.23487-2.30234-6.416-2.59025-9.85358-.2687Z"/>
          <path class="cls-5" d="m45.8693,13.70738c.30147-.25223,3.46979-2.82164,6.9852-1.68224.56777.18389,3.11061,1.00803,3.67976,3.37243.6066,2.52087-1.58644,4.48296-1.68602,4.56939-1.52108,1.31784-3.57541,1.45997-5.05859.97011-2.53559-.83756-4.28697-3.81374-3.92034-7.22969Z"/>
          <path class="cls-5" d="m65.27671,3.78485c-1.84161.62905-3.53426,2.42329-3.48325,4.6154.05967,2.56677,2.4743,4.17948,4.35417,4.61563,1.65348.38376,4.30771.18562,5.57356-1.82885,1.08957-1.73365.55162-3.85835-.26146-5.13809-1.22941-1.93544-3.80939-3.07489-6.18302-2.26409Z"/>
          <path class="cls-5" d="m23.4273,25.51164c-1.5458.29409-2.26592,2.16061-2.32834,2.32859-.10251.27658-.79573,2.24993.48515,3.68687,1.34889,1.51306,3.53666.91677,3.68687.87313.13753-.03984,1.99035-.60644,2.42577-2.13448.6308-2.2139-2.07865-5.17075-4.26946-4.75411Z"/>
          <path class="cls-5" d="m57.41845,26.47844c-.55744,1.8912-.09849,3.91264,1.22419,5.27226.17826.18294,1.8811,1.8747,4.33047,1.50636.39838-.05983,2.7207-.46067,3.57754-2.54195.72733-1.76587-.01379-3.73807-1.2237-4.80149-1.60977-1.41501-3.77353-.97921-4.89579-.75318-1.40295.28241-2.42918.90214-3.01272,1.318Z"/>
          <path class="cls-5" d="m40.46516,29.26852c-1.19565.45563-1.78951,1.79809-1.68298,2.94576.08452.90774.65417,2.19672,1.85158,2.44082,1.21546.24785,2.26759-.74574,2.69329-1.59911.5877-1.17848.38211-2.89601-.75763-3.61908-.9368-.59408-2.01094-.20382-2.10427-.16839Z"/>
        </g>
        <path class="cls-6" d="m83.94648,18.86924c-1.2127-2.02614-4.10505-6.41285-9.17985-10.36358-.20049-.67117-.47871-1.29244-.80196-1.80098-1.32686-2.08895-3.90341-3.42871-6.49488-3.13013-.38521-.04532-.775-.0565-1.16795-.01119-2.66404-1.17398-6.4814-2.56336-11.20943-2.56336-2.76012.00201-5.34442.48646-7.74659,1.291-1.54226-1.03401-2.9348-1.35124-3.76057-.85072-.77357.46896-1.2279,1.74304-1.20581,3.0762-2.72599,1.54427-5.12758,3.44678-7.17896,5.39462-.89318-.20508-1.84314-.27334-2.81634-.20307-1.81675-.12506-3.80847.36025-5.60257,1.5718-.15632.38377-.67547,1.78434-.56333,3.53341-.07113,1.1995.05478,2.60753.69613,4.06547.1133.25728.24782.51944.39467.78189-.1893.31092-.32784.5487-.40098.6772-.79594,1.39856-1.79037,3.12812-2.71251,5.13791-.04675.00086-.09293.01004-.1394.01348-.21282-.0175-.4245-.01692-.6313.02237-1.5457.29428-2.26592,2.16066-2.32816,2.32874-.05995.1612-.31178.90436-.26445,1.77746-.0522.82348.08547,1.84228.849,2.69874.06597.074.14169.11989.21082.185-.55071,2.8803-.65712,6.05776.09351,9.47672.10555.44659.21139.89318.34046,1.32772,2.50255,8.94064,9.55158,13.7573,11.41968,15.03798,8.2121,5.62752,16.75291,5.31029,22.88582,5.08714,6.17966-.2352,15.96586-.59947,23.9901-7.87164,1.60967-1.45679,6.36753-5.88595,8.23562-13.25192,2.71394-10.69114-2.63163-19.62002-4.91074-23.43824Z"/>
      </g>
      <g>
        <g>
          <path class="cls-3" d="m72.38391,256.34788c-1.8681,7.36597-6.62596,11.79513-8.23562,13.25192-8.02423,7.27218-17.81044,7.63645-23.9901,7.87164-6.13291.22315-14.67371.54038-22.88582-5.08714-1.8681-1.28068-8.91712-6.09734-11.41968-15.03798-.12907-.43454-.23491-.88113-.34046-1.32772-2.09125-9.52777,2.40847-17.22302,4.9225-21.64042.92817-1.6329,11.36059-19.32602,28.18435-19.33778,5.74483,0,10.17399,2.05597,12.7821,3.27784.21168.09408.41131.18787.61094.29371,9.09323,4.45268,13.8161,11.54875,15.46105,14.29768,2.27912,3.81822,7.62469,12.7471,4.91074,23.43824Z"/>
          <path class="cls-1" d="m59.88376,239.51236c0,17.04691-13.32276,30.85125-29.75873,30.85125-10.03316,0-18.89148-5.13418-24.27233-13.01729-.12907-.43454-.23491-.88113-.34046-1.32772-2.09125-9.52777,2.40847-17.22302,4.9225-21.64042.92817-1.6329,11.36059-19.32602,28.18435-19.33778,5.74483,0,10.17399,2.05597,12.7821,3.27784.21168.09408.41131.18787.61094.29371,4.88751,5.49816,7.87164,12.8409,7.87164,20.90041Z"/>
          <path class="cls-2" d="m44.81485,231.05078c-4.86915,0-8.45562-2.71222-8.60592-2.82695-.51514-.39467-.61381-1.13239-.22028-1.64638.22372-.29486.56447-.46351.9339-.46351.25929,0,.50481.08375.71247.24208.31321.23979,3.19065,2.35541,7.11328,2.35541,1.28154,0,2.54013-.23061,3.74135-.68723,4.70279-1.78864,6.35032-6.16675,6.6337-7.02608.15833-.48301.60578-.8077,1.11403-.8077.12391,0,.24782.02065.36828.05966.6161.20307.95111.86851.74804,1.48461-.34075,1.03716-2.33247,6.31934-8.02997,8.48545-1.45019.55071-2.96692.83065-4.5089.83065Z"/>
          <path class="cls-2" d="m44.41674,240.4231c-2.21085,0-4.29894-.17554-5.97515-.31666-1.87584-.15948-4.17618-.35337-7.06165-1.18975-6.3595-1.83798-12.09601-5.77552-16.59114-11.38698-.19619-.24438-.28453-.55185-.25011-.86392s.18816-.59201.43368-.7882c.26617-.21225.54497-.257.73198-.257.36025,0,.69527.16062.92014.44171,2.91988,3.64613,7.96343,8.44644,15.40827,10.59878,2.67207.77213,4.74639.94652,6.57749,1.10141,1.74734.148,3.7207.31321,5.84436.31321,5.7434,0,10.07561-1.30792,13.24446-3.9972,2.11448-1.79438,3.72988-4.21289,4.80146-7.189.16636-.4658.61151-.77787,1.106-.77787.13538,0,.26847.02409.39811.06999.29371.10555.53005.3201.66429.60463.13309.28338.148.60233.04245.89719-1.2127,3.36963-3.061,6.12315-5.49328,8.18715-3.61056,3.0633-8.45218,4.5525-14.80135,4.5525Z"/>
          <path class="cls-2" d="m44.86304,252.73477c-2.73976,0-5.08026-.24208-6.78859-.41877-4.25879-.43827-11.38813-1.1714-19.14504-5.83633-4.16586-2.50341-7.83722-5.73307-10.91429-9.59948-.19504-.24552-.28338-.55071-.24782-.86277.03442-.31207.1893-.59086.43483-.78705.26617-.21225.54382-.25585.73083-.25585.36025,0,.69527.16062.91899.44286,2.90497,3.64727,6.36523,6.69107,10.28671,9.04992,7.30602,4.38958,14.10838,5.09288,18.17327,5.51164,1.63146.16865,3.86297.39811,6.49029.39811,5.25923,0,10.04463-.90407,14.6304-2.76385,4.10046-1.66359,7.88312-4.03162,11.24127-7.0387.21569-.19389.49334-.29945.78246-.29945.33845,0,.65052.13882.87769.39238.43024.48187.38894,1.22647-.09293,1.65785-3.56123,3.18835-7.57334,5.6998-11.92506,7.4655-4.88521,1.98139-9.94023,2.94398-15.45302,2.94398Z"/>
          <path class="cls-2" d="m23.23753,260.38556c-3.18491,0-7.9118-.68609-12.34956-3.9536-4.41597-3.24916-6.39736-7.52516-7.18556-9.7842-.2134-.61151.11129-1.28383.7228-1.49723.1262-.04474.257-.06654.38779-.06654.49793,0,.94308.31666,1.10829.78934.69871,2.00204,2.45293,5.79273,6.3595,8.66787,3.92722,2.89006,8.10913,3.49698,10.92691,3.49698.61954,0,1.22647-.02983,1.80241-.08834.05278-.00574.09637-.00803.13997-.00803.59316,0,1.0865.45433,1.1473,1.05667.06654.64364-.405,1.22188-1.04863,1.28727-.63675.06654-1.31251.09982-2.01122.09982Z"/>
        </g>
        <path class="cls-7" d="m71.95275,242.57393c.0958-.08433.19475-.16349.28969-.24868.48187-.43139.52317-1.17599.09293-1.65785-.22717-.25355-.53923-.39238-.87769-.39238-.09064,0-.17554.02811-.26216.04847-1.22417-3.22449-2.74951-5.78642-3.72099-7.41387-.60119-1.00475-1.61913-2.59348-3.10603-4.41855.11014-.27334.24265-.52518.34419-.80741.10555-.29486.09064-.61381-.04245-.89719-.13423-.28453-.37058-.49908-.66429-.60463-.12965-.04589-.26273-.06999-.39811-.06999-.36599,0-.70387.17238-.92272.45032-1.45564-1.56091-3.23539-3.19638-5.35991-4.74037.00918-.02754.02237-.06368.02983-.08691.20307-.6161-.13194-1.28154-.74804-1.48461-.12047-.03901-.24438-.05966-.36828-.05966-.31264,0-.59316.13309-.80655.34018-1.06527-.6749-2.19967-1.32169-3.41867-1.91886-.19963-.10584-.39926-.19963-.61094-.29371-2.60811-1.22188-7.03727-3.27784-12.7821-3.27784-9.60722.00688-17.1255,5.77839-21.9849,11.03361-.00287-.00373-.0066-.00803-.00975-.01147-.22487-.28109-.55988-.44171-.92014-.44171-.18701,0-.4658.04474-.73198.257-.24552.19619-.39926.47613-.43368.7882s.05392.61954.25011.86392c.08978.11186.18758.21282.27851.32354-2.6976,3.21532-4.29521,5.93155-4.63252,6.52471-.18529.32583-.38377.6749-.58713,1.03573-.22401-.27937-.55644-.43942-.91469-.43942-.18701,0-.46466.0436-.73083.25585-.24552.19619-.40041.47498-.43483.78705-.03557.31207.05278.61725.24782.86277.20479.25728.41877.50395.62872.75521-1.13698,2.19938-2.28858,4.83244-2.99217,7.82116-.21684-.22688-.51227-.37259-.83868-.37259-.13079,0-.26158.0218-.38779.06654-.61151.2134-.9362.88572-.7228,1.49723.27507.78848.70789,1.83023,1.32628,2.98041-.12534,2.01811-.00803,4.15151.48359,6.39048.10555.44659.21139.89318.34046,1.32772,2.50255,8.94064,9.55158,13.7573,11.41968,15.03798,8.2121,5.62752,16.75291,5.31029,22.88582,5.08714,6.17966-.2352,15.96586-.59947,23.9901-7.87164,1.60967-1.45679,6.36753-5.88595,8.23562-13.25192,1.29989-5.12127.74345-9.82951-.43253-13.77394Z"/>
      </g>
      <g>
        <g>
          <path class="cls-4" d="m91.47796,355.25919c-1.8681,7.36597-6.62596,11.79513-8.23562,13.25192-8.02423,7.27218-17.81044,7.63645-23.9901,7.87164-6.13291.22315-14.67371.54038-22.88582-5.08714-1.8681-1.28068-8.91712-6.09734-11.41968-15.03798-.12907-.43454-.23491-.88113-.34046-1.32772-2.09125-9.52777,2.40847-17.22302,4.9225-21.64042.92817-1.6329,11.36059-19.32602,28.18435-19.33778,5.74483,0,10.17399,2.05597,12.7821,3.27784.21168.09408.41131.18787.61094.29371,9.09323,4.45268,13.8161,11.54875,15.46105,14.29768,2.27912,3.81822,7.62469,12.7471,4.91074,23.43824Z"/>
          <path class="cls-3" d="m78.97782,338.42367c0,17.04691-13.32276,30.85125-29.75873,30.85125-10.03316,0-18.89148-5.13418-24.27233-13.01729-.12907-.43454-.23491-.88113-.34046-1.32772-2.09125-9.52777,2.40847-17.22302,4.9225-21.64042.92817-1.6329,11.36059-19.32602,28.18435-19.33778,5.74483,0,10.17399,2.05597,12.7821,3.27784.21168.09408.41131.18787.61094.29371,4.88751,5.49816,7.87164,12.8409,7.87164,20.90041Z"/>
          <path class="cls-1" d="m29.53524,324.59185c-.27306.67089-1.48748,3.85723,0,7.23862,1.10543,2.51259,3.84289,5.45083,7.56761,5.2644,2.40589-.12047,4.99077-1.5328,6.14208-4.05801,1.38479-3.03748.08088-6.33799-1.64523-8.11602-2.73632-2.81892-7.85558-3.17143-12.06446-.32899Z"/>
          <path class="cls-1" d="m53.44445,318.66947c-1.75996,2.97582-5.34758,3.47288-7.12876,1.97422-1.91083-1.60708-1.5718-5.36565-.10957-6.25165,1.43126-.86736,4.54848.6465,7.23833,4.27743Z"/>
          <path class="cls-1" d="m68.7988,316.80511c-2.31927.79221-4.45096,3.05182-4.38671,5.81252.07515,3.23252,3.11607,5.26354,5.48353,5.81281,2.08235.4833,5.42502.23376,7.0192-2.30321,1.37217-2.18332.69469-4.85911-.32928-6.47079-1.54828-2.43744-4.79745-3.87243-7.78674-2.85133Z"/>
          <path class="cls-1" d="m48.39739,327.26085c.36746-.30744,4.22933-3.43929,8.51425-2.05048.69205.22414,3.79152,1.22868,4.48525,4.11064.73938,3.07269-1.93371,5.46427-2.05509,5.56963-1.85404,1.60631-4.35806,1.77956-6.16591,1.18246-3.09063-1.02091-5.22538-4.64856-4.7785-8.81225Z"/>
          <path class="cls-1" d="m42.85823,342.26826c-1.55804.59373-2.33189,2.34308-2.19307,3.83859.11014,1.18287.85245,2.86252,2.41278,3.18061,1.58385.32297,2.95488-.97177,3.5096-2.08379.76582-1.53566.49793-3.77376-.98725-4.71599-1.22073-.77414-2.62044-.2656-2.74205-.21942Z"/>
          <path class="cls-1" d="m60.07513,339.6879c-.64937,2.20311-.11473,4.55795,1.4261,6.1418.20766.21311,2.19135,2.18389,5.04469,1.7548.46408-.0697,3.16942-.53665,4.16758-2.96119.84728-2.05711-.01606-4.35459-1.42552-5.59339-1.87527-1.64839-4.39589-1.14071-5.70324-.8774-1.63433.32899-2.82982,1.05093-3.5096,1.53538Z"/>
          <path class="cls-1" d="m26.38558,338.46851c-1.74734.33243-2.56135,2.44232-2.63191,2.6322-.11588.31264-.89949,2.54328.54841,4.16758,1.52477,1.71034,3.99778,1.0363,4.16758.98697.15546-.04503,2.24986-.68551,2.74205-2.41278.71305-2.50255-2.34968-5.84493-4.82613-5.37397Z"/>
          <path class="cls-5" d="m53.44445,318.46154c-1.33486,2.25703-4.05592,2.63404-5.40687,1.49736-1.44929-1.21891-1.19215-4.06962-.0831-4.74162,1.08555-.65786,3.44983.49035,5.48998,3.24425Z"/>
          <path class="cls-5" d="m29.40218,324.23153c-.22302.54794-1.21489,3.15037,0,5.9121.90285,2.05215,3.13866,4.45194,6.1808,4.29967,1.965-.09839,4.07618-1.2519,5.01651-3.31436,1.13102-2.48085.06606-5.17651-1.34373-6.62871-2.23487-2.30234-6.416-2.59025-9.85358-.2687Z"/>
          <path class="cls-5" d="m48.48763,326.65909c.30147-.25223,3.46979-2.82164,6.9852-1.68224.56777.18389,3.11061,1.00803,3.67976,3.37243.6066,2.52087-1.58644,4.48296-1.68602,4.56939-1.52108,1.31784-3.57541,1.45997-5.05859.97011-2.53559-.83756-4.28697-3.81374-3.92034-7.22969Z"/>
          <path class="cls-5" d="m67.89504,316.73656c-1.84161.62905-3.53426,2.42329-3.48325,4.6154.05967,2.56677,2.4743,4.17948,4.35417,4.61563,1.65348.38376,4.30771.18562,5.57356-1.82885,1.08957-1.73365.55162-3.85835-.26146-5.13809-1.22941-1.93544-3.80939-3.07489-6.18302-2.26409Z"/>
          <path class="cls-5" d="m26.04563,338.46335c-1.5458.29409-2.26592,2.16061-2.32834,2.32859-.10251.27658-.79573,2.24993.48515,3.68687,1.34889,1.51306,3.53666.91677,3.68687.87313.13753-.03984,1.99035-.60644,2.42577-2.13448.6308-2.2139-2.07865-5.17075-4.26946-4.75411Z"/>
          <path class="cls-5" d="m60.03678,339.43015c-.55744,1.8912-.09849,3.91264,1.22419,5.27226.17826.18294,1.8811,1.8747,4.33047,1.50636.39838-.05983,2.7207-.46067,3.57754-2.54195.72733-1.76587-.01379-3.73807-1.2237-4.80149-1.60977-1.41501-3.77353-.97921-4.89579-.75318-1.40295.28241-2.42918.90214-3.01272,1.318Z"/>
          <path class="cls-5" d="m43.08349,342.22022c-1.19565.45563-1.78951,1.79809-1.68298,2.94576.08452.90774.65417,2.19672,1.85158,2.44082,1.21546.24785,2.26759-.74574,2.69329-1.59911.5877-1.17848.38211-2.89601-.75763-3.61908-.9368-.59408-2.01094-.20382-2.10427-.16839Z"/>
        </g>
        <path class="cls-6" d="m86.5648,331.82094c-1.2127-2.02614-4.10505-6.41285-9.17985-10.36358-.20049-.67117-.47871-1.29244-.80196-1.80098-1.32686-2.08895-3.90341-3.42871-6.49488-3.13013-.38521-.04532-.775-.0565-1.16795-.01119-2.66404-1.17398-6.4814-2.56336-11.20943-2.56336-2.76012.00201-5.34442.48646-7.74659,1.291-1.54226-1.03401-2.9348-1.35124-3.76057-.85072-.77357.46896-1.2279,1.74304-1.20581,3.0762-2.72599,1.54427-5.12758,3.44678-7.17896,5.39462-.89318-.20508-1.84314-.27334-2.81634-.20307-1.81675-.12506-3.80847.36025-5.60257,1.5718-.15632.38377-.67547,1.78434-.56333,3.53341-.07113,1.1995.05478,2.60753.69613,4.06547.1133.25728.24782.51944.39467.78189-.1893.31092-.32784.5487-.40098.6772-.79594,1.39856-1.79037,3.12812-2.71251,5.13791-.04675.00086-.09293.01004-.1394.01348-.21282-.0175-.4245-.01692-.6313.02237-1.5457.29428-2.26592,2.16066-2.32816,2.32874-.05995.1612-.31178.90436-.26445,1.77746-.0522.82348.08547,1.84228.849,2.69874.06597.074.14169.11989.21082.185-.55071,2.8803-.65712,6.05776.09351,9.47672.10555.44659.21139.89318.34046,1.32772,2.50255,8.94064,9.55158,13.7573,11.41968,15.03798,8.2121,5.62752,16.75291,5.31029,22.88582,5.08714,6.17966-.2352,15.96586-.59947,23.9901-7.87164,1.60967-1.45679,6.36753-5.88595,8.23562-13.25192,2.71394-10.69114-2.63163-19.62002-4.91074-23.43824Z"/>
      </g>
      <g>
        <g>
          <path class="cls-4" d="m75.5745,490.62977c-1.8681,7.36597-6.62596,11.79513-8.23562,13.25192-8.02423,7.27218-17.81044,7.63645-23.9901,7.87164-6.13291.22315-14.67371.54038-22.88582-5.08714-1.8681-1.28068-8.91712-6.09734-11.41968-15.03798-.12907-.43454-.23491-.88113-.34046-1.32772-2.09125-9.52777,2.40847-17.22302,4.9225-21.64042.92817-1.6329,11.36059-19.32602,28.18435-19.33778,5.74483,0,10.17399,2.05597,12.7821,3.27784.21168.09408.41131.18787.61094.29371,9.09323,4.45268,13.8161,11.54875,15.46105,14.29768,2.27912,3.81822,7.62469,12.7471,4.91074,23.43824Z"/>
          <path class="cls-3" d="m63.07436,473.79425c0,17.04691-13.32276,30.85125-29.75873,30.85125-10.03316,0-18.89148-5.13418-24.27233-13.01729-.12907-.43454-.23491-.88113-.34046-1.32772-2.09125-9.52777,2.40847-17.22302,4.9225-21.64042.92817-1.6329,11.36059-19.32602,28.18435-19.33778,5.74483,0,10.17399,2.05597,12.7821,3.27784.21168.09408.41131.18787.61094.29371,4.88751,5.49816,7.87164,12.8409,7.87164,20.90041Z"/>
          <path class="cls-1" d="m13.63178,459.96243c-.27306.67089-1.48748,3.85723,0,7.23862,1.10543,2.51259,3.84289,5.45083,7.56761,5.2644,2.40589-.12047,4.99077-1.5328,6.14208-4.05801,1.38479-3.03748.08088-6.33799-1.64523-8.11602-2.73632-2.81892-7.85558-3.17143-12.06446-.32899Z"/>
          <path class="cls-1" d="m37.54099,454.04005c-1.75996,2.97582-5.34758,3.47288-7.12876,1.97422-1.91083-1.60708-1.5718-5.36565-.10957-6.25165,1.43126-.86736,4.54848.6465,7.23833,4.27743Z"/>
          <path class="cls-1" d="m52.89534,452.17568c-2.31927.79221-4.45096,3.05182-4.38671,5.81252.07515,3.23252,3.11607,5.26354,5.48353,5.81281,2.08235.4833,5.42502.23376,7.0192-2.30321,1.37217-2.18332.69469-4.85911-.32928-6.47079-1.54828-2.43744-4.79745-3.87243-7.78674-2.85133Z"/>
          <path class="cls-1" d="m32.49393,462.63143c.36746-.30744,4.22933-3.43929,8.51425-2.05048.69205.22414,3.79152,1.22868,4.48525,4.11064.73938,3.07269-1.93371,5.46427-2.05509,5.56963-1.85404,1.60631-4.35806,1.77956-6.16591,1.18246-3.09063-1.02091-5.22538-4.64856-4.7785-8.81225Z"/>
          <path class="cls-1" d="m26.95477,477.63884c-1.55804.59373-2.33189,2.34308-2.19307,3.83859.11014,1.18287.85245,2.86252,2.41278,3.18061,1.58385.32297,2.95488-.97177,3.5096-2.08379.76582-1.53566.49793-3.77376-.98725-4.71599-1.22073-.77414-2.62044-.2656-2.74205-.21942Z"/>
          <path class="cls-1" d="m44.17167,475.05848c-.64937,2.20311-.11473,4.55795,1.4261,6.1418.20766.21311,2.19135,2.18389,5.04469,1.7548.46408-.0697,3.16942-.53665,4.16758-2.96119.84728-2.05711-.01606-4.35459-1.42552-5.59339-1.87527-1.64839-4.39589-1.14071-5.70324-.8774-1.63433.32899-2.82982,1.05093-3.5096,1.53538Z"/>
          <path class="cls-1" d="m10.48212,473.83909c-1.74734.33243-2.56135,2.44232-2.63191,2.6322-.11588.31264-.89949,2.54328.54841,4.16758,1.52477,1.71034,3.99778,1.0363,4.16758.98697.15546-.04503,2.24986-.68551,2.74205-2.41278.71305-2.50255-2.34968-5.84493-4.82613-5.37397Z"/>
          <path class="cls-5" d="m37.54099,453.83212c-1.33486,2.25703-4.05592,2.63404-5.40687,1.49736-1.44929-1.21891-1.19215-4.06962-.0831-4.74162,1.08555-.65786,3.44983.49035,5.48998,3.24425Z"/>
          <path class="cls-5" d="m13.49872,459.60211c-.22302.54794-1.21489,3.15037,0,5.9121.90285,2.05215,3.13866,4.45194,6.1808,4.29967,1.965-.09839,4.07618-1.2519,5.01651-3.31436,1.13102-2.48085.06606-5.17651-1.34373-6.62871-2.23487-2.30234-6.416-2.59025-9.85358-.2687Z"/>
          <path class="cls-5" d="m32.58417,462.02967c.30147-.25223,3.46979-2.82164,6.9852-1.68224.56777.18389,3.11061,1.00803,3.67976,3.37243.6066,2.52087-1.58644,4.48296-1.68602,4.56939-1.52108,1.31784-3.57541,1.45997-5.05859.97011-2.53559-.83756-4.28697-3.81374-3.92034-7.22969Z"/>
          <path class="cls-5" d="m51.99158,452.10714c-1.84161.62905-3.53426,2.42329-3.48325,4.6154.05967,2.56677,2.4743,4.17948,4.35417,4.61563,1.65348.38376,4.30771.18562,5.57356-1.82885,1.08957-1.73365.55162-3.85835-.26146-5.13809-1.22941-1.93544-3.80939-3.07489-6.18302-2.26409Z"/>
          <path class="cls-5" d="m10.14217,473.83393c-1.5458.29409-2.26592,2.16061-2.32834,2.32859-.10251.27658-.79573,2.24993.48515,3.68687,1.34889,1.51306,3.53666.91677,3.68687.87313.13753-.03984,1.99035-.60644,2.42577-2.13448.6308-2.2139-2.07865-5.17075-4.26946-4.75411Z"/>
          <path class="cls-5" d="m44.13332,474.80073c-.55744,1.8912-.09849,3.91264,1.22419,5.27226.17826.18294,1.8811,1.8747,4.33047,1.50636.39838-.05983,2.7207-.46067,3.57754-2.54195.72733-1.76587-.01379-3.73807-1.2237-4.80149-1.60977-1.41501-3.77353-.97921-4.89579-.75318-1.40295.28241-2.42918.90214-3.01272,1.318Z"/>
          <path class="cls-5" d="m27.18003,477.5908c-1.19565.45563-1.78951,1.79809-1.68298,2.94576.08452.90774.65417,2.19672,1.85158,2.44082,1.21546.24785,2.26759-.74574,2.69329-1.59911.5877-1.17848.38211-2.89601-.75763-3.61908-.9368-.59408-2.01094-.20382-2.10427-.16839Z"/>
        </g>
        <path class="cls-6" d="m70.66134,467.19152c-1.2127-2.02614-4.10505-6.41285-9.17985-10.36358-.20049-.67117-.47871-1.29244-.80196-1.80098-1.32686-2.08895-3.90341-3.42871-6.49488-3.13013-.38521-.04532-.775-.0565-1.16795-.01119-2.66404-1.17398-6.4814-2.56336-11.20943-2.56336-2.76012.00201-5.34442.48646-7.74659,1.291-1.54226-1.03401-2.9348-1.35124-3.76057-.85072-.77357.46896-1.2279,1.74304-1.20581,3.0762-2.72599,1.54427-5.12758,3.44678-7.17896,5.39462-.89318-.20508-1.84314-.27334-2.81634-.20307-1.81675-.12506-3.80847.36025-5.60257,1.5718-.15632.38377-.67547,1.78434-.56333,3.53341-.07113,1.1995.05478,2.60753.69613,4.06547.1133.25728.24782.51944.39467.78189-.1893.31092-.32784.5487-.40098.6772-.79594,1.39856-1.79037,3.12812-2.71251,5.13791-.04675.00086-.09293.01004-.1394.01348-.21282-.0175-.4245-.01692-.6313.02237-1.5457.29428-2.26592,2.16066-2.32816,2.32874-.05995.1612-.31178.90436-.26445,1.77746-.0522.82348.08547,1.84228.849,2.69874.06597.074.14169.11989.21082.185-.55071,2.8803-.65712,6.05776.09351,9.47672.10555.44659.21139.89318.34046,1.32772,2.50255,8.94064,9.55158,13.7573,11.41968,15.03798,8.2121,5.62752,16.75291,5.31029,22.88582,5.08714,6.17966-.2352,15.96586-.59947,23.9901-7.87164,1.60967-1.45679,6.36753-5.88595,8.23562-13.25192,2.71394-10.69114-2.63163-19.62002-4.91074-23.43824Z"/>
      </g>
      <g>
        <g>
          <path class="cls-3" d="m93.04705,598.66202c-1.8681,7.36597-6.62596,11.79513-8.23562,13.25192-8.02423,7.27218-17.81044,7.63645-23.9901,7.87164-6.13291.22315-14.67371.54038-22.88582-5.08714-1.8681-1.28068-8.91712-6.09734-11.41968-15.03798-.12907-.43454-.23491-.88113-.34046-1.32772-2.09125-9.52777,2.40847-17.22302,4.9225-21.64042.92817-1.6329,11.36059-19.32602,28.18435-19.33778,5.74483,0,10.17399,2.05597,12.7821,3.27784.21168.09408.41131.18787.61094.29371,9.09323,4.45268,13.8161,11.54875,15.46105,14.29768,2.27912,3.81822,7.62469,12.7471,4.91074,23.43824Z"/>
          <path class="cls-1" d="m80.5469,581.8265c0,17.04691-13.32276,30.85125-29.75873,30.85125-10.03316,0-18.89148-5.13418-24.27233-13.01729-.12907-.43454-.23491-.88113-.34046-1.32772-2.09125-9.52777,2.40847-17.22302,4.9225-21.64042.92817-1.6329,11.36059-19.32602,28.18435-19.33778,5.74483,0,10.17399,2.05597,12.7821,3.27784.21168.09408.41131.18787.61094.29371,4.88751,5.49816,7.87164,12.8409,7.87164,20.90041Z"/>
          <path class="cls-2" d="m65.478,573.36492c-4.86915,0-8.45562-2.71222-8.60592-2.82695-.51514-.39467-.61381-1.13239-.22028-1.64638.22372-.29486.56447-.46351.9339-.46351.25929,0,.50481.08375.71247.24208.31321.23979,3.19065,2.35541,7.11328,2.35541,1.28154,0,2.54013-.23061,3.74135-.68723,4.70279-1.78864,6.35032-6.16675,6.6337-7.02608.15833-.48301.60578-.8077,1.11403-.8077.12391,0,.24782.02065.36828.05966.6161.20307.95111.86851.74804,1.48461-.34075,1.03716-2.33247,6.31934-8.02997,8.48545-1.45019.55071-2.96692.83065-4.5089.83065Z"/>
          <path class="cls-2" d="m65.07988,582.73724c-2.21085,0-4.29894-.17554-5.97515-.31666-1.87584-.15948-4.17618-.35337-7.06165-1.18975-6.3595-1.83798-12.09601-5.77552-16.59114-11.38698-.19619-.24438-.28453-.55185-.25011-.86392s.18816-.59201.43368-.7882c.26617-.21225.54497-.257.73198-.257.36025,0,.69527.16062.92014.44171,2.91988,3.64613,7.96343,8.44644,15.40827,10.59878,2.67207.77213,4.74639.94652,6.57749,1.10141,1.74734.148,3.7207.31321,5.84436.31321,5.7434,0,10.07561-1.30792,13.24446-3.9972,2.11448-1.79438,3.72988-4.21289,4.80146-7.189.16636-.4658.61151-.77787,1.106-.77787.13538,0,.26847.02409.39811.06999.29371.10555.53005.3201.66429.60463.13309.28338.148.60233.04245.89719-1.2127,3.36963-3.061,6.12315-5.49328,8.18715-3.61056,3.0633-8.45218,4.5525-14.80135,4.5525Z"/>
          <path class="cls-2" d="m65.52618,595.04891c-2.73976,0-5.08026-.24208-6.78859-.41877-4.25879-.43827-11.38813-1.1714-19.14504-5.83633-4.16586-2.50341-7.83722-5.73307-10.91429-9.59948-.19504-.24552-.28338-.55071-.24782-.86277.03442-.31207.1893-.59086.43483-.78705.26617-.21225.54382-.25585.73083-.25585.36025,0,.69527.16062.91899.44286,2.90497,3.64727,6.36523,6.69107,10.28671,9.04992,7.30602,4.38958,14.10838,5.09288,18.17327,5.51164,1.63146.16865,3.86297.39811,6.49029.39811,5.25923,0,10.04463-.90407,14.6304-2.76385,4.10046-1.66359,7.88312-4.03162,11.24127-7.0387.21569-.19389.49334-.29945.78246-.29945.33845,0,.65052.13882.87769.39238.43024.48187.38894,1.22647-.09293,1.65785-3.56123,3.18835-7.57334,5.6998-11.92506,7.4655-4.88521,1.98139-9.94023,2.94398-15.45302,2.94398Z"/>
          <path class="cls-2" d="m43.90068,602.6997c-3.18491,0-7.9118-.68609-12.34956-3.9536-4.41597-3.24916-6.39736-7.52516-7.18556-9.7842-.2134-.61151.11129-1.28383.7228-1.49723.1262-.04474.257-.06654.38779-.06654.49793,0,.94308.31666,1.10829.78934.69871,2.00204,2.45293,5.79273,6.3595,8.66787,3.92722,2.89006,8.10913,3.49698,10.92691,3.49698.61954,0,1.22647-.02983,1.80241-.08834.05278-.00574.09637-.00803.13997-.00803.59316,0,1.0865.45433,1.1473,1.05667.06654.64364-.405,1.22188-1.04863,1.28727-.63675.06654-1.31251.09982-2.01122.09982Z"/>
        </g>
        <path class="cls-7" d="m92.61589,584.88807c.0958-.08433.19475-.16349.28969-.24868.48187-.43139.52317-1.17599.09293-1.65785-.22717-.25355-.53923-.39238-.87769-.39238-.09064,0-.17554.02811-.26216.04847-1.22417-3.22449-2.74951-5.78642-3.72099-7.41387-.60119-1.00475-1.61913-2.59348-3.10603-4.41855.11014-.27334.24265-.52518.34419-.80741.10555-.29486.09064-.61381-.04245-.89719-.13423-.28453-.37058-.49908-.66429-.60463-.12965-.04589-.26273-.06999-.39811-.06999-.36599,0-.70387.17238-.92272.45032-1.45564-1.56091-3.23539-3.19638-5.35991-4.74037.00918-.02754.02237-.06368.02983-.08691.20307-.6161-.13194-1.28154-.74804-1.48461-.12047-.03901-.24438-.05966-.36828-.05966-.31264,0-.59316.13309-.80655.34018-1.06527-.6749-2.19967-1.32169-3.41867-1.91886-.19963-.10584-.39926-.19963-.61094-.29371-2.60811-1.22188-7.03727-3.27784-12.7821-3.27784-9.60722.00688-17.1255,5.77839-21.9849,11.03361-.00287-.00373-.0066-.00803-.00975-.01147-.22487-.28109-.55988-.44171-.92014-.44171-.18701,0-.4658.04474-.73198.257-.24552.19619-.39926.47613-.43368.7882s.05392.61954.25011.86392c.08978.11186.18758.21282.27851.32354-2.6976,3.21532-4.29521,5.93155-4.63252,6.52471-.18529.32583-.38377.6749-.58713,1.03573-.22401-.27937-.55644-.43942-.91469-.43942-.18701,0-.46466.0436-.73083.25585-.24552.19619-.40041.47498-.43483.78705-.03557.31207.05278.61725.24782.86277.20479.25728.41877.50395.62872.75521-1.13698,2.19938-2.28858,4.83244-2.99217,7.82116-.21684-.22688-.51227-.37259-.83868-.37259-.13079,0-.26158.0218-.38779.06654-.61151.2134-.9362.88572-.7228,1.49723.27507.78848.70789,1.83023,1.32628,2.98041-.12534,2.01811-.00803,4.15151.48359,6.39048.10555.44659.21139.89318.34046,1.32772,2.50255,8.94064,9.55158,13.7573,11.41968,15.03798,8.2121,5.62752,16.75291,5.31029,22.88582,5.08714,6.17966-.2352,15.96586-.59947,23.9901-7.87164,1.60967-1.45679,6.36753-5.88595,8.23562-13.25192,1.29989-5.12127.74345-9.82951-.43253-13.77394Z"/>
      </g>
    </g>
  </g>
</svg>