<?xml version="1.0" encoding="UTF-8"?>
<svg id="Layer_2" data-name="Layer 2" xmlns="http://www.w3.org/2000/svg" viewBox="0 0 347.8021 1130.51209">
  <defs>
    <style>
      .cls-1, .cls-2 {
        stroke-linejoin: round;
      }

      .cls-1, .cls-2, .cls-3, .cls-4, .cls-5, .cls-6, .cls-7 {
        stroke-linecap: round;
      }

      .cls-1, .cls-2, .cls-3, .cls-4, .cls-5, .cls-6, .cls-7, .cls-8, .cls-9, .cls-10, .cls-11, .cls-12, .cls-13, .cls-14 {
        fill: none;
      }

      .cls-1, .cls-3 {
        stroke: #7b3f24;
      }

      .cls-2, .cls-4 {
        stroke: #2b4015;
      }

      .cls-15 {
        fill: #ec6c2e;
      }

      .cls-16 {
        fill: #f5c454;
      }

      .cls-17 {
        fill: #eac6b7;
      }

      .cls-18 {
        fill: #f05b29;
      }

      .cls-19 {
        fill: #fff;
      }

      .cls-20 {
        fill: #e6d9cf;
      }

      .cls-21 {
        fill: #803b1c;
      }

      .cls-22 {
        fill: #927968;
      }

      .cls-23 {
        fill: #8ea949;
      }

      .cls-24 {
        fill: #231f20;
      }

      .cls-25 {
        fill: #a35542;
      }

      .cls-26 {
        fill: #967865;
      }

      .cls-27 {
        fill: #6d6e71;
      }

      .cls-28 {
        fill: #2b4015;
      }

      .cls-29 {
        fill: #623316;
      }

      .cls-30 {
        fill: #7b3f24;
      }

      .cls-3, .cls-4, .cls-5, .cls-6, .cls-7, .cls-8, .cls-9, .cls-10, .cls-11, .cls-12, .cls-13, .cls-14 {
        stroke-miterlimit: 10;
      }

      .cls-5 {
        stroke: #414042;
      }

      .cls-6, .cls-9 {
        stroke: #221f20;
      }

      .cls-7, .cls-10 {
        stroke: #231f20;
      }

      .cls-8 {
        stroke: #000;
        stroke-width: .75px;
      }

      .cls-11 {
        stroke: #eac6b7;
      }

      .cls-12 {
        stroke: #726658;
      }

      .cls-13 {
        stroke: #a86723;
      }

      .cls-14 {
        stroke: #7d6962;
        stroke-width: 1.75px;
      }

      .cls-31 {
        fill: #f9e0bd;
        opacity: .25;
      }
    </style>
  </defs>
  <g id="floor_clutter" data-name="floor clutter">
    <g>
      <g>
        <g>
          <g>
            <g>
              <rect class="cls-21" x="-94.39403" y="709.44092" width="706.39217" height="30" transform="translate(983.24298 465.63887) rotate(90)"/>
              <rect class="cls-21" x="293.80206" y="1097.63701" width="54" height="30" transform="translate(641.60411 2225.27402) rotate(180)"/>
              <rect class="cls-21" x="293.80207" y="321.24484" width="53.99998" height="30" transform="translate(641.60413 672.48969) rotate(180)"/>
              <path class="cls-21" d="m293.80206,1097.63701c-11.04565,0-20-8.95435-20-20h-30c0,27.61426,22.38574,50,50,50v-30Z"/>
              <path class="cls-21" d="m273.80206,371.24484c0-11.04565,8.95435-20,20.00001-19.99999v-30c-27.61425,0-50,22.38573-50.00001,49.99998h30Z"/>
            </g>
            <g>
              <rect class="cls-21" x="236.80206" y="504.43182" width="7" height="20"/>
              <path class="cls-29" d="m229.35269,509.5346h-2.31851c-.5642,0-1.02158.45738-1.02158,1.02158v7.75127c0,.5642.45738,1.02158,1.02158,1.02158h2.31851c.65816,0,1.14458.61325.99476,1.25414l-2.35989,10.09451c-.14983.64088.3366,1.25414.99476,1.25414h6.79815c.5642,0,1.02158-.45738,1.02158-1.02158v-32.95684c0-.5642-.45738-1.02158-1.02158-1.02158h-6.79815c-.65816,0-1.14458.61325-.99476,1.25414l2.35989,10.09451c.14983.64088-.3366,1.25414-.99476,1.25414Z"/>
            </g>
            <rect class="cls-29" x="254.80206" y="357.74484" width="8" height="35" rx=".99921" ry=".99921" transform="translate(634.04689 116.44278) rotate(90)"/>
            <rect class="cls-29" x="293.80207" y="318.74484" width="8" height="35" rx=".99921" ry=".99921" transform="translate(595.60414 672.48969) rotate(180)"/>
            <rect class="cls-29" x="254.80206" y="1056.13701" width="8" height="35" rx=".99921" ry=".99921" transform="translate(1332.43907 814.83495) rotate(90)"/>
            <rect class="cls-29" x="293.80206" y="1095.13701" width="8" height="35" rx=".99921" ry=".99921" transform="translate(595.60411 2225.27402) rotate(180)"/>
            <rect class="cls-29" x="254.80206" y="706.94092" width="8" height="35" rx=".99921" ry=".99921" transform="translate(983.24298 465.63887) rotate(90)"/>
          </g>
          <g>
            <path class="cls-8" d="m347.8021,1097.63709h-46v-1.50073c0-.552-.44751-.99927-.99927-.99927h-6.00159c-.55188,0-.99915.44727-.99915.99927v1.50073c-11.04565,0-20-8.95435-20-20h1.50073c.55176,0,.99927-.44751.99927-.99927v-6.00146c0-.552-.44751-.99927-.99927-.99927h-1.50073v-341.19604h1.50073c.55176,0,.99927-.44751.99927-.99927v-6.00171c0-.55176-.44751-.99902-.99927-.99902h-1.50073v-341.19629h1.50073c.55176,0,.99927-.44727.99927-.99902v-6.00171c0-.55176-.44751-.99927-.99927-.99927h-1.50073c0-11.04541,8.95435-20,20-20v1.50098c0,.55176.44727.99902.99915.99902h6.00159c.55188,0,.99927-.44727.99927-.99902v-1.50098h46"/>
            <path class="cls-8" d="m347.8021,321.24476h-46v-1.50073c0-.55176-.44739-.99927-.99927-.99927h-6.00159c-.55188,0-.99915.44751-.99915.99927v1.50073c-27.61426,0-50,22.38574-50,50h-1.50085c-.55188,0-.99915.44751-.99915.99927v6.00171c0,.55176.44727.99902.99915.99902h1.50085v125.18701h-7v-6.47827c0-.56421-.45752-1.02173-1.02173-1.02173h-6.7981c-.6582,0-1.14453.61328-.99475,1.25415l2.35999,10.09448c.14978.64111-.33667,1.25415-.99487,1.25415h-2.31848c-.56421,0-1.02161.45752-1.02161,1.02173v7.75122c0,.56421.4574,1.02148,1.02161,1.02148h2.31848c.6582,0,1.14465.61328.99487,1.25415l-2.35999,10.09448c-.14978.64087.33655,1.25415.99475,1.25415h6.7981c.56421,0,1.02173-.45728,1.02173-1.02148v-6.47852h7v196.00928h-1.50085c-.55188,0-.99915.44727-.99915.99902v6.00171c0,.55176.44727.99927.99915.99927h1.50085v341.19604h-1.50085c-.55188,0-.99915.44727-.99915.99927v6.00146c0,.55176.44727.99927.99915.99927h1.50085c0,27.61426,22.38574,50,50,50v1.50073c0,.55176.44727.99927.99915.99927h6.00159c.55176,0,.99927-.44751.99927-.99927v-1.50073h46"/>
          </g>
        </g>
        <g>
          <g>
            <g>
              <rect class="cls-25" x="74.2906" y="847.46892" width="132.0003" height="30" transform="translate(-722.17818 1002.75967) rotate(-90)"/>
              <rect class="cls-25" x="175.29076" y="746.46878" width="172.5113" height="30" transform="translate(523.09281 1522.93757) rotate(180)"/>
              <rect class="cls-25" x="175.29075" y="948.46907" width="172.51131" height="30" transform="translate(523.0928 1926.93815) rotate(180)"/>
              <path class="cls-25" d="m175.29075,948.46907c-11.04565,0-20-8.95435-20-20h-30c0,27.61426,22.38574,50,50,50v-30Z"/>
              <path class="cls-25" d="m155.29075,796.46878c0-11.04565,8.95435-20,20.00001-19.99999v-30c-27.61425,0-50,22.38573-50.00001,49.99998h30Z"/>
            </g>
            <rect class="cls-21" x="136.29075" y="782.16457" width="8" height="35" rx=".99921" ry=".99921" transform="translate(939.95532 659.37383) rotate(90)"/>
            <rect class="cls-21" x="175.29076" y="743.96878" width="8" height="35" rx=".99921" ry=".99921" transform="translate(358.58153 1522.93757) rotate(180)"/>
            <rect class="cls-21" x="136.29075" y="906.96907" width="8" height="35" rx=".99921" ry=".99921" transform="translate(1064.75982 784.17833) rotate(90)"/>
            <rect class="cls-21" x="175.29075" y="945.96907" width="8" height="35" rx=".99921" ry=".99921" transform="translate(358.58149 1926.93815) rotate(180)"/>
            <rect class="cls-21" x="310.16312" y="743.96878" width="8" height="35" rx=".99921" ry=".99921" transform="translate(628.32623 1522.93756) rotate(180)"/>
            <rect class="cls-21" x="310.1631" y="945.96907" width="8" height="35" rx=".99921" ry=".99921" transform="translate(628.3262 1926.93813) rotate(180)"/>
          </g>
          <g>
            <path class="cls-8" d="m347.80205,746.4688h-29.63892v-1.50073c0-.55176-.44739-.99927-.99915-.99927h-6.00171c-.55176,0-.99915.44751-.99915.99927v1.50073h-126.87244v-1.50073c0-.55176-.44727-.99927-.99915-.99927h-6.00159c-.55182,0-.99921.44751-.99921.99927v1.50073c-27.34454,0-49.54828,21.9541-49.97968,49.1958h-1.52112c-.55188,0-.99921.44751-.99921.99927v6.00146c0,.552.44733.99927.99921.99927h1.50079v116.80444h-1.50079c-.55188,0-.99921.44751-.99921.99927v6.00171c0,.55176.44733.99902.99921.99902h1.50079c0,27.61426,22.38574,50,50,50v1.50098c0,.55176.44733.99902.99921.99902h6.00159c.55188,0,.99915-.44727.99915-.99902v-1.50098h126.87231v1.50098c0,.55176.44751.99902.99927.99902h6.00159c.55188,0,.99915-.44727.99915-.99902v-1.50098h29.63904"/>
            <path class="cls-8" d="m347.80205,948.46905h-29.63904v-1.50073c0-.55176-.44727-.99927-.99915-.99927h-6.00159c-.55176,0-.99927.44751-.99927.99927v1.50073h-126.87231v-1.50073c0-.55176-.44727-.99927-.99915-.99927h-6.00159c-.55188,0-.99921.44751-.99921.99927v1.50073c-11.04565,0-20-8.9541-20-20h1.50079c.55182,0,.99921-.44727.99921-.99902v-6.00171c0-.55176-.44739-.99927-.99921-.99927h-1.50079v-116.80444h1.50079c.55182,0,.99921-.44727.99921-.99927v-6.00146c0-.55176-.44739-.99927-.99921-.99927h-1.46021c.42529-10.66968,9.18524-19.1958,19.95941-19.1958v1.50073c0,.552.44739.99927.99921.99927h6.00159c.55188,0,.99915-.44727.99915-.99927v-1.50073h126.87244v1.50073c0,.552.44739.99927.99915.99927h6.00171c.55176,0,.99915-.44727.99915-.99927v-1.50073h29.63892"/>
          </g>
        </g>
        <path class="cls-20" d="m211.43544,958.76372c-.11534-.2968-.40772-.65283-.31942-.88146,1.27923-3.31215-.86996-5.40785-2.85769-7.46132-9.11919-9.42103-20.99854-12.54684-34.07001-12.75948-.88981-.01448-1.95556.78582-2.70469,1.44908-7.05739,6.24819-13.09461,13.31254-18.3739,20.97319-.54824.79546-1.16306,1.55102-1.77445,2.30509-.07974.09829-.3245.07615-1.18792.24879.57432-1.23042.87514-2.19729,1.42839-3.01097,6.79438-9.99411,14.91114-18.90321,24.67507-26.35492,2.36317-1.80359,3.12193-3.71431,3.02151-6.42018-.38197-10.29393-4.31924-19.02366-11.99038-26.10908-1.08606-1.00311-2.64167-1.74106-4.12476-2.12369-6.76429-1.74523-13.58437-3.30558-20.3725-4.97339-.86701-.213-1.66434-.66658-2.49393-1.00872.08377-.26062.16757-.52125.25134-.78187.7929.09623,1.60934.11243,2.37429.3036,2.34717.58658,4.76516,1.03908,6.9888,1.91438,3.43607,1.35258,6.25192.26002,9.11599-1.53494,10.426-6.53418,14.48474-16.93953,11.05922-29.55733-.99874-3.67882-2.81284-7.16786-4.49274-10.63482-2.59096-5.34706-5.40743-10.59123-8.07727-15.90303-.38708-.77011-.4916-1.67344-.72687-2.5151.2152-.09833.43039-.1967.64559-.29503.36555.37287.8355.69272,1.07351,1.13043.41015.75425.66928,1.5845,1.00343,2.37826,2.71592,6.4517,2.95729,6.67763,10.31015,5.62786,9.45847-1.35033,15.67465-6.83409,19.66308-14.8596.3963-.79746.21591-2.04762-.12042-2.9348-6.01181-15.85761-9.67126-32.26883-11.8475-49.0331-.12291-.9469-.05351-1.92006-.07361-2.88099.29103-.05262.58205-.10522.87305-.15782.21492.7113.51566,1.40868.63069,2.13618.67104,4.24519,1.18405,8.52027,2.02183,12.73122.20781,1.04462,1.20536,2.33451,2.20369,2.7571,10.06811,4.26165,23.47746,1.56342,31.06844-6.25796.7913-.81532.96489-2.32581,1.10182-3.54085.99497-8.8293,1.89685-17.66638,2.86078-26.49834.09611-.88065.40996-1.7438.62275-2.61509.28429.01147.56858.02293.85284.0344.03565.80088.22273,1.62342.08495,2.39951-4.40898,24.83242-4.11501,49.48788,1.85332,73.86147,7.07193,28.88045,21.65075,53.45559,45.54719,72.57056.64903.51918,1.17929,1.17239,2.29059,2.29328-32.35746,6.83665-50.37141,26.45797-57.30037,56.24717-.23796-.08587-.47589-.17178-.71385-.25765Zm-27.66231-157.09585c2.86479,11.69273,6.42211,22.42766,11.2983,32.72045.31755.67031,1.43215,1.34326,2.22742,1.38756,8.10166.45141,15.24072-1.6969,20.51808-8.01537.82885-.99234,1.26383-2.67661,1.11494-3.94492-.98035-8.35204-2.17186-16.67756-3.29035-25.01235-.11102-.82755-.19354-1.65909-.2504-2.15182-5.05619,2.16012-9.85206,4.62448-14.9259,6.26316-5.37485,1.7359-10.86819.88169-16.69208-1.24671Zm-20.72636,42.89064c3.79124,7.43361,8.1206,13.76339,13.12355,19.65858.48944.57681,1.96614.71149,2.90777.56029,9.74949-1.56586,16.42886-6.93613,20.28623-15.53846.41423-.9238.18331-2.3522-.26657-3.31957-1.92193-4.13239-4.04748-8.17531-6.07879-12.2602-.67515-1.3576-1.29054-2.74311-2.18102-4.64512-6.09839,10.65813-14.94187,16.03964-27.79117,15.54448Zm33.92648-7.18023c-.24697.29984-.49392.59964-.74089.89947,4.31568,6.84201,8.61163,13.69576,12.99507,20.49728.26901.41739,1.26135.66339,1.86365.58048,6.29443-.86622,11.39063-3.56317,14.11051-9.33361.56233-1.19295.60379-2.85538.24625-4.12694-1.09153-3.88243-2.51707-7.67283-3.76737-11.51316-.62364-1.91557-1.14869-3.862-1.86776-6.30136-6.22386,7.06974-13.92169,9.63509-22.83946,9.29784Zm-18.69592,29.40907c5.16785,5.98863,10.75637,11.07164,17.02944,15.45405.48769.34071,1.91712-.00962,2.56639-.4767,6.54328-4.70667,10.31876-10.87154,10.71111-18.71275.0424-.84721.17453-1.87198-.23525-2.52138-2.27382-3.60361-4.70237-7.11664-7.15012-10.76834-8.40732,12.24747-8.49402,12.31208-22.92156,17.02512Zm-20.79383,28.47183l.21374.69457c5.53434,1.02729,11.06266,2.08336,16.61175,3.04048.60166.10379,1.45068-.20719,1.96999-.59224,6.13696-4.54973,10.38935-10.22787,11.13171-17.73994.12152-1.22936-.60032-2.79648-1.46808-3.77094-4.03765-4.53422-8.26128-8.91699-12.42605-13.34736-.41609-.44264-.88408-.84077-1.328-1.25957,2.71305,14.06026-1.02491,25.39501-14.70507,32.97501Zm54.50118,57.08328c2.07117-3.38178,1.67074-6.26775.31024-9.26959-3.41969-7.54538-9.22476-12.57723-17.12122-15.73925-3.85965-1.54549-7.08275-1.48821-10.38859,1.33132-2.86226,2.44116-6.07106,4.51115-9.1267,6.74521,14.54729,1.48187,27.27266,5.48289,36.32626,16.9323Zm-31.17031-22.76313c2.4617-1.60881,4.36936-2.77041,6.16902-4.06956.8278-.59759,1.73813-1.35661,2.10609-2.22818,1.77362-4.20085,2.21062-8.54771,1.06905-12.91568-1.34051-5.12938-3.68489-9.0742-10.32607-9.01576-3.40391.02996-6.79671-.9445-10.19455-1.46503,7.55503,8.50284,11.37774,18.07645,11.17647,29.69421Zm34.34216-143.91923c-10.29835,8.22684-21.14517,10.50913-33.11872,6.31685.06165,6.64481,1.27282,8.44686,6.66304,9.61913,9.91031,2.15536,18.22902-1.37202,25.78331-7.31834.48091-.3785.81418-1.1905.82905-1.80214.04968-2.03806-.07714-4.0767-.15668-6.8155Zm9.14054,93.01654c.43039,6.96347-3.66607,11.13917-9.69803,14.80586,4.30277,1.48451,7.86278,2.81562,11.49655,3.94123,4.88775,1.51404,10.34452-1.52209,11.50389-6.36094.17518-.73115.10278-1.9186-.38013-2.31053-4.10831-3.33462-8.33819-6.53393-12.92228-10.07563Zm-.29589-2.46731c4.52845,3.64024,8.43251,6.86731,12.44194,9.97157,2.84033,2.199,6.05618,1.8385,8.52746-.77764,1.37134-1.4517,1.72717-2.83014.3668-4.58971-2.65178-3.43002-5.0828-7.01765-7.58376-10.55406-.8275-1.17008-1.58899-2.38329-2.68017-4.02832-1.96256,5.06817-5.54432,7.96271-11.07226,9.97816Zm-32.1561,48.53725c11.0716,3.04492,18.75614,9.34886,23.15293,19.54672,1.31706-2.88057,3.10922-5.86191,2.65983-8.44797-.53887-3.10143-2.41875-6.38955-4.72233-8.67493-6.16683-6.11814-13.09619-9.64918-21.09043-2.42382Zm18.43934-61.2403c-.86735,8.60787-5.24539,15.2165-12.58595,20.3828,2.66495,1.6968,4.97343,3.26198,7.40277,4.63718.51747.29294,1.59218.10575,2.21099-.21682,8.45266-4.40641,13.69484-16.36821,2.9722-24.80315Zm13.33874,64.95723c2.71655-2.93684,5.06879-5.56015,7.51549-8.10098,2.18103-2.26484,2.3641-4.2098.47825-7.12038-1.75067-2.70195-4.20595-3.79626-6.95343-2.9189-3.8737,1.23701-7.71418,2.5751-11.55733,3.90184-.59699.20608-1.13284.58128-2.21493,1.15102,6.79677,2.38145,10.59264,6.79241,12.73196,13.08739Zm-34.46967-48.36041c-.81647,7.97794-5.03147,13.98161-11.13432,19.05511,6.28591,2.54808,10.60794,1.60733,14.45875-3.38785,4.15217-5.38616,5.96902-11.36657-3.32443-15.66726Zm21.64761-19.02647c1.94852,2.38168,3.53628,4.40078,5.23444,6.33096.33383.3795,1.1311.65584,1.65147.5728,4.67159-.74548,8.44335-2.77398,10.97934-6.84086,2.50866-4.02313.37889-7.13526-1.71245-10.91764-3.26658,6.58545-8.87255,9.56087-16.1528,10.85474Zm-22.59931,41.50489c4.40694,6.5972,4.9123,13.06946,3.4544,20.07462,2.962-1.61486,6.09004-3.01118,7.95687-5.32346,2.75078-3.40718,1.69469-9.83238-1.33386-12.97476-.34291-.35572-.83032-.73933-1.30167-.80147-2.63434-.34709-5.28433-.59923-8.77574-.97492Zm45.18027-3.54964c4.11781,1.95483,24.44195,3.8288,28.18284,2.42139-3.72636-1.6692-7.50575-3.22039-11.13975-5.02994-3.62202-1.8036-7.09825-3.8663-10.15783-5.55082-2.4284,2.87778-4.68974,5.55756-6.88527,8.15936Zm-36.08166-13.1873c.36383,6.65662-2.9625,11.134-8.29663,15.17824,2.48468.30571,4.24565.55208,6.01515.73453,5.19904.53595,10.49966-3.93032,10.39299-8.89346-.02121-.98576-.52126-2.27743-1.2829-2.847-1.94583-1.4551-4.16389-2.58239-6.8286-4.17231Zm21.91551,48.70192c.36611.0271.73222.05418,1.09832.08125.6087-1.85797,2.08889-3.93904,1.67078-5.53416-1.55943-5.94878-5.24419-10.33429-11.73105-12.21467-3.10854-.90106-5.21172.58917-8.12527,2.29478,8.78839,2.54961,14.35945,7.56761,17.08722,15.3728Zm-1.40322-62.07804c.48385,7.70864-3.12827,13.32092-9.79437,17.32024,4.08568,3.02407,5.24397,3.11636,8.79863.34893,1.59349-1.24061,3.13419-2.70443,4.22292-4.34812,3.2216-4.86383,2.01717-9.91455-3.22718-13.32105Zm37.91693,31.85282c-8.88557.40168-17.35592,2.2391-25.52521,4.41977,1.76884,2.77454,3.3066,5.18657,4.66079,7.31069,6.74991-3.79495,13.70338-7.70438,20.86442-11.73046Zm7.49507-4.67935c-5.10814-5.05727-10.21628-10.11453-15.13338-14.98263-2.17279,1.65103-4.24745,3.22755-6.52395,4.95741,6.65395,4.37396,13.77607,7.90127,21.65733,10.02522Zm-44.74766-30.13191c2.9836,5.57603,5.65261,6.20104,10.44482,2.54083,1.17984-.90113,2.24801-2.03893,3.06948-3.24864,2.38795-3.51665,2.17418-5.55798-.89386-9.22923-2.19805,5.70722-6.76668,8.62702-12.62044,9.93704Zm-7.36512,43.68182c4.63457-1.53544,9.57706-3.1148,14.45554-4.86422.5949-.21334,1.00654-1.30974,1.17831-2.05874.07046-.30723-.69559-1.10399-1.12346-1.12574-5.23759-.26632-10.48313-.43001-15.47583-.61118.33876,3.03859.64326,5.77002.96544,8.65988Zm-.34315-10.15118c5.03667.13855,10.11266.34594,15.19252.32975.6168-.00195,1.6583-1.15998,1.76731-1.87113.10605-.69209-.54264-1.9397-1.18802-2.18249-4.05242-1.52458-8.19652-2.8366-12.04915-4.13117-1.21813,2.57028-2.37962,5.02116-3.72265,7.85505Zm-10.62881,1.11656c2.53463,4.06847,3.20777,8.19591,1.80207,12.62709,5.19679-.8421,8.01659-3.86045,7.46458-7.76059-.5849-4.13281-2.99346-5.48412-9.26665-4.8665Zm6.91838-12.20745c.31123,4.28459-2.18757,7.29436-5.80188,10.25206,1.66986.19238,2.62867.34389,3.59566.40682,3.31914.21586,6.46244-2.16581,7.16624-5.39798.63756-2.92817-.22922-3.90045-4.96002-5.2609Zm22.13317,11.62999c5.12928-.0587,9.99965-.11443,14.87004-.17019l.05649-.57246c-4.82706-.87915-9.65412-1.75828-14.53413-2.64705-.12765,1.10263-.22556,1.94841-.3924,3.3897Zm-.47701,3.93617c2.54975-.62603,4.83453-1.18701,7.11935-1.74797-5.21442-1.32173-7.07432-.89497-7.11935,1.74797Z"/>
      </g>
      <g>
        <g>
          <path class="cls-23" d="m146.17511,531.04432c-2.13838-.54879-4.06861-1.89238-5.56359-3.76583v-.01892c0-.20816-.01892-.3974-.03785-.60556h3.63336v-.30278c3.65229.73803,7.62628.09462,10.76762-1.9113,1.34359-.85157,2.51686-1.93022,3.51982-3.16027-1.24897,5.77175-5.4122,10.01067-10.37022,10.01067-.34063,0-.68126-.01892-1.02188-.0757-.30278-.01892-.62448-.09462-.92726-.17031Z"/>
          <path class="cls-23" d="m47.33631,516.68119v-7.6452c.62448.98404,1.15435,2.06269,1.55175,3.23596.54879,1.64637.85157,3.44412.85157,5.3365s-.30278,3.70906-.85157,5.35542c-.3974,1.15435-.92726,2.25193-1.55175,3.23596v-9.51865Z"/>
          <path class="cls-19" d="m47.33631,526.19984v.05677l-.11354.17031c-.01892,0-.03785,0-.05677.01892.05677-.09462.11354-.17031.17031-.24601Z"/>
          <path class="cls-22" d="m49.73962,517.60845c0-1.89238-.30278-3.69013-.85157-5.3365-.3974-1.1922-.92726-2.3087-1.55175-3.29273v-22.25434c3.00888-2.21408,5.99883-4.42816,9.00771-6.66116,1.60852-1.1922,3.25489-2.40332,5.12834-3.1035.01892-.01892.05677-.01892.0757-.01892,1.26789.58664,2.53578,1.15435,3.84152,1.68421-2.38439,5.90421-4.65525,12.47076-6.5287,19.69963-2.233,8.49677-3.61444,16.69076-4.35246,24.29811-.17031.18924-.37848.37848-.56771.54879-1.8356,1.70314-4.16323,2.78179-6.60439,3.23596v-.15139c.62448-1.00296,1.15435-2.10054,1.55175-3.29273.54879-1.64637.85157-3.46305.85157-5.35542Z"/>
          <path class="cls-22" d="m129.38973,477.14946c-.87049.43525-1.75991.81372-2.64933,1.1922-.3217-.60556-.64341-1.1922-.94619-1.75991,1.00296-.24601,2.08161-.22709,3.12242-.01892.13247.22709.28386.41632.47309.58664Z"/>
          <path class="cls-22" d="m126.7404,478.34165c.88942-.37848,1.77883-.75695,2.64933-1.1922.0757.09462.17031.17031.26493.24601.73803.56771,1.70314.68126,2.61148.49202,1.09758.64341,2.15731,1.40036,3.19812,2.17623,2.89534,2.15731,5.82852,4.33354,8.74278,6.47193v18.26143c-2.53578,1.23004-4.57955,3.65229-5.75282,6.73686-.11354-.58664-.22709-1.17327-.35955-1.77883-2.81964-12.96278-7.26672-23.54116-11.35426-31.41344Z"/>
          <path class="cls-19" d="m140.17627,526.65401c-.3217-.43525-.62448-.90834-.87049-1.38143l1.15435.01892c.01892.22709.03785.45417.05677.66233.01892.24601.03785.47309.05677.70018h-.3974Z"/>
          <path class="cls-15" d="m60.98034,333.4235c10.50269-5.10942,22.27327-7.9669,34.7251-7.9669,14.59022,0,28.2721,3.93614,40.04268,10.78654l-.03785.05677c-.70018-.37848-1.47605-.64341-2.21408-.87049-4.03076-1.26789-8.11829-2.34655-12.24367-3.21704-9.80251-2.06269-19.8321-2.98995-29.84277-2.83856-7.02072.13247-14.04143.7948-20.96753,2.00592-3.17919.56771-6.33946,1.24897-9.46188,2.04377Z"/>
          <path class="cls-23" d="m159.13788,520.4281c-1.04081,6.22592-5.46897,10.90009-10.7487,10.90009-.43525,0-.87049-.03785-1.28682-.11354.34063.05677.68126.0757,1.02188.0757,4.95803,0,9.12125-4.23892,10.37022-10.01067.22709-.28386.43525-.56771.64341-.85157Z"/>
          <path class="cls-23" d="m144.20703,509.09276v-4.16323c1.28682-.66233,2.7061-1.04081,4.18215-1.04081.34063,0,.66233.01892.98404.0757.01892-.01892.03785,0,.03785,0,5.35542.7948,9.49973,6.56654,9.49973,13.60618,0,1.28682-.13247,2.53578-.41632,3.70906-1.00296,1.23004-2.17623,2.3087-3.51982,3.16027-3.14134,2.00592-7.11533,2.64933-10.76762,1.9113v-17.25847Z"/>
          <path class="cls-23" d="m47.33631,516.68119v9.51865c-.05677.0757-.11354.15139-.17031.24601-3.53874.58664-7.30457-.0757-10.33237-2.00592-4.5417-2.87641-7.20995-8.23184-7.2478-13.60618,1.8356-4.12538,5.29865-6.90717,9.29157-6.94502,2.98995.03785,5.71498,1.57067,7.68305,4.03076.26493.35955.52987.7191.77587,1.1165v7.6452Z"/>
          <path class="cls-22" d="m139.30578,525.27258c.24601.47309.54879.94619.87049,1.38143h-.11354c-.3217-.43525-.60556-.88942-.87049-1.38143h.11354Z"/>
          <path class="cls-15" d="m59.63675,333.76412c-2.53578.66233-7.79659.98404-6.8504,4.20107,0,.01892.01892.03785.01892.05677-.87049.54879-1.74099,1.13543-2.59256,1.72206-1.02188-.11354-1.98699-.45417-2.76287-1.17327-2.25193-2.06269-1.13543-6.5287-.98404-7.11533,1.38143-5.12834,6.24484-8.06152,9.61327-9.82143,17.10708-8.96986,35.59559-9.63219,35.59559-9.63219,10.29453-.37848,22.84098.7948,35.4442,6.20699,7.66412,3.31166,12.30044,6.86932,14.8173,12.05444,1.34359,2.81964,3.16027,8.26968,1.1165,10.80547-2.34655-1.74099-4.78771-3.34951-7.30457-4.82556-11.77058-6.8504-25.45246-10.78654-40.04268-10.78654-12.45183,0-24.22241,2.85749-34.7251,7.9669-.45417.11354-.88942.22709-1.34359.34063Z"/>
          <path class="cls-23" d="m95.81898,432.64077c.37848.05677.77587.0757,1.21112.01892.11354,0,.20816,0,.3217-.01892,1.41928-.18924,2.44117-.7948,3.0278-1.23004,2.42224-1.77883,4.31462-5.43112.37848-6.56654-.58664-.17031-1.17327-.30278-1.75991-.3974-2.81964-.45417-5.75282-.17031-8.40215.87049-3.65229,1.43821.3974,5.16619,2.233,6.24484.51094.30278,1.57067.92726,2.98995,1.07865Zm-1.34359-75.29764c2.27085-1.5896,4.48493-3.23596,6.66116-4.9391,10.44592-.47309,20.81614-2.6304,30.56187-6.43408,1.77883-.70018,3.59551-1.47605,4.86341-2.89534.30278-.3217.54879-.70018.75695-1.1165,2.57363.56771,4.33354.54879,5.50681-.62448.09462-.09462.17031-.17031.22709-.26493.58664.43525,1.17327.87049,1.75991,1.34359-.68126,2.00592-.98404,4.10646-.75695,6.09345.11354,1.04081.49202,1.96807.49202,1.96807.87049,2.49794,2.11946,3.5009,5.0148,6.90717.49202.7948,1.21112,1.5139,2.40332,2.89534.03785.05677.09462.13247.15139.18924.28386.37848.58664.77587.90834,1.1922.17031.22709.34063.43525.49202.64341,1.5139,1.94915,2.36547,3.19812,2.98995,3.97399,3.80368,4.65525,5.69605,6.96394,7.72089,8.0426,1.72206.90834,3.63336,1.49498,5.62036,1.74099,1.24897,3.19812,2.3087,6.49085,3.14134,9.8782h-8.51569v5.92314h9.72681c.7191,4.27677,1.09758,8.68601,1.09758,13.18986,0,25.69847-12.1869,48.55837-31.09174,63.09182v-9.67004H47.33631v9.76466c-5.27973-4.04968-10.02959-8.72385-14.13605-13.94681,4.6174,5.67713,6.41515,5.69605,7.11533,5.62036,3.33058-.35955,6.94502-5.50681,5.60143-8.89417-.87049-2.17623-2.87641-3.76583-3.67121-5.96098s-.26493-4.63632.45417-6.86932c.70018-2.21408,1.5896-4.44708,1.5139-6.79363-.0757-2.32762-1.47605-4.82556-3.76583-5.27973-1.68421-.34063-3.34951.47309-4.95803,1.04081-1.60852.58664-3.61444.87049-4.88233-.28386-1.1922-1.05973-1.21112-2.95211-.68126-4.46601.51094-1.5139,1.45713-2.83856,1.96807-4.35246.7191-2.17623-.17031-8.8374-4.78771-10.10529-3.23596-.88942-6.50977,1.34359-8.09937,3.59551-1.32466,1.87345-1.77883,4.20107-1.30574,8.68601.05677.47309.11354,1.00296.20816,1.5896-1.17327-5.39327-1.77883-11.01363-1.77883-16.76645,0-4.12538.3217-8.17506.90834-12.13013h9.21587v-5.62036c.83265-.17031,1.66529-.35955,2.47901-.54879,3.4252-.77587,6.81255-1.66529,10.18098-2.6304,3.70906-1.07865,7.38027-2.27085,11.03255-3.57659,3.53874-1.28682,7.02072-2.66825,10.48376-4.1443,3.23596-1.38143,6.43408-2.87641,9.59435-4.44708,2.97103-1.47605,5.90421-3.0278,8.78062-4.67417,2.72502-1.53282,5.4122-3.16027,8.06152-4.84448,2.57363-1.62744,5.12834-3.33058,7.60735-5.09049Zm29.01012,72.57262c0-2.08161-.88942-3.76583-1.98699-3.76583s-2.00592,1.68421-2.00592,3.76583.90834,3.76583,2.00592,3.76583,1.98699-1.68421,1.98699-3.76583Zm-13.07632-30.54295c.49202-1.5139-.13247-3.23596-1.28682-4.31462-1.15435-1.09758-2.74395-1.62744-4.31462-1.77883-3.46305-.3217-5.35542,1.24897-8.23184,2.6304-2.06269,1.00296-4.69309.54879-6.50977,1.68421-1.5896.98404-2.34655,3.12242-1.74099,4.88233.13247.34063.28386.66233.45417.98404.3974.7948.7948,1.57067,1.1922,2.36547.83265,1.64637,1.79776,3.40628,3.48197,4.1443,2.06269.88942,4.48493-.09462,6.22592-1.49498,1.74099-1.41928,3.12242-3.25489,4.99587-4.50385,2.10054-1.38143,4.97695-2.19516,5.7339-4.59847Zm-34.81972,30.54295c0-2.08161-.90834-3.76583-2.00592-3.76583s-1.98699,1.68421-1.98699,3.76583.88942,3.76583,1.98699,3.76583,2.00592-1.68421,2.00592-3.76583Z"/>
          <path class="cls-22" d="m149.37322,503.96442c-.3217-.05677-.64341-.0757-.98404-.0757-1.47605,0-2.89534.37848-4.18215,1.04081v-.13247c1.21112-.62448,2.53578-.94619,3.91722-.94619.41632,0,.83265.03785,1.24897.11354Z"/>
          <path class="cls-22" d="m48.88805,522.96388c-.3974,1.1922-.92726,2.28977-1.55175,3.29273v-.05677c.62448-.98404,1.15435-2.08161,1.55175-3.23596Z"/>
          <path class="cls-24" d="m130.03314,476.8656c-.22709.09462-.43525.20816-.64341.28386-.18924-.17031-.34063-.35955-.47309-.58664.37848.05677.75695.17031,1.1165.30278Z"/>
          <path class="cls-15" d="m95.38373,334.38861s-10.97578-.30278-24.43057,1.5896c-7.00179,1.00296-10.37022,1.87345-13.32233,2.51686-.94619.20816-2.06269.52987-3.23596.81372-.30278.0757-.60556.13247-.92726.20816-.28386-.47309-.51094-.98404-.66233-1.49498,2.61148-1.70314,5.35542-3.23596,8.17506-4.59847,3.12242-.7948,6.28269-1.47605,9.46188-2.04377,6.9261-1.21112,13.94681-1.87345,20.96753-2.00592,10.01067-.15139,20.04026.77587,29.84277,2.83856l-.13247,2.19516c-.81372.85157-1.62744,1.68421-2.46009,2.51686-10.50269-2.17623-18.84807-2.40332-23.27623-2.53578Z"/>
          <path class="cls-24" d="m130.33592,476.96022c.66233.24601,1.30574.56771,1.93022.92726-.90834.18924-1.87345.0757-2.61148-.49202-.09462-.0757-.18924-.15139-.26493-.24601.20816-.0757.41632-.18924.64341-.28386.11354.01892.20816.05677.30278.09462Z"/>
          <path class="cls-15" d="m60.98034,333.4235c-2.81964,1.36251-5.56359,2.89534-8.17506,4.59847,0-.01892-.01892-.03785-.01892-.05677-.94619-3.21704,4.31462-3.53874,6.8504-4.20107.45417-.11354.88942-.22709,1.34359-.34063Z"/>
          <path class="cls-27" d="m190.22962,382.83344v12.13013c0,1.26789-1.04081,2.3087-2.32762,2.3087h-6.60439v-16.74753h6.60439c1.28682,0,2.32762,1.04081,2.32762,2.3087Z"/>
          <path class="cls-23" d="m183.90908,339.02493c4.27677,5.22296,6.79363,12.01659,6.24484,18.75345-.54879,6.71793-4.33354,13.24663-10.25668,16.52044-3.0278,1.66529-6.62332,2.21408-10.04852,1.75991-.66233-1.70314-1.38143-3.36843-2.15731-4.99587.73803-.18924,1.45713-.45417,2.11946-.83265,3.46305-1.9113,5.69605-5.75282,6.01776-9.70789s-1.15435-7.9669-3.67121-11.03255c-2.46009-2.98995-5.99883-5.18511-9.84036-5.71498s-7.9669.7191-10.63515,3.53874c-.18924.18924-.37848.3974-.54879.62448-2.00592-1.94915-4.12538-3.80368-6.32054-5.52574.90834-2.66825,2.47901-5.18511,4.27677-7.09641,4.5417-4.78771,11.54349-6.90717,18.09111-5.99883,6.54762.88942,12.52753,4.6174,16.7286,9.70789Z"/>
          <path class="cls-27" d="m181.2976,385.93693v5.92314h-7.09641c-.3217-2.00592-.73803-3.97399-1.21112-5.92314h8.30753Z"/>
          <path class="cls-28" d="m160.14084,358.32717c-2.7061-3.72798-5.71498-7.20995-9.00771-10.38914.17031-.22709.35955-.43525.54879-.62448,2.66825-2.81964,6.79363-4.06861,10.63515-3.53874s7.38027,2.72502,9.84036,5.71498c2.51686,3.06565,3.99291,7.07749,3.67121,11.03255s-2.55471,7.79659-6.01776,9.70789c-.66233.37848-1.38143.64341-2.11946.83265-2.11946-4.50385-4.65525-8.7617-7.55058-12.73569Z"/>
          <path class="cls-23" d="m174.20119,391.86007h-9.72681v-5.92314h8.51569c.47309,1.94915.88942,3.91722,1.21112,5.92314Z"/>
          <path class="cls-23" d="m167.69142,371.06286c.77587,1.62744,1.49498,3.29273,2.15731,4.99587-1.98699-.24601-3.89829-.83265-5.62036-1.74099-2.02484-1.07865-3.91722-3.38735-7.72089-8.0426-.62448-.77587-1.47605-2.02484-2.98995-3.97399.01892-.01892.03785-.03785.05677-.03785.13247.17031.26493.34063.41632.52987,1.07865,1.36251,1.64637,2.21408,2.06269,2.72502,2.233,2.72502,3.34951,4.10646,4.52278,4.73094,2.08161,1.09758,4.71202,1.41928,7.11533.81372Z"/>
          <path class="cls-23" d="m167.69142,371.06286c-2.40332.60556-5.03372.28386-7.11533-.81372-1.17327-.62448-2.28977-2.00592-4.52278-4.73094-.41632-.51094-.98404-1.36251-2.06269-2.72502-.15139-.18924-.28386-.35955-.41632-.52987,2.32762-1.53282,4.5417-2.83856,6.56654-3.93614,2.89534,3.97399,5.43112,8.23184,7.55058,12.73569Z"/>
          <path class="cls-23" d="m162.05214,508.4872c.58664,4.16323-.51094,8.53462-2.91426,11.94089.15139-.90834.22709-1.85453.22709-2.81964,0-7.13426-4.37139-13.01955-9.9539-13.64403,0,0-.01892-.01892-.03785,0-.41632-.0757-.83265-.11354-1.24897-.11354-1.38143,0-2.7061.3217-3.91722.94619v-18.26143c.37848.28386.73803.56771,1.1165.83265,3.70906,2.74395,7.45596,5.52574,10.55946,8.95094,2.6304,2.91426,4.78771,6.35838,5.77175,10.12421.17031.66233.30278,1.34359.3974,2.04377Z"/>
          <path class="cls-23" d="m159.36497,517.60845c0,.96511-.0757,1.9113-.22709,2.81964-.20816.28386-.41632.56771-.64341.85157.28386-1.17327.41632-2.42224.41632-3.70906,0-7.03964-4.1443-12.81139-9.49973-13.60618,5.58251.62448,9.9539,6.50977,9.9539,13.64403Z"/>
          <path class="cls-23" d="m160.14084,358.32717c-2.02484,1.09758-4.23892,2.40332-6.56654,3.93614-.47309-.58664-.90834-1.13543-1.45713-1.79776-.05677-.05677-.11354-.13247-.15139-.18924-.68126-.85157-1.34359-1.64637-2.13838-2.59256-.09462-.09462-.17031-.20816-.26493-.30278-.22709-.34063-.3974-.7191-.54879-1.15435,0,0-.22709-.54879-.30278-1.15435-.28386-2.46009.85157-5.18511,2.42224-7.13426,3.29273,3.17919,6.30161,6.66116,9.00771,10.38914Z"/>
          <path class="cls-23" d="m153.5743,362.26331c-.01892,0-.03785.01892-.05677.03785-.15139-.20816-.3217-.41632-.49202-.64341-.3217-.41632-.62448-.81372-.90834-1.1922.54879.66233.98404,1.21112,1.45713,1.79776Z"/>
          <path class="cls-23" d="m149.82739,357.68376c.7948.94619,1.45713,1.74099,2.13838,2.59256-1.1922-1.38143-1.9113-2.10054-2.40332-2.89534.09462.09462.17031.20816.26493.30278Z"/>
          <path class="cls-23" d="m149.42999,561.56835c1.17327,2.49794.92726,5.12834.81372,6.07453-13.7765-.09462-27.55299-.18924-41.31057-.26493.01892-4.06861.03785-8.11829.05677-12.16798h29.76707c.26493.43525.52987.85157.77587,1.28682,2.44117.22709,4.95803.47309,7.13426,1.93022.90834.58664,1.94915,1.45713,2.76287,3.14134Z"/>
          <path class="cls-23" d="m149.01367,356.22663c.15139.43525.3217.81372.54879,1.15435-2.89534-3.40628-4.1443-4.40924-5.0148-6.90717,0,0-.37848-.92726-.49202-1.96807-.22709-1.98699.0757-4.08753.75695-6.09345,2.19516,1.72206,4.31462,3.57659,6.32054,5.52574-1.57067,1.94915-2.7061,4.67417-2.42224,7.13426.0757.60556.30278,1.15435.30278,1.15435Z"/>
          <path class="cls-23" d="m144.20703,526.35123v.30278h-3.63336c-.01892-.22709-.03785-.45417-.05677-.70018.30278-.17031.60556-.3217.90834-.49202.88942.41632,1.81668.70018,2.78179.88942Z"/>
          <path class="cls-23" d="m144.20703,523.96684v2.38439c-.96511-.18924-1.89238-.47309-2.78179-.88942.92726-.49202,1.85453-1.00296,2.78179-1.49498Z"/>
          <path class="cls-23" d="m144.20703,516.1324v7.83444c-.92726.49202-1.85453,1.00296-2.78179,1.49498-.15139-.03785-.28386-.11354-.43525-.17031-.18924-.09462-.37848-.18924-.56771-.30278-.20816-2.51686-.52987-5.12834-.94619-7.79659,1.57067-.35955,3.16027-.7191,4.73094-1.05973Z"/>
          <path class="cls-23" d="m144.20703,509.09276v7.03964c-1.57067.34063-3.16027.70018-4.73094,1.05973-.28386-1.77883-.60556-3.59551-.98404-5.43112.45417-1.21112,1.04081-2.34655,1.77883-3.33058,1.30574.20816,2.6304.43525,3.93614.66233Z"/>
          <path class="cls-23" d="m144.20703,504.92954v4.16323c-1.30574-.22709-2.6304-.45417-3.93614-.66233,1.05973-1.49498,2.40332-2.7061,3.93614-3.5009Z"/>
          <path class="cls-22" d="m140.27089,508.43043c-.73803.98404-1.32466,2.11946-1.77883,3.33058,0-.0757-.01892-.15139-.03785-.22709,1.17327-3.08457,3.21704-5.50681,5.75282-6.73686v.13247c-1.53282.7948-2.87641,2.00592-3.93614,3.5009Z"/>
          <path class="cls-22" d="m144.20703,473.08085v13.45479c-2.91426-2.13838-5.84744-4.31462-8.74278-6.47193-1.04081-.77587-2.10054-1.53282-3.19812-2.17623.73803-.15139,1.43821-.49202,1.98699-1.00296.92726-.85157,1.49498-2.02484,1.81668-3.25489,2.81964-1.64637,5.54466-3.5009,8.13722-5.48789v4.9391Z"/>
          <path class="cls-22" d="m144.20703,458.4717v9.67004c-2.59256,1.98699-5.31758,3.84152-8.13722,5.48789.13247-.3974.20816-.7948.28386-1.1922.28386-1.66529.3217-3.34951.7191-4.97695s1.23004-3.25489,2.66825-4.10646c1.21112-.7191,2.80072-.87049,3.67121-1.98699.62448-.7948.70018-1.87345.73803-2.89534h.05677Z"/>
          <path class="cls-22" d="m144.15026,458.4717c-13.05739.05677-26.13371.11354-39.19111.15139-1.1165,0-1.41928.13247-1.38143,1.24897.03785,1.00296.18924,2.00592.45417,2.98995.17031.58664.37848,1.21112.85157,1.60852.17031.15139.35955.24601.58664.34063.60556.24601,1.30574.30278,1.9113.58664,1.1165.54879,1.70314,1.79776,1.85453,3.0278.17031,1.23004-.01892,2.46009.01892,3.70906.01892,1.15435.26493,2.38439,1.05973,3.23596h-43.5625c-.17031.41632-.35955.83265-.52987,1.26789-1.5139-.43525-3.17919-.24601-4.67417.30278-2.76287-1.32466-5.45004-2.80072-8.02367-4.42816l.11354-.17031h38.226v-13.87112h52.28635Z"/>
          <path class="cls-30" d="m104.95916,458.62309c13.05739-.03785,26.13371-.09462,39.19111-.15139-.03785,1.02188-.11354,2.10054-.73803,2.89534-.87049,1.1165-2.46009,1.26789-3.67121,1.98699-1.43821.85157-2.27085,2.47901-2.66825,4.10646s-.43525,3.31166-.7191,4.97695c-.0757.3974-.15139.7948-.28386,1.1922-1.96807,1.17327-3.97399,2.25193-6.03668,3.23596-.35955-.13247-.73803-.24601-1.1165-.30278-.49202-.75695-.70018-1.74099-.77587-2.64933-.0757-1.21112.01892-2.42224-.17031-3.61444s-.75695-2.40332-1.81668-2.98995c-1.05973-.56771-2.6304-.22709-3.06565.88942-.3217.87049.05677,1.94915-.49202,2.68717-.45417.62448-1.41928.70018-2.13838.37848-.83265-.35955-1.47605-1.17327-1.64637-2.08161-.05677-.3974-.05677-.81372-.24601-1.17327-.35955-.68126-1.32466-.81372-2.06269-.52987-1.34359.52987-2.02484,2.04377-2.32762,3.46305-.28386,1.41928-.3217,2.93318-.96511,4.22-.03785.0757-.0757.15139-.13247.20816h-2.76287c-.7948-.85157-1.04081-2.08161-1.05973-3.23596-.03785-1.24897.15139-2.47901-.01892-3.70906-.15139-1.23004-.73803-2.47901-1.85453-3.0278-.60556-.28386-1.30574-.34063-1.9113-.58664-.22709-.09462-.41632-.18924-.58664-.34063-.47309-.3974-.68126-1.02188-.85157-1.60852-.26493-.98404-.41632-1.98699-.45417-2.98995-.03785-1.1165.26493-1.24897,1.38143-1.24897Z"/>
          <path class="cls-15" d="m143.05269,341.0687c-.05677.09462-.13247.17031-.22709.26493-1.17327,1.17327-2.93318,1.1922-5.50681.62448.70018-1.32466.85157-2.91426.0757-4.1443-.3974-.66233-1.00296-1.13543-1.68421-1.5139l.03785-.05677c2.51686,1.47605,4.95803,3.08457,7.30457,4.82556Z"/>
          <path class="cls-19" d="m141.42524,525.46182c-.30278.17031-.60556.3217-.90834.49202-.01892-.20816-.03785-.43525-.05677-.66233h.52987c.15139.05677.28386.13247.43525.17031Z"/>
          <path class="cls-19" d="m140.42228,524.98872c.18924.11354.37848.20816.56771.30278h-.52987c0-.09462-.01892-.20816-.03785-.30278Z"/>
          <path class="cls-15" d="m140.63044,527.42989c.87049,11.24071.0757,20.77829-.94619,27.78008h-.92726c-.7948-1.34359-1.60852-2.7061-2.42224-4.06861-9.12125.09462-18.22358.18924-27.32591.26493,0,1.26789-.01892,2.53578-.01892,3.80368h-1.13543v-6.8504h-21.08107v6.8504h-1.74099c-.01892-1.36251-.01892-2.74395-.03785-4.10646-3.99291-.01892-7.9669-.05677-11.95982-.0757-.3217-.20816-.62448-.3974-.94619-.60556-.18924.20816-.3974.3974-.58664.60556l-6.35838-.05677c-.43525-.81372-.87049-1.60852-1.30574-2.42224-.43525.81372-.85157,1.60852-1.26789,2.42224-1.62744-.01892-3.27381-.01892-4.90125-.03785-.83265,1.43821-1.66529,2.85749-2.49794,4.27677h-.81372c-.41632-4.44708-.68126-9.27264-.7191-14.43883-.03785-4.42816.11354-9.14018.51094-14.11713h12.96278v5.45004c0,.7191.58664,1.30574,1.30574,1.30574h4.73094c.58664,0,1.07865-.49202,1.07865-1.07865v-5.67713h44.50868v6.64224c0,.60556.49202,1.1165,1.1165,1.1165h4.73094c.68126,0,1.24897-.56771,1.24897-1.26789v-6.49085h14.23067c.15139.26493.35955.52987.56771.77587Z"/>
          <path class="cls-15" d="m140.61152,527.2785c.01892.05677.01892.09462.01892.15139-.20816-.24601-.41632-.51094-.56771-.77587h.11354c.13247.20816.28386.41632.43525.60556v.01892Z"/>
          <path class="cls-19" d="m140.57367,526.65401c.01892.20816.03785.3974.03785.60556-.15139-.18924-.30278-.3974-.43525-.60556h.3974Z"/>
          <path class="cls-19" d="m140.42228,524.98872c.01892.09462.03785.20816.03785.30278l-1.15435-.01892c-.26493-.47309-.49202-.94619-.68126-1.45713.56771.45417,1.15435.85157,1.79776,1.17327Z"/>
          <path class="cls-22" d="m140.06273,526.65401h-14.23067v-1.5896l13.36017.20816c.26493.49202.54879.94619.87049,1.38143Z"/>
          <path class="cls-23" d="m139.47609,517.19213c.41632,2.66825.73803,5.27973.94619,7.79659-.64341-.3217-1.23004-.7191-1.79776-1.17327-.75695-1.85453-1.1922-3.97399-1.1922-6.20699,0-2.08161.37848-4.06861,1.05973-5.84744.37848,1.8356.70018,3.65229.98404,5.43112Z"/>
          <path class="cls-22" d="m139.30578,525.27258h-.11354c-.26493-.49202-.49202-1.02188-.70018-1.57067.03785.05677.0757.09462.13247.11354.18924.51094.41632.98404.68126,1.45713Z"/>
          <path class="cls-22" d="m139.19224,525.27258l-13.36017-.20816v-24.73335h2.3087c1.15435,3.59551,2.3087,7.19103,3.44412,10.80547,1.38143,4.37139,2.89534,8.95094,6.26376,12.03551.20816.18924.41632.37848.64341.52987.20816.54879.43525,1.07865.70018,1.57067Z"/>
          <path class="cls-15" d="m136.33475,551.14136c.81372,1.36251,1.62744,2.72502,2.42224,4.06861h-29.76707c0-1.26789.01892-2.53578.01892-3.80368,9.10233-.0757,18.20466-.17031,27.32591-.26493Z"/>
          <path class="cls-22" d="m138.62453,523.81545c-.05677-.01892-.09462-.05677-.13247-.11354-.73803-1.85453-1.15435-3.93614-1.15435-6.1313,0-2.17623.3974-4.22,1.1165-6.03668.01892.0757.03785.15139.03785.22709-.68126,1.77883-1.05973,3.76583-1.05973,5.84744,0,2.233.43525,4.35246,1.1922,6.20699Z"/>
          <path class="cls-22" d="m125.83206,492.5534v-13.85219c.30278-.09462.60556-.22709.90834-.35955,4.08753,7.87228,8.53462,18.45067,11.35426,31.41344.13247.60556.24601,1.1922.35955,1.77883-.7191,1.81668-1.1165,3.86045-1.1165,6.03668,0,2.19516.41632,4.27677,1.15435,6.1313-.22709-.15139-.43525-.34063-.64341-.52987-3.36843-3.08457-4.88233-7.66412-6.26376-12.03551-1.13543-3.61444-2.28977-7.20995-3.44412-10.80547-.22709-.77587-.47309-1.53282-.7191-2.28977-.58664-1.05973-1.1165-2.04377-1.5896-2.89534v-2.59256Z"/>
          <path class="cls-15" d="m137.39448,337.81381c.77587,1.23004.62448,2.81964-.0757,4.1443-3.00888-.68126-7.15318-2.17623-12.77354-3.65229-2.02484-.52987-3.99291-.98404-5.88529-1.38143.83265-.83265,1.64637-1.66529,2.46009-2.51686l.13247-2.19516c4.12538.87049,8.21291,1.94915,12.24367,3.21704.73803.22709,1.5139.49202,2.21408.87049.68126.37848,1.28682.85157,1.68421,1.5139Z"/>
          <path class="cls-15" d="m137.31879,341.95811c-.20816.41632-.45417.7948-.75695,1.1165-1.26789,1.41928-3.08457,2.19516-4.86341,2.89534-9.74574,3.80368-20.11596,5.96098-30.56187,6.43408,6.16915-4.76879,12.03551-9.93497,17.5234-15.47964,1.89238.3974,3.86045.85157,5.88529,1.38143,5.62036,1.47605,9.76466,2.97103,12.77354,3.65229Z"/>
          <path class="cls-30" d="m136.06982,473.62964c-.3217,1.23004-.88942,2.40332-1.81668,3.25489-.54879.51094-1.24897.85157-1.98699,1.00296-.62448-.35955-1.26789-.68126-1.93022-.92726-.09462-.03785-.18924-.0757-.30278-.09462,2.06269-.98404,4.06861-2.06269,6.03668-3.23596Z"/>
          <path class="cls-22" d="m128.14076,473.91349c.0757.90834.28386,1.89238.77587,2.64933-1.04081-.20816-2.11946-.22709-3.12242.01892-.22709-.41632-.43525-.81372-.66233-1.21112h-12.05444c.05677-.05677.09462-.13247.13247-.20816.64341-1.28682.68126-2.80072.96511-4.22.30278-1.41928.98404-2.93318,2.32762-3.46305.73803-.28386,1.70314-.15139,2.06269.52987.18924.35955.18924.77587.24601,1.17327.17031.90834.81372,1.72206,1.64637,2.08161.7191.3217,1.68421.24601,2.13838-.37848.54879-.73803.17031-1.81668.49202-2.68717.43525-1.1165,2.00592-1.45713,3.06565-.88942,1.05973.58664,1.62744,1.79776,1.81668,2.98995s.09462,2.40332.17031,3.61444Z"/>
          <path class="cls-22" d="m127.42166,498.04129c.24601.75695.49202,1.5139.7191,2.28977h-2.3087v-5.18511c.47309.85157,1.00296,1.8356,1.5896,2.89534Z"/>
          <path class="cls-22" d="m126.7404,478.34165c-.30278.13247-.60556.26493-.90834.35955v-.15139h-3.12242c.47309-.62448,1.07865-1.13543,1.77883-1.49498.41632-.20816.85157-.37848,1.30574-.47309.30278.56771.62448,1.15435.94619,1.75991Z"/>
          <path class="cls-16" d="m125.83206,526.65401v6.49085c0,.70018-.56771,1.26789-1.24897,1.26789h-4.73094c-.62448,0-1.1165-.51094-1.1165-1.1165v-6.64224h7.09641Z"/>
          <rect class="cls-22" x="118.73565" y="525.2915" width="7.09641" height="1.36251"/>
          <polygon class="cls-22" points="125.83206 525.06442 125.83206 525.2915 118.73565 525.2915 118.73565 524.9698 125.83206 525.06442"/>
          <polygon class="cls-22" points="125.83206 500.33106 125.83206 525.06442 118.73565 524.9698 118.73565 500.33106 125.83206 500.33106"/>
          <path class="cls-22" d="m125.83206,495.14595v5.18511h-7.09641v-7.77767h5.6582c.20816.3974.73803,1.32466,1.43821,2.59256Z"/>
          <path class="cls-22" d="m125.83206,492.5534v2.59256c-.70018-1.26789-1.23004-2.19516-1.43821-2.59256h1.43821Z"/>
          <path class="cls-22" d="m125.83206,478.7012v13.85219h-1.43821c-.0757-.13247-.11354-.20816-.11354-.20816-1.40036-2.51686-2.80072-5.09049-3.1035-7.94798-.15139-1.38143.03785-2.83856.54879-4.12538,1.40036-.47309,2.76287-1.00296,4.10646-1.57067Z"/>
          <path class="cls-22" d="m125.83206,478.54981v.15139c-1.34359.56771-2.7061,1.09758-4.10646,1.57067.24601-.62448.56771-1.21112.98404-1.72206h3.12242Z"/>
          <path class="cls-22" d="m125.13188,475.37062c.22709.3974.43525.7948.66233,1.21112-.45417.09462-.88942.26493-1.30574.47309-.70018.35955-1.30574.87049-1.77883,1.49498h-3.97399v2.68717c-7.28565,2.21408-15.02547,3.38735-23.03022,3.38735-7.43704,0-14.64699-1.02188-21.47847-2.95211v-2.74395h-4.84448c-.52987-.77587-1.23004-1.43821-2.08161-1.87345-.34063-.17031-.70018-.3217-1.07865-.41632.17031-.43525.35955-.85157.52987-1.26789h43.5625c.03785.05677.0757.09462.13247.15139.56771.54879,1.47605.85157,2.13838.41632.20816-.15139.37848-.34063.49202-.56771h12.05444Z"/>
          <path class="cls-22" d="m124.39386,492.5534h-5.6582v-11.31641c1.00296-.30278,2.00592-.62448,2.98995-.96511-.51094,1.28682-.70018,2.74395-.54879,4.12538.30278,2.85749,1.70314,5.43112,3.1035,7.94798,0,0,.03785.0757.11354.20816Z"/>
          <path class="cls-24" d="m121.49852,426.14992c1.09758,0,1.98699,1.68421,1.98699,3.76583s-.88942,3.76583-1.98699,3.76583-2.00592-1.68421-2.00592-3.76583.90834-3.76583,2.00592-3.76583Z"/>
          <path class="cls-22" d="m118.73565,478.54981h3.97399c-.41632.51094-.73803,1.09758-.98404,1.72206-.98404.34063-1.98699.66233-2.98995.96511v-2.68717Z"/>
          <path class="cls-22" d="m85.12706,524.83733v-.37848l33.6086.51094v1.68421h-44.50868v-1.81668h10.90009Z"/>
          <path class="cls-22" d="m118.73565,500.33106v24.63874l-33.6086-.51094v-21.11892c-1.72206,1.23004-3.46305,2.47901-5.18511,3.70906-1.68421-1.02188-3.36843-2.04377-5.03372-3.06565l-.68126.51094v-22.82205c6.83148,1.93022,14.04143,2.95211,21.47847,2.95211,8.00475,0,15.74457-1.17327,23.03022-3.38735v19.09407Z"/>
          <path class="cls-22" d="m110.31458,475.37062h2.76287c-.11354.22709-.28386.41632-.49202.56771-.66233.43525-1.57067.13247-2.13838-.41632-.05677-.05677-.09462-.09462-.13247-.15139Z"/>
          <path class="cls-30" d="m109.12238,395.05818c1.15435,1.07865,1.77883,2.80072,1.28682,4.31462-.75695,2.40332-3.63336,3.21704-5.7339,4.59847-1.87345,1.24897-3.25489,3.08457-4.99587,4.50385-1.74099,1.40036-4.16323,2.38439-6.22592,1.49498-1.68421-.73803-2.64933-2.49794-3.48197-4.1443-.3974-.7948-.7948-1.57067-1.1922-2.36547-.17031-.3217-.3217-.64341-.45417-.98404-.60556-1.75991.15139-3.89829,1.74099-4.88233,1.81668-1.13543,4.44708-.68126,6.50977-1.68421,2.87641-1.38143,4.76879-2.95211,8.23184-2.6304,1.57067.15139,3.16027.68126,4.31462,1.77883Z"/>
          <path class="cls-15" d="m95.38373,334.38861c4.42816.13247,12.77354.35955,23.27623,2.53578-5.48789,5.54466-11.35426,10.71085-17.5234,15.47964-10.40807.45417-20.89183-.7191-30.9025-3.59551-4.65525-1.32466-13.79542-4.29569-16.76645-9.29157.3217-.0757.62448-.13247.92726-.20816,1.17327-.28386,2.28977-.60556,3.23596-.81372,2.95211-.64341,6.32054-1.5139,13.32233-2.51686,13.45479-1.89238,24.43057-1.5896,24.43057-1.5896Z"/>
          <path class="cls-24" d="m95.81898,432.64077c-1.41928-.15139-2.47901-.77587-2.98995-1.07865-1.8356-1.07865-5.88529-4.80664-2.233-6.24484,2.64933-1.04081,5.58251-1.32466,8.40215-.87049.58664.09462,1.17327.22709,1.75991.3974,3.93614,1.13543,2.04377,4.78771-.37848,6.56654-.58664.43525-1.60852,1.04081-3.0278,1.23004-.11354.01892-.20816.01892-.3217.01892-.43525.05677-.83265.03785-1.21112-.01892Z"/>
          <path class="cls-23" d="m60.43155,376.39936c-3.46305,1.47605-6.94502,2.85749-10.48376,4.1443-3.65229,1.30574-7.3235,2.49794-11.03255,3.57659-3.36843.96511-6.75578,1.85453-10.18098,2.6304-.81372.18924-1.64637.37848-2.47901.54879v-.30278h-8.06152c.87049-3.76583,2.00592-7.43704,3.40628-10.9947,1.8356-.28386,3.59551-.85157,5.16619-1.68421,2.02484-1.07865,3.91722-3.38735,7.72089-8.0426.70018-.85157,1.66529-2.3087,3.48197-4.6174.43525-.56771.85157-1.07865,1.24897-1.5896,1.1165-1.28682,1.79776-1.96807,2.27085-2.74395,2.85749-3.36843,4.12538-4.37139,4.95803-6.8504,0,0,.37848-.92726.49202-1.96807.22709-1.89238-.03785-3.89829-.66233-5.80959,1.28682-1.04081,2.59256-2.00592,3.93614-2.95211,1.04081.11354,2.15731-.01892,3.25489-.22709,2.97103,4.99587,12.11121,7.9669,16.76645,9.29157,10.01067,2.87641,20.49443,4.04968,30.9025,3.59551-2.17623,1.70314-4.39031,3.34951-6.66116,4.9391-2.47901,1.75991-5.03372,3.46305-7.60735,5.09049-2.64933,1.68421-5.3365,3.31166-8.06152,4.84448-2.87641,1.64637-5.80959,3.19812-8.78062,4.67417-3.16027,1.57067-6.35838,3.06565-9.59435,4.44708Z"/>
          <rect class="cls-17" x="53.63792" y="458.4717" width="38.226" height="13.87112"/>
          <path class="cls-22" d="m85.12706,524.45886v.37848h-10.90009v-.54879l10.90009.17031Z"/>
          <path class="cls-17" d="m85.12706,523.62621v.83265l-10.90009-.17031v-.66233h10.90009Z"/>
          <path class="cls-17" d="m85.12706,503.33994v20.28627h-10.90009v-19.13192l.68126-.51094c1.66529,1.02188,3.34951,2.04377,5.03372,3.06565,1.72206-1.23004,3.46305-2.47901,5.18511-3.70906Z"/>
          <path class="cls-23" d="m85.03244,555.20997c.01892,4.08753.05677,8.15614.0757,12.24367-13.7765.13247-27.55299.26493-41.32949.41632-.11354-.96511-.35955-3.67121.81372-6.22592.7948-1.72206,1.85453-2.6304,2.74395-3.23596,2.17623-1.49498,4.69309-1.75991,7.13426-1.98699.22709-.3974.47309-.81372.70018-1.21112h5.14726c.73803-1.41928,1.49498-2.83856,2.25193-4.23892h2.57363c.73803,1.41928,1.49498,2.83856,2.25193,4.23892,1.36251-1.38143,2.72502-2.78179,4.10646-4.18215h1.53282c2.15731,1.40036,4.35246,2.80072,6.50977,4.18215h5.48789Z"/>
          <path class="cls-15" d="m84.99459,551.10351c.01892,1.36251.01892,2.74395.03785,4.10646h-5.48789c-2.15731-1.38143-4.35246-2.78179-6.50977-4.18215,3.99291.01892,7.9669.05677,11.95982.0757Z"/>
          <path class="cls-24" d="m73.58356,426.14992c1.09758,0,2.00592,1.68421,2.00592,3.76583s-.90834,3.76583-2.00592,3.76583-1.98699-1.68421-1.98699-3.76583.88942-3.76583,1.98699-3.76583Z"/>
          <path class="cls-16" d="m74.22697,526.65401v5.67713c0,.58664-.49202,1.07865-1.07865,1.07865h-4.73094c-.7191,0-1.30574-.58664-1.30574-1.30574v-5.45004h7.11533Z"/>
          <rect class="cls-17" x="67.11164" y="524.83733" width="7.11533" height="1.81668"/>
          <rect class="cls-17" x="67.11164" y="524.28854" width="7.11533" height=".54879"/>
          <polygon class="cls-17" points="74.22697 523.62621 74.22697 524.28854 67.11164 524.175 67.11164 523.62621 74.22697 523.62621"/>
          <path class="cls-17" d="m74.22697,504.49429v19.13192h-7.11533v-20.91075c.87049,1.75991,1.70314,3.5009,2.57363,5.24188l4.5417-3.46305Z"/>
          <path class="cls-22" d="m74.22697,481.67223v22.82205l-4.5417,3.46305c-.87049-1.74099-1.70314-3.48197-2.57363-5.24188v-9.63219c.26493-.47309.41632-.73803.41632-.73803,1.38143-2.51686,2.78179-5.09049,3.08457-7.94798.15139-1.32466,0-2.72502-.47309-3.97399,1.34359.45417,2.7061.87049,4.08753,1.24897Z"/>
          <path class="cls-22" d="m74.22697,478.92829v2.74395c-1.38143-.37848-2.74395-.7948-4.08753-1.24897-.18924-.52987-.45417-1.04081-.75695-1.49498h4.84448Z"/>
          <polygon class="cls-17" points="74.22697 524.28854 67.11164 524.28854 67.11164 524.175 74.22697 524.28854"/>
          <path class="cls-15" d="m71.50195,551.02782c-1.38143,1.40036-2.74395,2.80072-4.10646,4.18215-.75695-1.40036-1.5139-2.81964-2.25193-4.23892l6.35838.05677Z"/>
          <path class="cls-22" d="m70.13944,480.42327c.47309,1.24897.62448,2.64933.47309,3.97399-.30278,2.85749-1.70314,5.43112-3.08457,7.94798,0,0-.15139.26493-.41632.73803v-13.75757c1.00296.37848,2.00592.75695,3.0278,1.09758Z"/>
          <path class="cls-22" d="m69.38249,478.92829c.30278.45417.56771.96511.75695,1.49498-1.02188-.34063-2.02484-.7191-3.0278-1.09758v-.3974h2.27085Z"/>
          <path class="cls-22" d="m69.38249,478.92829h-2.27085v.3974c-.56771-.22709-1.15435-.45417-1.72206-.70018.26493-.68126.54879-1.34359.83265-1.98699.37848.09462.73803.24601,1.07865.41632.85157.43525,1.55175,1.09758,2.08161,1.87345Z"/>
          <path class="cls-22" d="m63.30796,524.83733h3.80368v1.81668h-12.96278c.05677-.87049.13247-1.75991.22709-2.66825l8.93201.13247v.7191Z"/>
          <polygon class="cls-22" points="67.11164 524.28854 67.11164 524.83733 63.30796 524.83733 63.30796 524.11823 67.11164 524.175 67.11164 524.28854"/>
          <polygon class="cls-17" points="67.11164 523.62621 67.11164 524.175 63.30796 524.11823 63.30796 523.62621 67.11164 523.62621"/>
          <path class="cls-17" d="m67.11164,502.71546v20.91075h-3.80368v-20.28627c1.1165-.52987,2.21408-1.05973,3.33058-1.5896.15139.3217.3217.64341.47309.96511Z"/>
          <path class="cls-22" d="m67.11164,493.08326v9.63219c-.15139-.3217-.3217-.64341-.47309-.96511-1.1165.52987-2.21408,1.05973-3.33058,1.5896v20.77829l-8.93201-.13247c.03785-.45417.0757-.90834.13247-1.36251,2.97103-3.06565,4.39031-7.38027,5.69605-11.48672,1.40036-4.37139,2.78179-8.74278,4.16323-13.09524,1.21112-2.17623,2.21408-3.99291,2.74395-4.95803Z"/>
          <path class="cls-22" d="m67.11164,479.32569v13.75757c-.52987.96511-1.53282,2.78179-2.74395,4.95803-1.38143,4.35246-2.76287,8.72385-4.16323,13.09524-1.30574,4.10646-2.72502,8.42107-5.69605,11.48672.73803-7.60735,2.11946-15.80134,4.35246-24.29811,1.87345-7.22888,4.1443-13.79542,6.5287-19.69963.56771.24601,1.15435.47309,1.72206.70018Z"/>
          <path class="cls-22" d="m66.22222,476.63851c-.28386.64341-.56771,1.30574-.83265,1.98699-1.30574-.52987-2.57363-1.09758-3.84152-1.68421,1.49498-.54879,3.16027-.73803,4.67417-.30278Z"/>
          <path class="cls-15" d="m62.56993,550.97104c-.75695,1.40036-1.5139,2.81964-2.25193,4.23892h-5.14726c.83265-1.41928,1.66529-2.83856,2.49794-4.27677,1.62744.01892,3.27381.01892,4.90125.03785Z"/>
          <path class="cls-22" d="m61.54805,476.94129c-.01892,0-.05677,0-.0757.01892-1.87345.70018-3.51982,1.9113-5.12834,3.1035-3.00888,2.233-5.99883,4.44708-9.00771,6.66116v-18.48851c1.98699,1.5139,4.04968,2.95211,6.18807,4.27677,2.57363,1.62744,5.26081,3.1035,8.02367,4.42816Z"/>
          <path class="cls-22" d="m54.37595,523.98576c-.09462.90834-.17031,1.79776-.22709,2.66825h-6.81255v-.24601c2.44117-.45417,4.76879-1.53282,6.60439-3.23596.18924-.17031.3974-.35955.56771-.54879-.05677.45417-.09462.90834-.13247,1.36251Z"/>
          <path class="cls-22" d="m53.63792,458.4717v13.87112l-.11354.17031c-2.13838-1.32466-4.20107-2.76287-6.18807-4.27677v-9.76466h6.30161Z"/>
          <path class="cls-18" d="m52.80527,338.02197c.15139.51094.37848,1.02188.66233,1.49498-1.09758.20816-2.21408.34063-3.25489.22709.85157-.58664,1.72206-1.17327,2.59256-1.72206Z"/>
          <path class="cls-22" d="m47.33631,508.97922c.62448.98404,1.15435,2.10054,1.55175,3.29273-.3974-1.17327-.92726-2.25193-1.55175-3.23596v-.05677Z"/>
          <path class="cls-19" d="m47.33631,526.25661v.15139c-.03785,0-.0757.01892-.11354.01892l.11354-.17031Z"/>
          <path class="cls-19" d="m47.33631,508.97922v.05677c-.24601-.3974-.51094-.75695-.77587-1.1165,0-.01892.01892-.01892.01892-.01892.26493.34063.51094.70018.75695,1.07865Z"/>
          <path class="cls-23" d="m47.33631,486.72488v22.25434c-.24601-.37848-.49202-.73803-.75695-1.07865-1.94915-2.47901-4.65525-4.01184-7.62628-4.01184h-.17031c-3.86045,0-7.22888,2.47901-9.17802,6.24484.01892-.54879.05677-1.09758.13247-1.64637.09462-.70018.22709-1.38143.41632-2.04377.98404-3.76583,3.14134-7.20995,5.77175-10.12421,3.08457-3.4252,6.83148-6.20699,10.54053-8.95094.28386-.20816.58664-.43525.87049-.64341Z"/>
          <path class="cls-22" d="m47.22276,526.42693c-1.96807,2.98995-4.9391,4.90125-8.26968,4.90125h-.0757c3.33058-.03785,6.30161-1.93022,8.28861-4.88233.01892-.01892.03785-.01892.05677-.01892Z"/>
          <path class="cls-23" d="m47.16599,526.44585c-1.98699,2.95211-4.95803,4.84448-8.28861,4.88233-5.92314-.05677-10.71085-6.16915-10.71085-13.71973,0-2.46009.51094-4.76879,1.41928-6.77471.03785,5.37435,2.7061,10.72977,7.2478,13.60618,3.0278,1.93022,6.79363,2.59256,10.33237,2.00592Z"/>
          <path class="cls-23" d="m46.27658,342.69614c.62448,1.9113.88942,3.91722.66233,5.80959-.11354,1.04081-.49202,1.96807-.49202,1.96807-.83265,2.47901-2.10054,3.48197-4.95803,6.8504.18924-.3217.35955-.68126.51094-1.09758,0,0,.20816-.54879.28386-1.15435.28386-2.36547-.73803-4.97695-2.233-6.88825,1.96807-1.94915,4.04968-3.78475,6.22592-5.48789Z"/>
          <path class="cls-23" d="m46.57936,507.90057s-.01892,0-.01892.01892c-1.96807-2.46009-4.69309-3.99291-7.68305-4.03076h.0757c2.97103,0,5.67713,1.53282,7.62628,4.01184Z"/>
          <path class="cls-30" d="m45.91702,451.01574c1.34359,3.38735-2.27085,8.53462-5.60143,8.89417-.70018.0757-2.49794.05677-7.11533-5.62036-.0757-.09462-.17031-.20816-.22709-.30278-.35955-.43525-.70018-.88942-1.02188-1.32466-1.53282-2.04377-2.97103-4.16323-4.29569-6.35838-.0757-.09462-.13247-.20816-.18924-.3217-1.23004-2.06269-2.21408-3.97399-3.06565-5.69605-.68126-1.36251-1.26789-2.6304-1.81668-3.84152-.11354-.20816-.18924-.41632-.26493-.60556-1.89238-4.48493-3.36843-9.1591-4.40924-14.02251-.09462-.58664-.15139-1.1165-.20816-1.5896-.47309-4.48493-.01892-6.81255,1.30574-8.68601,1.5896-2.25193,4.86341-4.48493,8.09937-3.59551,4.6174,1.26789,5.50681,7.92906,4.78771,10.10529-.51094,1.5139-1.45713,2.83856-1.96807,4.35246-.52987,1.5139-.51094,3.40628.68126,4.46601,1.26789,1.15435,3.27381.87049,4.88233.28386,1.60852-.56771,3.27381-1.38143,4.95803-1.04081,2.28977.45417,3.69013,2.95211,3.76583,5.27973.0757,2.34655-.81372,4.57955-1.5139,6.79363-.7191,2.233-1.24897,4.67417-.45417,6.86932s2.80072,3.78475,3.67121,5.96098Z"/>
          <path class="cls-23" d="m41.92411,335.31587c1.85453,1.96807,3.46305,4.59847,4.35246,7.38027-2.17623,1.70314-4.25785,3.53874-6.22592,5.48789-.20816-.3217-.45417-.60556-.7191-.87049-2.68717-2.81964-6.81255-4.06861-10.65408-3.53874s-7.38027,2.72502-9.84036,5.71498c-2.51686,3.06565-3.99291,7.07749-3.67121,11.03255s2.55471,7.79659,6.03668,9.70789c.77587.43525,1.62744.73803,2.49794.90834-.75695,1.5896-1.45713,3.21704-2.10054,4.86341-3.53874.54879-7.34242.03785-10.50269-1.70314-5.90421-3.27381-9.70789-9.80251-10.25668-16.52044-.3217-4.04968.45417-8.13722,2.06269-11.88412-.7948,2.13838-.88942,3.95507-.09462,4.95803,1.28682,1.64637,5.24188,1.55175,7.2478-.0757,1.00296-.81372,1.07865-1.32466,2.66825-4.65525.75695-1.62744,1.64637-3.27381,3.04673-4.37139,1.79776-1.41928,4.20107-1.77883,6.49085-1.85453,2.28977-.09462,4.6174.03785,6.83148-.58664,1.72206-.47309,4.71202-2.25193,4.74986-4.44708.03785-2.64933-4.33354-4.46601-4.78771-4.65525-2.38439-.96511-4.88233-.98404-7.19103-.54879.64341-.13247,1.28682-.24601,1.94915-.34063,6.54762-.90834,13.56834,1.21112,18.11004,5.99883Z"/>
          <path class="cls-23" d="m40.05066,348.18403c1.49498,1.9113,2.51686,4.52278,2.233,6.88825-.0757.60556-.28386,1.15435-.28386,1.15435-.15139.41632-.3217.77587-.51094,1.09758-.11354.11354-.20816.24601-.3217.35955-.73803.85157-1.34359,1.60852-1.94915,2.38439l-.34063.3974c-.7191.85157-1.23004,1.5139-1.87345,2.32762-1.05973,1.36251-1.62744,2.21408-2.04377,2.72502-2.233,2.72502-3.34951,4.10646-4.5417,4.73094-1.96807,1.04081-4.44708,1.38143-6.71793.88942,4.06861-8.62923,9.61327-16.38798,16.35013-22.95452Z"/>
          <path class="cls-23" d="m41.16716,357.68376c.11354-.11354.20816-.24601.3217-.35955-.47309.77587-1.15435,1.45713-2.27085,2.74395.60556-.77587,1.21112-1.53282,1.94915-2.38439Z"/>
          <path class="cls-28" d="m40.05066,348.18403c-6.73686,6.56654-12.28152,14.32529-16.35013,22.95452-.87049-.17031-1.72206-.47309-2.49794-.90834-3.48197-1.9113-5.71498-5.75282-6.03668-9.70789s1.15435-7.9669,3.67121-11.03255c2.46009-2.98995,5.99883-5.18511,9.84036-5.71498s7.9669.7191,10.65408,3.53874c.26493.26493.51094.54879.7191.87049Z"/>
          <path class="cls-23" d="m38.87739,360.46555l.34063-.3974c-.3974.51094-.81372,1.02188-1.24897,1.5896-1.81668,2.3087-2.78179,3.76583-3.48197,4.6174-3.80368,4.65525-5.69605,6.96394-7.72089,8.0426-1.57067.83265-3.33058,1.40036-5.16619,1.68421.64341-1.64637,1.34359-3.27381,2.10054-4.86341,2.27085.49202,4.74986.15139,6.71793-.88942,1.1922-.62448,2.3087-2.00592,4.5417-4.73094.41632-.51094.98404-1.36251,2.04377-2.72502.64341-.81372,1.15435-1.47605,1.87345-2.32762Z"/>
          <path class="cls-23" d="m38.78277,503.88873h.09462c-3.99291.03785-7.45596,2.81964-9.29157,6.94502,0-.22709,0-.47309.01892-.70018,1.94915-3.76583,5.31758-6.24484,9.17802-6.24484Z"/>
          <path class="cls-23" d="m38.87739,531.32818h-.09462c-6.0556,0-10.95686-6.1313-10.95686-13.71973,0-2.76287.64341-5.31758,1.77883-7.47489-.01892.22709-.01892.47309-.01892.70018-.90834,2.00592-1.41928,4.31462-1.41928,6.77471,0,7.55058,4.78771,13.66295,10.71085,13.71973Z"/>
          <path class="cls-30" d="m29.05595,330.20646c.45417.18924,4.82556,2.00592,4.78771,4.65525-.03785,2.19516-3.0278,3.97399-4.74986,4.44708-2.21408.62448-4.5417.49202-6.83148.58664-2.28977.0757-4.69309.43525-6.49085,1.85453-1.40036,1.09758-2.28977,2.74395-3.04673,4.37139-1.5896,3.33058-1.66529,3.84152-2.66825,4.65525-2.00592,1.62744-5.96098,1.72206-7.2478.0757-.7948-1.00296-.70018-2.81964.09462-4.95803,0,0,.01892-.01892.01892-.03785,1.05973-2.46009,2.47901-4.76879,4.16323-6.83148,3.67121-4.44708,8.72385-7.87228,14.30636-9.25372.15139-.03785.3217-.05677.47309-.11354,2.3087-.43525,4.80664-.41632,7.19103.54879Z"/>
          <path class="cls-30" d="m32.97317,453.98677c-.20816-.24601-.41632-.51094-.62448-.77587-.15139-.18924-.28386-.37848-.3974-.54879.3217.43525.66233.88942,1.02188,1.32466Z"/>
          <path class="cls-30" d="m27.6556,446.30373c1.32466,2.19516,2.76287,4.31462,4.29569,6.35838-1.70314-2.233-3.12242-4.37139-4.29569-6.35838Z"/>
          <path class="cls-23" d="m26.25524,387.29944v5.62036h-9.21587c.22709-1.36251.45417-2.68717.7191-4.01184h.03785c2.83856-.47309,5.6582-1.00296,8.45892-1.60852Z"/>
          <path class="cls-23" d="m26.25524,386.99666v.30278c-2.80072.60556-5.62036,1.13543-8.45892,1.60852h-.03785c.15139-.64341.28386-1.26789.43525-1.9113h8.06152Z"/>
          <path class="cls-23" d="m24.40071,440.28597c.85157,1.72206,1.8356,3.63336,3.06565,5.69605-1.8356-3.04673-3.48197-6.24484-4.88233-9.53758.54879,1.21112,1.13543,2.47901,1.81668,3.84152Z"/>
          <path class="cls-30" d="m22.3191,435.83889c-2.95211-6.71793-3.99291-11.12717-4.40924-14.02251,1.04081,4.86341,2.51686,9.53758,4.40924,14.02251Z"/>
          <path class="cls-27" d="m9.43201,386.99666h8.7617c-.15139.64341-.28386,1.26789-.43525,1.9113-.26493,1.32466-.49202,2.64933-.7191,4.01184h-7.60735v-5.92314Z"/>
          <path class="cls-30" d="m21.39183,329.77121c-5.58251,1.38143-10.63515,4.80664-14.30636,9.25372-1.68421,2.06269-3.1035,4.37139-4.16323,6.83148,1.45713-4.04968,5.35542-9.27264,10.29453-12.54645,1.17327-.77587,4.37139-2.74395,8.17506-3.53874Z"/>
          <path class="cls-27" d="m9.43201,392.9198v5.4122H2.82762c-1.28682,0-2.32762-1.04081-2.32762-2.3087v-12.13013c0-1.26789,1.04081-2.3087,2.32762-2.3087h6.60439v11.33533Z"/>
        </g>
        <g>
          <path class="cls-7" d="m108.98992,555.20997c-.01892,4.04968-.03785,8.09937-.05677,12.16798,13.75757.0757,27.53407.17031,41.31057.26493.11354-.94619.35955-3.57659-.81372-6.07453-.81372-1.68421-1.85453-2.55471-2.76287-3.14134-2.17623-1.45713-4.69309-1.70314-7.13426-1.93022-.24601-.43525-.51094-.85157-.77587-1.28682"/>
          <path class="cls-7" d="m71.50195,551.02782h1.53282"/>
          <path class="cls-7" d="m62.56993,550.97104h2.57363"/>
          <path class="cls-7" d="m85.03244,555.20997c.01892,4.08753.05677,8.15614.0757,12.24367-13.7765.13247-27.55299.26493-41.32949.41632-.11354-.96511-.35955-3.67121.81372-6.22592.7948-1.72206,1.85453-2.6304,2.74395-3.23596,2.17623-1.49498,4.69309-1.75991,7.13426-1.98699.22709-.3974.47309-.81372.70018-1.21112"/>
          <path class="cls-5" d="m181.2976,385.93693v-5.4122h6.60439c1.28682,0,2.32762,1.04081,2.32762,2.3087v12.13013c0,1.26789-1.04081,2.3087-2.32762,2.3087h-6.60439v-5.4122"/>
          <polyline class="cls-5" points="172.99007 385.93693 181.2976 385.93693 181.2976 391.86007 174.20119 391.86007"/>
          <path class="cls-5" d="m9.43201,386.99666v-5.4122H2.82762c-1.28682,0-2.32762,1.04081-2.32762,2.3087v12.13013c0,1.26789,1.04081,2.3087,2.32762,2.3087h6.60439v-5.4122"/>
          <polyline class="cls-5" points="18.19372 386.99666 9.43201 386.99666 9.43201 392.9198 17.03937 392.9198"/>
          <path class="cls-6" d="m159.13788,520.4281c2.40332-3.40628,3.5009-7.77767,2.91426-11.94089-.09462-.70018-.22709-1.38143-.3974-2.04377-.98404-3.76583-3.14134-7.20995-5.77175-10.12421-3.1035-3.4252-6.8504-6.20699-10.55946-8.95094-.37848-.26493-.73803-.54879-1.1165-.83265"/>
          <path class="cls-6" d="m47.22276,526.42693c-.01892,0-.03785,0-.05677.01892"/>
          <path class="cls-6" d="m29.60474,510.13357c.01892-.54879.05677-1.09758.13247-1.64637.09462-.70018.22709-1.38143.41632-2.04377.98404-3.76583,3.14134-7.20995,5.77175-10.12421,3.08457-3.4252,6.83148-6.20699,10.54053-8.95094.28386-.20816.58664-.43525.87049-.64341"/>
          <path class="cls-10" d="m140.61152,527.2785c.01892.05677.01892.09462.01892.15139.87049,11.24071.0757,20.77829-.94619,27.78008h-31.82976v-6.8504h-21.08107v6.8504h-7.22888c-2.15731-1.38143-4.35246-2.78179-6.50977-4.18215-.3217-.20816-.62448-.3974-.94619-.60556-.18924.20816-.3974.3974-.58664.60556-1.38143,1.40036-2.74395,2.80072-4.10646,4.18215-.75695-1.40036-1.5139-2.81964-2.25193-4.23892-.43525-.81372-.87049-1.60852-1.30574-2.42224-.43525.81372-.85157,1.60852-1.26789,2.42224-.75695,1.40036-1.5139,2.81964-2.25193,4.23892h-5.96098c-.41632-4.44708-.68126-9.27264-.7191-14.43883-.03785-4.42816.11354-9.14018.51094-14.11713"/>
          <path class="cls-10" d="m140.57367,526.65401c.01892.20816.03785.3974.03785.60556"/>
          <path class="cls-7" d="m75.91118,544.23419c13.64403,5.0148,29.02905,5.24188,42.82447.62448"/>
          <path class="cls-13" d="m74.22697,526.65401v5.67713c0,.58664-.49202,1.07865-1.07865,1.07865h-4.73094c-.7191,0-1.30574-.58664-1.30574-1.30574v-5.45004"/>
          <path class="cls-13" d="m125.83206,526.65401v6.49085c0,.70018-.56771,1.26789-1.24897,1.26789h-4.73094c-.62448,0-1.1165-.51094-1.1165-1.1165v-6.64224"/>
          <path class="cls-6" d="m144.8126,342.41228c.90834-2.66825,2.47901-5.18511,4.27677-7.09641,4.5417-4.78771,11.54349-6.90717,18.09111-5.99883,6.54762.88942,12.52753,4.6174,16.7286,9.70789,4.27677,5.22296,6.79363,12.01659,6.24484,18.75345-.54879,6.71793-4.33354,13.24663-10.25668,16.52044-3.0278,1.66529-6.62332,2.21408-10.04852,1.75991"/>
          <path class="cls-4" d="m151.13313,347.93802c.17031-.22709.35955-.43525.54879-.62448,2.66825-2.81964,6.79363-4.06861,10.63515-3.53874s7.38027,2.72502,9.84036,5.71498c2.51686,3.06565,3.99291,7.07749,3.67121,11.03255s-2.55471,7.79659-6.01776,9.70789c-.66233.37848-1.38143.64341-2.11946.83265"/>
          <path class="cls-6" d="m2.90332,345.89426c-1.60852,3.7469-2.38439,7.83444-2.06269,11.88412.54879,6.71793,4.35246,13.24663,10.25668,16.52044,3.16027,1.74099,6.96394,2.25193,10.50269,1.70314"/>
          <path class="cls-3" d="m21.39183,329.77121c-5.58251,1.38143-10.63515,4.80664-14.30636,9.25372-1.68421,2.06269-3.1035,4.37139-4.16323,6.83148"/>
          <path class="cls-6" d="m46.27658,342.69614c-.88942-2.78179-2.49794-5.4122-4.35246-7.38027-4.5417-4.78771-11.56242-6.90717-18.11004-5.99883-.66233.09462-1.30574.20816-1.94915.34063"/>
          <path class="cls-4" d="m40.05066,348.18403c-.20816-.3217-.45417-.60556-.7191-.87049-2.68717-2.81964-6.81255-4.06861-10.65408-3.53874s-7.38027,2.72502-9.84036,5.71498c-2.51686,3.06565-3.99291,7.07749-3.67121,11.03255s2.55471,7.79659,6.03668,9.70789c.77587.43525,1.62744.73803,2.49794.90834"/>
          <path class="cls-6" d="m143.05269,341.0687c.58664.43525,1.17327.87049,1.75991,1.34359,2.19516,1.72206,4.31462,3.57659,6.32054,5.52574,3.29273,3.17919,6.30161,6.66116,9.00771,10.38914,2.89534,3.97399,5.43112,8.23184,7.55058,12.73569.77587,1.62744,1.49498,3.29273,2.15731,4.99587,1.24897,3.19812,2.3087,6.49085,3.14134,9.8782.47309,1.94915.88942,3.91722,1.21112,5.92314.7191,4.27677,1.09758,8.68601,1.09758,13.18986,0,25.69847-12.1869,48.55837-31.09174,63.09182"/>
          <path class="cls-6" d="m17.90986,421.81638c-1.17327-5.39327-1.77883-11.01363-1.77883-16.76645,0-4.12538.3217-8.17506.90834-12.13013.22709-1.36251.45417-2.68717.7191-4.01184.15139-.64341.28386-1.26789.43525-1.9113.87049-3.76583,2.00592-7.43704,3.40628-10.9947.64341-1.64637,1.34359-3.27381,2.10054-4.86341,4.06861-8.62923,9.61327-16.38798,16.35013-22.95452,1.96807-1.94915,4.04968-3.78475,6.22592-5.48789,1.28682-1.04081,2.59256-2.00592,3.93614-2.95211"/>
          <path class="cls-3" d="m22.3191,435.83889c-1.89238-4.48493-3.36843-9.1591-4.40924-14.02251"/>
          <path class="cls-6" d="m27.46636,445.98202c-1.8356-3.04673-3.48197-6.24484-4.88233-9.53758"/>
          <path class="cls-3" d="m32.97317,453.98677c-.35955-.43525-.70018-.88942-1.02188-1.32466-1.53282-2.04377-2.97103-4.16323-4.29569-6.35838"/>
          <path class="cls-6" d="m47.33631,468.23636c-5.27973-4.04968-10.02959-8.72385-14.13605-13.94681"/>
          <path class="cls-6" d="m95.81898,432.64077c-1.41928-.15139-2.47901-.77587-2.98995-1.07865-1.8356-1.07865-5.88529-4.80664-2.233-6.24484,2.64933-1.04081,5.58251-1.32466,8.40215-.87049.58664.09462,1.17327.22709,1.75991.3974,3.93614,1.13543,2.04377,4.78771-.37848,6.56654-.58664.43525-1.60852,1.04081-3.0278,1.23004-.11354.01892-.20816.01892-.3217.01892-.43525.05677-.83265.03785-1.21112-.01892Z"/>
          <path class="cls-6" d="m123.48552,429.91575c0,2.08161-.88942,3.76583-1.98699,3.76583s-2.00592-1.68421-2.00592-3.76583.90834-3.76583,2.00592-3.76583,1.98699,1.68421,1.98699,3.76583Z"/>
          <path class="cls-6" d="m75.58948,429.91575c0,2.08161-.90834,3.76583-2.00592,3.76583s-1.98699-1.68421-1.98699-3.76583.88942-3.76583,1.98699-3.76583,2.00592,1.68421,2.00592,3.76583Z"/>
          <path class="cls-6" d="m95.53512,430.52131c.09462.70018.20816,1.41928.28386,2.11946.20816,1.66529.3217,3.33058.20816,4.97695-.17031,2.38439-.88942,4.78771-2.42224,6.60439-1.5139,1.79776-3.80368,2.91426-6.15022,3.00888-2.34655.11354-4.73094-.81372-6.39623-2.47901"/>
          <path class="cls-6" d="m97.29503,430.52131c-.09462.70018-.18924,1.41928-.26493,2.13838-.20816,1.64637-.34063,3.31166-.22709,4.95803.17031,2.38439.88942,4.78771,2.42224,6.60439,1.5139,1.79776,3.80368,2.91426,6.15022,3.00888,2.34655.11354,4.73094-.81372,6.39623-2.47901"/>
          <polyline class="cls-10" points="144.20703 473.08085 144.20703 486.53564 144.20703 504.79707 144.20703 504.92954"/>
          <line class="cls-10" x1="94.15369" y1="458.4717" x2="98.37369" y2="458.4717"/>
          <polyline class="cls-10" points="47.33631 508.97922 47.33631 486.72488 47.33631 468.23636 47.33631 458.4717 51.42384 458.4717"/>
          <polyline class="cls-10" points="63.30796 526.65401 54.14886 526.65401 47.33631 526.65401 47.33631 526.408 47.33631 526.25661 47.33631 526.19984"/>
          <polyline class="cls-10" points="140.57367 526.65401 140.17627 526.65401 140.06273 526.65401 125.83206 526.65401 118.73565 526.65401 85.12706 526.65401"/>
          <path class="cls-10" d="m48.88805,522.96388c-.3974,1.15435-.92726,2.25193-1.55175,3.23596-.05677.0757-.11354.15139-.17031.24601-1.98699,2.95211-4.95803,4.84448-8.28861,4.88233h-.09462c-6.0556,0-10.95686-6.1313-10.95686-13.71973,0-2.76287.64341-5.31758,1.77883-7.47489,1.94915-3.76583,5.31758-6.24484,9.17802-6.24484h.09462c2.98995.03785,5.71498,1.57067,7.68305,4.03076.26493.35955.52987.7191.77587,1.1165.62448.98404,1.15435,2.06269,1.55175,3.23596"/>
          <polyline class="cls-11" points="91.86391 458.4717 91.86391 472.34282 53.63792 472.34282 53.63792 458.4717"/>
          <polyline class="cls-12" points="99.41449 492.5534 118.73565 492.5534 124.39386 492.5534 125.83206 492.5534 129.59789 492.5534"/>
          <polyline class="cls-12" points="99.41449 500.33106 118.73565 500.33106 125.83206 500.33106 128.14076 500.33106 129.59789 500.33106"/>
          <polyline class="cls-10" points="85.12706 526.65401 74.22697 526.65401 67.11164 526.65401 63.30796 526.65401"/>
          <path class="cls-11" d="m85.12706,524.83733v.85157"/>
          <path class="cls-11" d="m63.30796,523.62621v-20.28627c1.1165-.52987,2.21408-1.05973,3.33058-1.5896.15139.3217.3217.64341.47309.96511.87049,1.75991,1.70314,3.5009,2.57363,5.24188l4.5417-3.46305.68126-.51094c1.66529,1.02188,3.34951,2.04377,5.03372,3.06565,1.72206-1.23004,3.46305-2.47901,5.18511-3.70906v20.28627"/>
          <line class="cls-11" x1="63.30796" y1="525.66998" x2="63.30796" y2="524.83733"/>
          <path class="cls-4" d="m140.21412,508.41151c.01892,0,.03785,0,.05677.01892,1.30574.20816,2.6304.43525,3.93614.66233,1.30574.20816,2.61148.43525,3.91722.66233"/>
          <path class="cls-4" d="m137.8108,517.57061c.54879-.13247,1.1165-.24601,1.66529-.37848,1.57067-.35955,3.16027-.7191,4.73094-1.05973.49202-.11354,1.00296-.22709,1.49498-.34063"/>
          <path class="cls-4" d="m140.40336,526.0106l.11354-.05677c.30278-.17031.60556-.3217.90834-.49202.92726-.49202,1.85453-1.00296,2.78179-1.49498,1.02188-.54879,2.06269-1.1165,3.1035-1.66529"/>
          <path class="cls-2" d="m46.57936,507.90057s-.01892,0-.01892.01892c-2.93318,1.64637-5.84744,3.31166-8.78062,4.97695"/>
          <path class="cls-2" d="m49.34222,516.35949c-.66233.11354-1.34359.20816-2.00592.3217-2.47901.3974-4.9391.7948-7.41811,1.1922"/>
          <path class="cls-2" d="m47.14707,526.04845c-2.64933-.7948-5.29865-1.60852-7.92906-2.42224"/>
          <path class="cls-4" d="m17.79632,388.90796c2.83856-.47309,5.6582-1.00296,8.45892-1.60852.83265-.17031,1.66529-.35955,2.47901-.54879,3.4252-.77587,6.81255-1.66529,10.18098-2.6304,3.70906-1.07865,7.38027-2.27085,11.03255-3.57659,3.53874-1.28682,7.02072-2.66825,10.48376-4.1443,3.23596-1.38143,6.43408-2.87641,9.59435-4.44708,2.97103-1.47605,5.90421-3.0278,8.78062-4.67417,2.72502-1.53282,5.4122-3.16027,8.06152-4.84448,2.57363-1.62744,5.12834-3.33058,7.60735-5.09049,2.27085-1.5896,4.48493-3.23596,6.66116-4.9391"/>
          <path class="cls-4" d="m29.13165,382.13326c-.13247,1.53282-.26493,3.08457-.3974,4.6174-.15139,1.81668-.3217,3.61444-.47309,5.43112"/>
          <path class="cls-4" d="m37.60949,379.88133c.43525,1.41928.87049,2.81964,1.30574,4.23892.51094,1.62744,1.00296,3.25489,1.5139,4.86341"/>
          <path class="cls-4" d="m47.0146,376.81568c.98404,1.23004,1.96807,2.47901,2.93318,3.72798,1.15435,1.45713,2.3087,2.91426,3.44412,4.37139"/>
          <path class="cls-4" d="m56.93065,372.40644c1.17327,1.32466,2.34655,2.64933,3.5009,3.99291,1.15435,1.28682,2.28977,2.59256,3.4252,3.87937"/>
          <path class="cls-4" d="m66.39253,368.67846c1.26789,1.02188,2.47901,2.10054,3.63336,3.27381,1.32466,1.30574,2.57363,2.68717,3.7469,4.16323"/>
          <path class="cls-4" d="m75.51379,364.23138c.01892.01892,2.06269,1.89238,3.29273,3.04673.52987.49202.90834.83265.92726.85157.03785.03785,3.36843,3.12242,3.40628,3.16027"/>
          <path class="cls-4" d="m83.7267,359.65183c1.04081.92726,2.08161,1.85453,3.14134,2.78179,1.1922,1.05973,2.38439,2.11946,3.57659,3.16027"/>
          <path class="cls-4" d="m89.42275,355.14797c1.68421.73803,3.36843,1.45713,5.05264,2.19516,1.62744.70018,3.25489,1.40036,4.86341,2.10054"/>
          <path class="cls-4" d="m160.15976,358.32717h-.01892c-2.02484,1.09758-4.23892,2.40332-6.56654,3.93614-.01892,0-.03785.01892-.05677.03785-.70018.43525-1.41928.92726-2.13838,1.43821-2.40332,1.66529-4.92018,3.57659-7.45596,5.75282-.66233.56771-1.30574,1.13543-1.93022,1.72206-2.93318,2.64933-5.48789,5.31758-7.66412,7.83444-1.70314,1.98699-3.19812,3.87937-4.48493,5.62036"/>
          <polyline class="cls-4" points="128.70848 375.30178 134.32883 379.04868 138.6813 381.94402"/>
          <polyline class="cls-4" points="137.90542 367.94044 141.99295 371.21425 145.49385 374.03389"/>
          <polyline class="cls-4" points="147.85932 359.44367 151.37914 363.73936 154.35017 367.33488"/>
          <path class="cls-3" d="m33.20026,454.28955c4.6174,5.67713,6.41515,5.69605,7.11533,5.62036,3.33058-.35955,6.94502-5.50681,5.60143-8.89417-.87049-2.17623-2.87641-3.76583-3.67121-5.96098s-.26493-4.63632.45417-6.86932c.70018-2.21408,1.5896-4.44708,1.5139-6.79363-.0757-2.32762-1.47605-4.82556-3.76583-5.27973-1.68421-.34063-3.34951.47309-4.95803,1.04081-1.60852.58664-3.61444.87049-4.88233-.28386-1.1922-1.05973-1.21112-2.95211-.68126-4.46601.51094-1.5139,1.45713-2.83856,1.96807-4.35246.7191-2.17623-.17031-8.8374-4.78771-10.10529-3.23596-.88942-6.50977,1.34359-8.09937,3.59551-1.32466,1.87345-1.77883,4.20107-1.30574,8.68601.05677.47309.11354,1.00296.20816,1.5896.41632,2.89534,1.45713,7.30457,4.40924,14.02251.0757.18924.15139.3974.26493.60556.54879,1.21112,1.13543,2.47901,1.81668,3.84152.85157,1.72206,1.8356,3.63336,3.06565,5.69605.05677.11354.11354.22709.18924.3217,1.17327,1.98699,2.59256,4.12538,4.29569,6.35838.11354.17031.24601.35955.3974.54879.20816.26493.41632.52987.62448.77587.05677.09462.15139.20816.22709.30278Z"/>
          <path class="cls-3" d="m90.06616,397.59397c-1.5896.98404-2.34655,3.12242-1.74099,4.88233.13247.34063.28386.66233.45417.98404.3974.7948.7948,1.57067,1.1922,2.36547.83265,1.64637,1.79776,3.40628,3.48197,4.1443,2.06269.88942,4.48493-.09462,6.22592-1.49498,1.74099-1.41928,3.12242-3.25489,4.99587-4.50385,2.10054-1.38143,4.97695-2.19516,5.7339-4.59847.49202-1.5139-.13247-3.23596-1.28682-4.31462-1.15435-1.09758-2.74395-1.62744-4.31462-1.77883-3.46305-.3217-5.35542,1.24897-8.23184,2.6304-2.06269,1.00296-4.69309.54879-6.50977,1.68421Z"/>
          <path class="cls-1" d="m144.15026,458.4717c-13.05739.05677-26.13371.11354-39.19111.15139-1.1165,0-1.41928.13247-1.38143,1.24897.03785,1.00296.18924,2.00592.45417,2.98995.17031.58664.37848,1.21112.85157,1.60852.17031.15139.35955.24601.58664.34063.60556.24601,1.30574.30278,1.9113.58664,1.1165.54879,1.70314,1.79776,1.85453,3.0278.17031,1.23004-.01892,2.46009.01892,3.70906.01892,1.15435.26493,2.38439,1.05973,3.23596.03785.05677.0757.09462.13247.15139.56771.54879,1.47605.85157,2.13838.41632.20816-.15139.37848-.34063.49202-.56771.05677-.05677.09462-.13247.13247-.20816.64341-1.28682.68126-2.80072.96511-4.22.30278-1.41928.98404-2.93318,2.32762-3.46305.73803-.28386,1.70314-.15139,2.06269.52987.18924.35955.18924.77587.24601,1.17327.17031.90834.81372,1.72206,1.64637,2.08161.7191.3217,1.68421.24601,2.13838-.37848.54879-.73803.17031-1.81668.49202-2.68717.43525-1.1165,2.00592-1.45713,3.06565-.88942,1.05973.58664,1.62744,1.79776,1.81668,2.98995s.09462,2.40332.17031,3.61444c.0757.90834.28386,1.89238.77587,2.64933.13247.22709.28386.41632.47309.58664.0757.09462.17031.17031.26493.24601.73803.56771,1.70314.68126,2.61148.49202.73803-.15139,1.43821-.49202,1.98699-1.00296.92726-.85157,1.49498-2.02484,1.81668-3.25489.13247-.3974.20816-.7948.28386-1.1922.28386-1.66529.3217-3.34951.7191-4.97695s1.23004-3.25489,2.66825-4.10646c1.21112-.7191,2.80072-.87049,3.67121-1.98699.62448-.7948.70018-1.87345.73803-2.89534Z"/>
          <path class="cls-3" d="m2.90332,345.89426c-.7948,2.13838-.88942,3.95507-.09462,4.95803,1.28682,1.64637,5.24188,1.55175,7.2478-.0757,1.00296-.81372,1.07865-1.32466,2.66825-4.65525.75695-1.62744,1.64637-3.27381,3.04673-4.37139,1.79776-1.41928,4.20107-1.77883,6.49085-1.85453,2.28977-.09462,4.6174.03785,6.83148-.58664,1.72206-.47309,4.71202-2.25193,4.74986-4.44708.03785-2.64933-4.33354-4.46601-4.78771-4.65525-2.38439-.96511-4.88233-.98404-7.19103-.54879-.15139.05677-.3217.0757-.47309.11354-3.80368.7948-7.00179,2.76287-8.17506,3.53874-4.9391,3.27381-8.8374,8.49677-10.29453,12.54645,0,.01892-.01892.03785-.01892.03785Z"/>
          <path class="cls-10" d="m53.4676,339.51695c2.97103,4.99587,12.11121,7.9669,16.76645,9.29157,10.01067,2.87641,20.49443,4.04968,30.9025,3.59551,10.44592-.47309,20.81614-2.6304,30.56187-6.43408,1.77883-.70018,3.59551-1.47605,4.86341-2.89534.30278-.3217.54879-.70018.75695-1.1165"/>
          <path class="cls-10" d="m53.4676,339.51695c.3217-.0757.62448-.13247.92726-.20816,1.17327-.28386,2.28977-.60556,3.23596-.81372,2.95211-.64341,6.32054-1.5139,13.32233-2.51686,13.45479-1.89238,24.43057-1.5896,24.43057-1.5896,4.42816.13247,12.77354.35955,23.27623,2.53578,1.89238.3974,3.86045.85157,5.88529,1.38143,5.62036,1.47605,9.76466,2.97103,12.77354,3.65229,2.57363.56771,4.33354.54879,5.50681-.62448.09462-.09462.17031-.17031.22709-.26493,2.04377-2.53578.22709-7.98583-1.1165-10.80547-2.51686-5.18511-7.15318-8.74278-14.8173-12.05444-12.60322-5.4122-25.14968-6.58547-35.4442-6.20699,0,0-18.48851.66233-35.59559,9.63219-3.36843,1.75991-8.23184,4.69309-9.61327,9.82143-.15139.58664-1.26789,5.05264.98404,7.11533.77587.7191,1.74099,1.05973,2.76287,1.17327,1.04081.11354,2.15731-.01892,3.25489-.22709Z"/>
          <path class="cls-11" d="m85.12706,524.83733h-21.8191v-1.21112h21.8191v1.21112Z"/>
          <polyline class="cls-9" points="51.42384 458.4717 53.63792 458.4717 91.86391 458.4717 94.15369 458.4717"/>
          <polyline class="cls-10" points="98.37369 458.4717 144.15026 458.4717 144.20703 458.4717 145.02076 458.4717"/>
          <polyline class="cls-10" points="144.20703 473.08085 144.20703 468.14175 144.20703 458.4717 144.20703 457.52552"/>
          <path class="cls-10" d="m146.17511,531.04432c-2.13838-.54879-4.06861-1.89238-5.56359-3.76583v-.01892c-.15139-.18924-.30278-.3974-.43525-.60556-.3217-.43525-.62448-.90834-.87049-1.38143-.26493-.47309-.49202-.94619-.68126-1.45713"/>
          <path class="cls-10" d="m159.13788,520.4281c-1.04081,6.22592-5.46897,10.90009-10.7487,10.90009-.43525,0-.87049-.03785-1.28682-.11354"/>
          <path class="cls-10" d="m48.88805,512.27195c.54879,1.64637.85157,3.44412.85157,5.3365s-.30278,3.70906-.85157,5.35542c-.3974,1.1922-.92726,2.28977-1.55175,3.29273l-.11354.17031c-1.96807,2.98995-4.9391,4.90125-8.26968,4.90125h-.0757c-5.92314-.05677-10.71085-6.16915-10.71085-13.71973,0-2.46009.51094-4.76879,1.41928-6.77471,1.8356-4.12538,5.29865-6.90717,9.29157-6.94502h.0757c2.97103,0,5.67713,1.53282,7.62628,4.01184.26493.34063.51094.70018.75695,1.07865.62448.98404,1.15435,2.10054,1.55175,3.29273Z"/>
          <path class="cls-10" d="m138.45421,511.53393c-.7191,1.81668-1.1165,3.86045-1.1165,6.03668,0,2.19516.41632,4.27677,1.15435,6.1313.20816.54879.43525,1.07865.70018,1.57067s.54879.94619.87049,1.38143c.15139.26493.35955.52987.56771.77587,1.49498,1.85453,3.40628,3.14134,5.54466,3.61444.30278.0757.62448.15139.92726.17031.34063.05677.68126.0757,1.02188.0757,4.95803,0,9.12125-4.23892,10.37022-10.01067.28386-1.17327.41632-2.42224.41632-3.70906,0-7.03964-4.1443-12.81139-9.49973-13.60618,0,0-.01892-.01892-.03785,0-.41632-.0757-.83265-.11354-1.24897-.11354-1.38143,0-2.7061.3217-3.91722.94619-2.53578,1.23004-4.57955,3.65229-5.75282,6.73686Z"/>
        </g>
      </g>
      <g>
        <g>
          <rect class="cls-26" x="205.13757" y=".375" width="90" height="90" rx="2" ry="2" transform="translate(500.27515 90.75) rotate(-180)"/>
          <line class="cls-14" x1="250.13757" y1=".375" x2="250.13757" y2="90.375"/>
          <polygon class="cls-31" points="258.95965 .375 258.95965 21.89012 255.66349 18.40007 254.30625 21.89012 249.84674 17.6245 247.71392 21.89012 244.61165 17.6245 241.31549 23.24736 241.31549 .375 258.95965 .375"/>
          <polygon class="cls-31" points="241.31549 90.375 241.31549 68.85988 244.61165 72.34993 245.9689 68.85988 250.42841 73.1255 252.56122 68.85988 255.66349 73.1255 258.95965 67.50264 258.95965 90.375 241.31549 90.375"/>
          <rect class="cls-8" x="205.13757" y=".375" width="90" height="90" rx="2" ry="2" transform="translate(500.27515 90.75) rotate(-180)"/>
        </g>
        <g>
          <rect class="cls-26" x="222.46654" y="90.375" width="90" height="90" rx="2" ry="2"/>
          <line class="cls-14" x1="312.46654" y1="135.375" x2="222.46654" y2="135.375"/>
          <polygon class="cls-31" points="312.46654 144.19708 259.33204 144.19708 262.82209 140.90092 259.33204 139.54368 263.59766 135.08416 259.33204 132.95135 263.59766 129.84908 257.97479 126.55292 312.46654 126.55292 312.46654 144.19708"/>
          <polygon class="cls-31" points="222.46654 126.55292 243.98166 126.55292 240.49161 129.84908 243.98166 131.20632 239.71604 135.66584 243.98166 137.79865 239.71604 140.90092 245.3389 144.19708 222.46654 144.19708 222.46654 126.55292"/>
          <rect class="cls-8" x="222.46654" y="90.375" width="90" height="90" rx="2" ry="2"/>
        </g>
        <g>
          <rect class="cls-26" x="211.88217" y="180.375" width="90" height="90" rx="2" ry="2" transform="translate(482.25717 -31.50717) rotate(90)"/>
          <line class="cls-14" x1="211.88217" y1="225.375" x2="301.88217" y2="225.375"/>
          <polygon class="cls-31" points="238.82278 219.84906 233.19974 216.55292 256.07229 216.55292 277.58743 216.55292 274.09744 219.84906 277.58743 221.20636 273.32181 225.66583 277.58743 227.79865 273.32181 230.90094 278.94461 234.19708 256.07229 234.19708 234.55716 234.19708 238.04715 230.90094 234.55716 229.5437 238.82278 225.08417 234.55716 222.95135 238.82278 219.84906"/>
          <rect class="cls-8" x="211.88217" y="180.375" width="90" height="90" rx="2" ry="2" transform="translate(482.25717 -31.50717) rotate(90)"/>
        </g>
      </g>
    </g>
  </g>
</svg>