<?xml version="1.0" encoding="UTF-8"?>
<svg xmlns="http://www.w3.org/2000/svg" xmlns:xlink="http://www.w3.org/1999/xlink" viewBox="0 0 725.86323 110.70701">
  <defs>
    <style>
      .cls-1, .cls-2 {
        stroke: #000;
        stroke-width: 6px;
      }

      .cls-1, .cls-2, .cls-3, .cls-4, .cls-5, .cls-6, .cls-7, .cls-8, .cls-9, .cls-10, .cls-11, .cls-12, .cls-13, .cls-14, .cls-15 {
        stroke-miterlimit: 10;
      }

      .cls-1, .cls-3, .cls-11, .cls-12, .cls-13, .cls-14, .cls-15 {
        fill: none;
      }

      .cls-3, .cls-4 {
        mix-blend-mode: color-dodge;
        stroke: #db626f;
        stroke-width: 6.07169px;
      }

      .cls-16, .cls-9 {
        fill: #f05b29;
      }

      .cls-17 {
        fill: #fff;
      }

      .cls-18 {
        fill: #db626f;
      }

      .cls-19, .cls-6 {
        fill: #e4313d;
      }

      .cls-20, .cls-4, .cls-5, .cls-10, .cls-21 {
        fill: #d91a5c;
      }

      .cls-22, .cls-8 {
        fill: #29a8e0;
      }

      .cls-23, .cls-7 {
        fill: #2bb673;
      }

      .cls-5, .cls-6, .cls-7, .cls-8, .cls-9, .cls-10, .cls-11, .cls-12, .cls-13, .cls-14, .cls-15 {
        stroke-width: 2.0239px;
      }

      .cls-5, .cls-6, .cls-11 {
        stroke: #e4313d;
      }

      .cls-7, .cls-13 {
        stroke: #2bb673;
      }

      .cls-8, .cls-12 {
        stroke: #29a8e0;
      }

      .cls-9, .cls-14 {
        stroke: #f05b29;
      }

      .cls-24 {
        mix-blend-mode: multiply;
      }

      .cls-25 {
        clip-path: url(#clippath-1);
      }

      .cls-26 {
        clip-path: url(#clippath-4);
      }

      .cls-27 {
        clip-path: url(#clippath-7);
      }

      .cls-10, .cls-15 {
        mix-blend-mode: screen;
        stroke: #f4b5d0;
      }

      .cls-28 {
        clip-path: url(#clippath-13);
      }

      .cls-29 {
        clip-path: url(#clippath-10);
      }

      .cls-30 {
        clip-path: url(#clippath-16);
      }

      .cls-31 {
        mix-blend-mode: hue;
      }

      .cls-32 {
        mix-blend-mode: soft-light;
      }

      .cls-33 {
        isolation: isolate;
      }

      .cls-21, .cls-34 {
        mix-blend-mode: hard-light;
        opacity: .84;
      }

      .cls-34 {
        fill: #4e0a05;
      }
    </style>
    <clipPath id="clippath-1">
      <rect class="cls-6" x="279.90705" y="43.6573" width="37.17843" height="54.84911" rx="6.2958" ry="6.2958" transform="translate(355.15727 -230.48436) rotate(87.24664)"/>
    </clipPath>
    <clipPath id="clippath-4">
      <rect class="cls-6" x="30.23862" y="40.12639" width="37.17843" height="54.84911" rx="6.2958" ry="6.2958" transform="translate(111.38138 12.46608) rotate(84.49327)"/>
    </clipPath>
    <clipPath id="clippath-7">
      <rect class="cls-5" x="173.54373" y=".95453" width="37.17843" height="54.84911" rx="6.2958" ry="6.2958" transform="translate(230.42718 -162.02573) rotate(92.96948)"/>
    </clipPath>
    <clipPath id="clippath-10">
      <rect class="cls-6" x="377.07213" y="8.65845" width="37.17843" height="54.84911" rx="6.2958" ry="6.2958" transform="translate(541.42781 -333.5141) rotate(106.31315)"/>
    </clipPath>
    <clipPath id="clippath-13">
      <rect class="cls-5" x="521.22422" y="22.23484" width="37.17843" height="54.84911" rx="6.2958" ry="6.2958" transform="translate(404.11296 -475.17389) rotate(70.24708)"/>
    </clipPath>
    <clipPath id="clippath-16">
      <rect class="cls-6" x="659.73695" y="25.53146" width="37.17843" height="54.84911" rx="6.2958" ry="6.2958" transform="translate(811.80154 -614.21341) rotate(96.84941)"/>
    </clipPath>
  </defs>
  <g class="cls-33">
    <g id="Layer_2" data-name="Layer 2">
      <g id="candy_groups" data-name="candy groups">
        <g>
          <g>
            <g>
              <path class="cls-2" d="m263.32087,77.77755c.13763-.11753.27406-.21704.4117-.33132-6.04979.76533-11.09054.01773-11.32498-1.71599-.2389-1.7665,4.59489-3.87837,10.79649-4.71702.67374-.09103,1.32899-.15509,1.97437-.20947-.54788-.16897-1.09715-.33913-1.65994-.54032-5.89263-2.10715-10.18293-5.17612-9.58268-6.85458.60011-1.67855,5.8637-1.33097,11.75633.77619,5.89263,2.10715,10.18293,5.17612,9.58268,6.85458-.13247.37031-.52447.62534-1.06757.80134.35399.25218.61456.52884.65833.85256.05569.41186-.18802.84261-.63694,1.27164-.23695,1.93038-2.84843,5.42165-6.71779,8.72322-4.76069,4.06187-9.5579,6.25532-10.71501,4.8992-1.15697-1.35604,1.76432-5.74817,6.52501-9.81004Z"/>
              <path class="cls-2" d="m332.89144,65.78017c-.15373.09551-.30357.17339-.45681.26568,6.0961.15257,10.96724,1.64924,10.93846,3.3985-.0293,1.78234-5.12557,3.14376-11.38278,3.04086-.67977-.01126-1.33721-.04641-1.98343-.08964.51626.24939,1.03372.50017,1.55988.78366,5.50902,2.96881,9.28937,6.6477,8.44368,8.21689-.84556,1.56929-5.99713.43461-11.50615-2.53421-5.50902-2.96881-9.28937-6.6477-8.44368-8.21689.18662-.34619.61249-.53942,1.17588-.6318-.31207-.30251-.5281-.6152-.52273-.94182.00684-.41555.31251-.80478.82082-1.16147.52437-1.87284,3.63089-4.93198,7.95249-7.61454,5.31707-3.30026,10.38944-4.74784,11.3296-3.23322.94004,1.51451-2.60816,5.41773-7.92523,8.71799Z"/>
              <g>
                <rect x="279.90705" y="43.6573" width="37.17843" height="54.84911" rx="6.2958" ry="6.2958" transform="translate(355.15727 -230.48436) rotate(87.24664)"/>
                <rect class="cls-1" x="279.90705" y="43.6573" width="37.17843" height="54.84911" rx="6.2958" ry="6.2958" transform="translate(355.15727 -230.48436) rotate(87.24664)"/>
              </g>
            </g>
            <g>
              <g>
                <g>
                  <path class="cls-6" d="m263.32087,77.77755c.13763-.11753.27406-.21704.4117-.33132-6.04979.76533-11.09054.01773-11.32498-1.71599-.2389-1.7665,4.59489-3.87837,10.79649-4.71702.67374-.09103,1.32899-.15509,1.97437-.20947-.54788-.16897-1.09715-.33913-1.65994-.54032-5.89263-2.10715-10.18293-5.17612-9.58268-6.85458.60011-1.67855,5.8637-1.33097,11.75633.77619,5.89263,2.10715,10.18293,5.17612,9.58268,6.85458-.13247.37031-.52447.62534-1.06757.80134.35399.25218.61456.52884.65833.85256.05569.41186-.18802.84261-.63694,1.27164-.23695,1.93038-2.84843,5.42165-6.71779,8.72322-4.76069,4.06187-9.5579,6.25532-10.71501,4.8992-1.15697-1.35604,1.76432-5.74817,6.52501-9.81004Z"/>
                  <path class="cls-34" d="m265.36718,77.86946c-.56606-.75818.90664-2.81486,3.28942-4.59376.28835-.21535.57662-.41528.86185-.60153-.33383-.1657-.67279-.34644-1.01458-.54679-2.56532-1.50371-4.25702-3.38438-3.77861-4.20054.47849-.81631,2.94592-.25902,5.51124,1.24469,1.09244.64035,2.01024,1.34637,2.68568,2.0121.50248-.06501.89045-.00143,1.07346.24371.17889.23947.13439.618-.0581,1.06693.16505.3507.2077.65582.0775.87795-.13712.23392-.45138.343-.87072.36127-.59704.73384-1.42801,1.53352-2.43809,2.28761-2.38264,1.77897-4.77312,2.60646-5.33904,1.84835Z"/>
                </g>
                <g>
                  <path class="cls-6" d="m332.89144,65.78017c-.15373.09551-.30357.17339-.45681.26568,6.0961.15257,10.96724,1.64924,10.93846,3.3985-.0293,1.78234-5.12557,3.14376-11.38278,3.04086-.67977-.01126-1.33721-.04641-1.98343-.08964.51626.24939,1.03372.50017,1.55988.78366,5.50902,2.96881,9.28937,6.6477,8.44368,8.21689-.84556,1.56929-5.99713.43461-11.50615-2.53421-5.50902-2.96881-9.28937-6.6477-8.44368-8.21689.18662-.34619.61249-.53942,1.17588-.6318-.31207-.30251-.5281-.6152-.52273-.94182.00684-.41555.31251-.80478.82082-1.16147.52437-1.87284,3.63089-4.93198,7.95249-7.61454,5.31707-3.30026,10.38944-4.74784,11.3296-3.23322.94004,1.51451-2.60816,5.41773-7.92523,8.71799Z"/>
                  <path class="cls-34" d="m332.33541,75.08886c.56184-.76131-.92224-2.80979-3.31486-4.57543-.28954-.21375-.57892-.41207-.86517-.59674.33291-.16755.67086-.35017,1.01153-.55241,2.55693-1.51792,4.23818-3.40794,3.75525-4.22144-.48302-.81364-2.94732-.24267-5.50425,1.27525-1.08887.6464-2.00274,1.35751-2.67447,2.02697-.50284-.06222-.89044.00351-1.07209.24966-.17756.24046-.13096.61874.06402,1.06659-.1631.35162-.20406.65696-.07262.87836.13841.23316.45328.34049.87271.35644.6011.73051,1.4365,1.52558,2.45075,2.27404,2.39247,1.76573,4.78751,2.57993,5.34921,1.8187Z"/>
                </g>
                <g>
                  <rect class="cls-19" x="279.90705" y="43.6573" width="37.17843" height="54.84911" rx="6.2958" ry="6.2958" transform="translate(355.15727 -230.48436) rotate(87.24664)"/>
                  <g class="cls-25">
                    <path class="cls-3" d="m303.76807,46.82333c6.19718,12.52566,16.42217,23.01936,28.7829,29.5393"/>
                    <path class="cls-3" d="m289.73653,50.3013c7.10457,17.50276,21.46052,31.93066,38.92755,39.12262"/>
                    <path class="cls-3" d="m272.60529,51.53203c6.93796,18.08182,21.40967,33.13657,39.20351,40.78295"/>
                    <path class="cls-3" d="m266.99497,69.62836c6.34216,12.23582,17.01808,22.16918,29.6786,27.61433"/>
                    <path class="cls-15" d="m309.88848,49.18506l-.49714-1.2582c6.40285,10.27936,15.04231,19.15755,25.14336,25.83814"/>
                    <path class="cls-15" d="m293.52033,50.25723c6.87652,15.41276,19.37068,28.24494,34.59443,35.53034"/>
                    <path class="cls-15" d="m277.17938,52.03177c8.06133,15.94547,21.00506,29.38085,36.63906,38.03076"/>
                    <path class="cls-15" d="m266.88281,61.45313c7.35462,12.76068,17.80862,23.72043,30.20787,31.66927"/>
                    <path class="cls-15" d="m267.4351,77.63306c6.72851,9.52654,16.08552,17.1765,26.75927,21.87745"/>
                    <g class="cls-32">
                      <path class="cls-17" d="m303.17803,42.07055c-16.90193,4.32631-31.73393,15.6811-40.73303,30.5781-2.55482,4.22923-4.60065,8.79299-6.14321,13.4847-.82721,2.51597.95921,5.63764,3.53392,6.22408,2.78344.63398,5.3384-.84011,6.22408-3.53392.30509-.92793.6281-1.84932.97691-2.76178.12992-.33986.55586-1.00053.54019-1.36039.00073.01666-.38693.89146-.15503.36582.12303-.27887.24269-.55921.36753-.83731.79867-1.77922,1.68429-3.51954,2.65245-5.21252.96846-1.6935,2.01746-3.3408,3.14161-4.9352.28114-.39875.56689-.7943.85737-1.1863.13422-.18113.27977-.41855.43907-.58564-.75204.78881-.29482.37398-.11978.15515.64821-.81037,1.30262-1.61406,1.98363-2.3973,2.56333-2.94813,5.39789-5.65983,8.45604-8.09082.99554-.79138-.44881.32322.27884-.21762.39184-.29124.783-.58311,1.17969-.86777.84263-.60466,1.69991-1.18877,2.57119-1.75136,1.6392-1.05844,3.3276-2.04039,5.05916-2.93987.97359-.50574,1.96062-.98533,2.96011-1.43772.22209-.10052.44477-.19969.66806-.29752.6041-.26465.48828-.2796-.03112.00879.46507-.25822,1.03284-.41746,1.52965-.60667,2.1105-.80379,4.26526-1.47898,6.45284-2.03893,2.56458-.65644,4.36484-3.65646,3.53392-6.22408-.85684-2.64773-3.47585-4.23738-6.22408-3.53392h0Z"/>
                    </g>
                    <g class="cls-24">
                      <path class="cls-18" d="m325.04348,66.27675c-.90425,1.66195-1.92504,3.23744-3.03274,4.7702-.05503.07615-.46183.62088-.09126.13022.3969-.52552-.12772.1574-.22679.28022-.25314.31384-.51054.62415-.77199.9311-.65469.76862-1.33425,1.51612-2.03596,2.24207-1.31678,1.36229-2.70843,2.65133-4.15476,3.87489-.31126.26332-.6252.52353-.94132.781-.21099.17185-.42426.34079-.63619.51148-.07001.05639-.60865.48283-.13147.1078.47696-.37485-.06381.04831-.1361.10248-.21819.16351-.43557.32795-.65472.49021-.38365.28405-.77016.56424-1.15892.84125-6.73436,4.79866-14.15231,8.49588-21.3962,12.44144-4.23989,2.30935-8.42584,4.71943-12.40334,7.46147-2.17475,1.49924-3.37224,4.50758-1.81519,6.92268,1.3944,2.16282,4.59216,3.42182,6.92268,1.81519,14.02051-9.66554,30.69497-15.27267,42.95059-27.47378,3.29733-3.28266,6.22563-7.03134,8.45154-11.12242,1.26466-2.32438.65095-5.61971-1.81519-6.92268-2.36339-1.24869-5.57182-.66762-6.92268,1.81519h0Z"/>
                    </g>
                  </g>
                  <rect class="cls-11" x="279.90705" y="43.6573" width="37.17843" height="54.84911" rx="6.2958" ry="6.2958" transform="translate(355.15727 -230.48436) rotate(87.24664)"/>
                </g>
              </g>
              <g class="cls-31">
                <path class="cls-8" d="m263.32087,77.77755c.13763-.11753.27406-.21704.4117-.33132-6.04979.76533-11.09054.01773-11.32498-1.71599-.2389-1.7665,4.59489-3.87837,10.79649-4.71702.67374-.09103,1.32899-.15509,1.97437-.20947-.54788-.16897-1.09715-.33913-1.65994-.54032-5.89263-2.10715-10.18293-5.17612-9.58268-6.85458.60011-1.67855,5.8637-1.33097,11.75633.77619,5.89263,2.10715,10.18293,5.17612,9.58268,6.85458-.13247.37031-.52447.62534-1.06757.80134.35399.25218.61456.52884.65833.85256.05569.41186-.18802.84261-.63694,1.27164-.23695,1.93038-2.84843,5.42165-6.71779,8.72322-4.76069,4.06187-9.5579,6.25532-10.71501,4.8992-1.15697-1.35604,1.76432-5.74817,6.52501-9.81004Z"/>
                <path class="cls-8" d="m332.89144,65.78017c-.15373.09551-.30357.17339-.45681.26568,6.0961.15257,10.96724,1.64924,10.93846,3.3985-.0293,1.78234-5.12557,3.14376-11.38278,3.04086-.67977-.01126-1.33721-.04641-1.98343-.08964.51626.24939,1.03372.50017,1.55988.78366,5.50902,2.96881,9.28937,6.6477,8.44368,8.21689-.84556,1.56929-5.99713.43461-11.50615-2.53421-5.50902-2.96881-9.28937-6.6477-8.44368-8.21689.18662-.34619.61249-.53942,1.17588-.6318-.31207-.30251-.5281-.6152-.52273-.94182.00684-.41555.31251-.80478.82082-1.16147.52437-1.87284,3.63089-4.93198,7.95249-7.61454,5.31707-3.30026,10.38944-4.74784,11.3296-3.23322.94004,1.51451-2.60816,5.41773-7.92523,8.71799Z"/>
                <g>
                  <rect class="cls-22" x="279.90705" y="43.6573" width="37.17843" height="54.84911" rx="6.2958" ry="6.2958" transform="translate(355.15727 -230.48436) rotate(87.24664)"/>
                  <rect class="cls-12" x="279.90705" y="43.6573" width="37.17843" height="54.84911" rx="6.2958" ry="6.2958" transform="translate(355.15727 -230.48436) rotate(87.24664)"/>
                </g>
              </g>
            </g>
          </g>
          <g>
            <g>
              <path class="cls-2" d="m14.01469,75.92862c.13183-.124.26332-.22996.3953-.35071-6.00604,1.05506-11.07689.55047-11.39433-1.16999-.32348-1.75299,4.40328-4.09461,10.55744-5.2302.66859-.12329,1.32001-.21875,1.96203-.30407-.55536-.14245-1.11218-.28604-1.68398-.45996-5.98705-1.82166-10.41982-4.68099-9.90088-6.38635.51879-1.70544,5.79299-1.6111,11.78004.21056,5.98705,1.82166,10.41982,4.68099,9.90088,6.38635-.11453.37624-.49382.64981-1.02785.8517.36569.23488.63926.49871.69853.81996.07541.40871-.14732.85066-.57512,1.30077-.14395,1.93953-2.5847,5.55222-6.291,9.03585-4.56007,4.28587-9.24638,6.70723-10.4673,5.40826-1.22078-1.29889,1.48616-5.82629,6.04623-10.11216Z"/>
              <path class="cls-2" d="m82.92863,60.60314c-.14896.10278-.29489.18777-.44352.28732,6.09639-.14044,11.03381,1.12051,11.08909,2.86913.05635,1.78169-4.96864,3.38635-11.22356,3.58414-.67952.02141-1.33789.01788-1.98545.00574.52765.2243,1.05656.44994,1.59573.70782,5.64528,2.70075,9.59798,6.1938,8.82864,7.8018-.7692,1.6081-5.96933.72219-11.6146-1.97856s-9.59798-6.1938-8.82864-7.8018c.16978-.35476.58587-.56822,1.14417-.68756-.32624-.28717-.55705-.58912-.56736-.91562-.01313-.4154.27349-.81886.76407-1.19956.4338-1.89587,3.38978-5.10071,7.57753-7.98776,5.1524-3.55187,10.14938-5.24143,11.16121-3.77373,1.0117,1.46761-2.3449,5.53676-7.4973,9.08863Z"/>
              <g>
                <rect x="30.23862" y="40.12639" width="37.17843" height="54.84911" rx="6.2958" ry="6.2958" transform="translate(111.38138 12.46608) rotate(84.49327)"/>
                <rect class="cls-1" x="30.23862" y="40.12639" width="37.17843" height="54.84911" rx="6.2958" ry="6.2958" transform="translate(111.38138 12.46608) rotate(84.49327)"/>
              </g>
            </g>
            <g>
              <g>
                <g>
                  <path class="cls-6" d="m14.01469,75.92862c.13183-.124.26332-.22996.3953-.35071-6.00604,1.05506-11.07689.55047-11.39433-1.16999-.32348-1.75299,4.40328-4.09461,10.55744-5.2302.66859-.12329,1.32001-.21875,1.96203-.30407-.55536-.14245-1.11218-.28604-1.68398-.45996-5.98705-1.82166-10.41982-4.68099-9.90088-6.38635.51879-1.70544,5.79299-1.6111,11.78004.21056,5.98705,1.82166,10.41982,4.68099,9.90088,6.38635-.11453.37624-.49382.64981-1.02785.8517.36569.23488.63926.49871.69853.81996.07541.40871-.14732.85066-.57512,1.30077-.14395,1.93953-2.5847,5.55222-6.291,9.03585-4.56007,4.28587-9.24638,6.70723-10.4673,5.40826-1.22078-1.29889,1.48616-5.82629,6.04623-10.11216Z"/>
                  <path class="cls-34" d="m16.06306,75.92213c-.60182-.73012.77037-2.85517,3.06495-4.74647.27767-.22896.55601-.4425.83196-.64223-.34141-.14948-.68866-.31372-1.03967-.49742-2.63459-1.37874-4.41468-3.17597-3.97603-4.01418.43873-.83835,2.93008-.40023,5.56467.97851,1.12194.58714,2.0726,1.24825,2.77923,1.88076.49878-.08907.88935-.0442,1.08393.19187.19018.2306.16392.61084-.00678,1.06849.18171.34237.23896.64509.11958.87321-.12572.24024-.43439.36429-.85236.40268-.5611.76167-1.3527,1.60035-2.32539,2.40208-2.29443,1.89137-4.64241,2.83273-5.24408,2.10269Z"/>
                </g>
                <g>
                  <path class="cls-6" d="m82.92863,60.60314c-.14896.10278-.29489.18777-.44352.28732,6.09639-.14044,11.03381,1.12051,11.08909,2.86913.05635,1.78169-4.96864,3.38635-11.22356,3.58414-.67952.02141-1.33789.01788-1.98545.00574.52765.2243,1.05656.44994,1.59573.70782,5.64528,2.70075,9.59798,6.1938,8.82864,7.8018-.7692,1.6081-5.96933.72219-11.6146-1.97856s-9.59798-6.1938-8.82864-7.8018c.16978-.35476.58587-.56822,1.14417-.68756-.32624-.28717-.55705-.58912-.56736-.91562-.01313-.4154.27349-.81886.76407-1.19956.4338-1.89587,3.38978-5.10071,7.57753-7.98776,5.1524-3.55187,10.14938-5.24143,11.16121-3.77373,1.0117,1.46761-2.3449,5.53676-7.4973,9.08863Z"/>
                  <path class="cls-34" d="m82.8204,69.9278c.52462-.78742-1.05615-2.76225-3.53082-4.41092-.29947-.19959-.59804-.38379-.89284-.55449.32447-.18335.65326-.38199.98382-.60036,2.48107-1.63899,4.06958-3.6076,3.54813-4.39696-.52154-.7895-2.95557-.10081-5.43664,1.53819-1.05656.69796-1.93522,1.45214-2.57401,2.1531-.50525-.03799-.88925.04628-1.05886.30088-.1658.24871-.10109.62432.11518,1.06228-.14602.35904-.17226.66601-.03035.88084.14945.22624.46911.31832.88882.3141.6355.7008,1.50812,1.45481,2.55716,2.15369,2.47453,1.64876,4.90592,2.34698,5.4304,1.55964Z"/>
                </g>
                <g>
                  <rect class="cls-19" x="30.23862" y="40.12639" width="37.17843" height="54.84911" rx="6.2958" ry="6.2958" transform="translate(111.38138 12.46608) rotate(84.49327)"/>
                  <g class="cls-26">
                    <path class="cls-3" d="m52.92825,43.06718c6.79171,12.21351,17.50899,22.20392,30.16864,28.12256"/>
                    <path class="cls-3" d="m39.07998,47.21517c7.93714,17.14127,22.9696,30.8629,40.76194,37.2075"/>
                    <path class="cls-3" d="m22.02764,49.26741c7.79855,17.72767,22.97673,32.06987,41.11733,38.85266"/>
                    <path class="cls-3" d="m17.29308,67.61235c6.92261,11.91704,18.06337,21.32609,30.97084,26.15678"/>
                    <path class="cls-15" d="m59.15505,45.13218l-.55701-1.23287c6.88924,9.95992,15.94521,18.41285,26.35552,24.60051"/>
                    <path class="cls-15" d="m42.8573,46.98939c7.60896,15.06464,20.70512,27.28183,36.26126,33.82752"/>
                    <path class="cls-15" d="m26.62046,49.54684c8.818,15.53982,22.39217,28.33791,38.42364,36.22683"/>
                    <path class="cls-15" d="m16.78834,59.45194c7.95911,12.39266,18.92751,22.83757,31.69428,30.18162"/>
                    <path class="cls-15" d="m18.11722,75.58666c7.17837,9.19233,16.89205,16.38398,27.7793,20.56677"/>
                    <g class="cls-32">
                      <path class="cls-17" d="m52.34341,38.27799c-16.66009,5.12877-31.04704,17.02227-39.33232,32.35691-2.34697,4.34385-4.23193,8.9819-5.547,13.74113-.70436,2.54905.87131,5.61762,3.53392,6.22408,2.6762.60955,5.46965-.80365,6.22408-3.53392.52013-1.88235,1.12386-3.73966,1.8259-5.56228.17169-.44574.31706-.93773.54235-1.35863-.63903,1.19385.09281-.19924.21452-.46994.39984-.8893.82169-1.76891,1.26451-2.63761.88599-1.73806,1.85465-3.43385,2.90091-5.08042.52337-.82367,1.0661-1.6351,1.62731-2.43345.28068-.39929.56611-.79525.85588-1.18799.14491-.19641.29219-.391.43825-.58656.56829-.76083-.40201.49403-.00775.00993,2.4747-3.03859,5.10698-5.90137,8.05762-8.48768.68838-.60338,1.38947-1.19232,2.10341-1.76526.18083-.14512.3761-.3269.57358-.4551-.93495.60697-.36875.28023-.15396.1211.44122-.32689.88006-.65635,1.32658-.97607,1.58647-1.13596,3.22574-2.19788,4.91209-3.17951,1.89628-1.10382,3.85165-2.10584,5.85682-2.99677.22282-.099.44707-.1947.67024-.29286.57963-.25496-.92216.36248-.02714.01728.51215-.19753,1.02047-.40377,1.53511-.59504,1.08732-.40412,2.18666-.77206,3.29523-1.11333,2.52644-.77776,4.39296-3.56957,3.53392-6.22408-.82358-2.54494-3.51495-4.36792-6.22408-3.53392h0Z"/>
                    </g>
                    <g class="cls-24">
                      <path class="cls-18" d="m75.23121,61.26332c-.82149,1.69958-1.75173,3.34011-2.80009,4.91038-.48533.72695-1.00066,1.43055-1.52034,2.13292-.43863.59281.52642-.63053.04746-.06938-.13081.15326-.25307.31489-.38096.47066-.34193.41646-.69084.82729-1.04629,1.23226-2.46329,2.80652-5.22662,5.33841-8.14617,7.66212-.12084.09618-.80443.63861-.29299.23589.47582-.37468-.06494.04961-.13661.10374-.38095.28775-.76253.57451-1.14715.85737-.76805.56486-1.5448,1.11781-2.32878,1.66033-1.68604,1.16675-3.40605,2.28369-5.14215,3.37431-3.63923,2.28618-7.35217,4.45162-11.02299,6.68609-4.12406,2.51036-8.18941,5.11873-12.0306,8.04867-1.09387.83437-1.9445,1.64121-2.32525,3.02386-.33353,1.21115-.18294,2.82392.51006,3.89883,1.33613,2.07244,4.67178,3.53211,6.92268,1.81519,13.51978-10.31244,29.98623-16.70444,41.62044-29.457,3.14229-3.44435,5.9253-7.27412,7.9576-11.47874,1.14996-2.37915.72989-5.57801-1.81519-6.92268-2.26629-1.19738-5.69301-.7289-6.92268,1.81519h0Z"/>
                    </g>
                  </g>
                  <rect class="cls-11" x="30.23862" y="40.12639" width="37.17843" height="54.84911" rx="6.2958" ry="6.2958" transform="translate(111.38138 12.46608) rotate(84.49327)"/>
                </g>
              </g>
              <g class="cls-31">
                <path class="cls-7" d="m14.01469,75.92862c.13183-.124.26332-.22996.3953-.35071-6.00604,1.05506-11.07689.55047-11.39433-1.16999-.32348-1.75299,4.40328-4.09461,10.55744-5.2302.66859-.12329,1.32001-.21875,1.96203-.30407-.55536-.14245-1.11218-.28604-1.68398-.45996-5.98705-1.82166-10.41982-4.68099-9.90088-6.38635.51879-1.70544,5.79299-1.6111,11.78004.21056,5.98705,1.82166,10.41982,4.68099,9.90088,6.38635-.11453.37624-.49382.64981-1.02785.8517.36569.23488.63926.49871.69853.81996.07541.40871-.14732.85066-.57512,1.30077-.14395,1.93953-2.5847,5.55222-6.291,9.03585-4.56007,4.28587-9.24638,6.70723-10.4673,5.40826-1.22078-1.29889,1.48616-5.82629,6.04623-10.11216Z"/>
                <path class="cls-7" d="m82.92863,60.60314c-.14896.10278-.29489.18777-.44352.28732,6.09639-.14044,11.03381,1.12051,11.08909,2.86913.05635,1.78169-4.96864,3.38635-11.22356,3.58414-.67952.02141-1.33789.01788-1.98545.00574.52765.2243,1.05656.44994,1.59573.70782,5.64528,2.70075,9.59798,6.1938,8.82864,7.8018-.7692,1.6081-5.96933.72219-11.6146-1.97856-5.64528-2.70075-9.59798-6.1938-8.82864-7.8018.16978-.35476.58587-.56822,1.14417-.68756-.32624-.28717-.55705-.58912-.56736-.91562-.01313-.4154.27349-.81886.76407-1.19956.4338-1.89587,3.38978-5.10071,7.57753-7.98776,5.1524-3.55187,10.14938-5.24143,11.16121-3.77373,1.0117,1.46761-2.3449,5.53676-7.4973,9.08863Z"/>
                <g>
                  <rect class="cls-23" x="30.23862" y="40.12639" width="37.17843" height="54.84911" rx="6.2958" ry="6.2958" transform="translate(111.38138 12.46608) rotate(84.49327)"/>
                  <rect class="cls-13" x="30.23862" y="40.12639" width="37.17843" height="54.84911" rx="6.2958" ry="6.2958" transform="translate(111.38138 12.46608) rotate(84.49327)"/>
                </g>
              </g>
            </g>
          </g>
          <g>
            <g>
              <path class="cls-2" d="m156.4652,31.53385c.14866-.10322.29434-.18863.44268-.28862-6.09595.15826-11.03703-1.08826-11.09742-2.83672-.06156-1.78152,4.95872-3.40085,11.21304-3.61692.67946-.02339,1.33783-.02179,1.98542-.01154-.5283-.22276-1.05787-.44685-1.59779-.70315-5.65314-2.68424-9.61603-6.16572-8.8514-7.77597.7645-1.61034,5.96719-.73963,11.62033,1.94462,5.65314,2.68424,9.61603,6.16572,8.8514,7.77597-.16874.35525-.58421.56993-1.14216.6909.32707.28622.55877.58749.57004.91396.01434.41536-.2711.81966-.76057,1.20179-.42826,1.89713-3.37486,5.11059-7.55416,8.00987-5.142,3.56691-10.13402,5.27106-11.15014,3.80632-1.01599-1.46465,2.32871-5.54359,7.47071-9.1105Z"/>
              <path class="cls-2" d="m226.88535,26.53359c-.16249.0797-.31934.14226-.48103.21881,6.0505.75969,10.74812,2.73464,10.54505,4.47231-.20688,1.77054-5.41351,2.61699-11.62927,1.89065-.67526-.07899-1.32591-.17952-1.96461-.28697.48882.29962.9787.60076,1.47396.9353,5.18553,3.50336,8.58018,7.54087,7.58223,9.01791-.99783,1.47716-6.01057-.16557-11.1961-3.66893-5.18553-3.50336-8.58018-7.54087-7.58223-9.01791.22021-.32586.66323-.47565,1.23302-.5114-.28034-.33212-.46413-.66479-.42621-.98925.04824-.4128.39121-.76961.93254-1.07383.70851-1.81122,4.10459-4.54534,8.67215-6.78359,5.61966-2.75361,10.8111-3.68817,11.59554-2.08736.78433,1.6007-3.1354,5.13065-8.75506,7.88426Z"/>
              <g>
                <rect x="173.54373" y=".95453" width="37.17843" height="54.84911" rx="6.2958" ry="6.2958" transform="translate(230.42718 -162.02573) rotate(92.96948)"/>
                <rect class="cls-1" x="173.54373" y=".95453" width="37.17843" height="54.84911" rx="6.2958" ry="6.2958" transform="translate(230.42718 -162.02573) rotate(92.96948)"/>
              </g>
            </g>
            <g>
              <g>
                <g>
                  <path class="cls-5" d="m156.4652,31.53385c.14866-.10322.29434-.18863.44268-.28862-6.09595.15826-11.03703-1.08826-11.09742-2.83672-.06156-1.78152,4.95872-3.40085,11.21304-3.61692.67946-.02339,1.33783-.02179,1.98542-.01154-.5283-.22276-1.05787-.44685-1.59779-.70315-5.65314-2.68424-9.61603-6.16572-8.8514-7.77597.7645-1.61034,5.96719-.73963,11.62033,1.94462,5.65314,2.68424,9.61603,6.16572,8.8514,7.77597-.16874.35525-.58421.56993-1.14216.6909.32707.28622.55877.58749.57004.91396.01434.41536-.2711.81966-.76057,1.20179-.42826,1.89713-3.37486,5.11059-7.55416,8.00987-5.142,3.56691-10.13402,5.27106-11.15014,3.80632-1.01599-1.46465,2.32871-5.54359,7.47071-9.1105Z"/>
                  <path class="cls-21" d="m158.49214,31.82934c-.48763-.81085,1.18281-2.71043,3.7311-4.24285.30838-.18553.61516-.35571.91753-.51259-.31564-.19817-.63489-.4118-.955-.64523-2.40259-1.75202-3.89833-3.792-3.34092-4.5564.55751-.76453,2.95707.03603,5.35966,1.78805,1.02314.7461,1.86597,1.54012,2.47165,2.26987.50646-.01458.88615.08737,1.04381.34954.15412.25612.0721.62833-.1642,1.05582.12926.36542.14127.67326-.01044.8813-.15976.21908-.48334.29628-.9024.27265-.66724.67065-1.57381,1.38348-2.65405,2.03309-2.54816,1.53252-5.00924,2.11751-5.49674,1.30675Z"/>
                </g>
                <g>
                  <path class="cls-5" d="m226.88535,26.53359c-.16249.0797-.31934.14226-.48103.21881,6.0505.75969,10.74812,2.73464,10.54505,4.47231-.20688,1.77054-5.41351,2.61699-11.62927,1.89065-.67526-.07899-1.32591-.17952-1.96461-.28697.48882.29962.9787.60076,1.47396.9353,5.18553,3.50336,8.58018,7.54087,7.58223,9.01791-.99783,1.47716-6.01057-.16557-11.1961-3.66893-5.18553-3.50336-8.58018-7.54087-7.58223-9.01791.22021-.32586.66323-.47565,1.23302-.5114-.28034-.33212-.46413-.66479-.42621-.98925.04824-.4128.39121-.76961.93254-1.07383.70851-1.81122,4.10459-4.54534,8.67215-6.78359,5.61966-2.75361,10.8111-3.68817,11.59554-2.08736.78433,1.6007-3.1354,5.13065-8.75506,7.88426Z"/>
                  <path class="cls-21" d="m225.40386,35.74044c.63496-.70149-.63746-2.88775-2.84209-4.88317-.26678-.24156-.53494-.46775-.80135-.68003.34796-.13352.70243-.28153,1.06157-.44879,2.69555-1.25539,4.55689-2.96834,4.15748-3.82594-.39948-.85775-2.90843-.53535-5.60398.72003-1.1479.5346-2.12812,1.15103-2.86326,1.75018-.49413-.11205-.88635-.0853-1.09165.14152-.20065.22156-.19201.6026-.04265,1.06766-.19735.3336-.26855.63334-.15985.86674.11447.2458.41707.38399.83282.44169.52526.78681,1.27721,1.66122,2.21177,2.50709,2.20448,1.99549,4.50639,3.04447,5.14119,2.34304Z"/>
                </g>
                <g>
                  <rect class="cls-20" x="173.54373" y=".95453" width="37.17843" height="54.84911" rx="6.2958" ry="6.2958" transform="translate(230.42718 -162.02573) rotate(92.96948)"/>
                  <g class="cls-27">
                    <path class="cls-4" d="m199.79744,4.76716c4.91727,13.08119,14.04491,24.54219,25.69389,32.2622"/>
                    <path class="cls-4" d="m185.48903,6.82862c5.32384,18.12397,18.16955,33.91148,34.83237,42.80935"/>
                    <path class="cls-4" d="m168.32045,6.34494c5.10033,18.68353,17.9987,35.10631,34.94138,44.48892"/>
                    <path class="cls-4" d="m160.93359,23.79164c5.09044,12.80726,14.72262,23.75567,26.77707,30.43614"/>
                    <path class="cls-10" d="m205.65185,7.72742l-.3692-1.30151c5.34591,10.86659,13.05701,20.56204,22.44156,28.21657"/>
                    <path class="cls-10" d="m189.25836,7.16207c5.30534,16.02164,16.45765,30.03574,30.87905,38.80289"/>
                    <path class="cls-10" d="m172.82191,7.2983c6.43113,16.66984,17.97061,31.32896,32.66415,41.49473"/>
                    <path class="cls-10" d="m161.63719,15.64597c6.04551,13.43046,15.35454,25.37801,26.89936,34.52365"/>
                    <path class="cls-10" d="m160.57332,31.80033c5.74503,10.15001,14.29257,18.69489,24.44436,24.43675"/>
                    <g class="cls-32">
                      <path class="cls-20" d="m200.53614,4.96804c-20.42024,3.03385-38.85691,17.10729-47.16769,36.00494"/>
                      <path class="cls-17" d="m199.19106.08904c-17.22869,2.61693-32.70516,12.61974-43.1532,26.40004-2.7992,3.69196-5.15959,7.6955-7.03835,11.93016-1.07063,2.41317-.78335,5.54976,1.81519,6.92268,2.20036,1.16255,5.7767.76782,6.92268-1.81519,1.60283-3.61273,3.55273-7.06102,5.83554-10.2882.28495-.40283.57473-.80228.86917-1.19823.05535-.07443.43661-.59606.44543-.59119.00373.00206-.76582.96461-.10969.14733.61824-.7701,1.24406-1.53294,1.89342-2.27717,1.29886-1.48861,2.66857-2.91518,4.10106-4.27563.37671-.35777,4.25961-4.06079,4.48421-3.8767-.00251-.00205-.98227.74017-.14407.11135.19769-.1483.39454-.29757.59314-.44467.34749-.25738.69775-.51101,1.05039-.76129.85635-.60777,1.72759-1.19443,2.61274-1.75944,1.66547-1.0631,3.3812-2.04761,5.13875-2.95033.82346-.42295,1.6566-.82707,2.49812-1.21281.39269-.18001.78783-.35408,1.1833-.52785.92148-.4049-.12456.0975-.18585.0777.11257.03636.91194-.36748,1.03035-.41379,4.14203-1.62007,8.45118-2.77096,12.84781-3.43878,2.62531-.39877,4.30649-3.83676,3.53392-6.22408-.92588-2.86108-3.41062-3.96127-6.22408-3.53392h0Z"/>
                    </g>
                    <g class="cls-24">
                      <path class="cls-20" d="m223.1195,29.2218c-5.82562,8.64968-15.02374,14.44725-24.46958,18.86664-9.44584,4.41939-19.41817,7.7282-28.53789,12.78642"/>
                      <path class="cls-18" d="m218.75056,26.66805c-.26648.39104-.53646.77936-.81542,1.16161-.11928.16345-.24118.32486-.36124.48772.10487-.14225.6384-.79033.04634-.06806-.59675.72799-1.20478,1.44446-1.84395,2.1359-1.27816,1.3827-2.64801,2.68041-4.08495,3.89688-.30895.26155-.62095.51959-.93584.77396-.21027.16986-.42315.33611-.63446.50461.04314-.0344.68238-.50841.21941-.17318-.82443.59695-1.63933,1.20303-2.4821,1.77451-1.52192,1.03201-3.08799,1.99822-4.68434,2.91059-3.43847,1.96521-7.01637,3.66896-10.64207,5.25759-.9136.4003-1.83033.79337-2.74874,1.1825.8787-.3723-.4802.19967-.70194.29215-.56674.23637-1.13392.47166-1.70125.70659-2.11638.87637-4.23346,1.75076-6.3439,2.64138-4.57972,1.93267-9.12104,3.95212-13.47782,6.35313-2.32032,1.27872-3.27014,4.66594-1.81519,6.92268,1.51571,2.35098,4.44052,3.1831,6.92268,1.81519,3.82733-2.10923,7.79728-3.93363,11.81453-5.64853.12316-.05257,1.00922-.4288.45477-.19424-.50665.21434.1953-.08181.24405-.10219.49552-.20722.99112-.41425,1.48711-.62035,1.06313-.44176,2.12744-.88065,3.19117-1.32097,2.24766-.93038,4.49334-1.86635,6.72676-2.83051,7.66175-3.30754,14.98802-7.15483,21.48394-12.44324,3.63723-2.96112,6.77914-6.43245,9.42033-10.30823,1.49443-2.19298.48654-5.70658-1.81519-6.92268-2.56528-1.35536-5.3278-.5252-6.92268,1.81519h0Z"/>
                    </g>
                  </g>
                  <rect class="cls-11" x="173.54373" y=".95453" width="37.17843" height="54.84911" rx="6.2958" ry="6.2958" transform="translate(230.42718 -162.02573) rotate(92.96948)"/>
                </g>
              </g>
              <g class="cls-31">
                <path class="cls-9" d="m156.4652,31.53385c.14866-.10322.29434-.18863.44268-.28862-6.09595.15826-11.03703-1.08826-11.09742-2.83672-.06156-1.78152,4.95872-3.40085,11.21304-3.61692.67946-.02339,1.33783-.02179,1.98542-.01154-.5283-.22276-1.05787-.44685-1.59779-.70315-5.65314-2.68424-9.61603-6.16572-8.8514-7.77597.7645-1.61034,5.96719-.73963,11.62033,1.94462,5.65314,2.68424,9.61603,6.16572,8.8514,7.77597-.16874.35525-.58421.56993-1.14216.6909.32707.28622.55877.58749.57004.91396.01434.41536-.2711.81966-.76057,1.20179-.42826,1.89713-3.37486,5.11059-7.55416,8.00987-5.142,3.56691-10.13402,5.27106-11.15014,3.80632-1.01599-1.46465,2.32871-5.54359,7.47071-9.1105Z"/>
                <path class="cls-9" d="m226.88535,26.53359c-.16249.0797-.31934.14226-.48103.21881,6.0505.75969,10.74812,2.73464,10.54505,4.47231-.20688,1.77054-5.41351,2.61699-11.62927,1.89065-.67526-.07899-1.32591-.17952-1.96461-.28697.48882.29962.9787.60076,1.47396.9353,5.18553,3.50336,8.58018,7.54087,7.58223,9.01791-.99783,1.47716-6.01057-.16557-11.1961-3.66893-5.18553-3.50336-8.58018-7.54087-7.58223-9.01791.22021-.32586.66323-.47565,1.23302-.5114-.28034-.33212-.46413-.66479-.42621-.98925.04824-.4128.39121-.76961.93254-1.07383.70851-1.81122,4.10459-4.54534,8.67215-6.78359,5.61966-2.75361,10.8111-3.68817,11.59554-2.08736.78433,1.6007-3.1354,5.13065-8.75506,7.88426Z"/>
                <g>
                  <rect class="cls-16" x="173.54373" y=".95453" width="37.17843" height="54.84911" rx="6.2958" ry="6.2958" transform="translate(230.42718 -162.02573) rotate(92.96948)"/>
                  <rect class="cls-14" x="173.54373" y=".95453" width="37.17843" height="54.84911" rx="6.2958" ry="6.2958" transform="translate(230.42718 -162.02573) rotate(92.96948)"/>
                </g>
              </g>
            </g>
          </g>
          <g>
            <g>
              <path class="cls-2" d="m360.22842,30.92079c.16847-.06612.32993-.11561.49734-.17866-5.96791-1.25291-10.48791-3.60614-10.14314-5.32133.35126-1.74763,5.60974-2.16461,11.74508-.9314.66651.13405,1.30675.28756,1.93449.44699-.46263-.33867-.92618-.67893-1.39237-1.05293-4.88103-3.91648-7.93344-8.21857-6.81781-9.60887,1.11552-1.39043,5.97679.65752,10.85782,4.57399,4.88103,3.91648,7.93344,8.21857,6.81781,9.60887-.24617.30672-.69997.41971-1.27078.40864.25219.35398.40809.70059.34371,1.02085-.08191.40746-.45295.73496-1.0174.99381-.85454,1.74707-4.46323,4.19373-9.19883,6.05019-5.82639,2.28388-11.07695,2.78992-11.72759,1.13021-.65053-1.65959,3.54526-4.85648,9.37165-7.14037Z"/>
              <path class="cls-2" d="m429.90148,42.30789c-.1765.04005-.34355.06471-.51854.10188,5.71183,2.13559,9.82683,5.14139,9.2282,6.78528-.60992,1.67499-5.87134,1.29695-11.75166-.84433-.6388-.2327-1.24869-.48068-1.84534-.73264.40647.40435.81363.81041,1.21831,1.25022,4.23699,4.60555,6.60818,9.31752,5.29628,10.52437-1.31181,1.20699-5.81009-1.54829-10.04708-6.15384-4.23699-4.60555-6.60818-9.31752-5.29628-10.52437.28947-.26624.7551-.30974,1.31776-.21302-.19613-.38786-.29817-.75396-.18639-1.06091.14221-.39052.55826-.65854,1.1552-.82962,1.1074-1.5988,5.04281-3.47533,10.00362-4.599,6.10345-1.38231,11.37043-1.0935,11.76424.64515.39373,1.7385-4.23486,4.26852-10.33832,5.65082Z"/>
              <g>
                <rect x="377.07213" y="8.65845" width="37.17843" height="54.84911" rx="6.2958" ry="6.2958" transform="translate(541.42781 -333.5141) rotate(106.31315)"/>
                <rect class="cls-1" x="377.07213" y="8.65845" width="37.17843" height="54.84911" rx="6.2958" ry="6.2958" transform="translate(541.42781 -333.5141) rotate(106.31315)"/>
              </g>
            </g>
            <g>
              <g>
                <g>
                  <path class="cls-6" d="m360.22842,30.92079c.16847-.06612.32993-.11561.49734-.17866-5.96791-1.25291-10.48791-3.60614-10.14314-5.32133.35126-1.74763,5.60974-2.16461,11.74508-.9314.66651.13405,1.30675.28756,1.93449.44699-.46263-.33867-.92618-.67893-1.39237-1.05293-4.88103-3.91648-7.93344-8.21857-6.81781-9.60887,1.11552-1.39043,5.97679.65752,10.85782,4.57399,4.88103,3.91648,7.93344,8.21857,6.81781,9.60887-.24617.30672-.69997.41971-1.27078.40864.25219.35398.40809.70059.34371,1.02085-.08191.40746-.45295.73496-1.0174.99381-.85454,1.74707-4.46323,4.19373-9.19883,6.05019-5.82639,2.28388-11.07695,2.78992-11.72759,1.13021-.65053-1.65959,3.54526-4.85648,9.37165-7.14037Z"/>
                  <path class="cls-34" d="m362.13245,31.67611c-.28733-.9015,1.77642-2.36427,4.60958-3.2672.34288-.10935.68065-.20413,1.01106-.28699-.26139-.26566-.52271-.54721-.7803-.84822-1.93337-2.25922-2.91793-4.58933-2.19915-5.20444.7189-.61522,2.86892.71752,4.8023,2.97674.82333.96209,1.46015,1.92919,1.88106,2.77903.49615.1027.84206.28953.93496.58101.09085.28477-.07486.628-.40345.98942.04143.38538-.01793.68769-.21355.8551-.20601.1763-.53867.17673-.94097.05702-.804.49855-1.85062.98291-3.05162,1.36567-2.83306.90305-5.36271.90425-5.64993.00287Z"/>
                </g>
                <g>
                  <path class="cls-6" d="m429.90148,42.30789c-.1765.04005-.34355.06471-.51854.10188,5.71183,2.13559,9.82683,5.14139,9.2282,6.78528-.60992,1.67499-5.87134,1.29695-11.75166-.84433-.6388-.2327-1.24869-.48068-1.84534-.73264.40647.40435.81363.81041,1.21831,1.25022,4.23699,4.60555,6.60818,9.31752,5.29628,10.52437-1.31181,1.20699-5.81009-1.54829-10.04708-6.15384-4.23699-4.60555-6.60818-9.31752-5.29628-10.52437.28947-.26624.7551-.30974,1.31776-.21302-.19613-.38786-.29817-.75396-.18639-1.06091.14221-.39052.55826-.65854,1.1552-.82962,1.1074-1.5988,5.04281-3.47533,10.00362-4.599,6.10345-1.38231,11.37043-1.0935,11.76424.64515.39373,1.7385-4.23486,4.26852-10.33832,5.65082Z"/>
                  <path class="cls-34" d="m426.33512,50.92427c.77971-.53601.04621-2.95691-1.63837-5.40728-.20383-.2966-.41255-.57858-.62277-.84662.36938-.04961.74844-.11181,1.13649-.19167,2.91251-.59938,5.11893-1.83652,4.92824-2.76314-.19073-.92679-2.70635-1.19214-5.61887-.59276-1.24029.25525-2.33632.62881-3.18989,1.04211-.45493-.22307-.84274-.28756-1.09483-.11425-.24637.16927-.3259.54202-.28791,1.02899-.26902.27905-.40747.55426-.35557.80645.05466.26558.31719.46988.7084.62197.32949.8868.85934,1.91114,1.57345,2.94986,1.68442,2.4504,3.68209,4.00231,4.46164,3.46633Z"/>
                </g>
                <g>
                  <rect class="cls-19" x="377.07213" y="8.65845" width="37.17843" height="54.84911" rx="6.2958" ry="6.2958" transform="translate(541.42781 -333.5141) rotate(106.31315)"/>
                  <g class="cls-29">
                    <path class="cls-3" d="m408.56836,14.87742c1.7655,13.86291,8.00162,27.12108,17.5544,37.32115"/>
                    <path class="cls-3" d="m394.17046,13.58097c.99726,18.86338,9.85255,37.18936,24.01197,49.69265"/>
                    <path class="cls-3" d="m377.577,9.14799c.65064,19.35625,9.41056,38.3125,23.73041,51.35204"/>
                    <path class="cls-3" d="m366.36301,24.41886c1.99721,13.63633,8.84256,26.5122,19.02978,35.79438"/>
                    <path class="cls-15" d="m413.58152,19.10892l-.05886-1.35158c2.69367,11.80702,7.95897,23.02037,15.32356,32.63413"/>
                    <path class="cls-15" d="m397.76107,14.77536c1.46445,16.81354,9.08136,33.02316,21.09004,44.88196"/>
                    <path class="cls-15" d="m381.73692,11.11451c2.41025,17.70406,10.25501,34.63064,22.2057,47.91311"/>
                    <path class="cls-15" d="m368.92758,16.65549c2.78267,14.46313,9.08299,28.23659,18.2054,39.79976"/>
                    <path class="cls-15" d="m364.16414,32.1282c3.24739,11.20189,9.59209,21.48879,18.14465,29.41859"/>
                    <g class="cls-32">
                      <path class="cls-17" d="m409.24075,10.18363c-17.47104-1.43671-35.0505,4.70505-48.43772,15.85885-3.82617,3.18785-7.1239,6.83766-10.13516,10.79417-1.60959,2.11484-.40058,5.75199,1.81519,6.92268,2.67095,1.41118,5.20442.44244,6.92268-1.81519.55841-.73369-.0067-.015-.09068.11632.13133-.20535.3263-.41111.4768-.59702.28033-.34628.56491-.68909.85317-1.0288.6585-.77605,1.33733-1.53468,2.03537-2.27536,1.35187-1.43445,2.77545-2.80078,4.26152-4.09563.67154-.58513,1.36013-1.14834,2.05167-1.70944.71192-.57764.002-.0136-.12223.08598.19794-.15866.40559-.30909.60844-.46086.40747-.30488.81888-.60457,1.23377-.89928,1.60847-1.14254,3.27111-2.20863,4.97951-3.19544,1.70928-.98732,3.46437-1.89527,5.25777-2.72001.40504-.18627.81545-.3606,1.22089-.54576.65878-.30085-.82543.3325-.15342.06244.23634-.09498.47134-.19332.70787-.28787.94606-.37817,1.90104-.73368,2.86412-1.06613,3.68262-1.27123,7.45153-2.14583,11.29391-2.7654.26867-.04332.96132-.20848-.21132.02407.30952-.06138.63378-.07869.94687-.114.50544-.057,1.01154-.10764,1.51825-.15188,1.07676-.094,2.15602-.15936,3.2363-.19484,2.29106-.07525,4.58217-.00996,6.86643.17788,2.64466.21748,5.17517-2.48256,5.05974-5.05974-.13111-2.92726-2.22676-4.82677-5.05974-5.05974h0Z"/>
                    </g>
                    <g class="cls-24">
                      <path class="cls-18" d="m422.0391,40.47662c-.66681.60835-1.36208,1.17696-2.05047,1.75952-.43617.36912.15602-.11726.20658-.15466-.22196.16422-.44173.33083-.66528.493-.39075.28347-.78684.55954-1.1872.82925-1.54613,1.04159-3.16005,1.98095-4.82032,2.82833-.80274.40971-1.61656.79755-2.43902,1.16601-.32709.14654-1.45331.60138-.51667.22961-.4534.17996-.90493.36397-1.3606.53826-1.76322.67439-3.55578,1.27032-5.36643,1.80391-7.86758,2.31856-16.01959,3.38934-24.08984,4.7366-4.82864.8061-9.63949,1.72382-14.35975,3.0338-2.5493.70749-4.37662,3.62006-3.53392,6.22408.84291,2.60468,3.49162,4.29225,6.22408,3.53392,8.46526-2.34932,17.19598-3.39577,25.82841-4.92199,8.20019-1.4498,16.26723-3.49248,23.79105-7.1439,4.18283-2.02999,8.05942-4.66589,11.49493-7.8002,1.96059-1.78871,1.95067-5.36487,0-7.15555-2.09608-1.92417-5.06417-1.90803-7.15555,0h0Z"/>
                    </g>
                  </g>
                  <rect class="cls-11" x="377.07213" y="8.65845" width="37.17843" height="54.84911" rx="6.2958" ry="6.2958" transform="translate(541.42781 -333.5141) rotate(106.31315)"/>
                </g>
              </g>
              <g class="cls-31">
                <path class="cls-8" d="m360.22842,30.92079c.16847-.06612.32993-.11561.49734-.17866-5.96791-1.25291-10.48791-3.60614-10.14314-5.32133.35126-1.74763,5.60974-2.16461,11.74508-.9314.66651.13405,1.30675.28756,1.93449.44699-.46263-.33867-.92618-.67893-1.39237-1.05293-4.88103-3.91648-7.93344-8.21857-6.81781-9.60887,1.11552-1.39043,5.97679.65752,10.85782,4.57399,4.88103,3.91648,7.93344,8.21857,6.81781,9.60887-.24617.30672-.69997.41971-1.27078.40864.25219.35398.40809.70059.34371,1.02085-.08191.40746-.45295.73496-1.0174.99381-.85454,1.74707-4.46323,4.19373-9.19883,6.05019-5.82639,2.28388-11.07695,2.78992-11.72759,1.13021-.65053-1.65959,3.54526-4.85648,9.37165-7.14037Z"/>
                <path class="cls-8" d="m429.90148,42.30789c-.1765.04005-.34355.06471-.51854.10188,5.71183,2.13559,9.82683,5.14139,9.2282,6.78528-.60992,1.67499-5.87134,1.29695-11.75166-.84433-.6388-.2327-1.24869-.48068-1.84534-.73264.40647.40435.81363.81041,1.21831,1.25022,4.23699,4.60555,6.60818,9.31752,5.29628,10.52437-1.31181,1.20699-5.81009-1.54829-10.04708-6.15384-4.23699-4.60555-6.60818-9.31752-5.29628-10.52437.28947-.26624.7551-.30974,1.31776-.21302-.19613-.38786-.29817-.75396-.18639-1.06091.14221-.39052.55826-.65854,1.1552-.82962,1.1074-1.5988,5.04281-3.47533,10.00362-4.599,6.10345-1.38231,11.37043-1.0935,11.76424.64515.39373,1.7385-4.23486,4.26852-10.33832,5.65082Z"/>
                <g>
                  <rect class="cls-22" x="377.07213" y="8.65845" width="37.17843" height="54.84911" rx="6.2958" ry="6.2958" transform="translate(541.42781 -333.5141) rotate(106.31315)"/>
                  <rect class="cls-12" x="377.07213" y="8.65845" width="37.17843" height="54.84911" rx="6.2958" ry="6.2958" transform="translate(541.42781 -333.5141) rotate(106.31315)"/>
                </g>
              </g>
            </g>
          </g>
          <g>
            <g>
              <path class="cls-2" d="m508.13254,66.34657c.09726-.15263.19863-.28769.29684-.43721-5.5617,2.50064-10.60078,3.25944-11.33185,1.67001-.74492-1.61947,3.26023-5.05229,8.94567-7.66742.61769-.28403,1.22558-.53686,1.82687-.77755-.57334-.0014-1.14837-.00355-1.74538-.03141-6.25122-.29229-11.25132-1.97283-11.16801-3.75345.08315-1.78066,5.21837-2.98715,11.46959-2.69486,6.25122.29229,11.25132,1.97283,11.16801,3.75345-.01842.39286-.31872.75135-.78664,1.07845.41225.13767.74233.32606.87883.62284.17367.37758.06655.86076-.23733,1.40229.33778,1.91531-1.13888,6.01754-3.87391,10.30612-3.36513,5.27625-7.31145,8.7764-8.81449,7.81783-1.50288-.95853.00667-6.01284,3.3718-11.28909Z"/>
              <path class="cls-2" d="m571.15575,34.53343c-.11909.13628-.23961.25457-.35918.38763,5.87435-1.63638,10.97023-1.62925,11.45413.052.49307,1.71303-3.9825,4.50494-9.99639,6.23591-.65336.18797-1.29235.34657-1.92298.49416.56662.08755,1.13479.17609,1.72084.29336,6.13629,1.22846,10.82704,3.64136,10.47707,5.38924-.34981,1.74794-5.60803,2.16896-11.74432.94051-6.13629-1.22846-10.82704-3.64136-10.47707-5.38924.07725-.38563.42802-.69492.93979-.94798-.38687-.19806-.68489-.43392-.77524-.74784-.11495-.3994.06357-.86098.44538-1.3507-.04609-1.94432,2.03031-5.77803,5.3788-9.60686,4.11987-4.71058,8.5474-7.57789,9.8893-6.40432,1.34175,1.17351-.91025,5.94355-5.03012,10.65413Z"/>
              <g>
                <rect x="521.22422" y="22.23484" width="37.17843" height="54.84911" rx="6.2958" ry="6.2958" transform="translate(404.11296 -475.17389) rotate(70.24708)"/>
                <rect class="cls-1" x="521.22422" y="22.23484" width="37.17843" height="54.84911" rx="6.2958" ry="6.2958" transform="translate(404.11296 -475.17389) rotate(70.24708)"/>
              </g>
            </g>
            <g>
              <g>
                <g>
                  <path class="cls-5" d="m508.13254,66.34657c.09726-.15263.19863-.28769.29684-.43721-5.5617,2.50064-10.60078,3.25944-11.33185,1.67001-.74492-1.61947,3.26023-5.05229,8.94567-7.66742.61769-.28403,1.22558-.53686,1.82687-.77755-.57334-.0014-1.14837-.00355-1.74538-.03141-6.25122-.29229-11.25132-1.97283-11.16801-3.75345.08315-1.78066,5.21837-2.98715,11.46959-2.69486,6.25122.29229,11.25132,1.97283,11.16801,3.75345-.01842.39286-.31872.75135-.78664,1.07845.41225.13767.74233.32606.87883.62284.17367.37758.06655.86076-.23733,1.40229.33778,1.91531-1.13888,6.01754-3.87391,10.30612-3.36513,5.27625-7.31145,8.7764-8.81449,7.81783-1.50288-.95853.00667-6.01284,3.3718-11.28909Z"/>
                  <path class="cls-21" d="m510.11631,65.83619c-.76299-.55956.04406-2.95694,1.80265-5.35475.21279-.29025.43002-.56572.64833-.82722-.36769-.06086-.74468-.1346-1.13011-.22627-2.89286-.688-5.06049-1.9919-4.8416-2.91228.21893-.92054,2.74148-1.10898,5.63434-.42098,1.23192.29298,2.31604.69982,3.1566,1.13899.46152-.20908.85112-.2617,1.09781-.08078.24108.17671.3092.55171.25637,1.0373.26037.28713.39036.56644.33079.81693-.06274.26379-.33138.45998-.72705.60006-.3564.87633-.91727,1.88402-1.66275,2.90047-1.75843,2.39784-3.80254,3.88806-4.56536,3.32854Z"/>
                </g>
                <g>
                  <path class="cls-5" d="m571.15575,34.53343c-.11909.13628-.23961.25457-.35918.38763,5.87435-1.63638,10.97023-1.62925,11.45413.052.49307,1.71303-3.9825,4.50494-9.99639,6.23591-.65336.18797-1.29235.34657-1.92298.49416.56662.08755,1.13479.17609,1.72084.29336,6.13629,1.22846,10.82704,3.64136,10.47707,5.38924-.34981,1.74794-5.60803,2.16896-11.74432.94051-6.13629-1.22846-10.82704-3.64136-10.47707-5.38924.07725-.38563.42802-.69492.93979-.94798-.38687-.19806-.68489-.43392-.77524-.74784-.11495-.3994.06357-.86098.44538-1.3507-.04609-1.94432,2.03031-5.77803,5.3788-9.60686,4.11987-4.71058,8.5474-7.57789,9.8893-6.40432,1.34175,1.17351-.91025,5.94355-5.03012,10.65413Z"/>
                  <path class="cls-21" d="m573.34554,43.59796c.31471-.89231-1.70343-2.41739-4.50772-3.40637-.33938-.11976-.6741-.22481-1.00183-.31772.26938-.25756.53917-.531.80583-.82401,2.00143-2.19915,3.05664-4.49813,2.35697-5.1349-.69979-.63687-2.88949.62963-4.89091,2.82878-.85231.93651-1.51835,1.88372-1.965,2.72032-.49906.08751-.85051.26369-.95226.5522-.0995.28187.05566.62999.37306,1.00127-.05318.38394-.00307.68792.18735.86122.20053.1825.53302.19309.93879.08572.78841.52285,1.81976,1.03894,3.00852,1.45817,2.80417.9891,5.33261,1.06751,5.64721.17532Z"/>
                </g>
                <g>
                  <rect class="cls-20" x="521.22422" y="22.23484" width="37.17843" height="54.84911" rx="6.2958" ry="6.2958" transform="translate(404.11296 -475.17389) rotate(70.24708)"/>
                  <g class="cls-28">
                    <path class="cls-4" d="m537.76257,24.91951c9.58846,10.16654,22.43468,17.21232,36.16152,19.83355"/>
                    <path class="cls-4" d="m525.36094,32.34784c11.91133,14.66089,29.85823,24.26122,48.66475,26.03221"/>
                    <path class="cls-4" d="m509.33804,38.53336c11.9213,15.26336,30.16217,25.42931,49.41407,27.53932"/>
                    <path class="cls-4" d="m509.26357,57.47926c9.64237,9.84698,22.75598,16.22507,36.45529,17.73081"/>
                    <path class="cls-10" d="m544.30605,25.38866l-.84327-1.05788c9.1284,7.95826,19.98605,13.92267,31.59892,17.35818"/>
                    <path class="cls-10" d="m528.96653,31.19945c11.0822,12.72888,26.78213,21.34754,43.4707,23.86374"/>
                    <path class="cls-10" d="m513.85838,37.67395c12.371,12.89192,28.67719,21.95598,46.15703,25.65713"/>
                    <path class="cls-10" d="m506.76617,49.69402c10.76404,10.0529,23.96551,17.47741,38.14696,21.45385"/>
                    <path class="cls-10" d="m512.02475,65.00553c9.21975,7.14312,20.40449,11.72318,31.98626,13.09811"/>
                    <g class="cls-32">
                      <path class="cls-20" d="m538.52152,24.81947c-17.66349,10.68605-29.23314,30.78867-29.59936,51.4298"/>
                      <path class="cls-17" d="m535.96778,20.45053c-14.87729,9.06783-25.85557,24.1503-30.11796,41.03247-1.21501,4.81233-1.88294,9.80469-1.98739,14.76627-.05574,2.6478,2.36711,5.18034,5.05974,5.05974,2.78908-.12492,5.00001-2.22263,5.05974-5.05974.04104-1.9493.16931-3.89429.40005-5.83055.15683-1.316-.12656.78801.07202-.52216.06588-.43466.13618-.86865.21175-1.30174.17273-.98988.36986-1.97552.59149-2.95561.44339-1.96078.98397-3.89965,1.61657-5.80778.2769-.83523.57148-1.66465.88327-2.48749.17825-.47043.36835-.93594.55145-1.40443.09093-.23267.32868-.90705-.07452.16404.1104-.29329.2501-.57837.37744-.86445,1.58599-3.56293,3.49939-6.97962,5.70776-10.19409.53449-.778,1.09343-1.53675,1.65355-2.29629.14717-.19956.52084-.78479-.1014.12677.1389-.20348.31582-.40073.46867-.59119.31475-.39219.63411-.78073.95826-1.16519,1.25561-1.48921,2.57987-2.9203,3.9695-4.28534,1.513-1.48621,3.14569-3.21852,4.94572-4.35711-1.08603.68696.39088-.28992.62668-.46261.45628-.33416.9172-.66198,1.383-.98275.93265-.64226,1.88525-1.25359,2.85211-1.8429,2.25929-1.37706,3.31486-4.59659,1.81519-6.92268-1.46262-2.26864-4.50454-3.28907-6.92268-1.81519h0Z"/>
                    </g>
                    <g class="cls-24">
                      <path class="cls-20" d="m568.72054,38.46763c-2.03239,10.2286-8.27721,19.12913-15.28287,26.85413-7.00565,7.725-14.92593,14.62898-21.38402,22.81726"/>
                      <path class="cls-18" d="m563.84154,37.12255c-.38829,1.89853-.90241,3.76545-1.55603,5.59018-.1395.38946-.28454.77702-.43508,1.16234-.10044.25708-.20575.51186-.30843.76799.02182-.05444.35009-.78067.10412-.25658-.4114.87656-.80545,1.75857-1.24726,2.62088-.88724,1.73166-1.87286,3.4118-2.93254,5.04335-.49451.76138-1.00519,1.51217-1.52981,2.25312-.28299.39968-.57056.79611-.86154,1.19-.12478.16891-.25008.33743-.3762.50534-.07667.10208-.78885,1.01976-.37042.48893.3658-.46406-.0716.08681-.12223.14989-.13149.16385-.26174.32868-.3934.4924-.30708.38188-.61717.76133-.93033,1.13824-.62517.75244-1.26217,1.49505-1.90861,2.22929-1.36707,1.55275-2.77854,3.06623-4.21022,4.55943-2.87893,3.00263-5.84505,5.91976-8.75478,8.89224-3.32831,3.40009-6.57463,6.88143-9.5329,10.61165-.86686,1.09307-1.48196,2.12379-1.48196,3.57778,0,1.24099.55121,2.72336,1.48196,3.57778,1.82874,1.67875,5.3992,2.21467,7.15555,0,10.50149-13.24181,24.74308-23.42945,32.92337-38.49907,2.27862-4.19765,4.0862-8.71827,5.04474-13.40502.52884-2.58575-.74734-5.58939-3.53392-6.22408-2.52479-.57507-5.65694.76094-6.22408,3.53392h0Z"/>
                    </g>
                  </g>
                  <rect class="cls-11" x="521.22422" y="22.23484" width="37.17843" height="54.84911" rx="6.2958" ry="6.2958" transform="translate(404.11296 -475.17389) rotate(70.24708)"/>
                </g>
              </g>
              <g class="cls-31">
                <path class="cls-9" d="m508.13254,66.34657c.09726-.15263.19863-.28769.29684-.43721-5.5617,2.50064-10.60078,3.25944-11.33185,1.67001-.74492-1.61947,3.26023-5.05229,8.94567-7.66742.61769-.28403,1.22558-.53686,1.82687-.77755-.57334-.0014-1.14837-.00355-1.74538-.03141-6.25122-.29229-11.25132-1.97283-11.16801-3.75345.08315-1.78066,5.21837-2.98715,11.46959-2.69486,6.25122.29229,11.25132,1.97283,11.16801,3.75345-.01842.39286-.31872.75135-.78664,1.07845.41225.13767.74233.32606.87883.62284.17367.37758.06655.86076-.23733,1.40229.33778,1.91531-1.13888,6.01754-3.87391,10.30612-3.36513,5.27625-7.31145,8.7764-8.81449,7.81783-1.50288-.95853.00667-6.01284,3.3718-11.28909Z"/>
                <path class="cls-9" d="m571.15575,34.53343c-.11909.13628-.23961.25457-.35918.38763,5.87435-1.63638,10.97023-1.62925,11.45413.052.49307,1.71303-3.9825,4.50494-9.99639,6.23591-.65336.18797-1.29235.34657-1.92298.49416.56662.08755,1.13479.17609,1.72084.29336,6.13629,1.22846,10.82704,3.64136,10.47707,5.38924-.34981,1.74794-5.60803,2.16896-11.74432.94051-6.13629-1.22846-10.82704-3.64136-10.47707-5.38924.07725-.38563.42802-.69492.93979-.94798-.38687-.19806-.68489-.43392-.77524-.74784-.11495-.3994.06357-.86098.44538-1.3507-.04609-1.94432,2.03031-5.77803,5.3788-9.60686,4.11987-4.71058,8.5474-7.57789,9.8893-6.40432,1.34175,1.17351-.91025,5.94355-5.03012,10.65413Z"/>
                <g>
                  <rect class="cls-16" x="521.22422" y="22.23484" width="37.17843" height="54.84911" rx="6.2958" ry="6.2958" transform="translate(404.11296 -475.17389) rotate(70.24708)"/>
                  <rect class="cls-14" x="521.22422" y="22.23484" width="37.17843" height="54.84911" rx="6.2958" ry="6.2958" transform="translate(404.11296 -475.17389) rotate(70.24708)"/>
                </g>
              </g>
            </g>
          </g>
          <g>
            <g>
              <path class="cls-2" d="m642.5267,53.69006c.15531-.09292.30643-.16828.4612-.258-6.09269-.25459-10.9381-1.8326-10.88004-3.58113.05913-1.7816,5.17748-3.05752,11.43209-2.84989.67948.02264,1.33624.06878,1.98165.12283-.51202-.25799-1.02521-.5174-1.54655-.80966-5.45856-3.06062-9.17679-6.80227-8.30495-8.35708.87171-1.55492,6.00356-.33416,11.46212,2.72646,5.45856,3.06062,9.17679,6.80227,8.30495,8.35708-.19239.34302-.62143.52909-1.18629.61203.30696.30769.51773.62395.50689.95044-.0138.41538-.32594.79943-.84014,1.14757-.55565,1.8638-3.71294,4.87051-8.07884,7.48035-5.37157,3.21079-10.46746,4.57326-11.38214,3.04311-.91455-1.53004,2.69849-5.37331,8.07005-8.5841Z"/>
              <path class="cls-2" d="m713.1238,53.4663c-.16751.06852-.32824.12032-.49473.18576,5.98523,1.16736,10.53845,3.45565,10.21826,5.1756-.32621,1.75248-5.57818,2.24468-11.73055,1.09941-.66836-.1245-1.31073-.26882-1.94069-.41925.46743.33201.9358.6656,1.4073,1.03289,4.93658,3.84621,8.05026,8.10417,6.95465,9.5103-1.0955,1.40625-5.98559-.5719-10.92218-4.41811-4.93658-3.84621-8.05026-8.10417-6.95465-9.5103.24176-.31021.69389-.42968,1.2648-.42679-.25723-.35033-.41808-.69467-.35829-1.01582.07606-.40859.44239-.74137,1.00307-1.00827.82944-1.75912,4.40275-4.25719,9.11129-6.18124,5.7931-2.36704,11.03588-2.94818,11.71021-1.29795.67422,1.65011-3.47538,4.90673-9.26848,7.27378Z"/>
              <g>
                <rect x="659.73695" y="25.53146" width="37.17843" height="54.84911" rx="6.2958" ry="6.2958" transform="translate(811.80154 -614.21341) rotate(96.84941)"/>
                <rect class="cls-1" x="659.73695" y="25.53146" width="37.17843" height="54.84911" rx="6.2958" ry="6.2958" transform="translate(811.80154 -614.21341) rotate(96.84941)"/>
              </g>
            </g>
            <g>
              <g>
                <g>
                  <path class="cls-6" d="m642.5267,53.69006c.15531-.09292.30643-.16828.4612-.258-6.09269-.25459-10.9381-1.8326-10.88004-3.58113.05913-1.7816,5.17748-3.05752,11.43209-2.84989.67948.02264,1.33624.06878,1.98165.12283-.51202-.25799-1.02521-.5174-1.54655-.80966-5.45856-3.06062-9.17679-6.80227-8.30495-8.35708.87171-1.55492,6.00356-.33416,11.46212,2.72646,5.45856,3.06062,9.17679,6.80227,8.30495,8.35708-.19239.34302-.62143.52909-1.18629.61203.30696.30769.51773.62395.50689.95044-.0138.41538-.32594.79943-.84014,1.14757-.55565,1.8638-3.71294,4.87051-8.07884,7.48035-5.37157,3.21079-10.46746,4.57326-11.38214,3.04311-.91455-1.53004,2.69849-5.37331,8.07005-8.5841Z"/>
                  <path class="cls-34" d="m644.529,54.12204c-.43165-.84199,1.3635-2.62418,4.00964-3.98066.32023-.16423.63782-.31327.95012-.44933-.30151-.21907-.60557-.45382-.90915-.70837-2.27853-1.91058-3.63281-4.0471-3.02495-4.77202.60796-.72505,2.94785.23604,5.22638,2.14662.97031.81362,1.75748,1.66285,2.31239,2.43192.50629.01972.87821.14713,1.01777.41937.13643.26596.02942.63176-.23527,1.04229.10424.37332.09539.68128-.07005.87857-.17422.20777-.50228.26289-.91878.21096-.71109.62396-1.66382,1.27382-2.78554,1.84884-2.64602,1.35658-5.14104,1.7737-5.57256.93182Z"/>
                </g>
                <g>
                  <path class="cls-6" d="m713.1238,53.4663c-.16751.06852-.32824.12032-.49473.18576,5.98523,1.16736,10.53845,3.45565,10.21826,5.1756-.32621,1.75248-5.57818,2.24468-11.73055,1.09941-.66836-.1245-1.31073-.26882-1.94069-.41925.46743.33201.9358.6656,1.4073,1.03289,4.93658,3.84621,8.05026,8.10417,6.95465,9.5103-1.0955,1.40625-5.98559-.5719-10.92218-4.41811-4.93658-3.84621-8.05026-8.10417-6.95465-9.5103.24176-.31021.69389-.42968,1.2648-.42679-.25723-.35033-.41808-.69467-.35829-1.01582.07606-.40859.44239-.74137,1.00307-1.00827.82944-1.75912,4.40275-4.25719,9.11129-6.18124,5.7931-2.36704,11.03588-2.94818,11.71021-1.29795.67422,1.65011-3.47538,4.90673-9.26848,7.27378Z"/>
                  <path class="cls-34" d="m711.02272,62.5518c.68097-.65692-.4406-2.92427-2.50515-5.0643-.24982-.25905-.50207-.50287-.7535-.7327.35619-.10967.71987-.23335,1.0895-.37593,2.77432-1.07011,4.7473-2.65319,4.40684-3.53585-.34052-.88282-2.86554-.73093-5.63986.33918-1.18144.45571-2.20113,1.00439-2.97513,1.55242-.48541-.14523-.87855-.14508-1.09872.06732-.21518.20747-.23234.58822-.1148,1.06233-.21947.31948-.31079.61372-.21813.85394.09758.25298.39013.41133.80102.49703.47082.82055,1.16188,1.74383,2.03706,2.651,2.0644,2.14009,4.29005,3.34242,4.97087,2.68555Z"/>
                </g>
                <g>
                  <rect class="cls-19" x="659.73695" y="25.53146" width="37.17843" height="54.84911" rx="6.2958" ry="6.2958" transform="translate(811.80154 -614.21341) rotate(96.84941)"/>
                  <g class="cls-30">
                    <path class="cls-3" d="m687.57082,29.91683c4.02086,13.38394,12.35206,25.4363,23.45195,33.92685"/>
                    <path class="cls-3" d="m673.15571,31.00538c4.08527,18.44267,15.83326,35.06321,31.8558,45.06819"/>
                    <path class="cls-3" d="m656.0592,29.36109c3.8244,18.98582,15.58196,36.24375,31.85092,46.75129"/>
                    <path class="cls-3" d="m647.50873,46.26796c4.21216,13.12235,13.08143,24.69744,24.65621,32.17827"/>
                    <path class="cls-15" d="m693.2115,33.26645l-.28029-1.32351c4.59836,11.20342,11.63574,21.39842,20.48082,29.67043"/>
                    <path class="cls-15" d="m676.89384,31.59312c4.20906,16.34391,14.38754,31.08052,28.18265,40.80341"/>
                    <path class="cls-15" d="m660.48584,30.61685c5.28841,17.0668,15.80952,32.47315,29.78152,43.60987"/>
                    <path class="cls-15" d="m648.76191,38.18857c5.12288,13.80875,13.60213,26.35882,24.50164,36.26469"/>
                    <path class="cls-15" d="m646.60737,54.23391c5.04505,10.51548,12.9948,19.61916,22.7348,26.03479"/>
                    <g class="cls-32">
                      <path class="cls-17" d="m688.29423,25.1075c-17.38397,1.44695-34.01169,9.76265-45.43328,23.00438-3.24195,3.75859-6.11515,7.84009-8.43154,12.2324-1.23391,2.33973-.6723,5.60843,1.81519,6.92268,2.33715,1.23482,5.60433.68464,6.92268-1.81519.92754-1.75878,1.93472-3.47262,3.03218-5.13095.51368-.7762,1.04639-1.53981,1.59615-2.29086.14147-.19327.53557-.94778.78072-1.04311-.36032.14011-.50265.63616-.10395.14369.19523-.24115.38836-.48386.58523-.72368,2.48173-3.02315,5.25387-5.80776,8.25779-8.3124.38184-.31837.77161-.62667,1.15614-.94167.18849-.1544.73503-.6112-.14254.10275.19189-.15612.39673-.30241.59435-.45034.79602-.59586,1.6061-1.17295,2.42891-1.73123,1.59415-1.08164,3.23789-2.09039,4.92339-3.02327,1.73928-.96265,3.5234-1.84388,5.34546-2.6388,1.1816-.5155-.51794.19771.33665-.13999.46196-.18255.92285-.36719,1.38764-.54253.9291-.35049,1.86665-.67901,2.81165-.98407,2.12583-.68625,4.28868-1.25688,6.47728-1.70451,1.03374-.21143,2.07331-.39448,3.11696-.54973.18496-.02751.99645-.12236.24994-.03841-.8069.09074.27093-.02818.43704-.04687.61775-.0695,1.23644-.12728,1.85594-.17885,2.63092-.21898,5.18916-2.1703,5.05974-5.05974-.11436-2.55323-2.23505-5.29485-5.05974-5.05974h0Z"/>
                    </g>
                    <g class="cls-24">
                      <path class="cls-18" d="m705.6069,52.31575c-1.16615,1.48442-2.42589,2.88789-3.78599,4.19745-.62906.60569-1.27733,1.19131-1.94154,1.75818-.35817.30568-.72319.60228-1.08762.90033-.07225.05909-.6056.48202-.12327.10319.55286-.43423-.34541.25648-.45443.33678-3.00679,2.2144-6.2479,4.09632-9.59707,5.74146-.85712.42103-1.72174.82658-2.59254,1.21851-.37299.16787-.74709.3332-1.12225.49617-.14634.06357-.95044.40693-.33503.14655.59033-.24977-.23257.09468-.33763.13783-1.91466.78633-3.85227,1.51568-5.80005,2.21554-4.10491,1.47496-8.25701,2.81315-12.38052,4.23428-4.89861,1.68827-9.74647,3.52727-14.44583,5.7163-2.40642,1.12094-3.20087,4.77339-1.81519,6.92268,1.59795,2.47855,4.3486,3.01423,6.92268,1.81519.98704-.45977,1.98011-.90566,2.98178-1.33268-.76717.32704.2611-.10368.51362-.2062.57611-.23389,1.15419-.46297,1.7338-.68805,2.03021-.78841,4.07983-1.52596,6.13714-2.24032,4.19378-1.45622,8.4213-2.81408,12.60285-4.30575,7.65996-2.73251,15.33142-5.91034,21.98634-10.65862,3.76018-2.68289,7.23619-5.71253,10.09631-9.35325.8643-1.10019,1.48196-2.11744,1.48196-3.57778,0-1.24099-.55121-2.72336-1.48196-3.57778-1.8211-1.67174-5.40936-2.22278-7.15555,0h0Z"/>
                    </g>
                  </g>
                  <rect class="cls-11" x="659.73695" y="25.53146" width="37.17843" height="54.84911" rx="6.2958" ry="6.2958" transform="translate(811.80154 -614.21341) rotate(96.84941)"/>
                </g>
              </g>
              <g class="cls-31">
                <path class="cls-7" d="m642.5267,53.69006c.15531-.09292.30643-.16828.4612-.258-6.09269-.25459-10.9381-1.8326-10.88004-3.58113.05913-1.7816,5.17748-3.05752,11.43209-2.84989.67948.02264,1.33624.06878,1.98165.12283-.51202-.25799-1.02521-.5174-1.54655-.80966-5.45856-3.06062-9.17679-6.80227-8.30495-8.35708.87171-1.55492,6.00356-.33416,11.46212,2.72646,5.45856,3.06062,9.17679,6.80227,8.30495,8.35708-.19239.34302-.62143.52909-1.18629.61203.30696.30769.51773.62395.50689.95044-.0138.41538-.32594.79943-.84014,1.14757-.55565,1.8638-3.71294,4.87051-8.07884,7.48035-5.37157,3.21079-10.46746,4.57326-11.38214,3.04311-.91455-1.53004,2.69849-5.37331,8.07005-8.5841Z"/>
                <path class="cls-7" d="m713.1238,53.4663c-.16751.06852-.32824.12032-.49473.18576,5.98523,1.16736,10.53845,3.45565,10.21826,5.1756-.32621,1.75248-5.57818,2.24468-11.73055,1.09941-.66836-.1245-1.31073-.26882-1.94069-.41925.46743.33201.9358.6656,1.4073,1.03289,4.93658,3.84621,8.05026,8.10417,6.95465,9.5103-1.0955,1.40625-5.98559-.5719-10.92218-4.41811-4.93658-3.84621-8.05026-8.10417-6.95465-9.5103.24176-.31021.69389-.42968,1.2648-.42679-.25723-.35033-.41808-.69467-.35829-1.01582.07606-.40859.44239-.74137,1.00307-1.00827.82944-1.75912,4.40275-4.25719,9.11129-6.18124,5.7931-2.36704,11.03588-2.94818,11.71021-1.29795.67422,1.65011-3.47538,4.90673-9.26848,7.27378Z"/>
                <g>
                  <rect class="cls-23" x="659.73695" y="25.53146" width="37.17843" height="54.84911" rx="6.2958" ry="6.2958" transform="translate(811.80154 -614.21341) rotate(96.84941)"/>
                  <rect class="cls-13" x="659.73695" y="25.53146" width="37.17843" height="54.84911" rx="6.2958" ry="6.2958" transform="translate(811.80154 -614.21341) rotate(96.84941)"/>
                </g>
              </g>
            </g>
          </g>
        </g>
      </g>
    </g>
  </g>
</svg>