<?xml version="1.0" encoding="UTF-8"?>
<svg id="Layer_2" data-name="Layer 2" xmlns="http://www.w3.org/2000/svg" viewBox="0 0 125.6894 555.8216">
  <defs>
    <style>
      .cls-1 {
        fill: #f59237;
      }

      .cls-2 {
        fill: #f8dfbc;
      }

      .cls-3 {
        fill: #f4ebef;
      }

      .cls-4 {
        fill: #ffcc8f;
      }

      .cls-5 {
        fill: #ffcaec;
      }

      .cls-6 {
        fill: #ac85c0;
      }

      .cls-7 {
        fill: #e27700;
      }

      .cls-8 {
        fill: #562d70;
      }

      .cls-9 {
        fill: #774ca3;
      }

      .cls-10 {
        fill: none;
        stroke: #000;
        stroke-linejoin: bevel;
        stroke-width: 2px;
      }

      .cls-11 {
        fill: #f8fafb;
        opacity: .25;
      }
    </style>
  </defs>
  <g id="candy_groups" data-name="candy groups">
    <g>
      <g>
        <g>
          <path class="cls-2" d="m54.21048,159.28325c-2.16968-.04717-2.60591-1.25886-5.62631-1.77722-2.13164-.36581-3.7655-.07998-5.81289.29761-11.12387,2.05154-14.53605,3.13252-15.50118,1.73977-.59353-.85649.02473-2.23534.24635-2.72958,1.22419-2.7303,4.37699-2.22812,7.0911-5.52683.45945-.55836,1.16722-1.43668,1.54884-2.78243.13376-.47168.74508-2.82655-.39611-5.06558-.89727-1.76041-2.12825-1.97832-2.16982-3.35355-.0197-.65177.22561-1.63604.91897-2.10211,1.97236-1.32574,5.37713,3.01525,7.79642,1.93874,1.20641-.53683,1.21399-1.99644,2.45502-7.33751,2.01203-8.65947,2.93623-8.88542,3.19503-8.89791.62874-.0303,1.24509,1.01013,2.04245,3.10929,2.09989,5.52834,1.42906,7.80083,2.54765,12.52333,1.01014,4.26442,2.30053,9.71231,6.55767,12.48298,1.10762.72084,2.14953,1.08704,2.32351,2.06517.37352,2.10003-3.52489,5.49608-7.21671,5.41583Z"/>
          <path class="cls-4" d="m35.40253,156.27781c-.26532-.07142-.50417-.24256-.65498-.49794-.30554-.51806-.13349-1.18587.38432-1.49184,2.33495-1.37834,6.12707-2.96511,10.93183-2.69831,2.8214.15624,5.6419.96504,8.15674,2.33923.5282.28831.72236.95006.4338,1.47782-.28813.52751-.94949.72435-1.47782.4338-2.23261-1.21964-4.73362-1.9373-7.23334-2.07598-4.25996-.23654-7.62837,1.17423-9.70369,2.3996-.26268.15473-.56401.18706-.83686.11362Z"/>
          <path class="cls-4" d="m55.03502,155.83898c-.04587-.01235-.0917-.02762-.13685-.04675-2.97148-1.23679-5.7884-2.83365-8.37242-4.74599-2.37321-1.75572-4.554-3.78165-6.48173-6.02069-.3924-.4559-.34091-1.14367.11465-1.53616.4559-.3924,1.14264-.34118,1.53616.11465,1.82225,2.11666,3.88352,4.03147,6.12687,5.69129,2.4422,1.80771,5.10503,3.31682,7.91363,4.48627.55537.23101.81809.86861.58674,1.4239-.21222.51013-.7677.77329-1.28705.63349Z"/>
          <path class="cls-4" d="m55.0255,154.07664c-.13899-.03742-.27224-.10302-.39214-.19771-1.85924-1.47051-4.43666-4.04709-6.1556-7.96878-1.27689-2.91235-1.87404-6.13481-1.72649-9.31946.02774-.60091.53748-1.0651,1.13839-1.03736.59936.02806,1.0651.53748,1.03736,1.13839-.13201,2.85142.40249,5.73648,1.54553,8.34404,1.5391,3.5109,3.84694,5.81775,5.51216,7.1347.47164.37295.5516,1.05793.17856,1.52991-.27835.35207-.73037.48594-1.13777.37627Z"/>
          <path class="cls-2" d="m91.3179,175.34001c4.36588.11791,5.2,1.92503,9.27942,1.76701,1.36463-.05287,2.67555-.41118,5.29756-1.12782,5.04865-1.37987,6.05214-2.4685,8.15954-1.94037,1.77368.4445,3.80345,1.90244,3.9575,3.7706.17462,2.11841-2.13941,3.83471-3.37515,4.46888-1.4204.72889-3.31796,1.00409-3.71595,1.05795-1.4328.19391-2.29104.07189-3.11387.75397-.23738.19678-.99999.89833-.95903,1.78479.04127.89251.86211,1.21793,2.33868,2.70067,1.43467,1.44066,2.19221,2.20138,2.1303,3.09801-.09837,1.42388-2.20485,2.34457-2.69376,2.54184-2.71597,1.09601-4.19897-.48424-5.40062.48565-1.42023,1.14631.33514,3.60895-.9483,8.14633-.29146,1.03022-1.04974,3.71112-2.66747,3.98987-.7504.12932-1.4484-.29916-2.03901-.76618-2.46442-1.94885-3.34085-4.79259-4.61612-8.41306-1.6186-4.59522-2.4279-6.89278-3.42123-8.81568-.93394-1.80796-1.78564-3.12015-3.1057-6.02145-1.92591-4.23272-1.78064-5.10416-1.50268-5.64882,1.00938-1.97763,4.90504-1.87243,6.39588-1.83217Z"/>
          <path class="cls-4" d="m94.73916,181.03456c-1.48066-.39857-2.92866-.93485-4.33236-1.60569-.54291-.25959-.77254-.90959-.51329-1.45259.2595-.54256.91411-.77022,1.45216-.51304,2.33687,1.11737,4.80881,1.82574,7.34585,2.1081,5.23745.58117,9.59481-.79212,12.32778-2.04644.54685-.25153,1.19296-.01115,1.44414.5356.25084.54666.01106,1.1933-.5356,1.44414-2.98316,1.36944-7.74318,2.86786-13.47682,2.23132-1.25424-.13899-2.49412-.37362-3.71186-.70141Z"/>
          <path class="cls-4" d="m104.31351,190.96819c-.1609-.04331-.31391-.12415-.44593-.2434-2.5557-2.30675-5.30739-4.43642-8.17839-6.33018-2.55772-1.6868-5.2546-3.21536-8.01572-4.54349-.54229-.26053-.77018-.91153-.50941-1.45338.26034-.5416.91196-.77044,1.45338-.50941,2.84928,1.37022,5.6318,2.94754,8.27096,4.68783,2.96272,1.95406,5.80186,4.15169,8.4388,6.53171.44633.40286.4816,1.09159.07865,1.53826-.28404.31456-.70959.42508-1.09233.32205Z"/>
          <path class="cls-4" d="m97.61371,198.97843c-.40911-.11013-.73332-.45514-.79565-.90149-.43761-3.13179-1.41029-6.13628-2.89083-8.92904-1.44584-2.72799-3.33276-5.17046-5.60813-7.25966-.44308-.40675-.4724-1.09572-.06565-1.5388.40598-.44292,1.09541-.47396,1.5388-.06565,2.45855,2.2571,4.49733,4.8965,6.05963,7.84382,1.59982,3.018,2.65072,6.26384,3.12318,9.64806.08347.5956-.33201,1.14611-.92786,1.22914-.14959.02105-.29621.01059-.43349-.02637Z"/>
          <path class="cls-7" d="m94.74181,172.47236c-3.39909,12.62735-16.02918,20.20206-28.20775,16.92377-12.18217-3.27926-19.29958-16.1697-15.90048-28.79705,2.06004-7.65288,7.51161-13.44913,14.19843-16.09683,3.75807-1.48858,7.90702-1.98466,12.06379-1.25294.647.11023,1.29611.2549,1.94469.42949,12.17857,3.27829,19.29949,16.16967,15.90133,28.79356Z"/>
          <path class="cls-1" d="m90.4155,168.38347c-2.88933,10.73362-13.62527,17.17234-23.97742,14.3857-10.3552-2.78747-16.40521-13.74471-13.51588-24.47833,1.7511-6.50517,6.38509-11.43216,12.06908-13.68278,3.19447-1.26534,6.7212-1.68702,10.25457-1.06503.54997.0937,1.10173.21667,1.65304.36508,10.35214,2.78664,16.40513,13.74469,13.5166,24.47537Z"/>
          <path class="cls-4" d="m91.70416,169.30111c-1.39192,5.17085-4.71208,9.48798-9.35271,12.16016-3.88871,2.23918-8.33004,2.69038-12.35804,1.6061s-7.63916-3.70309-9.88185-7.59275c-3.65596-6.3492-1.4657-14.48583,4.8835-18.14179,5.20125-2.99499,11.86457-1.19756,14.86045,4.00021,2.46467,4.28027.98688,9.77014-3.29342,12.23476-3.5461,2.0419-8.09293.81796-10.13483-2.72815-1.70377-2.95883-.68272-6.75193,2.27614-8.45565,2.4872-1.43213,5.6773-.5734,7.10949,1.91377,1.21694,2.11343.48749,4.8233-1.625,6.03674-.6096.35098-1.38434.14243-1.73537-.46714-.35189-.60604-.1424-1.38428.46712-1.73533.43603-.25107.74707-.65231.87824-1.1396.13023-.48378.06358-.99045-.18748-1.42652-.73268-1.27249-2.36637-1.71226-3.63883-.97952-1.74411,1.00432-2.34618,3.24093-1.34191,4.98508.65077,1.1301,1.70001,1.93891,2.95858,2.2777s2.57555.16694,3.70569-.48378c1.48612-.85573,2.55009-2.2386,2.9955-3.89326s.21942-3.38482-.63632-4.87089c-2.29552-3.98663-7.40329-5.36156-11.38989-3.06599-5.13453,2.9565-6.90581,9.53663-3.94925,14.67114,3.7815,6.56722,12.2021,8.83392,18.77283,5.05337,8.36116-4.81748,11.2469-15.53777,6.433-23.89806-2.95911-5.139-7.7411-8.81363-13.46579-10.35463-3.05693-.82288-6.18307-.98387-9.22201-.50483,3.75807-1.48858,7.90702-1.98466,12.06379-1.25294,5.41094,1.9942,9.91339,5.78528,12.82289,10.84328,2.67214,4.64062,3.37644,10.04117,1.98547,15.20851Z"/>
          <path class="cls-11" d="m52.10336,165.47945c2.06004-7.65288,7.51161-13.44913,14.1985-16.09676,3.758-1.48865,7.90695-1.98473,12.0637-1.25296.64701.11019,1.29611.2549,1.94469.42949,6.92505,1.86412,12.21088,6.83822,14.86121,13.10213-1.59384-8.4817-7.68537-15.65528-16.33099-17.98255-.64858-.17459-1.29769-.31926-1.94469-.42949-4.15677-.73173-8.30572-.23564-12.06379,1.25294-6.68682,2.6477-12.13839,8.44395-14.19843,16.09683-1.46668,5.44858-.97167,10.94433,1.03974,15.69761-.65178-3.46756-.55641-7.15264.43005-10.81724Z"/>
        </g>
        <path class="cls-10" d="m118.01191,177.80942c-.15397-1.86814-2.18382-3.3261-3.95742-3.77058-2.1074-.52813-3.11089.5605-8.15954,1.94037-2.62202.71665-3.93302,1.07493-5.29765,1.1278-3.2206.1248-4.42414-.97287-6.93414-1.49959.42206-1.00631.78676-2.0505,1.07871-3.13506,1.13489-4.21604,1.09103-8.46001.0828-12.36768-.00195-.00741-.00362-.01484-.00558-.02225-.06247-.24124-.12922-.48088-.19908-.71952-.01299-.04416-.02641-.08807-.03962-.1321-.21106-.70604-.45398-1.39945-.72788-2.07871-.02429-.06014-.04858-.12029-.07328-.18026-.0893-.21624-.18043-.43147-.27596-.64466-.00736-.0163-.01517-.03231-.02253-.04861-.18878-.41885-.3904-.83091-.60282-1.23694-.03485-.06661-.06878-.13357-.10419-.19978-.10048-.18763-.20357-.37344-.30892-.55803-.04802-.08416-.09748-.16741-.14651-.25092-.19692-.33508-.40171-.66479-.61474-.9891-.04421-.0673-.08676-.13566-.13164-.20249-.10591-.15761-.21528-.31257-.32502-.4675-.07592-.10736-.15278-.21397-.23055-.31994-.10734-.14615-.21475-.29201-.32537-.43551-.10736-.13923-.21821-.27577-.32872-.4125-.15784-.19518-.3186-.3877-.48281-.57762-.11079-.12822-.22208-.25593-.33573-.38171-.10526-.11636-.21162-.23169-.3193-.3459-.13059-.13855-.26369-.27457-.39773-.40983-.1075-.10838-.21431-.21727-.32397-.32343-.1957-.18958-.39515-.37545-.59787-.55802-.09834-.08852-.19851-.17506-.2985-.26187-.15732-.13675-.31674-.27118-.47807-.4036-.09436-.0774-.18788-.15554-.28357-.23141-.24223-.19233-.48826-.38041-.73909-.56294-.07622-.05544-.15452-.10828-.23146-.16277-.19812-.14035-.39858-.27779-.60178-.41189-.09424-.06217-.18866-.12399-.28401-.18476-.23868-.15232-.48038-.30059-.72565-.44408-.04266-.02498-.08416-.05152-.12707-.07625-.28481-.16405-.57534-.32018-.86874-.47209-.08839-.04569-.17756-.08988-.26662-.13446-.23524-.11771-.47304-.23133-.71353-.34114-.0766-.03494-.15232-.07111-.22941-.10526-.30823-.13639-.62055-.26645-.93715-.38949-.06898-.02678-.13917-.05142-.2086-.07754-.26064-.09834-.52404-.19192-.79005-.28091-.09128-.03054-.18244-.06118-.27438-.09061-.33203-.10627-.66659-.20794-1.00663-.29947-.64858-.17459-1.29769-.31926-1.94469-.42949-4.15677-.73173-8.30572-.23564-12.06379,1.25294-1.04486.41372-2.05947.90429-3.03578,1.46675-1.80058,1.03745-3.46948,2.32091-4.9573,3.81686-2.50475-2.94611-3.49021-7.07782-4.2929-10.46658-1.1186-4.7225-.44776-6.99499-2.54765-12.52333-.79745-2.09918-1.41379-3.13962-2.04245-3.10929-.2589.01246-1.18309.23842-3.19503,8.89791-1.24112,5.34105-1.24869,6.80066-2.45502,7.33751-2.41929,1.07651-5.82406-3.26447-7.79642-1.93874-.69344.46605-.93875,1.45031-.91905,2.10208.04158,1.37522,1.27256,1.59313,2.16982,3.35355,1.14127,2.23905.52996,4.59392.3962,5.0656-.38171,1.34573-1.08939,2.22407-1.54884,2.78243-2.71419,3.29869-5.86691,2.79653-7.0911,5.52683-.22171.49422-.83997,1.87306-.24644,2.72956.96521,1.39277,4.37739.31179,15.50118-1.73977,2.04739-.3776,3.68126-.66342,5.81289-.29761,1.26963.2179,2.0807.55812,2.75775.88301-.26735.71802-.505,1.45458-.70836,2.21002-.0006.00223-.00102.00445-.0016.00664-.09871.36739-.18701.73496-.26815,1.10254-.02746.12451-.05003.24896-.07556.37344-.05009.24509-.0987.49011-.14114.73506-.02584.14918-.04805.29819-.07103.44731-.03389.22003-.06589.43983-.09364.65954-.02017.15915-.03834.31805-.05534.477-.02231.20938-.04129.41832-.05813.6272-.01318.16388-.02633.32762-.03611.49117-.01228.2035-.01971.40637-.02678.60925-.00587.16603-.01342.3322-.01577.49779-.00284.20081.00046.40065.00261.60068.00338.32979.0139.65829.03074.98583.00877.16928.01437.33908.02663.50769.01541.21214.03816.42259.05905.63345.01399.14035.02597.28098.04243.42071.02527.21608.05607.43071.08713.64542.01889.13033.03739.26074.05835.39053.03563.22089.07518.44054.11687.65971.02247.11803.04586.23576.07013.35326.04702.22836.09647.45591.15.68226.02299.09701.04782.19333.07202.28998.06113.2445.12361.48841.19216.73023.01276.04465.027.08859.03989.13314,2.1707,7.48241,7.92289,13.61798,15.79574,15.73723,7.47366,2.0118,15.11361-.06848,20.68964-4.89049.89422,1.80718,1.57577,2.92185,2.3068,4.33686.99324,1.92287,1.80263,4.22046,3.42123,8.81568,1.27518,3.62045,2.15161,6.46419,4.61603,8.41304.59061.46703,1.2887.89552,2.03909.7662,1.61765-.27876,2.37602-2.95965,2.66747-3.98987,1.28344-4.53738-.47193-7.00002.94822-8.14635,1.20173-.96987,2.68465.61036,5.4007-.48562.48892-.19727,2.5953-1.11798,2.69368-2.54186.062-.89661-.69555-1.65733-2.1303-3.09801-1.47649-1.48272-2.29742-1.80816-2.3386-2.70065-.04097-.88647.72157-1.58803.95903-1.78479.82283-.68208,1.68107-.56005,3.11378-.75399.39799-.05386,2.29556-.32906,3.71604-1.05793,1.23565-.6342,3.54977-2.35047,3.37506-4.4689Z"/>
        <path class="cls-10" d="m94.74181,172.47236c-3.39909,12.62735-16.02918,20.20206-28.20775,16.92377-12.18217-3.27926-19.29958-16.1697-15.90048-28.79705,2.06004-7.65288,7.51161-13.44913,14.19843-16.09683,3.75807-1.48858,7.90702-1.98466,12.06379-1.25294.647.11023,1.29611.2549,1.94469.42949,12.17857,3.27829,19.29949,16.16967,15.90133,28.79356Z"/>
      </g>
      <g>
        <g>
          <path class="cls-3" d="m30.29141,30.03278c-1.91338.70133-2.70954-.2089-5.52807.37158-1.98917.40969-3.32004,1.21882-4.9811,2.24973-9.02489,5.60112-11.63863,7.71419-12.95923,6.82665-.81214-.54581-.74343-1.96311-.71879-2.47114.13601-2.80644,3.06478-3.44638,4.30908-7.25978.21065-.6455.52894-1.65576.40205-2.96313-.04447-.45823-.31588-2.72662-2.08009-4.29392-1.38711-1.23226-2.53809-1.0015-3.04512-2.18981-.24029-.56319-.36266-1.50781.08412-2.15266,1.27095-1.83431,5.7339.79627,7.48095-.97307.87119-.88232.37826-2.16124-.36455-7.25637-1.20436-8.26072-.47355-8.77461-.25152-8.8741.53942-.24169,1.43446.45715,2.85014,2.01982,3.7283,4.11545,3.91948,6.33217,6.5139,10.07881,2.34281,3.38321,5.33573,7.70536,10.00657,8.67109,1.21525.25124,2.25165.21486,2.73856,1.01061,1.04536,1.70849-1.20121,6.01234-4.45691,7.2057Z"/>
          <path class="cls-5" d="m12.81657,33.84185c-.25645.02836-.52387-.03955-.74316-.21124-.44448-.34844-.52259-.99127-.17452-1.43605,1.57-2.00441,4.34287-4.68979,8.6356-6.10094,2.52058-.82901,5.26373-1.0871,7.9331-.74619.56055.07133.95682.58353.88512,1.14378-.0714.55989-.58235.95836-1.14378.88512-2.36968-.30237-4.80226-.07393-7.03555.66034-3.80599,1.25115-6.26859,3.63762-7.66391,5.4194-.17674.2252-.42916.35661-.69289.38577Z"/>
          <path class="cls-5" d="m29.8336,26.73882c-.04434.0049-.08964.00723-.13566.00596-3.02165-.06449-6.03137-.49672-8.94542-1.28453-2.67611-.72301-5.27644-1.74815-7.72842-3.04627-.49916-.26435-.68952-.88338-.42551-1.3825.26435-.49916.88239-.68941,1.3825-.42551,2.31786,1.22719,4.77565,2.19608,7.30538,2.87968,2.75422.74486,5.59918,1.15311,8.45535,1.21446.5647.01192,1.01264.47955,1.00039,1.04428-.01098.51871-.40664.93893-.90862.99444Z"/>
          <path class="cls-5" d="m29.22211,25.20103c-.13435.01485-.27331.00309-.41057-.03868-2.12906-.64952-5.26467-2.02043-8.10998-4.86135-2.11331-2.10962-3.73838-4.72306-4.69932-7.5583-.1814-.53495.10545-1.11531.6404-1.29671.5337-.1806,1.11531.10545,1.29671.6404.86047,2.53854,2.31528,4.8784,4.20724,6.76731,2.54745,2.54327,5.35502,3.77058,7.26187,4.35222.54006.1647.84442.7363.67975,1.27668-.1229.40313-.47235.67489-.86612.71843Z"/>
          <path class="cls-3" d="m68.23471,31.37311c3.858-1.39114,5.20588-.09642,8.71896-1.63079,1.17518-.51328,2.19885-1.27526,4.24634-2.79931,3.94242-2.93452,4.44731-4.2299,6.47084-4.48935,1.70309-.21837,3.97696.3618,4.75106,1.94265.87773,1.79263-.55831,4.0854-1.42183,5.06288-.99257,1.1235-2.55767,2.01359-2.88725,2.19691-1.18651.65995-1.97875.84698-2.4648,1.72502-.14022.25332-.56697,1.12778-.22775,1.88891.34155.76632,1.17069.76993,2.96933,1.56112,1.74759.76874,2.67036,1.17465,2.9231,1.97989.40131,1.27875-1.12554,2.80477-1.48555,3.14461-1.99981,1.88793-3.83744,1.01368-4.55624,2.27305-.84956,1.48844,1.52824,3.04107,1.95889,7.44794.09774,1.00061.35223,3.60439-.96697,4.40181-.61191.36991-1.36891.23413-2.0452.02789-2.82196-.86067-4.56162-3.04736-6.91587-5.77674-2.98808-3.46422-4.48211-5.19629-6.00883-6.53776-1.43545-1.26129-2.6293-2.11721-4.77658-4.20239-3.13274-3.04206-3.30397-3.8538-3.24732-4.4252.20578-2.07476,3.64826-3.31608,4.96567-3.79112Z"/>
          <path class="cls-5" d="m73.17534,35.18166c-1.43115.15824-2.88086.18489-4.3379.0787-.56358-.04118-.98684-.53097-.94599-1.09451.04122-.56325.53571-.98636,1.09422-.94562,2.42585.17726,4.82983-.04936,7.14493-.67076,4.77869-1.28435,8.11887-3.97652,10.07937-6.0087.39209-.4071,1.03934-.41804,1.44611-.02592.40644.39217.41808,1.03967.02592,1.44611-2.13986,2.21848-5.78933,5.15787-11.02084,6.56363-1.14432.30773-2.3088.52692-3.48582.65706Z"/>
          <path class="cls-5" d="m84.94725,40.59104c-.15552.0172-.31698-.00113-.47324-.06022-3.02427-1.14239-6.15932-2.06285-9.31795-2.7362-2.81386-.59959-5.69525-1.0132-8.5642-1.22955-.56336-.04221-.98545-.53347-.94287-1.09653.04229-.5627.53376-.98581,1.09653-.94287,2.96046.22298,5.93342.64991,8.83679,1.26841,3.25947.69469,6.49425,1.64465,9.61463,2.82331.52816.19951.79472.78969.59525,1.31818-.14071.37228-.475.61456-.84494.65546Z"/>
          <path class="cls-5" d="m81.83029,49.88846c-.39543.04372-.79701-.14701-1.00428-.51598-1.45453-2.58875-3.33336-4.88306-5.58383-6.81841-2.19795-1.89058-4.68387-3.38055-7.38856-4.42865-.52665-.20403-.7881-.79645-.58407-1.3231.20341-.52625.79564-.78935,1.3231-.58407,2.92233,1.13222,5.60844,2.74241,7.98329,4.78493,2.43185,2.09148,4.46169,4.57006,6.03309,7.36762.27683.49224.10194,1.11582-.39067,1.39236-.1236.0696-.25539.11063-.38808.12531Z"/>
          <path class="cls-8" d="m70.24721,27.69372c1.3495,12.20507-7.10214,23.15131-18.87345,24.45285-11.77478,1.30192-22.41025-7.53389-23.75975-19.73896-.81787-7.39696,1.96535-14.33119,6.90631-18.935,2.7767-2.58787,6.23487-4.44166,10.1201-5.22449.60348-.12505,1.22059-.22071,1.84748-.29002,11.7713-1.30154,22.41017,7.5339,23.7593,19.73562Z"/>
          <path class="cls-9" d="m65.06472,25.59896c1.14711,10.37467-6.03703,19.67929-16.04298,20.78564-10.00891,1.10667-19.04937-6.40402-20.19648-16.7787-.69521-6.28763,1.67061-12.18193,5.87057-16.09531,2.36027-2.19977,5.29982-3.77554,8.60238-4.44097.51298-.10629,1.03754-.18761,1.57042-.24653,10.00595-1.10634,19.0493,6.40403,20.1961,16.77586Z"/>
          <path class="cls-6" d="m66.50562,25.96033c.55261,4.99793-.87308,9.90929-4.01642,13.8342-2.63403,3.28893-6.36323,5.20354-10.25653,5.63401s-7.9473-.62356-11.23962-3.25721c-5.36992-4.30066-6.23949-12.16518-1.93883-17.5351,3.52308-4.39906,9.96485-5.10788,14.3635-1.58815,3.62012,2.89924,4.20683,8.20553,1.30754,11.82561-2.40197,2.99916-6.79675,3.48509-9.79591,1.08312-2.5025-2.00416-2.90787-5.67042-.90366-8.17288,1.68473-2.10355,4.76815-2.44448,6.87174-.7598,1.78746,1.43154,2.07707,4.05079.64515,5.83486-.41293.51554-1.16176.59834-1.67734.18546-.51512-.4095-.5983-1.16172-.18546-1.6773.29534-.36877.43-.82609.37793-1.29708-.0517-.4676-.28339-.88784-.65217-1.18323-1.07619-.86194-2.65525-.68734-3.51715.38889-1.18137,1.47514-.94234,3.63696.53276,4.81837.95583.76547,2.15014,1.1136,3.36662.9791s2.30927-.73552,3.07479-1.69132c1.00663-1.2569,1.4637-2.83027,1.28686-4.4296s-.9666-3.03488-2.2235-4.04146c-3.37171-2.70037-8.30867-2.1545-11.00899,1.21725-3.47791,4.34257-2.77469,10.70265,1.56792,14.18051,5.55431,4.44833,13.69331,3.54841,18.14504-2.00627,5.66244-7.07418,4.51675-17.43597-2.55401-23.09887-4.34637-3.48092-9.78554-5.05747-15.31879-4.44567-2.9547.3267-5.74339,1.25586-8.23677,2.71483,2.7767-2.58787,6.23487-4.44166,10.1201-5.22449,5.41401-.10813,10.64859,1.66592,14.92386,5.09299,3.92487,3.14334,6.38909,7.62469,6.94133,12.61922Z"/>
          <path class="cls-11" d="m30.56958,36.17208c-.81787-7.39696,1.96535-14.33119,6.9064-18.93497,2.77661-2.58791,6.23478-4.44169,10.12002-5.22448.60348-.12509,1.22059-.22071,1.84748-.29002,6.69346-.74009,13.01796,1.80031,17.47933,6.37057-4.2966-6.87114-12.0784-11.05907-20.43489-10.13511-.62689.06931-1.244.16497-1.84748.29002-3.88524.78283-7.34341,2.63661-10.1201,5.22449-4.94096,4.60381-7.72418,11.53804-6.90631,18.935.58229,5.26637,2.89609,9.9026,6.28175,13.37059-1.75672-2.80906-2.93456-6.06405-3.3262-9.60609Z"/>
        </g>
        <path class="cls-10" d="m92.42188,24.3963c-.77401-1.58086-3.04797-2.16102-4.75098-1.94266-2.02353.25945-2.52842,1.55483-6.47084,4.48935-2.04749,1.52405-3.07124,2.28604-4.24642,2.79932-2.77348,1.21139-4.20156.66348-6.57665,1.06195.02465-1.0244-.01383-2.06229-.12973-3.11058-.45057-4.07505-1.94145-7.77109-4.16049-10.843-.00424-.00581-.00825-.01173-.01249-.01754-.13719-.18957-.27757-.37627-.42034-.56103-.02647-.03417-.05324-.06797-.07985-.10195-.4262-.54514-.87594-1.06834-1.34792-1.56857-.04182-.04428-.08365-.08856-.12577-.13255-.15209-.15853-.30544-.31554-.46194-.46926-.01202-.01173-.02432-.02306-.03634-.03479-.30843-.30164-.62576-.59296-.95047-.8753-.05327-.04632-.10586-.09326-.15948-.13904-.15209-.12968-.30582-.25688-.46111-.38223-.0708-.05715-.14254-.11303-.21399-.16927-.28687-.2256-.57879-.44382-.87607-.6545-.06169-.04371-.12229-.08893-.18441-.13201-.14655-.10157-.29522-.19964-.44421-.29755-.10313-.0679-.20683-.13481-.3111-.20086-.14388-.09106-.28773-.18184-.43357-.26946-.14153-.085-.28519-.16646-.42862-.2482-.20482-.11665-.41129-.22998-.61988-.33984-.14076-.0742-.28179-.14779-.42421-.21888-.13187-.06572-.26435-.13016-.39759-.19318-.16161-.07646-.32455-.14984-.48805-.22224-.13109-.05798-.26176-.11663-.39398-.17193-.23601-.0988-.47403-.19306-.71378-.28332-.11629-.04375-.23349-.08513-.35064-.12682-.18437-.06574-.36978-.12872-.55617-.1893-.109-.03538-.21752-.0717-.32716-.1053-.27764-.08528-.55715-.16553-.83895-.2393-.08563-.02239-.17218-.0418-.2581-.06311-.22128-.05492-.4436-.10649-.66718-.1542-.10368-.02211-.20741-.04385-.31158-.06436-.26084-.0515-.52293-.09843-.78652-.13996-.04585-.00724-.09123-.01625-.13721-.02318-.3052-.04597-.61267-.08307-.92123-.11548-.09293-.0097-.18602-.01782-.27916-.02633-.24598-.02242-.49282-.04038-.74069-.05409-.07894-.00433-.15753-.01005-.23663-.01353-.3162-.01377-.63382-.02061-.95277-.01984-.06948.00019-.13929.00267-.20894.00359-.26157.00321-.52392.01154-.78698.02476-.09027.00454-.18047.00894-.27094.01468-.32671.02072-.65405.04632-.98272.08266-.62689.06931-1.244.16497-1.84748.29002-3.88524.78283-7.34341,2.63661-10.1201,5.22449-.77206.71938-1.49136,1.4956-2.15258,2.32158-1.21941,1.52343-2.23947,3.21691-3.02847,5.03423-3.19854-1.71891-5.47436-4.99451-7.33607-7.68302-2.59443-3.74665-2.7856-5.96337-6.5139-10.07881-1.41577-1.56266-2.31081-2.26149-2.85014-2.01982-.22212.0995-.95293.61339.25152,8.8741.74273,5.09514,1.23566,6.37406.36455,7.25637-1.74706,1.76934-6.21001-.86124-7.48095.97307-.44686.64486-.3245,1.58949-.0842,2.15267.50703,1.18831,1.65802.95754,3.04512,2.18981,1.76429,1.56729,2.0357,3.83568,2.08017,4.29391.1268,1.30738-.1914,2.31764-.40205,2.96313-1.24438,3.81342-4.17307,4.45334-4.30908,7.25978-.02472.50804-.09343,1.92534.71871,2.47115,1.32069.88753,3.93443-1.22554,12.95923-6.82665,1.66106-1.03091,2.99194-1.84004,4.9811-2.24973,1.18477-.244,2.01044-.22409,2.71367-.17172.01196.71936.05625,1.44477.13698,2.17494.00024.00215.00064.00424.00087.00635.03942.35504.08802.70668.14287,1.05586.0186.11827.04145.23482.06174.3524.04008.23145.08143.46235.12816.69106.02846.13929.06004.27719.09099.41545.04567.204.09292.40715.14385.60877.03683.14607.07533.29124.11487.43604.05215.19072.10707.37992.16383.56834.04456.14781.08911.29549.13653.44185.05891.18214.12185.36209.1851.54191.05169.14719.10196.29508.15658.44068.06625.17656.13753.35018.20787.52436.11583.28722.23746.57087.36429.85152.06561.14502.12862.29158.19705.43483.08608.18023.178.35646.26844.5337.06027.11794.11888.23681.18109.35336.09605.1803.19644.35744.29708.53455.06112.1075.12193.2152.18468.32152.10676.18096.21652.35949.32799.53687.06005.09552.12079.19046.18223.2849.11928.18359.24039.36564.36467.54525.05331.07696.10799.15269.16222.22892.13713.19288.27525.38477.41795.57277.02644.03467.05393.06823.08045.10277,4.45901,5.7999,11.58882,9.19631,19.19838,8.35493,7.22373-.79872,13.19234-5.23258,16.41783-11.3575,1.40045,1.2742,2.37791,2.01563,3.50144,3.00276,1.52663,1.34148,3.02075,3.07354,6.00883,6.53776,2.35417,2.72939,4.09383,4.91608,6.91579,5.77675.67628.20624,1.43337.34201,2.04528-.0279,1.31911-.79741,1.06471-3.4012.96697-4.40181-.43066-4.40688-2.80845-5.9595-1.95897-7.44793.71889-1.25938,2.55643-.38511,4.55632-2.27306.36001-.33983,1.88678-1.86585,1.48547-3.1446-.25266-.80524-1.17543-1.21116-2.9231-1.97989-1.79855-.7912-2.62778-.7948-2.96925-1.56113-.33922-.76113.08745-1.63558.22775-1.88891.48606-.87805,1.27829-1.06508,2.46472-1.72502.32958-.18332,1.89468-1.0734,2.88733-2.19692.86343-.97747,2.29956-3.27024,1.42175-5.06287Z"/>
        <path class="cls-10" d="m70.24721,27.69372c1.3495,12.20507-7.10214,23.15131-18.87345,24.45285-11.77478,1.30192-22.41025-7.53389-23.75975-19.73896-.81787-7.39696,1.96535-14.33119,6.90631-18.935,2.7767-2.58787,6.23487-4.44166,10.1201-5.22449.60348-.12505,1.22059-.22071,1.84748-.29002,11.7713-1.30154,22.41017,7.5339,23.7593,19.73562Z"/>
      </g>
      <g>
        <g>
          <path class="cls-3" d="m28.0475,294.69545c-1.6053,1.25534-2.64264.63379-5.14644,2.05226-1.76704,1.0011-2.7849,2.18003-4.04882,3.67148-6.86714,8.1033-8.70512,10.91729-10.23456,10.47848-.94056-.26985-1.31068-1.63969-1.44335-2.13071-.73293-2.71246,1.85751-4.22138,1.86982-8.23264.00211-.679-.00543-1.73818-.52791-2.94332-.18312-.4224-1.13843-2.49764-3.29888-3.44701-1.69865-.74641-2.72304-.17314-3.57068-1.14816-.40173-.4621-.80844-1.32343-.58142-2.07436.64581-2.1361,5.70117-1.00416,6.82001-3.22474.55792-1.10733-.30415-2.17291-2.57665-6.79328-3.68444-7.49098-3.1469-8.20457-2.96618-8.36748.43906-.39575,1.50553-.00575,3.3329,1.0463,4.81252,2.77071,5.6756,4.82144,9.29577,7.5896,3.26905,2.49963,7.44528,5.69301,12.1869,5.17676,1.23365-.13434,2.20874-.48743,2.9166.12021,1.51977,1.30461.70437,6.09056-2.02711,8.22661Z"/>
          <path class="cls-5" d="m12.58855,303.6899c-.23533.10578-.51068.12334-.77211.02733-.53004-.195-.80191-.78273-.60735-1.31294.87813-2.38987,2.69168-5.79737,6.3431-8.45932,2.1439-1.56343,4.67502-2.65194,7.32-3.14777.55535-.10437,1.08983.26128,1.19376.81646.10409.55474-.25969,1.09094-.81646,1.19376-2.34795.44041-4.59264,1.40528-6.49226,2.79028-3.2374,2.36013-4.84754,5.38784-5.62785,7.51217-.09899.26861-.29882.47123-.54083.58001Z"/>
          <path class="cls-5" d="m26.59966,291.70153c-.04069.01829-.08308.03442-.12727.04736-2.89527.86712-5.8922,1.38063-8.90735,1.52636-2.76881.13428-5.55833-.04223-8.29057-.5241-.55624-.09818-.92761-.62877-.82974-1.18487.09818-.55624.62786-.9272,1.18487-.82974,2.58282.45559,5.21941.62237,7.83681.49556,2.84985-.1375,5.68261-.6232,8.41945-1.44246.54104-.16218,1.11101.14518,1.27288.68636.14894.49698-.09845,1.01846-.55909,1.22552Z"/>
          <path class="cls-5" d="m25.54523,290.42604c-.12328.05542-.25914.08692-.40259.08935-2.22564.03612-5.6308-.30495-9.21141-2.13413-2.65931-1.35818-5.00881-3.34582-6.79447-5.74862-.33701-.45333-.24236-1.09375.21096-1.43076.45238-.33585,1.09375-.24236,1.43076.21096,1.59889,2.15132,3.7023,3.93094,6.08315,5.1471,3.2057,1.63744,6.25456,1.94267,8.24789,1.91023.56454-.00922,1.02981.4412,1.03917,1.00604.00692.42139-.24211.78738-.60346.94981Z"/>
          <path class="cls-3" d="m64.56692,284.31173c3.24388-2.50932,4.92438-1.69142,7.79602-4.23106.9606-.84956,1.7006-1.88922,3.18073-3.9687,2.84996-4.00397,2.93238-5.39182,4.77829-6.26051,1.55359-.73113,3.89573-.87774,5.11814.38876,1.38611,1.4362.72406,4.0593.20268,5.25483-.59932,1.37414-1.81519,2.70209-2.0725,2.97781-.92632.99261-1.62275,1.41403-1.81549,2.39895-.0556.28415-.19299,1.24743.36369,1.8675.5605.62429,1.35064.37295,3.30537.57318,1.89926.19455,2.90212.29727,3.39006.98589.77483,1.09357-.20924,3.01493-.4474,3.44895-1.32293,2.41109-3.3403,2.1438-3.63735,3.56312-.35109,1.67748,2.38876,2.42434,4.15272,6.48568.40048.92216,1.44274,3.32178.4324,4.48597-.46864.54004-1.23074.64344-1.93768.65499-2.9499.0481-5.27732-1.49823-8.35635-3.37215-3.908-2.37844-5.86198-3.56762-7.72703-4.37506-1.75357-.75918-3.15267-1.20685-5.8368-2.53133-3.91594-1.93226-4.32831-2.6521-4.44998-3.21327-.44171-2.03761,2.4528-4.27668,3.56049-5.13355Z"/>
          <path class="cls-5" d="m70.43881,286.41786c-1.31328.59035-2.68467,1.06117-4.10384,1.40784-.54897.13398-1.10226-.20204-1.23654-.75087-.13385-.54866.2067-1.10326.75071-1.2361,2.36296-.57674,4.58099-1.53108,6.59314-2.8338,4.15284-2.6906,6.50417-6.2789,7.74537-8.81518.24803-.50789.8606-.71719,1.36818-.46902.50728.2483.71732.8609.46902,1.36818-1.35464,2.76868-3.92433,6.68727-8.47077,9.63256-.99439.64447-2.03519,1.21088-3.11527,1.6964Z"/>
          <path class="cls-5" d="m83.30338,287.94826c-.14272.06415-.30199.09633-.46885.08811-3.22898-.15782-6.4952-.07042-9.70792.2594-2.86197.29406-5.73104.78586-8.52768,1.46154-.54907.13294-1.10169-.20485-1.23419-.75376-.13266-.54847.20502-1.10213.75376-1.23419,2.88575-.69749,5.84606-1.20476,8.79902-1.50832,3.31524-.34049,6.68542-.43047,10.01702-.26767.56392.02756.99893.50728.9715,1.0715-.01951.3975-.26317.73078-.60265.88339Z"/>
          <path class="cls-5" d="m83.19413,297.75364c-.36286.16311-.80363.10501-1.11424-.18242-2.17963-2.01656-4.67256-3.62254-7.40884-4.77274-2.67255-1.12373-5.49604-1.77774-8.39193-1.94404-.56387-.03233-.9947-.51575-.96237-1.07962.03186-.56329.5146-.99565,1.07962-.96237,3.12885.17948,6.17979.88637,9.06737,2.10032,2.95686,1.24304,5.65012,2.97797,8.00513,5.15732.41469.38336.43988,1.03052.05607,1.44504-.09624.10422-.20904.18376-.3308.23849Z"/>
          <path class="cls-8" d="m65.35145,280.19194c5.03458,11.19991.3554,24.21358-10.44647,29.06923-10.80505,4.85708-23.64104-.28317-28.67562-11.48309-3.05124-6.78777-2.53342-14.24175.75383-20.14108,1.84716-3.31589,4.56839-6.14262,8.02511-8.08142.53586-.30444,1.09372-.58509,1.66898-.84368,10.80186-4.85565,23.64096.28321,28.67416,11.48004Z"/>
          <path class="cls-9" d="m59.77602,279.79101c4.27954,9.52025.3021,20.58225-8.8798,24.7097-9.18461,4.12866-20.09558-.24071-24.37512-9.76096-2.59364-5.76981-2.15348-12.1059.64078-17.12051,1.57014-2.81861,3.88326-5.2214,6.82158-6.86945.4555-.25878.92969-.49734,1.41869-.71716,9.1819-4.12744,20.09551.24074,24.37388,9.75837Z"/>
          <path class="cls-6" d="m61.25825,279.69213c2.06164,4.58632,2.21409,9.69815.42887,14.39905-1.49598,3.93919-4.45643,6.90708-8.02909,8.51306s-7.75441,1.84866-11.69672.35408c-6.43163-2.44252-9.67573-9.65935-7.23321-16.09098,2.00089-5.2688,7.9132-7.92276,13.18058-5.92493,4.33586,1.64659,6.52469,6.51587,4.87805,10.8517-1.36418,3.59214-5.39702,5.40498-8.98915,4.0408-2.99726-1.13823-4.50959-4.50255-3.3713-7.49979.95684-2.51946,3.78632-3.79137,6.30581-2.83458,2.14087.81303,3.2213,3.21657,2.40687,5.35432-.23453.61749-.92169.92638-1.5392.6919-.61603-.2314-.92632-.92167-.69188-1.53916.16774-.44169.15536-.91825-.03892-1.35046-.19289-.42909-.5425-.75781-.9842-.92558-1.28898-.48955-2.738.16181-3.22749,1.45082-.67093,1.76678.22081,3.75056,1.98757,4.42155,1.1448.43473,2.3883.39903,3.50459-.10276s1.97154-1.40953,2.40632-2.55431c.5717-1.50541.5232-3.14311-.13652-4.61072s-1.85239-2.59103-3.35778-3.1627c-4.03835-1.53367-8.56872.50282-10.10233,4.5412-1.97526,5.20116.64826,11.03745,5.84945,13.01266,6.65247,2.52639,14.12118-.83094,16.65068-7.48481,3.21473-8.47188-1.0595-17.98031-9.52826-21.19654-5.20571-1.97696-10.86617-1.80588-15.94372.47657-2.71136,1.21881-5.07962,2.95993-7.00406,5.11448,1.84716-3.31589,4.56839-6.14262,8.02511-8.08142,5.11885-1.76652,10.64531-1.68678,15.76681.26078,4.70086,1.78524,8.42289,5.29256,10.48314,9.87577Z"/>
          <path class="cls-11" d="m30.19869,300.45225c-3.05124-6.78777-2.53342-14.24175.75393-20.14108,1.84706-3.3159,4.56829-6.14262,8.02503-8.08139.53584-.30447,1.09372-.58509,1.66898-.84368,6.14222-2.76105,12.94134-2.28695,18.59122.69131-6.20009-5.21845-14.89226-6.81258-22.56054-3.36554-.57526.25859-1.13313.53925-1.66898.84368-3.45672,1.93881-6.17795,4.76553-8.02511,8.08142-3.28725,5.89933-3.80507,13.35331-.75383,20.14108,2.17237,4.83265,5.79884,8.53359,10.08634,10.79345-2.5349-2.13335-4.65594-4.86893-6.11703-8.11927Z"/>
        </g>
        <path class="cls-10" d="m85.44007,270.24023c-1.22233-1.26654-3.56454-1.11989-5.11806-.38879-1.8459.86869-1.92833,2.25654-4.77829,6.26051-1.48012,2.07947-2.2202,3.11917-3.1808,3.96873-2.26706,2.00502-3.79441,1.92243-5.93215,3.03144-.29132-.98241-.64686-1.95826-1.07928-2.92022-1.68095-3.73944-4.23542-6.79855-7.29104-9.03997-.00582-.00423-.01145-.00863-.01728-.01286-.1888-.13824-.37976-.27277-.5724-.40473-.03569-.02438-.07155-.04832-.10732-.07248-.5731-.38781-1.16184-.7475-1.7647-1.07849-.05341-.02928-.10681-.05857-.16042-.08749-.19345-.10412-.38762-.20641-.58379-.30461-.01504-.00747-.03023-.01447-.04527-.02195-.38619-.19227-.77769-.37199-1.17345-.54089-.06493-.02771-.12939-.05622-.19449-.0833-.18458-.07667-.36996-.15048-.55625-.22204-.08493-.03263-.17037-.06376-.25565-.09532-.34232-.12654-.68717-.2445-1.0348-.35364-.07214-.02264-.1437-.04705-.21606-.06896-.17067-.05163-.34229-.09927-.51415-.14666-.11901-.03292-.23825-.06473-.35777-.09555-.1649-.04245-.32968-.08463-.4954-.1232-.16081-.0374-.32254-.07078-.48415-.10448-.23076-.04807-.46205-.09247-.69432-.13293-.15675-.02736-.31357-.05405-.47094-.07793-.14568-.02202-.29155-.04264-.43771-.06166-.17728-.0231-.35489-.04287-.53273-.06152-.14257-.01489-.28494-.03056-.42775-.04255-.25495-.0215-.51042-.03806-.76631-.05029-.12411-.0059-.24836-.00927-.37265-.01294-.19565-.0059-.39144-.00887-.58743-.00924-.1146-.00018-.22903-.00139-.34369.00033-.29041.00416-.58106.01368-.8719.03008-.08837.005-.17669.01313-.26501.01925-.22744.01573-.45487.03497-.68229.05827-.10546.01082-.21085.02201-.31628.0345-.26405.03114-.52788.06702-.79148.10849-.04586.0072-.09181.01257-.1377.0201-.30456.05003-.60856.10921-.91214.17318-.09141.01933-.1825.0402-.27374.06073-.24097.05425-.48138.113-.72147.17612-.07645.02013-.153.03884-.22934.05984-.30514.08406-.60949.17515-.91277.27389-.06606.02153-.13173.04535-.19773.06762-.24793.08344-.49503.17197-.7413.26538-.08451.03206-.16899.06396-.25332.09722-.30454.12011-.60818.24505-.90978.38063-.57526.25859-1.13313.53925-1.66898.84368-3.45672,1.93881-6.17795,4.76553-8.02511,8.08142-.51366.92181-.95964,1.8815-1.33506,2.87071-.69229,1.82443-1.14263,3.74942-1.33503,5.72126-3.57198-.6529-6.74421-3.07071-9.34198-5.05708-3.62017-2.76817-4.48325-4.8189-9.29577-7.5896-1.82744-1.05202-2.89392-1.44202-3.3329-1.0463-.1808.16294-.71834.87653,2.96618,8.36748,2.27243,4.62041,3.1345,5.68599,2.57665,6.79328-1.11885,2.22058-6.1742,1.08864-6.82001,3.22474-.22709.75097.17962,1.6123.58135,2.0744.84764.97501,1.87203.40174,3.57068,1.14816,2.16053.94933,3.11584,3.02458,3.29896,3.44697.5224,1.20517.53003,2.26432.52791,2.94332-.01239,4.01129-2.60275,5.52019-1.86982,8.23264.13259.49106.50271,1.8609,1.44327,2.13075,1.52951.43877,3.36749-2.37522,10.23456-10.47848,1.26392-1.49144,2.28178-2.67038,4.04882-3.67148,1.05248-.59625,1.84431-.83102,2.52962-.99727.23243.68088.49747,1.35759.79867,2.02763.00089.00197.00191.00384.00278.00578.14661.32575.30091.64544.4604.96088.05405.10683.1116.21072.16704.31638.10926.20794.21956.41496.33431.61824.06989.1238.14231.24533.21424.36739.10614.1801.21353.3589.32395.53512.07993.12768.16117.254.2433.37965.10824.16547.21863.32864.33054.4905.08782.12696.1756.25381.2657.37853.11203.15523.22721.30713.34267.45881.09442.12418.1877.24947.28442.37125.1173.14766.23848.29098.35893.43512.19848.23773.40139.47028.60831.69838.10699.11785.212.23795.32113.35324.1373.14506.27892.28452.41944.42539.09359.09371.1859.18882.28091.28062.14681.14206.29677.27978.44697.4174.0912.08352.18216.16732.27455.24921.1572.1394.3165.27557.47709.41011.0865.07245.17347.14413.26096.21513.16992.13806.34112.27408.51457.40681.07438.05686.14968.11212.22471.168.18977.14141.38016.28158.57373.41663.03582.02487.07229.04835.10813.07308,6.02547,4.14914,13.85398,5.19037,20.83685,2.05144,6.62881-2.97978,10.94622-9.03316,12.13359-15.85288,1.72423.78223,2.88223,1.18743,4.25473,1.78156,1.86498.80747,3.81904,1.99662,7.72703,4.37506,3.07896,1.87395,5.40638,3.42029,8.35628,3.37218.70694-.01154,1.46911-.11498,1.93776-.65502,1.01026-1.16416-.03193-3.56381-.4324-4.48597-1.76396-4.06134-4.50381-4.8082-4.1528-6.48564.29712-1.41935,2.31442-1.15202,3.63742-3.56315.23817-.43401,1.22215-2.35535.44733-3.44891-.48787-.68865-1.49073-.79138-3.39006-.98589-1.95466-.20026-2.74487.05111-3.30529-.57321-.55669-.62007-.41936-1.58332-.36369-1.8675.19274-.98492.88917-1.40634,1.81541-2.39892.25731-.27572,1.47318-1.60367,2.07257-2.97785.52131-1.19549,1.18343-3.81863-.20275-5.2548Z"/>
        <path class="cls-10" d="m65.35145,280.19194c5.03458,11.19991.3554,24.21358-10.44647,29.06923-10.80505,4.85708-23.64104-.28317-28.67562-11.48309-3.05124-6.78777-2.53342-14.24175.75383-20.14108,1.84716-3.31589,4.56839-6.14262,8.02511-8.08142.53586-.30444,1.09372-.58509,1.66898-.84368,10.80186-4.85565,23.64096.28321,28.67416,11.48004Z"/>
      </g>
      <g>
        <g>
          <path class="cls-2" d="m70.41268,412.257c-2.03402-.75665-2.0484-2.0444-4.73137-3.52534-1.8935-1.04515-3.53067-1.3114-5.58858-1.62668-11.18101-1.71297-14.75897-1.81175-15.21353-3.44411-.27955-1.00385.757-2.1034,1.12856-2.49753,2.05247-2.17728,4.86581-.66816,8.51222-2.89338.61725-.37664,1.57408-.97402,2.37624-2.11997.28116-.40165,1.63148-2.42544,1.28836-4.91499-.2698-1.95738-1.36107-2.56723-.94899-3.87992.19531-.62213.75006-1.47137,1.55798-1.68406,2.29821-.60497,4.08967,4.61301,6.72826,4.39014,1.31578-.11115,1.80198-1.48742,4.72722-6.12533,4.74263-7.51945,5.68979-7.42957,5.93836-7.35642.60386.17773.84459,1.36282.90884,3.6074.16916,5.9113-1.21035,7.83774-1.70364,12.66578-.44541,4.35973-1.0145,9.92936,2.09749,13.94376.80969,1.04444,1.67369,1.7323,1.51702,2.71335-.3364,2.1063-5.13346,4.03476-8.59444,2.7473Z"/>
          <path class="cls-4" d="m53.63292,403.24524c-.22718-.15454-.39663-.39459-.45528-.68532-.11859-.58964.26311-1.16399.85266-1.28307,2.65799-.53566,6.76083-.78995,11.21187,1.039,2.61383,1.07357,5.01265,2.76327,6.93718,4.88671.40432.4457.37054,1.13451-.07525,1.53834-.4453.40373-1.13463.3726-1.53834-.07525-1.70865-1.88483-3.83558-3.38357-6.15133-4.33498-3.94636-1.62156-7.5912-1.39446-9.95373-.91809-.29891.05994-.59416-.00841-.82779-.16734Z"/>
          <path class="cls-4" d="m72.32195,409.27414c-.03928-.02672-.07755-.05619-.11392-.08907-2.40097-2.14353-4.53775-4.57645-6.35101-7.23094-1.66553-2.43736-3.0606-5.0668-4.14669-7.8145-.22104-.55943.05333-1.19221.61247-1.41344.55943-.22104,1.19133.05273,1.41344.61247,1.02662,2.59748,2.34527,5.08273,3.9196,7.38689,1.71363,2.50911,3.73366,4.80857,6.00287,6.83504.44879.40049.48769,1.089.08691,1.53759-.36789.41222-.97897.47849-1.42367.17598Z"/>
          <path class="cls-4" d="m72.89137,407.60629c-.11902-.08096-.22334-.18666-.30553-.31546-1.27363-1.99926-2.86264-5.27903-3.19926-9.54765-.25032-3.1701.24322-6.41005,1.42781-9.36987.22343-.55852.85727-.8297,1.41579-.60627.55695.22322.8297.85727.60627,1.41579-1.06054,2.65014-1.50253,5.55082-1.27861,8.38909.30156,3.82156,1.72445,6.75806,2.86521,8.54859.32311.50709.17383,1.18037-.33345,1.50377-.37848.24122-.8494.21931-1.19824-.01799Z"/>
          <path class="cls-2" d="m100.19478,439.60306c4.08534,1.54427,4.28016,3.52504,8.18547,4.71465,1.3064.39793,2.66229.48972,5.37427.67332,5.22187.35353,6.52706-.34545,8.3444.84509,1.52955,1.002,2.96838,3.04536,2.50077,4.8606-.53031,2.05838-3.27946,2.92014-4.65488,3.11361-1.58094.22234-3.46371-.14049-3.85734-.22023-1.41708-.28707-2.18773-.68402-3.18883-.30977-.28881.10798-1.23944.52037-1.49168,1.37118-.25394.85662.41463,1.43341,1.32278,3.31863.88237,1.83172,1.34828,2.79893.99552,3.62557-.56024,1.31272-2.85221,1.49106-3.37879,1.51694-2.92524.14391-3.80745-1.83553-5.26085-1.31375-1.71778.61669-.86789,3.51904-3.56941,7.38385-.61343.8775-2.20959,3.16103-3.82919,2.89339-.75127-.12413-1.26999-.75795-1.6746-1.39295-1.6883-2.64972-1.58286-5.62359-1.59924-9.46206-.02078-4.8719-.03119-7.30782-.3384-9.45021-.28883-2.01434-.66269-3.53337-.95742-6.70721-.43005-4.63035-.00681-5.40584.43451-5.8291,1.60253-1.5368,5.24787-.15887,6.64291.36845Z"/>
          <path class="cls-4" d="m101.55755,446.10504c-1.26783-.86245-2.45962-1.84426-3.56539-2.93864-.42763-.4234-.43122-1.11276-.00812-1.54059.4232-.42734,1.11626-.42755,1.5401-.00802,1.84071,1.82244,3.94323,3.30286,6.24707,4.40225,4.7566,2.26792,9.32331,2.40079,12.31656,2.11292.59911-.05812,1.13053.381,1.18836.97991.05753.59871-.3812,1.13083-.97991,1.18836-3.26736.31451-8.25551.16767-13.46263-2.31539-1.13915-.54294-2.23335-1.1715-3.27605-1.8808Z"/>
          <path class="cls-4" d="m107.34133,458.63074c-.13778-.09372-.25577-.2203-.34134-.37627-1.65705-3.01776-3.55736-5.93257-5.6478-8.6637-1.86243-2.43281-3.90825-4.76183-6.08053-6.92259-.42674-.42408-.42836-1.11381-.00419-1.54006.42368-.42616,1.11431-.42845,1.54006-.00419,2.24175,2.22946,4.35246,4.63264,6.27425,7.14271,2.15728,2.81819,4.11788,5.8259,5.82763,8.93953.28939.52703.09666,1.18918-.43057,1.47887-.37155.20391-.80979.16865-1.13752-.0543Z"/>
          <path class="cls-4" d="m98.38368,463.99839c-.3503-.2383-.54332-.67061-.45571-1.11269.61449-3.10193.68176-6.25923.19983-9.38322-.47042-3.0514-1.45119-5.97788-2.91485-8.69813-.28504-.52964-.08662-1.19007.44302-1.47511.52886-.28514,1.19028-.08819,1.47511.44302,1.58158,2.93897,2.64117,6.1013,3.14962,9.39811.52069,3.37589.44809,6.78684-.21633,10.13867-.11663.59-.68978.97366-1.27987.85653-.14821-.02921-.28327-.08722-.40082-.16718Z"/>
          <path class="cls-7" d="m104.37019,438.01799c-7.35513,10.8123-21.77163,13.82221-32.19967,6.72849-10.43111-7.09582-12.92361-21.60817-5.56848-32.42048,4.45762-6.55286,11.50956-10.23883,18.69495-10.54524,4.03846-.17272,8.1204.72037,11.80676,2.77582.57498.31647,1.14065.66616,1.69601,1.04395,10.42803,7.09373,12.92354,21.60812,5.57043,32.41746Z"/>
          <path class="cls-1" d="m101.62551,432.73569c-6.25207,9.19077-18.50653,11.74929-27.37066,5.71941-8.86675-6.03165-10.98545-18.36758-4.73337-27.55835,3.78911-5.57012,9.78346-8.7033,15.89126-8.96376,3.43281-.14682,6.90258.61233,10.0361,2.35953.48875.26901.96959.56626,1.44166.88739,8.86413,6.02987,10.98538,18.36754,4.73503,27.55579Z"/>
          <path class="cls-4" d="m102.54161,434.02544c-3.01189,4.42759-7.56503,7.41591-12.82563,8.417-4.40821.83886-8.75161-.19258-12.20062-2.53879s-6.00065-6.00515-6.84252-10.41541c-1.36963-7.1974,3.36976-14.16447,10.56716-15.5341,5.89611-1.12203,11.60041,2.76275,12.72442,8.65586.92336,4.85208-2.27436,9.55285-7.12645,10.47615-4.01983.76495-7.9131-1.88346-8.67806-5.9033-.6383-3.35411,1.57109-6.602,4.92521-7.24024,2.81946-.5365,5.55102,1.32166,6.08758,4.14111.4559,2.39577-1.12253,4.71612-3.51625,5.16902-.69102.13147-1.3544-.3198-1.48593-1.01081-.1335-.68796.31981-1.35434,1.01079-1.48589.49427-.09406.91978-.37099,1.20361-.78823.28179-.41424.38513-.91472.29109-1.40904-.27446-1.44247-1.67333-2.39406-3.11579-2.11953-1.97712.37627-3.2799,2.29139-2.90369,4.26853.24382,1.28109.96949,2.38946,2.04715,3.12254s2.3781,1.00299,3.6592.75923c1.68465-.32058,3.14354-1.27765,4.10734-2.69448s1.31817-3.12531.99756-4.80992c-.85995-4.51919-5.23353-7.49434-9.75271-6.63433-5.82045,1.10757-9.65322,6.74188-8.54558,12.56232,1.41666,7.44454,8.62689,12.34934,16.07443,10.93472,9.47912-1.80648,15.72343-10.98584,13.92004-20.46297-1.10857-5.82552-4.41966-10.86606-9.32148-14.20056-2.61752-1.78059-5.51767-2.95866-8.54549-3.50354,4.03846-.17272,8.1204.72037,11.80676,2.77582,4.45672,3.65962,7.46553,8.71841,8.55382,14.45114,1.00106,5.26057-.10611,10.59312-3.11597,15.01771Z"/>
          <path class="cls-11" d="m66.38866,417.41842c4.45762-6.55286,11.50956-10.23883,18.695-10.54515,4.03841-.1728,8.12035.72028,11.80669,2.77577.57501.31643,1.14065.66616,1.69601,1.04395,5.92965,4.03367,9.29018,10.46706,9.73787,17.25385,1.27815-8.53498-2.12158-17.31045-9.52447-22.34631-.55535-.37778-1.12103-.72748-1.69601-1.04395-3.68636-2.05546-7.7683-2.94854-11.80676-2.77582-7.1854.30641-14.23733,3.99238-18.69495,10.54524-3.17367,4.6654-4.50979,10.0192-4.16984,15.16932.52238-3.4894,1.82192-6.93906,3.95646-10.07691Z"/>
        </g>
        <path class="cls-10" d="m124.59967,450.6967c.46769-1.81519-.97122-3.8586-2.5007-4.86055-1.81733-1.19053-3.12253-.49155-8.3444-.84509-2.71198-.1836-4.06795-.27544-5.37435-.67337-3.08317-.93912-3.85978-2.37099-6.05787-3.69232.72895-.81204,1.41616-1.6787,2.04789-2.60737,2.45574-3.61003,3.80718-7.63331,4.13731-11.65543.00059-.00764.00145-.0152.00203-.02284.02017-.24838.03577-.49665.04809-.745.00222-.04598.00396-.09186.00593-.13779.03235-.7362.03047-1.47093-.00532-2.20246-.0032-.06478-.00641-.12957-.01006-.19433-.01338-.23357-.02882-.46678-.04909-.69952-.0016-.01781-.00372-.0355-.00533-.05331-.04086-.4576-.09607-.91302-.16347-1.36627-.01106-.07436-.02113-.14874-.03285-.22291-.03334-.21022-.06973-.41957-.10866-.6285-.01774-.09526-.03714-.19013-.05604-.28511-.07604-.38114-.16127-.75981-.25606-1.13607-.01967-.07808-.03743-.15662-.05789-.23448-.04831-.18364-.10076-.36591-.15359-.54828-.03648-.12633-.0741-.25226-.11277-.37789-.05342-.17329-.10702-.34632-.16441-.51818-.05572-.16676-.11561-.33211-.17513-.49754-.08504-.23617-.17371-.47079-.26649-.70409-.06257-.15748-.12578-.31464-.19185-.47075-.06124-.14446-.12386-.28831-.18809-.43153-.07788-.17374-.15897-.3459-.24119-.51767-.06597-.13766-.13113-.27557-.19988-.41184-.12264-.24331-.25004-.48434-.38161-.72333-.06384-.11589-.13006-.23051-.19602-.34533-.10372-.18081-.21019-.36011-.31913-.53815-.06373-.10408-.12643-.20858-.19191-.31166-.16569-.26118-.33636-.51959-.5134-.77433-.0538-.07739-.11043-.153-.16522-.22972-.14108-.1976-.28533-.39322-.43326-.58657-.06861-.08966-.13752-.17904-.20764-.26774-.17547-.22222-.35511-.4416-.53971-.65765-.0321-.03759-.06259-.07629-.09501-.11373-.21519-.24844-.43838-.49127-.66568-.73106-.0685-.07217-.13822-.14318-.20772-.21452-.18358-.18839-.37092-.37377-.56204-.55642-.06089-.05814-.12054-.11716-.18215-.17472-.24639-.23-.49873-.45536-.7574-.67549-.05636-.04794-.11459-.09424-.1716-.14171-.21393-.17844-.43203-.35328-.65409-.52465-.0762-.0588-.15225-.11767-.22944-.17564-.27876-.20936-.56142-.41519-.85258-.61326-.55535-.37778-1.12103-.72748-1.69601-1.04395-3.68636-2.05546-7.7683-2.94854-11.80676-2.77582-1.12277.04788-2.24218.17828-3.34902.38916-2.04133.38903-4.03903,1.05366-5.93541,1.97845-1.39909-3.60498-.97393-7.83126-.61996-11.29575.4933-4.82803,1.87281-6.75447,1.70364-12.66578-.06432-2.24463-.30505-3.42971-.90884-3.6074-.24864-.0732-1.1958-.16308-5.93836,7.35642-2.92531,4.63786-3.41151,6.01413-4.72722,6.12533-2.63859.22287-4.43005-4.99511-6.72826-4.39014-.80799.21264-1.36275,1.06188-1.55805,1.68401-.41208,1.31269.6792,1.92254.94899,3.87992.34319,2.48959-1.00713,4.51339-1.28829,4.91504-.80224,1.14591-1.75899,1.74333-2.37624,2.11997-3.64649,2.22517-6.45975.7161-8.51222,2.89338-.37163.39408-1.40818,1.49363-1.12863,2.49748.45463,1.63241,4.03258,1.73119,15.21353,3.44411,2.05791.31528,3.69508.58152,5.58858,1.62668,1.12779.62252,1.78227,1.21009,2.31519,1.7392-.4882.5905-.95443,1.20827-1.39445,1.85512-.0013.00191-.00242.00387-.00369.00574-.21382.31464-.41787.63287-.61515.95346-.0668.1086-.12897.21874-.19393.32795-.12776.21507-.25409.43057-.37457.64802-.07337.13244-.14325.2659-.2139.39922-.10423.19672-.2066.39384-.30492.59227-.07128.14371-.14061.28785-.20883.43242-.08979.19046-.17629.3816-.26076.57337-.06623.15047-.13239.30083-.19532.45211-.07839.18819-.15199.37739-.22525.56671-.06003.15491-.12171.30939-.17828.46504-.06858.18875-.13106.37861-.19468.56826-.10504.31263-.20292.62639-.29451.94131-.04727.16278-.09771.32502-.14147.48831-.05507.20545-.10265.4117-.15212.61774-.03285.13717-.06768.27394-.098.41133-.04705.21241-.0884.42526-.12952.63826-.02493.12931-.05026.25857-.07305.38805-.03884.22035-.07357.44081-.10612.66153-.01751.11887-.03406.23775-.0497.35671-.03053.23115-.0585.46232-.08223.6937-.01012.09919-.01828.19832-.02714.29755-.02251.25102-.04353.50192-.05815.75285-.0026.04637-.00357.09255-.00602.13885-.40528,7.78037,3.01458,15.46395,9.75579,20.04969,6.3994,4.35323,14.29891,4.89562,21.14866,2.17078.25157,2.00057.52953,3.27717.75566,4.85372.30713,2.14234.31762,4.57831.3384,9.45021.01631,3.83842-.08913,6.81229,1.59916,9.46201.40461.63499.9234,1.26887,1.67467,1.393,1.61953.26759,3.21576-2.01589,3.82919-2.89339,2.70152-3.86481,1.85163-6.76716,3.56934-7.3839,1.45347-.52173,2.33562,1.45766,5.26093,1.3138.52658-.02588,2.81847-.20427,3.37871-1.51699.35283-.8266-.11308-1.7938-.99552-3.62557-.90808-1.88517-1.57672-2.46201-1.3227-3.31858.25224-.85081,1.20279-1.26325,1.49168-1.37118,1.00111-.37425,1.77176.0227,3.18876.30972.39363.07974,2.2764.44257,3.85741.22028,1.37535-.19352,4.12457-1.05523,4.65481-3.11366Z"/>
        <path class="cls-10" d="m104.37019,438.01799c-7.35513,10.8123-21.77163,13.82221-32.19967,6.72849-10.43111-7.09582-12.92361-21.60817-5.56848-32.42048,4.45762-6.55286,11.50956-10.23883,18.69495-10.54524,4.03846-.17272,8.1204.72037,11.80676,2.77582.57498.31647,1.14065.66616,1.69601,1.04395,10.42803,7.09373,12.92354,21.60812,5.57043,32.41746Z"/>
      </g>
      <g>
        <g>
          <path class="cls-2" d="m38.47413,534.35479c-1.892,1.06305-2.88393.24173-5.74805,1.33184-2.02133.76936-3.28263,1.84655-4.85328,3.2131-8.53364,7.42472-10.92152,10.09108-12.46091,9.38291-.94668-.43549-1.11576-1.93712-1.17637-2.47537-.33485-2.97339,2.63503-4.14478,3.29379-8.36544.11154-.71444.27412-1.83066-.08186-3.18341-.12477-.47414-.79631-2.81255-2.91776-4.15977-1.66799-1.05923-2.83866-.62067-3.57399-1.78353-.3485-.55113-.63797-1.52332-.27809-2.27728,1.02375-2.14469,6.16327-.1392,7.69858-2.29666.7656-1.07586.02966-2.33638-1.61872-7.5661-2.67257-8.47892-1.99181-9.14357-1.77534-9.28597.52591-.34591,1.5858.23634,3.34008,1.63803,4.62004,3.69152,5.19844,5.98927,8.56371,9.48615,3.03888,3.15766,6.92106,7.19169,11.99566,7.41163,1.32029.0572,2.4036-.15751,3.05095.59612,1.38982,1.61804-.23908,6.52492-3.4584,8.33376Z"/>
          <path class="cls-4" d="m20.75245,541.33435c-.26476.07347-.55745.04762-.8172-.09553-.52658-.29061-.71815-.95308-.42797-1.47991,1.30917-2.37443,3.76689-5.66952,8.0393-7.88387,2.50858-1.30065,5.34834-2.03902,8.21252-2.13514.60141-.02046,1.10519.45051,1.12521,1.05168.02027.60073-.44901,1.10662-1.05168,1.12521-2.54258.08561-5.06091.73993-7.28361,1.89208-3.78797,1.96328-5.97042,4.89132-7.13387,7.00197-.14745.26683-.39043.44795-.66271.52351Z"/>
          <path class="cls-4" d="m37.43201,530.97c-.04578.0127-.093.02286-.1416.02936-3.18745.44668-6.42498.50475-9.62248.17273-2.93633-.30441-5.84444-.93934-8.64307-1.88648-.56974-.1929-.87526-.81124-.6827-1.38089.1929-.56974.81022-.87498,1.38089-.6827,2.64557.89543,5.39425,1.49549,8.17,1.78339,3.02217.31408,6.0824.25886,9.09536-.16296.59566-.08362,1.14618.3317,1.22945.92746.07678.54715-.26761,1.05628-.78586,1.20009Z"/>
          <path class="cls-4" d="m36.52736,529.45754c-.1387.03849-.28679.04978-.43819.02925-2.34874-.3203-5.87843-1.22757-9.35323-3.72961-2.58078-1.85789-4.73409-4.32855-6.227-7.14545-.28178-.53147-.07904-1.19041.45243-1.47219.53029-.28072,1.19041-.07904,1.47219.45243,1.33678,2.5221,3.26452,4.73415,5.57504,6.39771,3.111,2.23984,6.27139,3.05201,8.37498,3.33879.59577.08119,1.01305.63025.93196,1.22636-.06056.44471-.38164.78989-.78817.90271Z"/>
          <path class="cls-2" d="m78.58976,529.30344c3.81882-2.11929,5.4562-.98773,8.88803-3.19887,1.148-.73967,2.09438-1.71499,3.98729-3.66574,3.64477-3.75613,3.95498-5.20385,6.03802-5.82112,1.75317-.51953,4.24234-.29679,5.32525,1.23326,1.22792,1.73504.10867,4.38979-.63266,5.56437-.85214,1.35007-2.34587,2.55224-2.66113,2.80106-1.13494.89578-1.93592,1.22728-2.29739,2.23308-.10427.29017-.404,1.28209.08219,2.02447.48953.74743,1.36177.61005,3.38727,1.13554,1.96802.51058,3.00719.78018,3.40998,1.58364.63959,1.27594-.70566,3.14012-1.02626,3.55867-1.78083,2.32516-3.86147,1.71899-4.40268,3.16527-.63966,1.70935,2.12432,2.93668,3.32737,7.49603.27311,1.03523.98397,3.7291-.26704,4.79199-.58028.49304-1.39919.4792-2.14524.37754-3.11309-.42429-5.3142-2.42682-8.25379-4.89521-3.73101-3.13296-5.5965-4.69939-7.42984-5.84965-1.72375-1.08151-3.1245-1.77802-5.73684-3.60444-3.81121-2.66454-4.12942-3.48871-4.16715-4.09903-.13694-2.2161,3.27059-4.10715,4.57461-4.83084Z"/>
          <path class="cls-4" d="m84.43199,532.46592c-1.47753.41002-2.99699.68487-4.54676.82132-.59947.05266-1.12781-.39015-1.18082-.98952-.05257-.59913.39522-1.12812.98928-1.18038,2.58033-.2267,5.06889-.87423,7.39682-1.92165,4.80486-2.16379,7.85781-5.56261,9.57275-8.03272.34287-.49472,1.02141-.61643,1.5158-.27346.49404.34306.61652,1.02176.27346,1.5158-1.87178,2.69649-5.20776,6.40786-10.46798,8.77638-1.15055.51833-2.33739.94703-3.55255,1.28424Z"/>
          <path class="cls-4" d="m97.72809,536.14814c-.16056.04456-.33342.05279-.50774.01727-3.37373-.686-6.82613-1.11984-10.26126-1.28989-3.06013-.15122-6.15957-.09542-9.21236.16562-.59941.05154-1.12677-.39302-1.17787-.99218-.05135-.59873.39326-1.1272.99218-1.17787,3.15011-.26965,6.34809-.32704,9.50553-.17118,3.54476.17531,7.10702.62319,10.58797,1.33095.58919.11981.9699.69484.85018,1.28437-.08454.41531-.3947.72692-.77664.83291Z"/>
          <path class="cls-4" d="m96.03444,546.45264c-.40824.11329-.86288-.01884-1.14359-.37142-1.96982-2.47374-4.33557-4.56571-7.03086-6.21705-2.63247-1.61322-5.49945-2.75627-8.52117-3.39757-.58838-.12482-.96409-.70307-.83927-1.29145.12423-.58785.70201-.96526,1.29145-.83927,3.26484.69267,6.36274,1.92801,9.20704,3.67083,2.91255,1.78459,5.46841,4.04456,7.59665,6.71791.37483.47033.29715,1.15564-.17362,1.53022-.11809.09421-.24964.15979-.38663.1978Z"/>
          <path class="cls-7" d="m80.07891,525.09287c3.49672,12.60067-3.52422,25.54677-15.67705,28.91922-12.15642,3.37344-24.84125-4.10426-28.33797-16.70493-2.11921-7.63671-.37403-15.40012,4.03624-21.08108,2.47835-3.19324,5.79808-5.73081,9.7491-7.21526.61311-.23421,1.24555-.43984,1.89277-.61944,12.15284-3.37245,24.84117,4.10429,28.33693,16.70149Z"/>
          <path class="cls-1" d="m74.27422,523.77317c2.97231,10.71093-2.99569,21.7155-13.32595,24.58218-10.33332,2.86752-21.11579-3.48874-24.0881-14.19968-1.80139-6.49143-.31793-13.09055,3.43092-17.91954,2.10667-2.71435,4.92853-4.87135,8.28702-6.13318.52116-.19908,1.05876-.37387,1.60891-.52654,10.33027-2.86668,21.11572,3.48876,24.08722,14.19676Z"/>
          <path class="cls-4" d="m75.85048,523.90772c1.43189,5.15992.76938,10.56567-1.86675,15.22688-2.20901,3.90592-5.8033,6.55358-9.82279,7.669-4.01949,1.11542-8.46067.69763-12.3701-1.51041-6.37731-3.60671-8.63047-11.72614-5.02376-18.10345,2.95459-5.22431,9.60575-7.06625,14.82905-4.1151,4.29924,2.43142,5.81948,7.90969,3.388,12.20891-2.01439,3.5618-6.55161,4.82089-10.11341,2.8065-2.97196-1.68077-4.02233-5.46586-2.34151-8.43778,1.41289-2.49818,4.59625-3.38157,7.09446-1.96873,2.12279,1.20055,2.87319,3.90469,1.67167,6.02398-.34631.61227-1.11941.8268-1.7317.48055-.61124-.34277-.82675-1.11937-.48054-1.73166.24769-.43796.31139-.94163.17645-1.42789-.13397-.48276-.44908-.88508-.88705-1.13281-1.27809-.72287-2.90833-.27047-3.63114,1.00765-.99074,1.75187-.37138,3.98375,1.38045,4.97455,1.13514.64195,2.44992.80457,3.70582.45605s2.30236-1.16639,2.94436-2.3015c.8442-1.49269,1.05681-3.2245.5986-4.87567s-1.53286-3.0258-3.02554-3.86996c-4.00424-2.26465-9.10122-.85023-11.36582,3.15404-2.91673,5.15723-1.09459,11.72346,4.06268,14.64013,6.59629,3.73056,14.99909,1.39876,18.73315-5.1985,4.74809-8.40075,1.77947-19.09839-6.61776-23.84755-5.16175-2.91925-11.14804-3.65048-16.86062-2.06522-3.05047.84651-5.82384,2.2981-8.19657,4.25635,2.47835-3.19324,5.79808-5.73081,9.7491-7.21526,5.673-1.03548,11.47785-.06179,16.55568,2.81295,4.66116,2.63614,8.01466,6.92753,9.44558,12.08395Z"/>
          <path class="cls-11" d="m39.81182,540.76131c-2.11921-7.63671-.37403-15.40012,4.03633-21.08106,2.47825-3.19326,5.79798-5.73083,9.74901-7.21524.6131-.23425,1.24555-.43984,1.89277-.61944,6.91041-1.91766,13.99149-.32393,19.45961,3.7209-5.68665-6.49165-14.58022-9.56921-23.20756-7.1751-.64721.1796-1.27966.38523-1.89277.61944-3.95102,1.48445-7.27075,4.02202-9.7491,7.21526-4.41026,5.68097-6.15544,13.44437-4.03624,21.08108,1.5088,5.43707,4.73053,9.91689,8.88013,12.98612-2.32501-2.65388-4.11741-5.87511-5.13219-9.53196Z"/>
        </g>
        <path class="cls-10" d="m102.82833,517.85096c-1.08283-1.53007-3.57208-1.75279-5.32517-1.23328-2.08304.61728-2.39324,2.06499-6.03802,5.82112-1.89291,1.95076-2.83938,2.92609-3.98738,3.66577-2.70933,1.74568-4.30387,1.41284-6.73281,2.23612-.14851-1.08108-.36567-2.1656-.666-3.24787-1.16749-4.20713-3.36406-7.8387-6.21983-10.69019-.00545-.00539-.01067-.01093-.01612-.01632-.17649-.17592-.35586-.34829-.5374-.51821-.03364-.03141-.06754-.06239-.1013-.09358-.54086-.50051-1.10272-.97394-1.68406-1.41943-.05151-.03943-.10301-.07885-.15479-.11793-.18688-.14075-.37482-.2797-.56551-.41465-.01463-.01029-.02949-.0201-.04412-.03039-.37559-.26458-.75878-.5168-1.14821-.75831-.06389-.03962-.12716-.08001-.19133-.11901-.18196-.11043-.36523-.21797-.54982-.3233-.08415-.04803-.16909-.09455-.25377-.14151-.33998-.18832-.68401-.36802-1.0324-.53887-.07229-.03545-.1437-.07267-.21634-.10738-.17135-.08182-.34434-.15961-.51764-.23717-.11998-.05381-.24038-.1065-.36124-.15818-.16676-.07123-.33343-.14217-.50167-.20945-.16326-.06526-.32815-.12643-.49285-.18794-.23518-.08775-.47152-.17173-.7095-.25171-.16061-.05404-.32139-.10738-.48321-.15786-.14981-.04664-.30005-.09183-.45085-.13538-.18291-.05286-.36669-.10226-.5509-.15053-.14768-.03863-.29503-.07804-.44344-.11366-.26492-.06368-.53119-.12224-.79859-.17631-.1297-.02619-.25995-.04974-.3902-.07362-.20501-.03771-.41064-.07236-.6169-.1043-.12061-.01864-.24087-.03834-.36185-.05499-.30638-.04238-.61388-.07915-.92268-.10871-.09383-.00896-.18812-.01462-.28207-.0224-.24196-.02005-.48447-.03642-.72762-.04851-.11276-.00559-.2255-.01078-.3385-.0146-.28297-.00973-.56649-.01444-.85065-.01322-.04943.0002-.09867-.00155-.14819-.00101-.32866.00364-.65821.01699-.98809.03545-.09934.00563-.19859.01293-.29794.01986-.2624.01832-.52494.04146-.78785.06925-.08372.00888-.16731.01626-.25106.02607-.33475.03936-.6698.08625-1.00497.14137-.07301.01203-.14598.02653-.21904.03935-.27443.04792-.5488.10133-.82309.16002-.09412.02014-.18819.04013-.28232.06156-.33992.0774-.67968.16005-1.019.25421-.64721.1796-1.27966.38523-1.89277.61944-3.95102,1.48445-7.27075,4.02202-9.7491,7.21526-.68914.88769-1.31313,1.82615-1.86759,2.80704-1.0225,1.80911-1.8065,3.76304-2.3265,5.80782-3.6551-1.26238-6.60523-4.31833-9.02009-6.82761-3.36528-3.49688-3.94367-5.79463-8.56371-9.48615-1.75437-1.40167-2.81426-1.98392-3.34008-1.63803-.21656.14242-.89731.80707,1.77534,9.28597,1.6483,5.22975,2.38424,6.49027,1.61872,7.5661-1.53532,2.15746-6.67483.15197-7.69858,2.29666-.35996.75398-.07049,1.72618.27801,2.27731.73534,1.16286,1.906.72431,3.57399,1.78353,2.12154,1.3472,2.79308,3.68561,2.91785,4.15974.3559,1.35278.1934,2.46898.08186,3.18341-.65885,4.22068-3.62865,5.39204-3.29379,8.36544.06052.53828.2296,2.0399,1.17628,2.4754,1.53947.70814,3.92735-1.95822,12.46091-9.38291,1.57065-1.36655,2.83195-2.44374,4.85328-3.2131,1.20393-.45823,2.0753-.57788,2.82348-.64256.13506.75418.30512,1.50922.51431,2.26306.00062.00222.00139.00435.002.00653.10189.36652.21285.7279.32997,1.08564.03969.12116.08356.23979.12491.35995.08154.23649.16433.47217.25239.70465.05364.14158.11031.28117.16638.42124.08274.20668.167.41219.25487.61547.06359.14728.12877.29334.19499.43883.0873.19161.17724.38116.26899.56956.07201.14779.14399.29546.21875.44125.09294.18145.18974.35989.28686.53816.0794.14593.15743.29284.23963.4366.0997.17433.2042.3447.3078.51584.17067.28222.34682.55969.52793.83312.09366.14128.18486.28463.28118.42356.12118.17481.24781.34442.37306.51534.08344.11372.16529.2287.25053.34063.13167.17318.26737.34231.40332.51136.08256.1026.16482.20547.24889.30655.14304.17205.28882.34104.4362.50853.07939.09019.15941.17965.24007.26848.15665.17269.31496.34345.47619.5111.06914.07183.13952.14212.20951.21303.177.17941.35486.35762.53689.53095.0337.03195.06831.06254.10207.09434,5.67499,5.33787,13.7484,7.69436,21.6046,5.51424,7.45787-2.06958,12.97737-7.74686,15.32528-14.73479,1.68916,1.10104,2.84294,1.71404,4.19211,2.56045,1.83325,1.15028,3.69883,2.71669,7.42984,5.84965,2.93951,2.46841,5.14061,4.47094,8.25371,4.89523.74605.10167,1.56504.11548,2.14533-.37756,1.25093-1.06286.54016-3.75675.26704-4.79199-1.20305-4.55935-3.96704-5.78668-3.32746-7.49601.54129-1.4463,2.62185-.84011,4.40276-3.1653.32059-.41854,1.66576-2.2827,1.02617-3.55864-.4027-.80348-1.44187-1.07308-3.40998-1.58364-2.02542-.52551-2.89775-.38811-3.38719-1.13556-.48619-.74237-.18655-1.73428-.08219-2.02447.36146-1.00579,1.16245-1.3373,2.2973-2.23305.31526-.24882,1.809-1.451,2.66122-2.80109.74125-1.17456,1.86059-3.82933.63258-5.56435Z"/>
        <path class="cls-10" d="m80.07891,525.09287c3.49672,12.60067-3.52422,25.54677-15.67705,28.91922-12.15642,3.37344-24.84125-4.10426-28.33797-16.70493-2.11921-7.63671-.37403-15.40012,4.03624-21.08108,2.47835-3.19324,5.79808-5.73081,9.7491-7.21526.61311-.23421,1.24555-.43984,1.89277-.61944,12.15284-3.37245,24.84117,4.10429,28.33693,16.70149Z"/>
      </g>
    </g>
  </g>
</svg>