<svg id="Base" xmlns="http://www.w3.org/2000/svg" viewBox="0 0 871.87 279.92"><defs><style>.cls-1{fill:#999999;}.cls-2{fill:#bf5700;}</style></defs><path class="cls-1" d="M156.2,122.19l-2.72,15c-5.62,2.71-16.56,6.88-25.32,8.13-19.38,0-37.52-13.13-37.52-37.41S106.8,71.74,130,68.62c10.83,0,20.43,4.89,24.9,8.13V90.81h-5.73l-3.33-9.69A23.77,23.77,0,0,0,128.58,74c-15.43,0-26,10.94-26,31.37,0,16.88,10.32,34.18,28.55,34.18,6.26,0,10.84-3.44,13.66-5.84l5.63-11.56Z"/><path class="cls-1" d="M189.34,139.9c8.34,0,12.61-8.54,12.61-19.8C202,106.86,195.59,98,186.53,98c-8.44,0-12.61,8.54-12.61,19.9,0,11.88,6.15,22,15.42,22Zm23-22c0,15.53-9.48,24.49-25.63,27.1-13.87,0-23.25-10.73-23.25-24.91,0-15.63,9.49-24.49,25.64-27.2,13.86,0,23.24,10.84,23.24,25Z"/><path class="cls-1" d="M248.75,100.09c-1.67-1.25-3.24-1.67-6.05-1.67-7.09,0-12.51,7.92-12.51,19.28,0,11.16,6.05,19.49,16.26,19.49,4,0,8.13-2,11.78-4.38l1.67,4a59,59,0,0,1-17,8.23c-13.34,0-23.24-8.76-23.24-24.81,0-16.36,12-24.17,24.8-27.3,4.8,0,11.26,2.4,14.39,5.21v10.42h-7.72l-2.39-8.44Z"/><polygon class="cls-1" points="307.94 143.24 301.69 143.55 282.41 119.47 281.26 116.87 281.26 138.86 287 139.9 286.47 143.55 276.57 143.24 264.59 143.55 264.07 139.9 271.36 138.86 271.36 76.12 264.07 76.33 263.55 72.68 276.05 69.45 281.26 69.03 281.26 115.1 284.08 113.85 300.96 99.05 297.94 98.01 297.94 94.36 306.59 94.67 314.41 94.36 314.92 98.01 309.4 99.05 289.7 115 292 116.35 312.11 138.86 316.8 139.9 316.28 143.55 307.94 143.24 307.94 143.24"/><path class="cls-1" d="M337.34,108l11.88-14.59h8.33v10.42h-7.71c-2.5.52-7.08,4-9.9,7.4l-2.08,2.5v24.81l10.94,1-.52,4-15.12-.31-11.67.31L321,139.9l7.3-1v-38l-7.3.63-.52-3.65L333,94.57l4.17-.31.21,13.75Z"/><path class="cls-1" d="M392.67,111.66c0-8-1.56-13.55-9.58-13.55-6.36,0-10.42,5.94-11.26,14.59l20.84-1Zm-20.94,5.21c0,11.88,6.36,20.32,17.3,20.32,4.17,0,9.17-2,13-4.38l1.66,4A64,64,0,0,1,385.49,145c-12.61,0-24-9-24-25.33,0-15.42,9.27-23.65,23.55-26.78,13.75,0,18.44,8.65,18.44,19.59v4.38Z"/><polygon class="cls-1" points="419.88 143.24 407.89 143.55 407.37 139.9 414.67 138.86 414.67 76.12 407.37 76.33 406.85 72.68 419.36 69.45 424.57 69.03 424.57 138.86 432.38 139.9 431.86 143.55 419.88 143.24 419.88 143.24"/><polygon class="cls-1" points="448.02 143.24 436.03 143.55 435.51 139.9 442.81 138.86 442.81 76.12 435.51 76.33 434.99 72.68 447.5 69.45 452.71 69.03 452.71 138.86 460.52 139.9 460 143.55 448.02 143.24 448.02 143.24"/><path class="cls-1" d="M502.21,133c3.13,3.86,8.86,6.57,14.7,6.57,9,0,14.17-5.63,14.17-13.24,0-7.08-4.59-11.15-10.84-13.86L507.63,107c-7.5-3.23-13.65-8-13.65-17.3,0-11.36,10.42-18,24.91-21a33.4,33.4,0,0,1,19.07,6V88.73h-5.21l-3-9.48c-2.71-2.82-6.05-5.11-12.3-5.11-8.24,0-13.14,4.48-13.14,11.46,0,5.74,4.07,9.28,9.8,11.78l12,5.21c8.23,3.54,15.42,8.76,15.32,19.39,0,9.79-6.67,19.28-26.27,23.34-9.58,0-16.05-2.71-21.57-7.09l-2.29-14.06h7.29l3.65,8.85Z"/><path class="cls-1" d="M577.36,100.09c-1.67-1.25-3.24-1.67-6.05-1.67-7.09,0-12.5,7.92-12.5,19.28,0,11.16,6,19.49,16.25,19.49,4,0,8.13-2,11.78-4.38l1.67,4a59,59,0,0,1-17,8.23c-13.34,0-23.24-8.76-23.24-24.81,0-16.36,12-24.17,24.81-27.3,4.79,0,11.25,2.4,14.38,5.21v10.42h-7.72l-2.39-8.44Z"/><path class="cls-1" d="M610.39,138.86l5.74,1-.52,3.65-9.91-.31-12,.31-.52-3.65,7.29-1V76l-7.29.2-.52-3.54,12.5-3.23,5.21-.42V102.8l15.22-9.9c13.34,0,15.53,5,15.53,18.24v27.72l7.81,1-.51,3.65-12-.31-9.8.31-.52-3.65,5.11-1V109.05c0-5.42-2.5-7.81-6.67-7.81-3.13,0-7.19,2.29-11.05,4.69l-3.13,2v31Z"/><path class="cls-1" d="M677.1,139.9c8.34,0,12.61-8.54,12.61-19.8,0-13.24-6.36-22.09-15.43-22.09-8.44,0-12.61,8.54-12.61,19.9,0,11.88,6.15,22,15.43,22Zm23-22c0,15.53-9.48,24.49-25.64,27.1-13.86,0-23.24-10.73-23.24-24.91,0-15.63,9.48-24.49,25.64-27.2,13.86,0,23.24,10.84,23.24,25Z"/><path class="cls-1" d="M732.75,139.9c8.34,0,12.61-8.54,12.61-19.8C745.36,106.86,739,98,729.94,98c-8.44,0-12.61,8.54-12.61,19.9,0,11.88,6.15,22,15.42,22Zm23-22c0,15.53-9.48,24.49-25.63,27.1-13.86,0-23.24-10.73-23.24-24.91,0-15.63,9.48-24.49,25.63-27.2,13.86,0,23.24,10.84,23.24,25Z"/><polygon class="cls-1" points="771.94 143.24 759.96 143.55 759.43 139.9 766.73 138.86 766.73 76.12 759.43 76.33 758.91 72.68 771.42 69.45 776.63 69.03 776.63 138.86 784.45 139.9 783.93 143.55 771.94 143.24 771.94 143.24"/><path class="cls-1" d="M125.09,238.4c8.34,0,12.61-8.55,12.61-19.8,0-13.24-6.35-22.1-15.42-22.1-8.44,0-12.61,8.55-12.61,19.91,0,11.88,6.15,22,15.42,22Zm23-22c0,15.53-9.48,24.49-25.63,27.1-13.86,0-23.25-10.74-23.25-24.91,0-15.64,9.49-24.49,25.64-27.2,13.87,0,23.24,10.84,23.24,25Z"/><path class="cls-1" d="M171.57,194h13v4.9h-13v38.46l12,.73-.52,4-16.16-.31-12,.31-.52-3.65,7.29-1V198.9H152.5v-1.77l3.13-3.65h6v-1c0-6.25,2-10.32,5.73-14.59l8.76-9.9h13.13v8.33H175.74l-2,2.82c-1.46,2-2.19,5-2.19,11.78V194Z"/><polygon class="cls-1" points="275.27 168.88 276.31 187.65 272.77 187.65 266.93 174.1 239.32 173.78 239.32 201.51 253.91 201.09 258.07 190.15 261.73 190.15 260.68 203.17 261.73 217.24 258.07 217.24 253.91 206.3 239.32 205.88 239.32 237.15 267.98 236.84 274.96 222.77 278.92 222.77 275.27 242.05 233.9 241.74 219.52 242.05 218.99 238.4 228.37 237.04 228.37 173.89 218.99 172.53 219.52 168.88 233.9 169.2 275.27 168.88 275.27 168.88"/><path class="cls-1" d="M296.12,241.74l-12,.31-.52-3.65,7.3-1v-38l-7.3.62-.52-3.65,12.51-3.23,4.48-.31.52,8.76L316,191.4c13.34,0,15.53,4.48,15.53,17v29l7.92,1-.52,3.65-12-.31-10,.31-.52-3.65,5.21-1V207.55c0-5.42-2.4-7.82-6.88-7.82-3.65,0-7.29,2.3-10.83,4.69l-3.13,2.09v30.85l5.73,1-.52,3.65-9.9-.31Z"/><path class="cls-1" d="M362.09,196.19c-5.62,0-8.86,4.38-8.86,11.05,0,5,2.19,13.13,10.74,13.13,5.63,0,8.86-3.86,8.86-9.9,0-5.42-2.19-14.28-10.74-14.28Zm-6.77,47.32c-5.32,5.83-5.73,7.71-5.73,9.17,0,4.9,5.62,8.65,14.17,8.65s15.84-5.52,15.84-12.51c0-3.75-2.81-5.31-9.9-5.31Zm24.18-45.76,5.62-6.35h6.26v8.44h-6.26l-3.44,1.67a13.31,13.31,0,0,1,1.05,5c0,8.86-6.15,15.11-20.32,18.76a25.11,25.11,0,0,1-4.07-.21l-5.63,6.46c0,2.19,1.57,3.65,4.07,3.65h19.07c9.48,0,13.65,4.38,13.65,10.73,0,8.55-10.84,16.89-26.57,21.58-15.12,0-22.72-4.69-22.72-14.38v-1.78l11.36-8.75c-7.3-2.71-7.82-6-7.82-10.84v-.63l10.42-7.19c-6.56-2.29-10.84-7.29-10.84-13.75,0-8.86,6.05-15.12,20.33-18.76,6.77,0,12.5,2.39,15.84,6.35Z"/><path class="cls-1" d="M402.85,170l7.5-.52,2.92.52.52,5.84-1.14,5-7.4.63-2.82-.63-.62-5.84,1-5Zm5.21,71.71-12,.31-.53-3.65,7.3-1v-38l-7.3.62-.51-3.65,12.5-3.23,5.21-.41v44.71l7.82,1-.52,3.65-12-.31Z"/><path class="cls-1" d="M437.24,241.74l-12,.31-.52-3.65,7.29-1v-38l-7.29.62-.53-3.65,12.51-3.23,4.48-.31.52,8.76,15.43-10.11c13.34,0,15.52,4.48,15.52,17v29l7.93,1-.53,3.65-12-.31-10,.31-.51-3.65,5.21-1V207.55c0-5.42-2.4-7.82-6.89-7.82-3.64,0-7.29,2.3-10.83,4.69l-3.13,2.09v30.85l5.73,1-.52,3.65-9.9-.31Z"/><path class="cls-1" d="M513,210.16c0-8-1.56-13.55-9.59-13.55-6.36,0-10.42,5.94-11.26,14.59l20.85-1Zm-20.95,5.21c0,11.88,6.36,20.32,17.3,20.32,4.17,0,9.17-2,13-4.38l1.66,4a63.64,63.64,0,0,1-18.24,8.24c-12.6,0-24-9-24-25.33,0-15.42,9.27-23.66,23.55-26.78,13.76,0,18.45,8.65,18.45,19.59v4.38Z"/><path class="cls-1" d="M562,210.16c0-8-1.56-13.55-9.58-13.55-6.36,0-10.42,5.94-11.26,14.59l20.84-1Zm-20.94,5.21c0,11.88,6.35,20.32,17.3,20.32,4.17,0,9.17-2,13-4.38l1.66,4a63.64,63.64,0,0,1-18.24,8.24c-12.61,0-24-9-24-25.33,0-15.42,9.27-23.66,23.55-26.78,13.75,0,18.44,8.65,18.44,19.59v4.38Z"/><path class="cls-1" d="M595.14,206.51,607,191.92h8.34v10.42h-7.72c-2.5.52-7.08,4-9.9,7.4l-2.08,2.5V237l10.94,1.05-.52,4L591,241.74l-11.67.31-.53-3.65,7.3-1v-38l-7.3.62-.51-3.65,12.5-3.23,4.17-.31.21,13.76Z"/><path class="cls-1" d="M628.39,170l7.5-.52,2.92.52.52,5.84-1.15,5-7.4.63-2.81-.63-.63-5.84,1-5Zm5.21,71.71-12,.31-.52-3.65,7.3-1v-38l-7.3.62-.52-3.65,12.51-3.23,5.21-.41v44.71l7.81,1-.52,3.65-12-.31Z"/><path class="cls-1" d="M662.78,241.74l-12,.31-.52-3.65,7.29-1v-38l-7.29.62-.52-3.65,12.51-3.23,4.48-.31.52,8.76,15.43-10.11c13.33,0,15.52,4.48,15.52,17v29l7.92,1-.52,3.65-12-.31-10,.31-.52-3.65,5.21-1V207.55c0-5.42-2.4-7.82-6.88-7.82-3.65,0-7.29,2.3-10.84,4.69l-3.12,2.09v30.85l5.73,1-.52,3.65-9.9-.31Z"/><path class="cls-1" d="M729.27,196.19c-5.63,0-8.86,4.38-8.86,11.05,0,5,2.19,13.13,10.74,13.13,5.62,0,8.86-3.86,8.86-9.9,0-5.42-2.19-14.28-10.74-14.28Zm-6.77,47.32c-5.32,5.83-5.74,7.71-5.74,9.17,0,4.9,5.63,8.65,14.18,8.65s15.84-5.52,15.84-12.51c0-3.75-2.81-5.31-9.9-5.31Zm24.18-45.76,5.62-6.35h6.25v8.44H752.3l-3.44,1.67a13.31,13.31,0,0,1,1,5c0,8.86-6.15,15.11-20.33,18.76a25,25,0,0,1-4.06-.21l-5.63,6.46c0,2.19,1.56,3.65,4.07,3.65H743c9.48,0,13.65,4.38,13.65,10.73,0,8.55-10.84,16.89-26.58,21.58-15.11,0-22.72-4.69-22.72-14.38v-1.78l11.37-8.75c-7.3-2.71-7.82-6-7.82-10.84v-.63l10.42-7.19c-6.57-2.29-10.84-7.29-10.84-13.75,0-8.86,6-15.12,20.32-18.76,6.78,0,12.51,2.39,15.85,6.35Z"/><path class="cls-2" d="M131.15,48.18l-4.71.15-.26-1.76,2.46-.5V31.72c0-2.61-1.2-3.77-3.21-3.77-1.5,0-3.46,1.11-5.32,2.26l-1.51.95V46.07l2.77.5-.26,1.76-4.76-.15-5.28.15-.25-1.76,3-.5V15.35l-1.81.3-10.19-.15V45.92l5.77.65-.25,1.76-8.13-.15-8.44.15-.25-1.76,6-.65V15.5L89,15.65l-2.31,6.28h-2V13l14.41.1,12.35-.1,5.37-.6h1.7V28.7l7.33-4.76c6.43,0,7.48,2.41,7.48,8.78V46.07l3.77.5-.25,1.76-5.78-.15Z"/><path class="cls-2" d="M154.28,33c0-3.86-.75-6.52-4.62-6.52-3.06,0-5,2.86-5.42,7l10-.5Zm-10.09,2.51c0,5.72,3.06,9.79,8.34,9.79a13,13,0,0,0,6.27-2.11l.8,1.91a30.71,30.71,0,0,1-8.78,4c-6.08,0-11.55-4.32-11.55-12.2,0-7.43,4.47-11.4,11.35-12.9,6.62,0,8.88,4.16,8.88,9.43v2.11Z"/><path class="cls-2" d="M194.18,14.85l.25-1.76,6.43.15,5.87-.15.25,1.76-4.26.65V36c0,6.53-2.66,10.9-12.65,13.2-9.89,0-13.41-5.32-13.41-13.3V15.5l-4.51-.65.24-1.76,6.93.15,6.88-.15.25,1.76-4.27.65V36.64c0,6.22,2.67,9.78,8.39,9.78,5.22,0,8.13-3.51,8.13-9.94v-21l-4.52-.65Z"/><path class="cls-2" d="M213.75,48.18l-5.77.15-.25-1.76,3.51-.5V27.75l-3.51.3-.25-1.75,6-1.56,2.16-.15.25,4.21,7.43-4.86c6.43,0,7.48,2.15,7.48,8.18v14l3.82.5-.26,1.76-5.77-.15-4.82.15-.25-1.76,2.51-.5V31.72c0-2.61-1.15-3.77-3.31-3.77-1.76,0-3.51,1.11-5.22,2.26l-1.51,1V46.07l2.76.5-.25,1.76-4.77-.15Z"/><path class="cls-2" d="M240,13.65l3.61-.26,1.41.26.25,2.81-.55,2.4-3.57.31-1.35-.31-.3-2.81.5-2.4Zm2.51,34.53-5.77.15-.25-1.76,3.51-.5V27.75l-3.51.3-.25-1.75,6-1.56,2.51-.2V46.07l3.76.5-.25,1.76-5.77-.15Z"/><polygon class="cls-2" points="262.64 45.07 268.71 26.9 266.4 26.4 266.65 24.64 271.07 24.79 275.24 24.64 275.49 26.4 272.28 26.9 264.04 47.53 260.38 49.03 251.64 26.9 248.53 26.4 248.78 24.64 254.56 24.79 259.83 24.64 260.08 26.4 256.77 26.9 262.24 41.6 262.64 45.07 262.64 45.07"/><path class="cls-2" d="M290.49,33c0-3.86-.75-6.52-4.62-6.52-3.06,0-5,2.86-5.42,7l10-.5ZM280.4,35.48c0,5.72,3.07,9.79,8.34,9.79A13,13,0,0,0,295,43.16l.8,1.91A30.59,30.59,0,0,1,287,49c-6.07,0-11.55-4.32-11.55-12.2,0-7.43,4.47-11.4,11.35-12.9,6.63,0,8.88,4.16,8.88,9.43v2.11Z"/><path class="cls-2" d="M307,31.21l5.72-7h4v5H313c-1.21.25-3.42,1.9-4.77,3.56l-1,1.21V45.92l5.27.5-.25,1.91-7.28-.15-5.62.15-.25-1.76,3.51-.5V27.75l-3.51.3-.25-1.75,6-1.56,2-.15.1,6.62Z"/><path class="cls-2" d="M332.5,27.5a7.83,7.83,0,0,0-3.82-1.1c-2,0-3.81,1.05-3.81,3,0,1.6,1.25,2.61,3.51,3.76l3.87,2c3.36,1.71,4.72,3.61,4.72,6.47,0,4.52-3.67,6.23-9.44,7.49a17.22,17.22,0,0,1-7.63-2.26l-1-5.68h3.22l1.7,4.17A7.58,7.58,0,0,0,328,46.52a3.66,3.66,0,0,0,4-3.81c0-2-1.06-2.81-3.67-4.17l-4-2.06c-2.16-1.1-4.22-3-4.22-5.82,0-3.51,3.26-5.47,9.08-6.72a13.44,13.44,0,0,1,7.08,2.25v5h-2.66L332.5,27.5Z"/><path class="cls-2" d="M343.84,13.65l3.61-.26,1.41.26.25,2.81-.55,2.4-3.57.31-1.35-.31-.3-2.81.5-2.4Zm2.51,34.53-5.77.15-.25-1.76,3.51-.5V27.75l-3.51.3-.26-1.75,6-1.56,2.51-.2V46.07l3.76.5-.25,1.76-5.77-.15Z"/><path class="cls-2" d="M371.24,60.08v-5h4.32l5-7.58-2,.6L370.09,27h-7.58V42.26c0,1.45.55,3,2.66,3a10.54,10.54,0,0,0,4.42-1.41l.85,1.71L364.11,49c-5.62,0-6.37-2-6.37-6.53v-15h-4.87V26.7l1.76-1.76h3.26V21.68l3.26-3.27h1.31v6.28h15.81l.25,1.71-3.31.5,5.57,14.71.4,3.46,6.23-18.17-2.31-.5.25-1.76,4.42.15,4.16-.15.25,1.76-3.21.5-8.13,20.53-5.62,12.65Z"/><path class="cls-2" d="M416.16,46.57c4,0,6.07-4.11,6.07-9.53,0-6.38-3.06-10.64-7.43-10.64-4.06,0-6.07,4.11-6.07,9.58,0,5.73,3,10.59,7.43,10.59ZM427.25,36c0,7.48-4.56,11.8-12.35,13.06-6.67,0-11.19-5.18-11.19-12,0-7.53,4.57-11.8,12.35-13.1,6.68,0,11.19,5.22,11.19,12Z"/><path class="cls-2" d="M438.54,25.19h6.28v2.36h-6.28V46.07l5.77.35-.25,1.91-7.78-.15-5.77.15-.25-1.76,3.51-.5V27.55h-4.41V26.7l1.5-1.76h2.91v-.5a9.74,9.74,0,0,1,2.77-7l4.21-4.77h6.33v4h-6.53L439.6,18c-.71,1-1.06,2.41-1.06,5.67v1.51Z"/><polygon class="cls-2" points="483.21 48.33 475.08 48.18 466.65 48.33 466.39 46.58 472.42 45.92 472.42 15.5 464.89 15.6 462.58 21.98 460.62 21.98 460.62 13.09 475.03 13.24 489.49 13.09 489.49 21.98 487.53 21.98 485.22 15.6 477.69 15.5 477.69 45.92 483.46 46.58 483.21 48.33 483.21 48.33"/><path class="cls-2" d="M502.23,33c0-3.86-.75-6.52-4.62-6.52-3.06,0-5,2.86-5.42,7l10-.5Zm-10.09,2.51c0,5.72,3.07,9.79,8.33,9.79a13,13,0,0,0,6.28-2.11l.8,1.91a30.71,30.71,0,0,1-8.78,4c-6.07,0-11.55-4.32-11.55-12.2,0-7.43,4.47-11.4,11.35-12.9,6.63,0,8.88,4.16,8.88,9.43v2.11Z"/><polygon class="cls-2" points="518.89 46.58 518.64 48.33 514.73 48.18 509.56 48.33 509.31 46.58 512.82 46.07 520.25 36.94 512.97 26.95 509.86 26.45 510.11 24.64 515.88 24.79 520.65 24.64 520.9 26.45 518.94 26.95 522.66 32.52 523.06 33.82 527.83 26.95 525.37 26.45 525.62 24.64 529.53 24.79 534.71 24.64 534.96 26.45 531.34 26.95 524.72 34.98 532.6 46.07 535.71 46.58 535.46 48.33 529.68 48.18 524.92 48.33 524.66 46.58 526.72 46.07 522.26 39.6 521.86 38.44 516.53 46.07 518.89 46.58 518.89 46.58"/><path class="cls-2" d="M550.51,36.23l-7.28,3a3.81,3.81,0,0,0-1,2.81c0,2.56,1.45,3.46,2.91,3.46a6,6,0,0,0,3.26-1.3l2.11-1.46V36.23Zm-3.16-12.29c6.32,0,7.93,1.6,7.93,8v9.84a6.12,6.12,0,0,0,.85,3.76h2.51l.2,1.76-6.47,1.25-1.56-3.86-6,4.37c-4.32,0-7.38-2.41-7.38-6.43A7.33,7.33,0,0,1,539.22,38l11.29-3.76V31.72c0-3-.25-4.82-3-4.82a12.11,12.11,0,0,0-4.12.9l-.85,4h-4.32V28l9.09-4Z"/><path class="cls-2" d="M574.4,27.5a7.83,7.83,0,0,0-3.82-1.1c-2,0-3.81,1.05-3.81,3,0,1.6,1.26,2.61,3.51,3.76l3.87,2c3.36,1.71,4.72,3.61,4.72,6.47,0,4.52-3.67,6.23-9.44,7.49a17.26,17.26,0,0,1-7.63-2.26l-.95-5.68h3.21l1.71,4.17a7.55,7.55,0,0,0,4.11,1.25,3.66,3.66,0,0,0,4-3.81c0-2-1-2.81-3.67-4.17l-4-2.06c-2.16-1.1-4.22-3-4.22-5.82,0-3.51,3.26-5.47,9.09-6.72a13.5,13.5,0,0,1,7.08,2.25v5h-2.66L574.4,27.5Z"/><path class="cls-2" d="M607.32,36.23l-7.28,3a3.81,3.81,0,0,0-1,2.81c0,2.56,1.46,3.46,2.91,3.46a5.93,5.93,0,0,0,3.26-1.3l2.11-1.46V36.23Zm-3.16-12.29c6.33,0,7.93,1.6,7.93,8v9.84a6,6,0,0,0,.86,3.76h2.51l.2,1.76-6.48,1.25-1.56-3.86-6,4.37c-4.32,0-7.38-2.41-7.38-6.43A7.33,7.33,0,0,1,596,38l11.29-3.76V31.72c0-3-.25-4.82-3-4.82a12.05,12.05,0,0,0-4.11.9l-.86,4h-4.32V28l9.09-4Z"/><path class="cls-2" d="M615.4,27.55V26.7l1.76-1.76h3.26V21.68l3.26-3.27H625v6.88h7.58v2.26H625V42.26c0,1.45.55,3,2.66,3a8.5,8.5,0,0,0,4-1.2l.85,1.7L626.65,49c-5.63,0-6.38-2-6.38-6.53v-15Z"/><path class="cls-2" d="M660.42,20.92l-.35-2.71-5.52,16h10.69l-4.82-13.26Zm-6.67,15.61-3.27,9.39,4.37.65-.25,1.76-6-.15-5.37.15L643,46.57l3.92-.55,12.45-32.53,3-.85L675.43,46l3.92.55-.25,1.76-6.93-.15-6.63.15-.25-1.76,4.27-.65-3.42-9.39Z"/><path class="cls-2" d="M700.67,41.76a8.05,8.05,0,0,0,.61,3.76h2.51l.2,1.76-6.48,1.25-1.41-4.06L688.83,49c-6.63,0-7.73-2.36-7.73-8.19V27.75l-3.52.25-.25-2,6-1.3,2.51-.2V41.25c0,2.61,1.11,3.77,3.57,3.77,1.56,0,3.56-1.26,5.47-2.51l1-.65V27.75l-3,.25-.25-2,5.52-1.3,2.51-.2V41.76Z"/><path class="cls-2" d="M719.79,27.5A7.78,7.78,0,0,0,716,26.4c-2,0-3.82,1.05-3.82,3,0,1.6,1.26,2.61,3.52,3.76l3.86,2c3.36,1.71,4.72,3.61,4.72,6.47,0,4.52-3.66,6.23-9.44,7.49a17.26,17.26,0,0,1-7.63-2.26l-1-5.68h3.21l1.71,4.17a7.55,7.55,0,0,0,4.11,1.25,3.66,3.66,0,0,0,4-3.81c0-2-1-2.81-3.67-4.17l-4-2.06c-2.16-1.1-4.22-3-4.22-5.82,0-3.51,3.27-5.47,9.09-6.72a13.5,13.5,0,0,1,7.08,2.25v5H721l-1.16-3.71Z"/><path class="cls-2" d="M725.86,27.55V26.7l1.76-1.76h3.26V21.68l3.27-3.27h1.3v6.88H743v2.26H735.5V42.26c0,1.45.55,3,2.66,3a8.5,8.5,0,0,0,4-1.2l.85,1.7L737.11,49c-5.63,0-6.38-2-6.38-6.53v-15Z"/><path class="cls-2" d="M749.4,13.65l3.61-.26,1.41.26.25,2.81-.55,2.4-3.56.31-1.36-.31-.3-2.81.5-2.4Zm2.51,34.53-5.77.15-.25-1.76,3.51-.5V27.75l-3.51.3-.26-1.75,6-1.56,2.51-.2V46.07l3.76.5-.25,1.76-5.77-.15Z"/><path class="cls-2" d="M766.21,48.18l-5.77.15-.25-1.76,3.51-.5V27.75l-3.51.3-.25-1.75,6-1.56,2.16-.15.25,4.21,7.43-4.86c6.43,0,7.48,2.15,7.48,8.18v14l3.81.5-.25,1.76-5.77-.15-4.82.15L776,46.57l2.51-.5V31.72c0-2.61-1.15-3.77-3.31-3.77-1.76,0-3.52,1.11-5.22,2.26l-1.51,1V46.07l2.76.5L771,48.33l-4.77-.15Z"/></svg>