<?xml version="1.0" encoding="UTF-8"?><svg id="uuid-0725b3a5-1f86-4b21-8eca-5d1577538bf4" xmlns="http://www.w3.org/2000/svg" viewBox="0 0 349.68 57.42"><g><polygon points="24.76 19.97 24.81 19.97 24.81 19.96 24.76 19.96 24.76 19.97 24.76 19.97" fill="#bf5700"/><path d="m30.21,15.43c-1.14-.17-2.21-.34-3.19-.34-.52,0-.98.05-1.39.15l-.23-6.36v-1.05c.45-.19.99-.28,1.69-.28.89,0,1.9.15,2.98.31.95.14,1.92.28,2.92.34l.27,7.6c-1.02-.06-2.05-.21-3.05-.37h0Zm-10.85,0c-1,.16-2.03.31-3.05.37l.27-7.6c1-.06,1.97-.2,2.92-.34,1.08-.16,2.09-.31,2.98-.31.69,0,1.24.09,1.68.28v1.05l-.23,6.36c-.41-.1-.86-.15-1.39-.15-.97,0-2.05.17-3.19.34h0Zm16.15-4.49v-1.45h-.89v-2.47h-.6c-1.27,0-2.54-.19-3.77-.37-1.12-.16-2.18-.32-3.15-.32-.92,0-1.68.14-2.31.44-.63-.3-1.39-.44-2.31-.44-.98,0-2.04.16-3.16.32-1.23.18-2.5.37-3.77.37h-.6v2.47h-.89v1.45h.89v1.96h-.88v1.45h.88v2.68h.6c1.36,0,2.7-.21,3.99-.41,1.09-.17,2.12-.33,3-.33.71,0,1.24.1,1.66.32h0s1.16,0,1.16,0h0c.41-.22.95-.32,1.66-.32.88,0,1.91.16,3.01.33,1.29.2,2.63.41,3.99.41h.6v-2.68h.88v-1.45h-.88v-1.96h.89Z" fill="#bf5700"/><path d="m19.53,8.95c-.06,0-.12.02-.18.03-.57.08-1.14.17-1.72.23l-.03.97c.64-.07,1.27-.16,1.9-.25.01,0,.03,0,.04,0v-.97h0Z" fill="#bf5700"/><path d="m20.25,8.85v.97c1.03-.14,1.96-.25,2.78-.18l.03-.96c-.87-.07-1.82.03-2.81.16h0Z" fill="#bf5700"/><path d="m19.53,13.36c-.06,0-.12.02-.18.03-.62.09-1.25.18-1.88.25l-.04.97c.7-.07,1.38-.17,2.06-.27.01,0,.03,0,.04,0v-.97h0Z" fill="#bf5700"/><path d="m20.25,13.26v.97c.96-.13,1.85-.23,2.62-.19l.03-.96c-.83-.04-1.72.05-2.66.17h0Z" fill="#bf5700"/><path d="m19.38,11.18v.97s.07-.01.11-.02c1.29-.19,2.47-.36,3.46-.29l.03-.96c-1.1-.07-2.33.11-3.61.29h0Z" fill="#bf5700"/><path d="m18.65,11.28c-.37.05-.74.1-1.11.14l-.04.97c.39-.04.77-.09,1.14-.14v-.97h0Z" fill="#bf5700"/><path d="m28.89,8.79c-.83-.1-1.64-.16-2.38-.11l.03.96c.7-.06,1.49,0,2.34.12v-.97h0Z" fill="#bf5700"/><path d="m31.95,9.21c-.58-.07-1.16-.15-1.72-.23-.21-.03-.41-.06-.62-.09v.97c.16.02.32.04.48.07.62.09,1.25.18,1.9.25l-.04-.97h0Z" fill="#bf5700"/><path d="m28.69,10.97c-.73-.08-1.44-.13-2.1-.09l.03.96c.62-.04,1.32,0,2.06.1v-.97h0Z" fill="#bf5700"/><path d="m32.03,11.42c-.61-.07-1.21-.16-1.8-.24-.27-.04-.55-.08-.82-.12v.97c.22.03.45.06.68.1.65.1,1.31.19,1.98.26l-.04-.97h0Z" fill="#bf5700"/><path d="m30.13,14.34c.66.1,1.33.19,2.01.26l-.03-.97c-.64-.07-1.26-.16-1.88-.25-.03,0-.06,0-.09-.01v.97h0Z" fill="#bf5700"/><path d="m29.41,13.27c-.96-.13-1.89-.23-2.74-.19l.04.96c.8-.04,1.71.06,2.71.2v-.97h0Z" fill="#bf5700"/><path d="m23.53,28.82l1.25-3.13,1.25,3.13,3.37.22-2.59,2.16.83,3.27-2.86-1.8-2.86,1.8.83-3.27-2.6-2.16,3.37-.22h0Zm-7.63-1.11h0s5.45,3.96,5.45,3.96l-2.1,6.45s0,.02.02.03c0,0,.02,0,.03,0l5.49-3.99,5.49,3.99s.02,0,.03,0c.02-.01.02-.04.01-.06l-2.09-6.43,5.44-3.96h0s.04-.04.03-.06c0-.02-.04-.04-.06-.03h0s-6.73,0-6.73,0l-2.08-6.4h0s-.02-.05-.05-.05-.05.02-.05.05h0l-2.08,6.4h-6.73s-.05,0-.06.03c0,.02,0,.05.03.06h0Z" fill="#bf5700"/><path d="m38.3,35.8c-.49.54-1.13.92-1.83,1.09.1-.72.41-1.39.9-1.93.5-.54,1.13-.92,1.83-1.09-.1.72-.41,1.39-.9,1.94h0Zm-2.63-4.24c-.09-.73.03-1.46.36-2.11.48.54.79,1.21.89,1.94.1.72-.03,1.46-.36,2.1-.48-.54-.79-1.21-.89-1.94h0Zm1.46-5.51c-.14-.72-.05-1.46.23-2.12.51.51.86,1.17,1,1.89.14.72.06,1.45-.23,2.12-.51-.51-.86-1.17-1-1.88h0Zm3.48,1.61c.05.73-.12,1.45-.48,2.08-.37.63-.91,1.13-1.57,1.45-.05-.73.11-1.45.48-2.08.37-.63.92-1.13,1.57-1.44h0Zm-5.33,13.69c-.59.43-1.29.66-2.02.69.25-.69.69-1.28,1.28-1.71.59-.43,1.29-.67,2.02-.69-.25.68-.69,1.28-1.29,1.71h0Zm-1.7-4.69c.06-.73.33-1.42.79-1.99.36.63.52,1.35.47,2.08-.06.73-.33,1.42-.79,1.99-.36-.63-.53-1.35-.47-2.08h0Zm-1.9,4.91c-.21.7-.62,1.32-1.18,1.78-.22-.69-.23-1.43-.03-2.13.21-.71.62-1.32,1.18-1.78.22.69.23,1.43.03,2.13h0Zm1.1,3.18c-.38.62-.94,1.11-1.61,1.41-.46.21-.96.31-1.47.31h0c-.22,0-.44-.02-.65-.06.38-.62.94-1.11,1.61-1.41.67-.3,1.41-.38,2.12-.26h0Zm-6.29.29c.35-.65.88-1.17,1.52-1.5.07.72-.07,1.45-.42,2.09-.34.64-.87,1.16-1.52,1.5-.07-.72.07-1.45.41-2.09h0Zm-8.14,1.12c-.67-.3-1.23-.79-1.61-1.41.71-.13,1.45-.04,2.12.26.67.3,1.22.79,1.61,1.41-.71.13-1.45.04-2.12-.25h0Zm-.51-4.59c-.21-.7-.2-1.45.03-2.13.56.46.97,1.07,1.18,1.78.21.71.19,1.45-.03,2.13-.56-.46-.97-1.08-1.18-1.78h0Zm3.66,1.96c.64.33,1.17.85,1.52,1.5.35.65.49,1.37.41,2.1-.64-.34-1.17-.86-1.52-1.5-.35-.65-.49-1.37-.42-2.09h0Zm-7.27-2.18c-.59-.43-1.04-1.02-1.28-1.71.73.02,1.42.25,2.02.69.59.43,1.04,1.02,1.28,1.71-.73-.02-1.43-.26-2.02-.69h0Zm.92-6.67c.45.57.73,1.25.79,1.99.06.73-.11,1.45-.47,2.08-.46-.57-.73-1.26-.79-1.99-.06-.73.11-1.45.47-2.08h0Zm-3.95,1.12c-.49-.54-.8-1.22-.9-1.94.7.17,1.34.54,1.83,1.09.49.54.8,1.21.9,1.93-.71-.17-1.34-.55-1.83-1.09h0Zm-.25-4.61c-.65-.31-1.2-.81-1.57-1.45-.37-.63-.54-1.36-.48-2.08.65.31,1.2.81,1.57,1.44.37.63.53,1.36.48,2.08h0Zm.19-5.38c.14-.72.49-1.37,1-1.88.29.67.37,1.4.23,2.12-.14.72-.49,1.37-1,1.89-.29-.67-.37-1.4-.23-2.12h0Zm1.45,5.59c.1-.73.41-1.4.89-1.94.33.65.45,1.38.36,2.11-.1.73-.41,1.4-.89,1.94-.33-.65-.45-1.38-.36-2.1h0Zm25.71.91c1.12-.34,2.06-1.08,2.65-2.08.59-1.01.77-2.19.51-3.33l-.11-.5-.49.15c-.57.17-1.09.44-1.54.8.11-.56.1-1.14,0-1.71-.22-1.15-.86-2.16-1.81-2.85l-.42-.3-.27.44c-.62.99-.84,2.17-.62,3.32.22,1.14.86,2.15,1.8,2.84-.17.39-.29.8-.35,1.23-.28-.76-.75-1.45-1.39-1.97l-.4-.33-.3.42c-.68.95-.97,2.11-.82,3.27.15,1.16.73,2.21,1.64,2.95h.02c-.27.37-.47.77-.62,1.19-.11-.8-.44-1.57-.96-2.22l-.32-.41-.38.35c-.86.79-1.39,1.87-1.48,3.03-.09,1.16.26,2.31.99,3.22l.02.02c-.34.29-.62.64-.85,1.02.05-.81-.1-1.63-.47-2.37l-.23-.46-.44.26c-1.01.59-1.74,1.54-2.08,2.66-.33,1.12-.22,2.31.3,3.36v.03c-.38.22-.72.5-1.03.82.22-.78.23-1.62.02-2.42l-.13-.5-.49.16c-1.11.38-2.02,1.15-2.58,2.18-.53.99-.68,2.14-.42,3.24-.15.1-.3.21-.46.32-.16-.11-.32-.21-.46-.32.26-1.1.12-2.25-.42-3.24-.56-1.03-1.47-1.8-2.58-2.18l-.49-.16-.13.5c-.21.8-.2,1.63.02,2.42-.31-.32-.66-.6-1.04-.82v-.03c.54-1.05.64-2.24.32-3.36-.33-1.12-1.07-2.07-2.08-2.66l-.44-.26-.23.46c-.37.74-.53,1.56-.47,2.37-.23-.38-.52-.72-.85-1.02l.02-.02c.73-.92,1.08-2.06.99-3.23-.09-1.17-.62-2.24-1.48-3.03l-.38-.35-.32.41c-.52.65-.84,1.41-.96,2.22-.15-.42-.36-.81-.62-1.17h.02c.9-.76,1.48-1.81,1.64-2.97.15-1.16-.14-2.32-.82-3.27l-.3-.42-.4.33c-.64.53-1.12,1.21-1.39,1.97-.06-.42-.17-.84-.35-1.23.94-.69,1.58-1.7,1.8-2.84.22-1.15,0-2.33-.62-3.32l-.27-.44-.42.3c-.95.69-1.59,1.7-1.81,2.85-.11.57-.11,1.15,0,1.71-.45-.36-.98-.63-1.54-.8l-.49-.15-.11.5c-.26,1.14-.08,2.33.51,3.33.59,1.01,1.53,1.75,2.65,2.08l.44.13c.04.37.14.73.27,1.07-.62-.4-1.33-.64-2.08-.7l-.51-.04v.52c-.02,1.17.4,2.29,1.18,3.16.78.87,1.86,1.39,3.02,1.49l.45.04c.12.35.28.68.48.99-.51-.19-1.04-.29-1.6-.29-.2,0-.39.01-.58.04l-.51.07.1.5c.23,1.15.87,2.16,1.81,2.85.78.57,1.72.87,2.69.87.19,0,.38-.01.57-.04l.45-.06c.19.32.42.61.68.87-.73-.11-1.48-.04-2.19.2l-.49.17.2.47c.46,1.08,1.3,1.93,2.36,2.41.59.26,1.22.4,1.86.4.51,0,1.02-.09,1.51-.25l.36-.12c.6.51,1.28,1.02,2.21,1.66-.43.28-.89.59-1.42.92l.91.56c.51-.33.96-.63,1.38-.9.41.28.87.57,1.38.9l.91-.56c-.52-.34-.99-.64-1.42-.92.93-.64,1.61-1.15,2.21-1.66l.36.12c.49.17.99.25,1.51.25h0c.64,0,1.27-.13,1.86-.39,1.06-.48,1.9-1.33,2.36-2.41l.2-.47-.49-.17c-.71-.25-1.46-.31-2.19-.2.26-.26.49-.56.68-.87l.45.06c.19.02.38.04.57.04h0c.97,0,1.9-.3,2.69-.87.94-.69,1.59-1.7,1.81-2.85l.1-.5-.51-.07c-.19-.02-.39-.04-.59-.04-.55,0-1.09.1-1.6.29.2-.31.37-.64.49-.99l.45-.04c1.17-.1,2.24-.63,3.02-1.49.78-.86,1.2-1.98,1.19-3.16v-.52s-.52.04-.52.04c-.75.06-1.46.3-2.08.7.13-.35.22-.71.27-1.07l.43-.13h0Z" fill="#bf5700"/><path d="m38.43,42.49c-.98,1.44-2.1,2.77-3.46,4.06-4.18,3.84-8.87,5.96-10.19,6.51-1.32-.55-6.01-2.67-10.19-6.51-1.35-1.3-2.48-2.63-3.46-4.06-4.74-6.95-5.37-15-5.37-21.26h0s19.02-1.06,19.02-1.06l19.01,1.06c0,6.26-.63,14.32-5.37,21.26h0ZM6.78,5.06c3.54-.39,11.48-1.18,18.01-1.18s14.47.79,18.01,1.18l.99,13.93H5.79l.99-13.93h0Zm38.95-1.61l-.84-.11c-.11-.01-11.34-1.41-20.09-1.41h-.01c-8.75,0-19.98,1.4-20.09,1.41l-.84.11v15.54h0v2.17c0,6.55.65,15.01,5.71,22.42,1.04,1.53,2.23,2.93,3.65,4.3h0s.02.02.03.03c2.74,2.64,6.37,5.13,11.56,8.02h0s0,0,0,0c0,0,0,0,0,0h0c5.19-2.9,8.81-5.39,11.56-8.03,0,0,.02-.02.03-.02h0c1.42-1.37,2.6-2.78,3.65-4.3,5.06-7.41,5.71-15.87,5.71-22.42v-.31h0V3.45h0Z" fill="#bf5700"/></g><g><path d="m78.5,42.57l-.78,4.32c-1.62.78-4.77,1.98-7.29,2.34-5.58,0-10.8-3.78-10.8-10.77s4.65-10.41,11.34-11.31c3.12,0,5.88,1.41,7.17,2.34v4.05h-1.65l-.96-2.79c-.81-.87-2.52-2.04-4.98-2.04-4.44,0-7.47,3.15-7.47,9.03,0,4.86,2.97,9.84,8.22,9.84,1.8,0,3.12-.99,3.93-1.68l1.62-3.33h1.65Z" fill="#333f48"/><path d="m94.67,41.34c0,4.47-2.73,7.05-7.38,7.8-3.99,0-6.69-3.09-6.69-7.17,0-4.5,2.73-7.05,7.38-7.83,3.99,0,6.69,3.12,6.69,7.2Zm-6.63,6.33c2.4,0,3.63-2.46,3.63-5.7,0-3.81-1.83-6.36-4.44-6.36-2.43,0-3.63,2.46-3.63,5.73s1.77,6.33,4.44,6.33Z" fill="#333f48"/><path d="m99.32,48.63l-3.45.09-.15-1.05,2.1-.3v-18.06l-2.1.06-.15-1.05,3.6-.93,1.5-.12v20.1l2.25.3-.15,1.05-3.45-.09Z" fill="#333f48"/><path d="m107.42,48.63l-3.45.09-.15-1.05,2.1-.3v-18.06l-2.1.06-.15-1.05,3.6-.93,1.5-.12v20.1l2.25.3-.15,1.05-3.45-.09Z" fill="#333f48"/><path d="m114.71,41.04c0,3.42,1.83,5.85,4.98,5.85,1.2,0,2.64-.57,3.75-1.26l.48,1.14c-1.44.99-3.33,1.83-5.25,2.37-3.63,0-6.9-2.58-6.9-7.29,0-4.44,2.67-6.81,6.78-7.71,3.96,0,5.31,2.49,5.31,5.64v1.26h-9.15Zm6.03-1.5c0-2.31-.45-3.9-2.76-3.9-1.83,0-3,1.71-3.24,4.2l6-.3Z" fill="#333f48"/><path d="m136.73,35.97l1.62-1.83h1.8v2.43h-1.8l-.99.48c.18.45.3.93.3,1.44,0,2.55-1.77,4.35-5.85,5.4-.42,0-.81,0-1.17-.06l-1.62,1.86c0,.63.45,1.05,1.17,1.05h5.49c2.73,0,3.93,1.26,3.93,3.09,0,2.46-3.12,4.86-7.65,6.21-4.35,0-6.54-1.35-6.54-4.14v-.51l3.27-2.52c-2.1-.78-2.25-1.74-2.25-3.12v-.18l3-2.07c-1.89-.66-3.12-2.1-3.12-3.96,0-2.55,1.74-4.35,5.85-5.4,1.95,0,3.6.69,4.56,1.83Zm-6.96,13.17c-1.53,1.68-1.65,2.22-1.65,2.64,0,1.41,1.62,2.49,4.08,2.49s4.56-1.59,4.56-3.6c0-1.08-.81-1.53-2.85-1.53h-4.14Zm1.95-13.62c-1.62,0-2.55,1.26-2.55,3.18,0,1.44.63,3.78,3.09,3.78,1.62,0,2.55-1.11,2.55-2.85,0-1.56-.63-4.11-3.09-4.11Z" fill="#333f48"/><path d="m143.24,41.04c0,3.42,1.83,5.85,4.98,5.85,1.2,0,2.64-.57,3.75-1.26l.48,1.14c-1.44.99-3.33,1.83-5.25,2.37-3.63,0-6.9-2.58-6.9-7.29,0-4.44,2.67-6.81,6.78-7.71,3.96,0,5.31,2.49,5.31,5.64v1.26h-9.15Zm6.03-1.5c0-2.31-.45-3.9-2.76-3.9-1.83,0-3,1.71-3.24,4.2l6-.3Z" fill="#333f48"/><path d="m175.82,41.34c0,4.47-2.73,7.05-7.38,7.8-3.99,0-6.69-3.09-6.69-7.17,0-4.5,2.73-7.05,7.38-7.83,3.99,0,6.69,3.12,6.69,7.2Zm-6.63,6.33c2.4,0,3.63-2.46,3.63-5.7,0-3.81-1.83-6.36-4.44-6.36-2.43,0-3.63,2.46-3.63,5.73s1.77,6.33,4.44,6.33Z" fill="#333f48"/><path d="m182.57,34.89h3.75v1.41h-3.75v11.07l3.45.21-.15,1.14-4.65-.09-3.45.09-.15-1.05,2.1-.3v-11.07h-2.64v-.51l.9-1.05h1.74v-.3c0-1.8.57-2.97,1.65-4.2l2.52-2.85h3.78v2.4h-3.9l-.57.81c-.42.57-.63,1.44-.63,3.39v.9Z" fill="#333f48"/><path d="m200.51,48.63l-4.14.09-.15-1.05,2.7-.39v-18.18l-2.7-.39.15-1.05,4.14.09,4.11-.09.15,1.05-2.7.39v18.21l7.5-.09,2.01-4.05h1.14l-1.05,5.55-11.16-.09Z" fill="#333f48"/><path d="m217.67,48.63l-3.45.09-.15-1.05,2.1-.3v-10.95l-2.1.18-.15-1.05,3.6-.93,1.5-.12v12.87l2.25.3-.15,1.05-3.45-.09Zm-1.5-20.64l2.16-.15.84.15.15,1.68-.33,1.44-2.13.18-.81-.18-.18-1.68.3-1.44Z" fill="#333f48"/><path d="m229.19,49.14c-2.97,0-3.99-.72-5.22-1.35v-18.51l-2.1.06-.15-1.02,3.6-.93,1.5-.12v9.72l3.78-2.85c3.3,0,6.12,2.58,6.12,6.84,0,5.19-3.06,7.5-7.53,8.16Zm1.41-12.6c-.81,0-1.83.39-2.88,1.23l-.9.72v7.95c.66.75,1.71,1.2,2.97,1.2,2.4,0,3.93-2.19,3.93-5.73,0-3.33-1.32-5.37-3.12-5.37Z" fill="#333f48"/><path d="m241.61,41.04c0,3.42,1.83,5.85,4.98,5.85,1.2,0,2.64-.57,3.75-1.26l.48,1.14c-1.44.99-3.33,1.83-5.25,2.37-3.63,0-6.9-2.58-6.9-7.29,0-4.44,2.67-6.81,6.78-7.71,3.96,0,5.31,2.49,5.31,5.64v1.26h-9.15Zm6.03-1.5c0-2.31-.45-3.9-2.76-3.9-1.83,0-3,1.71-3.24,4.2l6-.3Z" fill="#333f48"/><path d="m257.18,38.49l3.42-4.2h2.4v3h-2.22c-.72.15-2.04,1.14-2.85,2.13l-.6.72v7.14l3.15.3-.15,1.14-4.35-.09-3.36.09-.15-1.05,2.1-.3v-10.95l-2.1.18-.15-1.05,3.6-.93,1.2-.09.06,3.96Z" fill="#333f48"/><path d="m270.56,34.14c3.78,0,4.74.96,4.74,4.77v5.88c0,1.29.21,1.77.51,2.25h1.5l.12,1.05-3.87.75-.93-2.31-3.57,2.61c-2.58,0-4.41-1.44-4.41-3.84,0-1.08.39-1.86,1.05-2.76l6.75-2.25v-1.5c0-1.8-.15-2.88-1.77-2.88-.81,0-1.8.27-2.46.54l-.51,2.37h-2.58v-2.28l5.43-2.4Zm1.89,7.35l-4.35,1.8c-.45.45-.6,1.05-.6,1.68,0,1.53.87,2.07,1.74,2.07s1.56-.51,1.95-.78l1.26-.87v-3.9Z" fill="#333f48"/><path d="m282.23,48.63l-3.45.09-.15-1.05,2.1-.3v-18.06l-2.1.06-.15-1.05,3.6-.93,1.5-.12v20.1l2.25.3-.15,1.05-3.45-.09Z" fill="#333f48"/><path d="m299.03,41.67l-1.95,5.61,2.61.39-.15,1.05-3.6-.09-3.21.09-.15-1.05,2.34-.33,7.44-19.44,1.8-.51,7.83,19.95,2.34.33-.15,1.05-4.14-.09-3.96.09-.15-1.05,2.55-.39-2.04-5.61h-7.41Zm3.99-9.33l-.21-1.62-3.3,9.54h6.39l-2.88-7.92Z" fill="#333f48"/><path d="m318.89,38.49l3.42-4.2h2.4v3h-2.22c-.72.15-2.04,1.14-2.85,2.13l-.6.72v7.14l3.15.3-.15,1.14-4.35-.09-3.36.09-.15-1.05,2.1-.3v-10.95l-2.1.18-.15-1.05,3.6-.93,1.2-.09.06,3.96Z" fill="#333f48"/><path d="m325.91,36.3v-.51l1.05-1.05h1.95v-1.95l1.95-1.95h.78v4.11h4.53v1.35h-4.5v8.79c0,.87.33,1.8,1.59,1.8.87,0,1.53-.3,2.37-.72l.51,1.02-3.51,1.95c-3.36,0-3.81-1.2-3.81-3.9v-8.94h-2.91Z" fill="#333f48"/><path d="m345.38,36.27c-.3-.18-1.2-.66-2.28-.66-1.17,0-2.28.63-2.28,1.77,0,.96.75,1.56,2.1,2.25l2.31,1.17c2.01,1.02,2.82,2.16,2.82,3.87,0,2.7-2.19,3.72-5.64,4.47-1.83,0-3.78-.9-4.56-1.35l-.57-3.39h1.92l1.02,2.49c.63.42,1.5.75,2.46.75,1.59,0,2.4-1.02,2.4-2.28,0-1.17-.63-1.68-2.19-2.49l-2.37-1.23c-1.29-.66-2.52-1.8-2.52-3.48,0-2.1,1.95-3.27,5.43-4.02,1.62,0,3.36.72,4.23,1.35v3h-1.59l-.69-2.22Z" fill="#333f48"/></g><g><path d="m75.78,19.01l-1.88.06-.1-.7.98-.2v-5.72c0-1.04-.48-1.5-1.28-1.5-.6,0-1.38.44-2.12.9l-.6.38v5.94l1.1.2-.1.7-1.9-.06-2.1.06-.1-.7,1.2-.2V5.93l-.72.12-4.06-.06v12.12l2.3.26-.1.7-3.24-.06-3.36.06-.1-.7,2.4-.26V5.99l-3,.06-.92,2.5h-.78v-3.54l5.74.04,4.92-.04,2.14-.24h.68v6.48l2.92-1.9c2.56,0,2.98.96,2.98,3.5v5.32l1.5.2-.1.7-2.3-.06Z" fill="#bf5700"/><path d="m80.98,13.95c0,2.28,1.22,3.9,3.32,3.9.8,0,1.76-.38,2.5-.84l.32.76c-.96.66-2.22,1.22-3.5,1.58-2.42,0-4.6-1.72-4.6-4.86,0-2.96,1.78-4.54,4.52-5.14,2.64,0,3.54,1.66,3.54,3.76v.84h-6.1Zm4.02-1c0-1.54-.3-2.6-1.84-2.6-1.22,0-2,1.14-2.16,2.8l4-.2Z" fill="#bf5700"/><path d="m100.9,5.73l.1-.7,2.56.06,2.34-.06.1.7-1.7.26v8.16c0,2.6-1.06,4.34-5.04,5.26-3.94,0-5.34-2.12-5.34-5.3V5.99l-1.8-.26.1-.7,2.76.06,2.74-.06.1.7-1.7.26v8.42c0,2.48,1.06,3.9,3.34,3.9,2.08,0,3.24-1.4,3.24-3.96V5.99l-1.8-.26Z" fill="#bf5700"/><path d="m108.7,19.01l-2.3.06-.1-.7,1.4-.2v-7.3l-1.4.12-.1-.7,2.4-.62.86-.06.1,1.68,2.96-1.94c2.56,0,2.98.86,2.98,3.26v5.56l1.52.2-.1.7-2.3-.06-1.92.06-.1-.7,1-.2v-5.72c0-1.04-.46-1.5-1.32-1.5-.7,0-1.4.44-2.08.9l-.6.4v5.92l1.1.2-.1.7-1.9-.06Z" fill="#bf5700"/><path d="m120.16,19.01l-2.3.06-.1-.7,1.4-.2v-7.3l-1.4.12-.1-.7,2.4-.62,1-.08v8.58l1.5.2-.1.7-2.3-.06Zm-1-13.76l1.44-.1.56.1.1,1.12-.22.96-1.42.12-.54-.12-.12-1.12.2-.96Z" fill="#bf5700"/><path d="m128.18,17.77l2.42-7.24-.92-.2.1-.7,1.76.06,1.66-.06.1.7-1.28.2-3.28,8.22-1.46.6-3.48-8.82-1.24-.2.1-.7,2.3.06,2.1-.06.1.7-1.32.2,2.18,5.86.16,1.38Z" fill="#bf5700"/><path d="m135.25,13.95c0,2.28,1.22,3.9,3.32,3.9.8,0,1.76-.38,2.5-.84l.32.76c-.96.66-2.22,1.22-3.5,1.58-2.42,0-4.6-1.72-4.6-4.86,0-2.96,1.78-4.54,4.52-5.14,2.64,0,3.54,1.66,3.54,3.76v.84h-6.1Zm4.02-1c0-1.54-.3-2.6-1.84-2.6-1.22,0-2,1.14-2.16,2.8l4-.2Z" fill="#bf5700"/><path d="m145.83,12.25l2.28-2.8h1.6v2h-1.48c-.48.1-1.36.76-1.9,1.42l-.4.48v4.76l2.1.2-.1.76-2.9-.06-2.24.06-.1-.7,1.4-.2v-7.3l-1.4.12-.1-.7,2.4-.62.8-.06.04,2.64Z" fill="#bf5700"/><path d="m156.02,10.77c-.2-.12-.8-.44-1.52-.44-.78,0-1.52.42-1.52,1.18,0,.64.5,1.04,1.4,1.5l1.54.78c1.34.68,1.88,1.44,1.88,2.58,0,1.8-1.46,2.48-3.76,2.98-1.22,0-2.52-.6-3.04-.9l-.38-2.26h1.28l.68,1.66c.42.28,1,.5,1.64.5,1.06,0,1.6-.68,1.6-1.52,0-.78-.42-1.12-1.46-1.66l-1.58-.82c-.86-.44-1.68-1.2-1.68-2.32,0-1.4,1.3-2.18,3.62-2.68,1.08,0,2.24.48,2.82.9v2h-1.06l-.46-1.48Z" fill="#bf5700"/><path d="m161.54,19.01l-2.3.06-.1-.7,1.4-.2v-7.3l-1.4.12-.1-.7,2.4-.62,1-.08v8.58l1.5.2-.1.7-2.3-.06Zm-1-13.76l1.44-.1.56.1.1,1.12-.22.96-1.42.12-.54-.12-.12-1.12.2-.96Z" fill="#bf5700"/><path d="m171.46,23.75v-2h1.72l1.98-3.02-.8.24-3.36-8.42h-3.02v6.1c0,.58.22,1.2,1.06,1.2.58,0,1.2-.28,1.76-.56l.34.68-2.52,1.38c-2.24,0-2.54-.8-2.54-2.6v-5.96h-1.94v-.34l.7-.7h1.3v-1.3l1.3-1.3h.52v2.5h6.3l.1.68-1.32.2,2.22,5.86.16,1.38,2.48-7.24-.92-.2.1-.7,1.76.06,1.66-.06.1.7-1.28.2-3.24,8.18-2.24,5.04h-2.38Z" fill="#bf5700"/><path d="m193.78,14.15c0,2.98-1.82,4.7-4.92,5.2-2.66,0-4.46-2.06-4.46-4.78,0-3,1.82-4.7,4.92-5.22,2.66,0,4.46,2.08,4.46,4.8Zm-4.42,4.22c1.6,0,2.42-1.64,2.42-3.8,0-2.54-1.22-4.24-2.96-4.24-1.62,0-2.42,1.64-2.42,3.82s1.18,4.22,2.96,4.22Z" fill="#bf5700"/><path d="m198.27,9.85h2.5v.94h-2.5v7.38l2.3.14-.1.76-3.1-.06-2.3.06-.1-.7,1.4-.2v-7.38h-1.76v-.34l.6-.7h1.16v-.2c0-1.2.38-1.98,1.1-2.8l1.68-1.9h2.52v1.6h-2.6l-.38.54c-.28.38-.42.96-.42,2.26v.6Z" fill="#bf5700"/><path d="m216.08,19.07l-3.24-.06-3.36.06-.1-.7,2.4-.26V5.99l-3,.04-.92,2.54h-.78v-3.54l5.74.06,5.76-.06v3.54h-.78l-.92-2.54-3-.04v12.12l2.3.26-.1.7Z" fill="#bf5700"/><path d="m219.63,13.95c0,2.28,1.22,3.9,3.32,3.9.8,0,1.76-.38,2.5-.84l.32.76c-.96.66-2.22,1.22-3.5,1.58-2.42,0-4.6-1.72-4.6-4.86,0-2.96,1.78-4.54,4.52-5.14,2.64,0,3.54,1.66,3.54,3.76v.84h-6.1Zm4.02-1c0-1.54-.3-2.6-1.84-2.6-1.22,0-2,1.14-2.16,2.8l4-.2Z" fill="#bf5700"/><path d="m230.29,18.37l-.1.7-1.56-.06-2.06.06-.1-.7,1.4-.2,2.96-3.64-2.9-3.98-1.24-.2.1-.72,2.3.06,1.9-.06.1.72-.78.2,1.48,2.22.16.52,1.9-2.74-.98-.2.1-.72,1.56.06,2.06-.06.1.72-1.44.2-2.64,3.2,3.14,4.42,1.24.2-.1.7-2.3-.06-1.9.06-.1-.7.82-.2-1.78-2.58-.16-.46-2.12,3.04.94.2Z" fill="#bf5700"/><path d="m241.63,9.35c2.52,0,3.16.64,3.16,3.18v3.92c0,.86.14,1.18.34,1.5h1l.08.7-2.58.5-.62-1.54-2.38,1.74c-1.72,0-2.94-.96-2.94-2.56,0-.72.26-1.24.7-1.84l4.5-1.5v-1c0-1.2-.1-1.92-1.18-1.92-.54,0-1.2.18-1.64.36l-.34,1.58h-1.72v-1.52l3.62-1.6Zm1.26,4.9l-2.9,1.2c-.3.3-.4.7-.4,1.12,0,1.02.58,1.38,1.16,1.38s1.04-.34,1.3-.52l.84-.58v-2.6Z" fill="#bf5700"/><path d="m252.41,10.77c-.2-.12-.8-.44-1.52-.44-.78,0-1.52.42-1.52,1.18,0,.64.5,1.04,1.4,1.5l1.54.78c1.34.68,1.88,1.44,1.88,2.58,0,1.8-1.46,2.48-3.76,2.98-1.22,0-2.52-.6-3.04-.9l-.38-2.26h1.28l.68,1.66c.42.28,1,.5,1.64.5,1.06,0,1.6-.68,1.6-1.52,0-.78-.42-1.12-1.46-1.66l-1.58-.82c-.86-.44-1.68-1.2-1.68-2.32,0-1.4,1.3-2.18,3.62-2.68,1.08,0,2.24.48,2.82.9v2h-1.06l-.46-1.48Z" fill="#bf5700"/><path d="m264.27,9.35c2.52,0,3.16.64,3.16,3.18v3.92c0,.86.14,1.18.34,1.5h1l.08.7-2.58.5-.62-1.54-2.38,1.74c-1.72,0-2.94-.96-2.94-2.56,0-.72.26-1.24.7-1.84l4.5-1.5v-1c0-1.2-.1-1.92-1.18-1.92-.54,0-1.2.18-1.64.36l-.34,1.58h-1.72v-1.52l3.62-1.6Zm1.26,4.9l-2.9,1.2c-.3.3-.4.7-.4,1.12,0,1.02.58,1.38,1.16,1.38s1.04-.34,1.3-.52l.84-.58v-2.6Z" fill="#bf5700"/><path d="m268.75,10.79v-.34l.7-.7h1.3v-1.3l1.3-1.3h.52v2.74h3.02v.9h-3v5.86c0,.58.22,1.2,1.06,1.2.58,0,1.02-.2,1.58-.48l.34.68-2.34,1.3c-2.24,0-2.54-.8-2.54-2.6v-5.96h-1.94Z" fill="#bf5700"/><path d="m284.03,14.37l-1.3,3.74,1.74.26-.1.7-2.4-.06-2.14.06-.1-.7,1.56-.22,4.96-12.96,1.2-.34,5.22,13.3,1.56.22-.1.7-2.76-.06-2.64.06-.1-.7,1.7-.26-1.36-3.74h-4.94Zm2.66-6.22l-.14-1.08-2.2,6.36h4.26l-1.92-5.28Z" fill="#bf5700"/><path d="m302.73,16.45c0,.86.1,1.18.24,1.5h1l.08.7-2.58.5-.56-1.62-2.9,1.82c-2.64,0-3.08-.94-3.08-3.26v-5.22l-1.4.1-.1-.78,2.4-.52,1-.08v6.66c0,1.04.44,1.5,1.42,1.5.62,0,1.42-.5,2.18-1l.4-.26v-5.62l-1.2.1-.1-.78,2.2-.52,1-.08v6.86Z" fill="#bf5700"/><path d="m310.35,10.77c-.2-.12-.8-.44-1.52-.44-.78,0-1.52.42-1.52,1.18,0,.64.5,1.04,1.4,1.5l1.54.78c1.34.68,1.88,1.44,1.88,2.58,0,1.8-1.46,2.48-3.76,2.98-1.22,0-2.52-.6-3.04-.9l-.38-2.26h1.28l.68,1.66c.42.28,1,.5,1.64.5,1.06,0,1.6-.68,1.6-1.52,0-.78-.42-1.12-1.46-1.66l-1.58-.82c-.86-.44-1.68-1.2-1.68-2.32,0-1.4,1.3-2.18,3.62-2.68,1.08,0,2.24.48,2.82.9v2h-1.06l-.46-1.48Z" fill="#bf5700"/><path d="m312.77,10.79v-.34l.7-.7h1.3v-1.3l1.3-1.3h.52v2.74h3.02v.9h-3v5.86c0,.58.22,1.2,1.06,1.2.58,0,1.02-.2,1.58-.48l.34.68-2.34,1.3c-2.24,0-2.54-.8-2.54-2.6v-5.96h-1.94Z" fill="#bf5700"/><path d="m323.15,19.01l-2.3.06-.1-.7,1.4-.2v-7.3l-1.4.12-.1-.7,2.4-.62,1-.08v8.58l1.5.2-.1.7-2.3-.06Zm-1-13.76l1.44-.1.56.1.1,1.12-.22.96-1.42.12-.54-.12-.12-1.12.2-.96Z" fill="#bf5700"/><path d="m328.85,19.01l-2.3.06-.1-.7,1.4-.2v-7.3l-1.4.12-.1-.7,2.4-.62.86-.06.1,1.68,2.96-1.94c2.56,0,2.98.86,2.98,3.26v5.56l1.52.2-.1.7-2.3-.06-1.92.06-.1-.7,1-.2v-5.72c0-1.04-.46-1.5-1.32-1.5-.7,0-1.4.44-2.08.9l-.6.4v5.92l1.1.2-.1.7-1.9-.06Z" fill="#bf5700"/></g></svg>