<svg width="224" height="72" viewBox="0 0 224 72" fill="none" xmlns="http://www.w3.org/2000/svg">
<path d="M59.3889 35.8704C59.3889 29.387 55.0869 25.7042 48.9964 25.7042H45.2689V46.0434H48.8904C54.5534 46.0434 59.3889 42.9658 59.3889 35.8704ZM125.694 43.1881L98.2333 64.8096L73.1361 45.0517C69.5146 53.7509 60.7636 59.7932 50.6857 59.7932H29.2065V11.9476H50.6857C61.9468 11.9476 70.0618 19.108 73.1293 26.7369L98.2333 6.99957L107.532 14.3173L84.5237 32.3996L88.9454 35.8601L111.946 17.7881L121.258 25.0853L98.2538 43.1881L102.669 46.6555L125.694 28.5492V11.9476H142.385V45.8279H159.036V59.8513H125.694V43.1881ZM180.18 45.8348H196.823V59.8513H163.471V11.9476H180.18V45.8348Z" fill="#007DB8"/>
</svg>
