<svg width="452" height="109" viewBox="0 0 452 109" fill="none" xmlns="http://www.w3.org/2000/svg">
<path d="M59.0068 63.8562H68.1853V14.5425H59.0068V63.8562ZM104.766 63.8562H95.7237V43.2373C95.7237 38.4423 92.4356 36.3866 89.011 36.3866C85.5858 36.3866 82.2977 38.4423 82.2977 43.2373V63.8562H73.2551V28.5092H82.2977V31.5918C83.8726 29.194 87.4349 27.5506 90.5866 27.5506C97.7786 27.5506 104.766 32.4822 104.766 42.8949V63.8562ZM127.577 55.7039V63.8562H118.877C112.576 63.8562 109.835 60.4997 109.835 54.8135V20.4945H118.877V28.5092H127.577V36.6608H118.877V52.8962C118.877 54.5395 119.288 55.7039 121.48 55.7039H127.577ZM139.496 41.0451V41.1134H152.854V41.0451C152.58 37.346 150.25 35.0166 146.209 35.0166C142.167 35.0166 139.838 37.4145 139.496 41.0451ZM139.496 48.5803V48.7859C139.496 52.9637 141.894 55.7039 146.209 55.7039C149.36 55.7039 151.552 54.1971 152.443 51.8001H161.622C160.183 59.1978 154.84 63.8562 146.209 63.8562C136.071 63.8562 130.453 57.4171 130.453 47.6207V43.0999C130.453 33.3043 136.071 26.8652 146.209 26.8652C156.348 26.8652 161.965 33.3043 161.965 43.0997V48.5803H139.496ZM176.213 63.8562H167.171V28.5092H176.213V32.3456C177.241 30.016 180.255 27.893 184.434 27.893H187.173V36.729H182.927C179.501 36.729 176.213 38.7847 176.213 43.5796V63.8562ZM191.511 48.0322H200.963C201.513 52.0734 204.663 54.7452 209.252 54.7452C213.294 54.7452 216.104 53.2385 216.104 49.9504C216.104 47.2783 214.528 45.7716 211.171 44.8814L203.087 42.6892C195.759 40.702 192.127 35.5647 192.127 28.5092C192.127 18.9195 199.662 14.5352 208.02 14.5352C217.611 14.5352 223.571 20.1521 224.597 28.3035H215.145C214.322 25.0844 210.965 23.6452 207.882 23.6452C204.046 23.6452 201.307 25.1527 201.307 28.5092C201.307 31.3178 203.498 32.5504 206.102 33.236L213.911 35.3599C221.308 37.346 225.283 41.8671 225.283 49.9504C225.283 58.5815 219.665 63.8562 209.252 63.8562C198.772 63.8562 191.991 57.5536 191.511 48.0322ZM247.19 67.0071C245.272 72.35 244.725 76.2546 238.423 76.2546H231.71V68.1031H235.476C237.12 68.1031 237.6 67.281 237.875 66.5271L238.901 63.6505L226.298 28.3037H235.819L243.696 50.8406L251.574 28.3037H261.097L247.19 67.0071ZM260.274 51.7309H269.317C269.728 54.4712 272.947 55.7039 275.892 55.7039C277.673 55.7039 280.345 55.2932 280.345 52.9637C280.345 51.5254 279.318 50.7039 277.195 50.2242L269.795 48.5803C265.959 47.6899 261.097 44.6756 261.097 37.7569C261.097 30.8381 267.33 26.8652 274.591 26.8652C281.784 26.8652 287.675 30.2901 288.292 38.305H279.044C278.563 36.0444 276.578 35.0166 274.318 35.0166C271.714 35.0166 270.207 36.0444 270.138 37.6886C270.138 39.1954 271.372 39.9489 272.878 40.2914L280.825 42.0728C284.661 42.9632 289.387 45.6343 289.387 52.9637C289.387 60.8419 283.016 63.8562 275.619 63.8562C268.289 63.8562 260.617 60.0884 260.274 51.7309ZM322.995 41.0451V41.1134H336.352V41.0451C336.079 37.346 333.75 35.0166 329.708 35.0166C325.667 35.0166 323.337 37.4145 322.995 41.0451ZM322.995 48.5803V48.7859C322.995 52.9637 325.394 55.7039 329.708 55.7039C332.86 55.7039 335.051 54.1971 335.943 51.8001H345.122C343.682 59.1978 338.339 63.8562 329.708 63.8562C319.57 63.8562 313.953 57.4171 313.953 47.6207V43.0999C313.953 33.3043 319.57 26.8652 329.708 26.8652C339.846 26.8652 345.464 33.3043 345.464 43.0997V48.5803H322.995ZM381.77 63.8562H372.728V43.2373C372.728 38.5106 369.439 36.3866 366.22 36.3866C363.001 36.3866 359.713 38.5106 359.713 43.2373V63.8562H350.67V28.5092H359.713V31.4551C361.425 29.0574 364.644 27.5506 367.727 27.5506C371.427 27.5506 374.782 28.9201 377.25 32.2082C379.783 29.1256 383.413 27.5506 388.278 27.5506C397.251 27.5506 403.828 32.5504 403.828 42.8949V63.8562H394.785V43.2373C394.785 38.5106 391.497 36.3866 388.278 36.3866C385.059 36.3866 381.77 38.5106 381.77 43.2373V63.8562ZM407.254 51.7309H416.297C416.706 54.4712 419.925 55.7039 422.872 55.7039C424.653 55.7039 427.325 55.2932 427.325 52.9637C427.325 51.5254 426.296 50.7039 424.173 50.2242L416.775 48.5803C412.939 47.6899 408.075 44.6756 408.075 37.7569C408.075 30.8381 414.31 26.8652 421.57 26.8652C428.762 26.8652 434.655 30.2901 435.27 38.305H426.023C425.543 36.0444 423.558 35.0166 421.296 35.0166C418.693 35.0166 417.187 36.0444 417.117 37.6886C417.117 39.1954 418.351 39.9489 419.858 40.2914L427.803 42.0728C431.639 42.9632 436.367 45.6343 436.367 52.9637C436.367 60.8419 429.996 63.8562 422.599 63.8562C415.269 63.8562 407.596 60.0884 407.254 51.7309ZM310.124 55.7039V63.8562H301.424C295.122 63.8562 292.382 60.4997 292.382 54.8135V20.4945H301.424V28.5092H310.124V36.6608H301.424V52.8962C301.424 54.5395 301.835 55.7039 304.028 55.7039H310.124ZM69.3452 82.2086H72.8608V100.576H69.3452V93.0454H62.5225V100.576H59.0068V82.2086H62.5225V89.5554H69.3452V82.2086ZM79.4921 92.1011V92.1266H84.6085V92.1011C84.5039 90.6844 83.6122 89.7917 82.0634 89.7917C80.5153 89.7917 79.6236 90.7099 79.4921 92.1011ZM79.4921 94.987V95.0657C79.4921 96.6662 80.4105 97.7157 82.0634 97.7157C83.2705 97.7157 84.1106 97.1386 84.4516 96.2204H87.9673C87.417 99.0543 85.3697 100.839 82.0634 100.839C78.1806 100.839 76.0292 98.372 76.0292 94.6197V92.8878C76.0292 89.1357 78.1806 86.6686 82.0634 86.6686C85.947 86.6686 88.0994 89.1357 88.0994 92.8878V94.9868L79.4921 94.987ZM94.1322 96.4298C94.1322 97.086 94.6308 97.7946 96.1786 97.7946C97.9634 97.7946 99.38 96.7977 99.38 95.092V94.6461C97.412 94.7768 95.5224 94.9344 94.8672 95.2759C94.2891 95.5642 94.1322 95.8532 94.1322 96.4298ZM99.3273 91.7594C99.0918 90.5524 98.226 89.7917 96.8087 89.7917C95.6015 89.7917 94.7612 90.3691 94.4205 91.2873H90.9311C91.4822 88.4532 93.5025 86.6686 96.8087 86.6686C100.691 86.6686 102.844 89.1357 102.844 92.8878V100.576H99.3799V99.0282C98.75 100.051 97.6743 100.839 95.6015 100.839C92.5054 100.839 90.6684 99.3164 90.6684 96.824C90.6684 94.8563 91.3507 93.6753 93.2403 92.7834C94.5781 92.1529 97.2809 91.9433 99.3273 91.7857V91.7594ZM111.263 97.4538V100.576H109.584C107.17 100.576 106.121 99.2901 106.121 97.1121V82.2088H109.584V96.3781C109.584 97.008 109.742 97.4539 110.581 97.4539L111.263 97.4538ZM121.337 97.4538V100.576H118.006C115.591 100.576 114.542 99.2901 114.542 97.1121V90.1589H112.627V87.0365H114.542V83.9669H118.006V87.0365H121.337V90.1589H118.006V96.3781C118.006 97.0079 118.163 97.4538 119.003 97.4538H121.337ZM136.004 100.576H132.541V92.6776C132.541 90.8412 131.281 90.0537 129.969 90.0537C128.657 90.0537 127.397 90.8412 127.397 92.6776V100.576H123.934V82.2086H127.397V88.2175C128.001 87.2993 129.366 86.6688 130.573 86.6688C133.327 86.6688 136.004 88.5584 136.004 92.547V100.576ZM168.873 96.9553C170.315 96.9553 171.077 96.2204 171.077 94.9344C171.077 93.6229 170.211 92.9141 168.873 92.9141H164.254V96.9553H168.873ZM168.426 85.5675H164.254V89.424H168.426C169.765 89.424 170.631 88.7413 170.631 87.4826C170.631 86.1964 169.765 85.5675 168.426 85.5675ZM160.738 82.0773H168.348C172.074 82.0773 174.146 84.1762 174.146 87.3511C174.146 88.8737 173.596 90.2115 172.493 91.0516C173.779 92.0222 174.592 93.4389 174.592 95.0657C174.592 98.3194 172.546 100.445 168.767 100.445H160.738V82.0773ZM185.637 94.6985V86.9052H189.101V100.445H185.637V98.9756C185.06 99.8936 184.01 100.707 182.357 100.707C179.838 100.707 177.188 98.8967 177.188 94.8292V86.9052H180.652V94.6985C180.652 96.5086 181.885 97.3224 183.144 97.3224C184.404 97.3224 185.637 96.5086 185.637 94.6985ZM191.67 96.0626H195.134C195.29 97.1123 196.524 97.5844 197.652 97.5844C198.334 97.5844 199.358 97.4276 199.358 96.5349C199.358 95.9845 198.965 95.6693 198.152 95.4854L195.317 94.8555C193.849 94.5147 191.984 93.36 191.984 90.7099C191.984 88.0597 194.371 86.5382 197.154 86.5382C199.908 86.5382 202.165 87.8497 202.401 90.9201H198.859C198.676 90.0545 197.913 89.6604 197.049 89.6604C196.051 89.6604 195.474 90.0545 195.448 90.6836C195.448 91.261 195.92 91.5493 196.497 91.6806L199.541 92.3631C201.011 92.7039 202.822 93.7271 202.822 96.5349C202.822 99.5529 200.381 100.707 197.548 100.707C194.74 100.707 191.801 99.2637 191.67 96.0626ZM208.958 100.445H205.495V86.9054H208.958V100.445ZM208.958 85.1469H205.495V82.0773H208.958V85.1469ZM224.543 100.445H221.08V92.5462C221.08 90.7099 219.821 89.9224 218.508 89.9224C217.197 89.9224 215.937 90.7099 215.937 92.5462V100.445H212.473V86.9054H215.937V88.0862C216.54 87.168 217.905 86.5382 219.112 86.5382C221.868 86.5382 224.543 88.4278 224.543 92.4157V100.445ZM230.918 91.9696V91.9951H236.034V91.9696C235.93 90.5524 235.038 89.6604 233.489 89.6604C231.94 89.6604 231.048 90.5791 230.918 91.9696ZM230.918 94.8555V94.9344C230.918 96.5349 231.836 97.5844 233.489 97.5844C234.696 97.5844 235.536 97.0071 235.876 96.0889H239.393C238.842 98.923 236.795 100.708 233.489 100.708C229.605 100.708 227.455 98.2406 227.455 94.4884V92.7565C227.455 89.0044 229.605 86.5382 233.489 86.5382C237.371 86.5382 239.524 89.0044 239.524 92.7565V94.8555H230.918ZM241.648 96.0626H245.111C245.268 97.1123 246.502 97.5844 247.63 97.5844C248.313 97.5844 249.335 97.4276 249.335 96.5349C249.335 95.9845 248.943 95.6693 248.128 95.4854L245.295 94.8555C243.825 94.5147 241.963 93.36 241.963 90.7099C241.963 88.0597 244.35 86.5382 247.133 86.5382C249.887 86.5382 252.143 87.8497 252.379 90.9201H248.837C248.653 90.0545 247.892 89.6604 247.027 89.6604C246.029 89.6604 245.453 90.0545 245.426 90.6836C245.426 91.261 245.899 91.5493 246.475 91.6806L249.52 92.3631C250.99 92.7039 252.8 93.7271 252.8 96.5349C252.8 99.5529 250.36 100.707 247.525 100.707C244.717 100.707 241.778 99.2637 241.648 96.0626ZM254.372 96.0626H257.836C257.993 97.1123 259.227 97.5844 260.355 97.5844C261.038 97.5844 262.06 97.4276 262.06 96.5349C262.06 95.9845 261.666 95.6693 260.853 95.4854L258.018 94.8555C256.55 94.5147 254.688 93.36 254.688 90.7099C254.688 88.0597 257.075 86.5382 259.855 86.5382C262.611 86.5382 264.868 87.8497 265.104 90.9201H261.562C261.378 90.0545 260.617 89.6604 259.75 89.6604C258.754 89.6604 258.176 90.0545 258.151 90.6836C258.151 91.261 258.624 91.5493 259.2 91.6806L262.244 92.3631C263.713 92.7039 265.523 93.7271 265.523 96.5349C265.523 99.5529 263.082 100.707 260.25 100.707C257.442 100.707 254.503 99.2637 254.372 96.0626ZM297.342 90.08H304.268V94.0425C304.268 98.1092 301.751 100.839 297.342 100.839C292.933 100.839 290.414 98.1092 290.414 94.0425V88.7422C290.414 84.6748 292.933 81.9466 297.342 81.9466C301.487 81.9466 303.953 84.3602 304.243 88.0073H300.699C300.386 86.354 299.02 85.436 297.342 85.436C295.426 85.436 293.93 86.617 293.93 88.7422V94.0425C293.93 96.1678 295.426 97.3487 297.342 97.3487C299.256 97.3487 300.751 96.1678 300.751 94.0425V93.5703H297.342V90.08ZM315.496 92.4419C315.496 90.8414 314.577 89.7917 312.924 89.7917C311.272 89.7917 310.353 90.8414 310.353 92.4419V95.0657C310.353 96.6662 311.272 97.7157 312.924 97.7157C314.577 97.7157 315.496 96.6662 315.496 95.0657V92.4419ZM306.89 92.8878C306.89 89.1357 309.042 86.6686 312.924 86.6686C316.809 86.6686 318.961 89.1357 318.961 92.8878V94.6198C318.961 98.3719 316.809 100.839 312.924 100.839C309.042 100.839 306.89 98.372 306.89 94.6197V92.8878ZM329.872 87.0365H333.519L328.64 100.576H325.071L320.189 87.0365H323.837L326.854 95.6693L329.872 87.0365ZM338.214 92.1011V92.1266H343.33V92.1011C343.227 90.6844 342.335 89.7917 340.786 89.7917C339.239 89.7917 338.345 90.7099 338.214 92.1011ZM338.214 94.987V95.0657C338.214 96.6662 339.133 97.7157 340.786 97.7157C341.993 97.7157 342.833 97.1386 343.175 96.2204H346.69C346.138 99.0543 344.092 100.839 340.786 100.839C336.904 100.839 334.751 98.372 334.751 94.6197V92.8878C334.751 89.1357 336.904 86.6686 340.786 86.6686C344.67 86.6686 346.823 89.1357 346.823 92.8878V94.9868L338.214 94.987ZM353.353 100.576H349.89V87.0365H353.353V88.5065C353.747 87.6139 354.902 86.8002 356.501 86.8002H357.551V90.1852H355.925C354.612 90.1852 353.353 90.9719 353.353 92.809V100.576ZM371.876 100.576H368.413V92.6776C368.413 90.8412 367.152 90.0537 365.842 90.0537C364.529 90.0537 363.27 90.8412 363.27 92.6776V100.576H359.807V87.0365H363.27V88.2175C363.874 87.2993 365.238 86.6688 366.445 86.6688C369.201 86.6688 371.876 88.5584 371.876 92.547V100.576ZM387.119 100.576H383.655V92.6776C383.655 90.8675 382.397 90.0537 381.163 90.0537C379.929 90.0537 378.67 90.8675 378.67 92.6776V100.576H375.207V87.0365H378.67V88.1649C379.326 87.2469 380.559 86.6688 381.739 86.6688C383.156 86.6688 384.444 87.1935 385.387 88.4532C386.358 87.2732 387.749 86.6688 389.611 86.6688C393.048 86.6688 395.567 88.5845 395.567 92.547V100.576H392.104V92.6776C392.104 90.8675 390.845 90.0537 389.611 90.0537C388.378 90.0537 387.119 90.8675 387.119 92.6776V100.576ZM401.94 92.1011V92.1266H407.056V92.1011C406.952 90.6844 406.061 89.7917 404.512 89.7917C402.965 89.7917 402.071 90.7099 401.94 92.1011ZM401.94 94.987V95.0657C401.94 96.6662 402.859 97.7157 404.512 97.7157C405.719 97.7157 406.559 97.1386 406.901 96.2204H410.416C409.864 99.0543 407.817 100.839 404.512 100.839C400.629 100.839 398.477 98.372 398.477 94.6197V92.8878C398.477 89.1357 400.629 86.6686 404.512 86.6686C408.396 86.6686 410.546 89.1357 410.546 92.8878V94.9868L401.94 94.987ZM425.685 100.576H422.222V92.6776C422.222 90.8412 420.963 90.0537 419.65 90.0537C418.338 90.0537 417.079 90.8412 417.079 92.6776V100.576H413.616V87.0365H417.079V88.2175C417.682 87.2993 419.047 86.6688 420.254 86.6688C423.01 86.6688 425.685 88.5584 425.685 92.547V100.576ZM436.255 97.4538V100.576H432.923C430.509 100.576 429.46 99.2901 429.46 97.1121V90.1589H427.544V87.0365H429.46V83.9669H432.923V87.0365H436.255V90.1589H432.923V96.3781C432.923 97.0079 433.081 97.4538 433.92 97.4538H436.255Z" fill="#2E3191"/>
<path d="M146.671 100.577H150.071V82.21H146.671V100.577Z" fill="#25B4A9"/>
<path d="M276.192 100.577H279.592V82.21H276.192V100.577Z" fill="#25B4A9"/>
<path d="M444.435 30.1985H446.032C446.595 30.1985 446.97 30.4799 446.97 31.0439C446.97 31.5918 446.595 31.8733 446.032 31.8733H444.435V30.1985ZM448.269 35.679L446.611 32.86C447.535 32.6721 448.068 32.0305 448.068 31.0282C448.068 29.8381 447.299 29.134 446.032 29.134H443.368V35.679H444.435V32.9072H445.452L447.08 35.679H448.269ZM445.546 37.0407C448.114 37.0407 450.166 34.974 450.166 32.4058C450.166 29.8381 448.114 27.7713 445.546 27.7713C442.978 27.7713 440.928 29.8381 440.928 32.4058C440.928 34.974 442.978 37.0407 445.546 37.0407ZM445.546 26.7693C448.661 26.7693 451.183 29.2909 451.183 32.4058C451.183 35.5218 448.661 38.043 445.546 38.043C442.431 38.043 439.909 35.5218 439.909 32.4058C439.909 29.2909 442.431 26.7693 445.546 26.7693ZM13.5523 16.129L0 9.34766V95.3878L27.1045 108.95V93.7941L13.5522 87.0149L13.5523 16.129Z" fill="#2E3191"/>
<path d="M27.1046 93.7938L40.6569 100.579V14.5366L13.5522 0.974609V16.1289L27.1046 22.9065V93.7938Z" fill="#25B4A9"/>
</svg>
